<?xml version="1.0" encoding="UTF-8"?>
<svg xmlns="http://www.w3.org/2000/svg" xmlns:xlink="http://www.w3.org/1999/xlink" width="200px" height="px" viewBox="0 0 201 67" version="1.1">
<g id="surface1">
<path style=" stroke:none;fill-rule:nonzero;fill:rgb(0%,48.235294%,78.039216%);fill-opacity:1;" d="M 126.484375 6.59375 C 126.484375 8.3125 125.101562 9.71875 123.367188 9.71875 C 121.65625 9.71875 120.25 8.335938 120.25 6.59375 C 120.25 4.878906 121.632812 3.46875 123.367188 3.46875 C 125.101562 3.492188 126.484375 4.878906 126.484375 6.59375 M 140.871094 8.078125 C 139.816406 5.746094 135.527344 4.523438 128.6875 4.972656 C 128.777344 5.300781 128.871094 5.65625 128.894531 6.03125 C 133.324219 6.242188 136.019531 7.347656 136.464844 8.992188 C 137.167969 11.625 131.640625 15.785156 121.515625 20.230469 C 120.601562 9.226562 111.371094 0.574219 100.171875 0.621094 C 89.34375 0.671875 80.417969 8.78125 79.082031 19.289062 C 65.984375 26.199219 57.972656 33.253906 59.9375 37.628906 C 61.390625 40.871094 69.335938 42.023438 81.941406 39.320312 C 81.777344 39.039062 81.636719 38.753906 81.519531 38.449219 C 71.445312 39.976562 65 38.824219 64.34375 36.730469 C 63.5 34.074219 69.429688 29.753906 79.972656 25.214844 C 83.160156 23.828125 94.59375 19.078125 108.089844 15.527344 C 108.253906 15.480469 108.347656 15.714844 108.183594 15.785156 C 95.742188 21.570312 87.164062 27.707031 85.6875 32.410156 C 83.769531 38.472656 91.710938 43.457031 100.3125 43.433594 C 110.433594 43.386719 118.890625 36.289062 121.046875 26.8125 C 134.542969 19.710938 142.863281 12.496094 140.871094 8.078125 "/>
<path style=" stroke:none;fill-rule:nonzero;fill:rgb(0%,0%,0%);fill-opacity:1;" d="M 36.414062 51.613281 C 34.164062 51.613281 32.667969 52.085938 31.167969 52.769531 L 32.035156 55.304688 C 33.296875 54.789062 34.449219 54.433594 35.996094 54.433594 C 38.195312 54.433594 39.390625 55.496094 39.390625 57.398438 L 39.390625 57.65625 C 38.3125 57.304688 37.234375 57.066406 35.574219 57.066406 C 32.550781 57.066406 29.972656 58.382812 29.972656 61.628906 C 29.972656 64.472656 32.3125 65.933594 34.890625 65.933594 C 36.976562 65.933594 38.429688 65.0625 39.367188 63.933594 L 39.367188 65.648438 L 42.507812 65.648438 L 42.507812 57.445312 C 42.484375 53.753906 40.492188 51.613281 36.414062 51.613281 M 39.4375 60.667969 C 39.4375 62.40625 37.867188 63.582031 35.78125 63.582031 C 34.542969 63.582031 33.113281 63.015625 33.113281 61.511719 C 33.113281 60.078125 34.375 59.328125 36.273438 59.328125 C 37.492188 59.328125 38.617188 59.5625 39.4375 59.867188 Z M 66.734375 51.613281 C 64.484375 51.613281 62.984375 52.085938 61.484375 52.769531 L 62.332031 55.304688 C 63.59375 54.789062 64.742188 54.433594 66.289062 54.433594 C 68.492188 54.433594 69.6875 55.496094 69.6875 57.398438 L 69.6875 57.65625 C 68.609375 57.304688 67.53125 57.066406 65.867188 57.066406 C 62.847656 57.066406 60.269531 58.382812 60.269531 61.628906 C 60.269531 64.472656 62.609375 65.933594 65.1875 65.933594 C 67.273438 65.933594 68.726562 65.0625 69.664062 63.933594 L 69.664062 65.648438 L 72.800781 65.648438 L 72.800781 57.445312 C 72.800781 53.753906 70.8125 51.613281 66.734375 51.613281 M 69.734375 60.667969 C 69.734375 62.40625 68.164062 63.582031 66.078125 63.582031 C 64.839844 63.582031 63.40625 63.015625 63.40625 61.511719 C 63.40625 60.078125 64.671875 59.328125 66.570312 59.328125 C 67.789062 59.328125 68.914062 59.5625 69.734375 59.867188 Z M 89.71875 58.761719 C 89.71875 54.789062 92.507812 51.523438 96.46875 51.523438 C 100.875 51.523438 103.074219 54.976562 103.074219 58.972656 C 103.074219 59.253906 103.050781 59.5625 103.027344 59.867188 L 92.882812 59.867188 C 93.234375 62.125 94.828125 63.394531 96.867188 63.394531 C 98.414062 63.394531 99.511719 62.804688 100.613281 61.746094 L 102.464844 63.394531 C 101.152344 64.96875 99.351562 65.980469 96.820312 65.980469 C 92.789062 66.003906 89.71875 63.0625 89.71875 58.761719 M 99.960938 57.773438 C 99.75 55.726562 98.554688 54.132812 96.445312 54.132812 C 94.5 54.132812 93.140625 55.632812 92.859375 57.773438 Z M 54.949219 51.824219 L 58.113281 51.824219 L 58.113281 65.671875 L 54.949219 65.671875 Z M 75.402344 51.824219 L 78.566406 51.824219 L 78.566406 53.988281 C 79.457031 52.671875 80.746094 51.546875 82.878906 51.546875 C 85.996094 51.546875 87.796875 53.636719 87.796875 56.882812 L 87.796875 65.695312 L 84.632812 65.695312 L 84.632812 57.820312 C 84.632812 55.65625 83.558594 54.433594 81.683594 54.433594 C 79.855469 54.433594 78.566406 55.726562 78.566406 57.867188 L 78.566406 65.695312 L 75.402344 65.695312 Z M 48.296875 54.929688 C 49.160156 52.863281 50.753906 51.453125 53.191406 51.546875 L 53.191406 54.90625 C 50.027344 54.835938 48.296875 56.953125 48.296875 60.382812 L 48.296875 65.648438 L 45.128906 65.648438 L 45.128906 51.800781 L 48.296875 51.800781 L 48.296875 54.929688 M 117.484375 58.269531 L 117.484375 63.839844 C 116.199219 64.992188 114.230469 65.980469 111.886719 65.980469 C 107.503906 65.980469 104.785156 62.757812 104.785156 58.761719 C 104.785156 54.929688 107.597656 51.5 111.792969 51.5 C 114.136719 51.5 115.589844 52.203125 116.992188 53.378906 L 115.984375 54.578125 C 114.90625 53.636719 113.714844 52.976562 111.746094 52.976562 C 108.652344 52.976562 106.472656 55.609375 106.472656 58.738281 C 106.472656 61.960938 108.605469 64.523438 111.980469 64.523438 C 113.574219 64.523438 115.050781 63.957031 115.960938 63.179688 L 115.960938 59.820312 L 111.746094 59.820312 L 111.746094 58.289062 L 117.484375 58.289062 Z M 135.292969 51.5 C 131.285156 51.5 128.171875 54.695312 128.171875 58.785156 C 128.171875 62.828125 131.238281 66.003906 135.246094 66.003906 C 139.277344 66.003906 142.371094 62.804688 142.371094 58.714844 C 142.371094 54.648438 139.253906 51.5 135.292969 51.5 M 135.292969 64.523438 C 132.222656 64.523438 129.832031 61.984375 129.832031 58.714844 C 129.832031 55.449219 132.222656 52.976562 135.246094 52.976562 C 138.339844 52.976562 140.707031 55.519531 140.707031 58.785156 C 140.707031 62.007812 138.363281 64.523438 135.292969 64.523438 M 155.066406 51.824219 L 156.613281 51.824219 L 156.613281 65.695312 L 155.066406 65.695312 L 155.066406 63.488281 C 153.964844 65.179688 152.375 66.027344 150.3125 66.027344 C 146.9375 66.027344 144.757812 63.769531 144.757812 60.289062 L 144.757812 51.847656 L 146.304688 51.847656 L 146.304688 60.054688 C 146.304688 62.875 147.875 64.570312 150.5 64.570312 C 153.125 64.570312 155.09375 62.523438 155.09375 59.84375 L 155.09375 51.824219 Z M 165.332031 51.824219 L 160.128906 51.824219 L 160.128906 65.671875 L 161.675781 65.671875 L 161.675781 60.878906 L 165.074219 60.878906 C 168.050781 60.878906 170.558594 59.304688 170.558594 56.269531 C 170.558594 53.519531 168.472656 51.824219 165.332031 51.824219 M 165.121094 59.445312 L 161.675781 59.445312 L 161.675781 53.261719 L 165.214844 53.261719 C 167.464844 53.261719 168.890625 54.339844 168.890625 56.339844 C 168.890625 58.175781 167.441406 59.445312 165.121094 59.445312 M 127.9375 53.210938 C 125.570312 53.210938 122.171875 54.90625 122.171875 59.960938 L 122.171875 65.671875 L 120.625 65.671875 L 120.625 51.800781 L 122.171875 51.800781 L 122.171875 55.257812 C 123.765625 52.226562 126.484375 51.546875 127.9375 51.589844 Z M 127.9375 53.210938 "/>
</g>
</svg>
