<?xml version="1.0" encoding="UTF-8"?>
<svg xmlns="http://www.w3.org/2000/svg" xmlns:xlink="http://www.w3.org/1999/xlink" width="200px" height="px" viewBox="0 0 201 67" version="1.1">
<g id="surface1">
<path style=" stroke:none;fill-rule:evenodd;fill:rgb(5.490196%,53.333333%,82.745098%);fill-opacity:1;" d="M 76.433594 9.910156 L 74.828125 13.191406 L 80.390625 14.433594 L 81.972656 11.179688 Z M 83.183594 11.472656 L 81.605469 14.75 L 87.167969 16.019531 L 88.71875 12.765625 Z M 101.242188 15.648438 L 99.6875 18.925781 L 105.253906 20.222656 L 106.832031 16.945312 Z M 108.019531 17.238281 L 106.4375 20.511719 L 112.027344 21.785156 L 113.582031 18.53125 Z M 108.019531 17.238281 "/>
<path style=" stroke:none;fill-rule:evenodd;fill:rgb(5.490196%,53.333333%,82.745098%);fill-opacity:1;" d="M 101.796875 38.417969 C 101.480469 38.417969 101.191406 38.550781 100.925781 38.789062 C 100.71875 39 100.558594 39.34375 100.558594 39.6875 C 100.558594 40.03125 100.71875 40.324219 100.925781 40.585938 C 101.191406 40.800781 101.480469 40.957031 101.796875 40.957031 C 102.167969 40.957031 102.511719 40.800781 102.71875 40.585938 C 102.984375 40.324219 103.089844 40.03125 103.089844 39.6875 C 103.089844 39.34375 102.984375 39 102.71875 38.789062 C 102.511719 38.550781 102.167969 38.417969 101.796875 38.417969 Z M 99.503906 41.617188 L 99.503906 43.125 L 108.386719 43.125 C 107.175781 43.390625 106.09375 43.972656 105.300781 44.789062 C 104.882812 45.214844 104.484375 45.875 104.117188 46.722656 C 103.957031 47.09375 103.828125 47.460938 103.667969 47.886719 C 106.253906 47.914062 107.863281 48.015625 108.570312 48.28125 C 109.046875 48.46875 109.46875 48.730469 109.917969 49.046875 C 110.472656 49.472656 110.761719 49.871094 110.839844 50.265625 L 105.621094 50.265625 L 103.851562 52.039062 L 109.972656 52.039062 C 111.761719 50.691406 112.632812 49.578125 112.632812 48.679688 C 112.632812 48.28125 112.449219 47.914062 112.128906 47.597656 C 111.417969 46.882812 110.472656 46.429688 109.285156 46.21875 C 108.679688 46.113281 107.597656 46.035156 106.066406 46.035156 C 106.277344 45.746094 106.515625 45.375 106.699219 45.03125 C 107.015625 44.632812 107.308594 44.449219 107.648438 44.449219 C 108.441406 44.449219 109.785156 44.976562 111.578125 46.007812 L 113.371094 44.183594 C 112.6875 43.761719 111.972656 43.390625 111.3125 43.125 L 132.246094 43.125 L 132.246094 41.617188 Z M 100.71875 44.34375 L 100.71875 52.039062 L 102.90625 52.039062 L 102.90625 44.34375 Z M 114.398438 44.34375 L 114.398438 52.039062 L 116.613281 52.039062 L 116.613281 46.804688 C 117.191406 46.5625 117.773438 46.40625 118.378906 46.40625 C 118.984375 46.40625 119.460938 46.589844 119.828125 46.882812 C 120.277344 47.359375 120.460938 48.097656 120.382812 49.105469 L 122.253906 47.277344 C 122.308594 46.328125 122.070312 45.585938 121.597656 45.109375 C 121.199219 44.738281 120.726562 44.527344 120.121094 44.527344 C 119.539062 44.527344 118.878906 44.710938 118.195312 45.109375 C 117.5625 45.398438 117.035156 45.824219 116.613281 46.246094 L 116.613281 44.34375 Z M 123.386719 44.34375 L 123.386719 50.082031 C 123.386719 50.082031 123.441406 51.191406 124.179688 51.746094 C 124.679688 52.0625 125.390625 52.039062 125.390625 52.039062 L 131.375 52.039062 L 131.375 46.40625 C 131.375 45.851562 131.191406 45.375 130.875 44.976562 C 130.585938 44.554688 130.1875 44.34375 129.714844 44.34375 Z M 128.785156 46.367188 C 129.359375 46.355469 129.320312 46.507812 129.320312 47.410156 L 129.320312 49.976562 L 125.867188 49.976562 C 125.867188 49.976562 125.523438 50 125.445312 49.898438 C 125.339844 49.761719 125.390625 49.605469 125.390625 48.839844 L 125.390625 46.378906 L 128.503906 46.378906 C 128.609375 46.371094 128.707031 46.367188 128.785156 46.367188 Z M 128.785156 46.367188 "/>
<path style=" stroke:none;fill-rule:evenodd;fill:rgb(95.686275%,44.705882%,8.627451%);fill-opacity:1;" d="M 77.859375 40.136719 L 97.871094 -0.5625 L 97.734375 69.253906 L 92.226562 22.816406 L 77.859375 40.136719 "/>
<path style=" stroke:none;fill-rule:evenodd;fill:rgb(95.686275%,44.705882%,8.627451%);fill-opacity:1;" d="M 86.585938 37.414062 C 86.457031 37.417969 86.324219 37.425781 86.1875 37.4375 L 85.453125 39.214844 C 87.53125 38.832031 88.421875 39.417969 89.207031 41.566406 L 59.984375 41.566406 L 59.984375 43.101562 L 67.027344 43.101562 L 67.027344 43.972656 C 67.027344 43.972656 64.230469 42.863281 61.855469 45.003906 C 59.984375 47.171875 61.566406 49.289062 61.566406 49.289062 C 61.566406 49.289062 63.097656 48.441406 65.519531 48.839844 C 67.789062 49.234375 67.683594 50.316406 67.683594 50.316406 C 67.683594 50.316406 67.367188 51.667969 65.550781 51.402344 C 63.730469 51.109375 63.863281 49.289062 63.863281 49.289062 L 61.855469 50.636719 C 61.855469 50.636719 62.617188 51.933594 64.332031 52.351562 L 65.863281 54.65625 L 68.132812 54.65625 L 66.386719 52.390625 C 66.582031 52.355469 66.785156 52.308594 66.996094 52.25 C 71.398438 51.085938 69.84375 47.753906 66.574219 46.882812 C 64.308594 46.300781 61.855469 47.410156 61.855469 47.410156 C 61.855469 47.410156 62.175781 44.605469 66.234375 45.269531 C 68.5 45.664062 69.320312 46.589844 69.320312 46.589844 L 69.320312 43.101562 L 73.863281 43.101562 L 71.953125 43.996094 C 71.953125 43.996094 72.929688 45.082031 73.273438 46.511719 C 73.5625 47.992188 72.929688 48.253906 72.535156 48.28125 C 72.269531 48.097656 71.03125 46.328125 71.03125 46.328125 L 70.160156 47.09375 L 73.300781 52.039062 L 75.515625 52.039062 C 75.515625 52.039062 73.484375 49.578125 73.167969 49.128906 C 73.6875 49.113281 74.402344 48.945312 74.875 48.304688 C 75.203125 48.476562 75.601562 48.621094 76.070312 48.652344 C 77.464844 48.785156 78.335938 48.097656 78.335938 48.097656 L 78.335938 52.039062 L 80.628906 52.039062 L 80.628906 43.101562 L 85.589844 43.101562 L 83.660156 43.996094 C 83.660156 43.996094 84.6875 45.082031 84.976562 46.511719 C 85.269531 47.992188 84.660156 48.253906 84.238281 48.28125 C 84.03125 48.097656 82.738281 46.328125 82.738281 46.328125 L 81.867188 47.09375 L 84.976562 52.039062 L 87.21875 52.039062 C 87.21875 52.039062 85.242188 49.578125 84.925781 49.128906 C 85.636719 49.105469 86.824219 48.757812 87.035156 47.066406 C 87.339844 44.820312 86.339844 43.488281 85.996094 43.101562 L 88.71875 43.101562 L 88.71875 52.039062 L 91.015625 52.039062 L 91.015625 43.101562 L 92.226562 43.101562 L 92.226562 41.566406 L 90.554688 41.566406 C 89.605469 38.238281 88.449219 37.34375 86.585938 37.414062 Z M 74.269531 43.101562 L 78.335938 43.101562 L 78.335938 45.691406 C 78.335938 45.691406 78.335938 46.40625 76.9375 47.09375 C 76.347656 47.414062 75.742188 47.539062 75.222656 47.574219 C 75.269531 47.417969 75.308594 47.253906 75.328125 47.066406 C 75.636719 44.820312 74.621094 43.488281 74.269531 43.101562 Z M 74.269531 43.101562 "/>
</g>
</svg>
