<?xml version="1.0" encoding="UTF-8"?>
<svg xmlns="http://www.w3.org/2000/svg" xmlns:xlink="http://www.w3.org/1999/xlink" width="200px" height="px" viewBox="0 0 201 67" version="1.1">
<g id="surface1">
<path style=" stroke:none;fill-rule:nonzero;fill:rgb(7.45098%,4.705882%,5.490196%);fill-opacity:1;" d="M 69.066406 41.953125 L 85.582031 41.953125 L 77.324219 35.269531 Z M 120.730469 41.953125 L 131.917969 41.953125 L 114.398438 27.738281 L 119.980469 27.738281 C 125.222656 27.730469 129.476562 23.890625 129.484375 19.152344 L 129.484375 8.585938 C 129.476562 3.847656 125.222656 0.00390625 119.980469 0 L 69.058594 0 L 77.328125 6.71875 L 119.980469 6.71875 C 121.117188 6.722656 122.042969 7.554688 122.042969 8.585938 L 122.042969 19.152344 C 122.042969 20.179688 121.117188 21.015625 119.980469 21.019531 L 94.949219 21.019531 Z M 120.730469 41.953125 "/>
<path style=" stroke:none;fill-rule:nonzero;fill:rgb(89.411765%,15.294118%,15.294118%);fill-opacity:1;" d="M 0.09375 21.015625 L 71.515625 25.550781 C 76.730469 25.882812 81.84375 24.226562 85.503906 21.015625 C 81.792969 17.832031 76.742188 16.222656 71.601562 16.542969 Z M 0.09375 21.015625 "/>
<path style=" stroke:none;fill-rule:nonzero;fill:rgb(7.45098%,4.705882%,5.490196%);fill-opacity:1;" d="M 12.597656 63.074219 L 13.636719 63.074219 C 15.121094 63.074219 16.320312 61.988281 16.320312 60.648438 L 16.320312 58.566406 C 16.320312 57.226562 15.121094 56.144531 13.636719 56.144531 L 0.09375 56.144531 L 0.09375 67.007812 L 2.507812 67.007812 L 2.507812 57.996094 L 13.765625 57.996094 C 13.835938 57.996094 13.898438 58.019531 13.949219 58.0625 C 14 58.109375 14.027344 58.167969 14.027344 58.230469 L 14.027344 60.929688 C 14.027344 61.0625 13.90625 61.167969 13.765625 61.167969 L 6.757812 61.167969 L 13.917969 66.980469 L 17.371094 66.980469 Z M 36.433594 56.128906 C 37.347656 56.128906 38.222656 56.453125 38.871094 57.035156 C 39.515625 57.621094 39.878906 58.414062 39.871094 59.238281 L 39.871094 63.890625 C 39.878906 64.71875 39.515625 65.511719 38.871094 66.09375 C 38.222656 66.679688 37.347656 67.003906 36.433594 67.003906 L 26.121094 67.003906 C 25.207031 67.003906 24.332031 66.675781 23.683594 66.09375 C 23.042969 65.507812 22.679688 64.714844 22.679688 63.890625 L 22.679688 59.238281 C 22.679688 58.414062 23.042969 57.621094 23.6875 57.039062 C 24.332031 56.457031 25.207031 56.128906 26.121094 56.128906 Z M 37.476562 58.921875 C 37.476562 58.675781 37.371094 58.4375 37.175781 58.265625 C 36.984375 58.085938 36.71875 57.984375 36.441406 57.988281 L 26.128906 57.988281 C 25.558594 57.996094 25.101562 58.410156 25.097656 58.921875 L 25.097656 64.207031 C 25.101562 64.71875 25.558594 65.132812 26.128906 65.140625 L 36.441406 65.140625 C 36.71875 65.148438 36.984375 65.046875 37.175781 64.863281 C 37.371094 64.691406 37.476562 64.453125 37.476562 64.207031 Z M 63.164062 65.140625 C 63.195312 65.140625 63.222656 65.152344 63.242188 65.171875 C 63.261719 65.1875 63.273438 65.207031 63.277344 65.230469 L 63.277344 66.898438 C 63.277344 66.925781 63.261719 66.949219 63.242188 66.96875 C 63.222656 66.988281 63.195312 66.996094 63.164062 66.996094 L 49.523438 66.996094 C 48.613281 66.996094 47.734375 66.671875 47.089844 66.085938 C 46.441406 65.503906 46.082031 64.710938 46.085938 63.886719 L 46.085938 59.234375 C 46.082031 58.410156 46.445312 57.621094 47.089844 57.035156 C 47.734375 56.453125 48.613281 56.125 49.523438 56.125 L 63.164062 56.125 C 63.195312 56.125 63.222656 56.136719 63.242188 56.15625 C 63.261719 56.171875 63.277344 56.199219 63.277344 56.226562 L 63.277344 57.898438 C 63.273438 57.921875 63.261719 57.945312 63.242188 57.957031 C 63.222656 57.976562 63.195312 57.988281 63.164062 57.988281 L 49.523438 57.988281 C 49.246094 57.980469 48.980469 58.082031 48.792969 58.265625 C 48.597656 58.4375 48.484375 58.671875 48.488281 58.921875 L 48.488281 64.203125 C 48.488281 64.449219 48.597656 64.6875 48.792969 64.859375 C 48.980469 65.042969 49.246094 65.140625 49.523438 65.136719 Z M 85.449219 66.996094 C 85.484375 66.992188 85.515625 66.972656 85.523438 66.945312 C 85.53125 66.917969 85.519531 66.886719 85.492188 66.867188 L 76.359375 61.570312 L 85.511719 56.265625 C 85.539062 56.25 85.550781 56.21875 85.539062 56.1875 C 85.53125 56.160156 85.5 56.136719 85.46875 56.136719 L 81.777344 56.136719 C 81.738281 56.136719 81.695312 56.152344 81.664062 56.179688 L 73.660156 60.523438 L 71.3125 60.53125 L 71.3125 56.238281 C 71.3125 56.183594 71.265625 56.136719 71.207031 56.136719 L 69.175781 56.136719 C 69.117188 56.136719 69.066406 56.183594 69.066406 56.238281 L 69.066406 66.902344 C 69.066406 66.957031 69.113281 67 69.175781 67 L 71.199219 67 C 71.261719 67 71.308594 66.957031 71.308594 66.902344 L 71.308594 62.5625 L 73.601562 62.5625 L 81.660156 66.957031 C 81.695312 66.980469 81.734375 66.996094 81.777344 66.996094 Z M 93.617188 60.636719 L 107.914062 60.636719 C 107.941406 60.636719 107.96875 60.644531 107.992188 60.664062 C 108.011719 60.683594 108.023438 60.707031 108.023438 60.734375 L 108.023438 62.402344 C 108.023438 62.429688 108.011719 62.453125 107.992188 62.472656 C 107.96875 62.492188 107.941406 62.5 107.914062 62.5 L 93.617188 62.5 L 93.617188 64.203125 C 93.613281 64.449219 93.722656 64.6875 93.917969 64.863281 C 94.109375 65.042969 94.375 65.140625 94.652344 65.140625 L 108.285156 65.140625 C 108.3125 65.136719 108.339844 65.148438 108.359375 65.164062 C 108.378906 65.179688 108.386719 65.203125 108.390625 65.226562 L 108.390625 66.890625 C 108.390625 66.917969 108.378906 66.941406 108.359375 66.964844 C 108.339844 66.980469 108.3125 66.988281 108.285156 66.988281 L 94.660156 66.988281 C 93.746094 66.992188 92.867188 66.664062 92.222656 66.082031 C 91.578125 65.5 91.21875 64.707031 91.21875 63.882812 L 91.21875 59.246094 C 91.21875 58.421875 91.578125 57.632812 92.222656 57.050781 C 92.867188 56.464844 93.746094 56.140625 94.660156 56.144531 L 108.289062 56.144531 C 108.316406 56.140625 108.347656 56.152344 108.367188 56.171875 C 108.386719 56.1875 108.398438 56.214844 108.394531 56.242188 L 108.394531 57.90625 C 108.394531 57.929688 108.386719 57.953125 108.367188 57.96875 C 108.347656 57.984375 108.316406 57.996094 108.289062 57.996094 L 94.660156 57.996094 C 94.382812 57.988281 94.113281 58.089844 93.921875 58.273438 C 93.730469 58.445312 93.621094 58.683594 93.625 58.929688 Z M 114.8125 56.265625 C 114.8125 56.238281 114.820312 56.210938 114.839844 56.195312 C 114.859375 56.179688 114.882812 56.167969 114.90625 56.164062 L 131.84375 56.164062 C 131.871094 56.167969 131.894531 56.179688 131.910156 56.195312 C 131.933594 56.210938 131.941406 56.238281 131.941406 56.265625 L 131.941406 57.929688 C 131.941406 57.953125 131.929688 57.976562 131.910156 57.988281 C 131.894531 58.007812 131.871094 58.015625 131.84375 58.015625 L 124.574219 58.015625 L 124.574219 66.902344 C 124.574219 66.925781 124.5625 66.953125 124.542969 66.972656 C 124.527344 66.988281 124.503906 66.996094 124.476562 66.996094 L 122.28125 66.996094 C 122.253906 67 122.226562 66.988281 122.203125 66.972656 C 122.183594 66.953125 122.171875 66.925781 122.171875 66.902344 L 122.171875 58.019531 L 114.90625 58.019531 C 114.882812 58.019531 114.859375 58.011719 114.839844 57.996094 C 114.820312 57.980469 114.8125 57.957031 114.8125 57.933594 Z M 114.8125 56.265625 "/>
<path style=" stroke:none;fill-rule:nonzero;fill:rgb(56.862745%,58.039216%,59.607843%);fill-opacity:1;" d="M 155.574219 66.917969 C 155.574219 66.9375 155.5625 66.957031 155.542969 66.972656 C 155.527344 66.992188 155.503906 67 155.476562 67.003906 L 141.847656 67.003906 C 140.933594 67.003906 140.0625 66.679688 139.414062 66.09375 C 138.769531 65.511719 138.410156 64.71875 138.414062 63.894531 L 138.414062 56.242188 C 138.414062 56.214844 138.421875 56.1875 138.445312 56.171875 C 138.460938 56.15625 138.484375 56.144531 138.507812 56.144531 L 140.707031 56.144531 C 140.738281 56.144531 140.765625 56.15625 140.785156 56.171875 C 140.804688 56.1875 140.816406 56.214844 140.816406 56.242188 L 140.816406 64.210938 C 140.8125 64.457031 140.917969 64.695312 141.117188 64.871094 C 141.308594 65.046875 141.570312 65.148438 141.847656 65.144531 L 155.476562 65.144531 C 155.527344 65.148438 155.570312 65.183594 155.574219 65.230469 Z M 162.917969 67.003906 C 162.949219 67.003906 162.980469 66.984375 162.996094 66.957031 L 167.859375 59.113281 C 168.222656 58.527344 168.910156 58.171875 169.648438 58.179688 C 170.390625 58.171875 171.082031 58.535156 171.441406 59.121094 L 176.304688 66.964844 C 176.316406 66.988281 176.34375 67.003906 176.371094 67.003906 L 178.855469 67.003906 C 178.882812 67 178.910156 66.988281 178.921875 66.964844 C 178.9375 66.945312 178.9375 66.917969 178.925781 66.898438 L 173.492188 58.136719 C 172.714844 56.882812 171.238281 56.113281 169.644531 56.128906 L 169.636719 56.128906 C 168.046875 56.109375 166.574219 56.875 165.792969 58.128906 L 160.390625 66.878906 C 160.375 66.902344 160.375 66.933594 160.394531 66.960938 C 160.410156 66.984375 160.4375 67 160.46875 67.003906 Z M 200.902344 59.398438 C 200.917969 60.214844 200.5625 61 199.917969 61.570312 C 200.5625 62.144531 200.917969 62.925781 200.902344 63.746094 L 200.902344 63.90625 C 200.917969 64.730469 200.554688 65.519531 199.898438 66.09375 C 199.261719 66.6875 198.382812 67.015625 197.472656 67.003906 L 183.839844 67.003906 C 183.8125 67.003906 183.785156 66.996094 183.761719 66.976562 C 183.746094 66.960938 183.734375 66.941406 183.734375 66.917969 L 183.734375 56.242188 C 183.730469 56.214844 183.742188 56.1875 183.761719 56.171875 C 183.785156 56.152344 183.8125 56.140625 183.839844 56.144531 L 197.472656 56.144531 C 199.367188 56.148438 200.902344 57.535156 200.90625 59.246094 Z M 186.132812 58.011719 L 186.132812 60.648438 L 197.464844 60.648438 C 198.035156 60.644531 198.496094 60.230469 198.5 59.714844 L 198.5 58.933594 C 198.503906 58.6875 198.394531 58.453125 198.195312 58.28125 C 198.003906 58.105469 197.742188 58.007812 197.464844 58.011719 Z M 198.5 64.210938 L 198.5 63.441406 C 198.503906 63.1875 198.394531 62.949219 198.195312 62.777344 C 198.003906 62.601562 197.742188 62.503906 197.464844 62.507812 L 186.132812 62.507812 L 186.132812 65.144531 L 197.464844 65.144531 C 197.742188 65.148438 198.003906 65.046875 198.195312 64.871094 C 198.394531 64.703125 198.503906 64.460938 198.5 64.210938 "/>
</g>
</svg>
