<?xml version="1.0" encoding="UTF-8"?>
<svg xmlns="http://www.w3.org/2000/svg" xmlns:xlink="http://www.w3.org/1999/xlink" width="200px" height="px" viewBox="0 0 201 67" version="1.1">
<g id="surface1">
<path style=" stroke:none;fill-rule:nonzero;fill:rgb(0%,32.156863%,53.333333%);fill-opacity:1;" d="M 49.851562 26.011719 L 32.820312 26.011719 L 32.210938 26.5 L 32.210938 41.648438 L 36.898438 41.648438 L 36.898438 35.929688 L 37.320312 35.503906 L 49.851562 35.503906 C 53.015625 35.503906 54.472656 34.652344 54.472656 32.460938 L 54.472656 28.992188 C 54.472656 26.863281 53.015625 26.011719 49.851562 26.011719 M 49.851562 31.609375 C 49.851562 32.644531 49.183594 32.828125 47.660156 32.828125 L 37.382812 32.828125 L 36.898438 32.402344 L 36.898438 29.175781 L 37.320312 28.75 L 47.660156 28.75 C 49.121094 28.75 49.851562 28.933594 49.851562 29.964844 Z M 63.109375 28.871094 L 67.1875 34.835938 L 66.941406 35.382812 L 57.941406 35.382812 L 55.628906 38.242188 L 69.011719 38.242188 L 69.984375 38.789062 L 72.050781 41.648438 L 77.464844 41.648438 L 65.605469 25.828125 M 116.816406 38.605469 L 116.816406 34.347656 L 117.304688 33.921875 L 126.367188 33.921875 L 126.367188 31.242188 L 112.011719 31.242188 L 112.011719 41.648438 L 133.179688 41.648438 L 133.179688 38.972656 L 117.363281 38.972656 M 112.011719 26.011719 L 133.363281 26.011719 L 133.363281 28.933594 L 112.011719 28.933594 Z M 88.230469 28.808594 L 105.445312 28.808594 C 105.199219 26.621094 103.800781 26.011719 100.394531 26.011719 L 88.046875 26.011719 C 84.15625 26.011719 82.9375 26.742188 82.9375 29.722656 L 82.9375 38 C 82.9375 40.917969 84.15625 41.710938 88.046875 41.710938 L 100.394531 41.710938 C 103.863281 41.710938 105.199219 41.039062 105.320312 38.789062 L 88.230469 38.789062 L 87.742188 38.300781 L 87.742188 29.175781 M 20.65625 32.097656 L 8.1875 32.097656 L 7.824219 31.671875 L 7.824219 28.992188 L 8.1875 28.691406 L 25.035156 28.691406 L 25.28125 28.144531 C 24.730469 26.683594 23.210938 25.953125 20.472656 25.953125 L 8.734375 25.953125 C 4.839844 25.953125 3.628906 26.683594 3.628906 29.664062 L 3.628906 31.425781 C 3.628906 34.347656 4.839844 35.136719 8.734375 35.136719 L 21.203125 35.136719 L 21.566406 35.503906 L 21.566406 38.300781 L 21.265625 38.730469 L 3.261719 38.730469 C 3.261719 38.730469 2.835938 38.972656 2.835938 39.03125 C 3.140625 41.101562 4.539062 41.648438 7.882812 41.648438 L 20.65625 41.648438 C 24.550781 41.648438 25.828125 40.917969 25.828125 37.9375 L 25.828125 35.808594 C 25.828125 32.886719 24.550781 32.097656 20.65625 32.097656 M 146.804688 25.953125 L 139.746094 25.953125 L 139.382812 26.683594 L 147.167969 32.402344 C 148.628906 31.546875 150.269531 30.695312 151.972656 29.847656 M 153.128906 36.660156 L 160 41.648438 L 167.058594 41.648438 L 167.359375 40.980469 L 157.140625 33.496094 C 155.804688 34.53125 154.40625 35.566406 153.128906 36.660156 "/>
<path style=" stroke:none;fill-rule:nonzero;fill:rgb(65.490196%,66.27451%,67.45098%);fill-opacity:1;" d="M 145.769531 41.648438 L 139.382812 41.648438 L 138.832031 40.796875 C 143.152344 36.597656 162.496094 18.710938 204.523438 16.824219 C 204.523438 16.824219 169.304688 18.039062 145.769531 41.648438 "/>
</g>
</svg>
