<svg width="512" height="512" xmlns="http://www.w3.org/2000/svg" xmlns:xlink="http://www.w3.org/1999/xlink" overflow="hidden"><defs><clipPath id="clip0"><rect x="0" y="0" width="512" height="512"/></clipPath></defs><g clip-path="url(#clip0)"><path d="M1 53C3.5 53 2.7 51 2.9 49.7 5.9 29 16.6 13.9 36.6 7.4 52.7 2.2 69.5 2.8 84.5 11.4 93.9 16.9 101.1 25.4 104.9 35.9 107.7 43.7 109.8 51.8 108.9 60.1 106.8 81 97.4 98.4 74.4 106.5 57 112.5 40.1 110.3 24.2 100.8 23.2 97.2 20.7 95.4 17.1 94.8 17.1 94.8 17.1 94.8 17.1 94.8 17 93.4 16.8 92 14.9 92 7.7 84 4.3 74.3 2.9 63.8 2.7 62.6 3.2 60.9 1 61 1 58.3 1 55.7 1 53Z" fill="#8BA4B0"/><path d="M276.2 216.1C280.5 213.5 282.2 209.7 284.4 206.6 295.3 191.6 308.8 180 325.6 171.7 348.6 160.4 373 159.2 397.6 161.5 416.5 163.2 434.4 169.6 450.7 180 470.1 192.4 484 209.6 493.5 230.2 499.3 242.7 503.1 256 505.4 269.8 507.5 282.7 509.1 295.4 509.1 308.5 509 373.5 509 438.5 509.2 503.5 509.2 508.1 507.9 509.3 503.4 509.2 472.7 509 442.1 509 411.4 509.2 406.9 509.2 405.9 507.9 405.9 503.6 406 442.3 406.3 380.9 405.8 319.6 405.7 305.7 403.8 291.9 396.6 279.2 390.2 268 381.3 260 369.6 255.4 353.9 249.2 337.7 248 321.3 252.6 304.7 257.2 293.2 268.1 285 282.9 280.4 291.2 278.8 299.9 277.5 309.2 276.2 319.2 276.4 329 276.4 338.9 276.2 393.6 276.2 448.2 276.4 502.9 276.4 507.9 275.2 509.3 270.1 509.2 239.8 508.9 209.4 509 179.1 509.2 174.9 509.2 173.4 507.9 173.5 504 173.6 501.2 173.8 498.4 173.8 495.6 173.8 390.1 173.9 284.6 173.7 179.1 173.7 174.7 174.6 173.1 179.4 173.1 209.9 173.3 240.4 173.3 270.9 173.1 275 173.1 276.4 174.1 276.3 178.4 276 190.6 276.2 202.9 276.2 216.1Z" fill="#8BA4B0"/><path d="M109 176.1C109 179.6 109.1 183.1 109.1 186.6 109.1 291.9 109.1 397.2 109.1 502.6 109.1 509 109.1 509 102.6 509 70.8 509 38.9 509 7.1 509 7 506.5 6.9 504 6.9 501.5 6.9 422.7 6.9 344 6.9 265.2 6.9 237.1 7 208.9 6.8 180.8 6.8 177.2 7.7 175.9 11.5 175.9 44 176.1 76.5 176 109 176.1Z" fill="#8BA4B0"/><path d="M109 176.1C76.5 176.1 44.1 176.1 11.6 175.9 7.8 175.9 6.9 177.1 6.9 180.8 7 208.9 6.9 237 6.9 265.2 6.9 344 6.9 422.7 6.9 501.5 6.9 504 7 506.5 7.1 509 5.4 509.1 4.1 508.7 4.1 506.7 4.1 505.4 4.1 504 4.1 502.7 4.1 395.9 4.1 289.2 4.1 182.4 4.1 174.8 4.8 174.1 12.3 174.1 42.8 174.1 73.3 174.1 103.7 174.2 105.5 174.1 108.2 172.7 109 176.1Z" fill="#8BA4B0"/><path d="M17.1 94.9C20.7 95.5 23.2 97.3 24.2 100.9 21.1 99.7 18.8 97.7 17.1 94.9Z" fill="#8BA4B0"/><path d="M14.9 92.1C16.8 92.1 16.9 93.5 17.1 94.9 15 95 15 93.6 14.9 92.1Z" fill="#8BA4B0"/></g></svg>