<svg width="680" height="227" xmlns="http://www.w3.org/2000/svg" xmlns:xlink="http://www.w3.org/1999/xlink" overflow="hidden"><defs><clipPath id="clip0"><rect x="0" y="0" width="680" height="227"/></clipPath><clipPath id="clip1"><rect x="83" y="0" width="520" height="228"/></clipPath><clipPath id="clip2"><rect x="83" y="-144" width="520" height="520"/></clipPath></defs><g clip-path="url(#clip0)"><g clip-path="url(#clip1)"><g clip-path="url(#clip2)"><path d="M222.852 129.48C222.852 135.286 218.16 140.058 212.275 140.058 206.469 140.058 201.697 135.366 201.697 129.48 201.697 123.674 206.389 118.902 212.275 118.902 218.16 118.982 222.852 123.674 222.852 129.48M271.686 134.491C268.107 126.617 253.552 122.481 230.329 123.993 230.647 125.106 230.965 126.299 231.044 127.571 246.076 128.287 255.223 132.025 256.734 137.593 259.12 146.5 240.35 160.578 205.991 175.61 202.89 138.388 171.553 109.12 133.536 109.279 96.7921 109.438 66.4899 136.877 61.9565 172.428 17.4973 195.811-9.70307 219.671-3.02227 234.464 1.9088 245.44 28.8706 249.337 71.6596 240.191 71.1028 239.236 70.6256 238.282 70.228 237.248 36.0286 242.418 14.1569 238.521 11.93 231.442 9.0668 222.455 29.1887 207.821 64.9788 192.471L64.9788 192.471C75.7953 187.778 114.608 171.713 160.419 159.703 160.976 159.544 161.294 160.339 160.737 160.578 118.505 180.143 89.3955 200.901 84.3849 216.808 77.8632 237.328 104.825 254.189 134.014 254.109 168.372 253.95 197.084 229.931 204.401 197.879 250.212 173.86 278.446 149.443 271.686 134.491" fill="#007BC7" transform="matrix(1 0 0 1.00147 205.345 -107.327)"/><path d="M-82.8738 281.787C-90.509 281.787-95.5991 283.377-100.689 285.684L-97.7465 294.273C-93.4517 292.524-89.5546 291.331-84.3054 291.331-76.8292 291.331-72.773 294.91-72.773 301.352L-72.773 302.227C-76.4316 301.034-80.0901 300.238-85.737 300.238-95.9968 300.238-104.745 304.692-104.745 315.668-104.745 325.291-96.7921 330.223-88.0434 330.223-80.965 330.223-76.0339 327.28-72.8526 323.462L-72.8526 329.268-62.1951 329.268-62.1951 301.511C-62.2746 289.024-69.035 281.787-82.8738 281.787M-72.614 312.407C-72.614 318.293-77.9427 322.269-85.0212 322.269-89.2364 322.269-94.088 320.36-94.088 315.27-94.088 310.419-89.7932 307.874-83.351 307.874-79.2152 307.874-75.3976 308.669-72.614 309.703L-72.614 312.407ZM20.0424 281.787C12.4072 281.787 7.31707 283.377 2.22693 285.684L5.09014 294.273C9.38494 292.524 13.2821 291.331 18.5313 291.331 26.0074 291.331 30.0636 294.91 30.0636 301.352L30.0636 302.227C26.4051 301.034 22.7465 300.238 17.0997 300.238 6.83987 300.238-1.9088 304.692-1.9088 315.668-1.9088 325.291 6.04454 330.223 14.7932 330.223 21.8717 330.223 26.8027 327.28 29.9841 323.462L29.9841 329.268 40.6415 329.268 40.6415 301.511C40.6415 289.024 33.8812 281.787 20.0424 281.787M30.2227 312.407C30.2227 318.293 24.8939 322.269 17.8155 322.269 13.6002 322.269 8.74867 320.36 8.74867 315.27 8.74867 310.419 13.0435 307.874 19.4857 307.874 23.6214 307.874 27.439 308.669 30.2227 309.703L30.2227 312.407ZM98.0646 305.965 98.0646 305.965C98.0646 292.524 107.529 281.469 120.97 281.469 135.923 281.469 143.399 293.16 143.399 306.681 143.399 307.635 143.319 308.669 143.24 309.703L108.802 309.703C109.995 317.338 115.403 321.633 122.322 321.633 127.571 321.633 131.31 319.645 135.048 316.066L141.331 321.633C136.877 326.962 130.753 330.382 122.163 330.382 108.483 330.461 98.0646 320.519 98.0646 305.965M132.821 302.624C132.105 295.705 128.049 290.297 120.891 290.297 114.289 290.297 109.676 295.387 108.722 302.624L132.821 302.624ZM-19.9629 282.503-9.22587 282.503-9.22587 329.348-19.9629 329.348-19.9629 282.503ZM49.4697 282.503 60.2067 282.503 60.2067 289.82C63.229 285.366 67.6034 281.548 74.8409 281.548 85.4188 281.548 91.5429 288.627 91.5429 299.602L91.5429 329.427 80.8059 329.427 80.8059 302.784C80.8059 295.466 77.1474 291.331 70.7847 291.331 64.5811 291.331 60.2067 295.705 60.2067 302.943L60.2067 329.427 49.4697 329.427 49.4697 282.503ZM-42.5503 293.001C-39.6076 286.002-34.1993 281.23-25.9279 281.548L-25.9279 292.921C-36.6649 292.683-42.5503 299.841-42.5503 311.453L-42.5503 329.268-53.2873 329.268-53.2873 282.423-42.5503 282.423-42.5503 293.001M192.312 304.295 192.312 323.144C187.937 327.041 181.257 330.382 173.303 330.382 158.43 330.382 149.205 319.486 149.205 305.965 149.205 293.001 158.749 281.389 172.985 281.389 180.938 281.389 185.869 283.775 190.641 287.752L187.222 291.808C183.563 288.627 179.507 286.4 172.826 286.4 162.328 286.4 154.931 295.307 154.931 305.885 154.931 316.781 162.169 325.451 173.621 325.451 179.03 325.451 184.04 323.542 187.142 320.917L187.142 309.544 172.826 309.544 172.826 304.374 192.312 304.374ZM252.757 281.389C239.157 281.389 228.579 292.206 228.579 306.044 228.579 319.724 238.998 330.461 252.598 330.461 266.278 330.461 276.776 319.645 276.776 305.806 276.776 292.047 266.198 281.389 252.757 281.389M252.757 325.451C242.338 325.451 234.226 316.861 234.226 305.806 234.226 294.751 242.338 286.4 252.598 286.4 263.096 286.4 271.129 294.989 271.129 306.044 271.129 316.94 263.176 325.451 252.757 325.451M319.883 282.503 325.132 282.503 325.132 329.427 319.883 329.427 319.883 321.951C316.145 327.677 310.737 330.541 303.738 330.541 292.285 330.541 284.888 322.905 284.888 311.134L284.888 282.582 290.138 282.582 290.138 310.339C290.138 319.883 295.466 325.61 304.374 325.61 313.282 325.61 319.963 318.69 319.963 309.623L319.963 282.503ZM354.719 282.503 337.062 282.503 337.062 329.348 342.312 329.348 342.312 313.123 353.844 313.123C363.945 313.123 372.455 307.794 372.455 297.534 372.455 288.229 365.376 282.503 354.719 282.503M354.003 308.271 342.312 308.271 342.312 287.354 354.321 287.354C361.956 287.354 366.808 291.013 366.808 297.773 366.808 303.977 361.877 308.271 354.003 308.271M227.784 287.195C219.751 287.195 208.218 292.921 208.218 310.021L208.218 329.348 202.969 329.348 202.969 282.423 208.218 282.423 208.218 294.114C213.627 283.855 222.852 281.548 227.784 281.707L227.784 287.195Z" transform="matrix(1 0 0 1.00147 205.345 -107.327)"/></g></g></g></svg>