<svg width="680" height="227" xmlns="http://www.w3.org/2000/svg" xmlns:xlink="http://www.w3.org/1999/xlink" overflow="hidden"><defs><clipPath id="clip0"><rect x="0" y="0" width="680" height="227"/></clipPath><clipPath id="clip1"><rect x="200" y="0" width="251" height="227"/></clipPath><clipPath id="clip2"><rect x="200" y="-5" width="251" height="243"/></clipPath></defs><g clip-path="url(#clip0)"><g clip-path="url(#clip1)"><g clip-path="url(#clip2)"><path d="M57.8025 38.3722 52.3434 49.4664 71.2283 53.6703 76.5963 42.6656 57.8025 38.3722ZM80.7122 43.6523 75.341 54.7449 94.2275 59.0383 99.5011 48.032 80.7122 43.6523ZM142.007 57.7846 136.729 68.8772 155.614 73.2618 160.98 62.1692 142.007 57.7846ZM165.006 63.1559 159.638 74.2452 178.608 78.5419 183.886 67.5356 165.006 63.1559Z" fill="#0E88D3" fill-rule="evenodd" transform="matrix(1 0 0 1.00154 200.515 -4.85451)"/><path d="M143.889 134.811C142.815 134.811 141.832 135.259 140.937 136.066 140.218 136.781 139.684 137.942 139.684 139.104 139.684 140.271 140.218 141.253 140.937 142.147 141.832 142.862 142.815 143.401 143.889 143.401 145.143 143.401 146.305 142.862 147.02 142.147 147.915 141.253 148.274 140.271 148.274 139.104 148.274 137.942 147.915 136.781 147.02 136.066 146.305 135.259 145.143 134.811 143.889 134.811ZM136.102 145.638 136.102 150.737 148.274 150.737 150.509 150.737 166.26 150.737C162.143 151.632 158.477 153.6 155.789 156.371 154.36 157.804 153.017 160.041 151.763 162.904 151.224 164.154 150.777 165.409 150.242 166.838 159.012 166.93 164.471 167.285 166.887 168.18 168.496 168.807 169.931 169.701 171.452 170.775 173.329 172.204 174.314 173.551 174.582 174.892L156.864 174.892 150.869 180.887 171.631 180.887C177.713 176.323 180.668 172.564 180.668 169.521 180.668 168.179 180.042 166.931 178.968 165.856 176.552 163.44 173.328 161.918 169.303 161.203 167.247 160.843 163.576 160.576 158.385 160.576 159.099 159.594 159.907 158.34 160.534 157.178 161.608 155.836 162.59 155.21 163.756 155.21 166.439 155.21 171.004 156.998 177.086 160.488L183.172 154.314C180.848 152.885 178.432 151.632 176.192 150.737L185.321 150.737 216.821 150.737 247.247 150.737 247.247 145.638 216.821 145.638 185.321 145.638 150.509 145.638 148.274 145.638 136.102 145.638ZM140.219 154.85 140.219 180.887 147.647 180.887 147.647 154.85 140.219 154.85ZM186.662 154.85 186.662 180.887 194.178 180.887 194.178 163.171C196.147 162.365 198.115 161.83 200.176 161.83 202.232 161.83 203.847 162.458 205.096 163.44 206.618 165.049 207.244 167.557 206.977 170.956L213.33 164.782C213.51 161.563 212.704 159.054 211.094 157.445 209.748 156.191 208.139 155.477 206.083 155.477 204.114 155.477 201.877 156.104 199.549 157.445 197.401 158.427 195.612 159.861 194.178 161.291L194.178 154.85 186.662 154.85ZM217.176 154.85 217.176 174.266C217.176 174.266 217.355 178.024 219.864 179.901 221.561 180.975 223.976 180.887 223.976 180.887L244.291 180.887 244.291 161.83C244.291 159.949 243.664 158.339 242.589 156.998 241.607 155.568 240.266 154.85 238.652 154.85L217.176 154.85ZM235.505 161.695C237.448 161.659 237.311 162.174 237.311 165.228L237.311 173.906 225.59 173.906C225.59 173.906 224.424 173.998 224.157 173.639 223.802 173.192 223.976 172.656 223.976 170.06L223.976 161.739 234.54 161.739C234.909 161.717 235.228 161.7 235.505 161.695Z" fill="#0E88D3" fill-rule="evenodd" transform="matrix(1 0 0 1.00154 200.515 -4.85451)"/><path d="M279.869 363.044 142.187 430.964 378.368 430.517 221.275 411.816 279.869 363.044" fill="#F47216" fill-rule="evenodd" transform="matrix(0 1.00154 1 0 -99.8951 -144.313)"/><path d="M92.2525 131.41C91.817 131.425 91.3713 131.456 90.9126 131.501L88.4085 137.496C95.4701 136.22 98.4853 138.189 101.15 145.457L1.9668 145.457 1.9668 150.644 25.8599 150.644 25.8599 153.6C25.8599 153.6 16.3703 149.842 8.31984 157.085 1.9663 164.421 7.33318 171.582 7.33318 171.582 7.33318 171.582 12.5254 168.718 20.7556 170.06 28.4509 171.402 28.0953 175.068 28.0953 175.068 28.0953 175.068 27.0206 179.633 20.8468 178.738 14.6731 177.752 15.1206 171.582 15.1206 171.582L8.31984 176.143C8.31984 176.143 10.904 180.541 16.7227 181.947L21.9214 189.744 29.6177 189.744 23.6814 182.074C24.3533 181.955 25.0467 181.802 25.7671 181.602 40.7104 177.665 35.431 166.391 24.3376 163.44 16.6379 161.471 8.31984 165.228 8.31984 165.228 8.31984 165.228 9.39046 155.744 23.1718 157.984 30.8671 159.322 33.6424 162.457 33.6424 162.457L33.6424 150.644 49.0675 150.644 42.5924 153.687C42.5924 153.687 45.9029 157.357 47.0649 162.185 48.0515 167.197 45.9025 168.092 44.5608 168.18 43.6663 167.557 39.4614 161.563 39.4614 161.563L36.5064 164.155 47.1561 180.887 54.6716 180.887C54.6716 180.887 47.7826 172.565 46.7083 171.044 48.4734 170.984 50.9037 170.42 52.5013 168.261 53.6167 168.842 54.9713 169.316 56.5521 169.433 61.2921 169.881 64.2484 167.556 64.2484 167.556L64.2484 180.887 72.0309 180.887 72.0309 150.644 88.8741 150.644 82.3225 153.687C82.3225 153.687 85.8117 157.357 86.7982 162.185 87.7804 167.197 85.7247 168.092 84.2909 168.18 83.5762 167.557 79.1915 161.563 79.1915 161.563L76.2364 164.155 86.7982 180.887 94.4017 180.887C94.4017 180.887 87.6934 172.565 86.6191 171.044 89.0352 170.956 93.0601 169.793 93.7749 164.067 94.8189 156.47 91.4274 151.959 90.2515 150.644L99.5011 150.644 99.5011 180.882 107.288 180.882 107.288 150.644 111.406 150.644 111.406 145.457 105.725 145.457C102.511 134.207 98.5827 131.18 92.2525 131.41ZM50.4417 150.644 64.2484 150.644 64.2484 159.414C64.2484 159.414 64.2483 161.831 59.504 164.155 57.5025 165.244 55.4503 165.666 53.6898 165.783 53.842 165.26 53.9663 164.696 54.0448 164.067 55.0888 156.47 51.638 151.959 50.4417 150.644Z" fill="#F47216" fill-rule="evenodd" transform="matrix(1 0 0 1.00154 200.515 -4.85451)"/></g></g></g></svg>