<svg width="680" height="227" xmlns="http://www.w3.org/2000/svg" xmlns:xlink="http://www.w3.org/1999/xlink" overflow="hidden"><defs><clipPath id="clip0"><rect x="0" y="0" width="680" height="227"/></clipPath><clipPath id="clip1"><rect x="42" y="1" width="612" height="227"/></clipPath><clipPath id="clip2"><rect x="42" y="1" width="612" height="227"/></clipPath></defs><g clip-path="url(#clip0)"><g clip-path="url(#clip1)"><g clip-path="url(#clip2)"><path d="M209.524 141.06 259.695 141.06 234.612 118.59ZM366.471 141.06 400.454 141.06 347.236 93.262 364.184 93.262C380.121 93.2451 393.035 80.3303 393.052 64.394L393.052 28.868C393.035 12.9316 380.121 0.0168451 364.184-9.3275e-07L209.498 0 234.622 22.5921 364.184 22.5921C367.648 22.5977 370.454 25.4043 370.46 28.868L370.46 64.394C370.457 67.8589 367.649 70.667 364.184 70.6698L288.145 70.6698Z" fill="#130C0E" transform="matrix(1 0 0 1.00103 43.1886 1.48838)"/><path d="M0 70.6647 216.966 85.9164C232.803 87.032 248.335 81.454 259.456 70.6647 248.182 59.9672 232.834 54.5421 217.221 55.622Z" fill="#E42727" transform="matrix(1 0 0 1.00103 43.1886 1.48838)"/><path d="M37.9864 212.076 41.1447 212.076C45.6461 212.076 49.2952 208.427 49.2952 203.925L49.2952 196.926C49.2952 192.425 45.6461 188.776 41.1447 188.776L0 188.776 0 225.31 7.32525 225.31 7.32525 194.995 41.5217 194.995C41.9634 194.995 42.3214 195.353 42.3214 195.795 42.3214 195.797 42.3214 195.799 42.3214 195.8L42.3214 204.873C42.3214 205.314 41.9634 205.673 41.5217 205.673L20.2387 205.673 41.9903 225.218 52.4841 225.218ZM110.388 188.73C116.142 188.71 120.821 193.358 120.841 199.111 120.841 199.135 120.841 199.159 120.841 199.183L120.841 214.827C120.864 220.58 116.218 225.262 110.465 225.285 110.439 225.285 110.414 225.285 110.388 225.285L79.0597 225.285C73.2923 225.287 68.6146 220.614 68.6118 214.847 68.6118 214.84 68.6118 214.833 68.6118 214.827L68.6118 199.183C68.6062 193.415 73.2771 188.735 79.0445 188.73 79.0496 188.73 79.0546 188.73 79.0597 188.73ZM113.557 198.123C113.566 197.293 113.236 196.495 112.645 195.912 112.064 195.303 111.255 194.965 110.414 194.98L79.0852 194.98C77.3605 195.005 75.9692 196.398 75.9473 198.123L75.9473 215.886C75.9664 217.613 77.3586 219.009 79.0852 219.034L110.414 219.034C111.255 219.049 112.064 218.711 112.645 218.102 113.238 217.518 113.567 216.718 113.557 215.886ZM191.598 219.034C191.685 219.031 191.77 219.064 191.832 219.126 191.891 219.178 191.926 219.251 191.929 219.33L191.929 224.933C191.93 225.023 191.895 225.109 191.832 225.173 191.77 225.234 191.685 225.267 191.598 225.264L150.157 225.264C144.404 225.281 139.726 220.631 139.71 214.878 139.709 214.855 139.709 214.833 139.71 214.811L139.71 199.173C139.696 193.414 144.353 188.734 150.112 188.719 150.127 188.719 150.142 188.719 150.157 188.719L191.598 188.719C191.685 188.719 191.769 188.751 191.832 188.811 191.895 188.875 191.93 188.961 191.929 189.051L191.929 194.68C191.924 194.756 191.89 194.828 191.832 194.878 191.77 194.94 191.685 194.973 191.598 194.97L150.157 194.97C149.317 194.954 148.509 195.292 147.931 195.902 147.338 196.484 147.007 197.282 147.014 198.113L147.014 215.876C147.008 216.705 147.339 217.501 147.931 218.082 148.508 218.693 149.317 219.032 150.157 219.014ZM259.293 225.259C259.422 225.257 259.525 225.15 259.522 225.02 259.521 224.944 259.483 224.874 259.42 224.831L231.673 207.022 259.476 189.188C259.583 189.115 259.61 188.969 259.538 188.863 259.495 188.8 259.424 188.762 259.349 188.76L248.142 188.76C248.013 188.759 247.888 188.805 247.79 188.888L223.481 203.513 216.35 203.538 216.35 189.096C216.35 188.913 216.202 188.763 216.019 188.76L209.86 188.76C209.674 188.76 209.524 188.911 209.524 189.096L209.524 224.943C209.524 225.127 209.671 225.277 209.855 225.28L216.008 225.28C216.192 225.277 216.34 225.127 216.339 224.943L216.339 210.359 223.293 210.359 247.785 225.132C247.883 225.215 248.008 225.26 248.137 225.259ZM284.106 203.884 327.533 203.884C327.62 203.881 327.705 203.914 327.767 203.976 327.829 204.04 327.862 204.127 327.859 204.216L327.859 209.819C327.864 209.993 327.728 210.139 327.553 210.145 327.546 210.145 327.539 210.145 327.533 210.145L284.106 210.145 284.106 215.876C284.095 216.705 284.423 217.503 285.012 218.087 285.593 218.696 286.402 219.034 287.244 219.019L328.653 219.019C328.741 219.016 328.826 219.049 328.888 219.111 328.944 219.161 328.977 219.233 328.979 219.309L328.979 224.913C328.983 225.002 328.95 225.088 328.888 225.152 328.826 225.214 328.741 225.247 328.653 225.244L287.264 225.244C281.516 225.264 276.841 220.62 276.821 214.872 276.821 214.849 276.821 214.825 276.821 214.801L276.821 199.213C276.801 193.468 281.443 188.795 287.187 188.776 287.213 188.775 287.238 188.775 287.264 188.776L328.674 188.776C328.76 188.773 328.844 188.804 328.908 188.862 328.97 188.926 329.003 189.013 329 189.102L329 194.705C328.999 194.783 328.965 194.857 328.908 194.909 328.844 194.967 328.76 194.998 328.674 194.995L287.264 194.995C286.423 194.981 285.614 195.319 285.033 195.928 284.443 196.511 284.116 197.309 284.126 198.138ZM348.489 189.183C348.484 189.095 348.515 189.008 348.576 188.944 348.63 188.888 348.703 188.855 348.78 188.852L400.23 188.852C400.307 188.855 400.38 188.888 400.434 188.944 400.494 189.009 400.526 189.094 400.525 189.183L400.525 194.787C400.521 194.862 400.488 194.933 400.434 194.985 400.379 195.039 400.306 195.07 400.23 195.072L378.142 195.072 378.142 224.943C378.145 225.032 378.112 225.119 378.05 225.183 377.998 225.24 377.924 225.273 377.847 225.274L371.183 225.274C371.009 225.283 370.861 225.149 370.852 224.975 370.852 224.964 370.852 224.954 370.852 224.943L370.852 195.082 348.78 195.082C348.703 195.081 348.63 195.05 348.576 194.995 348.521 194.944 348.489 194.872 348.489 194.797Z" fill="#130C0E" transform="matrix(1 0 0 1.00103 43.1886 1.48838)"/><path d="M472.316 224.994C472.314 225.07 472.281 225.142 472.224 225.193 472.171 225.249 472.098 225.282 472.02 225.285L430.621 225.285C424.876 225.304 420.203 220.663 420.183 214.918 420.183 214.893 420.183 214.867 420.183 214.842L420.183 189.107C420.18 189.018 420.213 188.931 420.275 188.867 420.327 188.813 420.398 188.78 420.474 188.776L427.157 188.776C427.244 188.776 427.327 188.808 427.391 188.867 427.453 188.931 427.486 189.018 427.483 189.107L427.483 215.901C427.474 216.732 427.803 217.53 428.395 218.112 428.975 218.719 429.782 219.056 430.621 219.044L472.02 219.044C472.179 219.05 472.308 219.176 472.316 219.335ZM494.623 225.285C494.723 225.285 494.815 225.23 494.862 225.142L509.635 198.755C510.741 196.796 512.826 195.597 515.075 195.627 517.33 195.601 519.418 196.811 520.516 198.78L535.289 225.162C535.328 225.238 535.407 225.285 535.492 225.285L543.042 225.285C543.174 225.283 543.28 225.175 543.278 225.043 543.278 225.004 543.268 224.967 543.25 224.933L526.741 195.484C524.378 191.266 519.9 188.675 515.065 188.73L515.04 188.73C510.209 188.667 505.73 191.245 503.359 195.454L486.951 224.872C486.878 225.008 486.929 225.178 487.065 225.251 487.104 225.272 487.147 225.283 487.19 225.285ZM610.018 199.728C610.062 202.468 608.982 205.106 607.028 207.028 608.981 208.951 610.062 211.591 610.018 214.332L610.018 214.877C610.065 217.647 608.958 220.312 606.962 222.233 605.03 224.223 602.364 225.328 599.591 225.29L558.191 225.29C558.102 225.293 558.016 225.26 557.952 225.198 557.895 225.147 557.862 225.075 557.86 224.999L557.86 189.107C557.852 188.932 557.986 188.784 558.16 188.776 558.171 188.775 558.181 188.775 558.191 188.776L599.591 188.776C605.35 188.792 610.015 193.459 610.029 199.218ZM565.155 195.051 565.155 203.925 599.581 203.925C601.306 203.906 602.699 202.512 602.719 200.787L602.719 198.159C602.727 197.33 602.389 196.536 601.786 195.968 601.206 195.376 600.41 195.045 599.581 195.051ZM602.719 215.901 602.719 213.309C602.734 212.468 602.396 211.661 601.786 211.082 601.205 210.492 600.409 210.163 599.581 210.171L565.155 210.171 565.155 219.039 599.581 219.039C600.409 219.047 601.205 218.718 601.786 218.127 602.396 217.549 602.734 216.741 602.719 215.901" fill="#919498" transform="matrix(1 0 0 1.00103 43.1886 1.48838)"/></g></g></g></svg>