<svg width="567" height="189" xmlns="http://www.w3.org/2000/svg" xmlns:xlink="http://www.w3.org/1999/xlink" overflow="hidden"><defs><clipPath id="clip0"><rect x="0" y="0" width="567" height="189"/></clipPath><clipPath id="clip1"><rect x="7" y="0" width="560" height="189"/></clipPath><clipPath id="clip2"><rect x="7" y="-203" width="570" height="571"/></clipPath></defs><g clip-path="url(#clip0)"><g clip-path="url(#clip1)"><g clip-path="url(#clip2)"><path d="M223.282 316.318 175.241 316.318 173.525 317.69 173.525 360.412 186.736 360.412 186.736 344.284 187.937 343.083 223.282 343.083C232.203 343.083 236.321 340.682 236.321 334.505L236.321 324.725C236.322 318.72 232.204 316.318 223.282 316.318M223.282 332.102C223.282 335.019 221.395 335.534 217.105 335.534L188.109 335.534 186.736 334.333 186.736 325.24 187.937 324.038 217.105 324.038C221.223 324.038 223.281 324.553 223.281 327.47L223.282 332.102ZM260.685 324.381 272.18 341.196 271.494 342.74 246.101 342.74 239.581 350.804 277.328 350.804 280.073 352.348 285.906 360.412 301.177 360.412 267.72 315.803M412.185 351.833 412.185 339.823 413.558 338.622 439.122 338.622 439.122 331.073 398.631 331.073 398.631 360.412 458.339 360.412 458.339 352.863 413.729 352.863M398.631 316.318 458.853 316.318 458.853 324.553 398.631 324.553ZM331.545 324.21 380.101 324.21C379.414 318.033 375.468 316.318 365.86 316.318L331.031 316.318C320.05 316.318 316.618 318.377 316.618 326.784L316.618 350.117C316.618 358.353 320.05 360.584 331.031 360.584L365.86 360.584C375.64 360.584 379.414 358.696 379.758 352.348L331.545 352.348 330.173 350.975 330.173 325.24M140.926 333.475 105.754 333.475 104.724 332.274 104.724 324.725 105.754 323.867 153.28 323.867 153.966 322.323C152.422 318.205 148.132 316.146 140.411 316.146L107.298 316.146C96.317 316.146 92.8855 318.205 92.8855 326.612L92.8855 331.588C92.8855 339.824 96.317 342.054 107.298 342.054L142.47 342.054 143.5 343.083 143.5 350.975 142.642 352.177 91.856 352.177C91.856 352.177 90.6552 352.863 90.6552 353.035 91.513 358.868 95.4593 360.412 104.896 360.412L140.926 360.412C151.907 360.412 155.51 358.353 155.51 349.946L155.51 343.941C155.51 335.706 151.907 333.475 140.926 333.475M496.771 316.146 476.868 316.146 475.839 318.205 497.8 334.333C501.918 331.931 506.551 329.529 511.355 327.127M514.615 346.343 534.003 360.412 553.905 360.412 554.763 358.525 525.938 337.421C522.164 340.338 518.218 343.255 514.615 346.343" fill="#005288" transform="matrix(1 0 0 1.00041 -82.6557 -243.071)"/><path d="M493.854 360.412 475.839 360.412 474.294 358.01C486.477 346.171 541.037 295.729 659.595 290.41 659.595 290.41 560.253 293.841 493.854 360.412" fill="#A7A9AC" transform="matrix(1 0 0 1.00041 -82.6557 -243.071)"/></g></g></g></svg>