<?xml version="1.0" encoding="UTF-8"?>
<svg xmlns="http://www.w3.org/2000/svg" xmlns:xlink="http://www.w3.org/1999/xlink" width="100px" height="33px" viewBox="0 0 98 33" version="1.1">
<g id="surface1">
<path style=" stroke:none;fill-rule:nonzero;fill:rgb(0%,48.235294%,78.039216%);fill-opacity:1;" d="M 61.710938 3.25 C 61.710938 4.09375 61.035156 4.789062 60.1875 4.789062 C 59.351562 4.789062 58.660156 4.105469 58.660156 3.25 C 58.660156 2.402344 59.339844 1.707031 60.1875 1.707031 C 61.035156 1.71875 61.710938 2.402344 61.710938 3.25 M 68.75 3.976562 C 68.234375 2.832031 66.136719 2.230469 62.789062 2.449219 C 62.835938 2.613281 62.878906 2.785156 62.890625 2.96875 C 65.058594 3.074219 66.375 3.617188 66.59375 4.429688 C 66.9375 5.726562 64.234375 7.777344 59.28125 9.964844 C 58.832031 4.546875 54.316406 0.285156 48.839844 0.308594 C 43.542969 0.332031 39.175781 4.324219 38.523438 9.5 C 32.117188 12.90625 28.195312 16.378906 29.160156 18.53125 C 29.867188 20.128906 33.753906 20.699219 39.921875 19.367188 C 39.839844 19.226562 39.773438 19.089844 39.714844 18.9375 C 34.785156 19.691406 31.632812 19.125 31.3125 18.09375 C 30.902344 16.785156 33.800781 14.652344 38.957031 12.417969 C 40.515625 11.734375 46.109375 9.398438 52.714844 7.648438 C 52.792969 7.625 52.839844 7.742188 52.757812 7.777344 C 46.671875 10.625 42.476562 13.644531 41.753906 15.960938 C 40.816406 18.949219 44.699219 21.40625 48.90625 21.394531 C 53.859375 21.371094 57.996094 17.871094 59.050781 13.207031 C 65.652344 9.710938 69.722656 6.15625 68.75 3.976562 "/>
<path style=" stroke:none;fill-rule:nonzero;fill:rgb(0%,0%,0%);fill-opacity:1;" d="M 17.648438 25.421875 C 16.550781 25.421875 15.816406 25.652344 15.082031 25.988281 L 15.507812 27.238281 C 16.125 26.984375 16.6875 26.8125 17.445312 26.8125 C 18.519531 26.8125 19.105469 27.332031 19.105469 28.269531 L 19.105469 28.398438 C 18.578125 28.222656 18.050781 28.109375 17.238281 28.109375 C 15.757812 28.109375 14.5 28.757812 14.5 30.355469 C 14.5 31.757812 15.644531 32.472656 16.90625 32.472656 C 17.925781 32.472656 18.636719 32.046875 19.09375 31.488281 L 19.09375 32.335938 L 20.628906 32.335938 L 20.628906 28.292969 C 20.617188 26.476562 19.644531 25.421875 17.648438 25.421875 M 19.128906 29.878906 C 19.128906 30.738281 18.359375 31.316406 17.339844 31.316406 C 16.734375 31.316406 16.035156 31.039062 16.035156 30.296875 C 16.035156 29.589844 16.652344 29.21875 17.582031 29.21875 C 18.175781 29.21875 18.726562 29.335938 19.128906 29.488281 Z M 32.480469 25.421875 C 31.382812 25.421875 30.648438 25.652344 29.914062 25.988281 L 30.328125 27.238281 C 30.945312 26.984375 31.507812 26.8125 32.265625 26.8125 C 33.34375 26.8125 33.925781 27.332031 33.925781 28.269531 L 33.925781 28.398438 C 33.398438 28.222656 32.871094 28.109375 32.058594 28.109375 C 30.578125 28.109375 29.320312 28.757812 29.320312 30.355469 C 29.320312 31.757812 30.464844 32.472656 31.726562 32.472656 C 32.746094 32.472656 33.457031 32.046875 33.914062 31.488281 L 33.914062 32.335938 L 35.449219 32.335938 L 35.449219 28.292969 C 35.449219 26.476562 34.476562 25.421875 32.480469 25.421875 M 33.949219 29.878906 C 33.949219 30.738281 33.179688 31.316406 32.160156 31.316406 C 31.554688 31.316406 30.855469 31.039062 30.855469 30.296875 C 30.855469 29.589844 31.472656 29.21875 32.402344 29.21875 C 33 29.21875 33.546875 29.335938 33.949219 29.488281 Z M 43.726562 28.941406 C 43.726562 26.984375 45.089844 25.375 47.027344 25.375 C 49.183594 25.375 50.261719 27.078125 50.261719 29.046875 C 50.261719 29.183594 50.25 29.335938 50.238281 29.488281 L 45.273438 29.488281 C 45.445312 30.597656 46.226562 31.222656 47.222656 31.222656 C 47.980469 31.222656 48.519531 30.933594 49.054688 30.414062 L 49.960938 31.222656 C 49.320312 32 48.4375 32.496094 47.199219 32.496094 C 45.226562 32.507812 43.726562 31.0625 43.726562 28.941406 M 48.734375 28.457031 C 48.632812 27.449219 48.046875 26.660156 47.015625 26.660156 C 46.066406 26.660156 45.398438 27.402344 45.261719 28.457031 Z M 26.71875 25.527344 L 28.265625 25.527344 L 28.265625 32.347656 L 26.71875 32.347656 Z M 36.722656 25.527344 L 38.269531 25.527344 L 38.269531 26.589844 C 38.707031 25.941406 39.335938 25.386719 40.378906 25.386719 C 41.902344 25.386719 42.785156 26.417969 42.785156 28.015625 L 42.785156 32.359375 L 41.238281 32.359375 L 41.238281 28.480469 C 41.238281 27.414062 40.710938 26.8125 39.796875 26.8125 C 38.902344 26.8125 38.269531 27.449219 38.269531 28.503906 L 38.269531 32.359375 L 36.722656 32.359375 Z M 23.460938 27.054688 C 23.886719 26.035156 24.664062 25.339844 25.855469 25.386719 L 25.855469 27.042969 C 24.308594 27.007812 23.460938 28.050781 23.460938 29.742188 L 23.460938 32.335938 L 21.914062 32.335938 L 21.914062 25.515625 L 23.460938 25.515625 L 23.460938 27.054688 M 57.308594 28.699219 L 57.308594 31.441406 C 56.679688 32.011719 55.714844 32.496094 54.570312 32.496094 C 52.425781 32.496094 51.097656 30.910156 51.097656 28.941406 C 51.097656 27.054688 52.472656 25.363281 54.523438 25.363281 C 55.671875 25.363281 56.378906 25.710938 57.070312 26.289062 L 56.574219 26.882812 C 56.046875 26.417969 55.464844 26.09375 54.5 26.09375 C 52.988281 26.09375 51.921875 27.390625 51.921875 28.929688 C 51.921875 30.515625 52.964844 31.777344 54.617188 31.777344 C 55.394531 31.777344 56.117188 31.5 56.5625 31.117188 L 56.5625 29.464844 L 54.5 29.464844 L 54.5 28.710938 L 57.308594 28.710938 Z M 66.019531 25.363281 C 64.0625 25.363281 62.535156 26.9375 62.535156 28.953125 C 62.535156 30.945312 64.039062 32.507812 65.996094 32.507812 C 67.96875 32.507812 69.480469 30.933594 69.480469 28.917969 C 69.480469 26.914062 67.957031 25.363281 66.019531 25.363281 M 66.019531 31.777344 C 64.519531 31.777344 63.351562 30.527344 63.351562 28.917969 C 63.351562 27.308594 64.519531 26.09375 65.996094 26.09375 C 67.511719 26.09375 68.667969 27.34375 68.667969 28.953125 C 68.667969 30.539062 67.523438 31.777344 66.019531 31.777344 M 75.695312 25.527344 L 76.449219 25.527344 L 76.449219 32.359375 L 75.695312 32.359375 L 75.695312 31.269531 C 75.15625 32.101562 74.375 32.519531 73.367188 32.519531 C 71.71875 32.519531 70.652344 31.410156 70.652344 29.695312 L 70.652344 25.539062 L 71.40625 25.539062 L 71.40625 29.578125 C 71.40625 30.96875 72.175781 31.800781 73.460938 31.800781 C 74.742188 31.800781 75.707031 30.792969 75.707031 29.476562 L 75.707031 25.527344 Z M 80.714844 25.527344 L 78.171875 25.527344 L 78.171875 32.347656 L 78.925781 32.347656 L 78.925781 29.984375 L 80.589844 29.984375 C 82.042969 29.984375 83.269531 29.207031 83.269531 27.714844 C 83.269531 26.359375 82.25 25.527344 80.714844 25.527344 M 80.613281 29.277344 L 78.925781 29.277344 L 78.925781 26.234375 L 80.65625 26.234375 C 81.757812 26.234375 82.457031 26.765625 82.457031 27.75 C 82.457031 28.652344 81.746094 29.277344 80.613281 29.277344 M 62.421875 26.210938 C 61.265625 26.210938 59.601562 27.042969 59.601562 29.53125 L 59.601562 32.347656 L 58.84375 32.347656 L 58.84375 25.515625 L 59.601562 25.515625 L 59.601562 27.21875 C 60.382812 25.722656 61.710938 25.386719 62.421875 25.410156 Z M 62.421875 26.210938 "/>
</g>
</svg>
