<svg width="512" height="512" xmlns="http://www.w3.org/2000/svg" xmlns:xlink="http://www.w3.org/1999/xlink" overflow="hidden"><defs><clipPath id="clip0"><rect x="0" y="0" width="512" height="512"/></clipPath></defs><g clip-path="url(#clip0)"><path d="M200 513C200 492.7 200 472.3 200 452 203.1 452.6 201.9 455.1 201.9 456.8 202 473.1 202.1 489.4 201.9 505.7 201.8 509.8 202.9 511.1 207.1 511.1 243.7 510.9 280.3 510.9 316.9 511.1 321.3 511.1 322 509.5 322 505.6 321.8 480.6 321.9 455.7 321.9 430.7 321.9 421.4 322.1 412.1 322.1 402.8 324.9 404 323.7 406.6 323.7 408.5 323.8 443.3 323.8 478.1 323.8 512.9 282.7 513 241.3 513 200 513Z" fill="#8BA4B0"/><path d="M322.2 402.8C322.1 412.1 322 421.4 322 430.7 322 455.7 321.9 480.6 322.1 505.6 322.1 509.5 321.4 511.1 317 511.1 280.4 510.9 243.8 510.9 207.2 511.1 203 511.1 201.9 509.8 202 505.7 202.2 489.4 202.1 473.1 202 456.8 202 455.1 203.2 452.6 200.1 452 190.4 452.9 180.8 455.2 170.9 454.8 137.4 453.5 111.4 439.4 96.2 409 88 392.6 78.4 377.3 67.1 363 64 359.1 59.2 357.5 55.6 354.3 54.5 353.3 53.2 352.5 52.3 351.3 50 348 51.1 345.5 55.1 345.1 73.6 343.2 88.9 349.3 101.3 363.2 107.6 370.3 111.5 379 117.6 386.3 129.9 401 145.6 409 164.6 411.2 176.1 412.5 187 410.3 197.9 407 200.1 406.4 201 405 201.2 402.7 201.9 392.4 204 382.4 208 372.8 209.8 368.5 212.7 364.9 214.9 360.5 204.6 357.9 194.2 357.1 184.4 354.1 157.3 345.9 133.5 332.5 116.2 309.4 107.9 298.4 102.1 286.1 98.8 272.9 97 265.7 94.9 258.5 95 250.9 95.1 237.6 94.5 224.2 95.3 210.9 96.2 194.1 98.4 177.4 104.5 161.7 108.3 152 113.8 143.1 121.6 135.8 124 133.5 124.9 131.7 123.4 127.9 116 108.2 115.3 88.1 121.6 67.9 121.8 67.3 121.9 66.6 122 65.9 124.2 55.6 126.5 54.6 136.3 58.5 155.5 66 169.6 79.5 181.6 95.8 185 100.4 184.3 102.4 191.6 97.7 201.3 91.5 212.6 89.6 223.8 88.4 243.9 86.3 264.1 86.9 284.2 87.3 298.5 87.6 312.7 89.5 326.2 94.5 329.3 95.6 332.2 97.3 334.9 99.3 337 100.9 338.5 100.9 340.5 98.2 349.6 85.4 360 73.8 373.5 65.6 380.1 61.6 386.9 57.9 394.9 57 398.2 56.6 399.6 57.7 400.5 60.3 408.8 83.2 410 106 400.3 128.8 399.1 131.6 399.5 133.4 401.6 135.3 417.6 150.3 423.4 169.8 426.4 190.8 428.9 208.5 429.6 226.3 429.1 244.1 428.3 275.3 417.7 302.5 394.7 324.2 381.2 336.9 365 345.3 347.6 351.7 335.2 356.3 322.1 357.5 309.1 360.7 310.4 363.8 312.8 366.1 313.4 369.2 313.1 370.5 313.8 371.2 315 371.5 315.1 372.1 315.3 372.6 315.4 373.2 315.7 375.3 315.5 377.5 317.9 378.6 318.4 380.8 318.9 383.1 319.3 385.3 319.2 387 318.6 388.8 320.9 389.6 320.9 390.2 321 390.8 321 391.5 319.5 393.8 320.9 395.6 322.1 397.5 322.1 398.9 322.2 400.9 322.2 402.8Z" fill="#8BA4B0"/><path d="M322 397C320.9 395.1 319.4 393.3 320.9 391 322.1 392.9 323 394.8 322 397Z" fill="#8BA4B0"/><path d="M317.7 378.2C315.3 377.1 315.5 374.9 315.2 372.8 317.4 374 317.7 376 317.7 378.2Z" fill="#8BA4B0"/><path d="M320.8 389.1C318.5 388.3 319.1 386.5 319.2 384.8 321.5 385.6 321 387.5 320.8 389.1Z" fill="#8BA4B0"/><path d="M314.8 371.1C313.6 370.8 312.9 370.1 313.2 368.8 314.5 369.1 315.1 369.8 314.8 371.1Z" fill="#8BA4B0"/></g></svg>