<?xml version="1.0" encoding="UTF-8"?>
<svg xmlns="http://www.w3.org/2000/svg" xmlns:xlink="http://www.w3.org/1999/xlink" width="100px" height="33px" viewBox="0 0 99 33" version="1.1">
<defs>
<clipPath id="clip1">
  <path d="M 1.222656 12 L 83 12 L 83 21 L 1.222656 21 Z M 1.222656 12 "/>
</clipPath>
</defs>
<g id="surface1">
<g clip-path="url(#clip1)" clip-rule="nonzero">
<path style=" stroke:none;fill-rule:nonzero;fill:rgb(0%,32.156863%,53.333333%);fill-opacity:1;" d="M 24.554688 12.8125 L 16.164062 12.8125 L 15.867188 13.050781 L 15.867188 20.515625 L 18.171875 20.515625 L 18.171875 17.695312 L 18.382812 17.488281 L 24.554688 17.488281 C 26.113281 17.488281 26.832031 17.066406 26.832031 15.988281 L 26.832031 14.28125 C 26.832031 13.230469 26.113281 12.8125 24.554688 12.8125 M 24.554688 15.570312 C 24.554688 16.078125 24.222656 16.167969 23.476562 16.167969 L 18.414062 16.167969 L 18.171875 15.957031 L 18.171875 14.371094 L 18.382812 14.160156 L 23.476562 14.160156 C 24.195312 14.160156 24.554688 14.25 24.554688 14.761719 Z M 31.085938 14.21875 L 33.089844 17.15625 L 32.972656 17.425781 L 28.539062 17.425781 L 27.398438 18.835938 L 33.992188 18.835938 L 34.46875 19.105469 L 35.488281 20.515625 L 38.15625 20.515625 L 32.3125 12.722656 M 57.535156 19.015625 L 57.535156 16.917969 L 57.777344 16.707031 L 62.238281 16.707031 L 62.238281 15.390625 L 55.171875 15.390625 L 55.171875 20.515625 L 65.59375 20.515625 L 65.59375 19.195312 L 57.804688 19.195312 M 55.171875 12.8125 L 65.683594 12.8125 L 65.683594 14.25 L 55.171875 14.25 Z M 43.457031 14.191406 L 51.933594 14.191406 C 51.816406 13.113281 51.125 12.8125 49.449219 12.8125 L 43.367188 12.8125 C 41.449219 12.8125 40.851562 13.171875 40.851562 14.640625 L 40.851562 18.714844 C 40.851562 20.152344 41.449219 20.542969 43.367188 20.542969 L 49.449219 20.542969 C 51.15625 20.542969 51.816406 20.214844 51.875 19.105469 L 43.457031 19.105469 L 43.21875 18.867188 L 43.21875 14.371094 M 10.175781 15.808594 L 4.03125 15.808594 L 3.851562 15.597656 L 3.851562 14.28125 L 4.03125 14.128906 L 12.332031 14.128906 L 12.449219 13.859375 C 12.179688 13.140625 11.433594 12.78125 10.085938 12.78125 L 4.300781 12.78125 C 2.386719 12.78125 1.785156 13.140625 1.785156 14.609375 L 1.785156 15.480469 C 1.785156 16.917969 2.386719 17.308594 4.300781 17.308594 L 10.445312 17.308594 L 10.625 17.488281 L 10.625 18.867188 L 10.472656 19.074219 L 1.605469 19.074219 C 1.605469 19.074219 1.398438 19.195312 1.398438 19.226562 C 1.546875 20.246094 2.234375 20.515625 3.882812 20.515625 L 10.175781 20.515625 C 12.089844 20.515625 12.71875 20.152344 12.71875 18.6875 L 12.71875 17.636719 C 12.71875 16.199219 12.089844 15.808594 10.175781 15.808594 M 72.304688 12.78125 L 68.832031 12.78125 L 68.652344 13.140625 L 72.484375 15.957031 C 73.203125 15.539062 74.011719 15.121094 74.851562 14.699219 M 75.421875 18.054688 L 78.808594 20.515625 L 82.28125 20.515625 L 82.429688 20.183594 L 77.398438 16.496094 C 76.738281 17.007812 76.050781 17.515625 75.421875 18.054688 "/>
</g>
<path style=" stroke:none;fill-rule:nonzero;fill:rgb(65.490196%,66.27451%,67.45098%);fill-opacity:1;" d="M 71.796875 20.515625 L 68.652344 20.515625 L 68.382812 20.09375 C 70.507812 18.027344 80.035156 9.214844 100.734375 8.285156 C 100.734375 8.285156 83.390625 8.886719 71.796875 20.515625 "/>
</g>
</svg>
