<svg width="146" height="25" viewBox="0 0 146 25" fill="none" xmlns="http://www.w3.org/2000/svg">
<path d="M0.896 15.04C0.896 13.2053 1.23733 11.5947 1.92 10.208C2.624 8.82133 3.57333 7.75467 4.768 7.008C5.96267 6.26133 7.296 5.888 8.768 5.888C10.0267 5.888 11.1253 6.144 12.064 6.656C13.024 7.168 13.76 7.84 14.272 8.672V6.144H19.744V24H14.272V21.472C13.7387 22.304 12.992 22.976 12.032 23.488C11.0933 24 9.99467 24.256 8.736 24.256C7.28533 24.256 5.96267 23.8827 4.768 23.136C3.57333 22.368 2.624 21.2907 1.92 19.904C1.23733 18.496 0.896 16.8747 0.896 15.04ZM14.272 15.072C14.272 13.7067 13.888 12.6293 13.12 11.84C12.3733 11.0507 11.456 10.656 10.368 10.656C9.28 10.656 8.352 11.0507 7.584 11.84C6.83733 12.608 6.464 13.6747 6.464 15.04C6.464 16.4053 6.83733 17.4933 7.584 18.304C8.352 19.0933 9.28 19.488 10.368 19.488C11.456 19.488 12.3733 19.0933 13.12 18.304C13.888 17.5147 14.272 16.4373 14.272 15.072ZM30.9668 24.256C29.4094 24.256 28.0228 23.9893 26.8068 23.456C25.5908 22.9227 24.6308 22.1973 23.9268 21.28C23.2228 20.3413 22.8281 19.296 22.7428 18.144H28.1508C28.2148 18.7627 28.5028 19.264 29.0148 19.648C29.5268 20.032 30.1561 20.224 30.9028 20.224C31.5854 20.224 32.1081 20.096 32.4708 19.84C32.8548 19.5627 33.0468 19.2107 33.0468 18.784C33.0468 18.272 32.7801 17.8987 32.2468 17.664C31.7134 17.408 30.8494 17.1307 29.6548 16.832C28.3748 16.5333 27.3081 16.224 26.4548 15.904C25.6014 15.5627 24.8654 15.04 24.2468 14.336C23.6281 13.6107 23.3188 12.64 23.3188 11.424C23.3188 10.4 23.5961 9.472 24.1508 8.64C24.7268 7.78667 25.5588 7.11467 26.6468 6.624C27.7561 6.13333 29.0681 5.888 30.5828 5.888C32.8228 5.888 34.5828 6.44267 35.8628 7.552C37.1641 8.66133 37.9108 10.1333 38.1028 11.968H33.0468C32.9614 11.3493 32.6841 10.8587 32.2148 10.496C31.7668 10.1333 31.1694 9.952 30.4228 9.952C29.7828 9.952 29.2921 10.08 28.9508 10.336C28.6094 10.5707 28.4388 10.9013 28.4388 11.328C28.4388 11.84 28.7054 12.224 29.2388 12.48C29.7934 12.736 30.6468 12.992 31.7988 13.248C33.1214 13.5893 34.1988 13.9307 35.0308 14.272C35.8628 14.592 36.5881 15.1253 37.2068 15.872C37.8468 16.5973 38.1774 17.5787 38.1988 18.816C38.1988 19.8613 37.9001 20.8 37.3028 21.632C36.7268 22.4427 35.8841 23.0827 34.7748 23.552C33.6868 24.0213 32.4174 24.256 30.9668 24.256ZM51.4985 19.36V24H48.7145C46.7305 24 45.1838 23.52 44.0745 22.56C42.9652 21.5787 42.4105 19.9893 42.4105 17.792V10.688H40.2345V6.144H42.4105V1.792H47.8825V6.144H51.4665V10.688H47.8825V17.856C47.8825 18.3893 48.0105 18.7733 48.2665 19.008C48.5225 19.2427 48.9492 19.36 49.5465 19.36H51.4985ZM60.0185 9.12C60.6585 8.13867 61.4585 7.37067 62.4185 6.816C63.3785 6.24 64.4452 5.952 65.6185 5.952V11.744H64.1145C62.7492 11.744 61.7252 12.0427 61.0425 12.64C60.3598 13.216 60.0185 14.24 60.0185 15.712V24H54.5465V6.144H60.0185V9.12ZM76.362 24.256C74.6127 24.256 73.034 23.8827 71.626 23.136C70.2393 22.3893 69.1407 21.3227 68.33 19.936C67.5407 18.5493 67.146 16.928 67.146 15.072C67.146 13.2373 67.5513 11.6267 68.362 10.24C69.1727 8.832 70.282 7.75467 71.69 7.008C73.098 6.26133 74.6767 5.888 76.426 5.888C78.1753 5.888 79.754 6.26133 81.162 7.008C82.57 7.75467 83.6793 8.832 84.49 10.24C85.3007 11.6267 85.706 13.2373 85.706 15.072C85.706 16.9067 85.29 18.528 84.458 19.936C83.6473 21.3227 82.5273 22.3893 81.098 23.136C79.69 23.8827 78.1113 24.256 76.362 24.256ZM76.362 19.52C77.4073 19.52 78.2927 19.136 79.018 18.368C79.7647 17.6 80.138 16.5013 80.138 15.072C80.138 13.6427 79.7753 12.544 79.05 11.776C78.346 11.008 77.4713 10.624 76.426 10.624C75.3593 10.624 74.474 11.008 73.77 11.776C73.066 12.5227 72.714 13.6213 72.714 15.072C72.714 16.5013 73.0553 17.6 73.738 18.368C74.442 19.136 75.3167 19.52 76.362 19.52ZM88.161 15.232C88.161 13.44 88.5237 11.872 89.249 10.528C89.9743 9.16267 90.9663 8.11733 92.225 7.392C93.505 6.64533 94.945 6.272 96.545 6.272C98.081 6.272 99.4677 6.64533 100.705 7.392C101.942 8.13867 102.849 9.10933 103.425 10.304V0.32H105.665V24H103.425V20.096C102.892 21.312 102.017 22.3147 100.801 23.104C99.585 23.872 98.1557 24.256 96.513 24.256C94.913 24.256 93.473 23.8827 92.193 23.136C90.9343 22.3893 89.9423 21.3333 89.217 19.968C88.513 18.6027 88.161 17.024 88.161 15.232ZM103.425 15.264C103.425 13.856 103.137 12.6187 102.561 11.552C101.985 10.4853 101.196 9.664 100.193 9.088C99.2117 8.512 98.1237 8.224 96.929 8.224C95.6917 8.224 94.5823 8.50133 93.601 9.056C92.6197 9.61067 91.841 10.4213 91.265 11.488C90.7103 12.5333 90.433 13.7813 90.433 15.232C90.433 16.6613 90.7103 17.92 91.265 19.008C91.841 20.0747 92.6197 20.896 93.601 21.472C94.5823 22.0267 95.6917 22.304 96.929 22.304C98.1237 22.304 99.2117 22.016 100.193 21.44C101.196 20.864 101.985 20.0427 102.561 18.976C103.137 17.9093 103.425 16.672 103.425 15.264ZM126.587 14.368C126.587 15.136 126.565 15.7227 126.523 16.128H112.027C112.091 17.4507 112.411 18.5813 112.987 19.52C113.563 20.4587 114.32 21.1733 115.259 21.664C116.197 22.1333 117.221 22.368 118.331 22.368C119.781 22.368 120.997 22.016 121.979 21.312C122.981 20.608 123.643 19.6587 123.963 18.464H126.331C125.904 20.1707 124.987 21.568 123.579 22.656C122.192 23.7227 120.443 24.256 118.331 24.256C116.688 24.256 115.216 23.8933 113.915 23.168C112.613 22.4213 111.589 21.376 110.843 20.032C110.117 18.6667 109.755 17.0773 109.755 15.264C109.755 13.4507 110.117 11.8613 110.843 10.496C111.568 9.13067 112.581 8.08533 113.883 7.36C115.184 6.63467 116.667 6.272 118.331 6.272C119.995 6.272 121.445 6.63467 122.683 7.36C123.941 8.08533 124.901 9.06667 125.563 10.304C126.245 11.52 126.587 12.8747 126.587 14.368ZM124.315 14.304C124.336 13.0027 124.069 11.8933 123.515 10.976C122.981 10.0587 122.245 9.36533 121.307 8.896C120.368 8.42667 119.344 8.192 118.235 8.192C116.571 8.192 115.152 8.72533 113.979 9.792C112.805 10.8587 112.155 12.3627 112.027 14.304H124.315ZM136.893 21.824L142.781 6.528H145.149L138.141 24H135.613L128.605 6.528H131.005L136.893 21.824Z" fill="white"/>
</svg>
