<svg width="22" height="26" viewBox="0 0 22 26" fill="none" xmlns="http://www.w3.org/2000/svg">
<path d="M10.6 14.2C12.5882 14.2 14.2 12.5882 14.2 10.6C14.2 8.61177 12.5882 7 10.6 7C8.61177 7 7 8.61177 7 10.6C7 12.5882 8.61177 14.2 10.6 14.2Z" stroke="white" stroke-width="2" stroke-linecap="round" stroke-linejoin="round"/>
<path d="M10.6 1C8.05392 1 5.61212 2.01143 3.81178 3.81178C2.01143 5.61212 1 8.05392 1 10.6C1 12.8704 1.4824 14.356 2.8 16L10.6 25L18.4 16C19.7176 14.356 20.2 12.8704 20.2 10.6C20.2 8.05392 19.1886 5.61212 17.3882 3.81178C15.5879 2.01143 13.1461 1 10.6 1V1Z" stroke="white" stroke-width="2" stroke-linecap="round" stroke-linejoin="round"/>
</svg>
