<svg width="24" height="24" viewBox="0 0 24 24" fill="none" xmlns="http://www.w3.org/2000/svg">
<path d="M12 0C5.4948 0 0 5.4948 0 12C0 18.5052 5.4948 24 12 24C18.5052 24 24 18.5052 24 12C24 5.4948 18.5052 0 12 0ZM12 6C14.0724 6 15.6 7.5264 15.6 9.6C15.6 11.6736 14.0724 13.2 12 13.2C9.9288 13.2 8.4 11.6736 8.4 9.6C8.4 7.5264 9.9288 6 12 6ZM5.8728 17.7264C6.9492 16.1424 8.7444 15.0864 10.8 15.0864H13.2C15.2568 15.0864 17.0508 16.1424 18.1272 17.7264C16.5936 19.368 14.418 20.4 12 20.4C9.582 20.4 7.4064 19.368 5.8728 17.7264Z" fill="black"/>
</svg>
