<?xml version="1.0" encoding="UTF-8"?>
<svg xmlns="http://www.w3.org/2000/svg" xmlns:xlink="http://www.w3.org/1999/xlink" width="100px" height="33px" viewBox="0 0 98 33" version="1.1">
<defs>
<clipPath id="clip1">
  <path d="M 48 18 L 64.996094 18 L 64.996094 26 L 48 26 Z M 48 18 "/>
</clipPath>
</defs>
<g id="surface1">
<path style=" stroke:none;fill-rule:evenodd;fill:rgb(5.490196%,53.333333%,82.745098%);fill-opacity:1;" d="M 37.226562 4.882812 L 36.441406 6.496094 L 39.164062 7.109375 L 39.9375 5.507812 Z M 40.53125 5.648438 L 39.753906 7.265625 L 42.476562 7.890625 L 43.238281 6.289062 Z M 49.363281 7.707031 L 48.601562 9.324219 L 51.324219 9.960938 L 52.097656 8.347656 Z M 52.679688 8.488281 L 51.90625 10.105469 L 54.636719 10.730469 L 55.398438 9.128906 Z M 52.679688 8.488281 "/>
<g clip-path="url(#clip1)" clip-rule="nonzero">
<path style=" stroke:none;fill-rule:evenodd;fill:rgb(5.490196%,53.333333%,82.745098%);fill-opacity:1;" d="M 49.632812 18.921875 C 49.480469 18.921875 49.339844 18.988281 49.210938 19.105469 C 49.105469 19.210938 49.027344 19.378906 49.027344 19.546875 C 49.027344 19.71875 49.105469 19.859375 49.210938 19.992188 C 49.339844 20.09375 49.480469 20.171875 49.632812 20.171875 C 49.816406 20.171875 49.984375 20.09375 50.085938 19.992188 C 50.214844 19.859375 50.265625 19.71875 50.265625 19.546875 C 50.265625 19.378906 50.214844 19.210938 50.085938 19.105469 C 49.984375 18.988281 49.816406 18.921875 49.632812 18.921875 Z M 48.511719 20.5 L 48.511719 21.242188 L 52.859375 21.242188 C 52.265625 21.371094 51.738281 21.65625 51.351562 22.0625 C 51.144531 22.269531 50.949219 22.597656 50.769531 23.011719 C 50.691406 23.195312 50.628906 23.378906 50.550781 23.585938 C 51.8125 23.597656 52.601562 23.652344 52.949219 23.78125 C 53.179688 23.871094 53.386719 24.003906 53.605469 24.160156 C 53.878906 24.367188 54.019531 24.5625 54.058594 24.757812 L 51.503906 24.757812 L 50.640625 25.632812 L 53.632812 25.632812 C 54.507812 24.964844 54.933594 24.417969 54.933594 23.976562 C 54.933594 23.78125 54.84375 23.597656 54.691406 23.441406 C 54.34375 23.089844 53.878906 22.871094 53.296875 22.765625 C 53 22.710938 52.472656 22.675781 51.722656 22.675781 C 51.828125 22.53125 51.941406 22.347656 52.035156 22.179688 C 52.1875 21.984375 52.328125 21.894531 52.496094 21.894531 C 52.882812 21.894531 53.542969 22.152344 54.417969 22.660156 L 55.296875 21.761719 C 54.960938 21.554688 54.613281 21.371094 54.289062 21.242188 L 64.53125 21.242188 L 64.53125 20.5 Z M 49.105469 21.839844 L 49.105469 25.632812 L 50.175781 25.632812 L 50.175781 21.839844 Z M 55.800781 21.839844 L 55.800781 25.632812 L 56.882812 25.632812 L 56.882812 23.050781 C 57.164062 22.933594 57.449219 22.855469 57.746094 22.855469 C 58.042969 22.855469 58.277344 22.949219 58.457031 23.089844 C 58.675781 23.324219 58.765625 23.691406 58.726562 24.183594 L 59.640625 23.285156 C 59.667969 22.816406 59.550781 22.453125 59.320312 22.21875 C 59.125 22.035156 58.894531 21.929688 58.597656 21.929688 C 58.3125 21.929688 57.992188 22.023438 57.65625 22.21875 C 57.347656 22.359375 57.089844 22.570312 56.882812 22.777344 L 56.882812 21.839844 Z M 60.195312 21.839844 L 60.195312 24.667969 C 60.195312 24.667969 60.222656 25.214844 60.585938 25.488281 C 60.828125 25.644531 61.175781 25.632812 61.175781 25.632812 L 64.105469 25.632812 L 64.105469 22.855469 C 64.105469 22.582031 64.015625 22.347656 63.859375 22.152344 C 63.71875 21.945312 63.523438 21.839844 63.292969 21.839844 Z M 62.839844 22.835938 C 63.117188 22.832031 63.097656 22.90625 63.097656 23.351562 L 63.097656 24.613281 L 61.410156 24.613281 C 61.410156 24.613281 61.242188 24.628906 61.203125 24.574219 C 61.152344 24.511719 61.175781 24.433594 61.175781 24.054688 L 61.175781 22.84375 L 62.699219 22.84375 C 62.753906 22.839844 62.796875 22.835938 62.839844 22.835938 Z M 62.839844 22.835938 "/>
</g>
<path style=" stroke:none;fill-rule:evenodd;fill:rgb(95.686275%,44.705882%,8.627451%);fill-opacity:1;" d="M 37.925781 19.769531 L 47.710938 -0.277344 L 47.648438 34.109375 L 44.953125 11.238281 L 37.925781 19.769531 "/>
<path style=" stroke:none;fill-rule:evenodd;fill:rgb(95.686275%,44.705882%,8.627451%);fill-opacity:1;" d="M 42.191406 18.425781 C 42.128906 18.429688 42.066406 18.433594 42 18.441406 L 41.640625 19.3125 C 42.65625 19.128906 43.089844 19.414062 43.476562 20.472656 L 29.179688 20.472656 L 29.179688 21.226562 L 32.625 21.226562 L 32.625 21.65625 C 32.625 21.65625 31.257812 21.109375 30.097656 22.164062 C 29.179688 23.234375 29.953125 24.277344 29.953125 24.277344 C 29.953125 24.277344 30.703125 23.859375 31.890625 24.054688 C 32.996094 24.25 32.945312 24.785156 32.945312 24.785156 C 32.945312 24.785156 32.792969 25.449219 31.902344 25.316406 C 31.011719 25.175781 31.078125 24.277344 31.078125 24.277344 L 30.097656 24.941406 C 30.097656 24.941406 30.46875 25.582031 31.308594 25.785156 L 32.058594 26.921875 L 33.167969 26.921875 L 32.3125 25.804688 C 32.40625 25.785156 32.507812 25.765625 32.609375 25.734375 C 34.765625 25.160156 34.003906 23.519531 32.40625 23.089844 C 31.296875 22.804688 30.097656 23.351562 30.097656 23.351562 C 30.097656 23.351562 30.25 21.96875 32.238281 22.296875 C 33.347656 22.492188 33.746094 22.949219 33.746094 22.949219 L 33.746094 21.226562 L 35.96875 21.226562 L 35.035156 21.671875 C 35.035156 21.671875 35.511719 22.207031 35.679688 22.90625 C 35.824219 23.636719 35.511719 23.769531 35.320312 23.78125 C 35.191406 23.691406 34.585938 22.816406 34.585938 22.816406 L 34.160156 23.195312 L 35.695312 25.632812 L 36.777344 25.632812 C 36.777344 25.632812 35.785156 24.417969 35.628906 24.199219 C 35.882812 24.1875 36.234375 24.105469 36.464844 23.792969 C 36.625 23.878906 36.820312 23.945312 37.046875 23.964844 C 37.730469 24.027344 38.15625 23.691406 38.15625 23.691406 L 38.15625 25.632812 L 39.277344 25.632812 L 39.277344 21.226562 L 41.707031 21.226562 L 40.761719 21.671875 C 40.761719 21.671875 41.265625 22.207031 41.40625 22.90625 C 41.546875 23.636719 41.253906 23.769531 41.046875 23.78125 C 40.941406 23.691406 40.3125 22.816406 40.3125 22.816406 L 39.882812 23.195312 L 41.40625 25.632812 L 42.503906 25.632812 C 42.503906 25.632812 41.535156 24.417969 41.382812 24.199219 C 41.730469 24.183594 42.308594 24.015625 42.414062 23.183594 C 42.5625 22.074219 42.074219 21.417969 41.90625 21.226562 L 43.238281 21.226562 L 43.238281 25.628906 L 44.359375 25.628906 L 44.359375 21.226562 L 44.953125 21.226562 L 44.953125 20.472656 L 44.132812 20.472656 C 43.671875 18.835938 43.105469 18.394531 42.191406 18.425781 Z M 36.167969 21.226562 L 38.15625 21.226562 L 38.15625 22.503906 C 38.15625 22.503906 38.15625 22.855469 37.472656 23.195312 C 37.183594 23.355469 36.890625 23.414062 36.636719 23.433594 C 36.65625 23.355469 36.675781 23.273438 36.6875 23.183594 C 36.835938 22.074219 36.339844 21.417969 36.167969 21.226562 Z M 36.167969 21.226562 "/>
</g>
</svg>
