<?xml version="1.0" encoding="UTF-8"?>
<svg xmlns="http://www.w3.org/2000/svg" xmlns:xlink="http://www.w3.org/1999/xlink" width="100px" height="33px" viewBox="0 0 98 33" version="1.1">
<defs>
<clipPath id="clip1">
  <path d="M 36 0.144531 L 64 0.144531 L 64 21 L 36 21 Z M 36 0.144531 "/>
</clipPath>
<clipPath id="clip2">
  <path d="M 6.054688 8 L 44 8 L 44 13 L 6.054688 13 Z M 6.054688 8 "/>
</clipPath>
<clipPath id="clip3">
  <path d="M 6.054688 27 L 64 27 L 64 33 L 6.054688 33 Z M 6.054688 27 "/>
</clipPath>
<clipPath id="clip4">
  <path d="M 66 27 L 94.253906 27 L 94.253906 33 L 66 33 Z M 66 27 "/>
</clipPath>
</defs>
<g id="surface1">
<g clip-path="url(#clip1)" clip-rule="nonzero">
<path style=" stroke:none;fill-rule:nonzero;fill:rgb(7.45098%,4.705882%,5.490196%);fill-opacity:1;" d="M 36.421875 20.742188 L 43.652344 20.742188 L 40.035156 17.472656 Z M 59.039062 20.742188 L 63.9375 20.742188 L 56.265625 13.789062 L 58.710938 13.789062 C 61.007812 13.785156 62.867188 11.90625 62.871094 9.585938 L 62.871094 4.417969 C 62.867188 2.097656 61.007812 0.21875 58.710938 0.214844 L 36.417969 0.214844 L 40.039062 3.503906 L 58.710938 3.503906 C 59.207031 3.503906 59.613281 3.914062 59.613281 4.417969 L 59.613281 9.585938 C 59.613281 10.089844 59.207031 10.5 58.710938 10.5 L 47.75 10.5 Z M 59.039062 20.742188 "/>
</g>
<g clip-path="url(#clip2)" clip-rule="nonzero">
<path style=" stroke:none;fill-rule:nonzero;fill:rgb(89.411765%,15.294118%,15.294118%);fill-opacity:1;" d="M 6.222656 10.5 L 37.492188 12.71875 C 39.773438 12.882812 42.015625 12.070312 43.617188 10.5 C 41.992188 8.941406 39.78125 8.152344 37.53125 8.3125 Z M 6.222656 10.5 "/>
</g>
<g clip-path="url(#clip3)" clip-rule="nonzero">
<path style=" stroke:none;fill-rule:nonzero;fill:rgb(7.45098%,4.705882%,5.490196%);fill-opacity:1;" d="M 11.699219 31.078125 L 12.152344 31.078125 C 12.800781 31.078125 13.328125 30.546875 13.328125 29.890625 L 13.328125 28.875 C 13.328125 28.21875 12.800781 27.6875 12.152344 27.6875 L 6.222656 27.6875 L 6.222656 33.003906 L 7.28125 33.003906 L 7.28125 28.59375 L 12.207031 28.59375 C 12.273438 28.59375 12.324219 28.644531 12.324219 28.710938 L 12.324219 30.03125 C 12.324219 30.09375 12.273438 30.148438 12.207031 30.148438 L 9.140625 30.148438 L 12.277344 32.992188 L 13.789062 32.992188 Z M 22.132812 27.679688 C 22.960938 27.679688 23.636719 28.355469 23.640625 29.191406 C 23.640625 29.195312 23.640625 29.199219 23.640625 29.203125 L 23.640625 31.480469 C 23.644531 32.316406 22.972656 32.996094 22.144531 33 C 22.140625 33 22.136719 33 22.132812 33 L 17.617188 33 C 16.785156 33 16.113281 32.320312 16.113281 31.480469 L 16.113281 29.203125 C 16.113281 28.363281 16.785156 27.683594 17.617188 27.679688 Z M 22.589844 29.046875 C 22.589844 28.925781 22.542969 28.8125 22.457031 28.726562 C 22.375 28.636719 22.257812 28.589844 22.136719 28.589844 L 17.621094 28.589844 C 17.375 28.59375 17.171875 28.796875 17.167969 29.046875 L 17.167969 31.632812 C 17.171875 31.882812 17.371094 32.085938 17.621094 32.089844 L 22.136719 32.089844 C 22.257812 32.09375 22.375 32.042969 22.457031 31.957031 C 22.542969 31.871094 22.589844 31.753906 22.589844 31.632812 Z M 33.835938 32.089844 C 33.847656 32.089844 33.863281 32.09375 33.871094 32.105469 C 33.878906 32.113281 33.882812 32.121094 33.882812 32.132812 L 33.882812 32.949219 C 33.882812 32.960938 33.878906 32.976562 33.871094 32.984375 C 33.863281 32.992188 33.847656 33 33.835938 32.996094 L 27.863281 32.996094 C 27.035156 33 26.359375 32.324219 26.359375 31.484375 C 26.359375 31.484375 26.359375 31.480469 26.359375 31.476562 L 26.359375 29.199219 C 26.355469 28.363281 27.027344 27.683594 27.859375 27.679688 C 27.859375 27.679688 27.863281 27.679688 27.863281 27.679688 L 33.835938 27.679688 C 33.847656 27.679688 33.863281 27.683594 33.871094 27.691406 C 33.878906 27.703125 33.882812 27.714844 33.882812 27.726562 L 33.882812 28.546875 C 33.882812 28.558594 33.878906 28.570312 33.871094 28.574219 C 33.863281 28.585938 33.847656 28.589844 33.835938 28.589844 L 27.863281 28.589844 C 27.742188 28.585938 27.628906 28.636719 27.542969 28.726562 C 27.457031 28.808594 27.410156 28.925781 27.410156 29.046875 L 27.410156 31.632812 C 27.410156 31.753906 27.457031 31.867188 27.542969 31.953125 C 27.625 32.042969 27.742188 32.089844 27.863281 32.089844 Z M 43.59375 32.996094 C 43.613281 32.996094 43.625 32.980469 43.625 32.960938 C 43.625 32.949219 43.621094 32.941406 43.609375 32.933594 L 39.613281 30.34375 L 43.621094 27.746094 C 43.632812 27.738281 43.636719 27.714844 43.628906 27.699219 C 43.621094 27.691406 43.613281 27.6875 43.601562 27.683594 L 41.984375 27.683594 C 41.96875 27.683594 41.949219 27.691406 41.933594 27.703125 L 38.433594 29.832031 L 37.402344 29.835938 L 37.402344 27.734375 C 37.402344 27.707031 37.382812 27.6875 37.355469 27.683594 L 36.46875 27.683594 C 36.441406 27.683594 36.421875 27.707031 36.421875 27.734375 L 36.421875 32.949219 C 36.421875 32.976562 36.441406 33 36.46875 33 L 37.355469 33 C 37.382812 33 37.402344 32.976562 37.402344 32.949219 L 37.402344 30.828125 L 38.40625 30.828125 L 41.933594 32.980469 C 41.949219 32.992188 41.964844 32.996094 41.984375 32.996094 Z M 47.167969 29.886719 L 53.425781 29.886719 C 53.441406 29.886719 53.453125 29.890625 53.460938 29.898438 C 53.46875 29.910156 53.476562 29.921875 53.472656 29.933594 L 53.472656 30.75 C 53.476562 30.777344 53.457031 30.796875 53.429688 30.796875 C 53.429688 30.796875 53.429688 30.796875 53.425781 30.796875 L 47.167969 30.796875 L 47.167969 31.632812 C 47.167969 31.753906 47.214844 31.867188 47.300781 31.953125 C 47.382812 32.042969 47.5 32.089844 47.621094 32.089844 L 53.589844 32.089844 C 53.601562 32.089844 53.613281 32.09375 53.621094 32.101562 C 53.632812 32.109375 53.636719 32.121094 53.636719 32.132812 L 53.636719 32.945312 C 53.636719 32.960938 53.632812 32.972656 53.621094 32.980469 C 53.613281 32.992188 53.601562 32.996094 53.589844 32.996094 L 47.625 32.996094 C 46.796875 32.996094 46.121094 32.320312 46.117188 31.484375 C 46.117188 31.480469 46.117188 31.480469 46.117188 31.476562 L 46.117188 29.207031 C 46.117188 28.371094 46.785156 27.691406 47.613281 27.6875 C 47.617188 27.6875 47.621094 27.6875 47.625 27.6875 L 53.59375 27.6875 C 53.605469 27.6875 53.617188 27.691406 53.625 27.699219 C 53.632812 27.710938 53.640625 27.722656 53.640625 27.734375 L 53.640625 28.550781 C 53.640625 28.5625 53.632812 28.574219 53.625 28.582031 C 53.617188 28.589844 53.605469 28.59375 53.59375 28.59375 L 47.625 28.59375 C 47.503906 28.589844 47.386719 28.640625 47.300781 28.730469 C 47.21875 28.8125 47.171875 28.929688 47.171875 29.050781 Z M 56.449219 27.746094 C 56.445312 27.734375 56.453125 27.722656 56.460938 27.710938 C 56.46875 27.703125 56.476562 27.699219 56.488281 27.699219 L 63.90625 27.699219 C 63.914062 27.699219 63.925781 27.703125 63.933594 27.710938 C 63.941406 27.722656 63.945312 27.734375 63.945312 27.746094 L 63.945312 28.5625 C 63.945312 28.574219 63.941406 28.582031 63.933594 28.589844 C 63.925781 28.597656 63.914062 28.605469 63.90625 28.605469 L 60.722656 28.605469 L 60.722656 32.949219 C 60.722656 32.964844 60.71875 32.976562 60.707031 32.984375 C 60.699219 32.996094 60.691406 33 60.679688 33 L 59.71875 33 C 59.691406 33 59.671875 32.980469 59.671875 32.957031 C 59.671875 32.953125 59.671875 32.953125 59.671875 32.949219 L 59.671875 28.605469 L 56.488281 28.605469 C 56.476562 28.605469 56.46875 28.601562 56.460938 28.59375 C 56.453125 28.585938 56.449219 28.574219 56.449219 28.5625 Z M 56.449219 27.746094 "/>
</g>
<g clip-path="url(#clip4)" clip-rule="nonzero">
<path style=" stroke:none;fill-rule:nonzero;fill:rgb(56.862745%,58.039216%,59.607843%);fill-opacity:1;" d="M 74.292969 32.957031 C 74.292969 32.96875 74.289062 32.980469 74.28125 32.988281 C 74.273438 32.996094 74.261719 33 74.25 33 L 68.285156 33 C 67.457031 33.003906 66.78125 32.328125 66.78125 31.492188 C 66.78125 31.488281 66.78125 31.484375 66.78125 31.480469 L 66.78125 27.734375 C 66.78125 27.722656 66.785156 27.710938 66.792969 27.699219 C 66.800781 27.691406 66.8125 27.6875 66.820312 27.6875 L 67.785156 27.6875 C 67.796875 27.6875 67.808594 27.691406 67.820312 27.699219 C 67.828125 27.710938 67.832031 27.722656 67.832031 27.734375 L 67.832031 31.636719 C 67.832031 31.757812 67.878906 31.871094 67.964844 31.957031 C 68.046875 32.046875 68.164062 32.09375 68.285156 32.09375 L 74.25 32.09375 C 74.273438 32.09375 74.292969 32.113281 74.292969 32.136719 Z M 77.507812 33 C 77.523438 33 77.535156 32.992188 77.542969 32.980469 L 79.671875 29.140625 C 79.832031 28.855469 80.132812 28.679688 80.457031 28.683594 C 80.78125 28.679688 81.082031 28.855469 81.238281 29.144531 L 83.367188 32.984375 C 83.375 32.992188 83.386719 33 83.398438 33 L 84.484375 33 C 84.503906 33 84.519531 32.984375 84.519531 32.964844 C 84.519531 32.960938 84.519531 32.953125 84.515625 32.949219 L 82.136719 28.664062 C 81.796875 28.050781 81.152344 27.671875 80.453125 27.679688 L 80.449219 27.679688 C 79.753906 27.671875 79.109375 28.046875 78.765625 28.660156 L 76.402344 32.941406 C 76.390625 32.960938 76.398438 32.984375 76.417969 32.996094 C 76.425781 33 76.429688 33 76.4375 33 Z M 94.136719 29.28125 C 94.144531 29.679688 93.988281 30.0625 93.707031 30.34375 C 93.988281 30.625 94.144531 31.007812 94.136719 31.40625 L 94.136719 31.484375 C 94.144531 31.890625 93.984375 32.277344 93.699219 32.558594 C 93.417969 32.847656 93.035156 33.007812 92.636719 33 L 86.667969 33 C 86.65625 33 86.644531 32.996094 86.636719 32.988281 C 86.625 32.980469 86.621094 32.96875 86.621094 32.960938 L 86.621094 27.734375 C 86.621094 27.710938 86.640625 27.6875 86.664062 27.6875 C 86.667969 27.6875 86.667969 27.6875 86.667969 27.6875 L 92.636719 27.6875 C 93.464844 27.691406 94.136719 28.371094 94.140625 29.207031 Z M 87.671875 28.601562 L 87.671875 29.890625 L 92.632812 29.890625 C 92.882812 29.890625 93.082031 29.6875 93.085938 29.4375 L 93.085938 29.054688 C 93.085938 28.933594 93.039062 28.816406 92.953125 28.734375 C 92.867188 28.648438 92.753906 28.601562 92.632812 28.601562 Z M 93.085938 31.636719 L 93.085938 31.257812 C 93.089844 31.136719 93.039062 31.019531 92.953125 30.933594 C 92.867188 30.847656 92.753906 30.800781 92.632812 30.800781 L 87.671875 30.800781 L 87.671875 32.09375 L 92.632812 32.09375 C 92.753906 32.09375 92.867188 32.046875 92.953125 31.960938 C 93.039062 31.875 93.089844 31.757812 93.085938 31.636719 "/>
</g>
</g>
</svg>
