<svg width="26" height="27" viewBox="0 0 26 27" fill="none" xmlns="http://www.w3.org/2000/svg">
<path fill-rule="evenodd" clip-rule="evenodd" d="M13.7071 3.12132C13.3166 2.7308 12.6834 2.7308 12.2929 3.12132L3.008 12.4062C2.38873 13.0255 2.07099 13.8844 2.13816 14.7576L2.85501 24.0767C2.89509 24.5977 3.32953 25 3.85206 25H10V20C10 18.3431 11.3431 17 13 17C14.6569 17 16 18.3431 16 20V25H22.1479C22.6705 25 23.1049 24.5977 23.145 24.0767L23.8618 14.7576C23.929 13.8844 23.6113 13.0255 22.992 12.4062L13.7071 3.12132ZM10.8787 1.70711C12.0503 0.535537 13.9497 0.535537 15.1213 1.70711L24.4062 10.992C25.4383 12.0241 25.9679 13.4557 25.856 14.911L25.1391 24.2301C25.0189 25.7931 23.7156 27 22.1479 27H16C14.8954 27 14 26.1046 14 25V20C14 19.4477 13.5523 19 13 19C12.4477 19 12 19.4477 12 20V25C12 26.1046 11.1046 27 10 27H3.85206C2.28445 27 0.98113 25.7931 0.8609 24.2301L0.144048 14.911C0.0321001 13.4557 0.561676 12.0241 1.59379 10.992L10.8787 1.70711Z" fill="white"/>
</svg>
