<?xml version="1.0" encoding="UTF-8"?>
<svg xmlns="http://www.w3.org/2000/svg" xmlns:xlink="http://www.w3.org/1999/xlink" viewBox="0 0 100 100" width="100px" height="100px">
<g id="surface64318971">
<path style=" stroke:none;fill-rule:nonzero;fill:rgb(100%,100%,100%);fill-opacity:1;" d="M 29 17 C 22.382812 17 17 22.382812 17 29 L 17 71 C 17 77.617188 22.382812 83 29 83 L 71 83 C 77.617188 83 83 77.617188 83 71 L 83 29 C 83 22.382812 77.617188 17 71 17 Z M 29 19 L 71 19 C 76.515625 19 81 23.484375 81 29 L 81 71 C 81 76.515625 76.515625 81 71 81 L 29 81 C 23.484375 81 19 76.515625 19 71 L 19 29 C 19 23.484375 23.484375 19 29 19 Z M 34.5 23 C 28.160156 23 23 28.160156 23 34.5 L 23 65.5 C 23 71.839844 28.160156 77 34.5 77 L 65.5 77 C 71.839844 77 77 71.839844 77 65.5 L 77 50.5 C 77 50.222656 76.777344 50 76.5 50 C 76.222656 50 76 50.222656 76 50.5 L 76 65.5 C 76 71.289062 71.289062 76 65.5 76 L 59.476562 76 L 59.476562 67.65625 C 59.476562 65.441406 58.4375 63.367188 56.730469 62 L 57.425781 62 C 64.597656 62 70.433594 56.1875 70.433594 49.039062 C 70.433594 45.800781 69.234375 42.710938 67.046875 40.304688 C 67.378906 38.242188 67.382812 35.144531 66.449219 32.34375 C 66.378906 32.136719 66.191406 32 65.972656 32 C 61.921875 32 58.503906 34.6875 57.074219 36 L 44.667969 36 C 41.167969 32.695312 38.011719 32 35.976562 32 C 35.761719 32 35.570312 32.136719 35.5 32.34375 C 34.734375 34.644531 34.394531 37.398438 34.605469 39.597656 C 32.007812 42.054688 30.519531 45.480469 30.519531 49.042969 C 30.519531 56.1875 36.355469 62 43.527344 62 L 44.195312 62 C 42.875 63.03125 41.929688 64.449219 41.566406 65.996094 C 39.570312 65.964844 37.28125 65.667969 36.210938 64.0625 C 33.785156 60.425781 32.5625 60.152344 30.972656 60.152344 C 30.3125 60.152344 29.8125 60.441406 29.601562 60.945312 C 29.308594 61.65625 29.652344 62.597656 30.519531 63.464844 C 31.695312 64.640625 31.695312 64.636719 32.886719 67.023438 C 33.609375 68.46875 35.679688 70.863281 41.476562 70.992188 L 41.476562 76 L 34.5 76 C 28.710938 76 24 71.289062 24 65.5 L 24 34.5 C 24 28.710938 28.710938 24 34.5 24 L 65.5 24 C 65.777344 24 66 23.777344 66 23.5 C 66 23.222656 65.777344 23 65.5 23 Z M 36.335938 33.007812 C 38.207031 33.09375 40.957031 33.851562 44.035156 36.777344 L 44.128906 36.863281 C 44.21875 36.953125 44.339844 37 44.46875 37 L 57.273438 37 C 57.402344 37 57.535156 36.941406 57.628906 36.855469 C 58.820312 35.734375 61.929688 33.167969 65.613281 33.007812 C 66.414062 35.652344 66.355469 38.523438 66.023438 40.378906 C 65.992188 40.535156 66.042969 40.695312 66.152344 40.808594 C 68.265625 43.050781 69.433594 45.976562 69.433594 49.039062 C 69.433594 55.632812 64.046875 61 57.425781 61 L 54.976562 61 C 54.742188 61 54.539062 61.164062 54.488281 61.394531 C 54.4375 61.621094 54.554688 61.855469 54.769531 61.953125 C 57.019531 62.984375 58.476562 65.222656 58.476562 67.65625 L 58.476562 76 L 42.476562 76 L 42.476562 70.5 C 42.476562 70.222656 42.253906 70 41.976562 70 C 37.796875 70 34.886719 68.785156 33.785156 66.578125 C 32.539062 64.09375 32.515625 64.046875 31.230469 62.761719 C 30.558594 62.085938 30.441406 61.535156 30.527344 61.332031 C 30.589844 61.175781 30.835938 61.152344 30.976562 61.152344 C 32.097656 61.152344 33.066406 61.152344 35.378906 64.621094 C 36.785156 66.726562 39.644531 67 41.976562 67 C 42.222656 67 42.429688 66.820312 42.46875 66.582031 C 42.785156 64.632812 44.210938 62.859375 46.183594 61.957031 C 46.398438 61.855469 46.515625 61.625 46.464844 61.394531 C 46.414062 61.164062 46.210938 61 45.976562 61 L 43.53125 61 C 36.910156 61 31.523438 55.632812 31.523438 49.039062 C 31.523438 45.675781 32.957031 42.4375 35.464844 40.164062 C 35.582031 40.054688 35.644531 39.894531 35.628906 39.738281 C 35.398438 37.769531 35.675781 35.167969 36.339844 33.007812 Z M 76.5 34 C 76.222656 34 76 34.222656 76 34.5 L 76 38 C 76 38.277344 76.222656 38.5 76.5 38.5 C 76.777344 38.5 77 38.277344 77 38 L 77 34.5 C 77 34.222656 76.777344 34 76.5 34 Z M 76.5 41 C 76.222656 41 76 41.222656 76 41.5 L 76 48 C 76 48.277344 76.222656 48.5 76.5 48.5 C 76.777344 48.5 77 48.277344 77 48 L 77 41.5 C 77 41.222656 76.777344 41 76.5 41 Z M 76.5 41 "/>
</g>
</svg>
