<svg width="34" height="34" viewBox="0 0 34 34" fill="none" xmlns="http://www.w3.org/2000/svg">
<path d="M1.16675 17.0001C1.16675 25.7448 8.25533 32.8334 17.0001 32.8334C25.7448 32.8334 32.8334 25.7448 32.8334 17.0001C32.8334 8.25533 25.7448 1.16675 17.0001 1.16675C8.25533 1.16675 1.16675 8.25533 1.16675 17.0001Z" stroke="white" stroke-width="2" stroke-linecap="round" stroke-linejoin="round"/>
<path d="M18.5834 1.24585C18.5834 1.24585 23.3334 7.50002 23.3334 17C23.3334 26.5 18.5834 32.7542 18.5834 32.7542" stroke="white" stroke-width="2" stroke-linecap="round" stroke-linejoin="round"/>
<path d="M15.4167 32.7542C15.4167 32.7542 10.6667 26.5 10.6667 17C10.6667 7.50002 15.4167 1.24585 15.4167 1.24585" stroke="white" stroke-width="2" stroke-linecap="round" stroke-linejoin="round"/>
<path d="M2.16425 22.5417H31.8359" stroke="white" stroke-width="2" stroke-linecap="round" stroke-linejoin="round"/>
<path d="M2.16425 11.4585H31.8359" stroke="white" stroke-width="2" stroke-linecap="round" stroke-linejoin="round"/>
</svg>
