<svg width="26" height="24" viewBox="0 0 26 24" fill="none" xmlns="http://www.w3.org/2000/svg">
<path fill-rule="evenodd" clip-rule="evenodd" d="M2.78428 0C4.54029 0 6.09097 1.14529 6.60739 2.82366L6.66165 3H22.7344C24.5389 3 25.9351 4.58155 25.7113 6.3721L25.1844 10.5868C25.0148 11.9442 23.9483 13.015 22.5915 13.19L9.24724 14.9119C9.089 15.15 8.89279 15.3664 8.66157 15.5514C8.06114 16.0317 8.40079 17 9.16972 17H23C23.5523 17 24 17.4477 24 18C24 18.5523 23.5523 19 23 19H9.16972C6.51024 19 5.33547 15.651 7.41218 13.9896C7.6729 13.7811 7.77969 13.4343 7.68149 13.1152L4.69583 3.41183C4.43762 2.57264 3.66229 2 2.78428 2H1C0.447716 2 0 1.55228 0 1C0 0.447715 0.447716 0 1 0H2.78428ZM9.67024 12.8407L22.3356 11.2065C22.7878 11.1481 23.1433 10.7912 23.1999 10.3387L23.7267 6.12403C23.8013 5.52718 23.3359 5 22.7344 5H7.27704L9.59305 12.5271C9.62501 12.6309 9.65069 12.7356 9.67024 12.8407Z" fill="white"/>
<path d="M6 22C6 20.8954 6.89543 20 8 20C9.10457 20 10 20.8954 10 22C10 23.1046 9.10457 24 8 24C6.89543 24 6 23.1046 6 22Z" fill="white"/>
<path d="M20 20C18.8954 20 18 20.8954 18 22C18 23.1046 18.8954 24 20 24C21.1046 24 22 23.1046 22 22C22 20.8954 21.1046 20 20 20Z" fill="white"/>
</svg>
