<svg width="32" height="28" viewBox="0 0 32 28" fill="none" xmlns="http://www.w3.org/2000/svg">
<g filter="url(#filter0_d_1_289)">
<path fill-rule="evenodd" clip-rule="evenodd" d="M14 0C8.47715 0 4 4.47715 4 10C4 15.5228 8.47715 20 14 20C16.4013 20 18.6049 19.1536 20.3287 17.7429L26.2929 23.7071C26.6834 24.0976 27.3166 24.0976 27.7071 23.7071C28.0976 23.3166 28.0976 22.6834 27.7071 22.2929L21.7429 16.3287C23.1536 14.6049 24 12.4013 24 10C24 4.47715 19.5228 0 14 0ZM6 10C6 5.58172 9.58172 2 14 2C18.4183 2 22 5.58172 22 10C22 14.4183 18.4183 18 14 18C9.58172 18 6 14.4183 6 10Z" stroke= "#131921" fill=" #131921"/>
</g>
<defs>
<filter id="filter0_d_1_289" x="0" y="0" width="32" height="32" filterUnits="userSpaceOnUse" color-interpolation-filters="sRGB">
<feFlood flood-opacity="0" result="BackgroundImageFix"/>
<feColorMatrix in="SourceAlpha" type="matrix" values="0 0 0 0 0 0 0 0 0 0 0 0 0 0 0 0 0 0 127 0" result="hardAlpha"/>
<feOffset dy="4"/>
<feGaussianBlur stdDeviation="2"/>
<feComposite in2="hardAlpha" operator="out"/>
<feColorMatrix type="matrix" values="0 0 0 0 0 0 0 0 0 0 0 0 0 0 0 0 0 0 0.25 0"/>
<feBlend mode="normal" in2="BackgroundImageFix" result="effect1_dropShadow_1_289"/>
<feBlend mode="normal" in="SourceGraphic" in2="effect1_dropShadow_1_289" result="shape"/>
</filter>
</defs>
</svg>