<svg width="38" height="38" viewBox="0 0 38 38" fill="none" xmlns="http://www.w3.org/2000/svg">
<path d="M38.0001 18.981C38.0001 8.5025 29.4881 0 19.0001 0C8.51206 0 6.10352e-05 8.5025 6.10352e-05 18.981C6.10352e-05 24.7523 2.62206 29.9535 6.72606 33.4447C6.76406 33.4827 6.80206 33.4827 6.80206 33.5208C7.14406 33.7868 7.48606 34.0527 7.86606 34.3187C8.05606 34.4328 8.20806 34.5824 8.39806 34.7344C11.538 36.8632 15.2445 38.0009 19.0381 38C22.8316 38.0009 26.5382 36.8632 29.6781 34.7344C29.8681 34.6204 30.0201 34.4707 30.2101 34.3544C30.5521 34.0908 30.9321 33.8247 31.2741 33.5588C31.3121 33.5208 31.3501 33.5207 31.3501 33.4827C35.3781 29.9511 38.0001 24.7523 38.0001 18.981ZM19.0001 35.6084C15.4281 35.6084 12.1601 34.4684 9.46206 32.5708C9.50006 32.2668 9.57606 31.9651 9.65206 31.6611C9.87849 30.8372 10.2106 30.0461 10.6401 29.3075C11.0581 28.5855 11.5521 27.9395 12.1601 27.3695C12.7301 26.7995 13.4141 26.2699 14.0981 25.8519C14.8201 25.4339 15.5801 25.1299 16.4161 24.9019C17.2586 24.6748 18.1275 24.5606 19.0001 24.5623C21.5904 24.5439 24.0855 25.5375 25.9541 27.3315C26.8281 28.2055 27.5121 29.2315 28.0061 30.4071C28.2721 31.0911 28.4621 31.8131 28.5761 32.5708C25.7716 34.5424 22.4282 35.6029 19.0001 35.6084ZM13.1861 18.0334C12.8512 17.2668 12.6829 16.4379 12.6921 15.6014C12.6921 14.7677 12.8441 13.9318 13.1861 13.1718C13.5281 12.4117 13.9841 11.7301 14.5541 11.1601C15.1241 10.5901 15.8081 10.1365 16.5681 9.7945C17.3281 9.4525 18.1641 9.3005 19.0001 9.3005C19.8741 9.3005 20.6721 9.4525 21.4321 9.7945C22.1921 10.1365 22.8761 10.5925 23.4461 11.1601C24.0161 11.7301 24.4721 12.4141 24.8141 13.1718C25.1561 13.9318 25.3081 14.7677 25.3081 15.6014C25.3081 16.4754 25.1561 17.2734 24.8141 18.031C24.484 18.7798 24.0205 19.4622 23.4461 20.045C22.8631 20.6185 22.1806 21.0813 21.4321 21.4106C19.8618 22.0559 18.1003 22.0559 16.5301 21.4106C15.7815 21.0813 15.0991 20.6185 14.5161 20.045C13.9409 19.4707 13.4884 18.7855 13.1861 18.031V18.0334ZM30.8181 30.6351C30.8181 30.5591 30.7801 30.5211 30.7801 30.4451C30.4063 29.2562 29.8555 28.1305 29.1461 27.1059C28.436 26.0737 27.5633 25.1633 26.5621 24.4102C25.7974 23.835 24.9685 23.3504 24.0921 22.9662C24.4908 22.7032 24.8602 22.3983 25.1941 22.0566C25.7606 21.4973 26.2581 20.8722 26.6761 20.1946C27.5177 18.8119 27.9523 17.2199 27.9301 15.6014C27.9418 14.4032 27.7091 13.2153 27.2461 12.1101C26.7889 11.0453 26.1309 10.0784 25.3081 9.2625C24.4864 8.45507 23.5194 7.8104 22.4581 7.3625C21.3511 6.90031 20.1616 6.66839 18.9621 6.68087C17.7624 6.66914 16.5729 6.90187 15.4661 7.36488C14.3955 7.81182 13.4262 8.47016 12.6161 9.3005C11.8087 10.1213 11.164 11.0875 10.7161 12.1481C10.2531 13.2533 10.0203 14.4412 10.0321 15.6394C10.0321 16.4754 10.1461 17.2734 10.3741 18.031C10.6021 18.829 10.9061 19.551 11.3241 20.2326C11.7041 20.9166 12.2361 21.5246 12.8061 22.0946C13.1481 22.4366 13.5281 22.7382 13.9461 23.0042C13.0669 23.3986 12.2378 23.8961 11.4761 24.4863C10.4881 25.2463 9.61406 26.1559 8.89206 27.1439C8.17543 28.1642 7.624 29.2911 7.25806 30.4831C7.22006 30.5591 7.22006 30.6351 7.22006 30.6731C4.21806 27.6355 2.35606 23.5363 2.35606 18.981C2.35606 9.8325 9.84206 2.35363 19.0001 2.35363C28.1581 2.35363 35.6441 9.8325 35.6441 18.981C35.6391 23.3509 33.9039 27.541 30.8181 30.6351Z" fill="white"/>
</svg>
