<svg height="25" width="42" xmlns="http://www.w3.org/2000/svg"><g fill="none" fill-rule="evenodd"><path d="M0 0h42v25H0z" fill="#0072ce"/><g fill="#fff"><path d="M35.451 14.56h-1.484c-.148 0-.246.005-.33.06-.085.056-.118.138-.118.245 0 .128.072.216.178.253a.93.93 0 00.314.039l.44.012c.446.01.743.087.925.273.033.026.052.055.075.084zm0 2.239c-.198.288-.583.435-1.105.435h-1.572v-.729h1.566c.155 0 .264-.02.33-.084a.298.298 0 00.096-.222.279.279 0 00-.1-.224c-.059-.052-.145-.076-.287-.076-.764-.025-1.718.024-1.718-1.05 0-.494.314-1.012 1.168-1.012h1.622v-.676h-1.507c-.455 0-.785.109-1.019.277v-.277h-2.229c-.356 0-.774.088-.972.277v-.277h-3.98v.277c-.317-.227-.851-.277-1.098-.277h-2.625v.277c-.25-.242-.808-.277-1.148-.277h-2.938l-.672.725-.63-.725h-4.389v4.74h4.307l.692-.737.653.737 2.654.002v-1.115h.261c.353.005.768-.009 1.134-.167v1.28h2.19v-1.236h.105c.135 0 .148.006.148.14V17.9h6.651c.423 0 .864-.107 1.108-.303v.303h2.11c.44 0 .868-.06 1.194-.218zm-3.248-1.357c.159.164.244.37.244.72 0 .73-.458 1.072-1.28 1.072h-1.585v-.729h1.58c.154 0 .263-.02.332-.084a.3.3 0 00.096-.222.291.291 0 00-.1-.224c-.061-.052-.147-.076-.29-.076-.76-.025-1.714.024-1.714-1.05 0-.494.31-1.012 1.164-1.012h1.632v.723H30.79c-.148 0-.245.005-.326.061-.09.055-.123.137-.123.245a.26.26 0 00.178.253c.086.03.179.038.317.038l.439.012c.442.01.745.087.93.273zm-7.346-.21c-.11.065-.244.07-.402.07h-.99v-.763h1.003c.145 0 .29.003.389.062.105.055.168.16.168.305s-.063.263-.168.326zm.491.423c.182.067.33.186.4.285.114.166.13.32.134.62v.674h-.817v-.425c0-.205.02-.507-.132-.665-.119-.122-.3-.151-.597-.151h-.87v1.24h-.818v-3.396h1.88c.411 0 .712.018.979.16.257.155.418.367.418.754a.951.951 0 01-.577.904zm1.029-1.818h2.717v.702h-1.906v.618h1.86v.693h-1.86v.676l1.906.003v.705h-2.717zm-5.493 1.567H19.83v-.865h1.062c.294 0 .498.12.498.417 0 .294-.194.448-.507.448zm-1.863 1.52l-1.25-1.383 1.25-1.34zm-3.229-.398h-2.001v-.676h1.787v-.693h-1.787v-.618h2.04l.891.99zm6.473-1.57c0 .943-.706 1.138-1.418 1.138h-1.016v1.14H18.25l-1.003-1.125-1.041 1.125H12.98v-3.397h3.274l1.002 1.113 1.036-1.113h2.601c.646 0 1.372.178 1.372 1.119zM9.095 9.922l-.557-1.354-.554 1.354zm12.276-.539c-.111.068-.244.07-.402.07h-.99v-.754h1.003c.142 0 .29.006.386.061.106.05.171.155.171.3 0 .149-.062.268-.168.323zm7.056.54l-.563-1.355-.56 1.354zm-13.152 1.465h-.835l-.003-2.66-1.18 2.66h-.716l-1.183-2.663v2.663H9.702l-.313-.758H7.694l-.316.758h-.885l1.458-3.396h1.21l1.385 3.215V7.992h1.329l1.065 2.303.979-2.303h1.356v3.396zm3.326 0h-2.72V7.992h2.72v.707h-1.905v.612h1.86v.696h-1.86v.678H18.6zm3.835-2.482a.956.956 0 01-.574.905c.179.068.33.187.403.286.115.17.135.32.135.623v.668h-.821l-.003-.429c0-.204.02-.498-.129-.661-.119-.12-.3-.146-.593-.146h-.874v1.236h-.814V7.992h1.872c.416 0 .723.01.986.162.258.152.412.373.412.752zm1.303 2.482h-.83V7.992h.83zm9.638 0h-1.154l-1.543-2.55v2.55h-1.658l-.317-.758h-1.691l-.308.758h-.952c-.396 0-.897-.088-1.181-.376-.286-.288-.435-.679-.435-1.297 0-.503.089-.964.439-1.327.263-.271.675-.396 1.236-.396h.789v.727h-.772c-.297 0-.465.044-.627.201-.138.143-.234.414-.234.77 0 .363.073.626.224.797.126.135.353.175.568.175h.365l1.148-2.67h1.22l1.378 3.212V7.992h1.24l1.431 2.365V7.992h.834zm-26.893.667h1.391l.314-.755h.702l.313.755h2.737v-.577l.244.579h1.421l.244-.588v.586h6.803l-.003-1.239h.131c.092.004.12.012.12.164v1.075h3.517v-.289c.284.152.725.289 1.306.289h1.48l.317-.755h.702l.31.755h2.852v-.717l.432.717h2.286V7.318H31.84v.56l-.317-.56h-2.321v.56l-.29-.56h-3.136c-.525 0-.986.073-1.359.277v-.277h-2.163v.277c-.237-.21-.56-.277-.92-.277h-7.904l-.53 1.224-.545-1.224h-2.49v.56l-.273-.56H7.47L6.484 9.57v2.485z"/></g></g></svg>