<svg height="25" width="42" xmlns="http://www.w3.org/2000/svg"><g fill="none" fill-rule="evenodd"><path d="M0 0h42v25H0z" fill="#fff"/><path d="M.25.25h41.5v24.5H.25z" stroke="#000" stroke-width=".5"/><g fill="#1e130f"><path d="M5.77 21.075h1.67V4.2H5.77zM7.966 21.075h.518V4.2h-.518zM8.935 21.075h.926V4.2h-.926zM10.754 21.075h.517V4.2h-.517zM4.501 21.075h.518V4.2H4.5zM3.36 21.075h.926V4.2H3.36zM14.66 21.075h1.67V4.2h-1.67zM16.856 21.075h.518V4.2h-.518zM17.824 21.075h.927V4.2h-.927zM19.643 21.075h.518V4.2h-.518zM13.39 21.075h.518V4.2h-.517zM12.25 21.075h.926V4.2h-.927zM21.44 21.075h.927V4.2h-.926zM23.26 21.075h.517V4.2h-.518zM25.896 21.075h.518V4.2h-.518zM24.755 21.075h.927V4.2h-.927zM27.101 21.075h.518V4.2H27.1zM29.738 21.075h.518V4.2h-.518zM28.597 21.075h.926V4.2h-.926zM30.707 21.075h1.67V4.2h-1.67zM32.903 21.075h.517V4.2h-.517zM33.87 21.075h.927V4.2h-.926zM35.69 21.075h.517V4.2h-.517zM37.487 21.075h.926V4.2h-.926z"/></g><path d="M7.698 23.1h26.694V12.646H7.698z" fill="#fefefe"/><path d="M10.92 19.444h1.423c.829 0 1.488-.347 1.488-1.129 0-.511-.3-.8-.688-.9v-.023c.311-.117.5-.488.5-.829 0-.735-.618-.952-1.412-.952H10.92zm.864-2.299v-.864h.412c.406 0 .6.112.6.411 0 .277-.183.453-.606.453zm0 1.629v-.988h.488c.477 0 .712.135.712.47 0 .353-.241.518-.712.518zm4.252.74c1.034 0 1.74-.752 1.74-2.004 0-1.247-.706-1.97-1.74-1.97s-1.74.717-1.74 1.97.705 2.005 1.74 2.005zm0-.746c-.524 0-.853-.488-.853-1.258 0-.765.33-1.223.853-1.223s.852.458.852 1.223c0 .77-.33 1.258-.852 1.258zm2.463.676h2.382v-.729h-1.517v-3.104h-.865zm3.046 0h2.458v-.729H22.41v-.882h1.305v-.723H22.41v-.77h1.534v-.73h-2.399zm3.97 0h.87V16.34h1.052v-.73h-2.975v.73h1.052zm4.08.07c1.035 0 1.74-.752 1.74-2.004 0-1.247-.705-1.97-1.74-1.97s-1.74.717-1.74 1.97.705 2.005 1.74 2.005zm0-.746c-.523 0-.853-.488-.853-1.258 0-.765.33-1.223.853-1.223s.852.458.852 1.223c0 .77-.329 1.258-.852 1.258z" fill="#000"/></g></svg>