<svg height="25" width="42" xmlns="http://www.w3.org/2000/svg"><g fill="none" fill-rule="evenodd"><path d="M0 0h42v25H0z" fill="#0069aa"/><path d="M13.02 13.006c0-3.641 2.946-6.593 6.58-6.593 3.633 0 6.579 2.952 6.579 6.593s-2.946 6.593-6.58 6.593c-3.633 0-6.579-2.952-6.579-6.593" fill="#0069aa"/><path d="M23.864 12.697a3.966 3.966 0 00-2.54-3.699v7.397a3.966 3.966 0 002.54-3.698zm-5.371 3.696V9a3.97 3.97 0 00-2.538 3.698 3.968 3.968 0 002.538 3.696zm1.416-9.948c-3.446.001-6.237 2.799-6.238 6.252 0 3.452 2.792 6.25 6.238 6.25 3.446 0 6.238-2.798 6.239-6.25-.001-3.453-2.793-6.25-6.239-6.252zm-.015 13.092c-3.77.018-6.874-3.043-6.874-6.77 0-4.071 3.103-6.888 6.874-6.887h1.767c3.726 0 7.126 2.814 7.126 6.888 0 3.725-3.4 6.769-7.126 6.769z" fill="#fff"/></g></svg>