<svg height="25" width="42" xmlns="http://www.w3.org/2000/svg"><g fill="none" fill-rule="evenodd"><path d="M0 0h42v25H0z" fill="#000"/><path d="M11.619 9.691c.292-.094.605-.146.93-.146 1.42 0 2.606.976 2.877 2.272l2.013-.397c-.462-2.202-2.475-3.86-4.89-3.86-.552 0-1.084.087-1.581.247z" fill="#fff100"/><path d="M9.244 15.996l1.36-1.487a2.792 2.792 0 01-.99-2.126c0-.845.383-1.605.99-2.124L9.243 8.77a4.744 4.744 0 00-1.683 3.612c0 1.439.651 2.73 1.684 3.613" fill="#00a4e0"/><path d="M15.426 12.953c-.273 1.295-1.457 2.268-2.877 2.268a3.02 3.02 0 01-.931-.146l-.652 1.884c.497.16 1.03.248 1.583.248 2.413 0 4.425-1.656 4.89-3.855z" fill="#ee4023"/><g fill="#fefefe"><path d="M24.139 14.284a1.825 1.825 0 01-2.207.227l-.666 1.027c.456.278.994.443 1.574.452a3.088 3.088 0 002.173-.838zM21.105 13.229a1.504 1.504 0 01-.011-.209c.016-.958.83-1.722 1.82-1.706a1.808 1.808 0 011.34.615zm1.828-3.126c-1.68-.025-3.065 1.272-3.09 2.898-.01.609.172 1.179.492 1.652l5.515-2.279c-.31-1.284-1.492-2.25-2.917-2.271zM27.58 8.777v5.683l1.02.409-.482 1.121-1.01-.405a1.134 1.134 0 01-.496-.404 1.238 1.238 0 01-.195-.705v-5.7zM31.258 11.403c.178-.058.369-.089.568-.089.867 0 1.59.595 1.755 1.386l1.23-.242c-.283-1.344-1.512-2.356-2.985-2.356-.338 0-.662.053-.965.151zM29.808 15.251l.83-.907a1.704 1.704 0 01-.604-1.298c0-.516.234-.98.604-1.297l-.83-.907a2.896 2.896 0 00-1.028 2.204c0 .878.398 1.666 1.028 2.205M33.581 13.394c-.166.79-.89 1.384-1.755 1.384-.2 0-.39-.031-.569-.089l-.398 1.15c.304.098.629.151.967.151 1.472 0 2.7-1.01 2.984-2.353z"/></g></g></svg>