<svg height="25" width="42" xmlns="http://www.w3.org/2000/svg"><g fill="none" fill-rule="evenodd"><path d="M0 0h42v25H0z" fill="#951315"/><path d="M28.584 13.928c-.45.442-1.713.568-1.584-.49.108-.877 1.06-1.064 2.092-.937-.077.48-.165 1.09-.508 1.427zm-1.421-3.425c-.043.242-.11.461-.163.693.516-.13 2.12-.527 2.275.163.051.23-.037.473-.102.653-1.45-.138-2.633.104-2.944 1.141-.208.695.023 1.38.467 1.57.855.368 1.894-.053 2.254-.632-.038.2-.073.403-.061.653h.751c.008-.723.113-1.308.224-1.958.094-.553.271-1.101.243-1.59-.064-1.119-1.91-.723-2.944-.693zm7.533 3.772c-.587.012-.88-.353-.893-.959-.023-1.06.44-2.239 1.38-2.344.439-.05.756.053 1.077.163-.295 1.191-.188 3.11-1.564 3.14zm1.95-5.607a19.567 19.567 0 01-.305 1.896c-2.142-.68-3.455.902-3.432 2.854.005.378.07.753.305 1.02.406.46 1.566.57 2.153.183.113-.075.229-.21.304-.305.057-.072.146-.258.163-.204-.031.207-.077.398-.082.632h.792c.153-2.199.625-4.076.975-6.076zm-22.357 5.28c-.467.497-1.616.49-1.706-.346-.039-.364.096-.745.163-1.121.067-.381.116-.747.182-1.081.46-.564 1.813-.632 1.95.306.119.814-.202 1.831-.59 2.243zm.69-3.445c-.739-.279-1.64.054-2.03.37.001.014-.01.016-.02.017l.02-.017v-.003c.006-.136.054-.231.06-.367h-.75a141.844 141.844 0 01-1.077 6.137h.873c.127-.784.21-1.61.386-2.345.2.772 1.502.625 2.051.326 1.134-.615 2.008-3.545.487-4.118zm4.143 1.468H17.07c.065-.474.489-.994 1.157-1.02.63-.024 1.08.232.894 1.02zm-.833-1.55c-.63.05-1.164.231-1.543.632-.465.492-.841 1.58-.731 2.57.157 1.412 1.909 1.361 3.31 1.019.024-.248.083-.46.122-.693-.577.216-1.58.519-2.173.142-.448-.284-.45-1.005-.305-1.63.942-.03 1.92-.025 2.863 0 .06-.445.231-.928.082-1.367-.198-.578-.905-.728-1.625-.673zm-7.675.082c-.024.003-.023.032-.02.061a60.366 60.366 0 01-.732 4.18h.873c.21-1.455.45-2.878.752-4.241zm22.783.02c-.772-.387-1.414.263-1.665.653.071-.2.075-.468.142-.673h-.772a63.188 63.188 0 01-.751 4.24h.893c.006-.561.116-.977.203-1.528.187-1.177.461-2.468 1.828-2.08.045-.2.064-.425.122-.612zm-9.808 3.222c-.08-.21-.101-.554-.081-.816.045-.59.259-1.306.589-1.631.455-.448 1.354-.374 2.071-.122.022-.243.07-.46.102-.693-1.176-.193-2.292-.073-2.884.55-.58.61-.959 2.013-.69 2.895.314 1.033 1.722 1.089 2.863.693.05-.207.077-.439.122-.652-.624.325-1.815.494-2.092-.224zm-.487-3.242c-.774-.314-1.383.216-1.665.713.064-.22.09-.48.142-.713h-.772c-.188 1.469-.467 2.848-.73 4.24h.872c.123-.826.176-1.94.447-2.731.217-.632.785-1.17 1.604-.877.012-.233.078-.411.102-.632zM9.03 8.79c-.125.813-.266 1.61-.406 2.406-.905.01-1.829.045-2.701-.02.165-.78.283-1.605.447-2.386h-.975c-.35 1.988-.666 4.007-1.056 5.954h.995c.156-.999.302-2.008.508-2.957.848-.02 1.865-.057 2.68.02-.168.987-.371 1.939-.528 2.937h.995c.32-2.017.657-4.017 1.056-5.954zm2.477.897c.174-.12.398-.668.142-.897-.081-.072-.217-.093-.406-.06-.176.029-.277.089-.345.183-.11.15-.212.605-.04.774.166.165.538.077.649 0z" fill="#fefefe"/></g></svg>