<svg height="25" width="42" xmlns="http://www.w3.org/2000/svg"><g fill="none" fill-rule="evenodd"><path d="M0 0h42v25H0z" fill="#006"/><path d="M23.574 12.804A8.196 8.196 0 0115.378 21a8.196 8.196 0 110-16.393 8.196 8.196 0 018.196 8.197" fill="#c00"/><path d="M26.382 4.607a8.167 8.167 0 00-6.33 2.99h1.656c.226.275.435.565.625.868h-2.906a8.235 8.235 0 00-.472.868h3.85c.131.28.247.57.347.868h-4.544a8.16 8.16 0 00-.238.867h5.02a8.256 8.256 0 01-.238 4.34h-4.544c.1.297.215.587.347.868h3.85c-.14.3-.298.589-.473.868h-2.905c.19.302.398.592.625.867h1.656c-.255.31-.532.6-.828.868a8.196 8.196 0 0013.698-6.075 8.197 8.197 0 00-8.196-8.197" fill="#f90"/><g fill="#006"><path d="M13.464 13.701a1.53 1.53 0 00-.199-.014c-.504 0-.76.173-.76.515 0 .21.125.344.32.344.362 0 .623-.345.639-.845zm.647 1.507h-.737l.017-.35c-.225.276-.525.408-.933.408-.482 0-.813-.376-.813-.923 0-.824.575-1.304 1.562-1.304.101 0 .23.01.363.026a.835.835 0 00.035-.219c0-.224-.155-.308-.57-.308a2.967 2.967 0 00-.943.153l.124-.76c.443-.131.735-.18 1.065-.18.764 0 1.169.343 1.168.992.001.174-.028.387-.072.67-.078.49-.243 1.54-.266 1.795zM11.273 15.208h-.89l.51-3.196-1.139 3.196h-.606l-.075-3.178-.536 3.178h-.832L8.4 11.05h1.28l.077 2.327.78-2.327h1.424zM27.481 13.701a1.523 1.523 0 00-.198-.014c-.504 0-.76.173-.76.515 0 .21.125.344.32.344.362 0 .623-.345.638-.845zm.648 1.507h-.737l.016-.35c-.224.276-.524.408-.932.408-.483 0-.813-.376-.813-.923 0-.824.575-1.304 1.562-1.304.101 0 .23.01.363.026a.83.83 0 00.035-.219c0-.224-.155-.308-.571-.308a2.973 2.973 0 00-.942.153l.124-.76c.443-.131.736-.18 1.064-.18.765 0 1.17.343 1.168.992.002.174-.027.387-.072.67-.077.49-.243 1.54-.265 1.795zM18.066 15.156c-.244.077-.434.11-.64.11-.455 0-.703-.261-.703-.743-.006-.15.066-.542.122-.9.052-.317.386-2.308.386-2.308h.884l-.103.512h.534l-.12.812h-.536c-.103.643-.25 1.444-.251 1.55 0 .175.093.25.305.25.101 0 .18-.01.24-.03zM20.777 15.129a3.008 3.008 0 01-.907.137c-.99-.001-1.506-.518-1.506-1.508 0-1.156.656-2.007 1.548-2.007.729 0 1.195.477 1.195 1.223 0 .249-.032.49-.11.832h-1.76c-.06.49.253.695.768.695.316 0 .602-.065.92-.213zm-.497-2.004c.005-.07.094-.604-.412-.604-.281 0-.483.215-.564.604zM14.645 12.896c0 .427.207.722.677.944.36.17.416.22.416.373 0 .21-.159.306-.51.306a2.5 2.5 0 01-.798-.134l-.122.781c.202.044.382.085.926.1.939 0 1.372-.357 1.372-1.13 0-.464-.181-.737-.627-.942-.373-.171-.416-.21-.416-.367 0-.183.148-.277.436-.277.174 0 .413.019.64.051l.126-.784a6.008 6.008 0 00-.784-.066c-.995 0-1.34.52-1.336 1.145M25.105 11.84c.247 0 .478.065.795.225l.146-.902c-.13-.052-.59-.352-.978-.352-.595 0-1.1.296-1.453.783-.517-.171-.73.174-.99.519l-.23.054c.017-.114.033-.226.028-.34h-.818c-.111 1.046-.309 2.106-.464 3.153l-.04.228h.89c.149-.966.23-1.584.28-2.002l.335-.186c.05-.187.206-.25.52-.242-.04.22-.063.453-.063.693 0 1.106.598 1.795 1.556 1.795.246 0 .458-.032.786-.122l.156-.947c-.295.145-.536.213-.755.213-.518 0-.83-.382-.83-1.013 0-.915.464-1.557 1.129-1.557M32.639 11.05l-.198 1.201c-.243-.32-.504-.551-.85-.551-.448 0-.857.34-1.125.841-.372-.077-.757-.209-.757-.209v.004c.029-.28.042-.451.039-.51h-.818c-.11 1.047-.309 2.107-.464 3.154l-.04.228h.89c.12-.78.212-1.43.28-1.943.304-.275.456-.514.763-.499-.136.33-.215.709-.215 1.097 0 .845.427 1.403 1.074 1.403.326 0 .577-.112.82-.373l-.041.315h.841l.678-4.158zm-1.113 3.377c-.303 0-.456-.225-.456-.667 0-.664.286-1.136.69-1.136.306 0 .471.233.471.663 0 .67-.291 1.14-.705 1.14z"/></g><g fill="#fff"><path d="M11.529 14.961h-.89l.51-3.196-1.138 3.196h-.607l-.075-3.177-.536 3.177h-.832l.695-4.157h1.28l.036 2.573.863-2.573h1.382zM13.72 13.455a1.48 1.48 0 00-.199-.014c-.504 0-.76.173-.76.515 0 .21.125.344.32.344.362 0 .624-.345.639-.845zm.647 1.506h-.737l.017-.35c-.225.276-.525.409-.933.409-.482 0-.813-.377-.813-.924 0-.824.575-1.303 1.563-1.303.1 0 .23.01.362.026a.839.839 0 00.035-.22c0-.223-.155-.307-.57-.307a2.956 2.956 0 00-.943.152l.124-.76c.443-.13.736-.18 1.065-.18.764 0 1.169.344 1.168.992.001.174-.027.389-.072.67-.077.49-.243 1.54-.266 1.795zM26.302 10.916l-.146.902c-.318-.16-.548-.224-.795-.224-.664 0-1.13.642-1.13 1.558 0 .63.313 1.012.83 1.012.22 0 .462-.068.756-.214l-.156.948c-.328.09-.54.122-.786.122-.959 0-1.555-.69-1.555-1.795 0-1.486.825-2.525 2.004-2.525.389 0 .847.165.978.216M27.737 13.455a1.468 1.468 0 00-.198-.014c-.504 0-.76.173-.76.515 0 .21.125.344.32.344.362 0 .623-.345.638-.845zm.648 1.506h-.737l.017-.35c-.225.276-.525.409-.933.409-.482 0-.813-.377-.813-.924 0-.824.575-1.303 1.562-1.303.101 0 .23.01.363.026a.835.835 0 00.034-.22c0-.223-.154-.307-.57-.307a2.958 2.958 0 00-.942.152l.124-.76c.443-.13.735-.18 1.064-.18.764 0 1.17.344 1.168.992.002.174-.027.389-.071.67-.077.49-.243 1.54-.266 1.795zM18.322 14.91c-.244.076-.434.11-.64.11-.454 0-.703-.262-.703-.743-.006-.15.066-.542.122-.901l.386-2.307h.885l-.104.511h.454l-.12.813h-.456c-.103.643-.25 1.444-.251 1.55 0 .175.093.25.305.25.101 0 .18-.01.24-.032zM21.034 14.883a3.03 3.03 0 01-.908.137c-.99 0-1.506-.518-1.506-1.509 0-1.156.656-2.007 1.547-2.007.73 0 1.196.477 1.196 1.225 0 .247-.033.49-.11.83h-1.76c-.06.491.254.696.768.696.317 0 .602-.066.92-.213zm-.497-2.005c.004-.07.093-.604-.412-.604-.282 0-.483.216-.565.604zM14.9 12.649c0 .428.208.722.679.944.36.17.416.22.416.373 0 .211-.16.306-.512.306-.265 0-.512-.041-.797-.133l-.122.78c.202.045.383.085.926.1.939 0 1.373-.357 1.373-1.13 0-.464-.182-.737-.628-.941-.373-.172-.416-.21-.416-.368 0-.183.148-.277.436-.277.174 0 .413.02.64.052l.126-.784a6.057 6.057 0 00-.783-.067c-.996 0-1.34.52-1.337 1.145M33.095 14.961h-.842l.042-.315c-.245.261-.495.374-.82.374-.647 0-1.075-.558-1.075-1.403 0-1.125.663-2.073 1.448-2.073.345 0 .606.141.85.461l.197-1.201h.877zm-1.313-.781c.414 0 .705-.47.705-1.14 0-.429-.165-.662-.471-.662-.404 0-.69.47-.69 1.136 0 .442.153.666.456.666zM29.186 11.58c-.11 1.047-.309 2.106-.464 3.154l-.04.227h.89c.318-2.067.395-2.471.894-2.42.08-.424.228-.794.338-.981-.373-.078-.58.133-.854.533.022-.173.061-.341.054-.513zM21.862 11.58c-.112 1.047-.31 2.106-.465 3.154l-.04.227h.89c.319-2.067.395-2.471.894-2.42a3.34 3.34 0 01.338-.981c-.372-.078-.581.133-.853.533.021-.173.06-.341.053-.513z"/></g></g></svg>