<svg height="25" width="42" xmlns="http://www.w3.org/2000/svg"><g fill="none" fill-rule="evenodd"><rect fill="#5a2d82" height="25" rx="2" width="42"/><g fill="#fff"><path d="M20.726 9.316c-1.526 0-2.565 1.07-2.829 2.564a3.54 3.54 0 00-.056.614c0 1.166.673 1.952 1.98 1.952.623 0 1.156-.134 1.58-.345l-.063-.69a3.219 3.219 0 01-1.17.247c-.07 0-.139-.003-.207-.01-.702-.042-1.067-.528-1.067-1.279 0-.152.015-.316.045-.489.18-1.023.786-1.733 1.645-1.768.223-.011.401.012.546.059.17.056.235.2.215.411l-.001.08.694-.178.014-.076c.015-.089.022-.171.022-.248 0-.336-.139-.56-.4-.68-.247-.11-.568-.164-.948-.164zm5.58 5.031l-.763-4.937h-1.22l-2.502 4.937h1.06l.558-1.15h1.656l.152 1.15zm-2.627-1.852l1.085-2.211.306 2.211zM27.78 9.41l-.87 4.937h.988l.343-1.945h.639l.488 1.195c.162.409.394.634.704.72.124.035.19.047.5.047l.314-.003.24-.678a1.208 1.208 0 01-.3-.043c-.273-.08-.451-.256-.593-.602l-.374-.829.244-.02c.57-.178 1.024-.637 1.135-1.263.019-.108.028-.21.028-.305 0-.82-.655-1.21-1.307-1.21zm.864.703h.933c.37 0 .649.207.649.618 0 .058-.006.12-.018.187-.093.528-.489.781-.907.781h-.937zm3.875-.703l-.87 4.937h1.718c1.526 0 2.548-.976 2.812-2.47.037-.211.056-.411.056-.6 0-1.15-.686-1.866-1.997-1.866zm.907.703h.691c.729 0 1.072.504 1.072 1.247 0 .162-.016.335-.048.516-.18 1.017-.76 1.768-1.646 1.768h-.692zM33.327 16.981c-.132-.083-.406-.247-.248-.632.09-.216.237-.317.614-.317h.947c.047 0 .065.028.052.075l-.018.06c-.061.192-.114.27-.346.27h-.711c-.063 0-.103.029-.103.079 0 .039.026.06.079.093l.527.333c.182.115.393.273.248.632-.103.252-.258.315-.575.315h-1.038c-.053 0-.066-.029-.05-.083l.016-.052c.06-.2.123-.27.345-.27h.764c.064 0 .103-.027.103-.076 0-.04-.026-.06-.079-.094zm-13.059-.497c-.002-.03-.01-.047-.044-.047-.032 0-.045.014-.053.047l-.303 1.135c-.053.2-.124.27-.345.27h-.127c-.053 0-.066-.029-.05-.083l.385-1.395c.073-.27.2-.395.57-.395.252 0 .368.062.39.39l.065 1.03c.003.032.008.047.042.047.032 0 .045-.013.053-.047l.295-1.134c.053-.2.121-.27.343-.27h.13c.052 0 .065.028.049.083l-.38 1.394c-.073.27-.197.396-.563.396-.259 0-.38-.063-.399-.39zm5.457.497c-.132-.083-.406-.247-.248-.632.09-.216.237-.317.614-.317h.946c.048 0 .066.028.053.075l-.018.06c-.06.192-.114.27-.346.27h-.711c-.063 0-.103.029-.103.079 0 .039.026.06.079.093l.527.333c.182.115.393.273.248.632-.103.252-.259.315-.575.315h-1.038c-.053 0-.066-.029-.05-.083l.015-.052c.061-.2.124-.27.346-.27h.764c.063 0 .103-.027.103-.076 0-.04-.026-.06-.08-.094zm-.382-.95c.052 0 .065.032.05.084l-.016.052c-.06.2-.124.27-.345.27h-.069c-.266 0-.324.094-.395.357l-.224.825c-.056.202-.124.27-.346.27h-.158c-.053 0-.066-.029-.05-.083l.35-1.285c.017-.055.003-.084-.05-.084h-.537c-.053 0-.066-.028-.05-.083l.016-.052c.06-.2.12-.27.342-.27zm3.374 1.588c-.056.2-.124.27-.346.27h-.158c-.053 0-.066-.029-.05-.083l.163-.601c.016-.055.003-.083-.05-.083h-.395c-.266 0-.33.093-.398.356l-.037.14c-.053.203-.124.271-.345.271h-.158c-.053 0-.066-.029-.05-.083l.41-1.504c.056-.2.122-.27.343-.27h.159c.052 0 .065.028.05.083l-.145.53c-.016.055-.003.084.05.084h.398c.266 0 .327-.094.395-.357l.018-.07c.053-.203.124-.27.346-.27h.158c.053 0 .066.028.05.083zm4.161-1.587c.054 0 .067.028.05.083l-.01.039c-.055.203-.121.27-.343.27h-.542c-.174 0-.225.055-.267.211l-.008.029c-.016.054-.002.083.05.083h.75c.052 0 .065.029.05.083l-.011.04c-.056.202-.122.27-.343.27h-.42c-.173 0-.229.055-.268.21l-.016.063c-.013.055-.003.083.05.083h.968c.052 0 .065.029.05.083l-.01.04c-.056.202-.122.27-.344.27h-1.24c-.054 0-.067-.029-.051-.083l.343-1.265c.102-.377.255-.51.648-.51zm-9.51 0c.053 0 .066.028.05.083l-.01.039c-.056.203-.122.27-.343.27h-.543c-.174 0-.224.055-.266.211l-.008.029c-.016.054-.003.083.05.083h.748c.053 0 .066.029.05.083l-.01.04c-.055.202-.121.27-.342.27h-.42c-.174 0-.229.055-.268.21l-.016.063c-.014.055-.003.083.05.083h.967c.053 0 .066.029.05.083l-.01.04c-.056.202-.121.27-.343.27h-1.242c-.052 0-.065-.029-.05-.083l.343-1.265c.103-.377.256-.51.649-.51zm7.112.92c.105-.374.113-.554-.33-.554-.303 0-.397.084-.532.562-.105.375-.116.554.322.554.321 0 .408-.096.54-.561zm-1.363-.03c.195-.77.564-.93 1.091-.93.85 0 .926.412.775 1-.184.72-.503.928-1.104.928-.78 0-.925-.35-.762-.999zM16.613 15.993v.241l.02.002c.05.008.074.037.074.088v1c.13.072.3.121.476.123.306 0 .572-.141.572-.512 0-.338-.17-.521-.41-.521a.353.353 0 00-.26.097v-.362c0-.102-.055-.156-.157-.156zm.615.757c.1 0 .145.078.145.186 0 .109-.046.183-.145.183a.478.478 0 01-.143-.018v-.332a.465.465 0 01.143-.019zm1.664-.312h-.381l-.15.526-.148-.526h-.381l.37.993h.016l-.011.03c-.03.075-.086.112-.158.112a.438.438 0 01-.166-.042l-.04.237c.06.035.146.058.238.058a.464.464 0 00.458-.336zM10.07 10.699c0-.084-.029-.126-.12-.126-.078 0-.106.035-.134.126l-.803 2.853c-.169.603-.365.82-1.034.82h-.478c-.155 0-.197-.084-.148-.252L8.4 10.524c.247-.848.584-1.248 1.774-1.248.83 0 1.21.196 1.231 1.234l.05 2.552c0 .084.027.126.119.126.077 0 .105-.035.134-.126l.802-2.854c.169-.603.366-.82 1.035-.82h.478c.155 0 .197.084.148.252l-1.049 3.597c-.246.848-.576 1.248-1.759 1.248-.845 0-1.224-.197-1.246-1.234zM8.415 8c-1 0-1.52.47-1.795 1.444l-1.583 5.58c-.127.456.07.75.541.75h7.53c1 0 1.52-.469 1.795-1.444l1.583-5.58c.127-.456-.07-.75-.542-.75z"/></g></g></svg>