<svg width="42" height="25" fill="none" xmlns="http://www.w3.org/2000/svg"><path fill="white" stroke="#32BCAD" stroke-width=".5" d="M.25.25h41.5v24.5H.25z"/><path d="M26.064 16.798a2.61 2.61 0 01-1.857-.769l-2.682-2.681a.51.51 0 00-.704 0l-2.692 2.691a2.61 2.61 0 01-1.857.77h-.528l3.396 3.395a2.716 2.716 0 003.841 0l3.406-3.406h-.323zM16.272 7.313a2.61 2.61 0 011.857.769l2.692 2.692c.194.194.51.194.704 0l2.682-2.682a2.61 2.61 0 011.857-.77h.323l-3.406-3.405a2.716 2.716 0 00-3.841 0l-3.396 3.396h.528z" fill="#32BCAD"/><path d="M29.204 10.14l-2.058-2.058a.392.392 0 01-.146.03h-.936a1.85 1.85 0 00-1.3.537l-2.68 2.682a1.284 1.284 0 01-1.82 0L17.57 8.64a1.85 1.85 0 00-1.299-.539h-1.15a.39.39 0 01-.139-.028l-2.066 2.067a2.716 2.716 0 000 3.841l2.066 2.066a.391.391 0 01.138-.027h1.151a1.85 1.85 0 001.3-.539l2.69-2.691c.487-.486 1.335-.486 1.821 0l2.682 2.682a1.85 1.85 0 001.3.538H27c.052 0 .1.011.146.03l2.058-2.059a2.716 2.716 0 000-3.841" fill="#32BCAD"/></svg>