<svg width="42" height="25" data-name="Camada 1" xmlns="http://www.w3.org/2000/svg"><defs><linearGradient id="a" y1="12.24" x2="42" y2="12.24" gradientUnits="userSpaceOnUse"><stop offset="0" stop-color="#262956"/><stop offset="1" stop-color="#223b85"/></linearGradient></defs><path d="M16 5.7l-5.5 13.11H6.86L4.15 8.34a1.42 1.42 0 00-.8-1.15A14 14 0 000 6.08l.08-.38h5.78A1.58 1.58 0 017.42 7l1.43 7.59 3.53-8.89zm14 8.83c0-3.46-4.78-3.65-4.75-5.2 0-.47.46-1 1.44-1.1a6.44 6.44 0 013.31.59L30.63 6a9.06 9.06 0 00-3.17-.58c-3.36 0-5.72 1.78-5.74 4.33 0 1.89 1.69 2.94 3 3.57s1.77 1.06 1.76 1.63c0 .88-1.05 1.27-2 1.29a7.08 7.08 0 01-3.48-.83l-.62 2.87a10.23 10.23 0 003.77.7c3.57 0 5.9-1.76 5.91-4.49m8.86 4.28H42L39.26 5.7h-2.9a1.52 1.52 0 00-1.44 1l-5.09 12.11h3.56l.71-1.95h4.35zm-3.79-4.64l1.79-4.93 1 4.93zM20.8 5.7L18 18.81h-3.4L17.4 5.7z" fill="url(#a)"/></svg>