<svg id="Layer_1" data-name="Layer 1" xmlns="http://www.w3.org/2000/svg" width="64" height="64" viewBox="0 0 64 64"><defs><style>.cls-1{fill:#fff;}</style></defs><title>atronaut</title><g id="atronaut"><path class="cls-1" d="M33.7,18.3a8.74,8.74,0,0,0,9.71,1.42C47,18,47.28,13.47,47.32,12.93s-1.46-1-5.17-2.29a32,32,0,0,1-6.71-3.42c-.21-.12-1.54.88-2.67,3.29S31.28,16.13,33.7,18.3ZM34.36,13c.29-1.62,1.21-3.25,1.58-3.17s2.79,1.38,5.38,2.5,4,1.33,3.92,1.83a7,7,0,0,1-2.58,3.71c-1.58,1-3.54,1.25-6-.25S34.07,14.59,34.36,13Zm6.5,2.58c.5.21.38-.17.67-.46S40.61,13.3,40.11,13c0,0-.83.21-.92.46A5.07,5.07,0,0,0,40.86,15.55Zm-2,1.83c.13.08.71-.25.92-.54s-1.92-3-2-3c-.33.17-.71.17-.87.46S38.74,17.3,38.86,17.38ZM27.07,23.13c-.46.29-3.83,7.79-3.58,8.54s8,4.58,9,4.25,3.88-7.17,4-7.87S27.39,22.93,27.07,23.13Zm4.88,11.42c-.12,0-6.92-3.21-7-3.58s2.25-6.17,2.58-6.29S35.2,28,35.11,28.38,32.07,34.55,31.95,34.55ZM31,28c-.17.35-.77,1.12.45,2s2.93-1,1.85-2S31.36,27.41,31,28ZM30,31.14c-.14.29-.64.93.38,1.65s2.43-.87,1.54-1.62S30.26,30.62,30,31.14Zm4.41,5.2A2.22,2.22,0,0,0,35,37.51c.21.17.33-.17.54-.5s-.5-1.37-.5-1.37S34.45,36.09,34.4,36.34Zm-2.46,1.17a6.7,6.7,0,0,0,1.5,2.21c.21,0,.21-.08.46-.5s-.83-2.17-1-2.29C32.9,36.93,32,37.3,31.95,37.51Zm-.62.63a2.68,2.68,0,0,0-.83.54c-.17.25,2,2.92,2,2.92a2.37,2.37,0,0,0,.5-.75C33.15,40.47,31.57,38.22,31.32,38.13ZM29.07,40c-.21.29,2,3,2.42,3.08s.25,0,.42-.46-2-3.33-2-3.33A4.52,4.52,0,0,0,29.07,40Zm-.87,8c-.5-.08-.57-.46-1-.46a1.14,1.14,0,0,0-.33.71c0,.17.46.21.79.25a2.48,2.48,0,0,1,.88.46c.21.13.25-.29.33-.54S28.7,48.05,28.2,48Zm-1.46,1.92c-.54-.17-.66-.62-1-.62a.79.79,0,0,0-.42.83c.13.38.38.21.79.29s.83.46,1.17.54.21-.21.29-.58S27.28,50.05,26.74,49.88Zm-9.54-7c-.54-.21-.37-.5-.58-.5a1.61,1.61,0,0,0-.54.71c0,.17.08.21.5.38a4,4,0,0,0,1,.38c.25,0,.33-.25.42-.46S17.74,43.13,17.2,42.93Zm-1.92,1.54c-.67-.21-1-1.35-1.25-1.08s-.62.54-.67.79.13.13.54.21.75.63,1.21,1a1.28,1.28,0,0,0,1.12.29c.29-.08.17-.5.13-.71S15.95,44.68,15.28,44.47ZM57.11,33.63c-1-1.17-5.79-2.08-8.62-3.42a13.32,13.32,0,0,1-4.08-2.75,14.36,14.36,0,0,0,1.29-2.83c0-.62-3.37-1.62-3.37-1.62s1-.08,3.17-1.75,4.21-4.5,4.25-6.54.92-7.08-4.08-10-9.58-3.29-14,1a10,10,0,0,0-2.54,9.88s-2.75-1.54-3.17-1.75-.54.33-.54.33a2.7,2.7,0,0,0-1-.75c-.5-.12-.79.67-.79.67a3.72,3.72,0,0,0-1.17-.58c-.33,0-1,1-1,1a2.84,2.84,0,0,1-.79-.54c-.25-.29,3.54-8.25,3.67-8.54s-.75-.71-1.33-.33S19.11,14,19.32,14.55s1.67.92,1.67.92a11.38,11.38,0,0,1-.25,1.29c-.08.17-.21.13-1.5-.37S17.7,15,16.57,13.88s-3.64-4.12-4.46-4.21a6.68,6.68,0,0,0-3.25.5,5.72,5.72,0,0,0-3,2.75c-.37,1.08.67,1.88,1.92,3.92a78.23,78.23,0,0,0,4.63,7c.58.5,2.63.33,3.58.33a13.7,13.7,0,0,1,3.67,1.13c.29.17,0,1.33-1.71,4.33s-4.12,7.67-4.83,8.58A18.59,18.59,0,0,0,11,42.09c-.58,1.42-3.83,6.63-4.13,7.33a3.33,3.33,0,0,0,0,2.29c.25.75,2.13,2.71,4.46,3.67s4.67.71,5.67-1,5.21-11.17,5.46-11.71,2-.33,2.25,0-.21,1-1.12,3.29-4.67,9.46-5.08,10.63.83,2,1.54,2.5,5.13,2.42,6,2.33,1.88-1.83,2.92-3.25S32.11,51.3,32.57,50a77.43,77.43,0,0,1,3.67-7.62,39.93,39.93,0,0,1,4-6.54c.54-.46,1,1,1.75,1.33a17.8,17.8,0,0,0,3.13,1.08c1.71.5,2.79,1.71,6,3.08s5.13,1.08,6.42-1.5A5.62,5.62,0,0,0,57.11,33.63ZM44.24,24.93c-.08.38,0,1.29-.42,1.13s-1.29-2-1.37-2S44.32,24.55,44.24,24.93ZM32,9.13a7.83,7.83,0,0,1,5.63-4.29c2.85-.55,5.92.79,8.29,2.5s2.79,5.5,1.83,8.29S44.2,21.13,41,21.38s-6-.29-8.33-2.71S30.95,11.13,32,9.13Zm-5.87,6.33c.26-.21,2.92,1.17,3.17,1.46s.63.83.42.88-2.12.08-2.83.13-1.46,0-1.42-.17A11.09,11.09,0,0,1,26.11,15.47Zm-1.71-.71s.71.17.63.33-.5,2.42-.71,2.38-.5,0-.54-.17S24.4,14.76,24.4,14.76ZM21.7,17a17.6,17.6,0,0,1,.79-2.12c.3,0,.46,0,.38.46s-.37,2-.54,1.92S21.61,17.13,21.7,17Zm-11.12.71c-.25-.29-2.5-3.79-2.42-4.37s1.08-1.92,3.38-1.54a2.78,2.78,0,0,1,1.38,1c.46.58,1.71,2,1.33,2.25s-2.08,1.29-2.71,1.79S10.82,18,10.57,17.68Zm4.17,35.88c-.71.46-1.37.5-3.21-.46s-2.67-1.58-2.58-2.54,2-4,2.33-4.33,1.08-.25,1.25.21.21,2.13,1.08,2.38,1.17-.58,1.71-.17.67.92,1,1,.75.13.71.29S15.45,53.09,14.74,53.55Zm3.54-5.79c-.29.63-.67,1.29-.67,1.29s-.12.25-.5-.25S16,47.43,15.65,47.43s-.92.5-1.37.17-1.17-2.08-1.67-2.21-.87.13-.87-.17a52.46,52.46,0,0,1,2.67-5.29c.14-.16,1.38.75,1.92,1.13a2.41,2.41,0,0,0,1.21.63,2.35,2.35,0,0,1,1.21.63c.38.29,1.46.71,1.33.92S18.57,47.13,18.28,47.76Zm7.46,11.46A36.14,36.14,0,0,1,22.24,58c-1-.42-1.37-.92-1.29-1.29A44.87,44.87,0,0,1,23,51.63c.27-.27.25.75,1,.79s1.08-.17,1.63,0,.67.92,1.54,1.08,1.63.33,1.58.5S26.07,59.26,25.74,59.22Zm3.58-6.62a5.06,5.06,0,0,1-2.25-.46c-.42-.33-.79-1.17-1.37-1.08a4.5,4.5,0,0,1-1.5,0c-.42-.08-.75-.12-.62-.54s2.29-4.79,2.67-4.87a6.76,6.76,0,0,1,2.13.79c.88.46,1,1,1.71,1.33s1.08.21,1.08.54S29.65,52.55,29.32,52.59Zm19-15.21c-.42-.08-3.79-1.46-4.25-1.67s-.79-.08-1.33-.75-1.5-2.54-2.17-2.58A1.41,1.41,0,0,0,39.2,33c-.21.38-2.79,4.08-3.58,5.54s-2.67,6.25-3.17,7-.71,1.71-.92,1.58a32.86,32.86,0,0,0-3-1.87c-.37-.08-2.17-.54-2.08-.75s1.33-2.42.54-3a17.7,17.7,0,0,0-4.42-1.37C22.07,40,20.7,42.3,20.7,42.3a33,33,0,0,0-3.17-2.17c-1-.54-2.71-.87-2.62-1.17s4.33-8,5.42-9.83,2.42-4.29,1.46-4.79a27.54,27.54,0,0,0-5.37-1.58,5.17,5.17,0,0,1-2.25-.17c-.46-.29-3-3.5-2.79-4.08A11.1,11.1,0,0,1,14.82,16c.23,0,1.71,1.92,4.25,2.63a28.51,28.51,0,0,0,6.71,1.42c2,0,4.67-.21,5-.08s0,1.38,3.5,2.54a21.47,21.47,0,0,0,5.5,1c.17.17,2.17,4.71,3.38,5.92s7,3.42,6.79,3.79-1.17,3-1.29,3.46S48.74,37.47,48.32,37.38Zm7.17,1.54c-.54,1-.79,1.08-1.42,1.08a16.89,16.89,0,0,1-4.21-1.83c-.25-.29,1-4.29,1.38-4.46.17-.08,3.92,1,4.5,1.75S56,38,55.49,38.93Z"/></g></svg>