<svg width="140" height="77" viewBox="0 0 140 77" fill="none" xmlns="http://www.w3.org/2000/svg">
<g filter="url(#filter0_d_51_396)">
<path d="M138.068 1.70457C138.068 19.6011 138.068 20.1171 138.068 39.8864C138.068 59.6557 138.068 54.2034 138.068 73.2955C118.299 73.2955 102.273 57.2693 102.273 37.5C102.273 17.7307 118.299 1.70457 138.068 1.70457Z" fill="#DCE896"/>
</g>
<g filter="url(#filter1_d_51_396)">
<path d="M17.5637 36.0159C16.9637 36.0159 16.391 35.9409 15.8456 35.7909C15.3001 35.6545 14.7956 35.4773 14.3319 35.2591V32.2318C14.7956 32.5455 15.2183 32.8114 15.6001 33.0295C15.9819 33.2477 16.3706 33.3568 16.766 33.3568C17.3387 33.3568 17.7956 33.2068 18.1365 32.9068C18.4774 32.6068 18.6478 32.1227 18.6478 31.4545V22.1068H21.9615V31.5977C21.9615 32.4568 21.8319 33.1727 21.5728 33.7455C21.3137 34.3045 20.9728 34.7545 20.5501 35.0955C20.141 35.4227 19.6706 35.6545 19.1387 35.7909C18.6206 35.9409 18.0956 36.0159 17.5637 36.0159ZM24.8566 35.75V22.1068H34.2043V24.6636H28.1702V27.6295H33.4066V30.2068H28.1702V33.1932H34.2043V35.75H24.8566ZM36.9815 35.75V22.1068H42.7701C43.7656 22.1068 44.6247 22.2364 45.3474 22.4955C46.0838 22.7409 46.6565 23.1432 47.0656 23.7023C47.4747 24.2477 47.6792 24.9773 47.6792 25.8909C47.6792 26.5045 47.5292 27.0091 47.2292 27.4045C46.9292 27.8 46.5679 28.1205 46.1451 28.3659C45.7224 28.5977 45.327 28.7818 44.9588 28.9182L44.5906 28.2023C45.3406 28.2295 45.9951 28.3864 46.5542 28.6727C47.127 28.9455 47.5701 29.3341 47.8838 29.8386C48.2111 30.3295 48.3747 30.9227 48.3747 31.6182C48.3747 32.5727 48.1429 33.3568 47.6792 33.9705C47.2292 34.5705 46.6224 35.0205 45.8588 35.3205C45.0951 35.6068 44.2497 35.75 43.3224 35.75H36.9815ZM40.2951 33.1932H43.077C43.4179 33.1932 43.7315 33.1455 44.0179 33.05C44.3042 32.9409 44.5361 32.7636 44.7133 32.5182C44.8906 32.2591 44.9792 31.9182 44.9792 31.4955C44.9792 31.1818 44.9247 30.9227 44.8156 30.7182C44.7065 30.5136 44.5565 30.3568 44.3656 30.2477C44.1883 30.125 43.9838 30.0364 43.752 29.9818C43.5201 29.9273 43.2747 29.9 43.0156 29.9H40.2951V33.1932ZM40.2951 27.4659H42.9542C43.1861 27.4659 43.4042 27.425 43.6088 27.3432C43.8133 27.2477 43.977 27.1045 44.0997 26.9136C44.2361 26.7227 44.3042 26.4705 44.3042 26.1568C44.3042 25.5977 44.1542 25.2159 43.8542 25.0114C43.5542 24.7932 43.1861 24.6841 42.7497 24.6841H40.2951V27.4659ZM50.2135 25.9318L51.7272 21.9227H54.2226L52.3408 25.9318H50.2135ZM61.1589 36.0364C60.4635 36.0364 59.8362 36.0023 59.2771 35.9341C58.718 35.8659 58.1998 35.7636 57.7226 35.6273C57.2453 35.4909 56.7817 35.3136 56.3317 35.0955V31.9455C56.9589 32.45 57.668 32.8318 58.4589 33.0909C59.2498 33.35 59.9998 33.4795 60.7089 33.4795C61.3362 33.4795 61.8135 33.3636 62.1408 33.1318C62.4817 32.8864 62.6521 32.5182 62.6521 32.0273C62.6521 31.6591 62.4953 31.3659 62.1817 31.1477C61.8817 30.9159 61.4794 30.7182 60.9748 30.5545C60.4703 30.3773 59.9044 30.1795 59.2771 29.9614C58.8817 29.8386 58.493 29.6818 58.1112 29.4909C57.7294 29.3 57.3885 29.0614 57.0885 28.775C56.7885 28.475 56.5498 28.1136 56.3726 27.6909C56.1953 27.2682 56.1067 26.75 56.1067 26.1364C56.1067 25.5773 56.2089 25.0386 56.4135 24.5205C56.618 24.0023 56.9317 23.5386 57.3544 23.1295C57.7908 22.7205 58.343 22.4 59.0112 22.1682C59.6794 21.9227 60.4635 21.8 61.3635 21.8C61.9226 21.8 62.4135 21.8341 62.8362 21.9023C63.2726 21.9705 63.6885 22.0727 64.0839 22.2091C64.4794 22.3318 64.8817 22.4955 65.2908 22.7V25.8909C64.9771 25.6318 64.6226 25.3932 64.2271 25.175C63.8453 24.9432 63.443 24.7523 63.0203 24.6023C62.5976 24.4523 62.1544 24.3705 61.6908 24.3568C61.2817 24.3432 60.9067 24.3841 60.5658 24.4795C60.2248 24.575 59.9589 24.7318 59.768 24.95C59.5771 25.1545 59.4817 25.4205 59.4817 25.7477C59.4817 26.1295 59.5976 26.4295 59.8294 26.6477C60.0612 26.8659 60.3817 27.05 60.7908 27.2C61.1998 27.3364 61.6567 27.4864 62.1612 27.65C62.7203 27.8136 63.2317 27.9977 63.6953 28.2023C64.1726 28.3932 64.5885 28.6386 64.943 28.9386C65.2976 29.2386 65.5703 29.6068 65.7612 30.0432C65.9521 30.4795 66.0476 31.0045 66.0476 31.6182C66.0476 32.4364 65.8567 33.1864 65.4748 33.8682C65.093 34.5364 64.5408 35.0682 63.818 35.4636C63.0953 35.8455 62.2089 36.0364 61.1589 36.0364ZM21.1637 55.0364C19.8274 55.0364 18.6547 54.7977 17.6456 54.3205C16.6501 53.8432 15.8728 53.0864 15.3137 52.05C14.7683 51 14.4956 49.6295 14.4956 47.9386C14.4956 46.275 14.7683 44.9182 15.3137 43.8682C15.8728 42.8182 16.6501 42.0477 17.6456 41.5568C18.6547 41.0523 19.8274 40.8 21.1637 40.8C22.0228 40.8 22.8615 40.8886 23.6797 41.0659C24.4978 41.2432 25.2819 41.4886 26.0319 41.8023V44.8091C25.2137 44.3864 24.4501 44.0455 23.741 43.7864C23.0456 43.5273 22.3228 43.3977 21.5728 43.3977C20.7956 43.3977 20.1274 43.5341 19.5683 43.8068C19.0228 44.0795 18.6069 44.55 18.3206 45.2182C18.0342 45.8727 17.891 46.7727 17.891 47.9182C17.891 49.05 18.0342 49.95 18.3206 50.6182C18.6206 51.2727 19.0365 51.7432 19.5683 52.0295C20.1001 52.3159 20.7206 52.4591 21.4297 52.4591C21.7978 52.4591 22.1387 52.4386 22.4524 52.3977C22.7797 52.3432 23.066 52.2545 23.3115 52.1318V49.7182H21.0615V47.1409H26.6251V53.5636C25.7797 54.0273 24.8933 54.3886 23.966 54.6477C23.0524 54.9068 22.1183 55.0364 21.1637 55.0364ZM28.3444 54.75L33.499 41.1068H37.1194L41.9467 54.75H38.5512L34.1944 41.8841L35.8103 41.7409L31.474 54.75H28.3444ZM31.249 51.8045L31.924 49.3705H38.1217L38.4285 51.8045H31.249ZM43.6732 54.75V41.1068H50.3209C51.8618 41.1068 53.0686 41.4682 53.9414 42.1909C54.8141 42.9 55.2505 43.9841 55.2505 45.4432C55.2505 46.0432 55.1277 46.6364 54.8823 47.2227C54.6368 47.7955 54.2755 48.2932 53.7982 48.7159C53.3209 49.125 52.7209 49.3909 51.9982 49.5136L51.7936 48.3886L55.9459 54.75H51.7323L48.3164 48.7977L49.7891 50.0455H46.9868V54.75H43.6732ZM46.9868 47.6114H49.7686C50.355 47.6114 50.8186 47.4545 51.1595 47.1409C51.5005 46.8273 51.6709 46.3091 51.6709 45.5864C51.6709 44.9591 51.5141 44.4818 51.2005 44.1545C50.9005 43.8273 50.4709 43.6636 49.9118 43.6636H46.9868V47.6114ZM56.9888 54.75L62.1433 41.1068H65.7638L70.591 54.75H67.1956L62.8388 41.8841L64.4547 41.7409L60.1183 54.75H56.9888ZM59.8933 51.8045L60.5683 49.3705H66.766L67.0729 51.8045H59.8933ZM77.9531 55.0364C76.6167 55.0364 75.444 54.7977 74.4349 54.3205C73.4394 53.8432 72.6622 53.0864 72.1031 52.05C71.5576 51 71.2849 49.6295 71.2849 47.9386C71.2849 46.275 71.5576 44.9182 72.1031 43.8682C72.6622 42.8182 73.4394 42.0477 74.4349 41.5568C75.444 41.0523 76.6167 40.8 77.9531 40.8C78.8122 40.8 79.6508 40.8886 80.469 41.0659C81.2872 41.2432 82.0713 41.4886 82.8213 41.8023V44.8091C82.0031 44.3864 81.2394 44.0455 80.5304 43.7864C79.8349 43.5273 79.1122 43.3977 78.3622 43.3977C77.5849 43.3977 76.9167 43.5341 76.3576 43.8068C75.8122 44.0795 75.3963 44.55 75.1099 45.2182C74.8235 45.8727 74.6804 46.7727 74.6804 47.9182C74.6804 49.05 74.8235 49.95 75.1099 50.6182C75.4099 51.2727 75.8258 51.7432 76.3576 52.0295C76.8894 52.3159 77.5099 52.4591 78.219 52.4591C78.5872 52.4591 78.9281 52.4386 79.2417 52.3977C79.569 52.3432 79.8554 52.2545 80.1008 52.1318V49.7182H77.8508V47.1409H83.4145V53.5636C82.569 54.0273 81.6826 54.3886 80.7554 54.6477C79.8417 54.9068 78.9076 55.0364 77.9531 55.0364ZM86.3201 54.75V41.1068H95.6678V43.6636H89.6338V46.6295H94.8701V49.2068H89.6338V52.1932H95.6678V54.75H86.3201Z" fill="#ECEEF0"/>
</g>
<rect x="0.852273" y="0.852273" width="138.068" height="73.2955" stroke="#ECEEF0" stroke-width="1.70455"/>
<defs>
<filter id="filter0_d_51_396" x="100.568" y="1.70459" width="39.2045" height="75" filterUnits="userSpaceOnUse" color-interpolation-filters="sRGB">
<feFlood flood-opacity="0" result="BackgroundImageFix"/>
<feColorMatrix in="SourceAlpha" type="matrix" values="0 0 0 0 0 0 0 0 0 0 0 0 0 0 0 0 0 0 127 0" result="hardAlpha"/>
<feOffset dy="1.70455"/>
<feGaussianBlur stdDeviation="0.852273"/>
<feComposite in2="hardAlpha" operator="out"/>
<feColorMatrix type="matrix" values="0 0 0 0 0 0 0 0 0 0 0 0 0 0 0 0 0 0 0.25 0"/>
<feBlend mode="normal" in2="BackgroundImageFix" result="effect1_dropShadow_51_396"/>
<feBlend mode="normal" in="SourceGraphic" in2="effect1_dropShadow_51_396" result="shape"/>
</filter>
<filter id="filter1_d_51_396" x="12.6275" y="21.8" width="84.7448" height="36.6455" filterUnits="userSpaceOnUse" color-interpolation-filters="sRGB">
<feFlood flood-opacity="0" result="BackgroundImageFix"/>
<feColorMatrix in="SourceAlpha" type="matrix" values="0 0 0 0 0 0 0 0 0 0 0 0 0 0 0 0 0 0 127 0" result="hardAlpha"/>
<feOffset dy="1.70455"/>
<feGaussianBlur stdDeviation="0.852273"/>
<feComposite in2="hardAlpha" operator="out"/>
<feColorMatrix type="matrix" values="0 0 0 0 0 0 0 0 0 0 0 0 0 0 0 0 0 0 0.25 0"/>
<feBlend mode="normal" in2="BackgroundImageFix" result="effect1_dropShadow_51_396"/>
<feBlend mode="normal" in="SourceGraphic" in2="effect1_dropShadow_51_396" result="shape"/>
</filter>
</defs>
</svg>
