<?xml version="1.0" encoding="utf-8"?>
<!-- Generator: Adobe Illustrator 24.0.0, SVG Export Plug-In . SVG Version: 6.00 Build 0)  -->
<svg version="1.1" id="Layer_1" xmlns="http://www.w3.org/2000/svg" xmlns:xlink="http://www.w3.org/1999/xlink" x="0px" y="0px"
	 viewBox="0 0 2698.23 2672.44" style="enable-background:new 0 0 2698.23 2672.44;" xml:space="preserve">
<style type="text/css">
	.st0{fill:#FFFFFF;}
	.st1{fill:#371A45;}
	.st2{opacity:0.35;}
	.st3{fill:#22A7F0;}
	.st4{opacity:0.7;}
	.st5{fill:none;stroke:#371A45;stroke-width:36.3839;stroke-linecap:round;stroke-miterlimit:10;}
	.st6{fill:#AFAFB2;}
	.st7{opacity:0.5;}
	.st8{fill:#111A28;}
	.st9{fill:#67568C;}
	.st10{opacity:0.3;}
	.st11{fill:#FF66AC;}
	.st12{fill:#7E354D;}
</style>
<g>
	<g>
		<g>
			<g>
				<g>
					<g>
						<g>
							<path class="st0" d="M1602.02,2308.65H891.92c-121.79,0-221.43-99.64-221.43-221.43v-627.4
								c0-121.79,99.64-221.43,221.43-221.43h710.11c121.79,0,221.43,99.64,221.43,221.43v627.4
								C1823.46,2209,1723.81,2308.65,1602.02,2308.65z"/>
						</g>
					</g>
				</g>
			</g>
			<g>
				<g>
					<g>
						<g>
							<path class="st1" d="M1602.02,1238.38c121.79,0,221.43,99.64,221.43,221.43v627.4c0,121.79-99.64,221.43-221.43,221.43
								H891.92c-121.79,0-221.43-99.64-221.43-221.43v-627.4c0-121.79,99.64-221.43,221.43-221.43H1602.02 M1602.02,1203.38H891.92
								c-34.49,0-68.02,6.82-99.66,20.26c-30.5,12.96-57.91,31.47-81.47,55.04c-23.56,23.56-42.08,50.98-55.04,81.47
								c-13.44,31.64-20.26,65.17-20.26,99.66v627.4c0,34.49,6.82,68.02,20.26,99.66c12.96,30.5,31.47,57.91,55.04,81.47
								c23.56,23.56,50.98,42.08,81.47,55.04c31.64,13.44,65.17,20.26,99.66,20.26h710.11c34.49,0,68.02-6.82,99.66-20.26
								c30.5-12.96,57.91-31.47,81.47-55.04c23.56-23.56,42.08-50.98,55.04-81.47c13.44-31.64,20.26-65.17,20.26-99.66v-627.4
								c0-34.49-6.82-68.02-20.26-99.66c-12.96-30.5-31.47-57.91-55.04-81.47c-23.56-23.56-50.98-42.08-81.47-55.04
								C1670.05,1210.2,1636.51,1203.38,1602.02,1203.38L1602.02,1203.38z"/>
						</g>
					</g>
				</g>
			</g>
			<g>
				<g>
					<g>
						<g>
							<path class="st0" d="M1807.58,1920.7c-110.56,12.96-220.76,16.15-220.76,16.15s-56.12-279.84-71.68-499.28
								c-11.46-162.59-0.68-291.98,71.68-249.78c33.29,19.42,71.63,55.99,111.61,102.38c149.95,174.05,322.23,486.59,331.68,551.44
								C2036.21,1883.32,1921.74,1907.24,1807.58,1920.7z"/>
						</g>
					</g>
				</g>
			</g>
			<g>
				<g>
					<g>
						<g>
							<path class="st1" d="M1572.02,1955.49l-3.02-15.05c-0.34-1.72-34.66-173.67-56.87-351.71
								c-13.1-104.97-19.5-191.64-19.04-257.59c0.63-90.08,13.71-141.17,41.16-160.78c12.05-8.61,32.55-15.29,61.75,1.74
								c96.26,56.16,218.43,235.06,282.69,336.7c42.86,67.8,83.89,139.07,115.54,200.67c22.3,43.4,49.75,101.1,53.9,129.51
								c1.21,8.25,0.4,20.76-10.3,33.5c-15.47,18.42-47.6,32.84-101.13,45.36c-39.25,9.18-89.68,17.08-149.9,23.48
								c-101.95,10.83-198.48,13.7-199.44,13.73L1572.02,1955.49z M1561.76,1197.93c-3.51,0-5.35,1.32-6.36,2.03
								c-11.87,8.48-47.45,61.22-7.19,384.08c18.24,146.22,44.71,288.37,53.51,334.07c31.04-1.25,104.7-4.84,181.44-13
								c178.16-18.95,217.96-45.5,226.81-56.03c2.45-2.91,2.25-4.26,2.16-4.84c-5.17-35.35-72.38-170.77-164.19-316
								c-106.33-168.19-204.83-286.55-270.27-324.72C1570.25,1199.19,1565.2,1197.93,1561.76,1197.93z"/>
						</g>
					</g>
				</g>
			</g>
			<g>
				<g>
					<g>
						<g>
							<path class="st0" d="M1024.24,1177.47l-22.38,169.28l-12.73,96.24l-27.15,205.48c0,0-49.62,33.75-132.16,60.49
								c-30.84,10.01-66.36,18.96-105.56,24.83c-64.08,9.64-138.17,10.87-218.44-5.55c-206.52-42.3-330.46-195.7-384.12-272.83
								C17.99,1306.54,2.03,1266.29,30.86,1203.62c22.01-48.03,59.72-56.8,59.72-56.8s-1.86-38.38,28.52-52.03
								c91.05-40.89,208.34,68.31,208.34,68.31s4.37-117.43,67.22-90.32c43.3,18.69,53.12,146.54,53.12,146.54
								s58.12,74.68,150.45,84.59c48.25,5.18,115.02-8.82,181.33-29.15c0.77-0.23,1.55-0.45,2.32-0.73
								c35.34-10.91,70.45-23.56,102.6-36.07c14.42-5.59,28.24-11.19,41.2-16.55C983.62,1197.39,1024.24,1177.47,1024.24,1177.47z"
								/>
						</g>
					</g>
				</g>
			</g>
			<g class="st2">
				<g>
					<g>
						<g>
							<path class="st1" d="M121.67,1455.41c53.71,77.11,177.63,230.54,384.13,272.83c129.35,26.46,242.7,7.02,324.03-19.31
								c82.54-26.71,132.15-60.48,132.15-60.48l3.64-162.15c0,0-56.24-54.2-108.62-32.1c-62.94,26.55-42.77,116.8-132.66,141.9
								c-249.89,69.78-452.89-57.71-518.21-113.68c-90.62-77.64-114.26-126.54-127.01-146.72c-26.39-41.75-46.77-74.56-58.26-103.94
								C9.15,1281.46,34.15,1329.73,121.67,1455.41z"/>
						</g>
					</g>
				</g>
			</g>
			<g>
				<g>
					<g>
						<g>
							<path class="st1" d="M630.42,1759.03c-43.12,0-86.06-4.33-128.26-12.98c-92.83-19.01-179.44-61.81-257.41-127.23
								c-50.18-42.1-96.61-93.59-137.99-153.01c-50.5-72.53-82.6-122.35-97.24-162.37c-14.03-38.35-12.64-69.47,4.78-107.43
								c17.15-37.38,43.08-54.57,58.75-61.94c2.56-19.22,12.53-44.15,38.59-55.85c74.04-33.26,159.48,18.21,201.77,49.89
								c0.41-2.15,0.87-4.35,1.36-6.58c7.01-31.44,19.11-52.78,35.96-63.41c10.35-6.53,27.63-12.18,51.17-2.01
								c23.89,10.32,41.32,40.71,53.3,92.9c6.13,26.74,9.08,51.84,10.19,62.96c12.86,14.56,63.12,66.16,134.8,73.85
								c130.85,14.02,413.19-123.3,416.03-124.69c6.02-2.95,13.18-2.35,18.62,1.57c5.44,3.91,8.29,10.51,7.42,17.15l-62.22,470.98
								c-0.68,5.14-3.51,9.74-7.8,12.65c-2.08,1.42-51.98,35.05-134.95,62.16c-48.6,15.88-98.6,26.22-148.6,30.75
								C669.26,1758.15,649.82,1759.03,630.42,1759.03z M94.79,1164.49c-2.35,0.64-30.12,8.96-47.43,46.68
								c-23.31,50.8-17.58,80.41,89.25,233.84c100.44,144.24,229.36,236.01,372.84,265.39c130.73,26.77,244.28,4.25,316.52-19.35
								c61.24-20.01,103.47-43.88,119.09-53.41l56.76-429.6c-29.65,13.54-78.15,34.81-132.58,55.21
								c-121.16,45.4-213,65.16-272.93,58.74c-98.87-10.59-160.31-88.19-162.88-91.49c-2.19-2.82-3.51-6.22-3.78-9.78
								c-0.02-0.3-2.49-31.35-10.01-63.97c-12.67-54.99-27.83-65.38-32.17-67.25c-10.86-4.69-15.55-1.74-17.32-0.63
								c-15.29,9.62-23.57,49.6-24.57,74.91c-0.28,7.1-4.68,13.4-11.25,16.11c-6.58,2.71-14.12,1.35-19.33-3.5
								c-1.08-1-109.55-100.44-188.46-64.99c-18.18,8.17-17.85,32.81-17.8,34.58C109.28,1154.96,103.58,1162.63,94.79,1164.49z"/>
						</g>
					</g>
				</g>
			</g>
			<g>
				<g>
					<g>
						<g>
							<path class="st1" d="M342.4,1163.08c0.42,5.11-0.34,9.76-1.36,13.79c-0.51,2.08-1.14,3.88-1.78,5.73
								c-0.65,1.73-1.36,3.49-2.06,5.06c-2.87,6.46-5.97,11.81-8.92,17c-2.96,5.16-5.81,10.07-8.46,14.99l-1.94,3.7
								c-0.61,1.24-1.26,2.47-1.85,3.72l-1.72,3.76l-1.64,3.8l-1.49,3.86l-1.38,3.92c-0.47,1.31-0.82,2.65-1.24,3.98
								c-0.44,1.33-0.77,2.69-1.13,4.04c-1.38,5.44-2.57,11.04-3.26,16.81c-0.75,5.76-1.23,11.67-1.37,17.68
								c-0.15,3.02-0.09,6.04-0.12,9.12c-0.05,1.54,0.08,3.06,0.09,4.61c0.03,1.55,0.08,3.1,0.07,4.67l0,0.11
								c0,1.21-0.98,2.19-2.2,2.19c-0.85,0-1.58-0.48-1.94-1.19c-2.92-5.66-5.56-11.54-7.6-17.68c-2.15-6.12-3.69-12.5-4.82-19.03
								c-2.22-13.06-2.17-26.88,0.27-40.38l1.01-5.04c0.39-1.66,0.82-3.31,1.23-4.98c0.44-1.65,0.93-3.27,1.39-4.92
								c0.48-1.63,1.05-3.22,1.58-4.83c2.19-6.4,4.9-12.48,7.69-18.18c2.78-5.69,5.74-11.06,8.14-15.72
								c2.53-4.72,3.96-8.55,4.8-10.62l1.76-4.33c3.06-7.51,11.63-11.12,19.14-8.06C338.6,1152.84,341.95,1157.75,342.4,1163.08z"/>
						</g>
					</g>
				</g>
			</g>
			<g>
				<g>
					<g>
						<g>
							<path class="st1" d="M485.82,1740.73c-4.59,0-9.02-2.54-11.2-6.93c-3.08-6.18-0.56-13.68,5.62-16.76
								c50.43-25.09,84.89-103.39,99.63-226.44c11.43-95.36,6.68-184.05,6.63-184.93c-0.38-6.89,4.89-12.79,11.78-13.18
								c6.86-0.39,12.79,4.89,13.18,11.78c0.05,0.9,4.92,91.48-6.73,188.97c-6.89,57.69-18.14,106.64-33.44,145.49
								c-19.8,50.28-46.69,84.16-79.91,100.69C489.59,1740.31,487.69,1740.73,485.82,1740.73z"/>
						</g>
					</g>
				</g>
			</g>
			<g class="st2">
				<g>
					<g>
						<g>
							<path class="st1" d="M2099.1,2545.33v-2.55C2079.11,2543.64,2099.1,2545.33,2099.1,2545.33z"/>
						</g>
					</g>
				</g>
			</g>
			<g>
				<g>
					<g>
						<g>
							<g>
								<path class="st0" d="M1846.79,2238.24H645.89c0,0,7.32-207.25,78.36-504.46c28.47-119.2,67.22-252.87,119.84-393.45
									c12.64-33.75,26.11-67.9,40.39-102.38c39.93-96.19,86.5-194.7,140.81-293.21h442.11c44.89,81.45,84.5,162.86,119.43,243.04
									c22.6,51.85,43.25,103.15,62.08,153.54c82.18,219.67,130.44,422.42,158.68,579.37
									C1842.42,2114.31,1846.79,2238.24,1846.79,2238.24z"/>
							</g>
						</g>
					</g>
				</g>
			</g>
			<g>
				<g>
					<g>
						<g>
							<g>
								<path class="st1" d="M1681.93,1495.89c23.21,25.91,33.82,56.07,43.62,86.36c4.92,15.15,9.77,30.33,14.4,45.58
									c2.32,7.62,4.7,15.23,6.77,22.92c2.13,7.67,4.2,15.37,6.28,23.06l6.08,23.11c2,7.71,4.02,15.41,5.9,23.16l11.05,46.5
									c1.8,7.76,3.77,15.47,5.53,23.24l5.27,23.3l5.41,23.27c1.82,7.75,3.7,15.49,5.4,23.27l10.42,46.63
									c1.79,7.76,3.33,15.58,4.98,23.37l4.88,23.39l2.44,11.69l1.22,5.85l1.14,5.86l4.57,23.45c1.52,7.82,3.09,15.63,4.74,23.42
									c1.58,7.81,3.17,15.62,4.83,23.42c6.96,31.13,12.04,62.66,14.15,94.6c0.27,3.99,0.58,7.97,0.77,11.98l0.51,12.01
									c0.26,8.02,0.48,16.03,0.36,24.1c-0.05,8.05-0.23,16.11-0.75,24.2c-0.47,8.09-1.14,16.18-2.36,24.33
									c-0.23,1.57-1.7,2.65-3.27,2.42c-1.07-0.16-1.91-0.89-2.27-1.83l-0.01-0.04c-5.74-15.25-10.43-30.57-14.86-45.89
									c-2.18-7.66-4.28-15.34-6.31-23.01l-2.92-11.53c-0.92-3.85-1.87-7.69-2.83-11.54c-3.72-15.39-7-30.82-9.95-46.32
									c-1.42-7.76-2.71-15.54-3.89-23.34c-1.27-7.79-2.44-15.59-3.65-23.39c-1.18-7.81-2.42-15.6-3.68-23.39
									c-1.34-7.78-2.83-15.53-4.34-23.28l-4.53-23.25l-1.13-5.81l-1.21-5.8l-2.42-11.59l-4.84-23.19
									c-1.64-7.72-3.17-15.47-4.94-23.17l-10.34-46.24c-1.66-7.72-3.6-15.38-5.43-23.06l-5.65-23.01l-5.79-22.97
									c-0.94-3.83-2.01-7.64-3.03-11.45l-3.11-11.43l-12.49-45.7c-4.32-15.19-8.74-30.35-12.95-45.57
									c-2.1-7.61-4.2-15.22-6.24-22.85l-1.52-5.72l-1.61-5.7l-3.17-11.41c-4.23-15.21-8.24-30.49-12.19-45.79l-2.9-11.5
									c-0.97-3.83-2.04-7.63-3.06-11.45c-2.03-7.64-3.73-15.38-5.01-23.25c-1.27-7.88-2.16-15.88-2.5-24.06
									c-0.18-4.09-0.2-8.23-0.05-12.43c0.16-4.2,0.43-8.45,1.17-12.84l0.03-0.17c0.28-1.66,1.85-2.78,3.51-2.5
									C1680.87,1495.04,1681.49,1495.4,1681.93,1495.89z"/>
							</g>
						</g>
					</g>
				</g>
				<g>
					<g>
						<g>
							<g>
								<path class="st1" d="M643.08,2238.15c-1.85-4.12-3.12-8.21-4.31-12.32c-1.19-4.12-2.08-8.19-2.87-12.29
									c-1.6-8.2-2.46-16.35-2.94-24.48c-0.22-4.07-0.37-8.13-0.36-12.18c0.01-4.05,0.17-8.08,0.36-12.11l0.68-12.09
									c0.21-4.03,0.46-8.06,0.79-12.08c1.25-16.08,2.47-32.18,4.35-48.18c0.85-8.02,1.8-16.02,2.74-24.03
									c0.46-4,1.08-7.98,1.62-11.98l1.69-11.97l3.53-23.91c1.24-7.96,2.68-15.88,4.03-23.82c2.76-15.87,5.36-31.76,8.51-47.55
									c3.06-15.81,5.86-31.66,8.99-47.44c3.18-15.77,6.28-31.56,9.34-47.36c0.78-3.95,1.48-7.91,2.33-11.84l2.52-11.8l5.03-23.6
									l5.03-23.6c0.43-1.97,0.82-3.94,1.27-5.9l1.38-5.87l2.76-11.75l11.03-46.99c0.89-3.92,1.89-7.82,2.88-11.72
									c0.96-3.91,1.94-7.81,2.86-11.72c1.86-7.83,3.7-15.66,5.47-23.51c1.81-7.84,3.58-15.7,5.45-23.53
									c1.8-7.85,4.06-15.57,6.32-23.3c2.31-7.71,4.76-15.38,7.33-23.02c2.58-7.63,5.32-15.22,8.09-22.79l4.28-11.32
									c0.72-1.88,1.52-3.74,2.3-5.61c0.79-1.86,1.55-3.73,2.37-5.59c3.23-7.43,6.5-14.83,9.98-22.16
									c3.44-7.35,7.03-14.64,10.8-21.86c3.77-7.22,7.68-14.39,12.02-21.41c0.83-1.35,2.6-1.77,3.95-0.93
									c0.92,0.57,1.41,1.58,1.36,2.6l0,0.04c-1.8,33-7.98,64.4-14.08,95.79c-1.57,7.83-3.17,15.65-4.93,23.43
									c-1.77,7.77-3.67,15.5-5.69,23.19c-4.22,15.34-8.46,30.67-12.88,45.97c-2.21,7.65-4.36,15.31-6.49,22.98
									c-1.08,3.83-2.09,7.68-3.12,11.52c-1.01,3.85-2.05,7.69-2.91,11.58l-10.91,46.49l-2.73,11.62l-1.36,5.81
									c-0.45,1.94-0.84,3.89-1.26,5.83l-4.98,23.35l-4.98,23.35l-2.49,11.68c-0.83,3.89-1.53,7.81-2.3,11.71
									c-12.78,62.39-21.37,125.53-29.72,188.54l-3.24,23.62c-1.01,7.88-2.02,15.76-3.12,23.63l-6.44,47.23
									c-1.17,7.87-2.11,15.74-3.17,23.61c-0.55,3.93-1.13,7.87-1.86,11.79c-0.72,3.92-1.43,7.84-2.31,11.75
									c-1.75,7.82-3.92,15.62-6.49,23.4c-1.28,3.89-2.81,7.79-4.38,11.67c-1.61,3.88-3.36,7.78-5.52,11.65l-0.02,0.04
									c-0.84,1.5-2.73,2.04-4.23,1.2C643.8,2239.25,643.35,2238.73,643.08,2238.15z"/>
							</g>
						</g>
					</g>
				</g>
			</g>
			<g>
				<g>
					<g>
						<g>
							<g>
								<path class="st0" d="M991.77,1976.76c-68.49,27.73-174.49,21.93-246.75,13.18c-43.34-5.24-73.77-45.24-67.38-88.43v0
									c5.83-39.41,40.52-68.07,80.31-66.21c67.59,3.17,168.98,4.65,233.19-9.59"/>
							</g>
						</g>
					</g>
				</g>
				<g class="st2">
					<g>
						<g>
							<g>
								<path class="st1" d="M991.79,1976.75c-68.51,27.77-174.51,21.91-246.77,13.22c-43.34-5.25-73.76-45.27-67.37-88.43
									c1.27-8.81,4.04-17.08,7.97-24.63c11.41,21.79,33.02,37.85,59.4,41.05c72.13,8.75,177.95,14.55,246.47-13.04L991.79,1976.75
									z"/>
							</g>
						</g>
					</g>
				</g>
				<g>
					<g>
						<g>
							<g>
								<path class="st1" d="M855.6,2015.36c-39.63,0-79.03-3.27-112.77-7.35c-25.84-3.13-48.77-16.25-64.57-36.95
									c-15.83-20.74-22.44-46.38-18.62-72.2c3.48-23.53,15.5-44.82,33.84-59.95c18.36-15.15,41.56-22.88,65.32-21.76
									c99.57,4.66,180.68,1.4,228.39-9.18c9.58-2.12,33.38-2.2,47.43,42.97c14.27,45.89,12.69,122.98-36.02,142.7l0,0
									C958.43,2009.89,906.83,2015.36,855.6,2015.36z M754.26,1853.41c-29.34,0-54.28,21.37-58.62,50.76
									c-2.37,16.02,1.73,31.94,11.55,44.81c9.79,12.83,24,20.96,40.02,22.9c103.33,12.5,187.77,8.25,237.74-11.98l0,0
									c14.84-6.01,19.1-30.06,20.25-40.12c4-35.2-6.71-67.72-13.42-75.59c-65.13,13.69-163.25,12.64-234.67,9.29
									C756.15,1853.43,755.2,1853.41,754.26,1853.41z"/>
							</g>
						</g>
					</g>
				</g>
				<g>
					<g>
						<g>
							<g>
								<path class="st0" d="M1515.66,1976.76c68.49,27.73,174.49,21.93,246.75,13.18c43.34-5.24,73.77-45.24,67.38-88.43v0
									c-5.83-39.41-40.52-68.07-80.31-66.21c-67.59,3.17-168.98,4.65-233.19-9.59"/>
							</g>
						</g>
					</g>
				</g>
				<g class="st2">
					<g>
						<g>
							<g>
								<path class="st1" d="M1762.39,1989.97c-72.26,8.69-178.25,14.55-246.77-13.22l0.3-72.5
									c68.51,27.59,174.33,21.79,246.47,13.04c26.26-3.14,47.75-19.08,59.22-40.75c4.04,7.61,6.88,16,8.21,24.99
									C1836.16,1944.7,1805.74,1984.72,1762.39,1989.97z"/>
							</g>
						</g>
					</g>
				</g>
				<g>
					<g>
						<g>
							<g>
								<path class="st1" d="M1651.83,2015.36c-51.23,0-102.82-5.47-143-21.73c-48.71-19.72-50.29-96.81-36.02-142.7
									c14.04-45.16,37.85-45.09,47.43-42.97c47.72,10.59,128.83,13.85,228.39,9.18c23.78-1.11,46.96,6.62,65.32,21.76
									c18.34,15.13,30.36,36.42,33.84,59.95c3.82,25.82-2.8,51.46-18.62,72.2c-15.8,20.7-38.73,33.82-64.57,36.95
									C1730.86,2012.08,1691.45,2015.36,1651.83,2015.36z M1515.66,1844.19c-6.71,7.87-17.42,40.39-13.42,75.59
									c1.14,10.06,5.4,34.11,20.25,40.12l0,0c49.97,20.23,134.41,24.49,237.74,11.98c16.01-1.94,30.23-10.07,40.02-22.9
									c9.82-12.87,13.92-28.78,11.55-44.81c-4.48-30.33-30.9-52.11-61.46-50.69C1678.9,1856.83,1580.78,1857.87,1515.66,1844.19z"
									/>
							</g>
						</g>
					</g>
				</g>
				<g>
					<g>
						<g>
							<g>
								<path class="st0" d="M1542.13,1775.8v242.06c0,44.91-36.76,81.67-81.67,81.67h-445.79c-44.85,0-81.61-36.76-81.61-81.67
									V1775.8c0-44.91,36.76-81.61,81.61-81.61h445.79c26.44,0,50.04,12.74,65.01,32.35
									C1535.91,1740.24,1542.13,1757.33,1542.13,1775.8z"/>
							</g>
						</g>
					</g>
				</g>
				<g class="st2">
					<g>
						<g>
							<g>
								<path class="st1" d="M1542.12,1775.8v242.06c0,44.91-36.74,81.65-81.65,81.65h-445.78c-44.91,0-81.65-36.74-81.65-81.65
									v-90.54c66.95,68.26,198.62,111.11,319.38,111.75c38.8,0.21,70.1-30.48,72.87-69.19c0.03-0.39,0.06-0.78,0.09-1.16
									c2.97-33.96,30.94-61.46,64.94-63.91c38.72-2.79,71.41,25.81,75.24,62.98c58.45-72.16,41.33-197.58,59.92-241.25
									C1535.93,1740.26,1542.12,1757.32,1542.12,1775.8z"/>
							</g>
						</g>
					</g>
				</g>
				<g>
					<g>
						<g>
							<g>
								<path class="st1" d="M1460.48,2117.71h-445.8c-55.04,0-99.82-44.78-99.82-99.82V1775.8c0-55.04,44.78-99.82,99.82-99.82
									h445.8c55.04,0,99.82,44.78,99.82,99.82v242.09C1560.3,2072.93,1515.52,2117.71,1460.48,2117.71z M1014.68,1712.36
									c-34.98,0-63.44,28.46-63.44,63.44v242.09c0,34.98,28.46,63.44,63.44,63.44h445.8c34.98,0,63.44-28.46,63.44-63.44V1775.8
									c0-34.98-28.46-63.44-63.44-63.44H1014.68z"/>
							</g>
						</g>
					</g>
				</g>
				<g>
					<g>
						<g>
							<g>
								<circle class="st3" cx="1395.51" cy="1896.84" r="70.4"/>
							</g>
						</g>
					</g>
				</g>
				<g class="st4">
					<g>
						<g>
							<g>
								<path class="st0" d="M1465.91,1896.84c0,4.82-0.46,9.5-1.37,14.07c-6.5-32.19-34.94-56.41-69.01-56.41
									c-34.12,0-62.56,24.22-69.06,56.41c-0.91-4.57-1.37-9.24-1.37-14.07c0-38.9,31.53-70.38,70.43-70.38
									C1434.37,1826.46,1465.91,1857.94,1465.91,1896.84z"/>
							</g>
						</g>
					</g>
				</g>
				<g class="st2">
					<g>
						<g>
							<g>
								<path class="st1" d="M1465.89,1896.83c0,38.87-31.51,70.38-70.38,70.38s-70.38-31.51-70.38-70.38
									c0-8.99,1.69-17.57,4.83-25.47c10.14,26.26,35.68,44.85,65.56,44.85c29.88,0,55.41-18.59,65.56-44.85
									C1464.2,1879.26,1465.89,1887.83,1465.89,1896.83z"/>
							</g>
						</g>
					</g>
				</g>
				<g>
					<g>
						<g>
							<g>
								<path class="st1" d="M1395.51,1980.88c-46.34,0-84.04-37.7-84.04-84.04s37.7-84.04,84.04-84.04s84.04,37.7,84.04,84.04
									S1441.85,1980.88,1395.51,1980.88z M1395.51,1840.09c-31.29,0-56.75,25.46-56.75,56.75c0,31.29,25.46,56.75,56.75,56.75
									c31.29,0,56.75-25.46,56.75-56.75C1452.26,1865.55,1426.8,1840.09,1395.51,1840.09z"/>
							</g>
						</g>
					</g>
				</g>
				<g>
					<g>
						<g>
							<g>
								<path class="st1" d="M1196.02,2113.16c-7.54,0-13.64-6.11-13.64-13.64v-165.8l-89.15-67.12v-172.43
									c0-7.54,6.11-13.64,13.64-13.64s13.64,6.11,13.64,13.64v158.81l89.15,67.12v179.42
									C1209.66,2107.05,1203.55,2113.16,1196.02,2113.16z"/>
							</g>
						</g>
					</g>
				</g>
			</g>
			<g>
				<g>
					<g>
						<g>
							<path class="st5" d="M1190.54,2201.66"/>
						</g>
					</g>
				</g>
			</g>
			<g>
				<g>
					<g>
						<g>
							<g>
								<path class="st0" d="M1246.32,2229.85c78.86,0,154.69-29.26,213.92-81.33c82.04-72.12,220.15-158.13,372.59-102.96
									c61.17,22.12,102.85,62.71,131.29,107.62c73.24-169.7,226.88-179.87,293.38-83.69c0,0-111.78,533.28-148.21,545.15
									c-52.19,17-177.59-0.88-177.59-0.88s-436.26-59.06-685.38-59.06s-685.38,59.06-685.38,59.06s-125.4,17.87-177.59,0.88
									c-36.43-11.87-148.21-545.15-148.21-545.15c66.49-96.19,220.14-86.01,293.38,83.69c28.43-44.92,70.12-85.5,131.29-107.62
									c152.44-55.17,290.55,30.84,372.59,102.96C1091.63,2200.58,1167.46,2229.85,1246.32,2229.85L1246.32,2229.85z"/>
							</g>
						</g>
					</g>
				</g>
				<g class="st2">
					<g>
						<g>
							<g>
								<path class="st1" d="M2257.51,2069.47c0,0-111.79,533.3-148.22,545.17c-52.17,17.01-177.6-0.86-177.6-0.86
									s-436.24-59.08-685.38-59.08c-249.09,0-685.38,59.08-685.38,59.08s-125.39,17.87-177.55,0.86
									c-36.43-11.87-148.22-545.17-148.22-545.17c10.96-15.83,24.24-28.79,39.16-38.61c35.84,156.36,86.68,360.52,109.06,367.8
									c52.17,16.96,177.55-0.91,177.55-0.91s436.29-118.16,685.38-118.16c249.14,0,685.38,118.16,685.38,118.16
									s125.43,17.87,177.6,0.91c22.38-7.28,73.22-211.44,109.06-367.8C2233.27,2040.69,2246.55,2053.65,2257.51,2069.47z"/>
							</g>
						</g>
					</g>
				</g>
				<g>
					<g>
						<g>
							<g>
								<path class="st1" d="M450.61,2640.11c-27.36,0-54.09-2.05-72.89-8.17c-12.82-4.18-23.6-18.39-43.83-81.41
									c-11.84-36.89-26.05-88.26-42.22-152.68c-29.12-115.98-57.5-246.06-68.35-296.6c-5.68-26.46,2.99-53.83,22.64-71.41
									c37.72-33.77,88.28-46.77,138.7-35.67c31.78,7,62.7,23.59,89.42,47.98c22.13,20.21,41.37,45.45,57.41,75.3
									c32.55-41.54,73.53-71.41,122.15-89c55.09-19.94,112.73-23.9,171.33-11.77c47.31,9.8,95.42,30.11,142.98,60.39
									c8.48,5.4,10.97,16.64,5.58,25.12c-5.39,8.48-16.64,10.97-25.12,5.58c-97.89-62.32-192.9-77.49-282.39-45.1
									c-50.47,18.26-91.56,51.98-122.11,100.25c-3.61,5.7-10.09,8.93-16.8,8.41c-6.72-0.53-12.6-4.73-15.28-10.93
									c-30.6-70.91-79.8-118.54-134.99-130.68c-38.86-8.55-77.72,1.38-106.61,27.25c-9.94,8.89-14.28,22.94-11.33,36.67
									c10.24,47.7,37.08,170.78,65.04,283.23c15.37,61.81,28.99,112.1,40.49,149.45c16.1,52.31,24.51,67.65,27.5,71.93
									c41.1,11.52,133.54,2.22,166.46-2.47c0.04-0.01,0.08-0.01,0.13-0.02c4.37-0.59,440.34-59.23,687.82-59.23
									c247.49,0,683.45,58.64,687.82,59.23c0.04,0.01,0.09,0.01,0.13,0.02c32.93,4.69,125.36,13.99,166.46,2.47
									c2.94-4.2,11.12-19.1,26.68-69.27c11.23-36.18,24.52-84.94,39.52-144.92c26.74-106.95,52.37-223.32,65.27-283.16
									c4.23-19.61-3.12-39.71-18.72-51.21c-29.77-21.95-66.67-28.5-103.88-18.44c-53.32,14.41-99.05,60.28-128.77,129.16
									c-2.67,6.19-8.55,10.4-15.28,10.93c-6.73,0.53-13.19-2.71-16.8-8.41c-30.55-48.26-71.63-81.99-122.1-100.25
									c-90.28-32.67-186.1-16.97-284.83,46.66c-8.45,5.44-19.7,3.01-25.15-5.44c-5.44-8.44-3.01-19.7,5.44-25.15
									c47.85-30.84,96.27-51.6,143.91-61.71c59.18-12.56,117.39-8.71,173.01,11.42c48.62,17.59,89.6,47.47,122.16,89.01
									c34.17-63.52,82.71-106.16,138.92-121.35c47.45-12.83,96.64-3.98,134.97,24.28c27.1,19.98,39.93,54.58,32.7,88.16
									c-13.66,63.4-40.74,186.23-68.6,296.5c-15.79,62.53-29.67,112.35-41.24,148.06c-19.74,60.93-30.34,74.72-43.01,78.84
									c-55.32,18.02-179.39,0.75-185.71-0.15c-6.84-0.92-438.58-58.89-682.89-58.89c-244.35,0-676.05,57.97-682.89,58.89
									C559.25,2632.38,503.76,2640.11,450.61,2640.11z M392.96,2599.56C392.96,2599.56,392.96,2599.56,392.96,2599.56
									C392.96,2599.56,392.96,2599.56,392.96,2599.56z"/>
							</g>
						</g>
					</g>
				</g>
				<g>
					<g>
						<g>
							<g>
								<path class="st6" d="M2076.89,2614.64h32.4c38.04,0,72.53-22.31,88.02-57.05c48.5-108.61,136.93-347.26,54.1-492.89
									c-2.41-4.25-4.99-8.34-7.72-12.26c0,0-79.52-72.33-136.65,29.99C2053.68,2178.02,1941.67,2586.73,2076.89,2614.64z"/>
							</g>
						</g>
					</g>
				</g>
				<g class="st4">
					<g>
						<g>
							<g>
								<path class="st0" d="M2077.79,2150.56c1.43-2.29,2.86-4.45,4.25-6.46c70.24-102.32,168.03-29.99,168.03-29.99
									c3.35,3.92,6.54,8.01,9.48,12.26c9.81,14.02,17.65,28.89,23.78,44.46c-3.96-38.25-13.85-74.41-31.91-106.12
									c-2.41-4.25-4.99-8.34-7.72-12.26c0,0-79.52-72.33-136.65,29.99C2098.38,2097.93,2088.21,2121.59,2077.79,2150.56z"/>
							</g>
						</g>
					</g>
				</g>
				<g>
					<g>
						<g>
							<g>
								<path class="st1" d="M2282.9,2181.74c-0.82,0-1.65-0.07-2.49-0.21l-198.76-33.18c-8.17-1.36-13.69-9.09-12.33-17.27
									c1.36-8.17,9.1-13.69,17.26-12.33l198.76,33.18c8.17,1.36,13.69,9.09,12.33,17.27
									C2296.45,2176.55,2290.1,2181.74,2282.9,2181.74z"/>
							</g>
						</g>
					</g>
				</g>
				<g>
					<g>
						<g>
							<g>
								<path class="st1" d="M2281.63,2289.13c-0.67,0-1.34-0.04-2.02-0.14l-232.51-31.26c-8.21-1.1-13.97-8.65-12.87-16.86
									c1.1-8.21,8.65-13.97,16.87-12.87l232.51,31.26c8.21,1.1,13.97,8.65,12.87,16.86
									C2295.47,2283.66,2289.03,2289.13,2281.63,2289.13z"/>
							</g>
						</g>
					</g>
				</g>
				<g>
					<g>
						<g>
							<g>
								<path class="st1" d="M2261.12,2394.31c-0.61,0-1.22-0.04-1.84-0.11l-236.03-28.89c-8.22-1.01-14.07-8.49-13.07-16.71
									c1.01-8.22,8.48-14.08,16.71-13.07l236.03,28.89c8.22,1.01,14.07,8.49,13.07,16.71
									C2275.06,2388.74,2268.59,2394.31,2261.12,2394.31z"/>
							</g>
						</g>
					</g>
				</g>
				<g>
					<g>
						<g>
							<g>
								<path class="st1" d="M2223.69,2509.02c-0.45,0-0.91-0.02-1.37-0.06l-211.02-19.04c-8.25-0.74-14.33-8.04-13.59-16.29
									c0.74-8.25,8.04-14.34,16.29-13.59l211.02,19.04c8.25,0.74,14.34,8.04,13.59,16.29
									C2237.91,2503.16,2231.36,2509.02,2223.69,2509.02z"/>
							</g>
						</g>
					</g>
				</g>
				<g class="st2">
					<g>
						<g>
							<g>
								<path class="st1" d="M2076.89,2614.64h32.4c38.04,0,72.53-22.31,88.02-57.05c12.54-28.15,27.79-64.97,42.05-106.69
									c-19.45,32.28-58.97,52.75-102.36,52.75h-38.62c-54.96-9.52-75.64-63.42-76.46-134.07
									C2003.34,2488.83,2008.44,2600.51,2076.89,2614.64z"/>
							</g>
						</g>
					</g>
				</g>
				<g>
					<g>
						<g>
							<g>
								<path class="st1" d="M2109.29,2629.64h-32.4c-1.02,0-2.03-0.1-3.03-0.31c-26.19-5.41-45.98-22.39-58.83-50.48
									c-30.29-66.22-15.57-181.59,2.12-266.71c21.62-104.02,55-197.98,76.8-237.02c20.04-35.9,45.29-56.57,75.03-61.42
									c45.62-7.44,83.23,26.21,84.81,27.64c0.83,0.75,1.57,1.6,2.21,2.51c2.99,4.28,5.84,8.81,8.47,13.44
									c37.86,66.56,45.89,157.61,23.88,270.6c-17.9,91.86-51.93,178.94-77.33,235.81
									C2193.15,2603.76,2153.23,2629.64,2109.29,2629.64z M2078.52,2599.64h30.77c32.1,0,61.28-18.9,74.32-48.15
									c24.76-55.45,57.92-140.25,75.28-229.32c20.61-105.75,13.7-189.88-20.51-250.05c-1.86-3.28-3.85-6.48-5.92-9.54
									c-5.62-4.59-31.15-23.85-58.82-19.24c-20.18,3.37-38.18,18.98-53.49,46.41c-20.18,36.14-52.84,128.51-73.62,228.5
									c-23.71,114.11-25.21,202.23-4.21,248.13C2050.84,2585.01,2062.69,2595.91,2078.52,2599.64z"/>
							</g>
						</g>
					</g>
				</g>
				<g>
					<g>
						<g>
							<g>
								<path class="st6" d="M415.76,2614.64h-32.4c-38.04,0-72.53-22.31-88.02-57.05c-48.5-108.61-136.93-347.26-54.1-492.89
									c2.41-4.25,4.99-8.34,7.72-12.26c0,0,79.52-72.33,136.65,29.99C438.97,2178.02,550.97,2586.73,415.76,2614.64z"/>
							</g>
						</g>
					</g>
				</g>
				<g class="st4">
					<g>
						<g>
							<g>
								<path class="st0" d="M414.86,2150.56c-1.43-2.29-2.86-4.45-4.25-6.46c-70.24-102.32-168.03-29.99-168.03-29.99
									c-3.35,3.92-6.54,8.01-9.48,12.26c-9.81,14.02-17.65,28.89-23.78,44.46c3.96-38.25,13.85-74.41,31.91-106.12
									c2.41-4.25,4.99-8.34,7.72-12.26c0,0,79.52-72.33,136.65,29.99C394.26,2097.93,404.44,2121.59,414.86,2150.56z"/>
							</g>
						</g>
					</g>
				</g>
				<g>
					<g>
						<g>
							<g>
								<path class="st1" d="M209.75,2181.74c-7.2,0-13.55-5.2-14.78-12.53c-1.36-8.17,4.15-15.9,12.33-17.27l198.76-33.18
									c8.17-1.36,15.9,4.15,17.26,12.33c1.36,8.17-4.15,15.9-12.33,17.27l-198.76,33.18
									C211.4,2181.68,210.57,2181.74,209.75,2181.74z"/>
							</g>
						</g>
					</g>
				</g>
				<g>
					<g>
						<g>
							<g>
								<path class="st1" d="M211.01,2289.13c-7.4,0-13.84-5.47-14.85-13c-1.1-8.21,4.66-15.76,12.87-16.86L441.55,2228
									c8.22-1.11,15.76,4.66,16.87,12.87c1.1,8.21-4.66,15.76-12.87,16.86L213.03,2289
									C212.35,2289.09,211.68,2289.13,211.01,2289.13z"/>
							</g>
						</g>
					</g>
				</g>
				<g>
					<g>
						<g>
							<g>
								<path class="st1" d="M231.53,2394.31c-7.47,0-13.94-5.57-14.87-13.18c-1.01-8.22,4.84-15.7,13.07-16.71l236.03-28.89
									c8.22-1,15.7,4.84,16.71,13.07c1.01,8.22-4.84,15.7-13.07,16.71l-236.03,28.89
									C232.75,2394.28,232.13,2394.31,231.53,2394.31z"/>
							</g>
						</g>
					</g>
				</g>
				<g>
					<g>
						<g>
							<g>
								<path class="st1" d="M268.96,2509.02c-7.68,0-14.22-5.86-14.92-13.65c-0.74-8.25,5.34-15.54,13.59-16.29l211.02-19.04
									c8.26-0.74,15.54,5.34,16.29,13.59c0.74,8.25-5.34,15.54-13.59,16.29l-211.02,19.04
									C269.87,2509,269.41,2509.02,268.96,2509.02z"/>
							</g>
						</g>
					</g>
				</g>
				<g class="st2">
					<g>
						<g>
							<g>
								<path class="st1" d="M415.76,2614.64h-32.4c-38.04,0-72.53-22.31-88.02-57.05c-12.54-28.15-27.79-64.97-42.05-106.69
									c19.45,32.28,58.97,52.75,102.36,52.75h38.62c54.96-9.52,75.64-63.42,76.46-134.07
									C489.31,2488.83,484.2,2600.51,415.76,2614.64z"/>
							</g>
						</g>
					</g>
				</g>
				<g>
					<g>
						<g>
							<g>
								<path class="st1" d="M415.76,2629.64h-32.4c-43.93,0-83.86-25.88-101.72-65.94c-25.39-56.86-59.43-143.94-77.33-235.8
									c-22.01-112.99-13.98-204.04,23.88-270.61c2.63-4.63,5.48-9.15,8.46-13.43c0.64-0.92,1.38-1.76,2.21-2.51
									c1.58-1.44,39.19-35.08,84.81-27.64c29.74,4.85,54.99,25.52,75.03,61.42c21.8,39.04,55.18,133,76.8,237.02
									c17.69,85.12,32.41,200.49,2.12,266.71c-12.85,28.09-32.64,45.07-58.83,50.48C417.79,2629.54,416.77,2629.64,415.76,2629.64
									z M260.18,2062.59c-2.07,3.05-4.05,6.25-5.91,9.52c-34.22,60.18-41.13,144.3-20.52,250.06
									c17.36,89.08,50.51,173.87,75.28,229.32c13.05,29.26,42.22,48.16,74.32,48.16h30.77c15.83-3.73,27.69-14.63,36.21-33.27
									c20.99-45.9,19.5-134.02-4.21-248.13c-20.78-99.99-53.44-192.36-73.62-228.5c-15.31-27.43-33.31-43.04-53.49-46.41
									C291.39,2038.74,265.87,2057.94,260.18,2062.59z"/>
							</g>
						</g>
					</g>
				</g>
				<g>
					<g>
						<g>
							<g>
								<path class="st1" d="M781.5,2600.95c-2.13,0-4.29-0.5-6.31-1.56c-6.68-3.49-9.26-11.74-5.76-18.42
									c56.97-108.85,57.81-231.27,2.5-363.84c-41.72-99.99-101.46-168.41-102.06-169.09c-4.98-5.65-4.44-14.27,1.21-19.26
									c5.65-4.98,14.27-4.45,19.25,1.2c2.55,2.89,62.94,71.93,106.46,175.87c25.68,61.33,40,122.02,42.58,180.39
									c3.24,73.39-12.16,143.16-45.77,207.38C791.16,2598.29,786.41,2600.95,781.5,2600.95z"/>
							</g>
						</g>
					</g>
				</g>
				<g>
					<g>
						<g>
							<g>
								<path class="st1" d="M1716.69,2600.95c-4.92,0-9.66-2.66-12.1-7.32c-33.61-64.22-49.01-133.99-45.77-207.38
									c2.58-58.37,16.9-119.06,42.58-180.39c43.52-103.94,103.91-172.99,106.46-175.87c4.99-5.65,13.61-6.19,19.26-1.2
									c5.65,4.98,6.19,13.6,1.2,19.25v0c-0.6,0.68-60.34,69.1-102.06,169.09c-55.31,132.58-54.47,254.99,2.5,363.84
									c3.49,6.68,0.91,14.92-5.76,18.42C1720.98,2600.45,1718.82,2600.95,1716.69,2600.95z"/>
							</g>
						</g>
					</g>
				</g>
			</g>
			<g class="st2">
				<g>
					<g>
						<g>
							<path class="st1" d="M1698.43,1290.17c-15.74,18.01-32.29,35.11-49.53,51.17c-40.93,38.11-85.78,70.54-133.76,96.24
								c-81.05,43.48-170.96,67.86-265.65,68.31c-92.51,0.41-180.56-22.06-260.37-62.9c-52.26-26.79-100.97-61.4-145.04-102.65
								c-21.92-20.56-42.71-42.71-62.22-66.31c35.34-10.91,70.45-23.56,102.6-36.07c39.93-96.19,86.5-194.7,140.81-293.21h442.11
								c44.89,81.45,84.5,162.86,119.43,243.04C1620.11,1207.21,1658.45,1243.78,1698.43,1290.17z"/>
						</g>
					</g>
				</g>
			</g>
			<g>
				<g>
					<g>
						<g>
							<g>
								<path class="st0" d="M1921.46,850.96L1921.46,850.96c-7.7,0.83-14.61-4.74-15.44-12.44l-43.15-401.54
									c-0.83-7.7,4.74-14.61,12.44-15.44l0,0c80.77-8.68,153.28,49.76,161.96,130.53L2052,689
									C2060.68,769.77,2002.23,842.28,1921.46,850.96z"/>
							</g>
						</g>
					</g>
					<g>
						<g>
							<g>
								<path class="st1" d="M1919.93,854.5c-3.97,0-7.8-1.34-10.93-3.87c-3.64-2.93-5.91-7.1-6.41-11.74l-43.15-401.54
									c-0.5-4.64,0.84-9.2,3.77-12.83c2.93-3.63,7.1-5.91,11.74-6.41c82.55-8.87,156.9,51.06,165.77,133.6l14.71,136.93
									c4.3,39.98-7.23,79.24-32.47,110.55c-25.23,31.31-61.15,50.92-101.13,55.22l-0.37-3.44l0.37,3.44
									C1921.2,854.47,1920.56,854.5,1919.93,854.5z M1891.14,424.14c-5.11,0-10.26,0.27-15.45,0.83c-2.81,0.3-5.33,1.68-7.1,3.87
									c-1.77,2.2-2.58,4.95-2.28,7.76l43.15,401.54c0.3,2.81,1.68,5.33,3.88,7.1c2.2,1.77,4.95,2.58,7.76,2.28l0,0
									c38.15-4.1,72.41-22.81,96.49-52.68c24.08-29.87,35.08-67.33,30.98-105.48l-14.71-136.93
									C2025.94,478.88,1963.52,424.14,1891.14,424.14z"/>
							</g>
						</g>
					</g>
				</g>
				<g class="st2">
					<g>
						<g>
							<g>
								<path class="st1" d="M2045.1,624.79l6.92,64.22c8.67,80.74-49.77,153.27-130.55,161.98c-7.7,0.84-14.61-4.78-15.44-12.47
									l-11.51-106.74c2.68,4.63,7.92,7.47,13.57,6.91l9.52-1.05C1981.43,730.79,2031.35,684.04,2045.1,624.79z"/>
							</g>
						</g>
					</g>
				</g>
				<g>
					<g>
						<g>
							<g>
								<path class="st1" d="M1919.9,870.29c-7.56,0-14.84-2.56-20.81-7.37c-6.92-5.57-11.25-13.51-12.2-22.34l-43.15-401.54
									c-0.95-8.83,1.6-17.51,7.17-24.43c5.57-6.92,13.51-11.25,22.34-12.2c91.18-9.8,173.35,56.42,183.15,147.61l14.71,136.93
									c4.75,44.17-7.99,87.55-35.87,122.15c-27.88,34.59-67.56,56.26-111.74,61l0,0C1922.31,870.22,1921.1,870.29,1919.9,870.29z
									 M1919.42,831.83c0,0-0.01,0-0.01,0l0,0C1919.41,831.83,1919.41,831.83,1919.42,831.83z M1882.58,440.22l42.01,390.96
									c31.87-4.72,60.37-21,80.71-46.23c21.43-26.59,31.22-59.93,27.57-93.89l-14.71-136.93
									C2010.81,485.77,1950.57,435.66,1882.58,440.22z"/>
							</g>
						</g>
					</g>
				</g>
				<g>
					<g>
						<g>
							<g>
								<path class="st0" d="M549.92,563.97L549.92,563.97c7.7-0.83,14.61,4.74,15.44,12.44l43.15,401.54
									c0.83,7.7-4.74,14.61-12.44,15.44h0c-80.77,8.68-153.28-49.76-161.96-130.53l-14.71-136.93
									C410.7,645.16,469.15,572.65,549.92,563.97z"/>
							</g>
						</g>
					</g>
					<g>
						<g>
							<g>
								<path class="st1" d="M580.23,997.7c-75.86,0.01-141.29-57.37-149.57-134.47L415.95,726.3
									c-8.87-82.54,51.06-156.9,133.6-165.77l0.37,3.44l-0.37-3.44c9.57-1.03,18.21,5.93,19.24,15.51l43.15,401.54
									c1.03,9.58-5.93,18.21-15.51,19.24C591,997.41,585.58,997.7,580.23,997.7z M551.42,567.34c-0.38,0-0.75,0.02-1.14,0.06
									c-78.75,8.46-135.93,79.41-127.46,158.16l14.71,136.93c8.46,78.75,79.4,135.93,158.16,127.47c5.79-0.62,10-5.84,9.38-11.63
									l-43.15-401.54C561.34,571.37,556.74,567.34,551.42,567.34z"/>
							</g>
						</g>
					</g>
				</g>
				<g class="st2">
					<g>
						<g>
							<g>
								<path class="st1" d="M596.57,866.55l11.96,111.4c0.84,7.7-4.78,14.61-12.47,15.44c-42.4,4.54-82.56-9.39-112.38-35.37
									c-26.93-23.46-45.43-56.8-49.56-95.14l-6.2-57.7c28.37,48.16,83.24,77.93,142.46,71.58l14.65-1.58
									C590.37,874.6,594.6,871.15,596.57,866.55z"/>
							</g>
						</g>
					</g>
				</g>
				<g>
					<g>
						<g>
							<g>
								<path class="st1" d="M580.22,1013.48c-83.82,0.01-156.1-63.38-165.25-148.57l-14.71-136.93
									c-9.8-91.19,56.42-173.35,147.61-183.15l0,0c18.22-1.96,34.66,11.28,36.62,29.51l43.15,401.55
									c1.96,18.24-11.28,34.66-29.52,36.62C592.11,1013.17,586.13,1013.48,580.22,1013.48z M546.79,583.76
									c-67.4,10-115.63,71.76-108.28,140.12l14.71,136.93c7.35,68.36,67.59,118.46,135.58,113.91L546.79,583.76z"/>
							</g>
						</g>
					</g>
				</g>
				<g>
					<g>
						<g>
							<g>
								<circle class="st0" cx="1235.77" cy="707.46" r="688.2"/>
							</g>
						</g>
					</g>
					<g>
						<g>
							<g>
								<path class="st1" d="M1235.1,1399.13c-84.38,0-166.81-15.13-245.4-45.08c-83.57-31.84-159.28-79.02-225.05-140.2
									c-65.77-61.19-118.27-133.31-156.06-214.36c-39.12-83.92-60.66-173.78-64.03-267.09c-3.37-93.31,11.64-184.49,44.61-271.01
									c31.84-83.57,79.02-159.28,140.2-225.05S862.69,118.06,943.75,80.27c83.92-39.12,173.78-60.66,267.09-64.03
									c93.31-3.37,184.49,11.64,271.01,44.61c83.57,31.84,159.28,79.02,225.05,140.2c65.77,61.19,118.27,133.31,156.06,214.36
									c39.12,83.92,60.66,173.78,64.03,267.09c3.37,93.31-11.64,184.49-44.61,271.01c-31.84,83.57-79.02,159.28-140.21,225.05
									c-61.19,65.77-133.31,118.27-214.36,156.06c-83.92,39.12-173.78,60.66-267.09,64.03
									C1252.15,1398.97,1243.61,1399.13,1235.1,1399.13z M1236.09,22.7c-8.32,0-16.62,0.15-25.01,0.45
									C833.76,36.77,537.86,354.82,551.47,732.14c6.59,182.78,83.97,352.06,217.88,476.64
									c127.71,118.82,292.28,183.42,465.8,183.43c8.42,0,16.84-0.15,25.3-0.46c182.78-6.59,352.06-83.97,476.64-217.88
									c124.58-133.91,189.56-308.32,182.97-491.1C1906.76,313.83,1602.34,22.7,1236.09,22.7z"/>
							</g>
						</g>
					</g>
				</g>
				<g class="st2">
					<g>
						<g>
							<g>
								<path class="st1" d="M1913.5,587.68c5.5,30.94,8.87,62.64,10.04,94.97c13.65,379.83-283.14,698.85-662.97,712.58
									c-379.83,13.65-698.85-283.14-712.58-662.96c-0.4-10.92-0.54-21.86-0.41-32.65c58.44,333.12,355.01,580.52,702.54,567.99
									C1619.03,1254.28,1909.56,952.99,1913.5,587.68z"/>
							</g>
						</g>
					</g>
				</g>
				<g>
					<g>
						<g>
							<g>
								<path class="st1" d="M1235.09,1414.91c-86.31,0-170.62-15.48-251.01-46.11c-85.47-32.57-162.92-80.82-230.18-143.4
									c-67.26-62.58-120.96-136.35-159.61-219.25c-40.02-85.84-62.05-177.76-65.49-273.19c-3.44-95.43,11.91-188.7,45.64-277.2
									c32.57-85.47,80.82-162.92,143.4-230.18S854.17,104.61,937.08,65.97c85.84-40.02,177.76-62.05,273.19-65.49
									c95.44-3.44,188.7,11.91,277.2,45.64c85.47,32.57,162.92,80.82,230.18,143.4c67.26,62.58,120.96,136.35,159.61,219.25
									c40.02,85.84,62.05,177.76,65.49,273.19c3.44,95.43-11.91,188.7-45.64,277.2c-32.57,85.47-80.82,162.92-143.4,230.18
									c-62.58,67.26-136.35,120.96-219.25,159.61c-85.84,40.02-177.76,62.05-273.19,65.49
									C1252.53,1414.75,1243.79,1414.91,1235.09,1414.91z M1236.09,38.49c-8.13,0-16.24,0.15-24.43,0.44
									c-368.63,13.3-657.71,324.02-644.41,692.65c6.44,178.57,82.04,343.94,212.86,465.66
									c124.77,116.08,285.54,179.2,455.07,179.2c8.22,0,16.46-0.15,24.72-0.45c178.57-6.44,343.94-82.04,465.66-212.86
									s185.2-301.21,178.75-479.78C1891.3,322.9,1593.89,38.49,1236.09,38.49z"/>
							</g>
						</g>
					</g>
				</g>
				<g>
					<g>
						<g>
							<g>
								<path class="st1" d="M1921.97,700.39c6.89,134.49-30.38,261.6-99.75,368.73c-52.01,80.32-275.18,227.66-559.2,244.76
									c-263.35,15.86-510.26-112.34-570.2-186.92c-79.96-99.49-130.01-222.12-136.9-356.61
									c-18.23-355.91,280-519.12,657.25-538.44C1590.4,212.59,1903.74,344.48,1921.97,700.39z"/>
							</g>
						</g>
					</g>
				</g>
				<g>
					<g>
						<g>
							<g>
								<path class="st1" d="M1217.31,1328.47c-130.95,0-244.84-32.64-320.44-61.8c-95.73-36.92-179.88-88.51-214.37-131.43
									c-84.65-105.32-132.99-231.27-139.8-364.22c-4.52-88.22,10.03-168.27,43.22-237.93c31.25-65.56,79.18-122.36,142.48-168.84
									c115.64-84.92,283.03-135.25,484.07-145.54c201.05-10.29,372.7,22.67,496.41,95.33c67.71,39.77,121.2,91.38,158.98,153.41
									c40.14,65.9,62.79,144.05,67.3,232.27v0c6.81,132.95-28.42,263.17-101.86,376.59c-30.51,47.12-106.3,104.88-197.77,150.72
									c-80.35,40.27-210.07,90.32-371.73,100.05C1248.1,1328.02,1232.58,1328.47,1217.31,1328.47z M1283.46,243.3
									c-22.77,0-45.97,0.6-69.63,1.81c-195.87,10.03-358.31,58.6-469.78,140.45C619.6,476.95,560.74,606.19,569.11,769.67
									c6.52,127.36,52.86,248.05,134,349.01c24.14,30.04,91.86,80.36,203.28,123.33c81.97,31.61,210.23,67.45,355.83,58.68
									c157.19-9.47,283.34-58.14,361.48-97.3c104.71-52.48,166.41-109,187.43-141.45c70.4-108.72,104.17-233.51,97.65-360.87v0
									c-8.37-163.48-80.13-286.03-213.27-364.23C1590.66,275.26,1449.21,243.3,1283.46,243.3z"/>
							</g>
						</g>
					</g>
				</g>
				<g class="st7">
					<g>
						<g>
							<g>
								
									<ellipse transform="matrix(0.1277 -0.9918 0.9918 0.1277 822.6941 2262.2593)" class="st0" cx="1697.5" cy="663.41" rx="121.79" ry="88.25"/>
							</g>
						</g>
					</g>
				</g>
				<g class="st7">
					<g>
						<g>
							<g>
								
									<ellipse transform="matrix(0.2636 -0.9646 0.9646 0.2636 301.9836 2215.3066)" class="st0" cx="1601.87" cy="909.87" rx="55.9" ry="47.97"/>
							</g>
						</g>
					</g>
				</g>
				<g class="st2">
					<g>
						<g>
							<g>
								<path class="st8" d="M1772.12,375.16c87.58,75.4,142.5,182.27,149.84,325.21c6.89,134.52-30.4,261.62-99.72,368.75
									c-52.03,80.32-275.22,227.65-559.24,244.79c-100.28,6.07-198.15-8.79-284.27-33.66c348.67-28.5,620.46-209.23,684.96-308.85
									c88.06-135.97,135.35-297.31,126.58-467.97C1787.97,457.81,1781.74,415.1,1772.12,375.16z"/>
							</g>
						</g>
					</g>
				</g>
				<g>
					<g>
						<g>
							<g>
								<path class="st1" d="M591.81,482.73c-3.88,0-7.78-1.21-11.12-3.72c-7.86-5.92-9.67-16.89-4.32-24.98
									c28.56-46.92,65.03-89.8,108.39-127.44c42.22-36.64,91.32-68.63,145.93-95.08c53.47-25.89,112.57-46.63,175.65-61.65
									c62.51-14.88,129.24-24.22,198.36-27.76c67.98-3.48,134.59-1.13,197.98,6.97c63.97,8.18,124.79,22.25,180.76,41.8
									c57.27,20.01,109.67,45.85,155.75,76.8c47.37,31.82,88.34,69.24,121.8,111.23c5.84,6.47,6.44,16.38,0.97,23.58
									c-6.18,8.14-17.79,9.72-25.93,3.54l-1.94-1.44l-1.46-1.86c-123.89-156.16-352.08-237.68-626.04-223.65
									c-275.48,14.11-493.76,121.51-598.88,294.66l-0.48,0.79l-0.63,0.83C602.98,480.18,597.43,482.73,591.81,482.73z"/>
							</g>
						</g>
					</g>
				</g>
				<g class="st7">
					<g>
						<g>
							<g>
								<path class="st0" d="M720.15,974.22c0,0-128.21-345.46,53.85-495.07s454.33-162.98,448.86-145.2
									c0,0-297.65,88.4-403.38,332.7C737.95,855.04,720.15,974.22,720.15,974.22z"/>
							</g>
						</g>
					</g>
				</g>
			</g>
			<g>
				<g>
					<g>
						<g>
							<path class="st1" d="M1978.55,2157.3c-0.41,3.04-0.98,6.28-1.59,9.41c-0.59,3.16-1.28,6.3-1.96,9.45
								c-1.39,6.28-2.92,12.54-4.53,18.77c-3.18,12.48-6.9,24.85-10.4,37.3c-3.47,12.45-6.9,24.93-10.19,37.51l-2.38,9.46
								c-0.85,3.16-1.58,6.33-2.34,9.51l-1.14,4.78l-0.59,2.4l-0.52,2.4c-0.68,3.21-1.42,6.43-2.22,9.68l-0.03,0.11
								c-0.29,1.17-1.47,1.88-2.64,1.59c-0.85-0.21-1.46-0.89-1.62-1.7c-1.29-6.6-2.44-13.32-3-20.02l-0.52-5.05
								c-0.15-1.69-0.21-3.36-0.32-5.04c-0.17-3.36-0.36-6.74-0.45-10.11c-0.29-13.46,0.23-26.91,1.28-40.28
								c1.14-13.35,2.69-26.67,5.3-39.75c1.28-6.55,2.78-13.05,4.57-19.48c0.89-3.21,1.85-6.42,2.9-9.6
								c1.06-3.21,2.18-6.3,3.54-9.57c3.2-7.7,12.04-11.34,19.74-8.14c6.46,2.69,10.06,9.33,9.17,15.95L1978.55,2157.3z"/>
						</g>
					</g>
				</g>
			</g>
			<g>
				<g>
					<g>
						<g>
							<path class="st1" d="M544.24,2149.06c1.36,3.27,2.48,6.36,3.54,9.57c1.06,3.18,2.01,6.39,2.9,9.6
								c1.79,6.43,3.29,12.93,4.57,19.48c2.61,13.09,4.15,26.4,5.3,39.75c1.06,13.37,1.57,26.82,1.28,40.28
								c-0.09,3.37-0.29,6.75-0.45,10.11c-0.11,1.68-0.17,3.36-0.32,5.04l-0.52,5.05c-0.56,6.7-1.72,13.42-3,20.02
								c-0.23,1.18-1.38,1.95-2.56,1.72c-0.86-0.17-1.5-0.82-1.7-1.61l-0.03-0.11c-0.81-3.25-1.54-6.48-2.22-9.68l-0.52-2.4
								l-0.59-2.4l-1.14-4.78c-0.76-3.18-1.49-6.34-2.34-9.51l-2.38-9.46c-3.29-12.58-6.73-25.06-10.19-37.51
								c-3.51-12.45-7.23-24.82-10.4-37.3c-1.61-6.24-3.14-12.49-4.53-18.77c-0.67-3.15-1.36-6.29-1.96-9.45
								c-0.61-3.13-1.18-6.37-1.59-9.41l-0.06-0.41c-1.12-8.26,4.68-15.87,12.94-16.99C535.21,2138.96,541.67,2142.9,544.24,2149.06
								z"/>
						</g>
					</g>
				</g>
			</g>
			<g>
				<g>
					<g>
						<g>
							<g>
								<path class="st9" d="M1859.47,2654.24H638.91c-39.52,0-71.56-32.04-71.56-71.56l0,0c0-22.77,18.46-41.23,41.23-41.23H1889.8
									c22.77,0,41.23,18.46,41.23,41.23l0,0C1931.03,2622.21,1898.99,2654.24,1859.47,2654.24z"/>
							</g>
						</g>
					</g>
				</g>
				<g class="st10">
					<g>
						<g>
							<g>
								<path class="st0" d="M1931.01,2582.69c0,7.82-1.27,15.33-3.59,22.38c-6.41-14.42-20.83-24.42-37.61-24.42H608.59
									c-11.37,0-21.69,4.59-29.15,12.1c-3.55,3.55-6.46,7.69-8.5,12.33c-2.32-7.05-3.59-14.55-3.59-22.38
									c0-11.37,4.59-21.69,12.1-29.15c7.46-7.5,17.78-12.1,29.15-12.1h1281.21C1912.59,2541.44,1931.01,2559.9,1931.01,2582.69z"
									/>
							</g>
						</g>
					</g>
				</g>
				<g class="st2">
					<g>
						<g>
							<g>
								<path class="st1" d="M1931.01,2582.69c0,19.74-8,37.66-20.97,50.57c-12.92,12.96-30.84,20.97-50.57,20.97H638.93
									c-39.52,0-71.59-32.02-71.59-71.54c0-7.6,2.05-14.74,5.68-20.88c10.82,25.61,36.29,43.62,65.9,43.62h1220.54
									c19.74,0,37.66-8,50.57-20.97c6.46-6.46,11.69-14.14,15.28-22.65C1928.97,2567.95,1931.01,2575.09,1931.01,2582.69z"/>
							</g>
						</g>
					</g>
				</g>
				<g>
					<g>
						<g>
							<g>
								<path class="st1" d="M1859.47,2672.44H638.91c-49.49,0-89.75-40.26-89.75-89.75c0-32.76,26.66-59.42,59.42-59.42H1889.8
									c32.76,0,59.42,26.66,59.42,59.42C1949.22,2632.17,1908.96,2672.44,1859.47,2672.44z M608.57,2559.65
									c-12.7,0-23.04,10.33-23.04,23.04c0,29.43,23.94,53.37,53.37,53.37h1220.57c29.43,0,53.37-23.94,53.37-53.37
									c0-12.7-10.33-23.04-23.04-23.04H608.57z"/>
							</g>
						</g>
					</g>
				</g>
				<g>
					<g>
						<g>
							<g>
								<path class="st11" d="M2002.28,1735.8l-119.38,805.63H615.51l-4.32-29.15L496.07,1735.8
									c-3.77-25.51,16.01-48.39,41.75-48.39h1422.7C1986.32,1687.41,2006.05,1710.29,2002.28,1735.8z"/>
							</g>
						</g>
					</g>
				</g>
				<g>
					<g>
						<g>
							<g>
								<path class="st9" d="M2002.28,1735.8l-119.38,805.63H615.51l-4.32-29.15L496.07,1735.8c-3.77-25.51,16.01-48.39,41.75-48.39
									h1422.7C1986.32,1687.41,2006.05,1710.29,2002.28,1735.8z"/>
							</g>
						</g>
					</g>
				</g>
				<g class="st7">
					<g>
						<g>
							<g>
								<path class="st0" d="M541.07,1785.81c-3.77-25.51,16.01-48.39,41.75-48.39h1419.22l0.24-1.61
									c3.77-25.51-15.96-48.39-41.75-48.39H537.83c-25.74,0-45.52,22.88-41.75,48.39l115.11,776.48l4.32,29.15h37.59
									L541.07,1785.81z"/>
							</g>
						</g>
					</g>
				</g>
				<g>
					<g class="st2">
						<g>
							<g>
								<g>
									<path class="st1" d="M1920.53,1687.41h-99.9c37.88,138.78,16.98,452.16-227.4,615.94
										c-306.78,205.6-859.66,204.29-977.04,208.93l4.32,29.15h1222.39l119.38-805.63
										C1966.05,1710.29,1946.32,1687.41,1920.53,1687.41z"/>
								</g>
							</g>
						</g>
					</g>
				</g>
				<g>
					<g>
						<g>
							<g>
								<path class="st1" d="M1898.57,2559.65H599.81l-121.71-821.19c-2.58-17.39,2.53-34.99,14.01-48.3
									c11.48-13.31,28.15-20.94,45.72-20.94h1422.72c17.58,0,34.24,7.63,45.72,20.94c11.48,13.31,16.59,30.91,14.01,48.3
									L1898.57,2559.65z M631.2,2523.26h1235.98l117.11-790.14c1.04-7.01-0.94-13.83-5.57-19.2c-4.63-5.37-11.08-8.32-18.17-8.32
									H537.83c-7.09,0-13.54,2.96-18.17,8.32c-4.63,5.37-6.61,12.19-5.57,19.2L631.2,2523.26z"/>
							</g>
						</g>
					</g>
				</g>
				<g class="st10">
					<g>
						<g>
							<g>
								<path class="st0" d="M716.39,2353.21c-48.08-105.98-83.09-286.89-75.2-393.36c7.89-106.47,69.64-73.89,88.78,62.49
									C780.9,2385.3,737.85,2400.53,716.39,2353.21z"/>
							</g>
						</g>
					</g>
				</g>
				<g>
					<g>
						<g>
							<g>
								<g>
									<path class="st1" d="M1414.77,2023.02c1.55-13.6,3.35-27.35,0.68-41.18c-1.19-1.5-2.28-3.04-3.47-4.54
										c-3.94-1.42-7.77-3.27-11.87-4.3c-28.84-7.45-58.08-10.4-87.78-7.84c-38.73,3.34-74.28,15.29-104.85,39.91
										c-11.07,8.88-21.16,18.91-31.49,28.64c-2.77,2.64-4.9,3.74-8.79,1.96c-9.15-4.16-19.01-6.02-29.02-6.52
										c-26.85-1.22-50.81,7.46-73.16,21.49c-24.22,15.26-43.74,35.65-61.92,57.48c-7.74,9.25-4.73,19.56,6.79,23.45
										c7.27,2.37,14.54,4.7,21.81,7.08c17.42,5.64,34.8,11.23,52.17,16.86c-0.04,0.54,0.01,0.82-0.07,1.09
										c-0.14,0.34-0.29,0.73-0.53,1.06c-7.25,9.32-5.49,17.94,2.15,26.04c0.82,0.9,1.53,1.97,2.25,2.94
										c4,5.26,8.09,10.58,12.33,16.06c-5.79,4.47-11.48,8.27-16.51,12.86c-2.54,2.31-4.78,5.67-5.74,9
										c-1.63,5.37,1.15,10.86,5.93,13.68c5.07,3.05,10.29,2.92,15.01-0.48c5.99-4.26,11.71-8.88,17.8-13.53
										c5.75,7.58,11.2,14.75,16.67,21.83c6.27,8.07,10.59,9.45,20.31,6.76c1.77-0.55,3.52-0.93,5.61-1.44
										c0.14,2.08,0.3,3.75,0.39,5.31c1.24,25.12,2.38,50.28,3.76,75.33c0.63,11.88,10.01,17.49,20.74,12.4
										c9.69-4.57,19.37-9.41,28.87-14.56c21.89-11.91,41.81-26.49,57.7-45.88c19.89-24.4,30.9-51.65,25.75-83.85
										c-0.22-1.27,0.84-3.44,1.94-4.09c9.76-6.29,19.78-12.18,29.55-18.52c22.08-14.39,39.83-33.09,53.71-55.43
										C1400.35,2091.72,1410.76,2058.4,1414.77,2023.02z M1098.24,2131.72c-20.11-6.55-40.96-13.35-62.38-20.32
										c22.13-23.52,45.55-44.06,77.09-52.73c13.63-3.75,29.38-3.43,38.68,0.35C1133.97,2083.13,1116.27,2107.22,1098.24,2131.72z
										 M1267.39,2235.09c-5.11,16.31-14.87,29.59-26.89,41.43c-14.94,14.55-32.33,25.41-51.13,35.31
										c-1.13-23.1-2.29-45.7-3.43-67.83c28.43-11.06,56.23-21.85,84.17-32.71C1271.19,2218.99,1269.87,2227.15,1267.39,2235.09z
										 M1372.37,2080.43c-9.15,21.59-21.15,41.25-38.27,57.53c-13.21,12.49-28.19,22.51-43.97,31.42
										c-42.78,24.15-88.63,40.8-135.51,54.88c-2.29,0.66-3.69,0.54-5.2-1.56c-3.27-4.65-6.94-9.13-10.4-13.72
										c-0.23-0.26-0.31-0.69-0.64-1.51c1.2-0.96,2.48-1.91,3.77-2.9c26.75-20.54,53.63-41.01,80.39-61.59
										c7.73-5.87,8.07-15.96,0.91-21.78c-5-4.09-11.59-4.03-17.36,0.31c-16.1,12.28-32.16,24.56-48.22,36.89
										c-11.98,9.16-23.86,18.28-36.3,27.82c-4.27-5.58-8.39-10.67-12.11-16.03c-0.63-0.96,0.01-3.38,0.87-4.57
										c14.26-21.28,28.4-42.67,43.24-63.58c14.68-20.76,31.37-39.94,49.73-57.54c17.21-16.63,35.87-31.31,58.42-40.06
										c14.46-5.63,29.38-9.46,44.79-11.11c1.4-0.2,3.43,1.2,4.42,2.49c15.67,20.26,31.15,40.55,46.68,60.88
										c4.66,6.05,9.26,12.22,14.06,18.2C1373.11,2076.7,1373.29,2078.24,1372.37,2080.43z M1381.66,2052.09
										c-15.48-20.28-30.6-40.01-45.74-59.83c0.02-0.45,0.15-0.98,0.22-1.47c17.63,2.11,35.3,4.27,53.15,6.41
										C1388.96,2016.43,1386.12,2034.04,1381.66,2052.09z"/>
								</g>
							</g>
						</g>
					</g>
					<g>
						<g>
							<g>
								<g>
									<path class="st0" d="M1371.69,2074.89c-4.81-5.98-9.4-12.15-14.06-18.2c-15.52-20.33-31.01-40.62-46.68-60.88
										c-0.99-1.29-3.02-2.69-4.42-2.49c-15.41,1.65-30.33,5.48-44.79,11.11c-22.56,8.75-41.21,23.43-58.42,40.06
										c-18.36,17.6-35.05,36.78-49.73,57.54c-14.84,20.92-28.98,42.31-43.24,63.58c-0.86,1.19-1.5,3.61-0.87,4.57
										c3.71,5.36,7.83,10.45,12.11,16.03c12.44-9.54,24.32-18.67,36.3-27.82c16.06-12.33,32.12-24.62,48.22-36.89
										c5.77-4.34,12.35-4.39,17.36-0.31c7.16,5.83,6.83,15.92-0.91,21.78c-26.76,20.58-53.64,41.05-80.39,61.59
										c-1.29,0.99-2.58,1.94-3.77,2.9c0.33,0.83,0.41,1.25,0.64,1.51c3.46,4.59,7.13,9.07,10.4,13.72
										c1.51,2.1,2.91,2.22,5.2,1.56c46.88-14.08,92.73-30.73,135.51-54.88c15.77-8.9,30.76-18.93,43.97-31.42
										c17.11-16.28,29.12-35.94,38.27-57.53C1373.29,2078.24,1373.11,2076.7,1371.69,2074.89z M1324.74,2105.85
										c-20.45,15.41-49.39,11.64-64.75-8.53c-15.46-20.14-11.56-49.06,8.7-64.68c19.89-15.32,48.84-11.36,64.35,8.79
										C1348.37,2061.46,1344.63,2090.81,1324.74,2105.85z"/>
								</g>
							</g>
						</g>
					</g>
					<g>
						<g>
							<g>
								<g>
									<path class="st12" d="M1381.66,2052.08c-15.49-20.25-30.61-40-45.74-59.82c0.05-0.47,0.15-0.96,0.22-1.47
										c17.63,2.13,35.31,4.28,53.18,6.42C1388.98,2016.41,1386.11,2034.04,1381.66,2052.08z"/>
								</g>
							</g>
						</g>
					</g>
					<g>
						<g>
							<g>
								<g>
									<path class="st12" d="M1151.64,2059.03c-17.68,24.07-35.38,48.19-53.39,72.71c-20.14-6.59-40.99-13.37-62.4-20.33
										c22.15-23.55,45.56-44.09,77.1-52.74C1126.58,2054.91,1142.31,2055.24,1151.64,2059.03z"/>
								</g>
							</g>
						</g>
					</g>
					<g>
						<g>
							<g>
								<g>
									<path class="st12" d="M1240.48,2276.52c-14.93,14.56-32.3,25.43-51.12,35.31c-1.14-23.08-2.29-45.68-3.42-67.83
										c28.43-11.05,56.22-21.83,84.2-32.72c1.07,7.72-0.28,15.86-2.73,23.83C1262.3,2251.42,1252.54,2264.69,1240.48,2276.52z"/>
								</g>
							</g>
						</g>
					</g>
					<g>
						<g>
							<g>
								<g>
									<path class="st1" d="M1333.03,2041.43c-15.5-20.15-44.46-24.1-64.35-8.79c-20.26,15.63-24.16,44.54-8.7,64.68
										c15.36,20.17,44.3,23.94,64.75,8.53C1344.63,2090.81,1348.37,2061.46,1333.03,2041.43z M1310.95,2088.84
										c-10.36,7.85-25.58,5.78-33.65-4.57c-8.35-10.67-6.07-26.35,4.98-34.55c10.35-7.76,25.86-5.51,33.65,4.89
										C1324.07,2065.43,1321.83,2080.62,1310.95,2088.84z"/>
								</g>
							</g>
						</g>
					</g>
					<g>
						<g>
							<g>
								<g>
									<path class="st12" d="M1310.94,2088.84c-10.36,7.85-25.58,5.78-33.67-4.59c-8.31-10.65-6.06-26.33,4.99-34.53
										c10.37-7.74,25.86-5.52,33.65,4.87C1324.05,2065.42,1321.84,2080.63,1310.94,2088.84z"/>
								</g>
							</g>
						</g>
					</g>
				</g>
			</g>
			<g>
				<g>
					<g>
						<g>
							<path class="st0" d="M1995.99,1778.31c0,0-98.22-46.61-190.46-4.8c-88.33,40.04-150.82,325.1-36.38,397.31
								c70.63,44.57,118.71,5.2,158.67,16.76C1987.09,2204.72,2108.69,1911.21,1995.99,1778.31z"/>
						</g>
					</g>
				</g>
			</g>
			<g class="st2">
				<g>
					<g>
						<g>
							<path class="st1" d="M2040.3,1963.82c-11.64,119.48-74.72,234.68-112.47,223.76c-39.98-11.55-88.05,27.83-158.68-16.74
								c-54.67-34.52-68.95-117.56-59.31-199.34c6.5,47.71,24.92,88.59,59.31,110.29c70.63,44.52,117.66,23.83,158.68,16.74
								C1978.54,2089.75,2019.88,2034.36,2040.3,1963.82z"/>
						</g>
					</g>
				</g>
			</g>
			<g>
				<g>
					<g>
						<g>
							<path class="st1" d="M1841.57,2210.81c-23.83,0-51.41-5.21-82.14-24.6c-27.51-17.36-47.38-45.45-59.05-83.49
								c-9.8-31.92-13.46-70.82-10.6-112.49c3.39-49.35,15.53-99.98,34.16-142.56c14.24-32.53,38.65-74.68,74.06-90.73
								c98.79-44.78,201.45,2.88,205.77,4.93l3.54,1.68l2.53,2.99c51.58,60.82,54.56,144.85,47.97,204.62
								c-7.42,67.35-31.19,138.79-62.04,186.45c-30.9,47.73-56.77,52.15-73.03,47.45c-10.55-3.05-23.88-0.92-39.32,1.55
								C1871.22,2208.57,1857.2,2210.81,1841.57,2210.81z M1889.6,1774.24c-27.65,0-53.28,5.29-76.56,15.85
								c-19.15,8.68-39.48,34.99-55.75,72.18c-16.76,38.28-28.13,85.83-31.2,130.47c-5.42,78.82,13.81,138.13,52.76,162.71
								c39.27,24.78,69.56,19.93,98.84,15.24c18.93-3.03,36.81-5.89,55.18-0.58c2.11,0.37,17.25-5.47,38.6-42.46
								c49.79-86.25,81.37-249.14,13.25-334.41c-7.72-3.21-27.59-10.76-53.59-15.28C1916.84,1775.48,1902.98,1774.24,1889.6,1774.24
								z"/>
						</g>
					</g>
				</g>
			</g>
		</g>
		<g>
			<g>
				<g>
					<g>
						<g>
							<path class="st12" d="M2270.67,740.66c-35.03-36.21-58.94-83.74-65.32-137.63c-15.49-130.81,77.99-249.41,208.8-264.9
								c130.81-15.49,249.41,77.99,264.9,208.8c15.49,130.81-77.99,249.41-208.8,264.9c-36.38,4.31-71.81,0.16-104.35-10.85
								l-102.3,48.26L2270.67,740.66z"/>
						</g>
					</g>
				</g>
			</g>
			<g class="st7">
				<g>
					<g>
						<g>
							<g>
								<path class="st0" d="M2419.54,383.68c-122.19,14.47-211.79,118.92-210.44,239.24c-1.87-8.2-3.36-16.56-4.38-25.09
									c-15.49-130.81,77.99-249.41,208.8-264.9c130.81-15.49,249.41,77.99,264.9,208.8c1.02,8.58,1.54,17.09,1.64,25.54
									C2653.32,449.9,2541.77,369.21,2419.54,383.68z"/>
							</g>
						</g>
					</g>
				</g>
			</g>
			<g>
				<g>
					<g>
						<g>
							<path class="st1" d="M2263.59,866.74c-3.46,0-6.9-1.02-9.85-3.03c-5.12-3.49-8.02-9.42-7.62-15.61l6.59-101.01
								c-36.07-39.59-58.41-88.52-64.75-142.01c-8.04-67.91,10.84-134.88,53.17-188.59c42.33-53.7,103.04-87.71,170.95-95.75
								c67.91-8.04,134.88,10.84,188.58,53.17c53.7,42.33,87.71,103.04,95.75,170.95c8.04,67.91-10.84,134.88-53.17,188.58
								c-42.33,53.7-103.04,87.71-170.95,95.75c-35.75,4.23-71.11,1.05-105.2-9.45l-96.04,45.31
								C2268.68,866.19,2266.13,866.74,2263.59,866.74z M2442.35,353.96c-8.64,0-17.36,0.51-26.15,1.55
								c-58.62,6.94-111.03,36.3-147.58,82.66c-36.54,46.36-52.85,104.18-45.9,162.8c5.73,48.42,26.66,92.52,60.52,127.52
								c3.43,3.55,5.21,8.38,4.88,13.31l-5.15,78.95l75.44-35.59c4.1-1.93,8.79-2.2,13.08-0.75c31.22,10.57,63.75,13.95,96.69,10.05
								c121.02-14.33,207.81-124.45,193.48-245.46C2648.37,436.76,2552.7,353.96,2442.35,353.96z"/>
						</g>
					</g>
				</g>
			</g>
			<g class="st10">
				<g>
					<g>
						<g>
							<path class="st1" d="M2268.86,738.72c75.82,39.65,168.93,43.61,251.28,2.38c91.33-45.72,146.11-135.32,151.74-230.45
								c3.27,11.72,5.69,23.82,7.16,36.28c15.49,130.81-77.99,249.41-208.8,264.9c-36.38,4.31-71.81,0.16-104.35-10.85l-102.3,48.26
								l7.08-108.58C2270.05,740.02,2269.47,739.36,2268.86,738.72z"/>
						</g>
					</g>
				</g>
			</g>
			<g>
				<g>
					<g>
						<g>
							<path class="st0" d="M2366.76,508L2366.76,508c20.64-20.64,54.11-16.94,74.75,3.7l3.21,3.21l3.21-3.21
								c20.64-20.64,54.11-24.34,74.75-3.7l0,0c20.64,20.64,20.64,54.11,0,74.75l-3.21,3.21l-64.89,64.89
								c-5.44,5.44-14.26,5.44-19.71,0l-64.89-64.89l-3.21-3.21C2346.12,562.1,2346.12,528.64,2366.76,508z"/>
						</g>
					</g>
				</g>
			</g>
		</g>
	</g>
</g>
</svg>
