<?xml version="1.0" encoding="utf-8"?>
<!-- Generator: Adobe Illustrator 24.0.0, SVG Export Plug-In . SVG Version: 6.00 Build 0)  -->
<svg version="1.1" id="Layer_1" xmlns="http://www.w3.org/2000/svg" xmlns:xlink="http://www.w3.org/1999/xlink" x="0px" y="0px"
	 viewBox="0 0 2638.05 3251.37" style="enable-background:new 0 0 2638.05 3251.37;" xml:space="preserve">
<style type="text/css">
	.st0{opacity:0.25;}
	.st1{fill:#371A45;}
	.st2{fill:#7E354D;}
	.st3{opacity:0.6;}
	.st4{fill:#FFFFFF;}
	.st5{fill:#A0A3A8;}
	.st6{opacity:0.7;}
	.st7{fill:#111A28;}
	.st8{opacity:0.5;}
</style>
<g>
	<g>
		<g class="st0">
			<ellipse class="st1" cx="1381" cy="3166.52" rx="1081.71" ry="84.85"/>
		</g>
		<g>
			<g>
				<path class="st2" d="M1343.29,3160.56L1343.29,3160.56c-86.67,0-157.58-70.91-157.58-157.58v0
					c0-86.67,70.91-157.58,157.58-157.58h0c86.67,0,157.58,70.91,157.58,157.58v0C1500.88,3089.65,1429.96,3160.56,1343.29,3160.56z
					"/>
			</g>
			<g class="st3">
				<path class="st4" d="M1269.4,2908.27c-28.58,28.58-46.31,68-46.31,111.32c0,56.78,30.45,106.78,75.8,134.56
					c-65.22-19.28-113.19-79.86-113.19-151.17c0-43.38,17.73-82.74,46.31-111.32c28.53-28.52,67.95-46.26,111.27-46.26
					c29.86,0,57.9,8.44,81.78,23.02c-14.1-4.17-29.01-6.41-44.39-6.41C1337.35,2862.01,1297.92,2879.74,1269.4,2908.27z"/>
			</g>
			<g>
				<path class="st1" d="M1344.47,3072.78L1344.47,3072.78c-37.9,0-68.91-31.01-68.91-68.91v0c0-37.9,31.01-68.91,68.91-68.91h0
					c37.9,0,68.91,31.01,68.91,68.91v0C1413.38,3041.77,1382.37,3072.78,1344.47,3072.78z"/>
			</g>
			<g class="st3">
				<path class="st4" d="M1425.06,3012.76c0,18.94-7.74,36.19-20.27,48.68c-12.45,12.49-29.7,20.23-48.64,20.23
					c-18.18,0-34.81-7.16-47.17-18.76c10.4,6.27,22.54,9.87,35.48,9.87c18.98,0,36.19-7.74,48.68-20.23
					c12.49-12.49,20.23-29.74,20.23-48.68c0-18.94-7.74-36.19-20.23-48.68c-0.49-0.49-0.98-0.98-1.51-1.47
					c4.8,2.93,9.2,6.4,13.16,10.36C1417.32,2976.57,1425.06,2993.82,1425.06,3012.76z"/>
			</g>
			<g>
				<path class="st1" d="M1343.29,3181.93c-98.67,0-178.95-80.28-178.95-178.95c0-98.67,80.27-178.95,178.95-178.95
					c98.67,0,178.95,80.28,178.95,178.95C1522.24,3101.65,1441.96,3181.93,1343.29,3181.93z M1343.29,2866.76
					c-75.11,0-136.21,61.11-136.21,136.21c0,75.11,61.1,136.22,136.21,136.22c75.11,0,136.22-61.11,136.22-136.22
					C1479.51,2927.87,1418.4,2866.76,1343.29,2866.76z"/>
			</g>
			<g>
				<path class="st5" d="M1470.62,2843.63c0,25.05-3.74,47.06-10.26,65.92c-43.32,125.16-209.77,115.59-234.24-28.63
					c-1.98-11.54-3.04-23.98-3.04-37.29H1470.62z"/>
			</g>
			<g>
				<path class="st1" d="M1346.86,3018.11c-72.11,0-145.12-59.94-145.12-174.5c0-11.8,9.57-21.37,21.37-21.37
					s21.37,9.57,21.37,21.37c0,90.53,53.07,131.77,102.38,131.77c49.31,0,102.38-41.24,102.38-131.77c0-11.8,9.57-21.37,21.37-21.37
					s21.37,9.57,21.37,21.37C1491.97,2958.17,1418.97,3018.11,1346.86,3018.11z"/>
			</g>
			<g class="st0">
				<path class="st1" d="M1470.62,2843.63c0,25.05-3.74,47.06-10.26,65.92l-234.24-28.63c-1.98-11.54-3.04-23.98-3.04-37.29H1470.62
					z"/>
			</g>
		</g>
		<g>
			<path class="st4" d="M909.16,1605.57c0,0-21.91,94.44-103.32,188.83c-17.17,19.91-76.84,20.36-95.17,41.57
				c-118.13,136.76-251.27,290.14-284.25,325.03c-19.07,20.14-50.27,22.65-72.27,5.77l-212.87-163.14l-79.16-60.68
				c-11.38-8.71-16.88-23.18-13.89-37.23c27.3-129.64,129.86-159.5,251.06-111.32c126.97-229.96,282.47-308.01,462.33-256.46
				C809.11,1551.57,858.36,1574.27,909.16,1605.57z"/>
		</g>
		<g>
			<g>
				<path class="st2" d="M1912.27,3160.56L1912.27,3160.56c-86.67,0-157.58-70.91-157.58-157.58v0
					c0-86.67,70.91-157.58,157.58-157.58h0c86.67,0,157.58,70.91,157.58,157.58v0C2069.85,3089.65,1998.94,3160.56,1912.27,3160.56z
					"/>
			</g>
			<g class="st3">
				<path class="st4" d="M1838.37,2908.27c-28.58,28.58-46.31,68-46.31,111.32c0,56.78,30.45,106.78,75.8,134.56
					c-65.22-19.28-113.19-79.86-113.19-151.17c0-43.38,17.73-82.74,46.31-111.32c28.53-28.52,67.95-46.26,111.27-46.26
					c29.86,0,57.9,8.44,81.78,23.02c-14.1-4.17-29.01-6.41-44.39-6.41C1906.32,2862.01,1866.9,2879.74,1838.37,2908.27z"/>
			</g>
			<g>
				<path class="st1" d="M1913.45,3072.78L1913.45,3072.78c-37.9,0-68.91-31.01-68.91-68.91v0c0-37.9,31.01-68.91,68.91-68.91h0
					c37.9,0,68.91,31.01,68.91,68.91v0C1982.36,3041.77,1951.35,3072.78,1913.45,3072.78z"/>
			</g>
			<g class="st3">
				<path class="st4" d="M1994.03,3012.76c0,18.94-7.74,36.19-20.27,48.68c-12.45,12.49-29.7,20.23-48.64,20.23
					c-18.18,0-34.81-7.16-47.17-18.76c10.4,6.27,22.54,9.87,35.48,9.87c18.98,0,36.19-7.74,48.68-20.23
					c12.49-12.49,20.23-29.74,20.23-48.68c0-18.94-7.74-36.19-20.23-48.68c-0.49-0.49-0.98-0.98-1.51-1.47
					c4.8,2.93,9.2,6.4,13.16,10.36C1986.3,2976.57,1994.03,2993.82,1994.03,3012.76z"/>
			</g>
			<g>
				<path class="st1" d="M1912.27,3181.93c-98.67,0-178.95-80.28-178.95-178.95c0-98.67,80.27-178.95,178.95-178.95
					s178.95,80.28,178.95,178.95C2091.22,3101.65,2010.94,3181.93,1912.27,3181.93z M1912.27,2866.76
					c-75.11,0-136.21,61.11-136.21,136.21c0,75.11,61.1,136.22,136.21,136.22s136.22-61.11,136.22-136.22
					C2048.48,2927.87,1987.37,2866.76,1912.27,2866.76z"/>
			</g>
			<g>
				<path class="st5" d="M2039.6,2843.63c0,25.05-3.74,47.06-10.26,65.92c-43.32,125.16-209.77,115.59-234.24-28.63
					c-1.98-11.54-3.04-23.98-3.04-37.29H2039.6z"/>
			</g>
			<g>
				<path class="st1" d="M1915.83,3018.11c-72.11,0-145.12-59.94-145.12-174.5c0-11.8,9.57-21.37,21.37-21.37
					s21.37,9.57,21.37,21.37c0,90.53,53.07,131.77,102.38,131.77s102.38-41.24,102.38-131.77c0-11.8,9.57-21.37,21.37-21.37
					c11.8,0,21.37,9.57,21.37,21.37C2060.95,2958.17,1987.94,3018.11,1915.83,3018.11z"/>
			</g>
			<g class="st0">
				<path class="st1" d="M2039.6,2843.63c0,25.05-3.74,47.06-10.26,65.92l-234.24-28.63c-1.98-11.54-3.04-23.98-3.04-37.29H2039.6z"
					/>
			</g>
		</g>
		<g>
			<g>
				<path class="st2" d="M1221.65,3160.56L1221.65,3160.56c-86.67,0-157.58-70.91-157.58-157.58v0
					c0-86.67,70.91-157.58,157.58-157.58h0c86.67,0,157.58,70.91,157.58,157.58v0C1379.23,3089.65,1308.32,3160.56,1221.65,3160.56z
					"/>
			</g>
			<g class="st3">
				<path class="st4" d="M1147.75,2908.27c-28.58,28.58-46.31,68-46.31,111.32c0,56.78,30.45,106.78,75.8,134.56
					c-65.22-19.28-113.19-79.86-113.19-151.17c0-43.38,17.73-82.74,46.31-111.32c28.53-28.52,67.95-46.26,111.27-46.26
					c29.86,0,57.9,8.44,81.78,23.02c-14.1-4.17-29.01-6.41-44.39-6.41C1215.7,2862.01,1176.28,2879.74,1147.75,2908.27z"/>
			</g>
			<g>
				<path class="st1" d="M1222.82,3072.78L1222.82,3072.78c-37.9,0-68.91-31.01-68.91-68.91v0c0-37.9,31.01-68.91,68.91-68.91h0
					c37.9,0,68.91,31.01,68.91,68.91v0C1291.73,3041.77,1260.72,3072.78,1222.82,3072.78z"/>
			</g>
			<g class="st3">
				<path class="st4" d="M1303.41,3012.76c0,18.94-7.74,36.19-20.27,48.68c-12.45,12.49-29.7,20.23-48.64,20.23
					c-18.18,0-34.81-7.16-47.17-18.76c10.4,6.27,22.54,9.87,35.48,9.87c18.98,0,36.19-7.74,48.68-20.23
					c12.49-12.49,20.23-29.74,20.23-48.68c0-18.94-7.74-36.19-20.23-48.68c-0.49-0.49-0.98-0.98-1.51-1.47
					c4.8,2.93,9.2,6.4,13.16,10.36C1295.68,2976.57,1303.41,2993.82,1303.41,3012.76z"/>
			</g>
			<g>
				<path class="st1" d="M1221.65,3181.93c-98.67,0-178.95-80.28-178.95-178.95c0-98.67,80.28-178.95,178.95-178.95
					s178.95,80.28,178.95,178.95C1400.6,3101.65,1320.32,3181.93,1221.65,3181.93z M1221.65,2866.76
					c-75.11,0-136.22,61.11-136.22,136.21c0,75.11,61.11,136.22,136.22,136.22s136.22-61.11,136.22-136.22
					C1357.86,2927.87,1296.75,2866.76,1221.65,2866.76z"/>
			</g>
			<g>
				<path class="st5" d="M1348.98,2843.63c0,25.05-3.74,47.06-10.26,65.92c-43.32,125.16-209.77,115.59-234.24-28.63
					c-1.98-11.54-3.04-23.98-3.04-37.29H1348.98z"/>
			</g>
			<g>
				<path class="st1" d="M1225.21,3018.11c-72.11,0-145.12-59.94-145.12-174.5c0-11.8,9.57-21.37,21.37-21.37
					s21.37,9.57,21.37,21.37c0,90.53,53.07,131.77,102.38,131.77c49.32,0,102.39-41.24,102.39-131.77c0-11.8,9.57-21.37,21.37-21.37
					s21.37,9.57,21.37,21.37C1370.33,2958.17,1297.32,3018.11,1225.21,3018.11z"/>
			</g>
			<g class="st0">
				<path class="st1" d="M1348.98,2843.63c0,25.05-3.74,47.06-10.26,65.92l-234.24-28.63c-1.98-11.54-3.04-23.98-3.04-37.29H1348.98
					z"/>
			</g>
		</g>
		<g>
			<g>
				<path class="st2" d="M641.25,3160.56L641.25,3160.56c-86.67,0-157.58-70.91-157.58-157.58v0c0-86.67,70.91-157.58,157.58-157.58
					h0c86.67,0,157.58,70.91,157.58,157.58v0C798.83,3089.65,727.92,3160.56,641.25,3160.56z"/>
			</g>
			<g class="st3">
				<path class="st4" d="M567.36,2908.27c-28.58,28.58-46.31,68-46.31,111.32c0,56.78,30.45,106.78,75.8,134.56
					c-65.22-19.28-113.19-79.86-113.19-151.17c0-43.38,17.73-82.74,46.31-111.32c28.53-28.52,67.95-46.26,111.27-46.26
					c29.86,0,57.9,8.44,81.78,23.02c-14.1-4.17-29.01-6.41-44.39-6.41C635.3,2862.01,595.88,2879.74,567.36,2908.27z"/>
			</g>
			<g>
				<path class="st1" d="M642.43,3072.78L642.43,3072.78c-37.9,0-68.91-31.01-68.91-68.91v0c0-37.9,31.01-68.91,68.91-68.91h0
					c37.9,0,68.91,31.01,68.91,68.91v0C711.34,3041.77,680.33,3072.78,642.43,3072.78z"/>
			</g>
			<g class="st3">
				<path class="st4" d="M723.02,3012.76c0,18.94-7.74,36.19-20.27,48.68c-12.45,12.49-29.7,20.23-48.64,20.23
					c-18.18,0-34.81-7.16-47.17-18.76c10.4,6.27,22.54,9.87,35.48,9.87c18.98,0,36.19-7.74,48.68-20.23
					c12.49-12.49,20.23-29.74,20.23-48.68c0-18.94-7.74-36.19-20.23-48.68c-0.49-0.49-0.98-0.98-1.51-1.47
					c4.8,2.93,9.2,6.4,13.16,10.36C715.28,2976.57,723.02,2993.82,723.02,3012.76z"/>
			</g>
			<g>
				<path class="st1" d="M641.25,3181.93c-98.67,0-178.95-80.28-178.95-178.95c0-98.67,80.28-178.95,178.95-178.95
					s178.95,80.28,178.95,178.95C820.2,3101.65,739.92,3181.93,641.25,3181.93z M641.25,2866.76
					c-75.11,0-136.22,61.11-136.22,136.21c0,75.11,61.11,136.22,136.22,136.22s136.22-61.11,136.22-136.22
					C777.47,2927.87,716.36,2866.76,641.25,2866.76z"/>
			</g>
			<g>
				<path class="st5" d="M768.58,2843.63c0,25.05-3.74,47.06-10.26,65.92c-43.32,125.16-209.77,115.59-234.24-28.63
					c-1.98-11.54-3.04-23.98-3.04-37.29H768.58z"/>
			</g>
			<g>
				<path class="st1" d="M644.81,3018.11C644.81,3018.11,644.82,3018.11,644.81,3018.11c-72.11,0-145.12-59.94-145.12-174.5
					c0-11.8,9.57-21.37,21.37-21.37c11.8,0,21.37,9.57,21.37,21.37c0,90.53,53.07,131.76,102.38,131.77
					c49.31,0,102.39-41.23,102.39-131.77c0-11.8,9.57-21.37,21.37-21.37l0,0c11.8,0,21.37,9.57,21.37,21.37
					C789.93,2958.17,716.92,3018.11,644.81,3018.11z"/>
			</g>
			<g class="st0">
				<path class="st1" d="M768.58,2843.63c0,25.05-3.74,47.06-10.26,65.92l-234.24-28.63c-1.98-11.54-3.04-23.98-3.04-37.29H768.58z"
					/>
			</g>
		</g>
		<g class="st0">
			<path class="st1" d="M909.16,1605.57l-83.28,96.52l-14.38,85.63l-74.1,16.92l-72.19,83.67
				c-45.19,65.6-176.44,206.73-238.78,272.7c-19.07,20.14-50.27,22.65-72.27,5.77l-212.87-163.14c1.07-4.01,1.76-6.25,1.76-6.25
				s188.3,42.73,225.69-33.39c37.39-76.12,177.61-224.35,312.49-252.83c134.88-28.52,80.39-173.18,80.39-173.18v-0.05
				C809.11,1551.57,858.36,1574.27,909.16,1605.57z"/>
		</g>
		<g>
			<path class="st1" d="M545.01,1813.11c-2.56,0-5.16-0.53-7.65-1.65c-99.76-44.8-162.03-133.65-164.63-137.41
				c-5.87-8.49-3.75-20.14,4.74-26.01c8.49-5.87,20.13-3.76,26.01,4.72c0.68,0.98,59.27,84.2,149.21,124.59
				c9.42,4.23,13.62,15.3,9.39,24.71C558.96,1809,552.14,1813.11,545.01,1813.11z"/>
		</g>
		<g>
			<path class="st1" d="M387.11,2199.38c-16.08,0-32.25-5.14-45.95-15.64L49.1,1959.94c-17.87-13.7-26.43-36.71-21.8-58.63
				c12.97-61.56,43.27-106.67,87.6-130.46c46.94-25.18,107.05-26.08,174.73-2.82c81.48-141.48,177.48-227.55,285.53-255.96
				c103.69-27.25,219.82-1.92,345.19,75.31c10.05,6.19,13.17,19.35,6.99,29.4c-6.19,10.05-19.36,13.18-29.4,6.99
				c-115.03-70.86-219.99-94.55-311.91-70.36C485.7,1579.78,395.52,1664.34,318,1804.73c-5.21,9.42-16.6,13.5-26.6,9.53
				c-62.75-24.95-116.81-26.93-156.29-5.74c-33.35,17.89-55.55,52.08-65.99,101.61c-1.25,5.92,1.1,12.15,5.98,15.89l292.06,223.79
				c13.37,10.25,32.17,8.75,43.74-3.48c56.18-59.45,191.71-204.78,236.72-270.13c6.69-9.72,20-12.17,29.72-5.48
				c9.72,6.69,12.17,20,5.48,29.72c-45.02,65.35-170.23,200.5-240.86,275.23C427.15,2191.35,407.2,2199.38,387.11,2199.38z"/>
		</g>
		<g>
			<path class="st5" d="M2180.93,1309.64h145.56c0,0,65.88,40.95,48.08,104.16c-17.81,63.21-103.83,61.43-103.83,61.43l-156.14,0.01
				l-29.68-107.12"/>
		</g>
		<g>
			<path class="st4" d="M2086.11,1612.14l-8.33,62.98l-43.16,324.89c-193,328.57-511.85,98.39-511.85,98.39l158.49-447.85
				l4.22-11.86c0,0,208.33-396.04,342.51-327.13C2162.18,1380.52,2086.11,1612.14,2086.11,1612.14z"/>
		</g>
		<g>
			<path class="st1" d="M1759.71,2198.2c-133.42,0-244.06-78.61-249.42-82.48c-9.57-6.91-11.72-20.27-4.81-29.83
				c6.9-9.56,20.24-11.73,29.81-4.83l0,0c1.38,0.99,139.36,98.61,281.47,68.57c78.6-16.61,144.96-69.35,197.28-156.78l50.9-383.54
				c0.18-1.31,0.47-2.6,0.88-3.86c0.69-2.13,68.74-215.11-47.58-274.87c-84.06-43.18-237.08,172.2-313.84,318.07
				c-5.5,10.44-18.41,14.46-28.86,8.96c-10.44-5.5-14.45-18.41-8.96-28.85c2.16-4.11,53.71-101.64,122.85-192.41
				c98.57-129.41,182.1-177.8,248.34-143.77c143.35,73.64,77.22,299.03,69.29,324.25l-51.23,385.98c-0.38,2.83-1.31,5.55-2.76,8.01
				c-59.06,100.55-135.7,161.34-227.79,180.7C1803.06,2196.18,1781.09,2198.2,1759.71,2198.2z"/>
		</g>
		<g class="st0">
			<path class="st1" d="M2077.78,1675.12l-43.16,324.89c-193,328.57-511.85,98.39-511.85,98.39l158.49-447.85l36.27-13.73
				C1717.53,1636.82,1898.03,1739.33,2077.78,1675.12z"/>
		</g>
		<g>
			<path class="st4" d="M1837.72,1837.14c-51.81,220.52-424.67,459.39-656.59,233.7c0,0,3.61-180.53,25.62-206.45
				c22.01-25.92,18.9-73.88,67.72-106.04c48.83-32.17,298.83-2.67,400.32,0"/>
		</g>
		<g class="st3">
			<path class="st4" d="M2157.4,1345.03h154.4c0,0,36.32-0.56,50.21,25.93c0,0-8.15-36.61-29.51-45.29
				c-21.37-8.68-47.41-4.67-47.41-4.67l-103.16-0.92"/>
		</g>
		<g class="st0">
			<path class="st1" d="M1837.72,1837.14c-51.81,220.52-424.67,459.39-656.59,233.7c0,0,3.61-180.53,25.62-206.45
				c22.01-25.92,18.9-73.88,67.72-106.04c48.83-32.17,298.83-2.67,400.32,0"/>
		</g>
		<g>
			<path class="st1" d="M1399.01,2179.16c-88.6,0-168.74-31.51-232.68-92.91c-8.51-8.17-8.78-21.7-0.61-30.21
				c8.17-8.51,21.69-8.79,30.21-0.61c80.42,77.22,191.11,100.11,311.66,64.46c148.11-43.79,281.09-167.44,309.33-287.63
				c2.7-11.49,14.2-18.6,25.69-15.91c11.49,2.7,18.61,14.2,15.91,25.69c-31.47,133.96-177.13,271.04-338.81,318.84
				C1478.29,2173.11,1437.84,2179.16,1399.01,2179.16z"/>
		</g>
		<g>
			<g>
				<path class="st1" d="M483.63,2394.02c-9.67,0-18.44-6.62-20.77-16.44l-114.92-484.32c-2.72-11.48,4.38-23,15.86-25.73
					c11.44-2.71,22.99,4.38,25.72,15.86l114.92,484.32c2.72,11.48-4.38,23-15.86,25.73
					C486.93,2393.83,485.27,2394.02,483.63,2394.02z"/>
			</g>
			<g>
				<path class="st1" d="M633.23,2388.68c-7.39,0-14.03-5.14-15.65-12.66L513.35,1891.7c-1.86-8.65,3.64-17.18,12.3-19.04
					c8.65-1.87,17.17,3.65,19.04,12.29l104.23,484.32c1.86,8.65-3.64,17.18-12.3,19.04
					C635.48,2388.56,634.35,2388.68,633.23,2388.68z"/>
			</g>
			<g>
				<path class="st1" d="M794.86,2388.68c-7.67,0-14.44-5.52-15.78-13.33l-82.86-484.32c-1.49-8.72,4.37-17.01,13.1-18.5
					c8.72-1.47,17,4.37,18.5,13.09l82.86,484.32c1.49,8.72-4.37,17.01-13.1,18.5C796.67,2388.6,795.76,2388.68,794.86,2388.68z"/>
			</g>
			<g>
				<path class="st1" d="M1256.41,2388.67c-8.33,0-15.36-6.44-15.97-14.88l-34.79-484.32c-0.63-8.83,6.01-16.5,14.84-17.13
					c8.79-0.68,16.49,6.01,17.13,14.84l34.79,484.32c0.63,8.83-6.01,16.5-14.84,17.13
					C1257.18,2388.66,1256.8,2388.67,1256.41,2388.67z"/>
			</g>
			<g>
				<path class="st1" d="M1504.73,2388.67c-8.56,0-15.67-6.77-16.01-15.41l-18.76-484.32c-0.34-8.84,6.55-16.29,15.4-16.63
					c8.68-0.28,16.29,6.55,16.64,15.39l18.76,484.32c0.34,8.84-6.55,16.29-15.4,16.63
					C1505.15,2388.67,1504.94,2388.67,1504.73,2388.67z"/>
			</g>
			<g>
				<path class="st1" d="M1758.99,2388.67c-8.81,0-15.98-7.11-16.03-15.94l-2.73-484.32c-0.05-8.85,7.08-16.06,15.93-16.12
					c0.03,0,0.06,0,0.09,0c8.81,0,15.98,7.11,16.03,15.94l2.73,484.32c0.05,8.85-7.08,16.06-15.93,16.12
					C1759.05,2388.67,1759.02,2388.67,1758.99,2388.67z"/>
			</g>
			<g>
				<polyline class="st5" points="950.58,2372.65 867.71,1888.33 936.68,1888.33 1018.65,2372.65 				"/>
			</g>
			<g>
				<path class="st1" d="M950.56,2388.68c-7.67,0-14.44-5.52-15.78-13.33l-82.86-484.32c-0.8-4.66,0.5-9.42,3.54-13.03
					c3.05-3.61,7.53-5.69,12.25-5.69h68.97c7.82,0,14.5,5.64,15.8,13.35l81.97,484.32c1.47,8.73-4.4,17-13.13,18.47
					c-8.76,1.47-17-4.4-18.48-13.13l-79.71-470.97h-36.43l79.66,465.59c1.49,8.72-4.37,17.01-13.1,18.5
					C952.36,2388.6,951.46,2388.68,950.56,2388.68z"/>
			</g>
			<g>
				<path class="st5" d="M1987.29,2100.22H407.47c-16.96,0-30.71,13.75-30.71,30.72l0,0c0,16.96,13.75,30.72,30.71,30.72h1579.82"/>
			</g>
			<g>
				<path class="st1" d="M1987.29,2175H407.47c-24.3,0-44.07-19.77-44.07-44.07s19.77-44.07,44.07-44.07h1579.82
					c7.38,0,13.35,5.98,13.35,13.35s-5.98,13.35-13.35,13.35H407.47c-9.58,0-17.36,7.79-17.36,17.36s7.79,17.36,17.36,17.36h1579.82
					c7.38,0,13.35,5.98,13.35,13.35S1994.67,2175,1987.29,2175z"/>
			</g>
			<g>
				<path class="st5" d="M1650.76,2724.3h-127.99c48.24-49.95,30.55-113.41,3.31-162.02c-24.25-43.27-56.14-74.78-56.14-74.78
					h111.38c29.06,21.69,47.76,47.86,59.51,74.78C1674.85,2640.22,1650.76,2724.3,1650.76,2724.3z"/>
			</g>
			<g>
				<path class="st5" d="M2230.34,1479.69h-97.04c0,0-97.81,134.43-128.14,314.72H346.26c-25.94,0-46.96,21.03-46.96,46.96v0
					c0,25.94,21.03,46.96,46.96,46.96h1604.98c19.91,0,36.06,16.14,36.06,36.06v412.21c0,19.91-16.14,36.06-36.06,36.06H483.65
					c-31.71,0-57.42,25.71-57.42,57.42v0c0,31.71,25.71,57.42,57.42,57.42h1450.62c28.19,0,53.53,17.12,64.02,43.28
					c14.63,36.49,32.88,90.37,36.23,138.83c2.08,30.09-21.18,54.71-51.33,54.71l-1574.38,0c-32.94,0-59.65,26.71-59.65,59.65v0
					c0,32.94,26.71,59.65,59.65,59.65l1606.93,0c52.28,0,101.72-25.09,131.47-68.08c18.84-27.23,30.47-53.19,19.93-99.29
					c-28.49-124.64-74.78-242.16-74.78-242.16v-594.72c0,0,51.1-243.22,157.31-337.06"/>
			</g>
			<g class="st0">
				<path class="st1" d="M1951.23,1901.22H346.25c-12.98,0-24.68-5.23-33.17-13.73c-8.55-8.49-13.78-20.25-13.78-33.23
					c0-8.76,2.4-16.99,6.62-23.98c2.03,3.36,4.43,6.41,7.16,9.13c8.49,8.49,20.19,13.73,33.17,13.73h1604.98
					c19.92,0,36.06,16.19,36.06,36.06v48.08C1987.29,1917.41,1971.16,1901.22,1951.23,1901.22z"/>
			</g>
			<g class="st0">
				<path class="st1" d="M1998.29,2482.69c14.64,36.48,32.85,90.38,36.22,138.83c0.53,7.75-0.59,15.12-3.15,21.85
					c-6.57-40.81-21.05-82.58-33.07-112.6c-10.47-26.17-35.84-43.27-64.05-43.27H483.64c-15.86,0-30.18-6.41-40.6-16.83
					c-10.42-10.36-16.83-24.73-16.83-40.6c0-8.6,1.87-16.72,5.29-24.04c2.83,6.2,6.78,11.81,11.54,16.56
					c10.42,10.42,24.73,16.83,40.6,16.83h1450.61C1962.45,2439.42,1987.82,2456.51,1998.29,2482.69z"/>
			</g>
			<g class="st0">
				<path class="st1" d="M2168.59,2683.17c7.85,41.83-3.53,66.5-21.37,92.36c-29.75,43-79.22,68.11-131.51,68.11H408.8
					c-16.45,0-31.41-6.68-42.2-17.47c-10.79-10.79-17.47-25.75-17.47-42.2c0-8.55,1.82-16.67,5.07-24.04
					c2.99,6.84,7.21,12.98,12.39,18.16c10.79,10.79,25.75,17.47,42.2,17.47h1606.91c52.3,0,101.76-25.11,131.51-68.11
					C2156.94,2713.35,2164.74,2699.56,2168.59,2683.17z"/>
			</g>
			<g class="st0">
				<path class="st1" d="M2167.15,2628.15c5.08,22.22,4.97,39.74,1.44,55.02c-0.43-2.24-0.91-4.59-1.44-6.94
					c-28.52-124.62-74.78-242.14-74.78-242.14V2386C2092.36,2386,2138.62,2503.52,2167.15,2628.15z"/>
			</g>
			<g class="st3">
				<path class="st4" d="M429.1,2448.13c-1.87-5.66-2.88-11.75-2.88-18.05c0-31.73,25.75-57.42,57.42-57.42h1467.59
					c19.92,0,36.06-16.13,36.06-36.06v36.06c0,19.92-16.13,36.06-36.06,36.06H483.64C458.21,2408.71,436.63,2425.21,429.1,2448.13z"
					/>
			</g>
			<g class="st3">
				<path class="st4" d="M2034.51,2705.65c2.08,30.07-21.15,54.7-51.33,54.7H408.8c-26.71,0-49.3,17.52-56.89,41.67
					c-1.82-5.72-2.78-11.75-2.78-18.06c0-32.96,26.71-59.67,59.67-59.67h1574.38c23.88,0,43.38-15.38,49.46-36.75
					C2033.44,2693.64,2034.08,2699.67,2034.51,2705.65z"/>
			</g>
			<g class="st3">
				<path class="st4" d="M2027.99,1735.11c-9.24,29.81-17.2,61.75-22.86,95.35H346.25c-19.55,0-36.32,11.97-43.38,28.95
					c-2.3-5.55-3.58-11.64-3.58-18.05c0-25.91,21.05-46.95,46.95-46.95h1658.88c3.69-21.85,8.33-43.05,13.73-63.41
					C2021.85,1732.44,2024.9,1733.77,2027.99,1735.11z"/>
			</g>
			<g>
				<path class="st1" d="M2015.73,2864.98H408.8c-44.67,0-81.02-36.34-81.02-81.02s36.34-81.02,81.02-81.02h1574.38
					c8.69,0,16.59-3.34,22.26-9.42c5.59-5.99,8.34-13.96,7.75-22.44c-3.15-45.61-20.63-97.15-34.75-132.35
					c-7.27-18.14-24.61-29.87-44.18-29.87H483.65c-43.45,0-78.79-35.35-78.79-78.79s35.35-78.79,78.79-78.79h1467.58
					c8.1,0,14.69-6.59,14.69-14.69v-412.2c0-8.1-6.59-14.69-14.69-14.69H346.26c-37.68,0-68.33-30.65-68.33-68.33
					s30.65-68.33,68.33-68.33h1641.06c33.83-174.01,124.72-300.45,128.7-305.92c4.02-5.53,10.44-8.8,17.28-8.8h97.05
					c11.8,0,21.37,9.57,21.37,21.37c0,0.45-0.01,0.9-0.04,1.35c5.22,0.49,10.26,2.89,14,7.12c7.82,8.85,6.98,22.35-1.86,30.16
					c-94.6,83.58-144.83,299.72-150.09,323.35v588.4c8.32,21.58,48.25,127.68,74.25,241.4c11.79,51.59-0.74,83.77-23.19,116.21
					C2131.29,2836.08,2075.57,2864.98,2015.73,2864.98z M408.8,2745.68c-21.11,0-38.28,17.17-38.28,38.28
					c0,21.11,17.17,38.28,38.28,38.28h1606.93c45.82,0,88.39-22.01,113.89-58.87c17.7-25.58,25.14-45.34,16.67-82.38
					c-27.78-121.53-73.38-237.93-73.84-239.09c-0.98-2.49-1.48-5.15-1.48-7.83v-594.72c0-1.48,0.15-2.95,0.46-4.39
					c2.04-9.73,49.04-228.96,148.81-333.92h-75.68c-21.35,32.22-93.55,149.55-118.34,296.9c-1.73,10.29-10.63,17.82-21.07,17.82
					H346.26c-14.11,0-25.6,11.48-25.6,25.6s11.48,25.6,25.6,25.6h1604.97c31.67,0,57.43,25.76,57.43,57.42v412.2
					c0,31.67-25.76,57.42-57.43,57.42H483.65c-19.88,0-36.06,16.17-36.06,36.06s16.18,36.06,36.06,36.06h1450.62
					c37.13,0,70.04,22.26,83.85,56.7c15.25,38.05,34.17,94.15,37.71,145.3c1.41,20.44-5.39,39.81-19.15,54.55
					c-13.84,14.83-32.84,23-53.51,23H408.8z"/>
			</g>
			<g>
				<path class="st1" d="M1650.76,2745.68h-127.96c-8.57,0-16.31-5.12-19.67-13.01c-3.35-7.89-1.66-17.02,4.29-23.19
					c75.29-78.04-51.23-205.53-52.51-206.81c-8.36-8.31-8.42-21.84-0.11-30.21c8.3-8.38,21.81-8.44,30.2-0.15
					c1.56,1.55,38.65,38.55,64.5,88.37c27.84,53.67,32.38,102.05,13.8,142.27h70.37c7-38.27,15.77-137.82-65.14-198.34
					c-9.45-7.07-11.38-20.46-4.31-29.91c7.07-9.45,20.46-11.38,29.91-4.31c123.45,92.34,79.13,253.02,77.18,259.81
					C1668.67,2739.37,1660.29,2745.68,1650.76,2745.68z"/>
			</g>
			<g>
				<path class="st1" d="M1084.53,2508.86h-90.42c-43.44,0-78.79-35.35-78.79-78.79s35.35-78.79,78.79-78.79h90.42
					c11.8,0,21.37,9.57,21.37,21.37s-9.57,21.37-21.37,21.37h-90.42c-19.88,0-36.05,16.17-36.05,36.06s16.17,36.06,36.05,36.06
					h90.42c11.8,0,21.37,9.57,21.37,21.37S1096.33,2508.86,1084.53,2508.86z"/>
			</g>
			<g>
				<path class="st1" d="M1173.57,2864.98h-86.36c-44.67,0-81.02-36.34-81.02-81.02s36.34-81.02,81.02-81.02h73.9
					c11.8,0,21.37,9.57,21.37,21.37s-9.57,21.37-21.37,21.37h-73.9c-21.11,0-38.28,17.17-38.28,38.28
					c0,21.11,17.17,38.28,38.28,38.28h86.36c11.8,0,21.37,9.57,21.37,21.37S1185.37,2864.98,1173.57,2864.98z"/>
			</g>
			<g class="st0">
				<path class="st1" d="M1640.82,2562.28h-114.74c-24.25-43.27-56.14-74.78-56.14-74.78h111.38
					C1610.38,2509.18,1629.07,2535.36,1640.82,2562.28z"/>
			</g>
		</g>
		<g>
			<path class="st4" d="M2561.53,1650.18c0,0-30.72,149.57-166.93,110.84c0,0-66.45-32.16-56.2-140.22
				c0.32-4.22,0.8-8.49,1.44-12.93l-109.51-128.2h96.15c88.14-30.23,58.87-152.56,0-170.03h-145.56l-201.7,122.86
				c0,0,0,2.83-0.16,8.07c-1.18,30.45-9.88,143.11-73.66,270.61l17.79,15.12l-17.79,68.11h-632.14c0,0-35.58,215.91-85.47,351.22
				c-49.84,135.31-133.54,117.52-201.17,96.15c-41.13-12.98-152.56-87.71-222.48-170.99c-45.08-53.68-72.92-110.95-53.52-157.53
				c49.41-118.85,151.81-123.29,198.55-108.6l8.44-16.93h-96.15c0,0-43.16-188.72,97.49-338.29l-20.89-26.39
				c-9.94-12.55-11.16-29.91-3.05-43.7l63.09-107.48l10.74-18.32c-123.5-62.61-229.48-138.78-309.88-234.72
				c-147.33,27.72-245.72-166.29-152.67-259.4l-1.98-1.87l-60.36-57.48c-21.79-20.67-23.72-54.75-4.49-77.78
				c11.22-13.41,27.4-20.46,43.8-20.46c11.22,0,22.6,3.31,32.48,10.2l143.21,99.57c0,0,13.14-97.11,79.7-116.13
				c22.76-6.52,46.63,8.65,49.84,32.1c1.98,14.16,0.53,33.55-8.44,59.72c-26.07,76.12,34.72,120.83,36.75,122.22
				c1.98,1.28,223.23,159.77,468.95,209.29c245.72,49.52,911.2,50.69,911.2,50.69s17.79-15.81,45.99-22.6
				c40.44-9.78,102.29-0.96,163.67,99.78c104.16,170.94,138.89,256.4,138.89,256.4S2700.41,1543.34,2561.53,1650.18z"/>
		</g>
		<g>
			<path class="st1" d="M1061.44,2275.18c-31.16,0-60.02-9.11-80.47-15.57c-55.18-17.42-226.4-135.84-279.36-249.68
				c-18.02-38.75-20.81-73.68-8.27-103.85c26.09-62.76,67.52-97.56,109.92-113.99c-0.01-0.06-0.03-0.12-0.04-0.19
				c-1.8-7.9-41.59-190.5,91.23-343.27l-11.08-13.98c-14.61-18.44-16.43-44.47-4.52-64.76l63.85-108.76
				c-122.3-64.13-217.81-137.02-291.22-222.2c-71.79,8.75-140.47-29.21-177.33-99.02c-33.19-62.87-30.27-131.12,6.29-179.23
				l-49.41-47.02c-28.82-27.42-31.42-72.81-5.92-103.33c25.31-30.31,68.85-36.16,101.27-13.63l120.49,83.77
				c9.95-33.99,33.73-87.8,86.64-102.92c16.19-4.63,33.64-1.97,47.88,7.31c14.04,9.16,23.38,23.82,25.63,40.22
				c2.68,19.48-0.45,42.47-9.29,68.31c-21.55,63.01,27.61,99.28,29.71,100.8l0.58,0.4c23.06,16.21,231.94,159.69,461.4,205.94
				c228.31,46.02,832.1,49.98,901.15,50.29c13.73-9.92,49.54-31.22,96.08-24.26c50.1,7.5,95.83,44.66,135.92,110.44
				c92.83,152.33,130.65,236.64,138.63,255.25c15.41,14.91,79.84,82.12,76.73,159.73c-1.65,41.29-21.76,77.89-59.8,108.89
				c-5.39,19.91-24.64,77.17-73.77,106.99c-32.61,19.79-71.26,23.55-114.89,11.15c-1.05-0.3-2.06-0.68-3.04-1.16
				c-3.35-1.63-80.24-40.41-66.2-164.11l-104.13-121.9c-4.74-5.55-5.82-13.34-2.76-19.97c3.05-6.63,9.68-10.87,16.98-10.87h92.87
				c35.79-13.74,40.61-44.77,40.23-62.33c-0.67-31.39-18.38-62.22-39.97-70.33h-137.3l-188.5,114.82
				c-1.41,33.55-10.55,139.99-69.13,263.16l6.75,5.74c5.47,4.65,7.8,12.03,5.98,18.97l-17.81,68.11
				c-2.15,8.23-9.58,13.97-18.09,13.97h-616.34c-9.22,52.49-41.01,223.13-83.69,338.99
				C1168.89,2251.04,1112.13,2275.18,1061.44,2275.18z M866.86,1817.23c-45,0-105.1,21.68-138.98,103.21
				c-8.35,20.07-5.78,44.88,7.64,73.72c46.01,98.88,205.79,213.71,256.71,229.79c69.31,21.89,135.06,31.87,178.03-84.78
				c48.66-132.07,84.21-345.66,84.57-347.8c1.49-9.03,9.3-15.65,18.45-15.65h617.67l11.19-42.77l-8.86-7.53
				c-6.56-5.57-8.46-14.91-4.61-22.61c71.69-143.38,71.88-268.93,71.87-270.18c-0.03-6.56,3.37-12.67,8.97-16.08l201.7-122.86
				c2.93-1.78,6.29-2.73,9.73-2.73h145.56c1.8,0,3.59,0.26,5.31,0.77c38.3,11.35,67.97,56.99,69.02,106.15
				c1.01,47.28-24.51,84.48-68.26,99.5c-1.96,0.67-4.01,1.01-6.07,1.01h-55.59l83.16,97.36c3.49,4.08,5.05,9.47,4.29,14.79
				c-13.58,95.03,34.55,127.91,43.31,133.04c32.29,8.77,60.26,6.23,83.14-7.58c44.83-27.08,58.29-89,58.42-89.62
				c0.92-4.37,3.37-8.3,6.91-11.02c32.22-24.78,49.19-53.34,50.45-84.88c2.76-68.96-66.92-132.86-67.63-133.5
				c-2.08-1.88-3.71-4.22-4.77-6.81c-0.34-0.84-35.63-86.51-137.53-253.72c-33.9-55.63-70.58-86.86-109.01-92.84
				c-41.31-6.41-72.03,19.69-72.34,19.96c-3.4,2.95-7.84,4.65-12.34,4.65c-0.01,0-0.02,0-0.03,0
				c-27.25-0.05-670.16-1.72-914.88-51.04c-236.94-47.76-451.79-195.33-475.51-212c-0.88-0.6-75.17-53.27-44.17-143.89
				c6.93-20.27,9.5-37.47,7.63-51.12c-1.06-7.74-6.11-12.09-9.02-13.98c-5.15-3.36-11.42-4.33-17.17-2.68
				c-53.87,15.4-66.18,99.83-66.3,100.68c-0.89,6.44-5.07,11.97-11.03,14.57c-5.95,2.61-12.83,1.95-18.17-1.76l-143.25-99.59
				c-16.4-11.4-38.42-8.44-51.23,6.89c-12.9,15.44-11.59,38.4,2.99,52.27l62.36,59.34c3.65,3.47,5.75,8.27,5.81,13.31
				c0.06,5.04-1.91,9.89-5.47,13.45c-44.13,44.16-34.19,108.28-12.29,149.78c23.47,44.45,76.38,91.55,148.29,78.03
				c6.65-1.25,13.45,1.18,17.79,6.37c74.4,88.81,173.84,164.06,303.98,230.04c4.6,2.33,8.04,6.46,9.49,11.41
				c1.46,4.95,0.8,10.28-1.82,14.73l-73.85,125.79c-4.16,7.08-3.53,16.17,1.58,22.61l20.91,26.38c5.76,7.27,5.32,17.67-1.04,24.42
				c-109.97,116.92-101.38,261.15-95.27,306.8h80.32c6.48,0,12.5,3.35,15.9,8.87c3.41,5.51,3.72,12.4,0.82,18.19l-8.46,16.91
				c-4.11,8.21-13.57,12.23-22.33,9.48C893.67,1819.38,881.01,1817.23,866.86,1817.23z"/>
		</g>
		<g>
			<path class="st1" d="M1740.23,1810.43c-1.67,0-3.37-0.26-5.04-0.82c-267.23-88.63-341.04-179.07-344.06-182.88
				c-4.12-5.21-4.6-12.42-1.21-18.13l62.77-105.5c2.24-3.78,5.94-6.46,10.22-7.43c4.28-0.98,8.78-0.14,12.44,2.29l24.58,16.39
				l34.12-72.57c4.3-9.14,2.94-20.1-3.46-27.92l-46.09-56.27c-4.72-5.76-10.42-10.5-16.95-14.08L1107.84,1146
				c-14.14-7.77-31.6-4.16-41.52,8.56l-84.85,108.85c-5.44,6.98-15.51,8.22-22.49,2.79c-6.98-5.44-8.23-15.51-2.78-22.49
				l84.85-108.85c19.64-25.19,54.21-32.31,82.21-16.95l359.73,197.5c10.14,5.57,19,12.93,26.32,21.87l46.09,56.27
				c14.18,17.32,17.2,41.61,7.67,61.87l-42.04,89.4c-1.98,4.22-5.71,7.37-10.2,8.62c-4.5,1.25-9.31,0.49-13.19-2.1l-26.03-17.35
				l-47.95,80.59c23.87,23.1,109.92,94.41,321.61,164.62c8.4,2.79,12.95,11.85,10.17,20.25
				C1753.21,1806.17,1746.95,1810.43,1740.23,1810.43z"/>
		</g>
		<g>
			<path class="st1" d="M1905.4,1732.53c-1.86,0-3.75-0.24-5.62-0.75c-213.33-58.02-396.79-170.84-404.5-175.62
				c-10.03-6.22-13.12-19.38-6.91-29.41s19.38-13.13,29.41-6.91c1.84,1.14,186.07,114.38,393.2,170.71
				c11.39,3.1,18.11,14.84,15.01,26.23C1923.41,1726.28,1914.8,1732.53,1905.4,1732.53z"/>
		</g>
		<g>
			<path class="st1" d="M1990.52,1447.4l-94.04,47.87l71.45-77.66C1989.36,1396.99,2016.15,1432.31,1990.52,1447.4L1990.52,1447.4z"
				/>
		</g>
		<g>
			<path class="st1" d="M1443.33,1810.43c-4.67,0-9.31-2.04-12.48-5.95c-0.2-0.25-21.2-26.1-88.09-98.46
				c-64.44-69.71-182.82-105.56-184.01-105.92c-1.11-0.33-2.18-0.78-3.19-1.34l-244.38-135.32c-7.74-4.29-10.54-14.04-6.25-21.78
				s14.03-10.54,21.78-6.25l242.91,134.5c16.01,4.95,129.84,42.05,196.69,114.36c67.9,73.44,88.64,99.03,89.49,100.08
				c5.56,6.89,4.48,16.97-2.4,22.53C1450.43,1809.26,1446.87,1810.43,1443.33,1810.43z"/>
		</g>
		<g>
			<path class="st1" d="M917.6,1803.76c-1.69,0-3.4-0.27-5.1-0.84c-8.39-2.81-12.91-11.9-10.1-20.29
				c38.93-116.05,110.61-167.16,163.88-189.61c57.96-24.42,106.54-21.06,108.59-20.9c8.83,0.67,15.43,8.37,14.76,17.2
				c-0.67,8.82-8.37,15.39-17.16,14.76c-7.08-0.5-173.07-9.9-239.69,188.74C930.55,1799.52,924.3,1803.76,917.6,1803.76z"/>
		</g>
		<g>
			<path class="st1" d="M1295.77,1662.71c-2.97,0-5.98-0.83-8.66-2.55c-7.44-4.79-9.59-14.71-4.8-22.15l165.22-256.63
				c5.88-9.13,7.79-19.98,5.4-30.57c-2.4-10.59-8.8-19.56-18.03-25.26c-7.53-4.65-9.86-14.53-5.21-22.06
				c4.66-7.53,14.54-9.85,22.06-5.21c16.61,10.27,28.13,26.41,32.45,45.45c4.31,19.05,0.86,38.58-9.71,55l-165.22,256.63
				C1306.19,1660.11,1301.04,1662.71,1295.77,1662.71z"/>
		</g>
		<g>
			<path class="st1" d="M1376.69,1735.24c-4.54,0-9.04-1.91-12.22-5.64c-5.73-6.74-4.92-16.86,1.82-22.59
				c39.31-33.44,55.2-66.76,55.35-67.09c3.75-8,13.27-11.47,21.28-7.75c8.01,3.73,11.5,13.2,7.8,21.22
				c-0.74,1.6-18.64,39.71-63.66,78.02C1384.04,1733.98,1380.35,1735.24,1376.69,1735.24z"/>
		</g>
		<g>
			<path class="st1" d="M963.48,1490.12c-3.01,0-6.06-0.85-8.77-2.62c-7.4-4.85-9.47-14.79-4.62-22.19l113.02-172.46
				c3.29-5.03,9.17-7.79,15.09-7.15l87.85,9.3c27.92-39.16,66.04-92.85,69.41-98.23c4.7-7.5,14.58-9.78,22.08-5.09
				c7.5,4.69,9.79,14.58,5.09,22.08c-5.26,8.41-68.71,97.36-75.92,107.47c-3.36,4.7-9.05,7.22-14.73,6.63l-87.42-9.25L976.9,1482.87
				C973.82,1487.57,968.7,1490.12,963.48,1490.12z"/>
		</g>
		<g>
			
				<ellipse transform="matrix(0.6587 -0.7524 0.7524 0.6587 -625.0385 1426.1816)" class="st2" cx="1259.48" cy="1402.03" rx="77.26" ry="64.55"/>
		</g>
		<g>
			<path class="st1" d="M1246.93,1489.99c-17.94,0-35.21-5.79-48.9-17.77c-33.43-29.26-33.06-84.56,0.83-123.26
				c33.88-38.71,88.64-46.39,122.07-17.12c33.42,29.26,33.05,84.56-0.83,123.26l0,0c0,0,0,0,0,0
				C1300.1,1477.96,1272.81,1489.99,1246.93,1489.99z M1271.88,1345.98c-16.8,0-35.19,8.42-48.92,24.1
				c-22.24,25.41-23.96,60.41-3.82,78.03c20.14,17.63,54.61,11.29,76.85-14.11v0c22.24-25.4,23.96-60.41,3.82-78.03
				C1292.1,1349.21,1282.3,1345.98,1271.88,1345.98z"/>
		</g>
		<g>
			<path class="st1" d="M560.71,1005.29c-10.52,0-21.28-1.7-32.07-5.17c-8.43-2.71-13.06-11.73-10.36-20.16
				c2.71-8.43,11.73-13.07,20.16-10.35c33.42,10.73,56.58-3.71,70.15-17.71c31.06-32.07,40.08-89.96,21.93-140.78
				c-7.95-22.26-20.12-36.24-37.19-42.74c-36.68-13.96-85.03,11.53-85.51,11.79c-7.77,4.25-17.5,1.4-21.75-6.37
				c-4.25-7.77-1.4-17.5,6.37-21.75c2.49-1.35,61.34-33,112.29-13.63c26,9.9,44.83,30.73,55.98,61.91
				c22.44,62.84,10.75,132.71-29.09,173.85C611.83,994.63,587.03,1005.29,560.71,1005.29z"/>
		</g>
		<g>
			<path class="st1" d="M793.86,741.5c9.58,45.83,8.68,94.73-6.68,139.02c2.43-38.53-6.25-76.9-21.53-112
				c-2.1-4.74-4.53-9.91-6.72-13.69L793.86,741.5L793.86,741.5z"/>
		</g>
		<g>
			<path class="st1" d="M783.99,1156.92c-6.78,0-13.32-3.7-16.64-10.14c-4.73-9.18-1.12-20.45,8.07-25.18
				c158.18-81.42,133.28-238.85,133.01-240.43c-1.74-10.18,5.1-19.84,15.28-21.58c10.18-1.72,19.84,5.1,21.58,15.28
				c0.32,1.85,29.51,186.16-152.75,279.97C789.8,1156.25,786.87,1156.92,783.99,1156.92z"/>
		</g>
		<g>
			<path class="st1" d="M659.55,795.12l-37.35-1.65c1.58-35.94,18.36-85.75,19.08-87.86l35.41,12.01
				C676.52,718.1,660.89,764.54,659.55,795.12z"/>
		</g>
		<g>
			<path class="st1" d="M2425.98,1534.66c24.21,17.36,54.81,23.68,84.12,22.96c5.43-0.12,8.93,4.83,8.42,9.96
				c0.68,17.79,3.33,38.77,11.17,54.29c3.94,7.64,9.11,13.77,17.66,10.36c2.42-0.6,5.64-2.28,8.75-3.9l15.91,39.66
				c-6.46,1.8-12.96,3.55-20.75,3.71c-55.91,1.71-58.6-65.69-50.89-105.87c0,0,8.41,9.96,8.41,9.96
				C2478.15,1570.37,2447.44,1557.67,2425.98,1534.66L2425.98,1534.66z"/>
		</g>
		<g>
			<path class="st1" d="M2345.86,1331.92l-15.06-34.23c64.43-28.34,85.65-101.85,85.86-102.59l36.01,10.07
				C2451.63,1208.88,2426.3,1296.54,2345.86,1331.92z"/>
		</g>
		<g>
			<path class="st1" d="M1094.56,2268.71l-10.62-30.24c19.88-6.98,34.23-19.48,42.64-37.14c12.06-25.31,11.67-60.19-1.05-95.7
				c-20.65-57.65-120.22-136.94-253.68-202c-51.3-25.01-91.2-29.83-115.36-13.92c-34.74,22.86-32.33,82.56-32.3,83.16l-32.01,1.61
				c-0.16-3.19-3.43-78.4,46.55-111.45c34.63-22.9,84.15-18.93,147.17,11.79c142.74,69.58,246.12,153.88,269.81,220
				c15.58,43.49,15.51,87.34-0.19,120.3C1143.47,2240.4,1122.39,2258.94,1094.56,2268.71z"/>
		</g>
		<g>
			
				<rect x="710.93" y="1932.4" transform="matrix(0.7501 -0.6613 0.6613 0.7501 -1088.9098 1020.4679)" class="st1" width="189.82" height="37.39"/>
		</g>
		<g>
			
				<rect x="767.11" y="2009.41" transform="matrix(0.7222 -0.6917 0.6917 0.7222 -1157.2233 1175.1577)" class="st1" width="234.26" height="37.39"/>
		</g>
		<g>
			
				<rect x="858.66" y="2070.7" transform="matrix(0.6817 -0.7316 0.7316 0.6817 -1217.3134 1380.6008)" class="st1" width="238.89" height="37.39"/>
		</g>
		<g>
			
				<rect x="979.27" y="2151.86" transform="matrix(0.6524 -0.7579 0.7579 0.6524 -1272.3711 1567.0349)" class="st1" width="185.6" height="37.39"/>
		</g>
		<g>
			<path class="st1" d="M915.25,1784.17c30.65,13.4,58.89,29.92,86.08,48.98c13.35,9.35,25.99,19.72,38,30.53
				c11.98,10.9,22.86,22.88,32.74,35.34c-36.63-29.82-80.18-49.1-124.91-62.86c-14.24-4.28-29.82-8.46-44.12-11.04
				C872.09,1817.97,885.38,1773.2,915.25,1784.17L915.25,1784.17z"/>
		</g>
		<g>
			<path class="st1" d="M1255.69,1904.36c-5.32,0-10.52-2.64-13.56-7.47c-122.97-194.73-293.33-142.95-300.53-140.66
				c-8.39,2.69-17.44-1.93-20.15-10.34c-2.71-8.41,1.88-17.42,10.28-20.15c2.07-0.67,51.37-16.33,117.82-5
				c60.97,10.4,148.57,46.43,219.68,159.04c4.73,7.49,2.49,17.38-5,22.11C1261.58,1903.56,1258.62,1904.36,1255.69,1904.36z"/>
		</g>
		<g>
			<path class="st1" d="M1150.84,1167.36c-4.21,0-8.42-1.65-11.57-4.93c-6.12-6.39-5.91-16.53,0.47-22.66l72.15-69.19
				c6.4-6.12,16.53-5.91,22.66,0.48c6.12,6.39,5.91,16.53-0.47,22.66l-72.15,69.19C1158.82,1165.88,1154.83,1167.36,1150.84,1167.36
				z"/>
		</g>
		<g class="st0">
			<path class="st1" d="M1406.42,1235.76c0,0,154.05,238.58,480.53,126.4s308.67-280.03,308.67-280.03s-201.21,194.56-414.88,211.47
				S1406.42,1235.76,1406.42,1235.76z"/>
		</g>
		<g class="st0">
			<path class="st1" d="M2561.53,1650.18c0,0-30.72,149.57-166.93,110.84c0,0-66.45-32.16-56.2-140.22
				c117.25,158.76,175.69-39.37,175.69-39.37l-0.64,39.85c125.53-74.36-29.38-196.04-29.38-196.04
				c-154.91-388.92-273.76-355.71-273.76-355.71l32.64-22.6c40.44-9.78,102.29-0.96,163.67,99.78
				c104.16,170.94,138.89,256.4,138.89,256.4S2700.41,1543.34,2561.53,1650.18z"/>
		</g>
		<g class="st0">
			<path class="st1" d="M1092.55,1125.99c-60.09,23.34-67.89,70.14-67.89,70.14l-66.56,75.75l10.74-18.32
				c-123.5-62.61-229.48-138.78-309.88-234.72c-147.33,27.72-245.72-166.29-152.67-259.4l-1.98-1.87l4.22-4.59
				c4.38,102.4,65.44,129.54,132.32,148.93l9.08-45.4c8.01,73.98,68.69,79.22,68.69,79.22
				C924.28,1124.01,1092.55,1125.99,1092.55,1125.99z"/>
		</g>
		<g class="st0">
			<path class="st1" d="M1439.49,1794.4h-166.23c0,0-35.58,215.91-85.47,351.22c-49.84,135.31-133.54,117.52-201.17,96.15
				c-41.13-12.98-152.56-87.71-222.48-170.99c229.54,104.38,329.64,86.38,243.21-107.85c0,0,73.18-12.71,75.85-63.94
				c0,0,71.69-202.88,149.14-179.8c77.4,23.13,133.06,7.16,100.64-36.22C1335.54,1685.49,1402.31,1751.08,1439.49,1794.4z"/>
		</g>
		<g class="st0">
			<path class="st1" d="M1907.59,1711.18l17.79,15.12l-17.79,68.11h-471.62l-124.89-138.78v-31.04l121.63-52.88
				c0,0,126.76,90.49,244.28,131.89s84.13-51.33,84.13-51.33l-41.4-15.44c0,0,117.47-0.91,220.35-187.39l41.18-8.87
				C1980.08,1471.01,1971.37,1583.67,1907.59,1711.18z"/>
		</g>
		<g>
			<g>
				<path class="st4" d="M1125.13,374.67l-26.28,455.12c-6.36,0-12.5-0.43-18.38-1.34c-70.3-10.58-106.14-83.87-111.64-168.64
					C960.82,536.31,1017.12,388.56,1125.13,374.67z"/>
			</g>
			<g>
				<path class="st4" d="M2350.96,657.52c0,351.27-289.47,636.1-646.57,636.1c-126.33,0-244.28-35.68-343.85-97.33
					c-0.05,0-0.05-0.05-0.05-0.05c-181.83-112.55-302.66-311.8-302.66-538.72c0-78.74,14.53-154.11,41.18-223.71
					c91.93-240.97,328.3-412.44,605.38-412.44C2061.49,21.37,2350.96,306.19,2350.96,657.52z"/>
			</g>
			<g class="st0">
				<path class="st1" d="M2350.96,657.52c0,351.27-289.47,636.1-646.57,636.1c-17.04,0-33.92-0.64-50.64-1.92
					c311.05-46.05,549.51-310.14,549.51-628.99c0-334.5-262.39-608.69-595.77-634.17c31.62-4.75,63.94-7.16,96.9-7.16
					C2061.49,21.37,2350.96,306.19,2350.96,657.52z"/>
			</g>
			<g>
				<path class="st1" d="M2148.66,711.63c0,289.47-254.32,524.13-567.99,524.13c-64.58,0-155.55-12.93-220.13-39.47
					c-0.05,0-0.05-0.05-0.05-0.05c-181.83-112.55-302.66-311.8-302.66-538.72c0-78.74,14.53-154.11,41.18-223.71
					c98.82-171.52,274.19-246.31,481.67-246.31C1894.34,187.5,2148.66,422.16,2148.66,711.63z"/>
			</g>
			<g class="st6">
				<path class="st7" d="M2148.66,711.63c0,289.47-254.32,524.13-567.99,524.13c-64.58,0-155.55-12.93-220.13-39.47
					c-0.05,0-0.05-0.05-0.05-0.05c-81.83-50.64-151.22-118.85-202.93-199.19c2.14,1.39,4.33,2.72,6.46,4.06c0,0,0,0.05,0.05,0.05
					c86.96,53.84,189.95,84.99,300.31,84.99c311.85,0,564.62-248.71,564.62-555.49c0-59.51-9.51-116.88-27.14-170.62
					C2093.11,452.98,2148.66,576.38,2148.66,711.63z"/>
			</g>
			<g>
				<path class="st1" d="M1580.67,1251.13c-63.33,0-157.8-12.58-226.06-40.68c-7.85-3.23-11.59-12.21-8.36-20.06
					s12.21-11.58,20.06-8.36c64.38,26.5,154.05,38.37,214.36,38.37c304.72,0,552.62-228.23,552.62-508.77
					s-247.91-508.77-552.62-508.77c-216.56,0-378.56,82.61-468.51,238.89c-4.23,7.35-13.61,9.89-20.98,5.65
					c-7.35-4.23-9.88-13.63-5.65-20.98c95.74-166.36,266.96-254.29,495.14-254.29c321.66,0,583.35,242.02,583.35,539.5
					S1902.33,1251.13,1580.67,1251.13z"/>
			</g>
			<g>
				<path class="st1" d="M1704.39,1314.98c-126.08,0-248.87-34.76-355.09-100.53l0,0c-0.23-0.14-0.45-0.29-0.68-0.44
					c-195.49-121.28-312.16-329.26-312.16-556.5c0-79.7,14.33-157.54,42.6-231.35c47.28-123.91,130.63-229.91,241.04-306.5
					C1432.95,41.38,1565.84,0,1704.39,0c368.3,0,667.93,294.96,667.93,657.52C2372.32,1020.04,2072.69,1314.98,1704.39,1314.98z
					 M1372.45,1178.53c99.31,61.31,214.07,93.72,331.94,93.72c344.74,0,625.2-275.77,625.2-614.73
					c0-338.99-280.46-614.78-625.2-614.78c-259.17,0-494.44,160.22-585.42,398.69c-26.4,68.94-39.78,141.63-39.78,216.09
					c0,212.57,109.36,407.17,292.54,520.55C1371.98,1178.22,1372.22,1178.37,1372.45,1178.53z"/>
			</g>
			<g>
				
					<ellipse transform="matrix(0.189 -0.982 0.982 0.189 1053.4287 2874.1331)" class="st4" cx="2266.74" cy="799.31" rx="221.68" ry="148.74"/>
			</g>
			<g class="st0">
				<path class="st1" d="M2412.81,827.44c-23.13,120.19-107.31,205.07-187.98,189.58c-49.14-9.51-85.63-54.01-101.39-114.53
					c10.42,6.3,21.69,10.74,33.71,13.03c80.71,15.49,164.85-69.39,187.98-189.58c9.03-47.01,7.43-92.47-2.78-131.3
					C2401.65,630.22,2432.47,725.14,2412.81,827.44z"/>
			</g>
			<g>
				<path class="st1" d="M2243.63,1040.16c-7.61,0-15.22-0.71-22.83-2.18c-92.11-17.73-146.44-139.22-121.11-270.82
					c11.98-62.27,39.76-117.92,78.21-156.7c40.67-41.02,88.56-58.72,134.77-49.82c46.23,8.9,84.11,43.09,106.65,96.28
					c21.31,50.29,26.45,112.27,14.46,174.54l0,0C2410.55,952.2,2328.2,1040.16,2243.63,1040.16z M2289.4,601.16
					c-27.29,0-55.59,13.62-81.14,39.38c-32.54,32.83-56.2,80.66-66.6,134.69c-20.87,108.46,18.25,207.5,87.22,220.78
					c69.01,13.26,142.07-64.17,162.94-172.63c10.4-54.03,6.19-107.22-11.85-149.79c-16.81-39.66-43.57-64.87-75.38-70.99
					C2299.59,601.64,2294.51,601.16,2289.4,601.16z M2412.8,827.42h0.05H2412.8z"/>
			</g>
			<g>
				<path class="st1" d="M2291.71,1002.22c-4.86,0-9.72-0.46-14.55-1.39c-33.3-6.41-59.57-34.04-73.97-77.8
					c-13.17-40.01-15.08-89.78-5.38-140.16c9.7-50.38,29.95-95.89,57.02-128.15c29.61-35.29,64.24-51.21,97.57-44.79
					c33.3,6.41,59.57,34.04,73.97,77.8c13.17,40,15.08,89.78,5.39,140.16c-9.7,50.38-29.95,95.89-57.02,128.15
					C2349.41,986.22,2320.4,1002.22,2291.71,1002.22z M2338.26,645.99c-17.45,0-37.02,11.6-54.79,32.77
					c-23.05,27.47-40.43,66.95-48.95,111.18c-8.52,44.23-7.03,87.34,4.18,121.4c9.83,29.86,26.42,49.1,45.52,52.77
					c19.13,3.67,41.65-8.03,61.86-32.11c23.05-27.47,40.43-66.95,48.95-111.18c8.51-44.23,7.03-87.34-4.18-121.4
					c-9.83-29.86-26.42-49.1-45.52-52.77C2343.02,646.21,2340.66,645.99,2338.26,645.99z"/>
			</g>
			<g>
				<path class="st1" d="M2198.86,599.22c-50.21-198.86-171.77-352.15-342.31-431.62c-172.2-80.25-378.48-77.99-551.82,6.02
					l-16.31-33.65c183.36-88.87,401.64-91.22,583.93-6.26c180.93,84.32,309.76,246.39,362.76,456.36L2198.86,599.22z"/>
			</g>
			<g>
				<path class="st1" d="M1852.93,1295.44c-7.15,0-13.97-4.12-17.08-11.07c-4.22-9.42,0-20.48,9.43-24.7
					c235.19-105.22,293.66-289.48,294.22-291.33c3-9.87,13.44-15.45,23.3-12.47c9.87,2.99,15.46,13.38,12.5,23.25
					c-2.46,8.2-63.16,202.12-314.75,314.68C1858.07,1294.91,1855.48,1295.44,1852.93,1295.44z"/>
			</g>
			<g class="st8">
				<path class="st4" d="M1520.36,266.23c-236.33,17.73-453.78,212.3-355.09,540.78c9.84,32.76,57.11,31.13,64.89-2.18
					c48.56-208.01,142.22-375.49,310.18-476.2C1570.75,310.4,1555.72,263.58,1520.36,266.23z"/>
			</g>
			<g class="st8">
				<path class="st4" d="M1885.38,875.54c-24.11,41.79-51.78,79.23-82.11,113.44c-25.66,28.96-8.45,75.09,29.98,79.61
					c102.23,12.03,180.51-96.29,137.49-189.46C1954.39,843.7,1904.89,841.74,1885.38,875.54z"/>
			</g>
			<g class="st8">
				<ellipse class="st4" cx="1981.9" cy="691.78" rx="59.1" ry="79.46"/>
			</g>
			<g>
				<path class="st1" d="M1098.35,851.14c-85.36,0-143.13-72.59-150.83-189.6c-8.97-136.2,55.36-292.69,174.91-308.04
					c11.67-1.5,22.41,6.77,23.91,18.47c1.5,11.7-6.77,22.41-18.47,23.91c-91.95,11.8-145.44,145.43-137.71,262.84
					c2.31,35.15,16.96,149.67,108.18,149.68c0.17,0,0.36,0,0.5,0c11.76,0,21.32,9.51,21.37,21.28c0.04,11.8-9.48,21.4-21.28,21.45
					C1098.74,851.14,1098.54,851.14,1098.35,851.14z"/>
			</g>
			<g class="st0">
				<path class="st1" d="M1080.47,828.45c-70.3-10.58-106.14-83.87-111.64-168.64c30.39-19.02,65.28-50.59,96.9-101.92
					C1065.73,557.89,1051.52,728.51,1080.47,828.45z"/>
			</g>
		</g>
		<g>
			
				<rect x="1986.53" y="1542.26" transform="matrix(0.2833 -0.959 0.959 0.2833 -91.2363 3061.1016)" class="st1" width="32.05" height="98.67"/>
		</g>
		<g>
			<path class="st1" d="M1925.27,1998.17c-71.31,0-141.67-34.8-145.58-36.77c-7.91-3.97-11.1-13.6-7.13-21.51
				c3.97-7.9,13.59-11.1,21.5-7.13l0,0c1.14,0.57,114.37,56.42,186.39,22.47c8.02-3.78,17.56-0.35,21.33,7.66
				c3.77,8.01,0.34,17.55-7.66,21.33C1972.67,1994.34,1948.91,1998.17,1925.27,1998.17z"/>
		</g>
		<g>
			<path class="st1" d="M2299.79,1495.69c-0.18,0-0.35,0-0.53-0.01c-39.97-1.29-70.12-39.2-73.34-92.19
				c-2.85-47.08,18.28-101.48,71.41-109.69c8.81-1.34,16.93,4.65,18.28,13.39c1.35,8.75-4.64,16.93-13.39,18.28
				c-33.3,5.14-46.3,43.04-44.31,76.08c1.78,29.31,15.8,61.24,42.38,62.09c8.85,0.29,15.79,7.69,15.5,16.54
				C2315.52,1488.85,2308.4,1495.69,2299.79,1495.69z"/>
		</g>
		<g class="st0">
			<path class="st1" d="M2083.07,1564.57c0,0,65.81,18.96,59.13,87.67l99.49-164.99l-108.4-7.57"/>
		</g>
		<g class="st0">
			<path class="st1" d="M2120.83,1355.93c0,0-3.44,52.53,36.56,59.65h88.04c0,0,89.95,11.57,119.33-49.86
				c0,0,24.94,105.84-57.87,113.07c-82.8,7.23-186.15,0-186.15,0l-22.18-103.27"/>
		</g>
	</g>
</g>
</svg>
