<?xml version="1.0" encoding="utf-8"?>
<!-- Generator: Adobe Illustrator 24.0.0, SVG Export Plug-In . SVG Version: 6.00 Build 0)  -->
<svg version="1.1" id="Camada_1" xmlns="http://www.w3.org/2000/svg" xmlns:xlink="http://www.w3.org/1999/xlink" x="0px" y="0px"
	 viewBox="0 0 200 200" style="enable-background:new 0 0 200 200;" xml:space="preserve">
<style type="text/css">
	.st0{fill:#FF6E6C;}
	.st1{opacity:0.2;}
	.st2{fill:#371A45;}
	.st3{opacity:0.7;}
	.st4{fill:#FFFFFF;}
	.st5{fill:#301E4E;}
	.st6{opacity:0.3;}
	.st7{fill:#D8D8D8;}
	.st8{fill:#3C2866;}
	.st9{fill:#898989;}
	.st10{fill:#22A7F0;}
	.st11{opacity:0.5;}
</style>
<g>
	<g>
		<path class="st0" d="M61.47,159.62c0,0,11.83,10.49,9.77,17.57c-1.28,4.41-11.96,12.1-16.31,15.57c-3.48,2.77-1.41,4.42-1.41,4.42
			s15.69,1.59,28.19-4.32c0,0,0,0,0,0c5.34-2.53,10.1-6.43,12.8-12.41c2.76-6.1,2.02-12.45,0.12-17.91
			c-2.94-8.45-8.68-14.78-8.68-14.78L61.47,159.62z"/>
	</g>
	<g class="st1">
		<path class="st2" d="M61.47,159.62c0,0,11.83,10.49,9.77,17.57c-1.28,4.41-11.96,12.1-16.31,15.57c-3.48,2.77-1.41,4.42-1.41,4.42
			s15.69,1.59,28.19-4.32c-0.29,0-11.04,0.18-12.49-4.89c-0.76-2.65,4.17-5.52,6.31-10.3c2.14-4.78,5.77-8.74,10.5-11l8.61-4.12
			c-2.94-8.45-8.68-14.78-8.68-14.78L61.47,159.62z"/>
	</g>
	<g>
		<path class="st2" d="M52.13,198.42c-0.39-0.39-1.08-1.27-1.08-2.62c0-1.55,0.92-3.06,2.72-4.5c0.64-0.51,1.42-1.11,2.28-1.78
			c4.05-3.14,12.48-9.66,13.41-12.85c1.41-4.86-6.38-13.14-9.22-15.66c-0.46-0.41-0.69-1.03-0.61-1.64
			c0.08-0.62,0.47-1.15,1.03-1.42l24.49-11.87c0.74-0.36,1.64-0.19,2.19,0.42c0.67,0.74,16.3,18.26,8.88,34.71
			c-9.45,20.94-41.52,17.95-42.88,17.81c-0.36-0.04-0.69-0.17-0.97-0.4C52.31,198.59,52.23,198.52,52.13,198.42z M54.77,195.8
			C54.77,195.8,54.77,195.8,54.77,195.8C54.77,195.8,54.77,195.8,54.77,195.8z M64.69,160.12c3.55,3.58,10.15,11.31,8.34,17.58
			c-1.16,4.02-7.62,9.28-14.7,14.76c-0.85,0.66-1.61,1.25-2.24,1.75c-0.65,0.52-0.99,0.93-1.16,1.2c5.8,0.31,30.51,0.64,37.9-15.73
			c5.48-12.13-4.28-25.78-7.36-29.62L64.69,160.12z"/>
	</g>
	<g class="st3">
		<path class="st4" d="M93.05,170.35c0,0,0.63,8.88-7.55,15.2C85.5,185.56,87.68,177.11,93.05,170.35z"/>
	</g>
	<g>
		<path class="st0" d="M39.8,137.94c0,0-10.48-11.83-17.56-9.79c-4.42,1.28-12.11,11.95-15.58,16.3c-2.78,3.47-4.42,1.41-4.42,1.41
			s-1.57-15.7,4.35-28.19c0,0,0,0,0,0c2.53-5.34,6.44-10.1,12.42-12.79c6.1-2.75,12.45-2.01,17.91-0.11
			c8.45,2.95,14.77,8.7,14.77,8.7L39.8,137.94z"/>
	</g>
	<g class="st1">
		<path class="st2" d="M39.8,137.94c0,0-10.48-11.83-17.56-9.79c-4.42,1.28-12.11,11.95-15.58,16.3c-2.78,3.47-4.42,1.41-4.42,1.41
			s-1.57-15.7,4.35-28.19c-0.01,0.29-0.19,11.04,4.88,12.5c2.65,0.76,5.53-4.17,10.31-6.3c4.78-2.14,8.75-5.76,11.01-10.49
			l4.13-8.61c8.45,2.95,14.77,8.7,14.77,8.7L39.8,137.94z"/>
	</g>
	<g>
		<path class="st2" d="M1,147.24c-0.1-0.1-0.17-0.19-0.21-0.23c-0.22-0.28-0.36-0.62-0.4-0.97c-0.14-1.36-3.1-33.43,17.85-42.86
			c16.46-7.41,33.96,8.24,34.7,8.91c0.62,0.56,0.78,1.45,0.42,2.19l-11.89,24.48c-0.27,0.56-0.8,0.94-1.42,1.03
			c-0.61,0.08-1.23-0.15-1.64-0.61c-2.52-2.84-10.8-10.64-15.65-9.24c-3.19,0.92-9.73,9.34-12.87,13.39
			c-0.67,0.86-1.27,1.64-1.78,2.28c-1.44,1.8-2.96,2.72-4.5,2.72C2.27,148.32,1.39,147.63,1,147.24z M49.39,113.95
			c-3.84-3.08-17.48-12.85-29.62-7.39C3.39,113.94,3.7,138.65,4.01,144.44c0.28-0.17,0.69-0.51,1.2-1.16
			c0.5-0.63,1.09-1.39,1.75-2.24c5.49-7.08,10.75-13.53,14.77-14.69c6.27-1.81,13.99,4.81,17.57,8.36L49.39,113.95z"/>
	</g>
	<g>
		<path class="st5" d="M35.29,123.47l-4.93,7.6c-2.23,3.44-2.39,7.82-0.42,11.41l0,0c5.86,10.7,14.54,19.58,25.1,25.7l0,0
			c3.54,2.05,7.93,2,11.42-0.15l7.71-4.75L35.29,123.47z"/>
	</g>
	<g class="st6">
		<g>
			<path class="st4" d="M41.97,158.28c-0.49-0.48-0.97-0.96-1.45-1.46c3.51,3.2,7.37,6.03,11.51,8.43c1.77,1.03,3.75,1.53,5.73,1.5
				c1.97-0.03,3.94-0.58,5.69-1.65l7.71-4.75l1.43,1.47l1.57,1.45l-7.71,4.74c-1.75,1.07-3.71,1.63-5.69,1.65
				c-1.97,0.03-3.96-0.47-5.73-1.5C50.27,165.41,45.89,162.08,41.97,158.28z"/>
		</g>
	</g>
	<g>
		<path class="st5" d="M41.97,158.28c-4.75-4.62-8.81-9.94-12.03-15.8c-1.97-3.59-1.81-7.97,0.42-11.41l4.93-7.6l20.35,20.83
			c-2.07-0.62-5.39-0.75-8.81,2.76c-5.56,5.72-2.41,13.46-2.41,13.46c0,0.01,0.01,0.02,0.01,0.02
			C43.59,159.82,42.77,159.06,41.97,158.28z"/>
	</g>
	<g>
		<path class="st4" d="M124.2,142.95c-1.13,0.75-2.25,1.48-3.35,2.18c-7.49,4.73-14.47,8.23-20.64,10.82
			c-2.2,0.93-4.3,1.74-6.28,2.45c-12.1,4.34-19.77,4.88-19.77,4.88c-3.28-1.56-6.44-3.33-9.46-5.3c-0.12-0.08-0.24-0.16-0.36-0.23
			c-12.28-8.11-22.14-19.47-28.42-32.91c-0.21-0.45-0.42-0.91-0.63-1.37c0,0,2.04-21.86,21.52-49.57
			c7.46-10.63,17.49-22.11,30.95-33.56C133.74,1.23,175.78,2.67,190.32,4.7c3.3,0.46,5.88,3.09,6.26,6.4
			c1.05,9.11,1.62,28.97-7.93,53.58c-4.25,10.97-10.51,22.88-19.63,35.2c-2.55,3.45-5.33,6.94-8.35,10.44
			c-0.7,0.83-1.43,1.65-2.16,2.47C146.74,125.98,135.01,135.74,124.2,142.95z"/>
	</g>
	<g>
		<path class="st7" d="M123.96,142.7c-1.13,0.75-2.25,1.48-3.35,2.18c-7.49,4.73-14.47,8.23-20.64,10.82
			c-2.2,0.93-4.3,1.74-6.28,2.45c-12.1,4.34-19.77,4.88-19.77,4.88c-3.28-1.56-6.44-3.33-9.46-5.3l-0.11,0.01
			c-12.28-8.11-22.14-19.47-28.42-32.91c0.1-1.13,0.89-8.5,4.88-19.62c0.71-1.98,1.52-4.08,2.45-6.28
			c2.6-6.17,6.11-13.15,10.84-20.63c0.7-1.1,1.43-2.22,2.18-3.35c-10.73,27.8,5.21,42.84,12.71,31c2.42-3.82,0.26-15.62,18.39-33.74
			l22.97,16.39l16.37,22.98c-18.13,18.11-29.93,15.95-33.75,18.36C81.12,137.45,96.15,153.41,123.96,142.7z"/>
	</g>
	<g>
		<path class="st0" d="M185.54,72.04c-5.83-9.23-12.41-17.93-19.67-26c-10.83-12.06-23.17-22.73-36.73-31.75
			c28.27-12.08,51.2-10.97,61.17-9.59c3.31,0.46,5.88,3.1,6.26,6.41c0.03,0.25,0.06,0.51,0.09,0.78
			C197.75,22.27,197.98,44.77,185.54,72.04z"/>
	</g>
	<g class="st1">
		<path class="st2" d="M165.87,46.03c16.17-8.58,25.96-24.33,30.79-34.15c1.08,10.39,1.31,32.88-11.12,60.15
			C179.72,62.81,173.14,54.11,165.87,46.03z"/>
	</g>
	<g>
		<path class="st2" d="M184.23,73.35c-0.1-0.1-0.18-0.2-0.26-0.32c-14.48-22.94-33.27-42.19-55.86-57.2
			c-0.57-0.38-0.88-1.04-0.82-1.72c0.06-0.68,0.49-1.27,1.12-1.54c27.91-11.93,50.63-11.25,61.7-9.78c4.44,0.59,7.89,4.11,8.37,8.57
			c1.21,11.1,1.35,33.83-11.24,61.45c-0.28,0.62-0.88,1.04-1.57,1.08C185.13,73.93,184.61,73.73,184.23,73.35z M160.2,37.3
			c9.34,9.34,17.7,19.64,25.04,30.83c10.82-25.38,10.66-46.07,9.54-56.37c-0.3-2.75-2.42-4.92-5.16-5.29
			c-10.27-1.36-30.95-2.01-56.58,8.21C142.83,21.44,151.9,28.99,160.2,37.3z"/>
	</g>
	<g>
		<path class="st2" d="M50.5,148.83c-0.22-0.22-0.45-0.45-0.67-0.68c-6.81-6.97-12.27-15.03-16.24-23.93
			c-0.13-0.29-0.18-0.61-0.15-0.93c0.04-0.44,1.09-10.95,8.19-26.67c6.51-14.43,19.59-36.15,44.93-57.7
			c13.29-11.3,27.37-20.17,41.85-26.36c0.6-0.26,1.29-0.18,1.81,0.2c23,15.3,42.15,34.91,56.9,58.28c0.33,0.53,0.38,1.19,0.12,1.76
			c-6.53,14.33-15.73,28.2-27.34,41.22c-22.15,24.83-44.17,37.39-58.75,43.55c-15.88,6.72-26.41,7.52-26.85,7.55
			c-0.32,0.02-0.64-0.04-0.93-0.17C64.85,160.92,57.15,155.5,50.5,148.83z M37.19,123.18c3.77,8.32,8.91,15.85,15.29,22.38
			c6.38,6.55,13.79,11.86,22.01,15.82c2.18-0.24,11.85-1.55,25.38-7.3c14.18-6.02,35.62-18.29,57.24-42.53
			c11.12-12.46,19.97-25.7,26.31-39.37c-14.23-22.29-32.55-41.05-54.49-55.8c-13.82,6.02-27.26,14.56-39.98,25.37
			C64.22,62.8,51.45,83.94,45.09,97.97C39.03,111.36,37.48,121,37.19,123.18z"/>
	</g>
	<g>
		<path class="st2" d="M39.95,158.9c-4.57-4.58-8.5-9.8-11.64-15.53c-2.3-4.2-2.11-9.3,0.49-13.31l4.93-7.6
			c0.56-0.86,1.71-1.11,2.57-0.55c0.86,0.56,1.11,1.71,0.55,2.57l-4.93,7.6c-1.86,2.87-1.99,6.51-0.35,9.51
			c5.7,10.4,14.14,19.04,24.4,24.98c2.96,1.71,6.6,1.67,9.51-0.13l7.71-4.74c0.87-0.54,2.02-0.27,2.56,0.61
			c0.54,0.87,0.26,2.02-0.61,2.56l-7.71,4.74c-4.08,2.51-9.18,2.58-13.32,0.18C48.91,166.77,44.15,163.1,39.95,158.9z"/>
	</g>
	<g>
		<path class="st8" d="M125.42,112.96c-10.17,5.57-23.16,4.48-32.33-3.67c-9.76-8.68-12.09-22.61-6.49-33.76v0
			c1.08-2.16,2.46-4.21,4.14-6.1c10.36-11.66,28.2-12.71,39.86-2.35c11.66,10.36,12.71,28.2,2.35,39.86
			C130.74,109.44,128.18,111.44,125.42,112.96z"/>
	</g>
	<g class="st3">
		<path class="st4" d="M134.36,105.24c6.39-11.65,4.15-26.58-6.2-35.78c-9.45-8.4-22.84-9.53-33.33-3.79
			c10.52-7.98,25.54-7.69,35.78,1.42C141.71,76.95,143.19,93.61,134.36,105.24z"/>
	</g>
	<g>
		<path class="st5" d="M125.42,112.96c-10.17,5.57-23.16,4.48-32.33-3.67c-9.76-8.68-12.09-22.61-6.49-33.76
			c0,0,1.68,9.21,9.99-0.24l27.56,27.58c-9.46,8.31-0.25,10-0.25,10L125.42,112.96z"/>
	</g>
	<g>
		<path class="st2" d="M90.54,109.43c-5.21-5.21-8.29-12.06-8.72-19.47c-0.47-8.02,2.21-15.75,7.55-21.76
			c11.02-12.4,30.08-13.52,42.48-2.5c6.01,5.34,9.58,12.7,10.05,20.72c0.47,8.02-2.21,15.75-7.55,21.76
			c-11.02,12.4-30.08,13.52-42.48,2.5C91.4,110.28,90.96,109.86,90.54,109.43z M130.54,69.57c-0.37-0.38-0.76-0.74-1.16-1.1
			c-10.87-9.66-27.57-8.68-37.24,2.19c-4.68,5.27-7.03,12.04-6.62,19.07c0.41,7.03,3.54,13.48,8.81,18.16
			c10.87,9.66,27.57,8.68,37.24-2.19c4.68-5.27,7.03-12.04,6.62-19.07C137.8,80.14,135.1,74.14,130.54,69.57z"/>
	</g>
	<g>
		<circle class="st0" cx="111.83" cy="87.73" r="19.66"/>
	</g>
	<g>
		<path class="st2" d="M100.21,99.31c-2.84-2.84-4.52-6.58-4.76-10.62c-0.26-4.38,1.21-8.59,4.12-11.87
			c2.91-3.28,6.92-5.22,11.3-5.48c4.38-0.26,8.59,1.21,11.87,4.12c3.28,2.91,5.22,6.92,5.48,11.3c0.26,4.38-1.2,8.59-4.12,11.87
			c-2.91,3.28-6.93,5.22-11.3,5.48c-4.38,0.26-8.59-1.21-11.87-4.12C100.68,99.77,100.44,99.54,100.21,99.31z M120.83,78.77
			c-0.18-0.18-0.37-0.36-0.56-0.53c-2.54-2.25-5.8-3.39-9.18-3.19c-3.38,0.2-6.49,1.7-8.74,4.24c-2.25,2.53-3.38,5.79-3.19,9.18
			c0.2,3.39,1.71,6.49,4.24,8.74c2.53,2.25,5.79,3.39,9.18,3.19c3.39-0.2,6.49-1.71,8.74-4.24c2.25-2.53,3.38-5.79,3.19-9.18
			C124.32,83.86,123.02,80.97,120.83,78.77z"/>
	</g>
	<g>
		<path class="st2" d="M96.59,102.92c-3.72-3.73-5.93-8.62-6.24-13.93c-0.34-5.74,1.58-11.26,5.4-15.56
			c3.82-4.3,9.08-6.85,14.82-7.19c5.74-0.34,11.26,1.58,15.56,5.4c8.87,7.88,9.67,21.51,1.79,30.38c-3.82,4.3-9.08,6.85-14.82,7.18
			c-5.74,0.34-11.26-1.58-15.56-5.4l0,0C97.21,103.52,96.89,103.22,96.59,102.92z M100,101.03l-1.23,1.39L100,101.03
			c3.55,3.16,8.13,4.74,12.87,4.47c4.75-0.28,9.1-2.39,12.26-5.94c3.16-3.55,4.75-8.13,4.47-12.87c-0.28-4.75-2.39-9.1-5.94-12.26
			c-3.55-3.16-8.13-4.75-12.87-4.47c-4.75,0.28-9.1,2.39-12.26,5.94c-3.16,3.55-4.75,8.13-4.47,12.87
			C94.34,93.52,96.45,97.87,100,101.03z"/>
	</g>
	<g>
		<path class="st9" d="M126.52,100.79c7.21-8.11,6.48-20.54-1.63-27.76c-8.11-7.21-20.54-6.48-27.76,1.63
			c-7.21,8.12-6.48,20.54,1.64,27.76S119.31,108.9,126.52,100.79z M102.16,98.6c-6.01-5.34-6.55-14.54-1.21-20.55
			c5.34-6.01,14.54-6.55,20.55-1.21c6.01,5.34,6.55,14.54,1.21,20.54C117.37,103.41,108.17,103.94,102.16,98.6z"/>
	</g>
	<g>
		<path class="st2" d="M96.6,102.93c-7.98-7.98-8.45-20.95-0.85-29.5c7.88-8.87,21.51-9.67,30.38-1.79
			c8.87,7.88,9.67,21.51,1.78,30.38c-3.82,4.3-9.08,6.85-14.82,7.19c-5.74,0.34-11.26-1.58-15.56-5.4
			C97.21,103.52,96.9,103.23,96.6,102.93z M124.43,75.15c-0.25-0.25-0.51-0.49-0.77-0.73c-7.34-6.52-18.61-5.86-25.13,1.48
			c-6.52,7.34-5.85,18.6,1.48,25.13c3.55,3.16,8.12,4.75,12.87,4.47c4.75-0.28,9.1-2.39,12.26-5.94c0,0,0,0,0,0
			C131.42,92.48,131.03,81.76,124.43,75.15z M100.21,99.31c-2.84-2.84-4.52-6.58-4.76-10.62c-0.26-4.38,1.21-8.59,4.12-11.87
			c2.91-3.28,6.92-5.22,11.3-5.48c4.38-0.26,8.59,1.21,11.87,4.12c3.28,2.91,5.22,6.92,5.48,11.3c0.26,4.38-1.2,8.59-4.12,11.87
			c-2.91,3.28-6.93,5.22-11.3,5.48c-4.38,0.26-8.59-1.21-11.87-4.12C100.68,99.77,100.44,99.54,100.21,99.31z M120.83,78.77
			c-0.18-0.18-0.37-0.36-0.56-0.53c-2.54-2.25-5.8-3.39-9.18-3.19c-3.38,0.2-6.49,1.7-8.74,4.24c-2.25,2.53-3.38,5.79-3.19,9.18
			c0.2,3.39,1.71,6.49,4.24,8.74c2.53,2.25,5.79,3.39,9.18,3.19c3.39-0.2,6.49-1.71,8.74-4.24c2.25-2.53,3.38-5.79,3.19-9.18
			C124.32,83.86,123.02,80.97,120.83,78.77z"/>
	</g>
	<g>
		<path class="st2" d="M100.21,99.31c-2.84-2.84-4.52-6.58-4.76-10.62c-0.26-4.38,1.21-8.59,4.12-11.87
			c2.91-3.28,6.92-5.22,11.3-5.48c4.38-0.26,8.59,1.21,11.87,4.12c3.28,2.91,5.22,6.92,5.48,11.3c0.26,4.38-1.2,8.59-4.12,11.87
			c-2.91,3.28-6.93,5.22-11.3,5.48c-4.38,0.26-8.59-1.21-11.87-4.12C100.68,99.77,100.44,99.54,100.21,99.31z M120.83,78.77
			c-0.18-0.18-0.37-0.36-0.56-0.53c-2.54-2.25-5.8-3.39-9.18-3.19c-3.38,0.2-6.49,1.7-8.74,4.24c-2.25,2.53-3.38,5.79-3.19,9.18
			c0.2,3.39,1.71,6.49,4.24,8.74c2.53,2.25,5.79,3.39,9.18,3.19c3.39-0.2,6.49-1.71,8.74-4.24c2.25-2.53,3.38-5.79,3.19-9.18
			C124.32,83.86,123.02,80.97,120.83,78.77z"/>
	</g>
	<g>
		<path class="st10" d="M54.43,157.58c-11.19,11.18-26.55,13.93-26.55,13.93s2.77-15.36,13.96-26.54
			c11.19-11.18,26.55-13.93,26.55-13.93S65.61,146.4,54.43,157.58z"/>
	</g>
	<g>
		<path class="st0" d="M54.43,157.58c-11.19,11.18-26.55,13.93-26.55,13.93s2.77-15.36,13.96-26.54
			c11.19-11.18,26.55-13.93,26.55-13.93S65.61,146.4,54.43,157.58z"/>
	</g>
	<g class="st3">
		<path class="st4" d="M62.79,146.16l-0.89-0.21c0,0,3.03-7.35,3.02-10.21c-7.67,7.27-17.2,15.95-17.2,15.95s8.68-9.52,15.96-17.19
			c-2.86-0.01-10.21,3.01-10.21,3.01l-0.2-0.89c5.62-3.01,10.75-4.53,13.35-5.18c1.12-0.28,1.77-0.4,1.77-0.4s-0.12,0.64-0.4,1.76
			C67.34,135.4,65.81,140.54,62.79,146.16z"/>
	</g>
	<g class="st1">
		<path class="st2" d="M54.43,157.58c-11.19,11.18-26.55,13.94-26.55,13.94s2.77-15.36,13.96-26.54c1.89-1.88,3.89-3.53,5.92-4.96
			c-7.07,10.01-14.12,20.57-11.53,23.16s13.16-4.45,23.17-11.51C57.96,153.69,56.31,155.69,54.43,157.58z"/>
	</g>
	<g>
		<path class="st2" d="M26.56,172.83c-0.43-0.43-0.62-1.04-0.51-1.64c0.12-0.65,3.01-16.07,14.47-27.52
			c11.47-11.46,26.89-14.33,27.54-14.45c0.6-0.11,1.21,0.09,1.64,0.52c0.43,0.43,0.62,1.04,0.51,1.64
			c-0.12,0.65-3.01,16.07-14.47,27.52c-11.47,11.46-26.89,14.33-27.54,14.45C27.61,173.45,26.99,173.26,26.56,172.83z M65.86,133.57
			c-4.85,1.36-14.91,4.93-22.71,12.72c-7.82,7.82-11.39,17.86-12.75,22.7c4.84-1.35,14.91-4.93,22.71-12.72
			C60.92,148.47,64.5,138.41,65.86,133.57z"/>
	</g>
	<g class="st3">
		<path class="st4" d="M29.1,106.34c0,0-8.88-0.64-15.21,7.54C13.89,113.88,22.33,111.71,29.1,106.34z"/>
	</g>
	<g class="st3">
		<path class="st4" d="M104.24,80.12c-0.23-1.38,4.2-4.28,9.28-3.75c5.27,0.55,8.69,5.04,7.61,6.01c-1.48,1.33-3.27-1.27-8.64-1.9
			C109.2,80.11,104.47,81.5,104.24,80.12z"/>
	</g>
	<g class="st3">
		<path class="st4" d="M100.52,84.91c0.04-2.24,1.56-4.16,2.86-3.53c1.52,0.73,1,3.07,0.94,4.84
			C104.21,89.29,100.46,88.72,100.52,84.91z"/>
	</g>
	<g>
		<path class="st2" d="M132.17,71.36c-0.73-0.73-0.72-1.9,0-2.63l28.37-28.35c0.73-0.73,1.9-0.72,2.63,0c0.73,0.73,0.72,1.9,0,2.63
			L134.8,71.36C134.07,72.09,132.9,72.08,132.17,71.36z"/>
	</g>
	<g>
		<circle class="st2" cx="161.49" cy="49.41" r="1.24"/>
	</g>
	<g>
		<circle class="st2" cx="150.35" cy="60.55" r="1.24"/>
	</g>
	<g>
		<circle class="st2" cx="139.2" cy="71.69" r="1.24"/>
	</g>
	<g class="st11">
		<path class="st4" d="M181.99,9.55c-7.63-2.02-28.82,1.55-29.87,8.46C151.13,24.58,189.62,11.57,181.99,9.55z"/>
	</g>
</g>
</svg>
