<svg width="63" height="83" viewBox="0 0 63 83" fill="none" xmlns="http://www.w3.org/2000/svg">
<path d="M6.42303 28.6691V72.8171C6.42303 77.0681 10.167 80.5 14.769 80.5H48.231C52.833 80.5 56.577 77.0681 56.577 72.8171V28.6691" stroke="white" stroke-width="4" stroke-miterlimit="10" stroke-linecap="round"/>
<path d="M6.42303 22.936C6.42303 18.724 10.167 15.253 14.769 15.253H21.555" stroke="white" stroke-width="4" stroke-miterlimit="10" stroke-linecap="round"/>
<path d="M42.459 15.253H48.231C52.872 15.253 56.577 18.724 56.577 22.936" stroke="white" stroke-width="4" stroke-miterlimit="10" stroke-linecap="round"/>
<path d="M60.75 28.6691H2.25" stroke="white" stroke-width="4" stroke-miterlimit="10" stroke-linecap="round"/>
<path d="M42.771 67.591V44.542" stroke="white" stroke-width="4" stroke-miterlimit="10" stroke-linecap="round"/>
<path d="M31.5 67.591V44.542" stroke="white" stroke-width="4" stroke-miterlimit="10" stroke-linecap="round"/>
<path d="M20.229 67.591V44.542" stroke="white" stroke-width="4" stroke-miterlimit="10" stroke-linecap="round"/>
<path d="M42.459 12.094V15.253H21.555V12.094C21.555 6.79 26.235 2.5 32.007 2.5C34.893 2.5 37.506 3.592 39.417 5.308C41.289 7.063 42.459 9.442 42.459 12.094Z" stroke="white" stroke-width="4" stroke-miterlimit="10" stroke-linecap="round"/>
</svg>
