<svg width="30" height="30" viewBox="0 0 30 30" fill="none" xmlns="http://www.w3.org/2000/svg">
<path d="M8.13437 25.3635C9.38683 25.3635 10.4053 26.4044 10.4053 27.6825C10.4053 28.9607 9.38683 30 8.13437 30C6.8819 30 5.86192 28.9607 5.86192 27.6825C5.86192 26.4044 6.8819 25.3635 8.13437 25.3635ZM25.0119 25.3635C26.2644 25.3635 27.2844 26.4044 27.2844 27.6825C27.2844 28.9607 26.2644 30 25.0119 30C23.7595 30 22.741 28.9607 22.741 27.6825C22.741 26.4044 23.7595 25.3635 25.0119 25.3635ZM1.16317 0.000479822L1.31689 0.015226L4.43831 0.567807C4.9423 0.656587 5.32479 1.08365 5.36678 1.60409L6.81125 19.1642C6.88025 20.0061 7.55673 20.6413 8.38621 20.6413H24.7523C25.5323 20.6413 26.2043 20.0474 26.3168 19.2606L27.7402 9.22082C27.7912 8.8657 27.6322 8.6162 27.5332 8.49833C27.4342 8.382 27.2152 8.18607 26.8627 8.18607H10.7456C10.1247 8.18607 9.62068 7.67176 9.62068 7.03805C9.62068 6.40434 10.1247 5.89003 10.7456 5.89003H26.8627C27.7732 5.89003 28.6387 6.29413 29.2342 6.99672C29.8297 7.69931 30.0982 8.62844 29.9677 9.54992L28.5427 19.5897C28.2727 21.4985 26.6437 22.9374 24.7523 22.9374H8.38621C6.37776 22.9374 4.7368 21.3975 4.5688 19.3556L3.19784 2.67863L0.932896 2.27912C0.320911 2.17044 -0.0885784 1.57653 0.0164189 0.952011C0.121416 0.325957 0.697402 -0.0857998 1.31689 0.015226L1.16317 0.000479822ZM22.3482 11.5484C22.9691 11.5484 23.4731 12.0627 23.4731 12.6964C23.4731 13.3301 22.9691 13.8444 22.3482 13.8444H18.1888C17.5663 13.8444 17.0638 13.3301 17.0638 12.6964C17.0638 12.0627 17.5663 11.5484 18.1888 11.5484H22.3482Z" fill="#F9F9F9"/>
</svg>
