<svg width="36" height="36" viewBox="0 0 36 36" fill="none" xmlns="http://www.w3.org/2000/svg">
<path d="M24.3213 3.75C29.1067 3.75 33 7.73217 33 12.6284V23.3716C33 28.2678 29.1067 32.25 24.3213 32.25C23.7693 32.25 23.3213 31.7916 23.3213 31.2268C23.3213 30.662 23.7693 30.2037 24.3213 30.2037C28.004 30.2037 31 27.1396 31 23.3716V14.7975H26.0747C24.4573 14.7988 23.1387 16.1467 23.1373 17.8029C23.1387 19.459 24.4573 20.8069 26.0747 20.8083H28.1213C28.6733 20.8083 29.1213 21.2666 29.1213 21.8314C29.1213 22.3962 28.6733 22.8546 28.1213 22.8546H26.0747C23.3533 22.8532 21.1387 20.5873 21.1373 17.8029C21.1387 15.0185 23.3533 12.7525 26.0747 12.7511H31V12.6284C31 8.86038 28.004 5.79634 24.3213 5.79634H11.6773C8.70933 5.79634 6.21867 7.79902 5.35067 10.5425H18.532C19.084 10.5425 19.532 11.0008 19.532 11.5656C19.532 12.1318 19.084 12.5888 18.532 12.5888H5.004L5 12.6284V23.3716C5 27.1396 7.99467 30.2037 11.6773 30.2037H18.0387C18.5907 30.2037 19.0387 30.662 19.0387 31.2268C19.0387 31.7916 18.5907 32.25 18.0387 32.25H11.6773C6.892 32.25 3 28.2678 3 23.3716V12.6284C3 7.73217 6.892 3.75 11.6773 3.75H24.3213ZM26.7461 16.6875C27.2981 16.6875 27.7461 17.1459 27.7461 17.7106C27.7461 18.2754 27.2981 18.7338 26.7461 18.7338H26.2915C25.7395 18.7338 25.2915 18.2754 25.2915 17.7106C25.2915 17.1459 25.7395 16.6875 26.2915 16.6875H26.7461Z" fill="#F9F9F9"/>
</svg>
