<svg width="30" height="30" viewBox="0 0 30 30" fill="none" xmlns="http://www.w3.org/2000/svg">
<path d="M21.3213 0.75C26.1067 0.75 30 4.73217 30 9.62837V20.3716C30 25.2678 26.1067 29.25 21.3213 29.25C20.7693 29.25 20.3213 28.7916 20.3213 28.2268C20.3213 27.662 20.7693 27.2037 21.3213 27.2037C25.004 27.2037 28 24.1396 28 20.3716V11.7975H23.0747C21.4573 11.7988 20.1387 13.1467 20.1373 14.8029C20.1387 16.459 21.4573 17.8069 23.0747 17.8083H25.1213C25.6733 17.8083 26.1213 18.2666 26.1213 18.8314C26.1213 19.3962 25.6733 19.8546 25.1213 19.8546H23.0747C20.3533 19.8532 18.1387 17.5873 18.1373 14.8029C18.1387 12.0185 20.3533 9.75251 23.0747 9.75115H28V9.62837C28 5.86038 25.004 2.79634 21.3213 2.79634H8.67733C5.70933 2.79634 3.21867 4.79902 2.35067 7.54247H15.532C16.084 7.54247 16.532 8.00085 16.532 8.56564C16.532 9.13179 16.084 9.58881 15.532 9.58881H2.004L2 9.62837V20.3716C2 24.1396 4.99467 27.2037 8.67733 27.2037H15.0387C15.5907 27.2037 16.0387 27.662 16.0387 28.2268C16.0387 28.7916 15.5907 29.25 15.0387 29.25H8.67733C3.892 29.25 0 25.2678 0 20.3716V9.62837C0 4.73217 3.892 0.75 8.67733 0.75H21.3213ZM23.7461 13.6875C24.2981 13.6875 24.7461 14.1459 24.7461 14.7106C24.7461 15.2754 24.2981 15.7338 23.7461 15.7338H23.2915C22.7395 15.7338 22.2915 15.2754 22.2915 14.7106C22.2915 14.1459 22.7395 13.6875 23.2915 13.6875H23.7461Z" fill="#F9F9F9"/>
</svg>
