<svg width="25" height="22" viewBox="0 0 25 22" fill="none" xmlns="http://www.w3.org/2000/svg">
<path d="M0 0.733333C0 0.538841 0.0878001 0.352315 0.244085 0.214788C0.40037 0.0772617 0.612338 0 0.833359 0H3.33344C3.51933 4.51902e-05 3.69986 0.054781 3.84634 0.155503C3.99281 0.256225 4.09681 0.39715 4.14179 0.555867L4.81682 2.93333H24.1674C24.2898 2.93343 24.4106 2.95724 24.5213 3.00307C24.6321 3.04891 24.73 3.11563 24.8081 3.19851C24.8862 3.28139 24.9426 3.37839 24.9733 3.48263C25.004 3.58686 25.0083 3.69576 24.9858 3.8016L22.4857 15.5349C22.4499 15.703 22.3486 15.8548 22.1992 15.964C22.0497 16.0733 21.8616 16.1332 21.6673 16.1333H6.66687C6.47259 16.1332 6.28447 16.0733 6.13504 15.964C5.98561 15.8548 5.88426 15.703 5.84851 15.5349L3.3501 3.8236L2.68342 1.46667H0.833359C0.612338 1.46667 0.40037 1.38941 0.244085 1.25188C0.0878001 1.11435 0 0.927825 0 0.733333ZM5.17016 4.4L7.35856 14.6667H20.9756L23.164 4.4H5.17016ZM8.33359 16.1333C7.44951 16.1333 6.60164 16.4424 5.9765 16.9925C5.35135 17.5426 5.00015 18.2887 5.00015 19.0667C5.00015 19.8446 5.35135 20.5907 5.9765 21.1408C6.60164 21.691 7.44951 22 8.33359 22C9.21767 22 10.0655 21.691 10.6907 21.1408C11.3158 20.5907 11.667 19.8446 11.667 19.0667C11.667 18.2887 11.3158 17.5426 10.6907 16.9925C10.0655 16.4424 9.21767 16.1333 8.33359 16.1333ZM20.0006 16.1333C19.1165 16.1333 18.2687 16.4424 17.6435 16.9925C17.0184 17.5426 16.6672 18.2887 16.6672 19.0667C16.6672 19.8446 17.0184 20.5907 17.6435 21.1408C18.2687 21.691 19.1165 22 20.0006 22C20.8847 22 21.7326 21.691 22.3577 21.1408C22.9829 20.5907 23.3341 19.8446 23.3341 19.0667C23.3341 18.2887 22.9829 17.5426 22.3577 16.9925C21.7326 16.4424 20.8847 16.1333 20.0006 16.1333ZM8.33359 17.6C8.77563 17.6 9.19957 17.7545 9.51214 18.0296C9.82471 18.3046 10.0003 18.6777 10.0003 19.0667C10.0003 19.4557 9.82471 19.8287 9.51214 20.1038C9.19957 20.3788 8.77563 20.5333 8.33359 20.5333C7.89155 20.5333 7.46761 20.3788 7.15504 20.1038C6.84247 19.8287 6.66687 19.4557 6.66687 19.0667C6.66687 18.6777 6.84247 18.3046 7.15504 18.0296C7.46761 17.7545 7.89155 17.6 8.33359 17.6ZM20.0006 17.6C20.4427 17.6 20.8666 17.7545 21.1792 18.0296C21.4917 18.3046 21.6673 18.6777 21.6673 19.0667C21.6673 19.4557 21.4917 19.8287 21.1792 20.1038C20.8666 20.3788 20.4427 20.5333 20.0006 20.5333C19.5586 20.5333 19.1346 20.3788 18.8221 20.1038C18.5095 19.8287 18.3339 19.4557 18.3339 19.0667C18.3339 18.6777 18.5095 18.3046 18.8221 18.0296C19.1346 17.7545 19.5586 17.6 20.0006 17.6Z" fill="black"/>
</svg>
