<svg id="visual" viewBox="0 0 900 400" width="900" height="400" xmlns="http://www.w3.org/2000/svg" xmlns:xlink="http://www.w3.org/1999/xlink" version="1.1"><rect x="0" y="0" width="900" height="400" fill="#001220"></rect><path d="M0 179L75 179C150 179 300 179 450 179C600 179 750 179 825 179L900 179L900 0L825 0C750 0 600 0 450 0C300 0 150 0 75 0L0 0Z" fill="#7500c1"></path><path d="M0 159L75 159C150 159 300 159 450 159C600 159 750 159 825 159L900 159L900 0L825 0C750 0 600 0 450 0C300 0 150 0 75 0L0 0Z" fill="#8b0094"></path><path d="M0 139L75 139C150 139 300 139 450 139C600 139 750 139 825 139L900 139L900 0L825 0C750 0 600 0 450 0C300 0 150 0 75 0L0 0Z" fill="#8c006e"></path><path d="M0 119L75 119C150 119 300 119 450 119C600 119 750 119 825 119L900 119L900 0L825 0C750 0 600 0 450 0C300 0 150 0 75 0L0 0Z" fill="#83004e"></path><path d="M0 99L75 99C150 99 300 99 450 99C600 99 750 99 825 99L900 99L900 0L825 0C750 0 600 0 450 0C300 0 150 0 75 0L0 0Z" fill="#720037"></path><path d="M0 79L75 79C150 79 300 79 450 79C600 79 750 79 825 79L900 79L900 0L825 0C750 0 600 0 450 0C300 0 150 0 75 0L0 0Z" fill="#5f0d26"></path><path d="M0 59L75 59C150 59 300 59 450 59C600 59 750 59 825 59L900 59L900 0L825 0C750 0 600 0 450 0C300 0 150 0 75 0L0 0Z" fill="#4b1319"></path><path d="M0 39L75 39C150 39 300 39 450 39C600 39 750 39 825 39L900 39L900 0L825 0C750 0 600 0 450 0C300 0 150 0 75 0L0 0Z" fill="#371411"></path><path d="M0 19L75 19C150 19 300 19 450 19C600 19 750 19 825 19L900 19L900 0L825 0C750 0 600 0 450 0C300 0 150 0 75 0L0 0Z" fill="#25130c"></path></svg>