<svg id="visual" viewBox="0 0 1400 100" width="1400" height="100" xmlns="http://www.w3.org/2000/svg" xmlns:xlink="http://www.w3.org/1999/xlink" version="1.1"><path d="M0 64L29.2 64C58.3 64 116.7 64 175 63.2C233.3 62.3 291.7 60.7 350 59C408.3 57.3 466.7 55.7 525 58C583.3 60.3 641.7 66.7 700 70.7C758.3 74.7 816.7 76.3 875 77.7C933.3 79 991.7 80 1050 75.2C1108.3 70.3 1166.7 59.7 1225 59.7C1283.3 59.7 1341.7 70.3 1370.8 75.7L1400 81L1400 101L1370.8 101C1341.7 101 1283.3 101 1225 101C1166.7 101 1108.3 101 1050 101C991.7 101 933.3 101 875 101C816.7 101 758.3 101 700 101C641.7 101 583.3 101 525 101C466.7 101 408.3 101 350 101C291.7 101 233.3 101 175 101C116.7 101 58.3 101 29.2 101L0 101Z" fill="#370089"></path><path d="M0 82L29.2 78.7C58.3 75.3 116.7 68.7 175 68.2C233.3 67.7 291.7 73.3 350 72.5C408.3 71.7 466.7 64.3 525 63.2C583.3 62 641.7 67 700 68.7C758.3 70.3 816.7 68.7 875 69.7C933.3 70.7 991.7 74.3 1050 75.5C1108.3 76.7 1166.7 75.3 1225 74C1283.3 72.7 1341.7 71.3 1370.8 70.7L1400 70L1400 101L1370.8 101C1341.7 101 1283.3 101 1225 101C1166.7 101 1108.3 101 1050 101C991.7 101 933.3 101 875 101C816.7 101 758.3 101 700 101C641.7 101 583.3 101 525 101C466.7 101 408.3 101 350 101C291.7 101 233.3 101 175 101C116.7 101 58.3 101 29.2 101L0 101Z" fill="#32017a"></path><path d="M0 75L29.2 74C58.3 73 116.7 71 175 70.8C233.3 70.7 291.7 72.3 350 72.2C408.3 72 466.7 70 525 71C583.3 72 641.7 76 700 75.5C758.3 75 816.7 70 875 69.7C933.3 69.3 991.7 73.7 1050 74.5C1108.3 75.3 1166.7 72.7 1225 72.8C1283.3 73 1341.7 76 1370.8 77.5L1400 79L1400 101L1370.8 101C1341.7 101 1283.3 101 1225 101C1166.7 101 1108.3 101 1050 101C991.7 101 933.3 101 875 101C816.7 101 758.3 101 700 101C641.7 101 583.3 101 525 101C466.7 101 408.3 101 350 101C291.7 101 233.3 101 175 101C116.7 101 58.3 101 29.2 101L0 101Z" fill="#2d026b"></path><path d="M0 72L29.2 71.3C58.3 70.7 116.7 69.3 175 71.5C233.3 73.7 291.7 79.3 350 81C408.3 82.7 466.7 80.3 525 77.8C583.3 75.3 641.7 72.7 700 73C758.3 73.3 816.7 76.7 875 77.8C933.3 79 991.7 78 1050 76.7C1108.3 75.3 1166.7 73.7 1225 74C1283.3 74.3 1341.7 76.7 1370.8 77.8L1400 79L1400 101L1370.8 101C1341.7 101 1283.3 101 1225 101C1166.7 101 1108.3 101 1050 101C991.7 101 933.3 101 875 101C816.7 101 758.3 101 700 101C641.7 101 583.3 101 525 101C466.7 101 408.3 101 350 101C291.7 101 233.3 101 175 101C116.7 101 58.3 101 29.2 101L0 101Z" fill="#28035d"></path><path d="M0 77L29.2 78C58.3 79 116.7 81 175 81.5C233.3 82 291.7 81 350 82.5C408.3 84 466.7 88 525 87.8C583.3 87.7 641.7 83.3 700 82.3C758.3 81.3 816.7 83.7 875 86C933.3 88.3 991.7 90.7 1050 89.8C1108.3 89 1166.7 85 1225 83.2C1283.3 81.3 1341.7 81.7 1370.8 81.8L1400 82L1400 101L1370.8 101C1341.7 101 1283.3 101 1225 101C1166.7 101 1108.3 101 1050 101C991.7 101 933.3 101 875 101C816.7 101 758.3 101 700 101C641.7 101 583.3 101 525 101C466.7 101 408.3 101 350 101C291.7 101 233.3 101 175 101C116.7 101 58.3 101 29.2 101L0 101Z" fill="#23034f"></path><path d="M0 96L29.2 93.7C58.3 91.3 116.7 86.7 175 85C233.3 83.3 291.7 84.7 350 85.3C408.3 86 466.7 86 525 85.7C583.3 85.3 641.7 84.7 700 84.5C758.3 84.3 816.7 84.7 875 85C933.3 85.3 991.7 85.7 1050 86.2C1108.3 86.7 1166.7 87.3 1225 88C1283.3 88.7 1341.7 89.3 1370.8 89.7L1400 90L1400 101L1370.8 101C1341.7 101 1283.3 101 1225 101C1166.7 101 1108.3 101 1050 101C991.7 101 933.3 101 875 101C816.7 101 758.3 101 700 101C641.7 101 583.3 101 525 101C466.7 101 408.3 101 350 101C291.7 101 233.3 101 175 101C116.7 101 58.3 101 29.2 101L0 101Z" fill="#1e0342"></path><path d="M0 92L29.2 91.7C58.3 91.3 116.7 90.7 175 90.7C233.3 90.7 291.7 91.3 350 92C408.3 92.7 466.7 93.3 525 93.5C583.3 93.7 641.7 93.3 700 92.8C758.3 92.3 816.7 91.7 875 92.5C933.3 93.3 991.7 95.7 1050 95.7C1108.3 95.7 1166.7 93.3 1225 92.5C1283.3 91.7 1341.7 92.3 1370.8 92.7L1400 93L1400 101L1370.8 101C1341.7 101 1283.3 101 1225 101C1166.7 101 1108.3 101 1050 101C991.7 101 933.3 101 875 101C816.7 101 758.3 101 700 101C641.7 101 583.3 101 525 101C466.7 101 408.3 101 350 101C291.7 101 233.3 101 175 101C116.7 101 58.3 101 29.2 101L0 101Z" fill="#1a0035"></path></svg>