<svg id="visual" viewBox="0 0 2400 300" width="2400" height="300" xmlns="http://www.w3.org/2000/svg" xmlns:xlink="http://www.w3.org/1999/xlink" version="1.1"><path d="M0 145L80 143.2C160 141.3 320 137.7 480 135.8C640 134 800 134 960 138.8C1120 143.7 1280 153.3 1440 155.5C1600 157.7 1760 152.3 1920 150C2080 147.7 2240 148.3 2320 148.7L2400 149L2400 301L2320 301C2240 301 2080 301 1920 301C1760 301 1600 301 1440 301C1280 301 1120 301 960 301C800 301 640 301 480 301C320 301 160 301 80 301L0 301Z" fill="#3b00a3"></path><path d="M0 188L80 185.2C160 182.3 320 176.7 480 173.7C640 170.7 800 170.3 960 171.5C1120 172.7 1280 175.3 1440 177C1600 178.7 1760 179.3 1920 178.8C2080 178.3 2240 176.7 2320 175.8L2400 175L2400 301L2320 301C2240 301 2080 301 1920 301C1760 301 1600 301 1440 301C1280 301 1120 301 960 301C800 301 640 301 480 301C320 301 160 301 80 301L0 301Z" fill="#350083"></path><path d="M0 200L80 201.5C160 203 320 206 480 207.3C640 208.7 800 208.3 960 209.7C1120 211 1280 214 1440 213.5C1600 213 1760 209 1920 206.3C2080 203.7 2240 202.3 2320 201.7L2400 201L2400 301L2320 301C2240 301 2080 301 1920 301C1760 301 1600 301 1440 301C1280 301 1120 301 960 301C800 301 640 301 480 301C320 301 160 301 80 301L0 301Z" fill="#2d0065"></path><path d="M0 242L80 240.8C160 239.7 320 237.3 480 237.8C640 238.3 800 241.7 960 241.8C1120 242 1280 239 1440 238.2C1600 237.3 1760 238.7 1920 239.2C2080 239.7 2240 239.3 2320 239.2L2400 239L2400 301L2320 301C2240 301 2080 301 1920 301C1760 301 1600 301 1440 301C1280 301 1120 301 960 301C800 301 640 301 480 301C320 301 160 301 80 301L0 301Z" fill="#230049"></path></svg>