<svg id="visual" viewBox="0 0 2400 300" width="2400" height="300" xmlns="http://www.w3.org/2000/svg" xmlns:xlink="http://www.w3.org/1999/xlink" version="1.1"><path d="M0 157L50 167.3C100 177.7 200 198.3 300 198.5C400 198.7 500 178.3 600 183.7C700 189 800 220 900 220.8C1000 221.7 1100 192.3 1200 186.2C1300 180 1400 197 1500 203.5C1600 210 1700 206 1800 214C1900 222 2000 242 2100 241.5C2200 241 2300 220 2350 209.5L2400 199L2400 301L2350 301C2300 301 2200 301 2100 301C2000 301 1900 301 1800 301C1700 301 1600 301 1500 301C1400 301 1300 301 1200 301C1100 301 1000 301 900 301C800 301 700 301 600 301C500 301 400 301 300 301C200 301 100 301 50 301L0 301Z" fill="#3b00a3"></path><path d="M0 210L50 222C100 234 200 258 300 255C400 252 500 222 600 212.5C700 203 800 214 900 223.5C1000 233 1100 241 1200 244.8C1300 248.7 1400 248.3 1500 243.3C1600 238.3 1700 228.7 1800 219.3C1900 210 2000 201 2100 209.2C2200 217.3 2300 242.7 2350 255.3L2400 268L2400 301L2350 301C2300 301 2200 301 2100 301C2000 301 1900 301 1800 301C1700 301 1600 301 1500 301C1400 301 1300 301 1200 301C1100 301 1000 301 900 301C800 301 700 301 600 301C500 301 400 301 300 301C200 301 100 301 50 301L0 301Z" fill="#310074"></path><path d="M0 291L50 285C100 279 200 267 300 266.2C400 265.3 500 275.7 600 280.3C700 285 800 284 900 279.8C1000 275.7 1100 268.3 1200 258.7C1300 249 1400 237 1500 235.2C1600 233.3 1700 241.7 1800 253.5C1900 265.3 2000 280.7 2100 277.7C2200 274.7 2300 253.3 2350 242.7L2400 232L2400 301L2350 301C2300 301 2200 301 2100 301C2000 301 1900 301 1800 301C1700 301 1600 301 1500 301C1400 301 1300 301 1200 301C1100 301 1000 301 900 301C800 301 700 301 600 301C500 301 400 301 300 301C200 301 100 301 50 301L0 301Z" fill="#230049"></path></svg>