<svg id="visual" viewBox="0 0 1400 300" width="1400" height="300" xmlns="http://www.w3.org/2000/svg" xmlns:xlink="http://www.w3.org/1999/xlink" version="1.1"><rect x="0" y="0" width="1400" height="300" fill="#001220"></rect><path d="M0 203L29.2 196.5C58.3 190 116.7 177 175 176.7C233.3 176.3 291.7 188.7 350 192.8C408.3 197 466.7 193 525 194.5C583.3 196 641.7 203 700 203.8C758.3 204.7 816.7 199.3 875 195.8C933.3 192.3 991.7 190.7 1050 188C1108.3 185.3 1166.7 181.7 1225 180.3C1283.3 179 1341.7 180 1370.8 180.5L1400 181L1400 301L1370.8 301C1341.7 301 1283.3 301 1225 301C1166.7 301 1108.3 301 1050 301C991.7 301 933.3 301 875 301C816.7 301 758.3 301 700 301C641.7 301 583.3 301 525 301C466.7 301 408.3 301 350 301C291.7 301 233.3 301 175 301C116.7 301 58.3 301 29.2 301L0 301Z" fill="#400991"></path><path d="M0 216L29.2 209.3C58.3 202.7 116.7 189.3 175 191C233.3 192.7 291.7 209.3 350 218.3C408.3 227.3 466.7 228.7 525 224.2C583.3 219.7 641.7 209.3 700 200.2C758.3 191 816.7 183 875 186.8C933.3 190.7 991.7 206.3 1050 210.5C1108.3 214.7 1166.7 207.3 1225 206.2C1283.3 205 1341.7 210 1370.8 212.5L1400 215L1400 301L1370.8 301C1341.7 301 1283.3 301 1225 301C1166.7 301 1108.3 301 1050 301C991.7 301 933.3 301 875 301C816.7 301 758.3 301 700 301C641.7 301 583.3 301 525 301C466.7 301 408.3 301 350 301C291.7 301 233.3 301 175 301C116.7 301 58.3 301 29.2 301L0 301Z" fill="#390a82"></path><path d="M0 226L29.2 224.5C58.3 223 116.7 220 175 219.3C233.3 218.7 291.7 220.3 350 220.7C408.3 221 466.7 220 525 221.5C583.3 223 641.7 227 700 228C758.3 229 816.7 227 875 227.5C933.3 228 991.7 231 1050 229.5C1108.3 228 1166.7 222 1225 221.2C1283.3 220.3 1341.7 224.7 1370.8 226.8L1400 229L1400 301L1370.8 301C1341.7 301 1283.3 301 1225 301C1166.7 301 1108.3 301 1050 301C991.7 301 933.3 301 875 301C816.7 301 758.3 301 700 301C641.7 301 583.3 301 525 301C466.7 301 408.3 301 350 301C291.7 301 233.3 301 175 301C116.7 301 58.3 301 29.2 301L0 301Z" fill="#330a73"></path><path d="M0 217L29.2 219C58.3 221 116.7 225 175 230.7C233.3 236.3 291.7 243.7 350 247.2C408.3 250.7 466.7 250.3 525 248C583.3 245.7 641.7 241.3 700 240C758.3 238.7 816.7 240.3 875 239C933.3 237.7 991.7 233.3 1050 228.2C1108.3 223 1166.7 217 1225 214.3C1283.3 211.7 1341.7 212.3 1370.8 212.7L1400 213L1400 301L1370.8 301C1341.7 301 1283.3 301 1225 301C1166.7 301 1108.3 301 1050 301C991.7 301 933.3 301 875 301C816.7 301 758.3 301 700 301C641.7 301 583.3 301 525 301C466.7 301 408.3 301 350 301C291.7 301 233.3 301 175 301C116.7 301 58.3 301 29.2 301L0 301Z" fill="#2c0965"></path><path d="M0 258L29.2 252.5C58.3 247 116.7 236 175 232.3C233.3 228.7 291.7 232.3 350 235.2C408.3 238 466.7 240 525 242.7C583.3 245.3 641.7 248.7 700 249.2C758.3 249.7 816.7 247.3 875 245.3C933.3 243.3 991.7 241.7 1050 243.5C1108.3 245.3 1166.7 250.7 1225 249C1283.3 247.3 1341.7 238.7 1370.8 234.3L1400 230L1400 301L1370.8 301C1341.7 301 1283.3 301 1225 301C1166.7 301 1108.3 301 1050 301C991.7 301 933.3 301 875 301C816.7 301 758.3 301 700 301C641.7 301 583.3 301 525 301C466.7 301 408.3 301 350 301C291.7 301 233.3 301 175 301C116.7 301 58.3 301 29.2 301L0 301Z" fill="#260957"></path><path d="M0 241L29.2 246.3C58.3 251.7 116.7 262.3 175 263C233.3 263.7 291.7 254.3 350 254.3C408.3 254.3 466.7 263.7 525 267.5C583.3 271.3 641.7 269.7 700 265.2C758.3 260.7 816.7 253.3 875 249.7C933.3 246 991.7 246 1050 250.5C1108.3 255 1166.7 264 1225 263.3C1283.3 262.7 1341.7 252.3 1370.8 247.2L1400 242L1400 301L1370.8 301C1341.7 301 1283.3 301 1225 301C1166.7 301 1108.3 301 1050 301C991.7 301 933.3 301 875 301C816.7 301 758.3 301 700 301C641.7 301 583.3 301 525 301C466.7 301 408.3 301 350 301C291.7 301 233.3 301 175 301C116.7 301 58.3 301 29.2 301L0 301Z" fill="#20074a"></path><path d="M0 283L29.2 279.7C58.3 276.3 116.7 269.7 175 267.2C233.3 264.7 291.7 266.3 350 266.3C408.3 266.3 466.7 264.7 525 263.2C583.3 261.7 641.7 260.3 700 261.7C758.3 263 816.7 267 875 268.3C933.3 269.7 991.7 268.3 1050 270.2C1108.3 272 1166.7 277 1225 277.5C1283.3 278 1341.7 274 1370.8 272L1400 270L1400 301L1370.8 301C1341.7 301 1283.3 301 1225 301C1166.7 301 1108.3 301 1050 301C991.7 301 933.3 301 875 301C816.7 301 758.3 301 700 301C641.7 301 583.3 301 525 301C466.7 301 408.3 301 350 301C291.7 301 233.3 301 175 301C116.7 301 58.3 301 29.2 301L0 301Z" fill="#1b053d"></path><path d="M0 276L29.2 275.2C58.3 274.3 116.7 272.7 175 272C233.3 271.3 291.7 271.7 350 273C408.3 274.3 466.7 276.7 525 279.8C583.3 283 641.7 287 700 289.5C758.3 292 816.7 293 875 291.2C933.3 289.3 991.7 284.7 1050 282.8C1108.3 281 1166.7 282 1225 284.3C1283.3 286.7 1341.7 290.3 1370.8 292.2L1400 294L1400 301L1370.8 301C1341.7 301 1283.3 301 1225 301C1166.7 301 1108.3 301 1050 301C991.7 301 933.3 301 875 301C816.7 301 758.3 301 700 301C641.7 301 583.3 301 525 301C466.7 301 408.3 301 350 301C291.7 301 233.3 301 175 301C116.7 301 58.3 301 29.2 301L0 301Z" fill="#170030"></path></svg>