<?xml version="1.0" encoding="utf-8"?>
<!-- Generator: Adobe Illustrator 24.0.0, SVG Export Plug-In . SVG Version: 6.00 Build 0)  -->
<svg version="1.1" id="Camada_1" xmlns="http://www.w3.org/2000/svg" xmlns:xlink="http://www.w3.org/1999/xlink" x="0px" y="0px"
	 viewBox="0 0 1920 513" style="enable-background:new 0 0 1920 513;" xml:space="preserve">
<style type="text/css">
	.st0{fill:#301E4E;}
	.st1{fill:#FF6E6C;}
	.st2{fill:#FF9797;}
	.st3{fill:#FFEF63;}
	.st4{fill:#371A45;}
	.st5{opacity:0.2;}
	.st6{fill:#FFFFFF;}
	.st7{fill:#0B005B;}
	.st8{fill:#4C346B;}
	.st9{opacity:0.6;}
	.st10{opacity:0.7;}
	.st11{fill:#FC5B5B;}
	.st12{opacity:0.3;}
	.st13{opacity:0.5;}
</style>
<g>
	<path class="st0" d="M171.97,260.95c1.07,1.07,1.42,2.14,1.42,3.2c0,1.42-1.07,2.85-2.14,4.98c-2.49,3.2-8.54,13.53-12.46,17.8
		c-3.2,3.92-3.2,6.05-7.12,6.05c-3.56,0-36.32-36.67-62.31-36.67c-9.26,0-22.79,0.71-22.79,24.57c0,23.5,25.28,33.47,41.66,40.23
		c16.73,7.48,69.43,24.57,69.43,95.42c0,47-38.45,68.36-96.49,68.36S4.63,447.88,1.42,444.67C0.36,443.25,0,442.18,0,441.11
		c0-1.42,1.07-2.49,2.85-4.63c2.85-3.92,9.61-11.39,13.53-15.31c1.07-1.07,1.78-1.43,2.85-1.43c2.49,0,4.63,3.92,7.48,6.77
		c3.92,3.92,19.94,21.01,47.71,21.01c12.82,0,33.47-2.85,33.47-24.57c0-22.07-22.79-40.95-38.81-52.34
		c-16.02-11.39-64.8-27.77-64.8-73.7c0-45.93,51.98-74.77,77.97-74.77C136.01,222.14,169.12,258.1,171.97,260.95z"/>
	<path class="st0" d="M225.02,230.33c8.9,0,30.62-3.56,46.64-3.56c47.71,0,78.33,0,94.35,18.87c9.61,11.75,21.72,23.86,21.72,47.71
		c0,43.08-30.98,64.09-60.88,74.41c-18.16,6.05-38.45,9.61-60.88,9.97l-0.71,38.81l-0.71,50.2c0,8.9-4.27,10.68-8.55,10.68
		c-2.85,0-5.7-0.71-7.83-0.71c-5.7,0-21.72,1.43-27.42,1.43c-5.7,0-6.77-4.63-6.77-11.39c0-6.41,1.42-58.04,1.42-76.91v-97.56
		c0-5.34,0.36-18.52,1.42-30.98l1.42-23.5C218.25,229.62,220.39,230.33,225.02,230.33z M293.02,358.15
		c14.6-1.07,32.04-3.56,43.08-8.9c16.38-7.83,24.92-19.94,24.92-43.44c0-7.83-0.71-17.09-2.85-28.13
		c-3.92-21.36-26.35-29.91-47.71-32.76c-7.12-1.07-14.6-1.42-22.79-1.42c-6.05,0-12.46,0.36-19.23,0.71l-2.14,115
		C275.57,359.58,284.48,359.22,293.02,358.15z"/>
	<path class="st0" d="M407.31,435.41c1.07-5.7,3.92-16.38,6.77-25.99c2.85-9.97,9.61-30.62,11.39-40.95
		c2.49-11.04,7.48-25.63,9.26-33.82c1.78-8.54,6.77-25.99,9.61-36.67c3.2-10.33,5.7-19.58,8.19-24.92
		c1.78-5.34,9.26-25.28,11.04-34.89c2.85-9.97,5.7-17.09,12.46-17.09c3.2,0,5.7,7.83,9.61,17.8c3.92,9.26,11.04,38.1,12.82,43.79
		c1.07,6.41,16.73,48.07,18.51,54.48c2.85,7.12,15.31,42.01,19.23,50.91c2.85,8.55,11.75,34.54,14.6,45.57
		c2.85,11.39,12.46,34.18,14.24,38.81c0.71,1.78,1.07,2.85,1.07,3.56c0,1.07-0.71,1.42-3.92,1.42h-19.94c-1.78,0-2.85-0.36-3.92-3.2
		c-1.78-4.63-2.85-8.9-3.92-12.82c-2.49-6.76-3.92-13.53-4.27-16.02c-1.07-5.34-4.63-18.51-7.48-24.21
		c-1.42-3.2-3.92-9.61-5.7-15.31l-3.2-10.33c-2.49-5.7-3.2-5.7-5.7-5.7c-3.92,0-7.48,0-11.04,0.36c-6.05,0.36-12.82,0.71-15.31,0.71
		c-2.85,0.36-14.95,0.36-26.35,0.36h-21.72c-0.36,0-0.36,0-0.71,0c-1.42,0-2.49,1.07-3.2,3.92l-0.71,3.56l-1.42,6.76
		c-1.78,5.7-7.12,33.47-8.19,36.32c-0.36,2.85-1.78,8.9-3.2,11.75c-1.07,1.42-2.14,6.76-3.56,11.39c-1.07,2.85-1.78,6.05-2.49,9.26
		c-1.07,2.85-0.71,3.2-3.92,3.2h-7.12c-2.49,0-2.85-1.42-1.78-4.63c0-0.36,0-1.07,0.36-1.78c0.36-1.07,0.36-2.49,1.42-4.98
		l3.2-13.17C403.39,448.94,406.24,442.18,407.31,435.41z M503.08,364.2c0-1.43-1.07-4.27-2.49-7.83
		c-2.85-6.41-8.9-29.55-12.82-40.23c-3.56-10.68-11.39-38.1-12.46-44.15c-1.78-6.41-5.34-18.87-7.12-18.87
		c-1.42,0-3.2,9.26-5.7,17.45c-1.78,7.83-10.68,39.88-13.53,48.42c-1.78,8.54-8.9,35.25-11.75,42.73c-0.36,1.07-0.71,1.78-0.71,2.49
		c0,4.63,6.77,3.56,9.97,3.56c3.56,0,16.02-0.71,20.65-0.71c2.14-0.36,6.76-0.71,12.11-0.71c7.12,0,15.31,0.36,19.23,0.36
		C502.01,366.7,503.08,365.98,503.08,364.2z"/>
	<path class="st0" d="M746.26,436.84c0,1.07-0.36,2.49-1.07,3.92c-3.92,6.76-24.57,40.95-70.85,40.95
		c-46.64,0-91.15-56.25-91.15-130.31c0-74.06,43.44-124.62,83.31-124.62c39.52,0,59.1,24.92,63.02,30.62
		c2.14,2.85,3.92,4.98,3.92,7.48c0,1.42-1.07,3.2-3.92,5.7c-6.77,5.34-18.16,15.31-23.5,22.43c-3.92,4.98-7.48,9.26-11.04,9.26
		c-1.78,0-3.56-1.07-5.7-3.56c-6.76-7.48-12.46-14.95-21.36-14.95c-15.67,0-38.45,18.16-38.45,76.55
		c0,58.04,32.04,69.43,42.01,69.43c9.97,0,21.01-9.97,24.92-13.89c2.49-2.49,3.56-4.27,5.34-4.27c1.07,0,2.49,0.36,4.27,1.42
		l30.26,16.73C741.63,432.21,746.26,433.28,746.26,436.84z"/>
	<path class="st0" d="M790.76,365.63c0,8.19,1.42,11.75,1.42,19.94l0.36,42.37c0,6.05-0.36,12.46-0.36,17.8
		c-0.36,3.2-0.36,6.05-0.36,8.9c4.63,0.36,9.26,0.36,13.53,0.36c7.48,0.36,16.38,0.36,23.14,0.36c13.17,0,24.92,0.71,37.74,0.71
		s24.92-1.07,34.54-1.07c9.61,0,18.87,0.71,22.79,0.71c3.92,0,3.92,1.78,3.92,5.7c0,3.2-0.71,7.12-0.71,11.04
		c0,3.2-2.14,4.27-7.48,4.27c-1.78,0-3.92,0-6.41-0.36c-6.41-0.71-22.43-1.07-38.81-1.07c-8.9,0-17.8,0-25.63,0.36
		C842.39,476,835.62,476,828.5,476c-18.87,0-39.16-0.71-46.64-0.71c-7.12,0-8.19-2.14-8.19-5.34c0-1.78,0.36-3.56,0.36-5.7
		c0.36-1.43,0.36-2.49,0.36-3.2c0-2.49-0.71-4.63-0.71-20.29c0-21.72-1.78-49.49-1.78-73.35c0-23.86,2.85-59.1,2.85-73.7
		c0-14.24,0-41.3-1.07-54.48c-1.07-13.17,17.09-7.12,28.13-7.12c11.04,0,40.59-2.14,59.82-2.14c18.51,0,54.48,1.07,61.95,1.07
		c7.48,0,6.05,5.7,6.05,9.61c0,1.07,0,2.14,0,3.92c0,3.56,0,8.19-1.42,8.19c-3.92,0-4.63-1.07-11.39-1.07h-56.97l-44.15-0.36
		c-5.34,0-11.39,0.71-16.02,1.07l-8.19,0.71l-0.71,9.61c-0.36,5.34-0.36,11.39-0.36,16.73c0,9.97,1.42,19.23,1.42,27.42v14.24
		c0,2.85,0,5.7,0.36,8.9c3.2,0.36,6.41,0.36,9.61,0.36h14.24c6.05,0,13.53-1.42,24.57-1.42c11.39,0,23.5,1.42,27.77,1.42
		c4.27,0,9.97-1.07,18.51-1.07c6.41,0,17.45,1.07,24.57,1.07c2.14,0,3.92,0,5.34-0.36c0.71,0,1.42-0.36,2.14-0.36
		c3.92,0,4.63,3.2,4.27,4.63c-0.36,1.78-0.36,9.97-0.71,12.82c-0.36,3.2,0,3.92-5.34,3.92c-4.98,0-35.6-3.92-49.13-3.92
		c-13.17,0-30.26,0-44.51,1.07c-7.12,1.07-14.95,0.71-21.01,0.71c-3.56,0-6.76,0-9.97-0.36l-1.07,5.7
		C791.12,357.44,790.76,361.71,790.76,365.63z"/>
</g>
<g>
	<g>
		<g>
			<g>
				<g>
					<g>
						<path class="st1" d="M1903.82,418.63c0,0-141.35-27.28-88.98-85.93c11-12.31,29.12-15.25,46.9-1.05
							c14.55,11.61,28.87,34.67,38.9,73.43C1901.75,409.4,1902.82,413.91,1903.82,418.63z"/>
					</g>
				</g>
			</g>
			<g>
				<g>
					<g>
						<path class="st2" d="M1821.71,340.45c13.93-15.6,45.07-8.51,59.02,57.01C1880.73,397.46,1786.97,379.36,1821.71,340.45z"/>
					</g>
				</g>
			</g>
			<g>
				<g>
					<path class="st3" d="M1826.79,345.44c8.08-9.04,26.13-4.93,34.23,33.06C1861.01,378.5,1806.64,368,1826.79,345.44z"/>
				</g>
			</g>
			<g>
				<g>
					<path class="st4" d="M1903.81,422.88c-0.27,0-0.54-0.03-0.8-0.08c-3.66-0.71-89.78-17.73-102.46-55.29
						c-4.09-12.13-0.35-24.79,11.13-37.64l0,0c9.2-10.3,22.04-14.2,35.23-10.7c26.99,7.17,49.25,43.1,61.06,98.58
						c0.3,1.39-0.12,2.84-1.12,3.86C1906.04,422.43,1904.94,422.88,1903.81,422.88z M1818.01,335.53
						c-9.42,10.55-12.5,20.13-9.41,29.27c9.29,27.53,69.67,43.65,89.63,48.28c-16-68.62-42.58-82.79-53.5-85.69
						C1834.74,324.73,1825,327.7,1818.01,335.53L1818.01,335.53z"/>
				</g>
			</g>
			<g class="st5">
				<g>
					<path class="st4" d="M1903.82,418.63c0,0-141.35-27.28-88.98-85.93c11-12.31,29.12-15.25,46.9-1.05
						c-8.6,1.91-16.41,8.34-19.82,16.63c-4.89,11.86-1.59,26.12,6.48,36.09c8.06,9.97,20.25,16.01,32.79,18.69
						c6.4,1.37,12.91,1.94,19.44,2.02C1901.75,409.4,1902.82,413.91,1903.82,418.63z"/>
				</g>
			</g>
		</g>
		<g>
			<g>
				<path class="st6" d="M1792.81,283.86l35.85,6.42c7.91,1.42,13.63,8.32,13.58,16.35c-0.11,18.2-5.37,48.84-37.69,59.76
					c-6.63,2.24-13.97-0.02-18.26-5.55l-21.53-27.8L1792.81,283.86z"/>
			</g>
		</g>
		<g class="st5">
			<g>
				<path class="st7" d="M1842.24,306.64c-0.11,18.2-5.36,48.83-37.68,59.76c-6.64,2.24-13.97-0.02-18.26-5.55l-21.53-27.79
					l4.56-7.99l12.19,15.74c4.29,5.53,11.62,7.79,18.25,5.55c27.97-9.46,35.67-33.67,37.3-51.82
					C1840.3,297.59,1842.27,301.92,1842.24,306.64z"/>
			</g>
		</g>
		<g>
			<g>
				<path class="st4" d="M1799.34,371.5c-6.28,0-12.39-2.88-16.4-8.05l-21.53-27.8c-1.05-1.36-1.18-3.21-0.33-4.7l28.05-49.19
					c0.89-1.56,2.67-2.39,4.44-2.08l35.85,6.42c9.96,1.79,17.14,10.43,17.08,20.56c-0.11,18.73-5.53,51.91-40.57,63.76
					C1803.75,371.15,1801.54,371.5,1799.34,371.5z M1769.85,332.69l19.8,25.56c3.2,4.13,8.64,5.79,13.54,4.13
					c28.55-9.65,34.68-35.65,34.8-55.76c0.04-5.99-4.21-11.1-10.09-12.15l-32.9-5.9L1769.85,332.69z"/>
			</g>
		</g>
		<g>
			<g>
				<path class="st6" d="M1802.35,307.04c-0.68,2.04-1.52,4.07-2.5,6.05l-17.88,35.92h-221.81l-96.04-113.16l172.54-67.81
					l17.19-6.76l131.51,93.83C1801.99,266.95,1808.61,288.13,1802.35,307.04z"/>
			</g>
		</g>
		<g class="st5">
			<g>
				<path class="st4" d="M1802.35,307.04c-0.68,2.04-1.52,4.07-2.5,6.05l-17.88,35.92h-221.81l-96.04-113.16l172.54-67.81
					C1665.04,216.3,1717.19,280.74,1802.35,307.04z"/>
			</g>
		</g>
		<g>
			<g>
				<path class="st4" d="M1781.97,353.25h-221.82c-1.25,0-2.43-0.55-3.24-1.5l-96.04-113.16c-0.89-1.04-1.21-2.45-0.88-3.78
					s1.29-2.41,2.56-2.92l189.73-74.58c1.34-0.52,2.85-0.34,4.02,0.49l131.51,93.83c20.24,14.44,26.89,41.08,15.81,63.33
					l-17.87,35.92C1785.06,352.34,1783.58,353.25,1781.97,353.25z M1562.12,344.76h217.22l16.7-33.56
					c9.21-18.5,3.68-40.64-13.14-52.64l-129.64-92.49l-182.07,71.56L1562.12,344.76z"/>
			</g>
		</g>
		<g>
			<g>
				<g>
					<path class="st6" d="M1900.53,300.55l-119.28,23.3c-10.82,2.11-21.86-2.3-28.24-11.27l-24.25-34.11l-8.88-12.5
						c-4.09-5.75-3.2-12.8,0.69-17.48c2.67-3.22,6.75-5.32,11.6-5.11l140.32,6.18l11.51,20.93l8.99,16.36L1900.53,300.55z"/>
				</g>
			</g>
			<g>
				<g>
					<path class="st4" d="M1775.89,328.61c-10.32,0-20.22-4.97-26.34-13.58l-33.14-46.61c-4.14-5.83-4.59-13.34-1.18-19.62
						c3.42-6.28,9.97-9.98,17.12-9.67l140.32,6.18c1.48,0.06,2.82,0.9,3.53,2.19l28.05,50.99c0.65,1.19,0.7,2.62,0.13,3.84
						c-0.58,1.23-1.7,2.11-3.03,2.37l-119.29,23.3C1780,328.41,1777.94,328.61,1775.89,328.61z M1731.5,247.6
						c-3.73,0-7,1.94-8.81,5.26c-1.88,3.46-1.64,7.44,0.64,10.65l33.14,46.61c5.4,7.6,14.8,11.35,23.96,9.57l113.58-22.19
						l-24.09-43.81l-137.94-6.08C1731.82,247.61,1731.66,247.6,1731.5,247.6z"/>
				</g>
			</g>
			<g>
				<g>
					<path class="st8" d="M1884,270.48l-155.24,7.98l-8.88-12.5c-6.91-9.71,0.39-23.11,12.29-22.59l140.32,6.18L1884,270.48z"/>
				</g>
			</g>
			<g class="st9">
				<g>
					<path class="st6" d="M1884,270.48l-2.94,0.15l-5.96-10.83l-140.32-6.18c-7.98-0.36-13.9,5.56-14.84,12.42l-0.06-0.09
						c-6.91-9.71,0.39-23.11,12.29-22.59l140.32,6.18L1884,270.48z"/>
				</g>
			</g>
			<g class="st5">
				<g>
					<path class="st4" d="M1901.15,299.8l-119.28,23.3c-10.82,2.11-21.86-2.3-28.24-11.27l-24.25-34.11l-8.88-12.5
						c-4.09-5.75-3.2-12.8,0.69-17.48c10.5,13.23,49.66,46.91,172.42,38.36L1901.15,299.8z"/>
				</g>
			</g>
			<g>
				<g>
					<path class="st4" d="M1728.76,282.71c-1.37,0-2.66-0.66-3.46-1.79l-8.88-12.5c-4.14-5.82-4.59-13.33-1.18-19.61
						c3.42-6.28,9.98-10.01,17.12-9.67l140.32,6.18c1.48,0.06,2.82,0.9,3.53,2.19l11.51,20.93c0.7,1.28,0.7,2.83-0.01,4.11
						c-0.71,1.28-2.03,2.1-3.49,2.17l-155.24,7.98C1728.9,282.71,1728.83,282.71,1728.76,282.71z M1731.5,247.6
						c-3.74,0-7.01,1.94-8.81,5.26c-1.88,3.46-1.64,7.43,0.64,10.64l7.54,10.61l146.15-7.51l-7.1-12.9l-137.94-6.07
						C1731.82,247.61,1731.66,247.6,1731.5,247.6z"/>
				</g>
			</g>
			<g>
				<g>
					<path class="st1" d="M1910.55,312.32l-1.21,0.59c-4.62,2.27-10.2,0.36-12.46-4.26l-32.47-66.18
						c-2.27-4.62-0.36-10.2,4.26-12.46l1.21-0.59c4.62-2.27,10.2-0.36,12.46,4.26l32.47,66.18
						C1917.07,304.48,1915.16,310.05,1910.55,312.32z"/>
				</g>
			</g>
			<g class="st5">
				<g>
					<path class="st7" d="M1909.95,312.61c-4.96,2.44-10.94,0.39-13.37-4.56l-31.88-64.97c-2.37-4.83-0.49-10.65,4.21-13.18
						c0.08,0.18,0.16,0.36,0.25,0.54l31.88,64.97c2.43,4.95,8.41,7,13.37,4.57c0.12-0.06,0.24-0.12,0.35-0.19
						C1916.79,304.63,1914.71,310.27,1909.95,312.61z"/>
				</g>
			</g>
			<g>
				<g>
					<path class="st4" d="M1905.25,318.12c-1.48,0-2.96-0.24-4.4-0.73c-3.43-1.17-6.19-3.61-7.79-6.86l-32.47-66.18
						c-1.6-3.25-1.83-6.93-0.66-10.35c1.17-3.43,3.61-6.19,6.86-7.79l1.21-0.59c6.71-3.29,14.85-0.51,18.14,6.2l32.47,66.18
						c3.29,6.71,0.51,14.85-6.2,18.14l-1.21,0.59C1909.32,317.65,1907.29,318.12,1905.25,318.12z M1873.96,232.71
						c-0.75,0-1.51,0.17-2.22,0.52l-1.21,0.59c-1.21,0.6-2.12,1.63-2.56,2.91c-0.44,1.28-0.35,2.66,0.25,3.87l32.47,66.18
						c0.6,1.22,1.63,2.13,2.91,2.56c1.28,0.44,2.66,0.35,3.87-0.25l1.21-0.59c0,0,0,0,0,0c2.51-1.23,3.55-4.27,2.32-6.78
						l-32.47-66.18C1877.64,233.75,1875.84,232.71,1873.96,232.71z"/>
				</g>
			</g>
		</g>
		<g>
			<g>
				<g>
					<polygon class="st6" points="1579.9,337.99 1420.33,346.44 1410.09,330.38 1394.26,305.51 1382.84,287.58 1435.78,281.49 
						1554.27,267.86 1557.08,267.75 1567.58,300.08 					"/>
				</g>
			</g>
			<g>
				<g>
					<path class="st4" d="M1420.32,350.68c-1.44,0-2.8-0.74-3.58-1.96l-37.49-58.86c-0.79-1.23-0.88-2.79-0.25-4.11
						c0.63-1.32,1.89-2.22,3.35-2.39l171.43-19.72c0.1-0.01,0.21-0.02,0.31-0.02l2.8-0.12c1.92-0.1,3.62,1.12,4.21,2.93l22.82,70.25
						c0.41,1.26,0.21,2.63-0.54,3.71c-0.75,1.09-1.96,1.77-3.27,1.84l-159.57,8.45C1420.47,350.68,1420.4,350.68,1420.32,350.68z
						 M1390.06,291.02l32.51,51.05l151.58-8.02l-20.1-61.89L1390.06,291.02z"/>
				</g>
			</g>
			<g>
				<g>
					<polygon class="st8" points="1567.58,300.08 1394.26,305.51 1382.84,287.58 1554.27,267.86 1557.08,267.74 					"/>
				</g>
			</g>
			<g class="st9">
				<g>
					<polygon class="st6" points="1567.58,300.08 1567.36,300.09 1559.81,276.86 1557.01,276.98 1388.44,296.37 1382.84,287.58 
						1554.27,267.86 1557.08,267.75 					"/>
				</g>
			</g>
			<g class="st5">
				<g>
					<path class="st7" d="M1577.72,337.99l-159.57,8.45l-10.23-16.06c5.05-0.34,9.92-0.97,14.58-1.81
						c22.7-4.09,29.59-33.28,11.11-47.08v0l118.49-13.63l2.81-0.11l10.5,32.33L1577.72,337.99z"/>
				</g>
			</g>
			<g>
				<g>
					<path class="st4" d="M1394.26,309.76c-1.45,0-2.8-0.74-3.58-1.96l-11.42-17.93c-0.79-1.23-0.88-2.79-0.25-4.11
						c0.63-1.32,1.89-2.22,3.35-2.39l171.43-19.72c0.1-0.01,0.21-0.02,0.31-0.02l2.8-0.12c1.92-0.1,3.62,1.12,4.21,2.93l10.5,32.34
						c0.41,1.27,0.2,2.66-0.57,3.75c-0.77,1.09-2,1.76-3.34,1.8l-173.32,5.43C1394.35,309.75,1394.3,309.76,1394.26,309.76z
						 M1390.06,291.02l6.48,10.17l165.26-5.18l-7.75-23.86L1390.06,291.02z"/>
				</g>
			</g>
			<g>
				<g>
					<g>
						<path class="st1" d="M1418.24,356.49l-1.18,0.64c-4.52,2.45-10.17,0.78-12.63-3.75l-35.15-64.8
							c-2.45-4.52-0.78-10.17,3.75-12.63l1.18-0.64c4.52-2.45,10.17-0.78,12.63,3.75l35.15,64.8
							C1424.44,348.39,1422.76,354.04,1418.24,356.49z"/>
					</g>
				</g>
				<g class="st5">
					<g>
						<path class="st7" d="M1417.65,356.81c-4.85,2.63-10.91,0.83-13.53-4.02l-34.51-63.63c-2.57-4.73-0.91-10.62,3.68-13.34
							l32.96,60.77c2.63,4.85,8.69,6.64,13.53,4.02c0.12-0.06,0.24-0.13,0.35-0.21l1.55,2.86
							C1424.29,348.12,1422.5,354.19,1417.65,356.81z"/>
					</g>
				</g>
				<g>
					<g>
						<path class="st4" d="M1412.64,362.51c-1.29,0-2.6-0.19-3.87-0.57c-3.47-1.03-6.33-3.35-8.06-6.53l-35.15-64.8
							c-1.73-3.18-2.11-6.85-1.08-10.32c1.03-3.47,3.35-6.33,6.53-8.06l1.18-0.64c3.18-1.72,6.85-2.11,10.32-1.08
							c3.47,1.03,6.33,3.35,8.06,6.53l35.15,64.8c3.56,6.57,1.12,14.82-5.45,18.38c0,0,0,0,0,0l-1.18,0.64
							C1417.07,361.95,1414.86,362.51,1412.64,362.51z M1418.24,356.49L1418.24,356.49L1418.24,356.49z M1378.65,278.43
							c-0.83,0-1.66,0.21-2.41,0.62l-1.18,0.64c-1.19,0.64-2.06,1.72-2.44,3.01c-0.38,1.3-0.24,2.67,0.4,3.86l35.15,64.8
							c0.65,1.19,1.72,2.06,3.01,2.44c1.3,0.38,2.67,0.24,3.86-0.4l1.18-0.64c2.46-1.33,3.37-4.42,2.04-6.87l-35.15-64.8
							c-0.65-1.19-1.72-2.06-3.01-2.44C1379.62,278.5,1379.13,278.43,1378.65,278.43z"/>
					</g>
				</g>
			</g>
		</g>
		<g>
			<g>
				<g>
					<path class="st6" d="M1810.66,485.39c-23.91,17.21-50.68-8.61-50.68-8.61s-8.6,35.38-37.28,33.46
						c-28.68-1.91-35.41-27.72-35.41-27.72s-29.82,6.05-71.6-15.64c-46.74-24.27-91.86-105.79-91.86-105.79
						c-43.03,51.63-117.83,79.89-134.82,43.02c-1-2.18-1.77-4.27-2.33-6.3c-8.77-32.01,36.43-45.1,61.61-56.8
						c10.56-4.9,23.46-15.41,38.54-26.96c23.13-17.74,51.39-37.98,84.2-44.31c0,0,25.99-4.1,60.83-12.87
						c12-3.01,33.75,4.09,57.79,15.88c45.78,22.45,99.83,61.88,110.48,80.69c1.39,2.45,2.43,4.86,3.18,7.22c0,0,0,0,0,0.01v0.01
						c2.03,6.39,1.93,12.42,0.63,17.89c-3.83,16.26-18.15,27.46-18.15,27.46c2.39,1.74,4.67,3.52,6.84,5.29
						c1.86,1.54,3.65,3.08,5.35,4.63C1826.74,442.1,1831.84,470.13,1810.66,485.39z"/>
				</g>
			</g>
			<g class="st5">
				<g>
					<path class="st4" d="M1792.14,411.75c0.16-0.14,0.34-0.29,0.5-0.43c-1.64-1.34-3.36-2.68-5.13-4.01
						c-0.03-0.02-0.05-0.05-0.08-0.07v0.01c-0.55-0.41-1.08-0.82-1.64-1.23c0,0,14.33-11.19,18.15-27.46l-0.63-17.89
						c-0.48,0.76-15.88,25.63-33.45,27.04c-17.85,1.42-26.57-13.32-26.57-13.32s-1.76,10.05-13.41,5.38
						c-11.65-4.68-19.62-28.26-19.62-28.26s-48.12-35.06-72.7-27.17c0,0,2.79,3.83,7.67,9.97l-81.85,63.39
						c-30.33-30.18-47.1-64.62-47.1-64.62c-3.08,16.01-32.61,49.02-45.36,51.25c-12.75,2.23-18.48-9.95-18.48-9.95
						c-23.59,21.61-24.21-5.16-24.21-5.16c-11.99,32.48-30.62,32.22-41.54,28.57c0.56,2.02,1.33,4.11,2.33,6.3
						c16.98,36.86,91.78,8.61,134.82-43.02c0,0,45.12,81.52,91.86,105.79c41.77,21.68,71.6,15.64,71.6,15.64s0.47,1.78,1.67,4.44
						c0.49-0.6,0.8-0.94,0.8-0.94s24.76-2.99,42.66-11.9c0,0,13.43,30-25.02,32.21c4.22,2.05,9.27,3.51,15.29,3.91
						c28.68,1.91,37.28-33.46,37.28-33.46s26.77,25.82,50.68,8.61C1830.65,470.99,1817.81,437.45,1792.14,411.75z M1749.74,446.25
						c-27.28,11.11-58.69,9.77-58.69,9.77c-0.12,0.03-0.23,0.06-0.35,0.09c-13.57-6.68-19.63-14.7-19.63-14.7
						c-17.09,2.12-32.99,0.07-47.59-4.73c-5.72-1.88-5.1-10.18,0.85-11.16c9.63-1.59,19.05-3.14,24.86-4.07
						c15.94-2.55,25.7-22.1,26.55-33.71c0-0.06,0.01-0.12,0.01-0.18c0.32-6.66,8.2-10,13.06-5.44
						c18.1,16.98,38.79,32.59,58.23,38.48c0.45,0.14,0.9,0.27,1.35,0.4C1760.57,424.49,1761.48,441.47,1749.74,446.25z
						 M1792.81,478.38c-9.87,7.18-20.63,3.84-28.17-0.46c-4.84-2.76-4.83-9.76,0-12.53c6.96-4.01,16.35-9.88,23.67-16.14
						c3.96-3.38,10.05-1.62,11.63,3.34C1802.41,460.35,1803.05,470.93,1792.81,478.38z"/>
				</g>
			</g>
			<g class="st5">
				<g>
					<path class="st4" d="M1686.79,274.82c-24.51,29.95-76.14,50.59-135.87,50.59c-24.04,0-46.77-3.34-66.95-9.29
						c23.13-17.74,51.39-37.98,84.2-44.31c0,0,25.99-4.1,60.83-12.87C1641.01,255.92,1662.76,263.03,1686.79,274.82z"/>
				</g>
			</g>
			<g>
				<g>
					<path class="st4" d="M1724.87,514.57c-0.81,0-1.63-0.03-2.46-0.08c-24.58-1.64-34.68-19.5-37.94-27.29
						c-9.43,0.96-36.07,1.46-70.73-16.54c-40.91-21.24-79.65-83.55-90.61-102.25c-32.08,35.92-79.79,60.37-110.84,56.26
						c-12.87-1.7-22.25-8.19-27.12-18.77c-4.38-9.5-5-18.44-1.85-26.58c7.05-18.22,31.62-28.63,51.36-36.99
						c4.25-1.8,8.26-3.5,11.84-5.16c8.64-4.01,19.23-12.19,31.48-21.66c24.69-19.08,55.42-42.82,92.24-49.93
						c0.05-0.01,0.1-0.02,0.14-0.02c0.26-0.04,26.23-4.18,60.46-12.79c23.7-5.95,73.87,22.3,94.34,34.73
						c31.17,18.92,69.09,46.97,78.66,63.86c12.68,22.38-0.18,43.62-11.32,54.43c22.62,17.7,35.44,37.72,35.38,55.44
						c-0.04,11.14-5.14,20.69-14.75,27.6c-18.21,13.12-39.09,4.26-51.02-4.7C1757.1,497.28,1745.23,514.57,1724.87,514.57z
						 M1687.28,478.28c1.9,0,3.62,1.27,4.11,3.17c0.25,0.92,6.42,22.88,31.58,24.56c24.73,1.62,32.56-28.94,32.88-30.24
						c0.36-1.47,1.49-2.64,2.94-3.07c1.46-0.42,3.03-0.03,4.12,1.02c0.99,0.95,24.54,23.12,45.25,8.22
						c7.41-5.34,11.19-12.32,11.22-20.75c0.06-15.81-13.44-35.15-36.11-51.74c-1.07-0.79-1.72-2.03-1.74-3.36
						c-0.02-1.33,0.58-2.59,1.63-3.41c1.12-0.88,27.49-22.04,13.26-47.15c-7.44-13.13-39.27-38.69-75.68-60.79
						c-40.14-24.36-73.82-37.29-87.87-33.76c-33.7,8.47-59.53,12.67-61.13,12.93c-34.81,6.75-64.63,29.79-88.59,48.3
						c-12.66,9.78-23.59,18.23-33.1,22.64c-3.71,1.72-7.79,3.45-12.1,5.28c-18.27,7.74-41,17.37-46.76,32.24
						c-2.32,6-1.78,12.53,1.64,19.96c3.64,7.91,10.55,12.59,20.52,13.91c29.27,3.87,77.35-22.09,107.17-57.87
						c0.9-1.08,2.26-1.64,3.66-1.51c1.39,0.13,2.63,0.94,3.31,2.17c0.45,0.8,45.06,80.69,90.11,104.08
						c39.75,20.64,68.52,15.3,68.8,15.24C1686.73,478.31,1687.01,478.28,1687.28,478.28z"/>
				</g>
			</g>
			<g>
				<g>
					<path class="st4" d="M1767.71,415.49c-8.58,0-19.5-2.64-32.13-11.39c-23.42-16.21-91.09-71.17-93.96-73.5
						c-1.82-1.48-2.09-4.15-0.62-5.97c1.48-1.82,4.15-2.1,5.97-0.62c0.7,0.57,70.29,57.08,93.44,73.11
						c25.86,17.9,42.13,6.05,42.81,5.54c1.86-1.4,4.52-1.06,5.94,0.79c1.42,1.85,1.09,4.49-0.74,5.92
						C1787.89,409.78,1780.33,415.49,1767.71,415.49z"/>
				</g>
			</g>
			<g>
				<g>
					<path class="st4" d="M1737.64,366.31c2.23,1.25,4.17,2.73,6.04,4.45c1.85,1.73,3.55,3.69,4.94,6.09
						c0.67,1.21,1.27,2.52,1.68,3.98c0.43,1.45,0.61,3.08,0.47,4.74c-0.14,1.66-0.62,3.34-1.38,4.83l-0.62,1.08l-0.7,0.98
						c-0.22,0.33-0.52,0.64-0.8,0.95c-0.28,0.31-0.56,0.63-0.89,0.9c-1.24,1.17-2.8,2.08-4.39,2.66c-1.6,0.57-3.23,0.84-4.77,0.9
						c-1.54,0.04-3.01-0.07-4.42-0.31c-1.4-0.25-2.72-0.61-4.01-1.02c-2.55-0.84-4.91-1.94-7.14-3.18c-1.11-0.63-2.2-1.27-3.25-1.98
						c-1.08-0.72-2.03-1.41-3.14-2.31c-1.83-1.47-2.12-4.14-0.65-5.97c1.36-1.7,3.76-2.07,5.56-0.94l0.17,0.11
						c0.79,0.49,1.8,1.09,2.71,1.61c0.95,0.53,1.89,1.06,2.85,1.54c1.91,0.98,3.85,1.83,5.75,2.49c1.9,0.65,3.78,1.05,5.39,1.09
						c0.81,0.02,1.52-0.09,2.15-0.26c0.63-0.16,1.19-0.4,1.69-0.8c0.14-0.08,0.25-0.2,0.38-0.32c0.12-0.12,0.26-0.21,0.37-0.36
						l0.37-0.42c0.09-0.14,0.19-0.29,0.3-0.43c0.38-0.57,0.66-1.15,0.82-1.82c0.31-1.31,0.14-3.08-0.53-4.92
						c-1.28-3.73-4.01-7.55-6.81-11.06l-0.06-0.08c-0.52-0.65-0.41-1.6,0.24-2.12C1736.46,366.05,1737.13,366.02,1737.64,366.31z"/>
				</g>
			</g>
			<g>
				<g>
					<path class="st4" d="M1501.87,387.5c-0.01,0-0.02,0-0.03,0c-2.34-0.02-4.23-1.93-4.21-4.28c0.29-39.82-24.58-55.11-25.64-55.74
						c-2.01-1.2-2.68-3.8-1.49-5.81c1.19-2.01,3.78-2.69,5.79-1.5c1.23,0.72,30.15,18.2,29.82,63.12
						C1506.1,385.62,1504.2,387.5,1501.87,387.5z"/>
				</g>
			</g>
			<g>
				<g>
					<path class="st4" d="M1435.73,361.86c-3.71,5.34-7.06,11.25-8.81,17.18c-0.82,2.96-1.17,5.94-0.62,8.42
						c0.27,1.24,0.76,2.33,1.45,3.29c0.19,0.23,0.38,0.46,0.56,0.7l0.67,0.64c0.41,0.49,0.92,0.75,1.37,1.09
						c1.88,1.15,4.1,1.27,6.68,0.57c2.55-0.68,5.22-2.15,7.64-3.91c0.3-0.23,0.61-0.44,0.9-0.68l0.54-0.42
						c0.74-0.55,1.66-0.93,2.6-1.05c1.88-0.25,3.89,0.6,5.03,2.17c0.15,0.19,0.26,0.39,0.38,0.59l0.1,0.17l0.11,0.2
						c0.07,0.14,0.16,0.26,0.23,0.39c0.63,1.05,1.37,1.96,2.16,2.64c0.78,0.7,1.62,1.19,2.7,1.5c1.07,0.34,2.38,0.41,3.87,0.39
						l0.27,0c1.45-0.02,2.63,1.14,2.65,2.59c0.01,0.96-0.49,1.8-1.25,2.27c-1.71,1.05-3.81,1.73-6.12,1.8
						c-2.31,0.08-4.77-0.64-6.74-1.91c-2.01-1.25-3.54-2.94-4.72-4.75c-0.15-0.23-0.29-0.46-0.42-0.69l-0.2-0.35l-0.05-0.09
						c-0.01-0.01-0.06-0.11-0.01-0.02c0.06,0.12,0.13,0.22,0.21,0.33c0.64,0.88,1.76,1.36,2.8,1.21c0.52-0.06,1.04-0.28,1.44-0.58
						l0.06-0.05l-0.04,0.03l-0.07,0.05l-0.14,0.11l-0.29,0.21c-0.38,0.29-0.77,0.55-1.15,0.82c-3.12,2.1-6.51,3.94-10.55,4.91
						c-1.98,0.52-4.23,0.64-6.46,0.37c-2.27-0.23-4.5-1.22-6.38-2.46c-0.89-0.69-1.81-1.36-2.49-2.19c-0.36-0.4-0.73-0.79-1.08-1.2
						c-0.32-0.45-0.63-0.9-0.94-1.36c-1.16-1.89-1.89-4.03-2.18-6.13c-0.58-4.24,0.38-8.13,1.7-11.57c1.34-3.45,3.17-6.55,5.16-9.46
						c2.03-2.91,4.22-5.57,6.74-8.11c0.7-0.71,1.84-0.71,2.54-0.01c0.63,0.62,0.7,1.6,0.21,2.3L1435.73,361.86z"/>
				</g>
			</g>
			<g>
				<g>
					<path class="st4" d="M1642.08,439.89c2.31,0.24,4.77,0.34,7.15,0.33c2.4,0,4.8-0.11,7.17-0.33c2.37-0.21,4.73-0.51,7.05-0.94
						c2.33-0.39,4.6-0.97,6.84-1.57l0,0c1.31-0.28,2.61,0.13,3.51,1l0.28,0.27c0.65,0.63,1.54,1.44,2.37,2.14
						c0.84,0.72,1.71,1.43,2.59,2.12c1.75,1.39,3.58,2.69,5.45,3.93c3.74,2.47,7.65,4.66,11.7,6.47c8.11,3.64,16.81,5.68,25.54,5.78
						c1.09-0.02,2.19,0.07,3.27-0.05l3.27-0.21c2.17-0.29,4.35-0.51,6.49-1.02c2.17-0.36,4.26-1.08,6.4-1.64l3.13-1.12
						c0.52-0.19,1.05-0.35,1.57-0.55l1.53-0.66c8.26-3.37,16.07-8.05,23.89-13.14l0.01-0.01c1.26-0.82,2.95-0.46,3.76,0.8
						c0.69,1.06,0.54,2.41-0.26,3.31c-6.54,7.23-14.64,13.18-23.71,17.47l-1.7,0.8c-0.58,0.25-1.17,0.46-1.75,0.69l-3.53,1.33
						c-2.43,0.7-4.82,1.54-7.32,2.02c-2.46,0.62-4.99,0.93-7.51,1.31c-2.54,0.2-5.08,0.41-7.63,0.34
						c-10.21-0.05-20.32-2.55-29.39-6.87c-4.55-2.15-8.85-4.73-12.89-7.66c-2.03-1.45-3.98-3.01-5.85-4.66
						c-0.95-0.82-1.87-1.66-2.76-2.55c-0.92-0.9-1.74-1.73-2.71-2.82l3.79,1.26l0,0c-2.6,0.24-5.18,0.42-7.76,0.41
						c-2.57,0.03-5.13-0.09-7.67-0.3c-2.54-0.2-5.06-0.53-7.55-0.96c-2.51-0.43-4.93-0.94-7.44-1.66c-0.83-0.24-1.31-1.1-1.07-1.92
						c0.21-0.74,0.92-1.2,1.66-1.12L1642.08,439.89z"/>
				</g>
			</g>
			<g>
				<g>
					<path class="st4" d="M1759.99,481.03c-1.21,0-2.42-0.52-3.26-1.52l-14.37-17.22c-1.5-1.8-1.26-4.48,0.54-5.98
						c1.8-1.5,4.48-1.26,5.98,0.54l14.37,17.22c1.5,1.8,1.26,4.48-0.54,5.98C1761.91,480.71,1760.94,481.03,1759.99,481.03z"/>
				</g>
			</g>
			<g>
				<g>
					<path class="st4" d="M1686.81,478.31c1.79-0.03,3.69-0.11,5.55-0.21c1.87-0.1,3.73-0.23,5.6-0.39
						c3.74-0.31,7.46-0.73,11.17-1.29l0.02,0c1.12-0.17,2.16,0.6,2.33,1.71c0.15,0.98-0.43,1.91-1.33,2.23
						c-3.64,1.3-7.33,2.48-11.05,3.53c-1.86,0.53-3.73,1.03-5.61,1.51c-1.89,0.48-3.74,0.93-5.71,1.35
						c-2.3,0.49-4.57-0.97-5.06-3.28c-0.49-2.3,0.97-4.57,3.28-5.06C1686.25,478.34,1686.54,478.31,1686.81,478.31z"/>
				</g>
			</g>
			<g>
				<g>
					<path class="st4" d="M1648.68,480.79c-7.58,0-12.92-0.81-13.53-0.91c-2.32-0.37-3.89-2.54-3.53-4.86
						c0.37-2.31,2.55-3.89,4.85-3.53l0,0c0.39,0.06,39.01,5.85,56.35-15.73c0.74-0.92,1.82-1.49,2.99-1.57
						c1.78-0.14,43.98-3.91,52.83-46.61c0.48-2.29,2.72-3.78,5.02-3.3c2.3,0.48,3.77,2.72,3.3,5.02
						c-5.31,25.65-21.51,38.81-34.15,45.34c-10.67,5.5-20.52,7.28-24.51,7.81C1684.74,477.97,1662.81,480.79,1648.68,480.79z"/>
				</g>
			</g>
			<g>
				<g>
					<g>
						<path class="st6" d="M1659.17,396.36c-3.8,4.13-8.64,8.87-11.74,11.86c-0.93,0.9-1.98,1.65-3.13,2.22
							c-1.31,0.67-2.74,1.12-4.22,1.32c-14.82,1.95-64.98,8.54-90.56,11.87c-6.92,0.9-13.6-1.89-17.86-7.04
							c-1.44-1.75-2.61-3.77-3.4-6.01l-11.31-31.96c-2.44-6.87-0.91-14.52,3.98-19.92l14.81-16.41c3.15-3.49,7.45-5.75,12.11-6.38
							l80.55-10.7c3.24-0.44,6.44-0.05,9.36,1c5.42,1.96,9.9,6.27,11.94,12l13.57,38.05
							C1665.73,383.2,1664.15,390.93,1659.17,396.36z"/>
					</g>
				</g>
				<g class="st5">
					<g>
						<path class="st4" d="M1659.17,396.36c-3.8,4.13-8.64,8.87-11.74,11.86c-0.93,0.9-1.98,1.65-3.13,2.22
							c-1.31,0.67-2.74,1.12-4.22,1.32c-14.82,1.95-64.98,8.54-90.56,11.87c-6.92,0.9-13.6-1.89-17.86-7.04
							c87.31,3.41,87.04-64.84,87.04-64.84s11.46-15.47,19.06-25.53c5.42,1.96,9.9,6.27,11.94,12l13.57,38.05
							C1665.73,383.2,1664.15,390.93,1659.17,396.36z"/>
					</g>
				</g>
				<g>
					<g>
						<path class="st4" d="M1546.99,428.03c-10.05,0-19.31-6.38-22.74-16.04l-11.31-31.96c-2.96-8.35-1.11-17.61,4.83-24.18
							l14.81-16.41c3.82-4.23,9.04-6.98,14.69-7.74l80.56-10.7c11.19-1.49,22.06,5.14,25.85,15.78l13.57,38.05
							c3.01,8.44,1.11,17.78-4.96,24.38c0,0,0,0,0,0c-3.77,4.11-8.57,8.82-11.92,12.05c-1.23,1.19-2.64,2.19-4.18,2.96
							c-1.7,0.88-3.59,1.47-5.56,1.73c-15.49,2.04-65.52,8.61-90.57,11.87C1549.03,427.96,1548.01,428.03,1546.99,428.03z
							 M1630.98,329.29c-0.67,0-1.35,0.04-2.04,0.13l-80.55,10.7c-3.66,0.49-7.04,2.27-9.52,5.01l-14.81,16.41
							c-3.85,4.25-5.05,10.25-3.13,15.66l11.31,31.96c2.44,6.89,9.46,11.2,16.71,10.26c25.05-3.26,75.07-9.83,90.56-11.87
							c1-0.13,1.96-0.43,2.83-0.88c0.81-0.41,1.51-0.9,2.13-1.5c3.28-3.15,7.94-7.73,11.56-11.68l0,0
							c3.93-4.28,5.16-10.33,3.21-15.79l-13.57-38.05C1643.46,333.4,1637.47,329.29,1630.98,329.29z M1659.17,396.36L1659.17,396.36
							L1659.17,396.36z"/>
					</g>
				</g>
				<g>
					<g>
						<path class="st4" d="M1546.99,428.03c-10.05,0-19.31-6.38-22.74-16.04l-11.31-31.96c-2.96-8.35-1.11-17.61,4.83-24.18
							c0.69-0.77,1.64-1.25,2.67-1.37l83.46-9.53c14.29-1.63,27.62,7.2,31.69,20.99l6.77,22.91c0.01,0.02,0.01,0.05,0.02,0.07
							c2.47,8.95,1.94,16.13-1.57,21.35c-2.05,3.04-6.2,6.85-14.34,7.79c-0.46,0.06-51.11,6.48-76.4,9.77
							C1549.03,427.96,1548.01,428.03,1546.99,428.03z M1523.1,362.72c-3.07,4.14-3.91,9.55-2.16,14.48l11.31,31.96
							c2.44,6.89,9.46,11.2,16.71,10.26c25.3-3.29,75.96-9.72,76.47-9.78c4.01-0.46,6.79-1.84,8.32-4.11
							c2.03-3.02,2.19-7.96,0.44-14.3l-6.76-22.88c-2.9-9.83-12.41-16.11-22.59-14.96L1523.1,362.72z"/>
					</g>
				</g>
				<g>
					<g>
						<path class="st4" d="M1640.96,329.49l-15.57,16.79c-0.7,0.76-1.89,0.8-2.65,0.1c-0.66-0.61-0.78-1.59-0.33-2.34l11.76-19.65
							c1.21-2.02,3.83-2.68,5.85-1.47c2.02,1.21,2.68,3.83,1.47,5.85C1641.34,329.03,1641.15,329.28,1640.96,329.49z"/>
					</g>
				</g>
			</g>
			<g>
				<g>
					<path class="st4" d="M1518.43,358.72c-0.43-1.41-0.73-2.65-1.05-3.96c-0.31-1.3-0.58-2.59-0.84-3.89
						c-0.52-2.59-0.93-5.2-1.26-7.81c-0.34-2.61-0.56-5.23-0.67-7.85c-0.15-2.61-0.09-5.24,0.01-7.84c0.03-0.65,0.58-1.16,1.23-1.14
						c0.57,0.02,1.04,0.45,1.13,0.99l0.01,0.04c0.41,2.49,0.85,4.96,1.48,7.39c0.61,2.43,1.31,4.84,2.11,7.21
						c0.8,2.37,1.67,4.71,2.63,7c0.48,1.15,0.98,2.28,1.49,3.4c0.51,1.1,1.07,2.27,1.59,3.23c1.12,2.07,0.35,4.66-1.72,5.79
						c-2.07,1.12-4.66,0.35-5.79-1.72c-0.14-0.25-0.25-0.51-0.33-0.78L1518.43,358.72z"/>
				</g>
			</g>
			<g>
				<g>
					<path class="st4" d="M1678.19,359.36c-2.11,0-3.93-1.57-4.21-3.71c-2.49-19.72,1.26-35.74,11.15-47.61
						c15.12-18.14,38.91-19.67,39.92-19.73c2.35-0.14,4.34,1.66,4.47,4c0.13,2.34-1.66,4.34-3.99,4.47
						c-0.29,0.02-21.25,1.47-33.93,16.75c-8.29,9.99-11.38,23.8-9.2,41.05c0.29,2.32-1.35,4.45-3.68,4.74
						C1678.55,359.35,1678.37,359.36,1678.19,359.36z"/>
				</g>
			</g>
			<g>
				<g>
					<g>
						<g>
							<path class="st6" d="M1691.05,364.79c-0.19,0.15-0.39,0.3-0.58,0.45c-11.01,8.2-24.13,9.87-33,9.87
								c-5.79,0-9.77-0.7-10.16-0.78c-4.3-0.8-7.15-4.95-6.35-9.25c0.8-4.3,4.93-7.13,9.23-6.35c0.26,0.05,15.63,2.66,27.83-4.28
								C1682.23,357.79,1686.63,361.28,1691.05,364.79z"/>
						</g>
					</g>
				</g>
				<g>
					<g>
						<g>
							<path class="st4" d="M1657.47,379.34c-6.59,0-10.95-0.86-11-0.87c-3.14-0.59-5.92-2.39-7.76-5.07
								c-1.84-2.68-2.53-5.92-1.93-9.12c1.23-6.57,7.58-10.93,14.16-9.74c0.13,0.02,14.14,2.36,24.97-3.8
								c1.51-0.86,3.38-0.71,4.74,0.37c4.21,3.35,8.6,6.84,13.02,10.35c1.02,0.81,1.61,2.03,1.61,3.33c0,1.3-0.6,2.52-1.61,3.33
								c-0.22,0.17-0.44,0.34-0.67,0.51C1681.12,377.48,1667.12,379.34,1657.47,379.34z M1648.75,362.83
								c-1.72,0-3.29,1.24-3.62,3.01c-0.18,0.97,0.03,1.95,0.59,2.76c0.56,0.81,1.4,1.36,2.37,1.54c0.09,0.02,3.8,0.71,9.38,0.71
								c7.26,0,17.31-1.18,26.39-6.36c-2.14-1.7-4.25-3.38-6.33-5.03c-13.1,6.06-27.98,3.46-28.13,3.43
								C1649.17,362.85,1648.96,362.83,1648.75,362.83z"/>
						</g>
					</g>
				</g>
			</g>
		</g>
		<g>
			<g>
				<g>
					<path class="st1" d="M1569.36,386.67c1,7.16-2.9,13.61-8.71,14.41l-9.82,1.37l-3.61-25.9l9.82-1.37
						C1562.85,374.37,1568.36,379.52,1569.36,386.67z"/>
				</g>
			</g>
			<g class="st10">
				<g>
					<path class="st6" d="M1568.07,382.24c-2.28-2.28-5.24-3.5-8.3-3.07l-9.81,1.37l3.01,21.61l-2.15,0.3l-3.61-25.9l9.82-1.37
						C1561.55,374.55,1565.9,377.53,1568.07,382.24z"/>
				</g>
			</g>
			<g>
				<g>
					<path class="st11" d="M1569.36,386.67c1,7.16-2.91,13.6-8.71,14.41l-9.82,1.37l-3.61-25.9l5.28-0.74l1.77,12.7l9.81-1.37
						c1.86-0.26,3.54-1.11,4.91-2.37C1569.14,385.39,1569.27,386.02,1569.36,386.67z"/>
				</g>
			</g>
			<g>
				<g>
					<path class="st4" d="M1550.83,405.07c-1.29,0-2.41-0.95-2.59-2.26l-3.61-25.9c-0.1-0.69,0.09-1.39,0.5-1.94
						c0.42-0.56,1.04-0.92,1.73-1.02l9.82-1.37c3.61-0.5,7.2,0.72,10.11,3.44c2.76,2.58,4.6,6.23,5.16,10.28l0,0
						c1.19,8.57-3.72,16.37-10.94,17.37l-9.82,1.37C1551.07,405.06,1550.95,405.07,1550.83,405.07z M1550.18,378.78l2.88,20.71
						l7.22-1.01c4.37-0.61,7.27-5.75,6.48-11.46l0,0c-0.4-2.86-1.66-5.41-3.55-7.17c-1.74-1.62-3.81-2.36-5.81-2.08L1550.18,378.78z
						"/>
				</g>
			</g>
			<g>
				<g>
					
						<ellipse transform="matrix(0.9904 -0.1379 0.1379 0.9904 -38.9165 217.3669)" class="st1" cx="1549.03" cy="389.5" rx="10.61" ry="13.08"/>
				</g>
			</g>
			<g class="st10">
				<g>
					<path class="st6" d="M1559.53,388.04c0.11,0.78,0.16,1.55,0.15,2.31c-1.72-5.93-6.65-9.93-11.83-9.21
						c-5.17,0.72-8.82,5.92-8.85,12.09c-0.21-0.73-0.38-1.49-0.48-2.27c-1-7.15,2.9-13.6,8.7-14.41
						C1553.03,375.74,1558.54,380.89,1559.53,388.04z"/>
				</g>
			</g>
			<g>
				<g>
					<path class="st11" d="M1559.53,388.04c1,7.16-2.9,13.61-8.7,14.42c-5.8,0.81-11.31-4.34-12.3-11.49
						c-0.06-0.44-0.1-0.87-0.12-1.29c2.3,3.97,6.25,6.36,10.34,5.79c5.46-0.76,9.22-6.5,8.83-13.12
						C1558.55,383.99,1559.24,385.93,1559.53,388.04z"/>
				</g>
			</g>
			<g>
				<g>
					<path class="st4" d="M1549.64,405.15c-6.63,0-12.61-5.87-13.71-13.83c-0.56-4.05,0.2-8.07,2.15-11.3
						c2.06-3.41,5.18-5.57,8.78-6.07c7.23-1.01,14.07,5.15,15.27,13.72v0c1.19,8.57-3.71,16.36-10.94,17.37
						C1550.67,405.12,1550.15,405.15,1549.64,405.15z M1548.44,379.08c-0.28,0-0.57,0.02-0.85,0.06c-2.01,0.28-3.79,1.55-5.02,3.59
						c-1.33,2.21-1.85,5-1.45,7.87c0.79,5.71,4.98,9.86,9.35,9.25c4.36-0.61,7.26-5.75,6.47-11.46
						C1556.19,383.06,1552.48,379.08,1548.44,379.08z"/>
				</g>
			</g>
		</g>
		<g>
			<g>
				<path class="st4" d="M1614.08,419.29c-1.87,0-3.58-1.24-4.09-3.13l-6.44-23.66c-0.32-1.17-1.19-2.13-2.32-2.56l-6.4-2.44
					c-3.63-1.38-6.42-4.44-7.47-8.18l-7.46-26.67c-0.63-2.26,0.69-4.6,2.94-5.23c2.26-0.63,4.6,0.69,5.23,2.94l7.46,26.67
					c0.33,1.16,1.19,2.11,2.32,2.54l6.4,2.44c3.66,1.4,6.46,4.49,7.49,8.26l6.44,23.66c0.62,2.26-0.72,4.59-2.98,5.21
					C1614.83,419.24,1614.45,419.29,1614.08,419.29z"/>
			</g>
		</g>
		<g>
			<g>
				<g>
					<path class="st6" d="M1710.26,156.66c0,84.76-71.91,153.48-160.63,153.48c-74.52,0-137.2-48.49-155.33-114.26
						c-3.46-12.51-5.29-25.66-5.29-39.21c0-67.52,45.62-124.85,109.02-145.4h0.01c16.19-5.25,33.54-8.09,51.6-8.09
						C1638.35,3.17,1710.26,71.88,1710.26,156.66z"/>
				</g>
			</g>
			<g>
				<g>
					<path class="st4" d="M1549.64,314.38c-74.81,0-140.37-48.27-159.42-117.38c-3.61-13.07-5.45-26.65-5.45-40.34
						c0-67.68,44.99-127.73,111.95-149.43c0.05-0.02,0.1-0.03,0.16-0.05c16.95-5.47,34.7-8.25,52.76-8.25
						c90.91,0,164.87,70.76,164.87,157.73C1714.51,243.62,1640.55,314.38,1549.64,314.38z M1499.2,15.35
						c-63.37,20.6-105.94,77.37-105.94,141.31c0,12.93,1.73,25.74,5.14,38.08c18.05,65.44,80.24,111.15,151.24,111.15
						c86.23,0,156.38-66.95,156.38-149.23c0-82.29-70.15-149.24-156.38-149.24c-17.22,0-34.14,2.65-50.29,7.88
						C1499.3,15.32,1499.25,15.33,1499.2,15.35z"/>
				</g>
			</g>
			<g>
				<g>
					<g>
						<path class="st6" d="M1698.5,214.41c0,0-51.23,81.99-164.89,77.21c-82.41-3.47-135.29-48.94-140.88-80.46
							c-1-5.62-0.5-10.8,1.62-15.21l103.7-184.69c0,0,16.4-4.69,39.96-4.76c27.25-0.09,64.06,6.01,96.1,32.71
							C1718.24,109.32,1698.5,214.41,1698.5,214.41z"/>
					</g>
				</g>
				<g>
					<g>
						<path class="st4" d="M1545.97,298.15c-4.09,0-8.28-0.1-12.57-0.3c-76.4-3.66-121.54-36.22-138.32-65.47
							c-8.17-14.25-9.81-28.24-4.51-38.39c0.02-0.04,0.04-0.08,0.06-0.11l103.7-184.69c0.55-0.98,1.46-1.7,2.53-2
							c0.81-0.23,20.02-5.63,46.92-4.85c24.89,0.72,61.23,7.13,93.02,33.62c44.47,37.06,60.02,83.8,65.22,116.49
							c5.63,35.36,0.83,61.66,0.63,62.76c-0.06,0.34-0.17,0.68-0.32,0.99c-0.42,0.91-10.55,22.45-36.55,43.38
							C1643.48,277.54,1605,298.15,1545.97,298.15z M1398.07,197.97c-3.9,7.53-2.31,18.52,4.38,30.18
							c8.51,14.84,24.16,28.81,44.07,39.33c24.45,12.92,53.82,20.28,87.29,21.89c63.28,3.03,103.62-17.97,126.31-36.12
							c22.56-18.05,32.69-36.97,34.29-40.15c0.64-3.89,4.22-28.36-0.81-59.63c-5.01-31.16-19.87-75.7-62.23-110.99
							c-29.83-24.86-64.08-30.93-87.55-31.65c-21.28-0.64-37.85,2.86-42.98,4.1L1398.07,197.97z M1698.49,214.41L1698.49,214.41
							L1698.49,214.41z M1698.49,214.41L1698.49,214.41L1698.49,214.41z"/>
					</g>
				</g>
			</g>
			<g>
				<g>
					<path class="st4" d="M1674.89,208.13c0,0-27.03,77.09-133,67.98c-99.67-8.56-132.4-47.01-142.85-67.39c0,0,0-0.01-0.01-0.01
						c-3.92-7.66-4.7-12.76-4.7-12.76l-0.02-0.08c-3.46-12.52-5.3-25.67-5.3-39.22c0-67.51,45.62-124.84,109.02-145.39h0.01
						c0,0,84.55-9.83,139.57,54.41c0.02,0.02,0.04,0.05,0.07,0.08C1694.64,132.33,1674.89,208.13,1674.89,208.13z"/>
				</g>
			</g>
			<g class="st12">
				<g>
					<path d="M1674.89,208.13c0,0-27.03,77.09-133,67.98c-99.67-8.56-132.4-47.01-142.85-67.39c7.47,7.57,61.67,56.37,170.48,2.99
						c73.52-36.07,76.35-101.8,68.16-145.97C1694.64,132.33,1674.89,208.13,1674.89,208.13z"/>
				</g>
			</g>
			<g class="st13">
				<g>
					
						<ellipse transform="matrix(0.866 -0.5 0.5 0.866 138.7664 830.1251)" class="st6" cx="1618.42" cy="156.12" rx="15.41" ry="22.2"/>
				</g>
			</g>
			<g class="st13">
				<g>
					
						<ellipse transform="matrix(0.1784 -0.984 0.984 0.1784 1121.5695 1739.6908)" class="st6" cx="1602.51" cy="198.25" rx="9.78" ry="14.08"/>
				</g>
			</g>
			<g>
				<g>
					<g>
						
							<ellipse transform="matrix(0.2746 -0.9616 0.9616 0.2746 1032.7936 1766.6722)" class="st6" cx="1687.29" cy="198.84" rx="52.72" ry="38.03"/>
					</g>
				</g>
				<g class="st5">
					<g>
						<path class="st4" d="M1723.86,209.28c-7.99,28-30.85,46.03-51.04,40.26c-19.91-5.69-29.81-32.38-22.43-59.96
							c3.73,12.28,11.6,21.6,22.43,24.69c20.2,5.76,43.05-12.26,51.04-40.26c0.11-0.4,0.23-0.79,0.33-1.19
							C1727.43,183.44,1727.57,196.29,1723.86,209.28z"/>
					</g>
				</g>
				<g>
					<g>
						<path class="st4" d="M1680.59,254.86c-3.02,0-6.01-0.41-8.94-1.25c-11.12-3.17-19.8-12.01-24.45-24.87
							c-4.47-12.38-4.67-27.12-0.56-41.51c8.62-30.2,33.88-49.57,56.29-43.17c22.42,6.4,33.63,36.18,25.01,66.38
							c-4.11,14.39-12.06,26.81-22.4,34.96C1697.63,251.64,1689.02,254.86,1680.59,254.86z M1693.99,151.3
							c-16.1,0-32.74,15.67-39.19,38.26c-3.62,12.69-3.49,25.58,0.39,36.3c3.7,10.23,10.37,17.19,18.79,19.59
							c8.42,2.4,17.76,0.02,26.31-6.72c8.95-7.05,15.87-17.93,19.49-30.62c7.34-25.7-1.26-50.78-19.18-55.89
							C1698.43,151.6,1696.21,151.3,1693.99,151.3z"/>
					</g>
				</g>
				<g>
					<g>
						<path class="st4" d="M1689.96,246.94c-2.22,0-4.44-0.3-6.62-0.92c-17.56-5.01-26.12-29.13-19.08-53.76
							c7.03-24.63,27.04-40.59,44.59-35.58c17.55,5.01,26.12,29.13,19.08,53.76l0,0C1721.78,232.02,1705.66,246.94,1689.96,246.94z
							 M1702.03,164.22c-11.9,0-24.51,12.51-29.6,30.37c-5.75,20.13,0.2,39.54,13.25,43.27c1.48,0.42,2.98,0.62,4.5,0.62
							c11.9,0,24.51-12.51,29.6-30.37l0,0c5.75-20.13-0.2-39.54-13.25-43.27C1705.05,164.42,1703.55,164.22,1702.03,164.22z"/>
					</g>
				</g>
			</g>
			<g class="st13">
				<g>
					<path class="st6" d="M1409.46,156.65c0,0,8.36-96.03,91.78-122.59c65.64-20.9,112.85,35.42,112.85,35.42
						S1467.5,26.41,1409.46,156.65z"/>
				</g>
			</g>
		</g>
	</g>
	<g class="st5">
		<g>
			<path class="st7" d="M1600.18,435.47c-0.01,0-0.01,0-0.02,0c0-0.01,0-0.01,0-0.01S1600.17,435.46,1600.18,435.47z"/>
		</g>
	</g>
</g>
<g>
	<path class="st1" d="M1075.32,403.99c1.59-1.59,3.5-2.07,5.74-1.43c2.23,0.64,3.5,2.23,3.83,4.78c0,1.28-0.4,2.39-1.2,3.35
		c-0.8,0.96-1.52,1.91-2.15,2.87c-0.96,1.28-1.91,2.47-2.87,3.59c-0.96,1.12-2.08,2.32-3.35,3.59c-3.51,3.82-6.93,7.73-10.28,11.71
		c-3.35,3.99-6.93,8.05-10.76,12.19c-3.19,3.51-6.7,7.1-10.52,10.76c-3.82,3.67-7.89,6.93-12.19,9.8c-4.3,2.87-8.93,5.02-13.87,6.45
		c-4.95,1.43-9.97,1.67-15.06,0.72c-5.74-1.27-10.52-3.66-14.34-7.17c-3.82-3.5-7.1-7.65-9.8-12.43c-2.71-4.78-5.02-9.88-6.93-15.3
		c-1.91-5.42-3.67-10.52-5.26-15.3c-0.64-1.91-1.36-3.98-2.15-6.22c-0.8-2.23-0.08-4.14,2.15-5.74c0.64-0.64,1.51-0.96,2.63-0.96
		c1.11,0,2.15-0.16,3.11-0.48c2.55-0.64,4.46-0.96,5.74-0.96l10.52-2.87c5.42-1.59,10.91-3.59,16.49-5.98
		c5.57-2.39,10.76-5.33,15.54-8.85c3.18-2.23,6.22-4.78,9.08-7.65c2.87-2.87,5.09-6.05,6.69-9.56c1.27-2.23,2.15-4.54,2.63-6.93
		c0.48-2.39,0.24-4.86-0.72-7.41c-1.28-3.18-3.51-4.78-6.69-4.78c-3.19,0-6.22,0.48-9.08,1.43c-4.15,1.6-7.97,3.59-11.48,5.98
		c-3.51,2.39-7.02,4.86-10.52,7.41c-4.47,3.83-8.77,7.97-12.91,12.43c-4.15,4.47-7.97,8.93-11.48,13.39
		c-9.25,11.8-17.3,24.23-24.15,37.3c-6.86,13.07-12.84,26.78-17.93,41.12c0-0.31-0.17-0.31-0.48,0c-0.32,0.32-0.48,0.8-0.48,1.43
		l-1.44,1.91c-0.96,0.96-1.91,1.12-2.87,0.48c-2.23-0.64-3.67-1.75-4.3-3.35c-0.64-1.59-0.64-3.35,0-5.26l11-27.73l21.52-54.99
		c-3.19,3.51-6.38,7.1-9.56,10.76c-3.19,3.67-6.54,7.25-10.04,10.76c-0.96,1.28-2.08,2.55-3.35,3.82c-1.28,1.28-2.87,1.76-4.78,1.43
		c-2.56-0.31-3.99-1.59-4.3-3.82c-0.32-2.23,0.31-4.14,1.91-5.74c6.05-6.05,11.87-12.27,17.45-18.65
		c5.57-6.37,11.07-12.75,16.5-19.13l9.08-10.04c0.64-1.91,1.35-3.83,2.15-5.74c0.79-1.91,1.67-3.83,2.63-5.74
		c1.59-3.82,3.18-7.65,4.78-11.48c1.59-3.83,3.18-7.65,4.78-11.48l16.74-39.21c4.14-9.24,8.37-18.33,12.67-27.25
		c4.3-8.92,8.85-17.69,13.63-26.3c2.23-4.14,4.62-8.13,7.17-11.95c2.55-3.83,5.57-7.33,9.08-10.52c3.5-2.87,7.49-5.09,11.96-6.69
		c4.46-1.59,8.92-1.11,13.39,1.43c5.41,3.19,8.37,7.81,8.84,13.87c0.48,6.06-0.4,11.64-2.63,16.74c-1.6,3.83-3.43,7.58-5.5,11.24
		c-2.08,3.67-4.23,7.25-6.45,10.76c-7.34,10.84-14.82,21.36-22.47,31.56c-7.65,10.21-15.62,20.4-23.91,30.6
		c-8.61,11.16-17.69,22.16-27.25,32.99c-0.96,1.6-2,2.95-3.11,4.06c-1.12,1.12-2.32,2.47-3.59,4.06l-3.35,3.83
		c-0.64,0.64-1.04,1.43-1.2,2.39c-0.16,0.96-0.56,1.91-1.19,2.87l-9.56,23.43c5.42-7.01,11.39-13.78,17.93-20.32
		c6.53-6.53,13.63-12.19,21.28-16.97c2.87-1.91,6.13-3.59,9.8-5.02c3.66-1.43,7.33-2.39,11-2.87c3.66-0.48,7.17-0.16,10.52,0.96
		c3.35,1.12,6.29,3.59,8.85,7.41c1.91,3.19,2.94,6.54,3.11,10.04c0.16,3.51-0.32,7.02-1.43,10.52c-1.12,3.51-2.8,6.86-5.02,10.04
		c-2.23,3.19-4.47,5.9-6.69,8.13c-7.97,8.29-17.3,14.51-27.97,18.65c-10.69,4.15-21.44,7.49-32.27,10.04
		c1.27,3.19,2.39,6.38,3.35,9.56c0.96,3.19,2.23,6.54,3.83,10.04c1.91,4.47,4.22,8.93,6.93,13.39c2.7,4.47,6.45,7.49,11.24,9.08
		c6.69,2.23,13.7,1.28,21.04-2.87c4.46-2.55,8.44-5.57,11.96-9.08c3.5-3.5,7.01-7.01,10.52-10.52c5.42-5.42,10.6-11.07,15.54-16.97
		C1065.67,415.55,1070.54,409.73,1075.32,403.99z M1041.85,223.25c-3.83,6.06-7.34,12.27-10.52,18.65
		c-3.19,6.38-6.38,12.75-9.56,19.13c-5.1,10.84-10.04,21.76-14.82,32.75c-4.78,11-9.56,22.08-14.34,33.23
		c2.55-2.87,5.02-5.81,7.41-8.85c2.39-3.03,4.86-5.98,7.41-8.85c8.92-11.15,17.77-22.47,26.54-33.95
		c8.76-11.48,16.81-23.43,24.15-35.86c2.23-3.5,4.54-7.72,6.93-12.67c2.39-4.94,2.78-9.64,1.19-14.11
		c-1.91-4.14-5.42-5.1-10.52-2.87c-2.87,1.28-5.42,3.19-7.65,5.74C1045.83,218.16,1043.76,220.7,1041.85,223.25z"/>
	<path class="st1" d="M1166.16,402.56c1.91,1.6,2.47,3.27,1.67,5.02c-0.8,1.76-1.67,3.43-2.63,5.02l-8.61,9.56
		c-4.15,4.78-8.29,9.56-12.43,14.34c-4.15,4.78-8.45,9.41-12.91,13.87c-3.51,3.51-7.02,6.78-10.52,9.8
		c-3.51,3.03-7.34,5.82-11.48,8.37c-2.87,1.6-6.14,3.03-9.8,4.3c-3.67,1.28-7.1,1.12-10.28-0.48c-2.55-1.27-4.3-3.11-5.26-5.5
		c-0.96-2.39-1.6-4.86-1.91-7.41c-0.64-5.42-0.32-10.68,0.96-15.78c1.27-5.1,2.71-10.04,4.3-14.82c2.55-7.33,5.33-14.5,8.37-21.52
		c3.03-7.01,6.29-14.18,9.8-21.52l-21.52,25.34c-2.56,2.87-5.19,3.27-7.89,1.2c-2.71-2.07-2.79-4.86-0.24-8.37l7.17-8.61l32.52-37.3
		l10.52-12.43c1.59-2.23,3.5-3.18,5.74-2.87c1.59,0.64,2.79,1.6,3.59,2.87c0.79,1.28,0.87,2.71,0.24,4.3
		c-0.32,0.96-0.72,1.91-1.2,2.87c-0.48,0.96-1.04,1.91-1.67,2.87c-5.42,10.21-10.6,20.4-15.54,30.6
		c-4.95,10.21-9.65,20.73-14.11,31.56c-1.91,4.47-3.67,9.01-5.26,13.63c-1.6,4.62-3.03,9.32-4.3,14.1
		c-0.96,4.15-1.28,7.97-0.96,11.48c0,0.64,0.07,1.76,0.24,3.35c0.16,1.6,0.72,2.39,1.67,2.39c1.27,0.32,2.63,0.16,4.06-0.48
		c1.43-0.64,2.63-1.27,3.59-1.91c3.83-2.23,7.65-4.94,11.48-8.13c3.82-3.5,7.41-7.01,10.76-10.52c3.35-3.5,6.77-7.01,10.28-10.52
		c6.37-7.01,12.43-14.02,18.17-21.04c1.59-1.59,3.59-3.82,5.98-6.69C1161.14,400.65,1163.61,400.33,1166.16,402.56z M1154.69,278.72
		c-2.56-1.27-3.99-3.35-4.3-6.22c-0.32-2.87,0.16-5.5,1.43-7.89c1.27-2.39,3.11-4.22,5.5-5.5c2.39-1.27,4.86-1.27,7.41,0
		c2.55,1.6,3.98,3.75,4.3,6.46c0.31,2.71-0.17,5.26-1.44,7.65c-1.28,2.39-3.11,4.23-5.5,5.5
		C1159.71,279.99,1157.24,279.99,1154.69,278.72z"/>
	<path class="st1" d="M1323.95,230.42c3.5,1.6,4.46,3.99,2.87,7.17c-8.29,20.4-16.74,40.81-25.34,61.2
		c-8.61,20.4-17.54,40.64-26.78,60.73l-10.04,23.43l-8.61,19.6c-2.23,5.1-4.15,10.21-5.74,15.3c-1.6,5.1-3.19,10.21-4.78,15.3
		c-1.6,6.38-2.39,12.28-2.39,17.69c0,1.6,0.08,3.35,0.24,5.26c0.16,1.91,0.87,3.51,2.15,4.78c1.59,1.6,3.35,2.15,5.26,1.67
		c1.91-0.48,3.83-1.43,5.74-2.87c1.91-1.44,3.74-2.94,5.5-4.54c1.75-1.59,3.11-2.87,4.06-3.82c4.46-4.14,8.76-8.53,12.91-13.15
		c4.14-4.62,8.29-9.32,12.43-14.11l17.21-21.04c1.91-2.23,4.14-2.7,6.69-1.43c2.55,1.28,3.5,3.35,2.87,6.22
		c-0.32,0.96-0.96,1.91-1.91,2.87s-2.39,2.71-4.3,5.26c-4.15,5.1-8.53,10.44-13.15,16.02c-4.62,5.58-9.01,10.6-13.15,15.06
		c-3.82,4.15-7.81,8.29-11.95,12.43c-4.15,4.15-8.61,7.49-13.39,10.04c-3.83,2.23-7.89,3.35-12.19,3.35c-4.3,0-8.05-1.91-11.24-5.74
		c-4.15-5.09-5.82-11.15-5.02-18.17c0.79-7.01,1.99-13.22,3.59-18.65c-0.96,1.6-1.99,3.03-3.11,4.3c-1.12,1.28-2.32,2.71-3.59,4.3
		c-4.47,5.42-9.25,10.28-14.34,14.58c-5.1,4.3-10.84,8.05-17.21,11.24c-5.42,2.87-11.48,5.1-18.17,6.69
		c-6.69,1.6-13.07,0.8-19.13-2.39c-5.1-2.23-8.69-5.5-10.76-9.8c-2.08-4.3-3.19-9-3.35-14.11c-0.16-5.09,0.4-10.2,1.67-15.3
		c1.27-5.1,2.87-9.72,4.78-13.87c3.5-7.33,7.65-14.18,12.43-20.56c4.78-6.37,9.88-12.43,15.3-18.17c4.46-4.78,9.32-9.24,14.58-13.39
		c5.26-4.14,10.76-7.81,16.5-11c6.69-3.83,13.78-6.93,21.28-9.32c7.49-2.39,15.22-3.42,23.19-3.11c1.59,0,2.94,0.08,4.06,0.24
		c1.11,0.16,2.31,0.4,3.59,0.72c1.91,0.32,3.18,1.12,3.83,2.39c0.64,1.28,0.79,2.56,0.48,3.83c-0.32,1.28-1.04,2.39-2.15,3.35
		c-1.12,0.96-2.63,1.28-4.54,0.96c-0.32,0-0.64-0.07-0.96-0.24c-0.32-0.16-0.8-0.24-1.43-0.24c-6.38-0.64-12.91-0.16-19.6,1.43
		c-6.69,1.6-12.91,3.99-18.65,7.17c-10.52,5.1-20.4,12.27-29.64,21.52c-5.42,5.74-10.6,11.8-15.54,18.17
		c-4.95,6.38-9.17,13.23-12.67,20.56c-2.23,4.47-3.99,9.32-5.26,14.58c-1.28,5.26-1.12,10.28,0.48,15.06
		c1.27,5.1,3.83,8.29,7.65,9.56c2.87,1.6,5.9,2.15,9.09,1.67c3.18-0.48,6.37-1.2,9.56-2.15c12.43-4.46,23.03-11.63,31.8-21.52
		c8.76-9.88,16.33-20.4,22.71-31.56c7.33-12.11,13.94-24.3,19.84-36.58c5.9-12.27,11.55-24.78,16.97-37.53
		c5.09-11.15,10.04-22.39,14.82-33.71c4.78-11.31,9.4-22.55,13.87-33.71l8.61-20.56c0.96-2.23,2.23-5.33,3.83-9.32
		C1317.89,230.51,1320.44,229.15,1323.95,230.42z"/>
	<path class="st1" d="M1424.84,403.51c2.23-2.87,4.78-3.27,7.65-1.19c2.87,2.08,3.35,4.54,1.43,7.41c-1.91,2.56-3.75,4.95-5.5,7.17
		c-1.76,2.23-3.75,4.62-5.98,7.17c-4.47,5.1-9.08,9.97-13.87,14.58c-4.78,4.62-9.88,9.01-15.3,13.15
		c-10.52,8.29-22.4,14.91-35.62,19.84c-13.23,4.95-26.7,5.82-40.4,2.63c-6.69-1.59-12.99-4.06-18.89-7.41
		c-5.9-3.35-11.4-7.41-16.5-12.19c-1.27-0.96-2.63-2.15-4.06-3.59c-1.44-1.43-2.31-2.94-2.63-4.54c0-1.59,0.4-2.94,1.19-4.06
		c0.8-1.11,1.99-1.67,3.59-1.67c1.91-0.31,3.51,0.24,4.78,1.67s2.55,2.79,3.83,4.06c2.55,2.56,5.26,4.78,8.13,6.69
		c5.74,4.15,11.63,7.17,17.69,9.08c1.59,0.64,3.27,1.12,5.02,1.44c1.75,0.32,3.42,0.64,5.02,0.96c1.59,0.32,3.11,0.56,4.54,0.72
		c1.43,0.17,2.94,0.08,4.54-0.24c4.46-0.96,8.05-2.94,10.76-5.98c2.7-3.03,4.86-6.61,6.45-10.76c1.91-5.42,3.11-11,3.59-16.73
		c0.48-5.74,0.72-11.48,0.72-17.21c0-7.65-0.32-15.38-0.96-23.19c-0.64-7.81-0.64-15.7,0-23.67c-9.56,11.8-19.29,22.95-29.17,33.47
		l-8.61,9.08c-0.64,0.96-1.67,1.52-3.11,1.67c-1.44,0.16-2.63-0.24-3.59-1.2c-1.6-1.27-2.32-2.63-2.15-4.06
		c0.16-1.43,0.72-2.87,1.67-4.3c0.96-1.44,2.07-2.71,3.35-3.83c1.27-1.11,2.39-2.15,3.35-3.11c7.33-8.29,14.5-16.65,21.52-25.1
		c7.01-8.44,14.18-16.81,21.52-25.1l5.74-6.69c2.23-2.55,4.62-2.87,7.17-0.96c2.55,1.91,3.18,4.15,1.91,6.69
		c-0.64,1.6-1.6,2.95-2.87,4.06c-1.28,1.12-2.23,2.47-2.87,4.06c-1.28,2.87-2.08,5.9-2.39,9.08c-0.32,3.19-0.64,6.54-0.96,10.04
		c-0.32,7.97-0.16,15.94,0.48,23.91c0.64,7.97,0.79,15.94,0.48,23.91c0,6.69-0.48,13.63-1.43,20.8c-0.96,7.17-3.19,13.79-6.69,19.84
		c7.65-2.87,14.82-6.61,21.52-11.24c6.69-4.62,13.07-9.64,19.13-15.06C1408.58,424.08,1417.5,414.03,1424.84,403.51z"/>
</g>
</svg>
