<svg xmlns="http://www.w3.org/2000/svg" x="0px" y="0px"
width="48" height="48"
viewBox="0 0 172 172"
style=" fill:#000000;"><g fill="none" fill-rule="nonzero" stroke="none" stroke-width="1" stroke-linecap="butt" stroke-linejoin="miter" stroke-miterlimit="10" stroke-dasharray="" stroke-dashoffset="0" font-family="none" font-weight="none" font-size="none" text-anchor="none" style="mix-blend-mode: normal"><path d="M0,172v-172h172v172z" fill="none"></path><g><path d="M150.5,132.58333c0,9.89717 -8.0195,17.91667 -17.91667,17.91667h-93.16667c-9.89358,0 -17.91667,-8.0195 -17.91667,-17.91667v-93.16667c0,-9.89717 8.02308,-17.91667 17.91667,-17.91667h93.16667c9.89717,0 17.91667,8.0195 17.91667,17.91667z" fill="#70dfef"></path><path d="M123.152,89.58333h-12.06867v46.58333h-17.91667v-46.58333h-10.75v-14.33333h10.75v-8.63583c0.00717,-12.57033 5.22808,-20.03083 20.038,-20.03083h12.212v14.33333h-8.19508c-5.76558,0 -6.13825,2.15 -6.13825,6.17408v8.15925h14.33333z" fill="#ffffff"></path></g></g></svg>