<svg xmlns="http://www.w3.org/2000/svg" x="0px" y="0px"
width="48" height="48"
viewBox="0 0 172 172"
style=" fill:#000000;"><defs><linearGradient x1="25.98622" y1="177.87463" x2="175.68355" y2="28.1773" gradientUnits="userSpaceOnUse" id="color-1_d9OelZDsJJqN_gr1"><stop offset="0" stop-color="#70dfef"></stop><stop offset="0.5" stop-color="#1d8d9b"></stop><stop offset="1" stop-color="#4bccdd"></stop></linearGradient><linearGradient x1="-3.53868" y1="143.76226" x2="146.15865" y2="-5.93508" gradientUnits="userSpaceOnUse" id="color-2_d9OelZDsJJqN_gr2"><stop offset="0" stop-color="#70dfef"></stop><stop offset="0.5" stop-color="#1d8d9b"></stop><stop offset="1" stop-color="#4bccdd"></stop></linearGradient></defs><g fill="none" fill-rule="nonzero" stroke="none" stroke-width="1" stroke-linecap="butt" stroke-linejoin="miter" stroke-miterlimit="10" stroke-dasharray="" stroke-dashoffset="0" font-family="none" font-weight="none" font-size="none" text-anchor="none" style="mix-blend-mode: normal"><path d="M0,172v-172h172v172z" fill="none"></path><g><path d="M86,64.83683v42.34067c11.68167,-0.00717 21.156,-9.4815 21.156,-21.17033c0,-11.68883 -9.47433,-21.16317 -21.156,-21.17033zM86,33.94133v19.45033c18.00267,0.00717 32.58683,14.61283 32.58683,32.6155c0,18.00983 -14.58417,32.60833 -32.58683,32.60833v19.42883c28.21517,0 50.3315,2.97417 51.67167,-26.39483c0.516,-11.29467 0.516,-40.0115 0,-51.31333c-1.333,-29.22567 -23.005,-26.39483 -51.67167,-26.39483zM114.02167,0c-5.7835,0 -29.3045,0 -28.02167,0v22.49617c23.005,0 40.44867,-1.71283 52.81833,10.65683c12.26217,12.26217 10.664,28.92467 10.664,52.85417c0,16.39733 0.516,31.61933 -3.3325,41.6025c-9.589,24.58883 -34.92317,21.91567 -60.14267,21.91567v22.47467c37.05883,0 48.64733,0.6665 58.30083,-1.8275c14.32617,-3.698 25.94333,-15.351 27.53433,-35.52517c0.22217,-2.82367 0.22217,-94.49967 -0.00717,-97.3735c-0.82417,-10.44183 -3.90583,-19.2425 -11.49533,-26.5525c-12.95017,-12.3625 -28.3585,-10.69267 -46.31817,-10.72133z" fill="url(#color-1_d9OelZDsJJqN_gr1)"></path><path d="M85.98567,22.49617c-26.015,0 -50.74717,-2.29333 -60.17133,21.9085c-3.89867,10.02617 -3.32533,23.03367 -3.32533,41.6025c0,25.80717 -2.20017,50.826 21.90133,60.1785c10.02617,3.89867 23.0265,3.3325 41.58817,3.3325c26.09383,0 50.70417,2.3435 60.16417,-21.91567c3.89867,-10.105 3.3325,-22.90467 3.3325,-41.6025c0,-16.43317 0.516,-31.64083 -3.3325,-41.6025c-9.6105,-24.67483 -35.217,-21.9085 -60.1785,-21.9085c0.01433,0.00717 0.01433,0.00717 0.0215,0.00717zM123.43867,36.49267c16.9635,6.6005 14.60567,25.5205 14.60567,49.50017c0,29.283 2.56567,50.353 -26.39483,51.67883c-11.3735,0.516 -39.9255,0.516 -51.31333,0c-17.35767,-0.80267 -25.27683,-9.27367 -26.02933,-26.02933c-0.50883,-11.2015 -0.50883,-40.1405 0,-51.3205c1.2685,-27.735 20.554,-26.36617 45.9885,-26.402v0.0215c16.91333,0 34.959,-0.61633 43.14333,2.55133zM85.98567,53.39167c-18.00983,0 -32.60833,14.60567 -32.60833,32.6155c0,18.00983 14.60567,32.60833 32.60833,32.60833c18.00983,0 32.60117,-14.5985 32.60117,-32.60833c0,-18.00983 -14.59133,-32.6155 -32.60117,-32.6155zM85.98567,64.83683c11.68883,0 21.16317,9.4815 21.16317,21.17033c0,11.68883 -9.47433,21.17033 -21.16317,21.17033c-11.68883,0 -21.16317,-9.4815 -21.16317,-21.17033c0,-11.68883 9.47433,-21.17033 21.16317,-21.17033z" fill="#ffffff"></path><path d="M85.98567,64.83683c-11.68883,0 -21.16317,9.4815 -21.16317,21.17033c0,11.68883 9.47433,21.17033 21.16317,21.17033h0.00717v-42.34067c0.00717,0 0,0 -0.00717,0zM80.29533,33.91983c-25.37,0.03583 -44.72,-1.56233 -45.99567,26.402c-0.30817,6.69367 -0.3655,8.69317 -0.3655,25.65667c0,29.2615 -2.74483,50.34583 26.39483,51.70033c9.88283,0.4515 13.3515,0.32967 25.66383,0.37267v-19.42883c0,0 -0.00717,0 -0.01433,0c-18.00983,0 -32.60833,-14.5985 -32.60833,-32.60833c0,-18.00983 14.60567,-32.6155 32.60833,-32.6155h0.01433v-19.4575c-2.74483,0 -4.35733,0 -5.70467,0v-0.0215zM86,0c-46.19633,0 -54.30183,-1.03917 -65.36717,4.472c-3.8485,1.90633 -6.88717,4.12083 -9.88283,7.23117c-13.64533,14.1685 -10.74283,29.59117 -10.74283,74.261c0,45.58717 -1.14667,53.72133 4.31433,65.0375c4.55083,9.44567 13.244,16.54067 23.478,19.18517c8.82217,2.27183 22.80433,2.03533 58.2005,1.81317v-22.48183c-12.75667,0.20783 -31.65517,0.5375 -41.60967,-3.3325c-24.682,-9.57467 -21.90133,-35.38183 -21.90133,-60.1785c0,-16.684 -0.52317,-31.69817 3.3325,-41.6025c9.4815,-24.35233 34.29967,-21.9085 60.16417,-21.9085h-0.00717h0.0215h-0.00717h0.0215v-22.49617z" fill="url(#color-2_d9OelZDsJJqN_gr2)"></path><path d="M85.98567,53.39167c-18.00983,0 -32.60833,14.60567 -32.60833,32.6155c0,18.00983 14.60567,32.60833 32.60833,32.60833h0.00717v-11.438c0,0 -0.00717,0 -0.01433,0c-11.68883,0 -21.16317,-9.4815 -21.16317,-21.17033c0,-11.68883 9.47433,-21.17033 21.16317,-21.17033h0.00717v-11.44517c0.00717,0 0.00717,0 0,0zM85.9785,22.49617c-25.74983,0 -50.7185,-2.32917 -60.16417,21.9085c-3.89867,10.02617 -3.32533,23.03367 -3.32533,41.6025c0,16.28983 -0.516,31.691 3.3325,41.59533c9.503,24.45267 34.50033,21.81533 60.1785,21.91567v-11.47383c0,0 -0.00717,0 -0.01433,0c-29.06083,0 -50.3745,2.7305 -51.686,-26.402c-0.50883,-11.2015 -0.50883,-40.1405 0,-51.3205c1.2685,-27.735 20.554,-26.36617 45.9885,-26.402v0.0215h5.70467v-11.44517c0,0 -0.00717,0 -0.01433,0zM85.98567,22.49617h-0.0215h0.00717z" fill="#dedede"></path><path d="M119.884,44.49067c-4.20683,0 -7.61817,3.40417 -7.61817,7.61817c0,4.20683 3.41133,7.61817 7.61817,7.61817c4.20683,0 7.61817,-3.4185 7.61817,-7.61817c0,-4.214 -3.4185,-7.62533 -7.61817,-7.61817z" fill="#ffffff"></path><path d="M119.884,44.4835c-4.20683,0.00717 -7.61817,3.41133 -7.61817,7.61817c0,4.20683 3.41133,7.61817 7.61817,7.61817z" fill="#dedede"></path></g></g>
</svg>