<svg width="22" height="22" viewBox="0 0 22 22" fill="none" xmlns="http://www.w3.org/2000/svg">
<path d="M21.6668 11C21.6668 5.10837 16.8918 0.333374 11.0002 0.333374C5.1085 0.333374 0.333496 5.10837 0.333496 11C0.333496 16.8917 5.1085 21.6667 11.0002 21.6667C11.0627 21.6667 11.1252 21.6667 11.1877 21.6625V13.3625H8.896V10.6917H11.1877V8.72504C11.1877 6.44587 12.5793 5.20421 14.6127 5.20421C15.5877 5.20421 16.4252 5.27504 16.6668 5.30837V7.69171H15.2668C14.1627 7.69171 13.946 8.21671 13.946 8.98754V10.6875H16.5918L16.246 13.3584H13.946V21.2542C18.4043 19.975 21.6668 15.8709 21.6668 11V11Z" fill="white"/>
</svg>
