<svg width="22" height="22" viewBox="0 0 22 22" fill="none" xmlns="http://www.w3.org/2000/svg">
<path d="M13.0418 11C13.0418 12.1276 12.1278 13.0417 11.0002 13.0417C9.87256 13.0417 8.9585 12.1276 8.9585 11C8.9585 9.87244 9.87256 8.95837 11.0002 8.95837C12.1278 8.95837 13.0418 9.87244 13.0418 11Z" fill="white"/>
<path d="M15.7749 7.38774C15.6768 7.12178 15.5202 6.88106 15.3167 6.68347C15.1191 6.48002 14.8786 6.32345 14.6125 6.2253C14.3966 6.14148 14.0724 6.04171 13.4753 6.01453C12.8293 5.98507 12.6356 5.97872 11.0002 5.97872C9.36458 5.97872 9.1709 5.9849 8.52506 6.01436C7.9279 6.04171 7.60352 6.14148 7.38786 6.2253C7.12174 6.32345 6.88102 6.48002 6.68359 6.68347C6.48014 6.88106 6.32357 7.12162 6.22526 7.38774C6.14144 7.60356 6.04167 7.92794 6.01449 8.52511C5.98503 9.17094 5.97868 9.36462 5.97868 11.0002C5.97868 12.6356 5.98503 12.8293 6.01449 13.4753C6.04167 14.0725 6.14144 14.3967 6.22526 14.6125C6.32357 14.8786 6.47998 15.1192 6.68343 15.3168C6.88102 15.5202 7.12158 15.6768 7.38769 15.7749C7.60352 15.8589 7.9279 15.9587 8.52506 15.9859C9.1709 16.0153 9.36442 16.0215 11 16.0215C12.6357 16.0215 12.8294 16.0153 13.4751 15.9859C14.0723 15.9587 14.3966 15.8589 14.6125 15.7749C15.1466 15.5689 15.5688 15.1467 15.7749 14.6125C15.8587 14.3967 15.9585 14.0725 15.9858 13.4753C16.0153 12.8293 16.0215 12.6356 16.0215 11.0002C16.0215 9.36462 16.0153 9.17094 15.9858 8.52511C15.9587 7.92794 15.8589 7.60356 15.7749 7.38774ZM11.0002 14.1452C9.26302 14.1452 7.85482 12.7372 7.85482 11C7.85482 9.2629 9.26302 7.85486 11.0002 7.85486C12.7371 7.85486 14.1453 9.2629 14.1453 11C14.1453 12.7372 12.7371 14.1452 11.0002 14.1452ZM14.2697 8.46554C13.8638 8.46554 13.5347 8.13643 13.5347 7.73051C13.5347 7.32459 13.8638 6.99548 14.2697 6.99548C14.6756 6.99548 15.0047 7.32459 15.0047 7.73051C15.0046 8.13643 14.6756 8.46554 14.2697 8.46554Z" fill="white"/>
<path d="M11.0002 0.333374C5.11003 0.333374 0.333496 5.1099 0.333496 11C0.333496 16.8902 5.11003 21.6667 11.0002 21.6667C16.8903 21.6667 21.6668 16.8902 21.6668 11C21.6668 5.1099 16.8903 0.333374 11.0002 0.333374ZM17.0882 13.5253C17.0586 14.1773 16.9549 14.6224 16.8035 15.0121C16.4854 15.8348 15.835 16.4852 15.0122 16.8034C14.6227 16.9548 14.1774 17.0583 13.5256 17.0881C12.8724 17.1179 12.6637 17.125 11.0003 17.125C9.33675 17.125 9.12825 17.1179 8.47493 17.0881C7.82308 17.0583 7.37777 16.9548 6.98828 16.8034C6.57943 16.6496 6.20931 16.4086 5.90332 16.0969C5.5918 15.7911 5.35075 15.4208 5.19694 15.0121C5.04557 14.6226 4.94189 14.1773 4.91227 13.5254C4.88216 12.8721 4.87516 12.6635 4.87516 11C4.87516 9.33663 4.88216 9.12797 4.91211 8.47481C4.94173 7.82279 5.04525 7.37764 5.19661 6.988C5.35042 6.5793 5.59163 6.20902 5.90332 5.9032C6.20915 5.59151 6.57943 5.35046 6.98812 5.19665C7.37777 5.04529 7.82292 4.94177 8.47493 4.91199C9.12809 4.8822 9.33675 4.87504 11.0002 4.87504C12.6636 4.87504 12.8722 4.8822 13.5254 4.91215C14.1774 4.94177 14.6226 5.04529 15.0122 5.19649C15.4209 5.3503 15.7912 5.59151 16.0972 5.9032C16.4087 6.20919 16.6499 6.5793 16.8035 6.988C16.9551 7.37764 17.0586 7.82279 17.0884 8.47481C17.1182 9.12797 17.1252 9.33663 17.1252 11C17.1252 12.6635 17.1182 12.8721 17.0882 13.5253Z" fill="white"/>
</svg>
