<?xml version="1.0" standalone="no"?>
<!DOCTYPE svg PUBLIC "-//W3C//DTD SVG 20010904//EN"
 "http://www.w3.org/TR/2001/REC-SVG-20010904/DTD/svg10.dtd">
<svg version="1.0" xmlns="http://www.w3.org/2000/svg"
 width="1024.000000pt" height="1024.000000pt" viewBox="0 0 1024.000000 1024.000000"
 preserveAspectRatio="xMidYMid meet">

<g transform="translate(0.000000,1024.000000) scale(0.100000,-0.100000)"
fill="#000000" stroke="none">
<path d="M0 5120 l0 -5120 5120 0 5120 0 0 5120 0 5120 -5120 0 -5120 0 0
-5120z m3105 4172 c11 -20 26 -38 33 -38 6 -1 23 -2 37 -3 33 -1 32 -13 -5
-54 -16 -19 -28 -36 -26 -38 2 -2 6 -19 9 -36 6 -37 -3 -41 -46 -18 -26 13
-33 13 -70 -4 -46 -22 -59 -12 -37 29 15 28 6 52 -30 78 -41 30 -38 42 10 42
43 0 90 34 90 65 0 26 14 17 35 -23z m3510 -108 c44 -14 102 -39 128 -56 27
-17 65 -34 85 -38 94 -20 165 -45 267 -95 98 -48 123 -66 226 -164 105 -99
246 -267 235 -278 -2 -3 -29 3 -59 13 -53 16 -56 19 -88 86 -36 75 -69 115
-69 84 0 -9 9 -34 20 -54 50 -95 130 -341 130 -400 l0 -24 -20 23 c-26 32 -25
21 5 -53 29 -72 32 -103 9 -112 -9 -4 -18 -5 -19 -4 -12 19 -27 78 -35 141
-16 131 -48 248 -88 322 -36 65 -42 71 -85 83 -35 10 -51 21 -62 42 -19 37
-19 70 0 70 9 0 15 9 15 25 0 19 5 25 23 25 22 1 22 1 2 15 -11 8 -27 20 -35
28 -42 37 -151 98 -200 111 -30 8 -64 17 -75 21 -12 5 -4 -7 20 -31 137 -132
245 -341 321 -624 40 -149 51 -192 63 -260 5 -25 18 -65 29 -89 19 -41 19 -47
6 -73 -8 -16 -12 -32 -10 -37 10 -15 -23 -36 -36 -23 -13 13 -38 4 -38 -14 0
-29 -16 -11 -44 47 l-28 61 21 29 c23 31 27 49 10 49 -5 0 -7 5 -4 11 4 6 14
8 22 4 13 -5 15 2 10 40 -14 100 -82 324 -127 421 -26 56 -51 112 -55 125 -4
13 -11 29 -15 34 -5 6 -23 37 -41 70 -18 33 -49 83 -69 110 -20 28 -42 63 -50
78 -20 40 -94 76 -150 73 -60 -4 -129 -24 -161 -47 -15 -10 -31 -19 -37 -19
-5 0 -16 -7 -23 -16 -7 -9 -36 -31 -63 -50 -82 -55 -193 -208 -222 -305 -12
-39 -15 -79 -12 -145 5 -99 22 -145 95 -266 21 -35 45 -84 52 -109 25 -84 32
-95 61 -106 20 -7 30 -18 30 -31 0 -11 12 -35 26 -52 54 -64 50 -170 -6 -170
-44 0 -80 35 -80 78 0 20 -11 61 -25 90 -14 30 -25 65 -25 79 0 13 -23 70 -51
126 -28 56 -69 147 -92 202 -38 92 -42 107 -42 190 1 157 55 284 177 410 57
60 93 86 203 147 l134 73 -42 21 c-99 50 -211 55 -318 15 -70 -27 -210 -155
-235 -216 -9 -22 -23 -55 -31 -73 -12 -25 -14 -56 -11 -135 6 -113 22 -182 73
-302 115 -273 167 -418 163 -454 -2 -21 -15 -4 -70 94 -76 138 -138 264 -138
282 0 7 -4 21 -10 31 -16 28 -41 101 -67 197 -41 153 -19 320 56 427 74 106
193 199 291 227 25 8 50 15 55 16 38 12 130 2 200 -21z m-1783 -33 c18 -15 43
-31 55 -35 27 -9 22 -22 -26 -74 -17 -18 -34 -38 -38 -46 -4 -7 -37 -46 -73
-85 -36 -40 -74 -87 -85 -105 -11 -17 -29 -41 -40 -52 -11 -11 -27 -31 -35
-44 -20 -30 -90 -121 -108 -139 -7 -8 -32 -39 -55 -70 -23 -31 -51 -65 -62
-76 -11 -11 -33 -40 -49 -65 -28 -43 -29 -48 -27 -160 1 -63 -1 -111 -5 -107
-4 4 -9 22 -10 39 -2 18 -9 50 -15 71 l-12 37 -16 -23 c-9 -13 -30 -44 -47
-70 -35 -53 -48 -67 -164 -190 -85 -89 -204 -188 -293 -243 -49 -30 -52 -35
-62 -93 -3 -18 -12 -45 -20 -60 l-14 -26 -1 37 c0 20 4 48 10 62 9 23 7 26
-14 26 -26 0 -132 -33 -251 -79 -43 -17 -102 -33 -130 -37 -27 -3 -68 -11 -90
-19 -22 -7 -69 -18 -105 -24 -36 -6 -76 -14 -89 -18 l-25 -6 21 34 c12 19 44
81 73 138 80 160 243 407 291 442 15 10 34 37 43 58 10 26 27 46 46 56 36 19
80 55 80 66 0 4 -17 6 -38 3 -21 -2 -60 -6 -87 -8 -28 -2 -85 -12 -128 -21
-115 -25 -122 -20 -62 43 81 86 200 153 350 201 39 12 84 26 100 31 44 14 289
40 313 33 14 -3 29 3 44 18 13 13 47 42 76 64 29 21 52 42 52 46 0 4 37 32 83
63 122 85 149 105 177 130 14 12 62 49 108 81 45 32 82 62 82 67 0 5 10 13 23
18 12 5 58 38 102 74 44 35 88 65 97 65 10 1 32 -12 50 -28z m1033 -118 c14
-33 14 -38 -2 -55 -15 -17 -15 -19 3 -33 10 -8 36 -15 57 -15 45 0 49 -18 12
-65 -21 -29 -23 -36 -13 -63 16 -42 6 -49 -32 -22 l-32 23 -44 -44 c-24 -23
-45 -41 -47 -38 -2 2 -11 22 -19 44 -12 30 -22 41 -41 43 l-26 3 20 34 21 34
-26 28 c-44 47 -25 68 46 50 25 -7 29 -2 60 53 18 33 36 60 40 60 4 0 15 -16
23 -37z m-3641 -513 l47 -89 107 -3 c97 -3 105 -4 82 -17 -14 -7 -48 -42 -77
-76 -44 -54 -51 -68 -47 -97 2 -18 6 -55 9 -82 3 -27 8 -52 10 -57 14 -21 -20
-15 -88 16 l-76 35 -63 -21 c-35 -11 -72 -24 -83 -29 -59 -25 -58 -25 -52 37
4 32 9 74 12 93 6 32 1 40 -54 95 -33 34 -61 67 -63 74 -3 14 1 15 114 26 36
4 74 12 83 19 14 10 56 96 72 149 3 9 9 17 13 17 4 0 29 -40 54 -90z m1146
-40 c0 -5 -5 -10 -11 -10 -5 0 -7 5 -4 10 3 6 8 10 11 10 2 0 4 -4 4 -10z
m-270 -134 c0 -3 -4 -8 -10 -11 -5 -3 -10 -1 -10 4 0 6 5 11 10 11 6 0 10 -2
10 -4z m47 -21 c-4 -8 -16 -15 -27 -15 -22 0 -27 15 -8 26 7 5 8 2 3 -7 -4 -8
0 -7 10 3 21 20 30 17 22 -7z m1608 -5 c17 -26 25 -30 51 -25 43 7 48 -3 18
-38 -18 -22 -23 -37 -19 -57 8 -38 -16 -57 -51 -41 -22 10 -32 8 -61 -9 -19
-11 -37 -20 -40 -20 -3 0 -3 21 1 46 5 39 2 50 -19 79 l-25 33 44 11 c30 7 45
17 49 31 7 29 29 25 52 -10z m-1655 -30 c0 -5 -5 -10 -11 -10 -5 0 -7 5 -4 10
3 6 8 10 11 10 2 0 4 -4 4 -10z m4397 -62 c-3 -8 -6 -5 -6 6 -1 11 2 17 5 13
3 -3 4 -12 1 -19z m-343 -215 c-2 -27 0 -57 5 -68 4 -11 22 -65 39 -120 97
-310 146 -461 153 -470 4 -5 18 -48 32 -95 39 -137 117 -381 139 -438 11 -29
18 -55 15 -58 -3 -3 -32 -8 -65 -11 l-60 -6 -16 54 c-8 30 -20 79 -27 109 -20
98 -70 282 -104 385 -18 55 -43 136 -55 179 -12 44 -28 93 -35 110 -39 88 -75
238 -84 346 -10 124 -9 130 40 130 26 0 27 -2 23 -47z m-288 -8 c-19 -15 -19
-17 5 -192 24 -165 26 -176 39 -150 7 15 18 26 24 24 11 -4 75 -187 112 -322
50 -183 54 -201 59 -245 3 -24 9 -47 14 -50 11 -7 32 -72 21 -65 -14 9 -12 -7
4 -27 7 -10 15 -15 18 -12 4 3 5 -12 4 -33 -1 -21 1 -45 5 -53 11 -24 29 -108
29 -134 0 -28 -12 -34 -85 -42 -59 -7 -58 -9 -70 76 -11 78 -137 574 -151 595
-16 25 -38 158 -31 193 3 16 -2 32 -14 45 -10 11 -23 45 -29 76 -14 70 -57
226 -75 268 l-13 32 50 10 c27 6 53 9 58 6 5 -3 11 -1 15 5 3 5 12 10 18 10 7
0 3 -7 -7 -15z m-431 -375 c-3 -5 -10 -10 -16 -10 -5 0 -9 5 -9 10 0 6 7 10
16 10 8 0 12 -4 9 -10z m-98 -82 c-3 -8 -6 -5 -6 6 -1 11 2 17 5 13 3 -3 4
-12 1 -19z m-737 -78 c122 -14 191 -34 309 -91 251 -119 422 -337 485 -619 38
-166 -14 -373 -124 -494 -52 -57 -205 -154 -274 -173 -32 -9 -60 -22 -63 -28
-2 -7 3 -45 12 -86 9 -41 27 -139 41 -219 13 -80 32 -183 40 -230 36 -188 61
-366 54 -375 -7 -8 -2 -70 20 -283 0 -2 5 0 10 3 7 4 9 -2 4 -19 -3 -14 -3
-34 1 -43 5 -10 7 -28 6 -39 -1 -12 9 -38 23 -58 37 -55 46 -155 22 -246 -5
-21 -5 -22 3 -5 8 16 10 13 10 -21 1 -22 -2 -44 -6 -48 -5 -4 -8 -11 -8 -15 0
-4 -11 -31 -24 -59 -21 -45 -30 -53 -77 -72 -68 -28 -113 -28 -166 2 -51 27
-79 77 -119 213 -54 178 -93 276 -126 315 -39 45 -133 115 -133 98 0 -6 -14
10 -31 35 -38 58 -41 60 -87 52 -46 -8 -80 -33 -85 -63 -4 -29 -25 -43 -52
-36 -16 4 -21 0 -22 -16 -1 -16 2 -20 15 -16 9 4 6 -2 -8 -13 -13 -11 -28 -17
-32 -14 -5 2 -7 0 -6 -5 2 -5 -13 -22 -32 -38 -19 -16 -41 -36 -48 -46 -7 -9
-18 -23 -25 -30 -7 -7 -19 -24 -28 -38 -22 -34 -109 -236 -109 -252 0 -7 -9
-28 -20 -46 -19 -30 -23 -32 -81 -32 -145 0 -325 91 -477 241 l-43 43 65 58
c114 103 166 216 166 360 -1 165 -71 253 -244 303 -48 14 -68 15 -119 6 -129
-23 -202 -82 -309 -251 -43 -69 -53 -77 -103 -82 -62 -7 -116 9 -150 45 -17
18 -54 53 -83 80 -78 72 -80 79 -34 129 22 24 49 61 60 83 11 22 42 61 68 86
27 26 60 60 75 75 14 16 88 88 164 159 76 72 175 165 218 207 44 43 83 76 87
73 7 -4 58 37 132 107 19 18 99 94 179 170 247 233 296 284 303 312 4 17 -1
55 -13 99 -61 219 -54 355 27 513 24 48 124 148 197 197 81 55 238 117 323
127 41 6 78 12 80 15 8 8 68 6 162 -5z m-2525 -520 c4 -6 15 -8 25 -5 10 3 27
2 37 -4 10 -5 47 -17 83 -27 91 -25 98 -29 93 -59 -6 -30 12 -33 29 -5 18 28
27 25 78 -24 96 -92 106 -107 104 -159 -1 -46 8 -60 10 -16 0 12 7 24 15 27
10 3 12 0 8 -12 -4 -10 -3 -15 3 -11 6 3 13 -2 17 -12 3 -10 15 -30 25 -45 11
-16 16 -33 12 -39 -4 -7 -3 -9 3 -6 6 4 16 -6 22 -21 17 -40 21 -72 10 -72
-16 0 -10 -18 9 -22 21 -6 47 -98 28 -98 -6 0 -4 -5 4 -10 8 -5 11 -10 6 -10
-5 0 -3 -7 4 -15 8 -10 9 -19 2 -27 -5 -7 -13 -24 -17 -38 -7 -24 -7 -24 8 -5
l16 20 -4 -20 c-2 -11 -7 -60 -10 -110 -7 -114 -9 -128 -16 -140 -3 -5 -12
-31 -19 -57 -7 -27 -17 -48 -22 -48 -5 0 -7 4 -3 9 3 5 1 12 -5 16 -5 3 -10
16 -11 28 -1 20 -2 20 -8 -3 -4 -14 -4 -27 -1 -30 18 -13 19 -51 3 -84 -9 -20
-20 -36 -25 -36 -4 0 -8 -6 -8 -14 0 -16 -39 -66 -40 -51 0 6 5 16 12 23 8 8
9 12 1 12 -6 0 -17 -16 -23 -35 -6 -19 -16 -35 -21 -35 -5 0 -9 -7 -9 -15 0
-8 -5 -14 -11 -12 -6 1 -13 -7 -15 -18 -3 -22 -39 -55 -59 -55 -8 0 -21 7 -29
16 -9 8 -16 11 -16 5 0 -5 5 -13 11 -16 11 -7 -16 -45 -32 -45 -5 0 -25 -11
-45 -25 -26 -17 -44 -23 -58 -18 -12 4 -29 7 -38 7 -10 0 -18 4 -18 9 0 4 -5
5 -10 2 -15 -9 -1 -27 16 -21 8 3 14 -1 14 -8 0 -24 -99 -46 -214 -47 -82 -1
-111 2 -117 12 -7 12 -9 12 -9 0 0 -10 -3 -11 -14 -2 -7 6 -21 9 -30 5 -11 -4
-16 -1 -16 12 0 16 -2 17 -10 4 -8 -13 -11 -12 -25 5 -11 14 -13 15 -9 3 5
-15 2 -15 -40 0 -24 9 -42 21 -39 26 4 5 -1 7 -10 3 -10 -3 -17 -2 -17 3 0 6
-7 10 -16 10 -8 0 -12 4 -9 10 3 5 0 7 -7 5 -8 -3 -29 6 -48 20 -19 14 -43 25
-53 25 -31 0 -116 101 -121 143 -1 4 -5 7 -10 6 -14 -1 -45 54 -42 76 2 11 1
14 -1 7 -4 -10 -8 -10 -19 -1 -7 6 -12 15 -9 19 3 4 -2 13 -10 20 -15 13 -21
35 -7 27 4 -3 7 9 8 26 1 18 -1 26 -3 19 -3 -6 -9 -10 -14 -7 -5 4 -6 -2 -3
-12 5 -14 3 -14 -9 3 -18 23 -28 57 -32 106 -1 18 -7 47 -12 63 -12 36 -10
229 2 265 5 14 8 36 7 50 -3 24 -2 24 12 6 14 -18 15 -17 13 5 0 13 -5 27 -10
30 -6 4 12 51 39 107 37 74 54 99 67 99 15 -1 18 -7 13 -32 -4 -19 -3 -24 3
-15 11 20 24 78 14 65 -19 -24 -31 -13 -16 15 8 17 19 30 24 30 6 0 18 18 28
41 21 45 111 118 148 119 28 0 73 20 73 33 0 5 15 6 35 3 23 -5 35 -3 35 4 0
6 -6 8 -12 4 -10 -5 -10 -4 -1 6 9 10 19 10 45 1 29 -9 31 -9 15 3 -17 13 -14
14 25 11 37 -4 39 -3 13 4 l-30 9 35 1 c19 1 42 6 50 11 20 13 197 13 205 0z
m256 -97 c-8 -15 -10 -15 -11 -2 0 17 10 32 18 25 2 -3 -1 -13 -7 -23z m-1599
-658 c6 -14 15 -25 20 -25 4 0 8 -4 8 -10 0 -5 -7 -7 -16 -3 -9 3 -20 0 -26
-8 -7 -10 -11 -11 -14 -3 -3 7 -14 10 -25 7 -18 -5 -19 -2 -13 23 9 40 12 44
35 44 11 0 24 -11 31 -25z m5462 -625 c81 -12 139 -30 204 -65 48 -25 160
-113 195 -152 30 -34 48 -28 92 27 22 28 43 50 47 50 8 0 48 83 48 99 0 19 18
12 25 -9 12 -39 -20 -94 -109 -188 -38 -40 -40 -44 -28 -74 12 -34 7 -52 -8
-28 -8 12 -10 10 -10 -10 0 -30 -17 -15 -22 19 l-3 24 -30 -25 c-16 -14 -41
-29 -54 -33 -14 -4 -63 -27 -111 -51 -47 -24 -112 -50 -145 -57 -33 -8 -73
-20 -89 -26 -65 -26 -212 -41 -366 -37 -85 2 -169 7 -186 11 l-30 7 7 -74 c10
-107 14 -119 72 -246 33 -70 163 -169 277 -209 42 -15 53 -21 30 -18 -61 9
-120 10 -120 3 0 -5 5 -8 10 -8 6 0 10 -5 10 -10 0 -6 -17 -2 -37 9 -37 18
-158 150 -177 191 -5 11 -15 20 -23 20 -8 0 -11 5 -8 10 3 6 2 10 -2 10 -10 0
-35 63 -38 95 -2 11 -8 40 -15 65 -7 26 -10 67 -6 98 6 51 5 53 -15 47 -15 -5
-19 -4 -15 4 4 6 2 11 -3 11 -6 0 -11 -9 -11 -21 0 -11 -4 -17 -10 -14 -5 3
-10 -1 -10 -9 0 -9 6 -15 13 -14 6 2 12 -5 12 -15 0 -10 7 -22 15 -27 8 -5 10
-10 4 -10 -6 0 -10 -11 -9 -25 3 -23 -5 -30 -30 -25 -5 1 -1 -8 10 -20 16 -18
17 -23 5 -30 -20 -13 -26 -12 -28 3 -1 6 -4 28 -8 47 -4 26 -3 31 5 20 9 -13
11 -13 11 2 0 9 -8 22 -17 28 -13 8 -14 13 -6 16 8 4 11 15 7 31 -5 18 -2 30
10 38 14 11 15 14 1 25 -8 7 -15 19 -15 26 0 7 -19 23 -42 35 -44 22 -55 30
-188 128 -77 58 -123 101 -142 136 -8 15 -4 14 18 -6 52 -48 205 -112 337
-140 26 -6 47 -15 47 -20 0 -12 -2 -12 -102 13 -49 11 -91 18 -96 14 -11 -11
45 -53 113 -86 90 -43 97 -42 107 5 5 22 7 48 4 58 -2 9 0 17 5 17 5 0 9 8 9
18 0 14 2 15 10 2 6 -9 10 -10 10 -3 0 6 3 19 7 29 5 12 3 15 -6 9 -20 -12 1
22 52 83 38 46 165 152 182 152 3 0 22 8 43 17 87 40 191 51 316 33z m425
-352 c0 -22 -1 -22 -9 -3 -5 12 -9 14 -9 6 -1 -8 -4 -12 -7 -8 -8 7 4 27 17
27 5 0 9 -10 8 -22z m74 -15 c-7 -2 -19 -2 -25 0 -7 3 -2 5 12 5 14 0 19 -2
13 -5z m-93 -35 c0 -4 -4 -8 -9 -8 -6 0 -12 4 -15 8 -3 5 1 9 9 9 8 0 15 -4
15 -9z m100 -25 c-11 -17 -11 -17 -6 0 3 10 6 24 7 30 0 9 2 9 5 0 3 -7 0 -20
-6 -30z m-73 -75 c-3 -8 -6 -5 -6 6 -1 11 2 17 5 13 3 -3 4 -12 1 -19z m-1050
-100 c-3 -7 -5 -2 -5 12 0 14 2 19 5 13 2 -7 2 -19 0 -25z m-1145 -58 c4 0 8
-7 8 -15 0 -8 -7 -15 -15 -15 -8 0 -15 4 -15 9 0 5 -2 24 -5 42 l-5 34 12 -27
c7 -16 15 -28 20 -28z m-2668 -253 c10 -7 24 -35 30 -62 13 -48 13 -48 79 -70
37 -12 70 -25 74 -29 8 -8 -83 -96 -99 -96 -5 0 -7 -4 -4 -8 3 -5 7 -22 10
-38 21 -131 22 -128 -37 -98 -18 9 -43 25 -56 35 -34 27 -52 24 -117 -20 -58
-39 -59 -39 -62 -17 -2 13 6 51 17 84 26 76 26 79 1 87 -11 3 -20 11 -20 18 0
6 -9 20 -19 31 -33 35 -29 46 23 66 27 11 44 14 38 8 -7 -7 -12 -17 -12 -22 1
-17 40 35 40 52 0 15 74 92 89 92 4 0 15 -6 25 -13z m1018 -128 c7 -1 20 -3
28 -4 8 -1 23 -3 33 -4 26 -2 21 -13 -17 -39 l-34 -23 19 -52 c10 -28 19 -53
19 -55 0 -2 -20 11 -44 28 -47 34 -62 33 -109 -8 -26 -23 -32 -7 -14 39 19 49
17 55 -29 74 -44 18 -36 35 16 35 38 0 40 2 50 43 19 74 21 75 45 20 13 -29
30 -54 37 -54z m3363 -29 c19 -5 6 -6 -35 -3 -36 3 -67 7 -69 9 -8 7 73 2 104
-6z m-150 -10 c13 -6 15 -9 5 -9 -8 0 -22 4 -30 9 -18 12 -2 12 25 0z m-18
-26 c-3 -3 -12 -4 -19 -1 -8 3 -5 6 6 6 11 1 17 -2 13 -5z m796 -44 c3 -11 17
-24 31 -30 24 -9 25 -12 14 -35 -11 -25 -15 -26 -62 -20 -28 4 -53 9 -55 11
-5 4 52 93 60 94 4 0 9 -9 12 -20z m-5074 -509 c123 -21 372 -165 424 -245 18
-26 18 -27 -16 -69 -18 -23 -42 -55 -53 -71 -49 -74 -61 -88 -88 -105 -20 -14
-35 -17 -50 -11 -115 45 -222 65 -346 64 -82 0 -102 -4 -146 -26 -27 -15 -71
-47 -97 -72 -37 -37 -50 -60 -68 -119 -23 -77 -28 -184 -11 -227 14 -34 88
-111 137 -142 22 -14 70 -34 107 -43 67 -18 67 -18 123 6 44 19 61 32 76 61
10 21 19 40 19 43 0 3 -63 5 -139 5 l-139 0 -8 43 c-11 67 -6 189 10 205 24
24 87 30 391 37 165 4 307 9 316 11 13 4 16 -4 17 -38 0 -24 2 -92 3 -153 4
-163 -6 -210 -68 -330 -14 -27 -37 -71 -50 -98 -14 -28 -39 -57 -61 -71 -20
-13 -56 -39 -79 -58 -22 -19 -70 -45 -105 -57 -34 -12 -76 -27 -93 -33 -16 -6
-91 -12 -165 -14 -107 -3 -148 0 -200 15 -162 45 -301 133 -385 245 -118 158
-155 260 -162 456 -8 192 19 302 109 455 79 135 184 227 328 287 153 64 296
79 469 49z m3866 6 c146 -21 296 -94 404 -195 l74 -70 -28 -53 c-15 -30 -33
-61 -39 -69 -7 -8 -20 -31 -29 -51 -16 -36 -18 -36 -87 -41 -49 -4 -75 -10
-83 -22 -11 -14 -17 -13 -62 9 -112 55 -251 70 -352 38 -61 -19 -158 -106
-187 -168 -34 -71 -39 -159 -15 -255 9 -34 62 -101 102 -128 70 -48 180 -77
250 -67 36 6 50 14 76 48 49 65 46 68 -67 61 -160 -11 -203 15 -203 124 -1 73
24 135 59 152 19 8 127 14 360 18 l333 5 -2 -169 c-2 -195 -14 -261 -66 -354
-77 -139 -146 -203 -292 -273 l-66 -32 -230 0 -230 1 -99 53 c-139 75 -156 86
-177 117 -10 16 -39 56 -64 89 -58 78 -87 139 -118 254 -45 162 -31 406 32
565 31 78 153 227 225 275 69 45 157 91 206 107 110 36 256 48 375 31z m-1284
-28 c16 -25 56 -140 114 -324 31 -99 65 -202 75 -230 24 -66 102 -311 130
-405 12 -41 28 -91 35 -110 8 -19 17 -46 20 -60 4 -14 14 -47 24 -75 66 -186
87 -271 68 -277 -7 -1 -438 -2 -959 0 l-946 2 -26 82 c-15 45 -33 95 -40 112
-8 17 -24 57 -35 88 -11 32 -25 66 -30 75 -5 10 -19 54 -32 98 -46 163 -48
157 -49 -156 l0 -287 -182 -7 c-101 -4 -201 -5 -223 -3 l-40 3 -3 120 c-2 66
0 400 3 743 l7 623 347 -3 346 -3 57 -27 c31 -16 63 -28 71 -28 13 0 147 -131
147 -145 0 -4 9 -18 20 -32 21 -27 45 -99 55 -167 3 -21 7 -42 10 -46 2 -4 -2
-44 -10 -90 -17 -94 -65 -192 -122 -243 -19 -18 -46 -42 -60 -55 l-24 -22 26
-68 c15 -37 37 -89 50 -117 62 -133 115 -258 125 -292 10 -38 36 -80 44 -72 3
4 74 199 80 224 2 6 8 23 14 38 7 16 12 32 12 36 0 5 9 30 19 57 28 70 101
302 101 318 0 8 16 56 36 107 20 52 41 112 46 134 5 22 19 69 32 105 13 36 47
138 76 227 l52 163 227 3 c286 3 301 3 312 -14z m2629 -194 l0 -205 -175 0
-175 0 0 -115 0 -115 175 0 175 0 0 -210 0 -210 -177 -2 -178 -3 1 -30 c1 -16
2 -33 3 -37 1 -5 80 -8 176 -8 l175 0 0 -175 0 -175 -402 2 -403 3 -3 743 -2
742 405 0 405 0 0 -205z m-4072 -1320 c22 -11 31 -22 28 -33 -4 -16 -7 -30
-21 -102 -3 -14 -8 -50 -11 -80 -3 -30 -7 -65 -10 -78 l-5 -23 -204 1 c-136 1
-211 -2 -225 -10 -32 -17 -70 -106 -70 -165 0 -64 33 -132 79 -162 28 -19 47
-23 115 -23 45 1 94 7 111 14 39 17 23 24 -71 28 -95 5 -148 37 -158 97 -3 22
-2 51 4 66 19 49 54 55 345 55 146 0 265 -2 265 -5 0 -2 -8 -20 -17 -40 -12
-25 -23 -35 -40 -35 -22 0 -23 -2 -23 -99 0 -122 -19 -188 -74 -255 -93 -113
-333 -159 -521 -99 -90 29 -112 42 -207 126 -55 48 -75 73 -104 135 -41 88
-50 135 -47 245 1 70 6 89 44 168 42 89 62 113 167 196 50 40 140 81 207 93
27 5 131 7 230 5 143 -3 187 -7 213 -20z m2742 11 c30 -4 68 -8 85 -10 25 -3
31 -9 38 -42 5 -21 6 -53 4 -70 -11 -67 -168 -264 -201 -251 -9 4 -29 28 -45
54 -52 85 -74 99 -105 67 -39 -38 -1 -120 74 -158 25 -13 82 -36 128 -51 73
-24 86 -32 107 -65 73 -115 52 -251 -55 -360 -37 -37 -61 -52 -106 -65 -33 -9
-73 -21 -90 -26 -41 -12 -241 -12 -249 1 -3 6 -17 10 -29 10 -37 0 -133 48
-157 78 -11 15 -24 25 -27 22 -4 -3 -14 -25 -22 -50 -14 -41 -19 -45 -55 -52
-44 -8 -241 -2 -256 8 -6 3 -29 45 -53 94 -24 48 -62 111 -85 140 -42 52 -51
80 -28 80 7 1 5 6 -5 14 -14 10 -18 29 -18 88 l0 75 67 6 c78 6 93 19 93 82 0
72 -16 102 -63 119 -64 22 -107 28 -109 13 0 -6 -2 -111 -3 -232 0 -121 -2
-279 -3 -351 l-2 -131 -138 -5 c-76 -4 -150 -4 -165 -1 l-27 5 2 477 3 476
269 -3 c152 -1 287 -7 310 -13 93 -24 210 -118 253 -203 21 -42 24 -60 21
-122 -3 -64 -7 -77 -36 -113 -17 -22 -32 -44 -32 -48 0 -12 -33 -39 -70 -58
-44 -23 -46 -38 -11 -90 17 -25 31 -48 31 -51 0 -6 42 -66 51 -74 3 -3 11 -15
18 -28 12 -22 32 -27 33 -7 0 6 9 26 20 45 91 165 104 176 177 153 121 -38
131 -44 131 -69 0 -30 23 -40 56 -26 35 17 34 73 -2 101 -15 12 -33 21 -40 21
-31 0 -145 63 -173 95 -17 19 -35 35 -41 35 -18 0 -58 94 -65 157 -11 95 11
157 77 219 96 89 147 105 328 100 74 -2 160 -7 190 -10z m-1912 -64 c12 -27
23 -60 26 -74 2 -14 16 -54 31 -89 14 -35 33 -88 40 -116 15 -56 145 -440 163
-483 10 -23 26 -85 22 -85 -1 0 3 -12 9 -26 9 -25 7 -27 -17 -31 -15 -2 -89
-5 -164 -7 l-136 -3 -23 41 -23 41 -155 0 c-86 0 -161 -4 -166 -8 -6 -4 -15
-20 -20 -37 l-11 -30 -158 0 c-87 0 -159 2 -161 5 -1 3 6 30 15 60 10 30 37
116 61 190 23 74 46 142 50 150 13 28 73 197 84 240 29 113 40 149 56 187 10
25 19 51 19 58 0 8 4 25 10 39 l10 26 209 0 209 0 20 -48z"/>
<path d="M7290 7950 c0 -5 5 -10 10 -10 6 0 10 5 10 10 0 6 -4 10 -10 10 -5 0
-10 -4 -10 -10z"/>
<path d="M6936 7383 c4 -10 9 -38 12 -63 2 -25 10 -50 17 -55 10 -8 35 -103
35 -132 0 -1 6 0 14 3 18 7 11 96 -10 129 -6 11 -15 40 -19 65 -8 50 -20 70
-42 70 -11 0 -13 -5 -7 -17z"/>
<path d="M5185 7066 c-75 -19 -128 -50 -174 -102 -64 -73 -77 -154 -42 -256
35 -100 56 -130 170 -231 39 -34 57 -45 65 -37 7 7 11 57 11 123 1 120 22 248
35 212 6 -15 9 -8 14 30 16 116 39 175 84 217 24 22 42 41 40 43 -12 12 -160
13 -203 1z"/>
<path d="M5506 6973 c-38 -47 -86 -136 -86 -161 0 -7 -13 -40 -28 -75 -16 -34
-36 -91 -46 -127 -26 -97 -27 -99 -37 -71 -8 20 -12 21 -25 10 -16 -13 -15
-33 3 -137 7 -43 77 -91 188 -128 71 -24 94 -27 215 -27 105 0 152 5 213 21
100 27 188 74 233 125 44 48 42 64 -17 184 -43 86 -108 168 -189 237 -47 40
-311 180 -360 191 -21 5 -32 -3 -64 -42z"/>
<path d="M4990 5870 c0 -5 5 -10 11 -10 5 0 7 5 4 10 -3 6 -8 10 -11 10 -2 0
-4 -4 -4 -10z"/>
<path d="M4990 5821 c-8 -6 -17 -8 -20 -6 -3 2 -18 -16 -33 -40 -14 -25 -22
-47 -17 -50 6 -4 10 1 10 9 0 9 5 16 11 16 6 0 8 -7 5 -16 -3 -9 -2 -12 5 -9
6 4 8 13 5 21 -3 8 0 14 7 14 8 0 7 4 -3 10 -13 9 -12 12 4 25 11 8 26 15 33
15 7 0 13 5 13 10 0 12 -1 12 -20 1z"/>
<path d="M5070 5820 c0 -5 14 -10 32 -10 36 0 35 4 -4 14 -17 4 -28 2 -28 -4z"/>
<path d="M5040 5809 c0 -5 5 -7 10 -4 6 3 10 8 10 11 0 2 -4 4 -10 4 -5 0 -10
-5 -10 -11z"/>
<path d="M5166 5785 c11 -9 13 -13 4 -10 -8 3 -28 1 -45 -4 -16 -5 -24 -10
-17 -10 6 -1 12 -11 12 -22 0 -18 2 -20 15 -9 9 7 14 19 11 26 -3 8 1 13 12
12 9 -1 26 0 37 1 18 2 18 3 -5 16 -33 19 -49 19 -24 0z"/>
<path d="M5035 5780 c3 -5 17 -10 31 -10 13 0 24 5 24 10 0 6 -14 10 -31 10
-17 0 -28 -4 -24 -10z"/>
<path d="M5230 5755 c6 -8 22 -17 33 -21 87 -25 136 -61 107 -79 -6 -4 -8 -11
-5 -16 4 -5 -1 -12 -10 -15 -9 -4 -14 -13 -11 -21 3 -8 -1 -28 -9 -44 -9 -16
-13 -34 -10 -39 3 -6 -1 -10 -9 -10 -9 0 -16 -7 -16 -16 0 -8 -4 -12 -10 -9
-18 11 -10 -14 9 -27 13 -9 16 -19 10 -33 -7 -18 -8 -18 -8 5 -1 17 -4 21 -11
14 -8 -8 -7 -19 1 -38 14 -29 -1 -70 -34 -95 -10 -7 -16 -20 -13 -28 3 -8 2
-12 -3 -8 -5 3 -12 -1 -15 -7 -3 -7 -4 4 -1 25 5 34 -9 55 -17 24 -2 -10 -13
-11 -45 -4 -41 8 -58 30 -30 40 6 2 -8 6 -31 8 -48 5 -87 -14 -78 -38 4 -8 1
-11 -5 -7 -6 3 -9 15 -6 25 4 14 0 19 -14 19 -10 0 -19 5 -19 10 0 6 3 9 8 9
18 -3 32 2 32 12 0 6 -9 9 -20 6 -11 -3 -20 -1 -20 4 0 5 9 9 20 9 11 0 20 7
20 15 0 8 -5 15 -11 15 -5 0 -8 -4 -5 -9 4 -5 -5 -4 -19 2 -20 10 -25 20 -27
62 -3 42 -6 50 -23 50 -25 0 -32 -37 -11 -58 23 -23 20 -43 -11 -66 -18 -13
-23 -20 -13 -21 8 0 21 9 28 20 17 28 32 25 32 -7 0 -14 -3 -23 -7 -20 -3 4
-12 2 -18 -3 -17 -14 -65 5 -65 25 0 8 -7 15 -15 15 -8 0 -15 8 -14 18 0 10 3
12 6 5 10 -26 22 -12 16 21 -3 18 0 43 6 55 7 11 8 21 3 21 -9 0 -19 -22 -36
-74 -4 -10 -8 -17 -11 -14 -8 8 15 76 36 102 12 15 19 30 15 33 -3 4 -6 1 -6
-6 0 -7 -5 -9 -10 -6 -6 4 -17 -11 -25 -32 -9 -21 -20 -46 -25 -55 -5 -10 -12
-39 -16 -65 -5 -46 -4 -49 26 -66 17 -11 34 -16 37 -13 3 3 12 -2 21 -10 8 -9
25 -14 38 -11 13 2 21 0 18 -4 -3 -5 8 -14 23 -20 15 -6 37 -15 48 -20 76 -32
138 -50 157 -44 16 4 19 3 10 -3 -10 -7 -4 -13 25 -25 38 -15 38 -15 50 11 7
15 12 37 13 48 0 12 7 24 15 28 8 3 15 15 15 26 0 11 4 20 8 20 11 0 35 89 33
120 -2 20 0 22 9 10 8 -11 9 -8 4 14 -5 19 -3 27 3 23 14 -9 46 59 39 79 -3 8
-2 13 3 10 10 -6 25 24 16 32 -3 3 -5 -1 -5 -8 0 -11 -3 -11 -12 -2 -10 10
-10 15 1 21 7 5 10 15 7 22 -4 8 0 5 9 -6 11 -12 16 -14 13 -5 -6 18 -91 69
-129 77 -16 3 -34 12 -40 19 -6 8 -16 14 -21 14 -6 0 -5 -6 2 -15z"/>
<path d="M5202 5744 c4 -21 51 -48 71 -41 7 3 0 9 -14 15 -14 6 -34 18 -44 28
-16 17 -17 17 -13 -2z"/>
<path d="M4980 5725 c0 -14 5 -25 10 -25 6 0 10 11 10 25 0 14 -4 25 -10 25
-5 0 -10 -11 -10 -25z"/>
<path d="M5032 5725 c0 -16 2 -22 5 -12 2 9 2 23 0 30 -3 6 -5 -1 -5 -18z"/>
<path d="M5182 5708 c-22 -22 -12 -27 56 -25 61 2 68 0 64 -15 -2 -10 -8 -18
-13 -18 -5 0 -9 -7 -9 -15 0 -23 28 -18 36 8 13 38 13 46 -4 59 -12 10 -16 10
-19 1 -6 -18 -63 -16 -83 2 -13 11 -19 12 -28 3z"/>
<path d="M4889 5683 c-13 -16 -12 -17 4 -4 9 7 17 15 17 17 0 8 -8 3 -21 -13z"/>
<path d="M5340 5664 c0 -9 5 -14 12 -12 18 6 21 28 4 28 -9 0 -16 -7 -16 -16z"/>
<path d="M4908 5603 c6 -2 18 -2 25 0 6 3 1 5 -13 5 -14 0 -19 -2 -12 -5z"/>
<path d="M5254 5591 c-2 -2 -4 -19 -4 -37 0 -24 5 -33 21 -37 21 -6 24 -2 32
48 5 27 3 30 -20 30 -13 0 -27 -2 -29 -4z"/>
<path d="M4874 5473 c0 -25 6 -43 12 -43 18 0 25 28 10 42 -7 8 -15 20 -18 28
-3 8 -5 -4 -4 -27z"/>
<path d="M5042 5406 c1 -19 4 -33 8 -32 15 8 46 19 55 20 6 1 11 11 13 24 3
20 -1 22 -38 22 -40 0 -41 0 -38 -34z"/>
<path d="M5210 5408 c0 -25 3 -29 10 -18 8 12 10 11 10 -7 0 -13 -5 -23 -11
-23 -5 0 -7 -5 -4 -10 12 -19 35 18 35 54 0 29 -4 36 -20 36 -16 0 -20 -7 -20
-32z"/>
<path d="M5250 5350 c-12 -7 -12 -12 -3 -21 10 -10 14 -9 19 5 8 22 2 27 -16
16z"/>
<path d="M5357 5333 c-4 -3 -7 -13 -7 -22 1 -13 3 -13 11 2 11 19 8 33 -4 20z"/>
<path d="M5236 5021 c-20 -39 -36 -80 -36 -92 0 -25 13 -18 15 9 1 9 16 46 33
81 18 35 30 66 28 68 -3 3 -21 -27 -40 -66z"/>
<path d="M5270 4880 c0 -5 5 -10 10 -10 6 0 10 5 10 10 0 6 -4 10 -10 10 -5 0
-10 -4 -10 -10z"/>
<path d="M4910 4350 c-13 -8 -12 -10 3 -10 9 0 17 5 17 10 0 12 -1 12 -20 0z"/>
<path d="M3110 6930 c0 -5 5 -10 11 -10 5 0 7 5 4 10 -3 6 -8 10 -11 10 -2 0
-4 -4 -4 -10z"/>
<path d="M3050 6920 c-8 -5 -10 -10 -5 -10 6 0 17 5 25 10 8 5 11 10 5 10 -5
0 -17 -5 -25 -10z"/>
<path d="M2800 6901 c0 -9 30 -24 36 -18 2 1 -6 8 -16 15 -11 7 -20 8 -20 3z"/>
<path d="M2848 6903 c6 -2 18 -2 25 0 6 3 1 5 -13 5 -14 0 -19 -2 -12 -5z"/>
<path d="M3088 6903 c6 -2 18 -2 25 0 6 3 1 5 -13 5 -14 0 -19 -2 -12 -5z"/>
<path d="M3140 6895 c7 -8 17 -15 22 -15 5 0 3 7 -6 15 -8 8 -18 15 -22 15 -3
0 -1 -7 6 -15z"/>
<path d="M3192 6901 c-11 -7 -11 -9 0 -14 9 -3 15 1 15 9 0 8 -1 14 -1 14 -1
0 -7 -4 -14 -9z"/>
<path d="M2740 6890 c0 -5 5 -10 10 -10 6 0 10 5 10 10 0 6 -4 10 -10 10 -5 0
-10 -4 -10 -10z"/>
<path d="M3040 6896 c0 -2 7 -6 15 -10 8 -3 15 -1 15 4 0 6 -7 10 -15 10 -8 0
-15 -2 -15 -4z"/>
<path d="M3220 6889 c0 -5 5 -7 10 -4 6 3 10 8 10 11 0 2 -4 4 -10 4 -5 0 -10
-5 -10 -11z"/>
<path d="M3277 6879 c7 -7 15 -10 18 -7 3 3 -2 9 -12 12 -14 6 -15 5 -6 -5z"/>
<path d="M2960 6860 c0 -13 5 -18 15 -14 8 4 15 12 15 20 0 8 -7 14 -15 14 -8
0 -15 -9 -15 -20z"/>
<path d="M3287 6831 c3 -11 -7 -32 -27 -55 -39 -44 -30 -47 15 -5 31 29 37 60
15 74 -5 3 -6 -3 -3 -14z"/>
<path d="M3023 6833 c-20 -7 -17 -113 2 -113 12 0 15 13 15 60 0 33 -1 60 -2
59 -2 0 -9 -3 -15 -6z"/>
<path d="M2625 6810 c10 -11 20 -20 22 -20 2 0 -1 9 -7 20 -6 11 -16 20 -22
20 -6 0 -3 -9 7 -20z"/>
<path d="M2953 6760 c0 -25 2 -35 4 -22 2 12 2 32 0 45 -2 12 -4 2 -4 -23z"/>
<path d="M3209 6798 c-1 -2 -2 -24 -3 -50 -1 -38 1 -45 12 -36 10 9 10 13 0
19 -9 6 -5 16 17 39 19 20 23 29 12 25 -9 -4 -17 -11 -17 -17 0 -5 -5 -6 -10
-3 -6 4 -8 11 -5 16 4 5 4 9 1 9 -3 0 -7 -1 -7 -2z"/>
<path d="M2687 6760 c14 -17 29 -28 31 -25 6 6 -38 55 -50 55 -4 0 4 -14 19
-30z"/>
<path d="M3400 6750 c-25 -16 -42 -30 -37 -30 4 0 25 11 46 24 21 14 42 22 47
18 4 -4 4 -1 0 6 -4 6 -8 12 -9 11 -1 0 -22 -13 -47 -29z"/>
<path d="M2515 6740 c27 -12 43 -12 25 0 -8 5 -22 9 -30 9 -10 0 -8 -3 5 -9z"/>
<path d="M3436 6741 c-3 -5 1 -11 9 -14 9 -4 12 -1 8 9 -6 16 -10 17 -17 5z"/>
<path d="M3073 6723 c-7 -2 -13 -11 -13 -19 0 -15 18 -18 44 -8 13 5 14 9 5
20 -12 15 -16 16 -36 7z"/>
<path d="M2730 6710 c0 -5 5 -10 11 -10 5 0 7 5 4 10 -3 6 -8 10 -11 10 -2 0
-4 -4 -4 -10z"/>
<path d="M3154 6696 c-3 -14 -4 -33 -1 -43 3 -10 5 -4 6 15 0 17 6 32 11 32 6
0 10 5 10 10 0 20 -20 9 -26 -14z"/>
<path d="M3326 6687 l-17 -32 20 24 c12 13 21 17 21 10 0 -7 3 -10 6 -6 3 3 2
13 -3 21 -7 13 -12 10 -27 -17z"/>
<path d="M2760 6701 c0 -5 5 -13 10 -16 6 -3 10 -2 10 4 0 5 -4 13 -10 16 -5
3 -10 2 -10 -4z"/>
<path d="M3182 6670 c0 -14 2 -19 5 -12 2 6 2 18 0 25 -3 6 -5 1 -5 -13z"/>
<path d="M2787 6673 c-11 -11 -8 -20 8 -20 8 0 15 6 15 14 0 14 -12 17 -23 6z"/>
<path d="M2561 6654 c0 -11 3 -14 6 -6 3 7 2 16 -1 19 -3 4 -6 -2 -5 -13z"/>
<path d="M3130 6655 c-1 -11 -3 -35 -6 -53 -3 -28 -2 -31 10 -20 10 10 11 25
6 54 -4 21 -9 30 -10 19z"/>
<path d="M2775 6630 c3 -5 8 -10 11 -10 2 0 4 5 4 10 0 6 -5 10 -11 10 -5 0
-7 -4 -4 -10z"/>
<path d="M2817 6626 c4 -6 17 -25 30 -42 14 -19 19 -34 13 -40 -6 -6 -6 -15 0
-24 8 -12 10 -11 10 5 1 11 3 38 4 60 2 22 1 32 -1 23 -2 -10 -9 -18 -14 -18
-12 0 -12 23 1 36 7 7 1 11 -19 11 -19 0 -28 -4 -24 -11z"/>
<path d="M3160 6625 c-7 -9 -8 -15 -2 -15 5 0 12 7 16 15 3 8 4 15 2 15 -2 0
-9 -7 -16 -15z"/>
<path d="M3247 6602 c-10 -10 -17 -23 -17 -28 0 -5 5 -2 10 6 8 12 12 13 19 2
7 -11 9 -10 14 3 5 11 3 14 -5 9 -8 -5 -9 -2 -5 9 8 22 4 21 -16 -1z"/>
<path d="M2580 6600 c0 -5 5 -10 10 -10 6 0 10 5 10 10 0 6 -4 10 -10 10 -5 0
-10 -4 -10 -10z"/>
<path d="M3530 6585 c-7 -9 -11 -18 -8 -20 3 -3 11 1 18 10 7 9 11 18 8 20 -3
3 -11 -1 -18 -10z"/>
<path d="M2687 6577 c-3 -7 3 -13 14 -13 13 0 15 3 7 13 -6 7 -12 13 -13 13
-2 0 -5 -6 -8 -13z"/>
<path d="M2822 6556 c5 -35 18 -45 18 -13 0 14 -5 29 -10 32 -7 4 -10 -3 -8
-19z"/>
<path d="M3068 6535 c2 -14 6 -25 8 -25 2 0 4 11 4 25 0 14 -4 25 -9 25 -4 0
-6 -11 -3 -25z"/>
<path d="M3221 6544 c0 -11 3 -14 6 -6 3 7 2 16 -1 19 -3 4 -6 -2 -5 -13z"/>
<path d="M3041 6524 c0 -11 3 -14 6 -6 3 7 2 16 -1 19 -3 4 -6 -2 -5 -13z"/>
<path d="M3108 6519 c-10 -5 -18 -18 -18 -29 0 -10 -5 -20 -11 -22 -5 -2 -7
-11 -4 -21 10 -24 24 -21 18 3 -3 12 0 20 6 20 7 0 9 5 6 11 -4 5 1 19 11 30
19 21 17 23 -8 8z"/>
<path d="M3610 6520 c13 -9 13 -11 0 -21 -13 -9 -12 -10 2 -5 15 4 17 0 13
-27 -5 -31 -5 -31 4 -5 12 36 3 68 -18 68 -14 0 -14 -2 -1 -10z"/>
<path d="M3230 6505 c-8 -9 -8 -15 -2 -15 12 0 26 19 19 26 -2 2 -10 -2 -17
-11z"/>
<path d="M2835 6500 c-3 -5 -1 -10 4 -10 6 0 11 5 11 10 0 6 -2 10 -4 10 -3 0
-8 -4 -11 -10z"/>
<path d="M2730 6481 c0 -19 12 -41 23 -41 8 0 8 3 0 11 -6 6 -9 18 -6 25 3 8
0 14 -6 14 -6 0 -11 -4 -11 -9z"/>
<path d="M2857 6463 c-3 -16 0 -34 7 -41 9 -10 12 -4 11 28 0 46 -10 53 -18
13z"/>
<path d="M3050 6475 c0 -8 2 -15 4 -15 2 0 6 7 10 15 3 8 1 15 -4 15 -6 0 -10
-7 -10 -15z"/>
<path d="M3601 6434 c0 -11 3 -14 6 -6 3 7 2 16 -1 19 -3 4 -6 -2 -5 -13z"/>
<path d="M3055 6419 c5 -16 4 -19 -5 -14 -8 5 -11 4 -6 -3 4 -6 13 -9 21 -6
11 5 12 11 4 25 -13 26 -22 24 -14 -2z"/>
<path d="M2742 6413 c-6 -11 -7 -25 -3 -32 6 -9 10 -4 14 16 6 34 2 41 -11 16z"/>
<path d="M2762 6380 c0 -14 2 -19 5 -12 2 6 2 18 0 25 -3 6 -5 1 -5 -13z"/>
<path d="M3180 6381 c0 -5 -3 -17 -7 -27 -4 -11 -2 -15 7 -12 15 5 22 48 8 48
-4 0 -8 -4 -8 -9z"/>
<path d="M2858 6369 c-3 -9 -2 -22 2 -30 13 -19 18 -8 10 21 -4 19 -7 21 -12
9z"/>
<path d="M2723 6324 c0 -18 2 -22 8 -13 11 18 11 39 0 39 -5 0 -8 -12 -8 -26z"/>
<path d="M2867 6313 c-4 -3 -7 -24 -7 -46 0 -52 12 -40 14 13 1 22 1 40 0 40
0 0 -4 -3 -7 -7z"/>
<path d="M3074 6235 c0 -49 1 -71 3 -48 2 23 2 64 0 90 -2 26 -3 8 -3 -42z"/>
<path d="M3171 6284 c0 -11 3 -14 6 -6 3 7 2 16 -1 19 -3 4 -6 -2 -5 -13z"/>
<path d="M2773 6220 c0 -36 2 -50 4 -32 2 17 2 47 0 65 -2 17 -4 3 -4 -33z"/>
<path d="M2731 6254 c0 -11 3 -14 6 -6 3 7 2 16 -1 19 -3 4 -6 -2 -5 -13z"/>
<path d="M3170 6238 c0 -19 2 -20 10 -8 13 19 13 30 0 30 -5 0 -10 -10 -10
-22z"/>
<path d="M3170 6190 c0 -8 7 -37 15 -65 l15 -50 -6 50 c-6 50 -23 98 -24 65z"/>
<path d="M2866 6177 c3 -10 9 -15 12 -12 3 3 0 11 -7 18 -10 9 -11 8 -5 -6z"/>
<path d="M3041 6164 c0 -11 3 -14 6 -6 3 7 2 16 -1 19 -3 4 -6 -2 -5 -13z"/>
<path d="M3360 6120 c0 -29 4 -40 15 -40 11 0 15 11 15 40 0 29 -4 40 -15 40
-11 0 -15 -11 -15 -40z"/>
<path d="M3681 6144 c0 -11 3 -14 6 -6 3 7 2 16 -1 19 -3 4 -6 -2 -5 -13z"/>
<path d="M2727 6130 c-3 -11 -1 -33 3 -48 7 -23 8 -21 9 21 1 50 -3 60 -12 27z"/>
<path d="M2761 6132 c-6 -12 -11 -27 -11 -34 1 -7 8 0 16 15 9 16 13 31 11 34
-3 2 -10 -4 -16 -15z"/>
<path d="M3064 6128 c3 -10 9 -25 12 -33 5 -11 1 -14 -12 -9 -14 4 -16 3 -5
-4 11 -8 11 -10 0 -14 -8 -3 -11 -8 -8 -12 8 -9 39 21 39 38 0 7 -7 21 -16 32
-13 16 -15 16 -10 2z"/>
<path d="M2851 6097 c0 -16 3 -26 8 -23 5 4 12 0 14 -6 3 -8 6 -6 6 5 1 9 -3
17 -8 17 -5 0 -12 8 -14 18 -3 10 -5 6 -6 -11z"/>
<path d="M2288 6055 c2 -14 6 -25 8 -25 2 0 4 11 4 25 0 14 -4 25 -9 25 -4 0
-6 -11 -3 -25z"/>
<path d="M2311 6064 c0 -11 3 -14 6 -6 3 7 2 16 -1 19 -3 4 -6 -2 -5 -13z"/>
<path d="M2361 6064 c0 -11 3 -14 6 -6 3 7 2 16 -1 19 -3 4 -6 -2 -5 -13z"/>
<path d="M3086 6051 c-4 -7 -5 -15 -2 -18 9 -9 19 4 14 18 -4 11 -6 11 -12 0z"/>
<path d="M2723 6024 c1 -22 5 -30 14 -27 7 3 13 9 13 13 0 5 3 15 6 24 3 9 1
16 -5 16 -6 0 -11 -10 -12 -22 -1 -22 -1 -22 -9 2 -8 23 -8 23 -7 -6z"/>
<path d="M2861 6033 c-1 -13 -4 -23 -9 -23 -4 0 -12 -16 -18 -35 -6 -19 -8
-35 -3 -35 4 0 10 13 14 29 5 22 11 28 23 24 13 -4 14 -3 3 5 -7 5 -9 11 -3
13 5 2 6 12 1 24 -7 19 -8 19 -8 -2z"/>
<path d="M3040 6030 c0 -5 7 -10 15 -10 8 0 15 5 15 10 0 6 -7 10 -15 10 -8 0
-15 -4 -15 -10z"/>
<path d="M3042 5988 c-4 -47 6 -65 38 -65 34 0 38 8 13 28 -13 11 -17 11 -20
2 -3 -7 -9 -13 -14 -13 -14 0 -11 28 4 33 9 3 8 9 -3 21 -14 15 -16 14 -18 -6z"/>
<path d="M3080 5990 c6 -11 12 -20 14 -20 2 0 6 9 9 20 4 15 0 20 -14 20 -17
0 -18 -3 -9 -20z"/>
<path d="M3196 5991 c-4 -5 -2 -12 4 -16 5 -3 10 -17 10 -31 0 -13 4 -24 9
-24 6 0 5 15 -1 38 -12 43 -14 47 -22 33z"/>
<path d="M3244 5987 c-16 -19 -11 -102 6 -102 9 0 15 12 17 35 1 29 0 31 -8
15 -7 -15 -8 -10 -5 23 2 23 3 42 3 42 -1 -1 -7 -6 -13 -13z m16 -87 c0 -5 -2
-10 -4 -10 -3 0 -8 5 -11 10 -3 6 -1 10 4 10 6 0 11 -4 11 -10z"/>
<path d="M2294 5972 c5 -13 3 -22 -3 -22 -6 0 -11 -4 -11 -10 0 -17 19 -11 29
9 8 14 7 22 -6 32 -14 12 -15 11 -9 -9z"/>
<path d="M2852 5942 c-25 -50 -26 -55 -11 -50 8 3 14 11 14 19 1 8 5 13 10 12
6 -1 11 10 11 23 2 32 -8 30 -24 -4z"/>
<path d="M3642 5940 c0 -14 2 -19 5 -12 2 6 2 18 0 25 -3 6 -5 1 -5 -13z"/>
<path d="M3131 5919 c-1 -8 6 -24 14 -35 16 -22 19 -34 7 -34 -5 0 -14 10 -20
23 -6 12 -11 16 -11 10 -1 -7 8 -22 19 -33 11 -11 20 -24 20 -30 0 -5 6 -10
14 -10 24 0 30 -21 7 -27 -12 -3 -21 -9 -21 -14 0 -12 14 -11 27 2 8 8 19 2
42 -22 17 -19 31 -28 31 -21 0 6 -4 12 -9 12 -5 0 -20 17 -32 38 -13 20 -29
41 -36 45 -7 5 -11 12 -8 18 4 5 -2 21 -13 37 -11 15 -22 34 -25 42 -5 13 -6
13 -6 -1z"/>
<path d="M2647 5902 c3 -7 9 -10 12 -5 3 4 10 11 15 15 4 4 -1 6 -12 5 -12 -1
-18 -6 -15 -15z"/>
<path d="M2675 5890 c-3 -5 -1 -10 4 -10 6 0 11 5 11 10 0 6 -2 10 -4 10 -3 0
-8 -4 -11 -10z"/>
<path d="M2768 5865 c-10 -13 -18 -30 -18 -38 0 -8 -7 -20 -15 -27 -8 -7 -15
-18 -15 -24 0 -12 39 34 40 47 0 5 9 22 21 38 11 16 17 29 12 29 -4 0 -16 -11
-25 -25z"/>
<path d="M3265 5870 c-3 -5 -1 -10 4 -10 6 0 11 5 11 10 0 6 -2 10 -4 10 -3 0
-8 -4 -11 -10z"/>
<path d="M2786 5824 c-4 -14 -5 -28 -3 -31 3 -2 8 8 11 23 4 14 5 28 3 31 -3
2 -8 -8 -11 -23z"/>
<path d="M2585 5830 c3 -5 8 -10 11 -10 2 0 4 5 4 10 0 6 -5 10 -11 10 -5 0
-7 -4 -4 -10z"/>
<path d="M3287 5827 c3 -5 12 -6 20 -3 10 4 13 2 10 -8 -4 -10 -1 -13 9 -9 7
3 14 0 14 -6 0 -6 -5 -11 -11 -11 -8 0 -8 -5 1 -15 16 -19 28 -11 28 20 0 13
-4 22 -9 19 -5 -3 -9 -1 -9 5 0 5 6 11 13 14 6 2 -7 3 -30 3 -22 -1 -39 -5
-36 -9z"/>
<path d="M2570 5806 c0 -2 8 -10 18 -17 15 -13 16 -12 3 4 -13 16 -21 21 -21
13z"/>
<path d="M2565 5771 c3 -5 -1 -12 -7 -14 -10 -4 -10 -6 0 -6 7 -1 10 -6 6 -13
-4 -7 -3 -8 5 -4 6 4 9 11 6 16 -3 4 0 10 7 12 7 3 5 7 -6 11 -9 4 -15 3 -11
-2z"/>
<path d="M2692 5750 c-7 -11 -8 -20 -3 -20 9 0 24 30 18 36 -1 2 -8 -6 -15
-16z"/>
<path d="M2420 5750 c0 -5 5 -10 10 -10 6 0 10 5 10 10 0 6 -4 10 -10 10 -5 0
-10 -4 -10 -10z"/>
<path d="M2512 5740 c-18 -29 -15 -38 4 -12 9 13 14 25 12 27 -2 2 -9 -5 -16
-15z"/>
<path d="M2457 5730 c3 -11 7 -20 9 -20 2 0 4 9 4 20 0 11 -4 20 -9 20 -5 0
-7 -9 -4 -20z"/>
<path d="M3417 5728 c20 -23 6 -24 -19 -1 -10 9 -18 11 -18 5 0 -14 39 -36 48
-28 14 14 7 42 -9 42 -17 0 -17 -2 -2 -18z"/>
<path d="M2532 5720 c-7 -11 -8 -20 -3 -20 9 0 24 30 18 36 -1 2 -8 -6 -15
-16z"/>
<path d="M2702 5724 c-7 -8 -8 -14 -3 -14 10 0 25 19 20 25 -2 1 -10 -3 -17
-11z"/>
<path d="M2420 5722 c0 -12 19 -26 26 -19 2 2 -2 10 -11 17 -9 8 -15 8 -15 2z"/>
<path d="M3210 5726 c0 -2 7 -9 15 -16 9 -7 15 -8 15 -2 0 5 -7 12 -15 16 -8
3 -15 4 -15 2z"/>
<path d="M2650 5710 c-12 -8 -11 -10 8 -10 12 0 22 5 22 10 0 13 -11 13 -30 0z"/>
<path d="M3270 5700 c0 -6 5 -8 11 -5 6 5 9 -6 7 -31 -2 -26 1 -38 12 -42 13
-5 13 -3 1 12 -23 27 -6 28 24 1 15 -15 30 -24 33 -21 2 3 -5 13 -17 23 -12
10 -27 29 -34 42 -13 26 -37 40 -37 21z"/>
<path d="M2490 5690 c0 -6 -4 -9 -9 -6 -14 9 -23 -26 -11 -38 8 -8 9 -6 4 8
-5 13 -4 17 4 12 7 -4 12 -2 12 4 0 6 5 8 10 5 6 -3 10 -2 10 4 0 5 -4 13 -10
16 -5 3 -10 1 -10 -5z"/>
<path d="M3441 5676 c14 -15 20 -16 35 -6 18 11 18 11 0 6 -10 -4 -26 -1 -35
6 -14 11 -14 10 0 -6z"/>
<path d="M2620 5661 c0 -11 4 -22 9 -25 4 -3 6 6 3 19 -5 30 -12 33 -12 6z"/>
<path d="M2582 5639 c-10 -15 -10 -24 -3 -30 6 -5 9 -6 6 -2 -3 3 2 17 10 30
9 13 12 23 8 23 -5 0 -14 -10 -21 -21z"/>
<path d="M2600 5620 c0 -5 5 -10 10 -10 6 0 10 5 10 10 0 6 -4 10 -10 10 -5 0
-10 -4 -10 -10z"/>
<path d="M2546 5602 c-3 -5 1 -9 9 -9 8 0 12 4 9 9 -3 4 -7 8 -9 8 -2 0 -6 -4
-9 -8z"/>
<path d="M2600 5560 c0 -5 5 -10 10 -10 6 0 10 5 10 10 0 6 -4 10 -10 10 -5 0
-10 -4 -10 -10z"/>
<path d="M3318 5553 c6 -2 18 -2 25 0 6 3 1 5 -13 5 -14 0 -19 -2 -12 -5z"/>
<path d="M3275 5520 c-8 -13 5 -13 25 0 13 8 13 10 -2 10 -9 0 -20 -4 -23 -10z"/>
<path d="M2736 5509 c3 -5 0 -9 -7 -9 -7 0 -10 -2 -7 -5 3 -3 16 -2 28 3 l24
9 -22 5 c-12 4 -20 2 -16 -3z"/>
<path d="M2858 5503 c7 -3 16 -2 19 1 4 3 -2 6 -13 5 -11 0 -14 -3 -6 -6z"/>
<path d="M2798 5493 c6 -2 18 -2 25 0 6 3 1 5 -13 5 -14 0 -19 -2 -12 -5z"/>
<path d="M3120 5490 c0 -11 48 -25 57 -16 4 3 -3 6 -15 6 -12 0 -22 5 -22 10
0 6 -4 10 -10 10 -5 0 -10 -4 -10 -10z"/>
<path d="M6993 5542 c-26 -8 -60 -16 -75 -19 -15 -3 -33 -11 -39 -19 -6 -8
-22 -14 -36 -14 -14 0 -21 -4 -18 -10 3 -5 -1 -10 -10 -10 -9 0 -13 -5 -10
-10 4 -6 3 -10 -2 -9 -20 4 -34 -3 -62 -32 -17 -17 -31 -38 -31 -47 -1 -24
-23 -50 -37 -45 -7 3 -13 -1 -13 -8 0 -6 -11 -22 -25 -35 -16 -15 -25 -34 -25
-54 0 -17 -3 -29 -7 -27 -5 3 -9 -5 -9 -16 -1 -12 -5 -32 -9 -44 -6 -18 -3
-23 9 -23 9 0 16 8 16 18 1 9 9 35 20 57 11 22 19 44 20 48 0 16 63 86 72 81
4 -3 11 3 15 13 8 22 53 73 66 73 5 0 4 -7 -3 -15 -6 -8 -9 -19 -5 -24 4 -7
-1 -8 -11 -4 -12 4 -15 3 -10 -5 5 -8 1 -10 -10 -5 -11 4 -15 2 -11 -4 4 -5
-5 -21 -18 -33 -14 -13 -25 -29 -25 -36 0 -6 -21 -39 -46 -73 -57 -76 -57
-100 1 -72 55 26 103 41 132 41 13 0 85 25 161 54 75 30 180 67 232 81 52 14
121 34 153 44 31 10 57 15 57 12 -1 -19 -23 -31 -92 -50 -42 -11 -128 -41
-190 -66 -105 -42 -378 -137 -423 -147 -49 -11 91 -20 220 -15 130 6 306 38
346 63 7 4 36 13 63 20 28 7 78 24 111 38 46 19 61 30 63 48 2 13 8 28 14 33
6 7 8 5 6 -5 -2 -11 4 -14 22 -12 14 1 27 7 28 12 2 6 10 10 18 10 9 0 12 5 9
10 -4 6 -12 9 -18 8 -12 -3 -42 16 -95 59 -15 13 -31 23 -36 23 -5 0 -26 19
-48 42 -29 31 -35 44 -26 51 9 6 7 7 -6 3 -26 -9 -133 14 -116 24 22 14 -8 22
-110 29 -71 4 -113 2 -147 -7z m194 -55 c4 -5 -3 -6 -17 -3 -45 10 -135 14
-145 6 -5 -4 -32 -11 -60 -14 -49 -6 -49 -6 -22 8 60 32 212 34 244 3z"/>
<path d="M6620 5309 c0 -5 5 -7 10 -4 6 3 10 8 10 11 0 2 -4 4 -10 4 -5 0 -10
-5 -10 -11z"/>
<path d="M6615 5070 c3 -5 15 -10 26 -10 10 0 19 5 19 10 0 6 -12 10 -26 10
-14 0 -23 -4 -19 -10z"/>
<path d="M6917 5072 c-9 -2 -15 -8 -12 -13 9 -13 41 -11 53 4 11 13 -3 16 -41
9z"/>
<path d="M3629 3493 c0 -5 -1 -43 -2 -85 l-2 -78 57 0 c72 0 103 12 121 46 13
24 13 32 0 63 -8 20 -22 42 -31 49 -17 13 -142 17 -143 5z"/>
<path d="M5000 3308 c0 -14 -40 -163 -72 -268 -17 -57 -47 -168 -65 -237 l-5
-23 157 0 c145 0 157 1 152 18 -28 100 -67 228 -98 325 -22 65 -42 136 -45
157 -6 37 -24 57 -24 28z"/>
<path d="M4392 1891 c-29 -86 -56 -164 -59 -173 -5 -16 5 -18 107 -18 103 0
112 2 106 18 -3 9 -19 58 -37 107 -17 50 -37 119 -44 153 -8 35 -15 65 -17 67
-2 1 -27 -68 -56 -154z"/>
</g>
</svg>
