<?xml version="1.0" standalone="no"?>
<!DOCTYPE svg PUBLIC "-//W3C//DTD SVG 20010904//EN"
 "http://www.w3.org/TR/2001/REC-SVG-20010904/DTD/svg10.dtd">
<svg version="1.0" xmlns="http://www.w3.org/2000/svg"
 width="626.000000pt" height="626.000000pt" viewBox="0 0 626.000000 626.000000"
 preserveAspectRatio="xMidYMid meet">

<g transform="translate(0.000000,626.000000) scale(0.100000,-0.100000)"
fill="#000000" stroke="none">
<path d="M3055 5711 c-196 -49 -368 -170 -475 -333 -41 -63 -47 -68 -80 -68
-49 0 -124 -49 -149 -97 -28 -56 -54 -244 -41 -294 14 -51 64 -107 115 -129
37 -16 42 -23 54 -71 14 -55 69 -173 103 -221 l19 -27 -30 10 c-43 15 -141 76
-206 128 -53 42 -55 46 -55 91 0 112 -53 200 -120 200 -37 0 -80 -32 -80 -58
0 -17 -2 -16 -59 22 -64 44 -99 51 -145 32 -35 -15 -49 -35 -60 -88 -3 -15
-15 -29 -25 -33 -54 -17 -121 -127 -120 -197 0 -24 3 -51 7 -60 4 -9 85 -92
181 -183 240 -229 376 -315 544 -346 l67 -12 0 -258 c0 -142 3 -264 6 -272 3
-10 -2 -18 -16 -22 -36 -11 -150 -133 -176 -188 -20 -43 -24 -66 -23 -134 l2
-83 -71 -75 c-193 -202 -322 -452 -366 -709 -23 -127 -29 -252 -17 -346 8 -69
7 -87 -4 -95 -7 -5 -54 -38 -103 -73 -295 -206 -462 -406 -462 -550 0 -89 41
-148 136 -196 108 -54 158 -61 424 -60 192 1 272 5 369 21 l125 20 77 -57
c132 -98 330 -185 514 -226 100 -22 335 -30 448 -14 204 28 433 116 593 229
100 70 234 200 310 300 103 136 222 397 241 528 6 42 9 45 107 105 210 130
434 315 523 433 58 77 87 145 91 215 4 60 1 69 -30 114 -64 95 -200 143 -428
153 -115 5 -387 -10 -424 -23 -6 -2 -30 25 -53 59 -24 35 -76 99 -116 143 -63
68 -72 82 -66 104 22 79 3 198 -42 261 -19 27 -21 43 -20 139 3 214 -58 455
-165 646 -30 54 -34 69 -34 135 0 56 -6 86 -24 124 l-23 50 47 60 c25 33 57
77 69 98 18 30 28 37 54 37 51 0 116 38 147 87 46 72 69 278 37 339 -21 39
-65 79 -107 97 -31 12 -37 21 -49 68 -31 120 -144 298 -244 381 -100 83 -219
142 -348 173 -88 20 -265 18 -354 -4z m333 -47 c159 -32 327 -136 428 -262 72
-91 70 -97 -8 -38 -269 206 -691 274 -1003 162 -52 -19 37 40 120 80 150 71
304 91 463 58z m-98 -139 c241 -37 415 -116 553 -252 74 -73 114 -137 122
-193 l6 -45 -27 55 c-43 87 -161 197 -269 252 -194 99 -344 133 -585 133 -165
0 -179 -2 -253 -28 -91 -32 -146 -64 -206 -121 l-44 -41 24 44 c50 93 214 176
399 204 60 10 192 6 280 -8z m-5 -165 l30 -7 -40 -7 c-84 -16 -188 -47 -248
-75 -140 -64 -238 -165 -367 -380 l-52 -86 6 105 c18 336 156 460 511 458 72
0 144 -4 160 -8z m-775 -109 c0 -5 -7 -28 -16 -52 -26 -73 -44 -186 -44 -275
l0 -85 -30 17 c-59 36 -71 101 -45 248 15 85 36 118 90 142 36 16 45 17 45 5z
m1569 -242 c38 -38 45 -64 38 -143 -15 -152 -38 -202 -111 -232 l-39 -15 8 23
c38 121 47 171 48 280 2 131 6 137 56 87z m-274 -25 c22 -9 45 -57 45 -94 0
-50 -44 -125 -85 -144 -42 -20 -67 -15 -95 21 -68 86 36 254 135 217z m-1767
-170 c29 -19 55 -41 58 -49 4 -8 -1 -36 -10 -62 -22 -63 -20 -105 5 -137 27
-35 33 -28 18 22 -10 36 -9 45 10 84 11 24 21 62 21 84 0 75 41 115 80 79 22
-20 40 -88 40 -151 0 -42 4 -51 43 -87 23 -22 66 -56 96 -75 l53 -36 -7 -51
c-11 -90 -37 -179 -71 -250 -56 -116 -52 -114 -130 -70 -98 53 -175 115 -296
234 -58 58 -127 124 -152 147 -39 34 -46 46 -46 77 0 69 57 150 116 166 26 7
29 11 26 44 -3 26 2 41 18 57 27 27 56 22 128 -26z m1580 -146 c36 -36 -13
-116 -61 -99 -29 11 -35 65 -11 92 19 22 54 25 72 7z m-856 -247 c71 -48 205
-109 293 -132 112 -31 363 -31 478 -2 42 11 77 18 77 16 0 -9 -128 -62 -191
-79 -86 -24 -269 -24 -359 0 -143 38 -310 143 -385 242 l-29 39 35 -27 c19
-14 56 -40 81 -57z m-182 5 c55 -22 105 -51 141 -82 163 -138 346 -202 553
-191 127 6 214 28 323 83 100 50 81 59 174 -81 66 -98 122 -209 162 -321 l26
-72 -96 4 c-62 2 -101 8 -109 16 -6 7 -19 58 -28 114 -8 55 -26 127 -38 160
l-23 59 -3 -53 c-2 -29 4 -90 12 -136 9 -45 16 -95 16 -109 l0 -27 -85 0 c-60
0 -87 4 -89 13 -2 6 -9 31 -15 55 -9 31 -21 49 -44 63 -30 18 -48 19 -300 17
l-269 -3 -27 -31 c-16 -18 -31 -48 -35 -72 l-6 -42 -86 0 -87 0 7 63 c4 34 14
100 22 146 8 46 14 109 14 140 l0 56 -19 -41 c-10 -23 -22 -55 -26 -73 -4 -17
-16 -36 -28 -42 -25 -14 -164 -7 -223 11 l-41 12 33 62 c42 80 72 169 86 261
6 41 14 75 17 75 3 0 44 -16 91 -34z m1216 -167 c8 -29 12 -54 10 -56 -2 -2
-22 22 -46 53 -41 54 -42 58 -24 71 25 19 43 -1 60 -68z m-1176 -301 c-1 -74
-21 -178 -40 -210 -23 -38 -25 -73 -6 -109 18 -35 10 -179 -10 -179 -12 0 -14
47 -14 259 l0 260 23 4 c45 9 47 7 47 -25z m390 -112 c0 -74 11 -103 56 -149
43 -45 44 -47 44 -111 l0 -66 -97 0 c-54 0 -103 4 -109 8 -27 18 -34 56 -34
184 0 166 6 178 86 178 l54 0 0 -44z m432 27 c16 -14 18 -33 18 -166 0 -198
10 -187 -177 -187 l-143 0 0 66 c0 74 -9 96 -56 140 -32 30 -34 36 -34 98 l0
66 187 0 c159 0 189 -2 205 -17z m-616 -138 c4 -8 3 -35 0 -60 l-7 -45 -82 0
c-96 0 -127 15 -127 60 0 46 31 60 128 60 64 0 84 -3 88 -15z m912 -1 c14 -10
22 -26 22 -44 0 -48 -29 -60 -147 -60 l-103 0 0 60 0 60 103 0 c77 0 108 -4
125 -16z m223 -21 c18 -18 38 -153 38 -255 1 -49 -1 -88 -4 -88 -2 0 -30 18
-61 40 -32 22 -81 47 -109 56 l-53 17 -6 53 c-5 46 -3 58 20 91 20 29 24 46
20 72 l-5 33 74 -4 c41 -2 80 -9 86 -15z m-1135 -150 c29 -92 35 -93 348 -93
l264 0 30 25 c17 14 33 39 37 55 l7 30 99 0 c96 0 99 -1 99 -22 0 -13 3 -33 6
-45 6 -22 3 -23 -44 -23 -28 0 -75 -5 -104 -11 -62 -13 -158 -56 -158 -71 0
-6 7 -7 18 -3 42 17 122 35 182 41 132 12 248 -29 351 -124 51 -46 118 -146
107 -157 -2 -2 -30 4 -62 12 -75 19 -182 7 -339 -37 -59 -17 -111 -30 -115
-30 -4 0 -14 18 -23 39 -31 73 -175 131 -324 131 -142 0 -292 -59 -327 -128
-9 -19 -19 -36 -21 -39 -3 -3 -34 4 -69 16 -165 54 -353 71 -415 38 -24 -13
-33 -14 -33 -5 1 33 44 104 94 154 126 126 307 161 511 100 88 -27 64 5 -35
46 -46 19 -74 23 -168 23 l-114 0 6 35 c3 19 6 41 6 48 0 9 25 12 90 12 78 0
91 -3 96 -17z m550 -363 c84 -29 114 -61 114 -121 0 -58 -13 -70 -134 -124
-47 -21 -84 -41 -82 -44 2 -3 -6 -7 -17 -7 -12 -1 -76 -24 -142 -52 -66 -28
-128 -51 -137 -52 -14 0 -18 9 -18 43 0 23 -11 85 -24 137 -14 52 -22 107 -19
122 7 37 40 65 109 93 81 33 260 36 350 5z m-641 -90 c61 -17 113 -35 117 -39
22 -21 52 -172 52 -266 1 -88 -2 -107 -25 -156 -32 -67 -97 -133 -156 -155
-56 -22 -153 -15 -191 12 -15 11 -37 40 -50 65 -19 38 -22 57 -20 137 l3 93
70 3 c39 2 86 10 105 18 35 15 34 15 -36 10 -93 -6 -134 8 -178 63 -42 51 -86
139 -86 173 0 13 14 37 31 54 l30 31 112 -6 c83 -4 141 -13 222 -37z m1314 16
c13 -12 21 -31 21 -51 0 -44 -51 -141 -101 -192 -47 -48 -80 -58 -172 -51
l-62 6 35 -16 c19 -8 66 -15 103 -16 81 -1 82 -3 75 -129 -7 -136 -52 -188
-165 -195 -53 -4 -72 0 -118 22 -61 30 -94 65 -132 140 -39 76 -42 169 -12
309 28 128 17 119 204 168 91 24 127 29 206 26 79 -2 101 -6 118 -21z m-1708
-198 c7 -13 26 -39 44 -59 l31 -35 -3 -115 -3 -114 -112 -22 c-209 -42 -258
-54 -273 -69 -45 -45 29 110 104 218 52 75 178 218 191 218 5 0 15 -10 21 -22z
m1799 -65 c110 -122 205 -282 259 -436 17 -49 31 -94 31 -101 0 -12 -40 -36
-59 -36 -5 0 -17 23 -27 50 -10 28 -20 50 -23 50 -15 -1 -40 -28 -33 -35 4 -5
1 -5 -6 -1 -7 4 -18 3 -25 -2 -27 -23 -152 -91 -324 -177 -101 -51 -180 -96
-175 -100 4 -5 1 -5 -5 -1 -11 6 -76 -18 -238 -89 -16 -7 -74 -30 -127 -51
-55 -21 -95 -41 -91 -47 3 -6 1 -7 -5 -3 -16 10 -63 -4 -55 -17 3 -5 1 -7 -5
-4 -5 4 -57 -8 -114 -27 -102 -35 -197 -54 -273 -57 l-40 -2 45 -6 c43 -6 36
-9 -150 -63 -230 -66 -325 -90 -480 -117 -63 -12 -141 -26 -174 -32 -32 -5
-62 -7 -66 -2 -10 10 -50 144 -50 167 0 26 22 46 35 31 8 -10 30 -10 95 -3
103 11 404 74 439 92 14 7 40 16 56 20 95 22 471 146 670 222 416 157 739 312
980 470 25 17 25 25 -7 67 -12 17 -15 16 -48 -8 -19 -15 -34 -31 -32 -36 1 -6
-2 -8 -8 -4 -8 5 -145 -66 -160 -84 -3 -3 -16 -15 -30 -26 -24 -19 -24 -18 2
10 37 42 66 111 74 179 6 53 10 60 45 83 22 14 39 29 39 33 0 16 -48 50 -63
44 -9 -3 -14 -11 -10 -17 3 -6 1 -7 -5 -3 -7 4 -12 14 -12 22 0 15 70 112 82
113 3 1 34 -29 68 -66z m-694 -10 c-8 -78 8 -166 43 -238 30 -60 28 -85 -5
-85 -7 0 -19 -6 -26 -12 -7 -7 -20 -14 -28 -16 -8 -2 -98 -36 -200 -76 -102
-40 -229 -88 -282 -107 -61 -21 -92 -37 -85 -42 7 -5 3 -6 -9 -2 -12 3 -34 1
-50 -6 -100 -37 -513 -151 -525 -143 -4 2 -36 -3 -72 -11 -77 -18 -298 -48
-304 -41 -8 8 16 170 38 252 24 92 35 114 54 114 8 0 15 6 15 13 0 8 3 8 9 -2
8 -13 24 -12 113 3 57 10 117 24 133 30 17 7 62 21 102 30 l71 18 40 -40 c113
-113 320 -68 422 90 21 32 41 72 45 88 4 19 16 32 36 41 23 9 27 14 17 21 -9
6 -7 8 8 4 13 -4 68 13 145 45 68 28 142 58 164 67 22 9 60 27 85 39 25 12 47
22 49 22 2 1 1 -25 -3 -56z m566 -98 c3 -14 1 -28 -3 -31 -5 -3 -9 9 -9 25 0
38 6 40 12 6z m933 -100 c140 -30 211 -84 222 -166 13 -91 -101 -248 -288
-399 -442 -356 -1169 -698 -1964 -925 -799 -228 -1435 -255 -1563 -65 -79 116
88 342 426 577 41 29 79 53 82 53 4 0 10 -21 14 -46 l6 -46 -69 -68 c-77 -75
-94 -114 -67 -155 30 -46 71 -58 186 -57 407 4 1399 318 2127 672 297 144 457
244 552 345 48 50 52 58 49 97 -5 64 -35 81 -154 86 l-95 4 -21 45 c-11 24
-19 46 -17 48 2 2 54 8 114 14 141 12 370 6 460 -14z m-1319 -186 c43 -25 72
-33 127 -37 l72 -5 -38 -17 c-20 -9 -34 -20 -30 -25 5 -4 3 -5 -4 -1 -14 8
-84 -24 -77 -36 3 -4 -1 -5 -8 -3 -8 3 -40 -7 -73 -23 -64 -31 -428 -176 -532
-213 -35 -12 -60 -25 -57 -30 3 -5 -1 -7 -8 -4 -19 7 -160 -40 -151 -50 5 -4
3 -5 -4 -2 -6 4 -61 -9 -123 -28 -136 -43 -260 -76 -320 -85 -25 -4 -101 -19
-170 -33 -69 -14 -150 -28 -180 -31 -30 -3 -73 -9 -96 -12 -40 -6 -41 -5 -48
26 -3 18 -6 54 -6 80 l0 48 69 0 c84 1 228 25 341 57 47 13 146 40 220 60 232
63 533 165 725 245 39 16 114 47 168 70 54 23 110 46 125 51 21 8 23 12 12 19
-11 7 -11 10 -2 10 7 0 37 -14 68 -31z m966 13 c14 -14 -13 -57 -62 -100 l-38
-32 -25 76 -26 77 70 -5 c39 -3 75 -10 81 -16z m-707 -42 c-3 -5 -12 -10 -18
-10 -7 0 -6 4 3 10 19 12 23 12 15 0z m395 -184 c0 -2 -7 -7 -16 -10 -8 -3
-12 -2 -9 4 6 10 25 14 25 6z m-410 -170 c0 -2 -7 -7 -16 -10 -8 -3 -12 -2 -9
4 6 10 25 14 25 6z m-103 -42 c-3 -3 -12 -4 -19 -1 -8 3 -5 6 6 6 11 1 17 -2
13 -5z m-1840 -256 c-3 -7 -5 -2 -5 12 0 14 2 19 5 13 2 -7 2 -19 0 -25z
m2458 -255 c-40 -104 -54 -122 -140 -175 -324 -199 -912 -424 -1341 -514 -202
-42 -198 -42 -294 6 -116 59 -120 65 -41 66 189 4 901 237 1401 458 112 50
409 201 425 217 16 16 15 10 -10 -58z m-2457 -25 c11 -29 23 -61 27 -70 6 -16
1 -18 -41 -17 -71 2 -108 12 -112 30 -3 16 81 109 97 109 5 0 17 -24 29 -52z
m90 -23 c-3 -3 -9 2 -12 12 -6 14 -5 15 5 6 7 -7 10 -15 7 -18z m2267 -147
c-24 -58 -127 -188 -215 -271 -322 -305 -763 -422 -1195 -316 -44 11 -83 23
-88 28 -5 5 28 12 75 16 204 18 692 172 1038 327 43 20 227 111 280 139 41 22
87 62 99 87 18 33 22 27 6 -10z"/>
<path d="M3272 3770 c-48 -45 -35 -121 25 -146 62 -27 123 14 123 83 0 72 -95
112 -148 63z m98 -25 c6 -8 10 -22 8 -32 -5 -25 -91 -26 -96 -2 -7 39 62 66
88 34z"/>
</g>
</svg>
