<?xml version="1.0" standalone="no"?>
<!DOCTYPE svg PUBLIC "-//W3C//DTD SVG 20010904//EN"
 "http://www.w3.org/TR/2001/REC-SVG-20010904/DTD/svg10.dtd">
<svg version="1.0" xmlns="http://www.w3.org/2000/svg"
 width="300.000000pt" height="300.000000pt" viewBox="0 0 300.000000 300.000000"
 preserveAspectRatio="xMidYMid meet">

<g transform="translate(0.000000,300.000000) scale(0.100000,-0.100000)"
fill="#000000" stroke="none">
<path d="M1401 2300 c-232 -49 -395 -190 -466 -403 -51 -154 -41 -305 30 -455
30 -63 37 -72 53 -63 31 17 182 52 276 64 l90 12 23 78 c20 64 29 79 53 92 17
9 30 23 30 33 0 10 6 24 12 30 10 10 10 17 0 32 -23 37 -14 101 22 150 51 70
90 93 154 88 67 -6 99 -29 135 -98 30 -59 35 -120 13 -159 -10 -18 -11 -31 -2
-55 18 -50 36 -59 66 -31 57 53 112 64 189 40 l24 -8 -6 89 c-4 49 -14 111
-22 137 -59 195 -204 344 -390 403 -89 28 -214 39 -284 24z m-151 -170 c0 -21
-24 -28 -35 -10 -8 14 3 30 21 30 8 0 14 -9 14 -20z m455 -40 c0 -8 -8 -16
-17 -18 -13 -2 -18 3 -18 18 0 15 5 20 18 18 9 -2 17 -10 17 -18z m-227 -43
c2 -10 -3 -17 -12 -17 -10 0 -16 9 -16 21 0 24 23 21 28 -4z m522 -116 c0 -28
-28 -47 -48 -34 -24 15 -27 44 -7 59 22 17 55 1 55 -25z m-810 -27 c0 -8 -7
-14 -15 -14 -15 0 -21 21 -9 33 10 9 24 -2 24 -19z m290 -34 c0 -5 -4 -10 -10
-10 -5 0 -10 5 -10 10 0 6 5 10 10 10 6 0 10 -4 10 -10z m-352 -82 c17 -17 15
-43 -4 -59 -31 -26 -70 25 -44 56 15 18 32 19 48 3z m857 -8 c0 -7 -6 -15 -12
-17 -8 -3 -13 4 -13 17 0 13 5 20 13 18 6 -3 12 -11 12 -18z m-705 -25 c0 -8
-7 -15 -15 -15 -8 0 -15 7 -15 15 0 8 7 15 15 15 8 0 15 -7 15 -15z m188 -8
c2 -12 -3 -17 -17 -17 -15 0 -21 6 -21 21 0 25 33 22 38 -4z m-179 -136 c25
-25 17 -59 -15 -67 -46 -12 -72 37 -38 70 20 21 30 20 53 -3z"/>
<path d="M1623 1863 c24 -6 21 -20 -7 -27 -14 -3 -26 -15 -28 -26 -2 -12 -7
-20 -12 -20 -12 2 -26 -21 -26 -46 0 -26 33 -42 105 -50 66 -8 125 2 125 21 0
16 -47 12 -87 -7 -40 -20 -74 29 -36 51 13 7 23 5 35 -6 11 -10 26 -13 47 -8
38 8 53 27 49 62 -4 39 -55 63 -128 62 -30 -1 -47 -3 -37 -6z"/>
<path d="M1570 1845 c-6 -8 -10 -20 -7 -27 4 -8 6 -7 6 4 1 9 9 22 19 27 9 6
12 11 6 11 -6 0 -17 -7 -24 -15z"/>
<path d="M1995 1619 c-17 -5 -48 -26 -69 -48 l-38 -39 8 -63 c8 -54 13 -66 34
-75 65 -30 67 -29 99 33 30 61 66 171 58 179 -12 13 -65 20 -92 13z m-5 -115
c0 -8 -4 -12 -10 -9 -5 3 -10 10 -10 16 0 5 5 9 10 9 6 0 10 -7 10 -16z"/>
<path d="M1570 1490 l0 -40 49 0 c27 0 63 -3 80 -6 31 -6 31 -6 31 33 0 39 -1
41 -37 47 -21 3 -57 6 -80 6 l-43 0 0 -40z"/>
<path d="M859 1131 c-34 -35 -36 -59 -9 -94 25 -32 25 -45 -1 -73 -23 -24 -20
-54 5 -54 21 0 66 58 66 86 0 14 -10 39 -22 55 l-23 31 28 24 c30 26 31 54 2
54 -9 0 -30 -13 -46 -29z"/>
<path d="M2096 1134 c-32 -32 -33 -65 -5 -104 l22 -29 -27 -31 c-30 -36 -32
-48 -11 -56 22 -9 60 20 75 56 13 32 9 49 -22 92 -10 14 -8 22 14 45 47 51 4
76 -46 27z"/>
<path d="M968 1134 c-27 -14 -28 -16 -28 -108 0 -73 3 -96 16 -107 19 -16 34
2 34 42 0 20 8 30 30 39 36 15 64 63 56 95 -13 53 -56 68 -108 39z m62 -50 c0
-13 -21 -44 -30 -44 -6 0 -10 11 -10 25 0 18 5 25 20 25 11 0 20 -3 20 -6z"/>
<path d="M1130 1118 c-38 -63 -52 -186 -22 -196 7 -2 18 9 25 27 16 43 52 43
61 1 7 -38 33 -39 42 -3 9 36 -10 147 -30 179 -23 34 -52 31 -76 -8z m50 -63
c0 -24 -5 -35 -15 -35 -15 0 -20 26 -9 54 11 28 24 17 24 -19z"/>
<path d="M1309 1137 c-28 -22 -49 -75 -49 -127 0 -41 5 -56 25 -75 13 -14 31
-25 39 -25 29 0 66 23 66 41 0 15 -7 18 -37 16 -37 -2 -38 -1 -41 37 -4 51 5
86 22 86 8 0 16 -10 18 -22 4 -29 24 -34 37 -9 8 14 8 28 0 48 -16 43 -47 55
-80 30z"/>
<path d="M1462 1139 c-41 -12 -52 -39 -52 -130 0 -64 2 -70 24 -80 19 -9 32
-8 63 7 51 25 51 50 1 46 -47 -4 -52 20 -8 38 19 8 30 20 30 32 0 17 -5 20
-30 15 -42 -9 -38 8 8 30 66 32 39 64 -36 42z"/>
<path d="M1640 1124 c-6 -15 -9 -66 -8 -113 2 -69 6 -86 18 -86 8 0 20 14 25
32 16 47 19 47 48 4 29 -43 65 -57 118 -46 31 7 52 36 31 43 -8 2 -12 27 -12
67 0 49 4 66 17 73 23 13 9 42 -21 42 -14 0 -36 -4 -49 -9 -19 -8 -27 -6 -31
5 -10 25 -26 15 -59 -38 l-32 -53 -5 49 c-6 56 -25 71 -40 30z m170 -100 c0
-87 -19 -100 -50 -34 -23 49 -23 50 -5 84 16 29 21 32 37 23 14 -9 18 -25 18
-73z"/>
<path d="M1934 1138 c-25 -12 -34 -46 -34 -128 0 -95 11 -105 76 -74 71 34 99
140 49 189 -25 26 -56 31 -91 13z m65 -70 c5 -13 6 -30 3 -38 -7 -20 -33 -50
-44 -50 -9 0 -11 94 -1 103 13 14 34 6 42 -15z"/>
</g>
</svg>
