<?xml version="1.0" standalone="no"?>
<!DOCTYPE svg PUBLIC "-//W3C//DTD SVG 20010904//EN"
 "http://www.w3.org/TR/2001/REC-SVG-20010904/DTD/svg10.dtd">
<svg version="1.0" xmlns="http://www.w3.org/2000/svg"
 width="626.000000pt" height="626.000000pt" viewBox="0 0 626.000000 626.000000"
 preserveAspectRatio="xMidYMid meet">

<g transform="translate(0.000000,626.000000) scale(0.100000,-0.100000)"
fill="#000000" stroke="none">
<path d="M3600 5361 c-266 -57 -507 -218 -658 -443 -41 -60 -105 -189 -126
-253 -16 -50 -18 -52 -105 -93 -48 -24 -98 -53 -109 -65 -64 -68 -49 -444 25
-609 14 -31 35 -65 47 -76 24 -23 131 -58 205 -68 47 -6 53 -10 99 -73 28 -36
74 -89 103 -117 l54 -51 -37 -46 c-36 -46 -78 -140 -78 -176 0 -11 -28 -36
-72 -66 -40 -27 -121 -97 -179 -155 -135 -135 -180 -217 -187 -339 -4 -70 -1
-86 22 -137 33 -72 82 -132 144 -178 49 -35 49 -36 44 -85 -12 -133 83 -244
223 -258 66 -7 64 25 22 -308 l-32 -250 -60 -2 c-117 -5 -411 -24 -446 -30
l-37 -5 -7 43 c-16 102 -85 196 -182 251 -52 29 -52 30 -39 56 54 105 126 374
152 569 20 153 23 470 5 618 -58 480 -243 890 -523 1162 -164 159 -208 155
-395 -34 -275 -277 -440 -640 -515 -1133 -21 -135 -17 -559 5 -695 29 -174 88
-384 141 -507 6 -13 -2 -22 -33 -37 -195 -100 -240 -329 -107 -552 l35 -58
-37 -12 c-198 -63 -511 -193 -774 -321 -178 -87 -188 -93 -188 -120 0 -15 2
-28 5 -28 3 0 73 34 156 75 247 124 476 222 722 311 l149 53 55 -59 c63 -69
86 -79 115 -54 17 16 19 29 16 94 l-3 75 55 18 c30 9 103 30 161 46 l107 29
27 -83 c30 -92 84 -190 105 -190 24 0 77 92 107 186 l28 88 55 12 c65 13 105
32 141 65 19 19 38 25 80 27 l54 2 3 -55 c2 -30 -1 -105 -8 -166 -13 -121 -8
-147 31 -159 17 -6 34 6 86 56 103 102 185 238 202 334 6 39 7 40 56 46 83 11
485 33 491 27 3 -3 2 -40 -2 -82 l-7 -76 -36 -10 c-20 -5 -46 -17 -59 -25 -71
-51 -71 -190 0 -237 43 -29 127 -38 336 -38 196 0 209 2 247 23 57 32 79 80
115 253 18 84 36 158 41 165 5 9 44 8 170 -5 90 -10 176 -20 190 -23 25 -5 28
-12 59 -155 35 -155 52 -194 103 -232 27 -20 41 -21 275 -21 237 0 249 1 294
23 72 36 100 124 63 196 -19 35 -16 39 21 27 16 -5 108 -33 204 -61 334 -99
751 -266 1088 -436 l162 -82 0 29 c0 35 -20 48 -286 173 -370 174 -769 322
-1139 421 -99 27 -182 50 -183 51 -2 2 -15 101 -28 221 -13 120 -32 284 -43
366 l-20 147 24 53 c14 28 25 58 25 65 0 6 8 12 18 12 31 0 83 40 98 75 10 25
14 77 14 187 0 181 -10 210 -79 243 l-42 20 3 83 3 84 86 27 c170 55 360 176
474 303 96 107 208 290 250 408 7 19 24 53 39 74 14 21 31 57 37 80 6 23 17
53 25 68 27 52 6 146 -39 175 -7 5 -20 17 -30 29 -17 20 -16 24 34 118 41 78
52 110 56 160 3 38 1 71 -6 84 -17 32 -67 55 -103 47 -37 -9 -99 -63 -141
-124 l-31 -45 -18 72 c-22 91 -43 127 -85 147 -28 13 -40 14 -68 5 -19 -6 -37
-15 -40 -20 -3 -5 -25 5 -48 23 -23 18 -72 45 -109 60 -66 28 -67 29 -84 85
-10 31 -38 95 -61 141 -148 289 -423 495 -743 555 -112 22 -310 20 -420 -3z
m430 -48 c165 -33 346 -126 475 -245 116 -108 137 -146 33 -62 -300 242 -713
317 -1080 194 -148 -50 -239 -103 -408 -237 -65 -52 47 74 120 135 243 202
549 278 860 215z m53 -132 c263 -70 492 -229 631 -439 50 -75 60 -113 12 -43
-45 65 -166 175 -257 235 -196 127 -403 186 -652 186 -192 0 -354 -36 -515
-114 -155 -76 -282 -174 -375 -291 -49 -61 -42 -36 12 44 150 220 407 384 684
437 107 20 359 12 460 -15z m-353 -258 c-300 -137 -430 -235 -526 -399 -39
-67 -119 -259 -149 -361 -38 -126 -36 -122 -46 -88 -20 70 -39 206 -39 285 0
168 53 301 150 377 143 112 400 200 590 201 l55 1 -35 -16z m-961 -488 c-21
-181 10 -376 88 -546 20 -44 34 -82 31 -84 -9 -9 -161 35 -179 51 -60 54 -94
209 -94 425 0 151 2 169 19 188 19 20 137 83 144 76 2 -1 -3 -51 -9 -110z
m2193 68 c61 -33 68 -57 68 -223 l0 -125 -35 -28 c-55 -44 -78 -98 -83 -200
l-4 -87 -52 -14 c-95 -26 -109 -28 -103 -14 35 77 79 194 91 242 36 138 44
320 20 459 l-7 38 29 -11 c16 -6 50 -23 76 -37z m197 -33 c29 -15 52 -85 65
-195 15 -130 30 -136 81 -34 37 73 113 164 146 174 26 9 56 -10 63 -40 9 -34
-30 -145 -77 -218 -36 -56 -38 -57 -83 -57 -29 0 -56 7 -72 19 -33 23 -95 41
-143 41 -46 0 -48 8 -56 161 -5 109 -4 118 16 138 23 23 34 25 60 11z m-529
-48 c65 -66 60 -194 -10 -264 -31 -31 -45 -38 -78 -38 -128 0 -149 237 -27
311 44 27 81 24 115 -9z m-3020 -329 c0 -37 -98 -235 -147 -298 -44 -56 -66
-66 -83 -35 -26 49 65 228 163 318 54 49 67 52 67 15z m3601 6 c45 -14 84 -51
76 -74 -9 -21 -50 -35 -107 -35 -27 0 -51 -4 -54 -9 -3 -4 1 -39 9 -77 8 -38
15 -73 15 -79 0 -5 5 -4 11 2 6 6 12 34 12 62 1 46 3 51 24 51 17 0 23 -6 23
-21 0 -76 85 -144 181 -144 53 0 56 -1 47 -18 -22 -42 -80 -94 -127 -117 -28
-13 -51 -27 -51 -32 0 -11 43 -10 74 2 19 7 26 6 26 -3 -1 -20 -94 -190 -139
-250 -67 -91 -161 -187 -183 -187 -120 0 -240 137 -293 334 l-19 69 50 41 c58
49 90 79 127 125 l27 33 45 -41 c67 -62 94 -53 30 9 -49 48 -69 105 -63 184
10 124 65 186 166 186 30 0 72 -5 93 -11z m229 -85 c61 -57 74 -89 52 -133
-30 -63 -116 -78 -181 -32 -35 25 -62 92 -41 99 27 9 60 51 60 76 0 13 6 27
13 29 30 13 51 4 97 -39z m-999 -5 c62 -33 32 -139 -40 -139 -31 0 -51 28 -51
70 0 30 6 43 26 59 30 24 38 25 65 10z m-1271 -382 c458 -339 1027 -290 1443
125 53 53 97 94 97 91 0 -21 -107 -162 -174 -229 -135 -135 -287 -222 -474
-271 -82 -22 -119 -25 -242 -25 -124 0 -159 3 -243 25 -239 63 -456 213 -586
406 -69 102 -65 107 20 20 46 -47 118 -111 159 -142z m1684 121 c-43 -46 -91
-89 -140 -124 -46 -33 -176 -104 -190 -104 -5 0 19 28 52 63 48 49 98 109 130
156 2 3 145 37 168 40 6 0 -3 -13 -20 -31z m-3166 -420 l-3 -253 -63 -7 c-224
-25 -391 -250 -353 -475 31 -180 163 -312 345 -344 154 -26 315 43 406 176 79
114 92 280 34 406 -54 113 -131 182 -250 223 -36 12 -65 25 -65 29 1 4 1 118
1 253 l0 247 104 -7 c93 -6 325 -38 367 -51 10 -4 27 -42 47 -108 138 -451
133 -978 -14 -1427 -30 -93 -154 -344 -191 -388 -28 -32 -100 -60 -199 -75
l-40 -7 -19 71 c-20 80 -83 217 -108 238 -13 10 -20 11 -30 2 -22 -17 -88
-167 -107 -240 -18 -66 -18 -66 -51 -63 -72 6 -194 45 -220 71 -14 14 -46 64
-71 111 -145 269 -218 592 -218 963 0 265 25 458 86 672 48 167 60 188 109
198 90 18 267 35 383 36 l122 1 -2 -252z m3026 151 c40 -156 125 -278 228
-327 l60 -29 -33 -25 c-59 -44 -161 -95 -251 -127 -86 -30 -247 -65 -256 -57
-2 3 -15 37 -28 76 -34 100 -86 208 -91 189 -2 -9 17 -88 42 -175 47 -164 95
-384 95 -433 0 -28 -1 -28 -77 -35 -42 -3 -98 -6 -125 -6 l-48 0 0 45 c0 58
-20 97 -63 124 -33 20 -47 21 -343 21 -280 0 -312 -2 -343 -18 -43 -23 -71
-74 -71 -129 l0 -43 -67 1 c-38 1 -95 4 -128 8 l-60 6 3 40 c5 67 41 229 92
413 27 97 47 178 45 180 -11 11 -27 -18 -63 -111 -22 -56 -52 -142 -66 -191
-32 -110 -39 -120 -75 -102 -14 7 -37 17 -51 21 -23 7 -23 7 5 -19 l30 -26
-30 7 c-16 4 -61 7 -100 7 -100 -2 -175 -33 -243 -101 -30 -30 -57 -51 -61
-48 -3 4 -8 43 -10 87 -3 76 -1 84 35 156 75 153 322 361 566 477 l98 46 91
-37 c130 -51 249 -74 395 -74 186 0 338 35 494 116 36 18 101 45 146 59 44 15
114 44 155 64 41 21 76 39 79 39 3 1 14 -30 24 -69z m-1484 -33 l52 -34 -102
-52 c-56 -28 -104 -49 -106 -48 -11 11 83 168 101 168 2 0 27 -15 55 -34z
m-1417 -446 c78 -29 149 -97 189 -178 29 -60 32 -76 33 -157 0 -54 -5 -103
-14 -122 -16 -38 -12 -37 -46 -21 -20 9 -25 16 -20 32 14 43 17 158 5 200 -20
71 -77 136 -152 175 -57 29 -77 34 -137 34 -119 0 -223 -69 -274 -182 -21 -45
-25 -110 -15 -221 3 -30 0 -35 -19 -38 -18 -3 -24 4 -34 40 -17 59 -15 154 5
211 74 209 274 303 479 227z m-34 -120 c174 -88 182 -328 14 -427 -63 -37
-165 -39 -229 -6 -154 81 -178 293 -47 402 73 61 179 74 262 31z m2791 -175
c0 -149 -2 -174 -15 -169 -8 3 -17 22 -20 42 -5 31 -45 223 -56 272 -4 13 23
23 79 29 9 1 12 -40 12 -174z m-1507 9 c26 -9 49 -20 52 -24 3 -5 0 -40 -6
-78 -10 -60 -15 -71 -41 -87 -33 -19 -58 -68 -58 -112 0 -36 33 -90 64 -104
30 -14 36 -47 22 -128 l-10 -61 -46 0 c-62 0 -143 41 -171 86 -12 21 -23 59
-26 95 l-6 61 34 -7 c89 -18 87 -18 49 6 -138 89 -172 114 -204 149 -20 22
-36 49 -36 60 0 43 99 126 180 151 44 13 155 10 203 -7z m903 -89 c7 -87 -4
-122 -57 -181 -52 -57 -58 -75 -62 -189 l-2 -70 -147 -3 c-239 -4 -248 5 -248
248 0 251 -1 250 303 247 l209 -2 4 -50z m159 41 c57 -24 65 -53 65 -236 0
-232 -14 -250 -195 -250 l-95 0 0 88 c1 93 9 118 51 151 43 33 59 80 59 168 0
44 3 83 7 86 11 12 72 8 108 -7z m540 -21 c24 -24 25 -27 25 -185 0 -158 -1
-161 -25 -185 -13 -14 -28 -25 -33 -25 -5 0 -9 94 -10 210 -1 134 3 210 9 210
5 0 21 -11 34 -25z m-1342 -161 l87 -6 0 -81 0 -80 -122 6 c-68 4 -140 11
-160 17 -69 20 -90 89 -42 137 23 23 30 25 87 19 34 -3 101 -8 150 -12z m1231
-5 c20 -16 26 -29 26 -58 0 -70 -42 -88 -227 -98 l-123 -6 0 77 c0 52 4 78 13
81 11 5 182 20 253 24 18 0 42 -8 58 -20z m-3123 -76 c13 -16 12 -17 -3 -4
-10 7 -18 15 -18 17 0 8 8 3 21 -13z m64 -43 c3 -6 -1 -7 -9 -4 -18 7 -21 14
-7 14 6 0 13 -4 16 -10z m3070 -147 c-8 -53 -20 -55 -28 -5 -7 41 1 83 17 94
14 10 20 -33 11 -89z m-1269 60 c95 -5 114 -9 114 -22 0 -24 34 -71 66 -92 27
-17 52 -19 344 -19 295 0 317 1 347 20 32 19 63 66 63 95 0 12 14 15 68 16 37
0 94 4 127 8 33 5 61 7 63 5 2 -1 -1 -30 -6 -64 -7 -48 -6 -62 5 -68 12 -7 22
-64 67 -389 4 -29 -1 -37 -37 -67 -93 -75 -228 -121 -392 -132 l-93 -7 -21 89
c-33 143 -34 135 28 154 66 19 84 46 25 36 -137 -23 -365 -24 -486 -1 -63 12
-53 -13 14 -33 72 -22 69 -10 35 -147 l-22 -90 -90 2 c-154 4 -312 57 -397
133 l-39 35 26 190 c28 208 32 225 46 225 7 0 8 26 3 72 -6 65 -5 71 10 65 10
-4 69 -10 132 -14z m672 -656 c19 -82 32 -151 29 -154 -7 -6 -340 28 -348 36
-4 3 7 66 24 139 l30 133 116 -3 116 -3 33 -148z m-2287 -22 c-3 -104 -6 -130
-12 -100 -10 50 -11 249 -2 259 15 15 19 -25 14 -159z m1514 -3 c70 -35 171
-61 282 -72 59 -6 109 -13 111 -15 8 -7 -77 -374 -93 -405 -30 -58 -53 -62
-304 -58 -256 4 -280 10 -301 72 -14 45 7 99 47 119 15 8 74 18 131 22 56 4
102 11 102 15 0 9 -51 20 -96 20 -33 0 -34 1 -34 43 0 23 7 103 15 177 8 74
15 141 15 148 0 8 16 2 43 -16 23 -16 60 -38 82 -50z m-2169 -14 c-9 -29 -25
-71 -35 -93 l-19 -40 -1 50 c-1 48 24 120 52 153 20 24 21 -10 3 -70z m1326
19 c11 -22 22 -65 25 -96 4 -53 3 -55 -12 -36 -14 18 -65 163 -65 187 0 19 31
-14 52 -55z m2228 -74 c19 -188 19 -227 0 -230 -8 -1 -36 -5 -62 -8 -27 -3
-48 -10 -48 -14 0 -5 44 -12 98 -16 147 -11 182 -32 182 -109 0 -49 -34 -86
-90 -97 -72 -13 -441 -11 -469 4 -46 23 -61 60 -105 257 l-44 195 72 8 c186
21 301 54 383 112 27 18 53 33 59 34 7 1 16 -50 24 -136z m-2576 -40 c-4 -16
-14 -46 -24 -69 -19 -43 -61 -70 -126 -81 l-34 -6 0 70 0 69 68 13 c37 8 74
17 82 22 29 16 41 10 34 -18z m-703 -107 c17 -28 40 -50 67 -62 23 -10 42 -21
42 -24 0 -3 -45 -17 -101 -31 -115 -31 -114 -31 -107 58 4 47 10 60 34 80 16
12 31 23 34 23 3 -1 17 -20 31 -44z"/>
<path d="M1772 3529 c2 -6 8 -10 13 -10 5 0 11 4 13 10 2 6 -4 11 -13 11 -9 0
-15 -5 -13 -11z"/>
<path d="M1772 3309 c2 -6 8 -10 13 -10 5 0 11 4 13 10 2 6 -4 11 -13 11 -9 0
-15 -5 -13 -11z"/>
<path d="M1776 3103 c-11 -11 -6 -23 9 -23 8 0 15 4 15 9 0 13 -16 22 -24 14z"/>
<path d="M1645 2893 c-92 -20 -146 -62 -181 -138 -50 -106 -15 -218 87 -287
82 -55 195 -46 272 23 127 111 95 322 -58 384 -38 16 -94 24 -120 18z m131
-88 c107 -82 93 -238 -28 -301 -72 -37 -184 -2 -225 71 -26 47 -30 122 -9 163
18 34 64 78 96 91 42 18 127 6 166 -24z"/>
<path d="M3583 2539 c-44 -13 -73 -57 -73 -112 0 -55 27 -92 79 -108 32 -9 44
-8 75 6 128 61 55 253 -81 214z m87 -49 c11 -11 20 -33 20 -50 0 -51 -82 -76
-127 -38 -22 18 -16 75 9 92 31 22 74 20 98 -4z"/>
</g>
</svg>
