<svg width="22" height="22" viewBox="0 0 22 22" fill="none" xmlns="http://www.w3.org/2000/svg">
<path d="M9.66683 12.9984L13.1366 11L9.66683 9.00167V12.9984Z" fill="white"/>
<path d="M11.0002 0.333374C5.11003 0.333374 0.333496 5.1099 0.333496 11C0.333496 16.8902 5.11003 21.6667 11.0002 21.6667C16.8903 21.6667 21.6668 16.8902 21.6668 11C21.6668 5.1099 16.8903 0.333374 11.0002 0.333374ZM17.6652 11.0109C17.6652 11.0109 17.6652 13.1742 17.3908 14.2173C17.237 14.7883 16.7868 15.2385 16.2158 15.3921C15.1727 15.6667 11.0002 15.6667 11.0002 15.6667C11.0002 15.6667 6.83854 15.6667 5.7845 15.3812C5.21354 15.2276 4.76335 14.7772 4.60954 14.2063C4.33496 13.1742 4.33496 11 4.33496 11C4.33496 11 4.33496 8.83695 4.60954 7.79382C4.76318 7.22286 5.22445 6.7616 5.7845 6.60795C6.82764 6.33337 11.0002 6.33337 11.0002 6.33337C11.0002 6.33337 15.1727 6.33337 16.2158 6.61886C16.7868 6.7725 17.237 7.22286 17.3908 7.79382C17.6763 8.83695 17.6652 11.0109 17.6652 11.0109Z" fill="white"/>
</svg>
