<svg width="48" height="48" viewBox="0 0 48 48" fill="none" xmlns="http://www.w3.org/2000/svg">
<path d="M17.1344 34.3635C18.3868 34.3635 19.4053 35.4044 19.4053 36.6825C19.4053 37.9607 18.3868 39 17.1344 39C15.8819 39 14.8619 37.9607 14.8619 36.6825C14.8619 35.4044 15.8819 34.3635 17.1344 34.3635ZM34.0119 34.3635C35.2644 34.3635 36.2844 35.4044 36.2844 36.6825C36.2844 37.9607 35.2644 39 34.0119 39C32.7595 39 31.741 37.9607 31.741 36.6825C31.741 35.4044 32.7595 34.3635 34.0119 34.3635ZM10.1632 9.00048L10.3169 9.01523L13.4383 9.56781C13.9423 9.65659 14.3248 10.0837 14.3668 10.6041L15.8112 28.1642C15.8802 29.0061 16.5567 29.6413 17.3862 29.6413H33.7523C34.5323 29.6413 35.2043 29.0474 35.3168 28.2606L36.7402 18.2208C36.7912 17.8657 36.6322 17.6162 36.5332 17.4983C36.4342 17.382 36.2152 17.1861 35.8627 17.1861H19.7456C19.1247 17.1861 18.6207 16.6718 18.6207 16.0381C18.6207 15.4043 19.1247 14.89 19.7456 14.89H35.8627C36.7732 14.89 37.6387 15.2941 38.2342 15.9967C38.8297 16.6993 39.0982 17.6284 38.9677 18.5499L37.5427 28.5897C37.2727 30.4985 35.6437 31.9374 33.7523 31.9374H17.3862C15.3778 31.9374 13.7368 30.3975 13.5688 28.3556L12.1978 11.6786L9.9329 11.2791C9.32091 11.1704 8.91142 10.5765 9.01642 9.95201C9.12142 9.32596 9.6974 8.9142 10.3169 9.01523L10.1632 9.00048ZM31.3482 20.5484C31.9691 20.5484 32.4731 21.0627 32.4731 21.6964C32.4731 22.3301 31.9691 22.8444 31.3482 22.8444H27.1888C26.5663 22.8444 26.0638 22.3301 26.0638 21.6964C26.0638 21.0627 26.5663 20.5484 27.1888 20.5484H31.3482Z" fill="#F9F9F9"/>
</svg>
