<?xml version="1.0" standalone="no"?>
<!DOCTYPE svg PUBLIC "-//W3C//DTD SVG 20010904//EN"
 "http://www.w3.org/TR/2001/REC-SVG-20010904/DTD/svg10.dtd">
<svg version="1.0" xmlns="http://www.w3.org/2000/svg"
 width="25px" height="25px" viewBox="0 0 640.000000 640.000000"
 preserveAspectRatio="xMidYMid meet">

<g transform="translate(0.000000,640.000000) scale(0.100000,-0.100000)"
fill="#000000" stroke="none">
<path d="M3015 5695 c-195 -37 -346 -125 -513 -299 -186 -194 -352 -523 -433
-858 l-23 -98 -307 0 c-282 0 -309 -1 -329 -18 -26 -21 -25 -18 -74 -622 -38
-460 -108 -1320 -171 -2080 -30 -366 -55 -689 -55 -718 0 -39 5 -57 20 -72 20
-20 33 -20 2030 -20 l2010 0 21 21 c21 21 22 28 16 128 -9 147 -266 3278 -272
3318 -11 62 -16 63 -366 63 l-317 0 -22 93 c-30 120 -83 280 -130 389 -237
551 -661 853 -1085 773z m305 -161 c350 -104 639 -502 774 -1066 l6 -28 -950
0 c-522 0 -950 4 -950 8 0 5 14 57 30 117 95 335 232 588 419 768 121 116 259
193 393 216 71 13 210 5 278 -15z m-1311 -1296 c-16 -98 -39 -337 -39 -402 0
-53 -5 -72 -25 -102 -84 -124 65 -282 193 -204 92 56 95 188 6 246 l-27 18 7
115 c7 113 32 330 42 364 5 16 61 17 984 17 l978 0 6 -27 c12 -56 35 -261 42
-366 7 -106 6 -108 -18 -135 -36 -39 -48 -65 -48 -109 0 -144 194 -195 270
-71 34 57 25 122 -25 178 -19 21 -24 40 -30 135 -7 112 -31 332 -42 373 l-5
22 256 0 256 0 4 -22 c3 -13 10 -86 16 -163 5 -77 28 -358 50 -625 22 -267 73
-899 114 -1405 42 -506 78 -941 81 -967 l6 -48 -1901 0 -1901 0 6 48 c3 26 12
130 20 232 16 203 88 1078 165 2020 27 333 55 668 60 745 6 77 13 150 16 163
l4 22 244 0 243 0 -8 -52z"/>
</g>
</svg>
