<?xml version="1.0" standalone="no"?>
<!DOCTYPE svg PUBLIC "-//W3C//DTD SVG 20010904//EN"
 "http://www.w3.org/TR/2001/REC-SVG-20010904/DTD/svg10.dtd">
<svg version="1.0" xmlns="http://www.w3.org/2000/svg"
 width="25px" height="25px" viewBox="0 0 512.000000 512.000000"
 preserveAspectRatio="xMidYMid meet">

<g transform="translate(0.000000,512.000000) scale(0.100000,-0.100000)"
fill="#000000" stroke="none">
<path d="M264 5106 c-90 -39 -109 -160 -36 -228 16 -16 164 -84 367 -169 187
-78 346 -147 353 -152 9 -7 12 -341 12 -1608 l0 -1598 29 -87 c16 -47 46 -111
66 -140 82 -118 219 -213 353 -244 28 -7 52 -14 52 -16 0 -3 -12 -28 -26 -56
-54 -107 -67 -245 -34 -372 27 -107 74 -190 150 -266 76 -76 159 -123 266
-150 193 -50 381 1 529 141 105 100 164 221 180 369 8 71 -16 203 -49 275
l-25 55 635 0 c348 0 634 -2 634 -5 0 -3 -9 -23 -20 -45 -30 -58 -50 -155 -50
-240 0 -153 54 -284 166 -397 224 -229 584 -229 808 0 113 115 166 244 166
402 0 249 -153 458 -400 547 l-65 23 -1435 5 c-1314 5 -1438 6 -1472 22 -56
25 -123 93 -149 151 -23 49 -24 65 -27 279 l-3 228 53 -25 c127 -58 41 -55
1653 -55 1631 0 1540 -3 1674 63 87 42 207 160 248 242 72 143 68 97 68 842 0
663 0 672 -21 700 -11 15 -36 35 -55 44 -23 11 -604 95 -1754 254 -946 130
-1753 241 -1792 247 l-73 10 0 265 c0 286 -4 314 -55 347 -48 31 -835 356
-862 356 -15 -1 -42 -7 -59 -14z m2694 -1478 l1692 -233 0 -561 c0 -633 2
-617 -76 -703 -26 -29 -65 -58 -96 -72 l-53 -24 -1475 0 -1475 0 -56 26 c-66
31 -124 87 -153 149 -21 44 -21 55 -24 848 -2 644 0 802 10 802 7 1 775 -104
1706 -232z m-906 -2784 c58 -19 120 -73 156 -132 24 -42 27 -57 27 -137 0
-103 -16 -144 -82 -207 -83 -80 -215 -103 -318 -54 -62 28 -126 97 -150 159
-23 61 -17 175 13 232 64 125 218 186 354 139z m2293 -9 c93 -45 165 -158 165
-260 0 -110 -85 -235 -185 -268 -195 -67 -389 66 -389 268 0 115 61 211 168
262 43 20 63 23 126 21 48 -3 89 -11 115 -23z"/>
</g>
</svg>
