<?xml version="1.0" encoding="utf-8"?>
<svg version="1.1" id="Capa_1" x="0px" y="0px" viewBox="0 0 611.995 611.995" style="enable-background:new 0 0 611.995 611.995;" xmlns="http://www.w3.org/2000/svg">
  <g>
    <g>
      <polygon points="241.819,320.606 271.596,320.606 256.707,277.252 &#9;&#9;" style="fill: rgb(255, 0, 0); stroke: rgb(255, 0, 0);"/>
      <path d="M605.516,298.642c9.829-10.47,8.276-27.183-3.309-35.669l-23.171-16.972c-8.831-6.471-12.146-18.112-8.042-28.268 l10.76-26.629c5.38-13.317-2.095-28.336-15.967-32.07l-27.738-7.457c-10.575-2.841-17.865-12.498-17.705-23.449l0.413-28.724 c0.203-14.359-12.196-25.661-26.468-24.133l-28.564,3.063c-10.889,1.165-21.175-5.207-24.983-15.474l-9.977-26.918 c-4.992-13.465-20.638-19.529-33.407-12.948l-25.519,13.176c-9.731,5.023-21.625,2.798-28.884-5.398L323.91,9.266 c-9.521-10.754-26.302-10.754-35.823,0l-19.042,21.507c-7.26,8.196-19.153,10.421-28.884,5.398l-25.525-13.176 c-12.763-6.582-28.403-0.524-33.401,12.941l-9.99,26.937c-3.808,10.267-14.094,16.633-24.977,15.468l-28.564-3.063 c-14.279-1.528-26.684,9.774-26.468,24.133l0.413,28.718c0.16,10.951-7.13,20.608-17.705,23.449l-27.738,7.463 c-13.872,3.728-21.347,18.747-15.967,32.064l10.76,26.629c4.104,10.15,0.789,21.791-8.042,28.262L9.785,262.973 c-11.586,8.486-13.132,25.199-3.303,35.669l19.652,20.94c7.494,7.981,8.609,20.035,2.712,29.26l-15.474,24.2 c-7.734,12.097-3.143,28.237,9.805,34.455l25.895,12.43c9.872,4.739,15.265,15.567,13.095,26.302l-5.688,28.163 c-2.841,14.075,7.272,27.46,21.588,28.582l28.638,2.237c10.914,0.85,19.862,9.004,21.711,19.794l4.875,28.311 c2.434,14.149,16.701,22.987,30.455,18.858l27.51-8.258c10.489-3.149,21.772,1.226,27.399,10.612l14.766,24.638 c7.383,12.319,23.88,15.4,35.207,6.582l22.672-17.637c8.64-6.723,20.743-6.723,29.383,0l22.666,17.637 c11.333,8.819,27.83,5.737,35.213-6.582l14.766-24.632c5.633-9.386,16.91-13.761,27.399-10.612l27.516,8.258 c13.755,4.129,28.015-4.708,30.456-18.857l4.868-28.311c1.855-10.791,10.797-18.944,21.711-19.794l28.631-2.237 c14.316-1.122,24.428-14.507,21.588-28.582l-5.682-28.163c-2.163-10.729,3.229-21.563,13.102-26.302l25.895-12.43 c12.948-6.212,17.539-22.358,9.805-34.455l-15.474-24.2c-5.898-9.225-4.782-21.279,2.712-29.26L605.516,298.642z M171.393,356.534 c-10.107,7.444-23.825,11.173-41.16,11.173c-10.027,0-18.58-0.881-26.031-2.644c-7.451-1.756-14.575-3.993-20.737-6.705v-31.589 h3.038c6.446,6.163,13.669,10.396,21.661,13.157c7.993,2.767,15.671,4.788,23.042,4.788c1.898,0,4.388,0.16,7.475-0.166 s5.608-0.703,7.555-1.461c2.385-0.974,4.345-2.12,5.891-3.58c1.547-1.461,2.317-3.587,2.317-6.458 c0-2.656-1.128-4.924-3.377-6.847c-2.243-1.923-5.534-3.389-9.872-4.419c-4.554-1.085-9.361-2.095-14.427-3.044 c-5.066-0.943-9.823-2.151-14.26-3.611c-10.187-3.303-17.52-7.789-21.982-13.447c-4.474-5.663-6.705-12.695-6.705-21.088 c0-11.271,5.047-20.466,15.154-27.596c10.107-7.124,23.091-10.686,38.966-10.686c7.968,0,15.992,0.77,23.763,2.317 c7.777,1.541,14.192,3.482,20.355,5.811v27.035h-3.642c-4.881,0-10.852-6.742-17.921-9.373 c-7.075-2.625-14.291-3.728-21.661-3.728c-2.601,0-5.189,0.284-7.765,0.635c-2.57,0.351-5.047,1.066-7.432,2.04 c-2.114,0.813-3.932,2.071-5.448,3.728c-1.516,1.652-2.274,3.55-2.274,5.657c0,3.198,1.214,5.657,3.654,7.364 c2.44,1.707,7.044,3.266,13.817,4.677c4.443,0.918,8.708,1.818,12.8,2.687s8.492,2.058,13.206,3.574 c9.262,3.038,16.103,7.167,20.515,12.393c4.419,5.232,6.625,12.017,6.625,20.361C186.552,339.395,181.493,349.083,171.393,356.534 z M287.533,363.744l-8.43-24.65h-44.783l-8.43,24.65h-31.454l44.703-117.089h35.916l44.703,117.089H287.533z M422.407,363.744 h-86.276V246.655h30.813v92.439h55.463V363.744z M533.333,265.142h-61.626v24.65h55.463v24.65h-55.463v24.65h61.626v24.65h-92.439 V246.655h92.439V265.142z" style="fill: rgb(255, 0, 0); stroke: rgb(255, 0, 0);"/>
    </g>
  </g>
  <g/>
  <g/>
  <g/>
  <g/>
  <g/>
  <g/>
  <g/>
  <g/>
  <g/>
  <g/>
  <g/>
  <g/>
  <g/>
  <g/>
  <g/>
  <rect x="63.568" y="229.342" width="482.367" height="154.557" style="fill: rgb(255, 0, 0);"/>
</svg>