<?xml version="1.0" standalone="no"?>
<!DOCTYPE svg PUBLIC "-//W3C//DTD SVG 20010904//EN"
 "http://www.w3.org/TR/2001/REC-SVG-20010904/DTD/svg10.dtd">
<svg version="1.0" xmlns="http://www.w3.org/2000/svg"
 width="500.000000pt" height="500.000000pt" viewBox="0 0 500.000000 500.000000"
 preserveAspectRatio="xMidYMid meet">

<g transform="translate(0.000000,500.000000) scale(0.100000,-0.100000)"
fill="#000000" stroke="none">
<path d="M0 2500 l0 -2500 2500 0 2500 0 0 2500 0 2500 -2500 0 -2500 0 0
-2500z m2120 1971 c52 -34 167 -98 255 -141 144 -71 223 -103 463 -187 54 -19
72 -29 70 -42 -1 -9 19 -36 47 -62 43 -40 62 -49 135 -67 139 -34 340 -71 482
-87 190 -22 173 -14 219 -108 38 -78 96 -244 88 -251 -5 -5 -346 11 -508 24
-73 6 -135 9 -137 7 -2 -2 1 -46 7 -98 6 -51 9 -125 7 -163 l-4 -68 226 4 226
4 95 53 c51 30 114 65 139 79 75 41 260 170 358 249 458 371 256 546 -482 417
l-149 -27 -18 24 c-24 31 -24 36 4 42 425 91 559 111 777 111 143 1 186 -3
235 -17 78 -24 135 -79 135 -130 0 -153 -246 -379 -725 -667 -170 -103 -194
-118 -163 -107 10 3 19 0 22 -9 9 -24 7 -167 -3 -182 -6 -11 -62 -16 -237 -21
l-229 -8 -155 -73 c-151 -72 -156 -75 -202 -136 l-46 -63 26 -5 c127 -26 469
-56 635 -56 l138 0 -6 -22 c-4 -13 -16 -44 -27 -70 l-20 -46 -86 -8 c-47 -3
-171 -4 -275 -2 l-189 5 50 -51 c62 -65 98 -113 152 -201 97 -157 223 -446
204 -465 -10 -9 -1241 -640 -1250 -640 -8 0 -1228 629 -1248 643 -16 12 -13
22 34 132 28 66 69 153 91 194 22 40 38 75 36 78 -2 2 -67 -10 -143 -26 -196
-41 -376 -68 -540 -81 -376 -29 -537 69 -427 259 59 102 289 302 513 446 110
71 302 185 312 185 4 0 8 -15 8 -33 0 -32 -6 -37 -122 -109 -358 -221 -511
-372 -495 -489 12 -93 65 -118 267 -126 138 -5 316 10 513 44 135 23 140 26
90 52 -64 32 -135 163 -197 360 -15 46 -24 86 -22 88 3 3 53 -25 112 -62 59
-37 164 -99 234 -137 l128 -69 54 40 c29 23 77 54 107 70 l55 29 -85 42 c-181
91 -443 254 -591 367 -58 44 -58 45 -58 96 0 73 16 199 35 284 l16 72 82 -51
c124 -78 275 -167 340 -199 l57 -29 0 67 -1 68 -82 38 c-111 52 -348 187 -353
202 -5 13 43 142 56 150 4 3 66 -23 136 -56 129 -61 275 -122 278 -117 1 2 15
36 31 77 16 41 52 109 80 151 l50 77 -130 66 c-71 37 -152 81 -178 97 l-48 31
21 27 c63 81 260 231 390 297 75 38 193 85 205 81 6 -2 53 -31 105 -65z m2402
-2037 c18 -9 52 -32 75 -51 42 -34 43 -34 100 -24 70 13 143 14 163 1 28 -18
-1 -62 -80 -118 l-75 -54 -13 -66 c-16 -75 -63 -157 -111 -191 -117 -84 -277
-75 -377 20 -30 29 -32 29 -80 19 -56 -13 -156 -16 -173 -6 -33 21 26 95 117
147 37 21 42 28 42 61 0 85 72 208 144 245 87 46 198 53 268 17z"/>
<path d="M2300 4160 c-331 -46 -594 -314 -651 -665 -15 -94 -6 -293 17 -385
24 -97 78 -201 134 -263 40 -44 50 -62 50 -89 0 -24 8 -42 25 -58 28 -26 32
-40 12 -40 -26 0 -180 -81 -236 -125 -124 -94 -211 -216 -332 -460 -43 -88
-79 -165 -79 -171 0 -9 1123 -595 1157 -602 7 -2 274 132 593 299 l578 302
-35 81 c-69 163 -189 365 -272 458 -23 26 -70 68 -104 94 -61 46 -208 124
-234 124 -20 0 -16 14 12 40 17 16 25 34 25 58 0 26 10 45 44 83 107 119 166
302 166 515 0 313 -166 595 -432 730 -128 65 -295 93 -438 74z m242 -131 c100
-20 215 -86 298 -169 85 -85 129 -155 168 -262 21 -61 26 -95 30 -208 7 -224
-33 -369 -130 -470 -46 -49 -93 -68 -223 -92 -93 -17 -466 -17 -560 0 -127 23
-191 50 -229 93 -90 106 -128 231 -129 429 0 148 15 217 75 340 77 159 244
295 410 336 66 16 220 17 290 3z m-62 -1264 c0 -12 -15 -15 -75 -15 -60 0 -75
3 -75 15 0 12 15 15 75 15 60 0 75 -3 75 -15z m0 -50 c0 -12 -15 -15 -75 -15
-60 0 -75 3 -75 15 0 12 15 15 75 15 60 0 75 -3 75 -15z m0 -50 c0 -12 -15
-15 -75 -15 -60 0 -75 3 -75 15 0 12 15 15 75 15 60 0 75 -3 75 -15z m-386
-243 c3 -5 -21 -17 -52 -26 -99 -31 -238 -104 -327 -171 -48 -36 -89 -65 -91
-65 -3 0 5 19 18 41 50 89 186 185 304 213 67 16 140 20 148 8z m289 -254 c4
-128 7 -329 7 -445 l0 -213 -28 0 -29 0 -6 308 c-4 169 -7 369 -7 445 l0 137
28 0 29 0 6 -232z m-103 -328 c0 -203 -2 -370 -5 -370 -3 0 -85 40 -184 89
l-178 90 -93 208 c-51 114 -94 213 -97 220 -11 28 372 126 515 132 l42 1 0
-370z m377 356 c150 -32 412 -152 405 -187 -1 -8 -37 -91 -79 -185 l-77 -172
-179 -83 c-99 -46 -184 -85 -188 -87 -5 -2 -9 159 -9 362 l0 366 29 0 c16 0
61 -6 98 -14z m-1035 -296 c26 -55 44 -100 41 -100 -13 0 -203 103 -203 110 0
12 91 90 104 90 6 0 32 -45 58 -100z m1615 6 l43 -34 -23 -14 c-26 -17 -124
-68 -131 -68 -3 0 7 34 22 75 15 41 31 75 37 75 5 0 29 -15 52 -34z"/>
<path d="M2275 3819 c-181 -24 -365 -111 -406 -191 -66 -129 -66 -376 0 -506
32 -63 154 -132 306 -173 114 -31 345 -31 460 -1 94 26 231 90 272 129 106
100 105 498 -1 595 -119 109 -411 177 -631 147z m359 -48 c91 -24 167 -57 228
-99 36 -25 48 -41 68 -98 22 -60 25 -86 25 -199 0 -111 -4 -140 -24 -198 -22
-64 -27 -71 -83 -108 -63 -40 -133 -70 -233 -97 -88 -24 -335 -23 -430 2 -82
22 -205 76 -251 111 -88 67 -116 332 -53 501 16 41 30 61 62 83 88 60 199 103
312 121 94 14 288 5 379 -19z"/>
<path d="M3198 3023 c-9 -24 -14 -43 -13 -43 11 0 158 74 150 76 -5 1 -35 4
-66 6 l-55 4 -16 -43z"/>
<path d="M4683 2343 c-39 -5 -39 -7 -13 -58 11 -22 20 -47 20 -57 0 -10 6 -18
14 -18 19 0 116 88 116 106 0 29 -46 38 -137 27z"/>
<path d="M4052 2083 c-49 -34 -74 -74 -57 -91 7 -8 153 -8 160 0 3 2 -4 23
-15 46 -11 22 -20 50 -20 62 0 28 -8 26 -68 -17z"/>
</g>
</svg>
