<svg xmlns="http://www.w3.org/2000/svg" xmlns:xlink="http://www.w3.org/1999/xlink" width="250" zoomAndPan="magnify" viewBox="0 0 187.5 299.999988" height="400" preserveAspectRatio="xMidYMid meet" version="1.0"><defs><g/><clipPath id="b5c735fd52"><path d="M 0 0.398438 L 187 0.398438 L 187 299.601562 L 0 299.601562 Z M 0 0.398438 " clip-rule="nonzero"/></clipPath><clipPath id="82e2e61c76"><path d="M 42 67.328125 L 59 67.328125 L 59 86 L 42 86 Z M 42 67.328125 " clip-rule="nonzero"/></clipPath><clipPath id="1ecfc93f23"><path d="M 28.125 132 L 31 132 L 31 135 L 28.125 135 Z M 28.125 132 " clip-rule="nonzero"/></clipPath><clipPath id="38bf7ddc9e"><path d="M 31 109 L 159.375 109 L 159.375 128 L 31 128 Z M 31 109 " clip-rule="nonzero"/></clipPath><clipPath id="adce35b9aa"><path d="M 31 119 L 159.375 119 L 159.375 128 L 31 128 Z M 31 119 " clip-rule="nonzero"/></clipPath></defs><g clip-path="url(#b5c735fd52)"><path fill="#ffffff" d="M 0 0.398438 L 187.5 0.398438 L 187.5 307.148438 L 0 307.148438 Z M 0 0.398438 " fill-opacity="1" fill-rule="nonzero"/><path fill="#ffffff" d="M 0 0.398438 L 187.5 0.398438 L 187.5 300.398438 L 0 300.398438 Z M 0 0.398438 " fill-opacity="1" fill-rule="nonzero"/><path fill="#050505" d="M 0 0.398438 L 187.5 0.398438 L 187.5 300.398438 L 0 300.398438 Z M 0 0.398438 " fill-opacity="1" fill-rule="nonzero"/></g><path fill="#97ffd9" d="M 107.902344 135.496094 C 108.484375 135.449219 113.464844 135.234375 113.636719 135.824219 C 113.875 136.648438 114.0625 136.953125 114.367188 137.753906 C 120.691406 154.230469 127.011719 170.710938 133.332031 187.1875 C 136.496094 195.429688 139.65625 203.667969 142.816406 211.90625 C 143.507812 213.707031 147.851562 221.710938 146.945312 223.273438 C 146.140625 224.667969 142.742188 224.769531 141.347656 224.964844 C 124.328125 227.332031 91.316406 233.832031 39.453125 221.953125 C 38.65625 221.773438 38.074219 221.101562 37.503906 220.511719 C 37.277344 220.277344 37.234375 220.113281 37.359375 219.816406 C 38.152344 217.976562 38.917969 216.128906 39.699219 214.285156 C 42.316406 208.105469 45.058594 201.980469 47.585938 195.761719 C 50.316406 189.042969 53.074219 182.335938 55.769531 175.601562 C 58.722656 168.226562 61.554688 160.808594 64.453125 153.414062 C 66.695312 147.691406 69.054688 142.011719 71.363281 136.3125 C 71.566406 135.808594 71.765625 135.304688 71.933594 134.789062 C 72.03125 134.5 72.179688 134.402344 72.480469 134.417969 C 78.679688 134.714844 106.472656 135.613281 107.902344 135.496094 " fill-opacity="1" fill-rule="nonzero"/><path fill="#37cf9e" d="M 146.859375 222.371094 C 146.285156 221.78125 145.703125 221.109375 144.910156 220.929688 C 93.046875 209.050781 60.03125 215.550781 43.011719 217.917969 C 41.667969 218.105469 38.460938 218.207031 37.511719 219.464844 C 37.460938 219.582031 37.410156 219.699219 37.359375 219.816406 C 37.332031 219.882812 37.3125 219.945312 37.300781 220.003906 C 37.296875 220.042969 37.292969 220.082031 37.292969 220.125 C 37.300781 220.257812 37.367188 220.371094 37.503906 220.511719 C 38.074219 221.101562 38.65625 221.773438 39.453125 221.953125 C 91.316406 233.832031 124.328125 227.332031 141.347656 224.964844 C 142.691406 224.777344 145.898438 224.675781 146.851562 223.417969 C 146.898438 223.300781 146.949219 223.183594 147 223.066406 C 147.027344 222.996094 147.046875 222.9375 147.058594 222.878906 C 147.0625 222.839844 147.066406 222.800781 147.066406 222.757812 C 147.058594 222.625 146.992188 222.511719 146.859375 222.371094 " fill-opacity="1" fill-rule="nonzero"/><path fill="#26697a" d="M 95.074219 112.449219 C 88.730469 112.585938 83.054688 112.777344 77.375 112.808594 C 73.941406 112.828125 70.507812 112.75 67.074219 112.820312 C 66.886719 112.824219 66.699219 112.824219 66.511719 112.796875 C 65.832031 112.695312 65.476562 112.164062 65.632812 111.488281 C 65.664062 111.347656 65.730469 111.21875 65.695312 111.066406 C 64.742188 106.902344 66.351562 101.582031 68.222656 97.863281 C 70.214844 93.90625 73.257812 90.476562 76.960938 88.050781 C 83.042969 84.066406 90.75 82.785156 97.871094 84.242188 C 109.4375 86.609375 119.09375 95.683594 121.792969 107.242188 C 122.125 108.660156 122.523438 110.0625 122.738281 111.511719 C 122.75 111.59375 122.777344 111.671875 122.785156 111.753906 C 122.851562 112.3125 122.675781 112.539062 122.117188 112.558594 C 121.722656 112.570312 121.328125 112.550781 120.933594 112.523438 C 118.980469 112.398438 117.023438 112.359375 115.070312 112.324219 C 108.183594 112.210938 101.296875 112.253906 95.074219 112.449219 " fill-opacity="1" fill-rule="nonzero"/><g clip-path="url(#82e2e61c76)"><path fill="#97ffd9" d="M 58.03125 82.957031 C 58.023438 83.078125 57.925781 83.128906 57.839844 83.179688 C 56.109375 84.242188 54.316406 85.117188 52.289062 85.476562 C 49.484375 85.972656 47.066406 85.050781 45 83.320312 C 43.320312 81.917969 42.660156 79.914062 42.820312 77.707031 C 42.964844 75.679688 43.710938 73.863281 44.890625 72.226562 C 46.417969 70.113281 48.359375 68.539062 50.832031 67.660156 C 51.28125 67.5 51.746094 67.390625 52.226562 67.355469 C 52.582031 67.328125 52.933594 67.34375 53.273438 67.460938 C 53.445312 67.519531 53.675781 67.539062 53.707031 67.761719 C 53.738281 67.964844 53.515625 68.007812 53.390625 68.09375 C 52.804688 68.511719 52.316406 69.027344 51.957031 69.640625 C 50.886719 71.480469 50.230469 73.429688 50.5 75.597656 C 50.839844 78.296875 52.125 80.363281 54.570312 81.65625 C 55.550781 82.175781 56.550781 82.617188 57.652344 82.804688 C 57.773438 82.828125 57.886719 82.871094 58.007812 82.90625 C 58.019531 82.910156 58.023438 82.9375 58.03125 82.957031 " fill-opacity="1" fill-rule="nonzero"/></g><path fill="#97ffd9" d="M 128.113281 78.003906 C 128.109375 78.183594 128.027344 78.332031 127.894531 78.433594 C 127.734375 78.5625 127.5625 78.695312 127.375 78.773438 C 127.082031 78.902344 126.984375 79.074219 127.046875 79.40625 C 127.113281 79.726562 127.117188 80.066406 127.113281 80.398438 C 127.101562 80.964844 126.730469 81.160156 126.226562 80.886719 C 125.949219 80.738281 125.746094 80.496094 125.519531 80.285156 C 125.078125 79.867188 125.078125 79.863281 124.574219 80.191406 C 124.457031 80.269531 124.355469 80.382812 124.234375 80.457031 C 124.054688 80.5625 123.871094 80.539062 123.714844 80.398438 C 123.546875 80.25 123.566406 80.070312 123.660156 79.890625 C 123.667969 79.871094 123.683594 79.855469 123.695312 79.839844 C 124.027344 79.238281 124.027344 79.234375 123.480469 78.867188 C 123.265625 78.722656 123.054688 78.582031 123.097656 78.28125 C 123.144531 77.941406 123.417969 77.882812 123.6875 77.828125 C 123.730469 77.820312 123.773438 77.800781 123.808594 77.808594 C 124.574219 77.902344 124.925781 77.460938 125.144531 76.8125 C 125.238281 76.539062 125.390625 76.28125 125.546875 76.039062 C 125.824219 75.609375 126.226562 75.640625 126.453125 76.101562 C 126.605469 76.40625 126.605469 76.746094 126.664062 77.070312 C 126.746094 77.519531 126.746094 77.519531 127.214844 77.515625 C 127.382812 77.515625 127.550781 77.5 127.710938 77.53125 C 127.960938 77.578125 128.117188 77.730469 128.113281 78.003906 " fill-opacity="1" fill-rule="nonzero"/><path fill="#97ffd9" d="M 58.941406 143.023438 C 58.9375 143.203125 58.855469 143.351562 58.722656 143.457031 C 58.558594 143.582031 58.390625 143.714844 58.203125 143.796875 C 57.910156 143.921875 57.8125 144.097656 57.875 144.425781 C 57.941406 144.746094 57.945312 145.085938 57.9375 145.417969 C 57.929688 145.984375 57.558594 146.179688 57.054688 145.90625 C 56.777344 145.757812 56.570312 145.515625 56.347656 145.304688 C 55.90625 144.886719 55.90625 144.886719 55.402344 145.210938 C 55.28125 145.289062 55.183594 145.402344 55.058594 145.476562 C 54.882812 145.582031 54.699219 145.558594 54.542969 145.417969 C 54.375 145.269531 54.394531 145.09375 54.488281 144.910156 C 54.496094 144.890625 54.511719 144.878906 54.523438 144.859375 C 54.855469 144.257812 54.855469 144.253906 54.308594 143.886719 C 54.09375 143.742188 53.882812 143.601562 53.925781 143.300781 C 53.972656 142.964844 54.246094 142.902344 54.515625 142.851562 C 54.558594 142.839844 54.601562 142.824219 54.640625 142.828125 C 55.402344 142.921875 55.753906 142.480469 55.972656 141.832031 C 56.066406 141.558594 56.21875 141.300781 56.375 141.058594 C 56.652344 140.628906 57.054688 140.664062 57.28125 141.121094 C 57.433594 141.425781 57.433594 141.765625 57.492188 142.09375 C 57.574219 142.539062 57.574219 142.539062 58.042969 142.535156 C 58.210938 142.535156 58.378906 142.519531 58.539062 142.550781 C 58.789062 142.597656 58.945312 142.75 58.941406 143.023438 " fill-opacity="1" fill-rule="nonzero"/><path fill="#97ffd9" d="M 126.101562 138.332031 C 126.105469 138.511719 126.1875 138.660156 126.320312 138.761719 C 126.484375 138.890625 126.652344 139.023438 126.839844 139.105469 C 127.132812 139.230469 127.230469 139.40625 127.167969 139.734375 C 127.101562 140.054688 127.097656 140.394531 127.105469 140.726562 C 127.117188 141.292969 127.484375 141.488281 127.988281 141.214844 C 128.269531 141.066406 128.472656 140.824219 128.699219 140.613281 C 129.136719 140.195312 129.136719 140.191406 129.640625 140.519531 C 129.761719 140.597656 129.859375 140.710938 129.984375 140.785156 C 130.160156 140.890625 130.34375 140.867188 130.5 140.726562 C 130.667969 140.578125 130.648438 140.398438 130.554688 140.21875 C 130.546875 140.199219 130.53125 140.1875 130.519531 140.167969 C 130.191406 139.566406 130.1875 139.5625 130.738281 139.195312 C 130.949219 139.050781 131.160156 138.910156 131.117188 138.609375 C 131.070312 138.269531 130.796875 138.210938 130.527344 138.15625 C 130.488281 138.148438 130.445312 138.128906 130.40625 138.136719 C 129.640625 138.230469 129.292969 137.789062 129.070312 137.140625 C 128.976562 136.867188 128.828125 136.609375 128.667969 136.367188 C 128.390625 135.9375 127.988281 135.972656 127.761719 136.429688 C 127.609375 136.734375 127.609375 137.074219 127.550781 137.398438 C 127.46875 137.847656 127.46875 137.847656 127 137.84375 C 126.835938 137.84375 126.664062 137.828125 126.503906 137.859375 C 126.257812 137.90625 126.097656 138.058594 126.101562 138.332031 " fill-opacity="1" fill-rule="nonzero"/><path fill="#97ffd9" d="M 140.402344 96.320312 C 140.417969 96.988281 139.726562 97.652344 139.007812 97.660156 C 138.398438 97.664062 137.894531 97.15625 137.894531 96.542969 C 137.898438 95.875 138.539062 95.265625 139.253906 95.25 C 139.886719 95.238281 140.390625 95.707031 140.402344 96.320312 " fill-opacity="1" fill-rule="nonzero"/><path fill="#ffffff" d="M 105.679688 91.9375 C 105.699219 92.890625 104.714844 93.832031 103.691406 93.84375 C 102.824219 93.851562 102.101562 93.125 102.105469 92.253906 C 102.109375 91.296875 103.019531 90.429688 104.042969 90.410156 C 104.945312 90.390625 105.664062 91.058594 105.679688 91.9375 " fill-opacity="1" fill-rule="nonzero"/><path fill="#97ffd9" d="M 149.421875 98.757812 C 149.429688 99.082031 149.09375 99.402344 148.75 99.40625 C 148.453125 99.40625 148.210938 99.164062 148.210938 98.867188 C 148.210938 98.542969 148.519531 98.25 148.867188 98.242188 C 149.171875 98.234375 149.414062 98.460938 149.421875 98.757812 " fill-opacity="1" fill-rule="nonzero"/><path fill="#97ffd9" d="M 34.230469 139.09375 C 34.238281 139.417969 33.902344 139.738281 33.558594 139.738281 C 33.265625 139.742188 33.019531 139.496094 33.019531 139.199219 C 33.023438 138.875 33.332031 138.582031 33.675781 138.578125 C 33.980469 138.570312 34.226562 138.796875 34.230469 139.09375 " fill-opacity="1" fill-rule="nonzero"/><path fill="#97ffd9" d="M 52.230469 101.023438 C 52.234375 101.34375 51.902344 101.664062 51.554688 101.667969 C 51.261719 101.671875 51.015625 101.425781 51.015625 101.128906 C 51.019531 100.804688 51.328125 100.511719 51.671875 100.503906 C 51.980469 100.5 52.222656 100.726562 52.230469 101.023438 " fill-opacity="1" fill-rule="nonzero"/><path fill="#97ffd9" d="M 34.738281 160.238281 C 34.109375 160.246094 33.625 159.769531 33.625 159.144531 C 33.625 158.46875 34.21875 157.894531 34.925781 157.894531 C 35.578125 157.890625 36.105469 158.382812 36.117188 159.003906 C 36.128906 159.675781 35.511719 160.230469 34.738281 160.238281 " fill-opacity="1" fill-rule="nonzero"/><path fill="#97ffd9" d="M 134.21875 155.980469 C 133.589844 155.988281 133.105469 155.511719 133.105469 154.886719 C 133.101562 154.210938 133.699219 153.636719 134.402344 153.636719 C 135.058594 153.632812 135.585938 154.125 135.597656 154.746094 C 135.609375 155.417969 134.988281 155.972656 134.21875 155.980469 " fill-opacity="1" fill-rule="nonzero"/><path fill="#97ffd9" d="M 74.246094 77.1875 C 74.28125 76.480469 74.875 75.945312 75.570312 75.996094 C 76.1875 76.039062 76.65625 76.566406 76.621094 77.164062 C 76.578125 77.796875 75.898438 78.398438 75.253906 78.371094 C 74.644531 78.347656 74.214844 77.84375 74.246094 77.1875 " fill-opacity="1" fill-rule="nonzero"/><path fill="#97ffd9" d="M 37.335938 97.859375 C 37.957031 97.859375 38.453125 98.347656 38.460938 98.960938 C 38.46875 99.628906 37.84375 100.269531 37.199219 100.257812 C 36.597656 100.25 36.113281 99.738281 36.117188 99.113281 C 36.125 98.433594 36.679688 97.859375 37.335938 97.859375 " fill-opacity="1" fill-rule="nonzero"/><g clip-path="url(#1ecfc93f23)"><path fill="#97ffd9" d="M 29.433594 134.855469 C 28.71875 134.824219 28.183594 134.269531 28.230469 133.613281 C 28.269531 132.984375 28.808594 132.527344 29.46875 132.5625 C 30.148438 132.597656 30.648438 133.160156 30.621094 133.855469 C 30.597656 134.472656 30.109375 134.882812 29.433594 134.855469 " fill-opacity="1" fill-rule="nonzero"/></g><path fill="#97ffd9" d="M 141.523438 135.832031 C 141.539062 136.464844 141.023438 137 140.390625 137 C 139.789062 137 139.277344 136.488281 139.28125 135.878906 C 139.28125 135.269531 139.773438 134.769531 140.382812 134.757812 C 141.011719 134.742188 141.511719 135.214844 141.523438 135.832031 " fill-opacity="1" fill-rule="nonzero"/><path fill="#fda09e" d="M 79.507812 137.65625 C 77.945312 137.621094 76.242188 137.554688 74.546875 137.394531 C 74.363281 137.375 74.175781 137.34375 74 137.289062 C 73.644531 137.183594 73.4375 136.945312 73.414062 136.566406 C 73.375 135.941406 73.390625 135.316406 73.4375 134.695312 C 73.453125 134.480469 73.527344 134.277344 73.765625 134.214844 C 74.015625 134.152344 74.164062 134.289062 74.230469 134.515625 C 74.300781 134.765625 74.503906 134.722656 74.683594 134.742188 C 75.613281 134.835938 76.546875 134.855469 77.484375 134.863281 C 79.6875 134.878906 81.886719 134.921875 84.089844 134.765625 C 84.210938 134.757812 84.339844 134.761719 84.460938 134.753906 C 84.707031 134.730469 84.796875 134.84375 84.78125 135.082031 C 84.730469 135.871094 84.671875 136.65625 84.632812 137.449219 C 84.617188 137.746094 84.46875 137.847656 84.195312 137.835938 C 83.945312 137.828125 83.695312 137.835938 83.449219 137.824219 C 82.179688 137.773438 80.914062 137.714844 79.507812 137.65625 " fill-opacity="1" fill-rule="nonzero"/><path fill="#fda09e" d="M 98.628906 134.511719 C 98.746094 134.765625 98.738281 135.03125 98.648438 135.210938 C 98.332031 135.878906 98.421875 136.597656 98.335938 137.292969 C 98.265625 137.871094 98.28125 137.886719 97.71875 137.90625 C 97.28125 137.921875 96.84375 137.925781 96.40625 137.894531 C 94.226562 137.746094 92.042969 137.78125 89.859375 137.730469 C 89.402344 137.71875 88.945312 137.660156 88.488281 137.640625 C 88.179688 137.628906 88.035156 137.53125 88.082031 137.1875 C 88.179688 136.421875 88.195312 135.652344 88.210938 134.878906 C 88.214844 134.53125 88.386719 134.433594 88.617188 134.664062 C 88.796875 134.835938 88.929688 134.894531 89.144531 134.78125 C 89.175781 134.765625 89.238281 134.765625 89.261719 134.785156 C 89.683594 135.125 90.140625 134.894531 90.578125 134.878906 C 91.558594 134.84375 92.539062 134.828125 93.511719 134.902344 C 95.238281 135.035156 96.957031 135.101562 98.628906 134.511719 " fill-opacity="1" fill-rule="nonzero"/><path fill="#fda09e" d="M 102.40625 134.757812 C 102.445312 134.765625 102.515625 134.769531 102.515625 134.789062 C 102.644531 135.335938 103.054688 135.292969 103.476562 135.273438 C 105.800781 135.167969 108.128906 135.265625 110.457031 135.222656 C 110.953125 135.214844 111.445312 135.113281 112.023438 135.207031 C 111.796875 136.03125 111.789062 136.859375 111.738281 137.679688 C 111.722656 137.9375 111.597656 138.050781 111.34375 138.046875 C 110.988281 138.042969 110.636719 138.0625 110.28125 138.046875 C 107.832031 137.957031 105.378906 138.007812 102.925781 137.964844 C 102.863281 137.964844 102.800781 137.964844 102.738281 137.960938 C 101.964844 137.941406 101.976562 137.945312 102.074219 137.199219 C 102.171875 136.480469 102.238281 135.753906 102.320312 135.03125 C 102.332031 134.933594 102.289062 134.820312 102.40625 134.757812 " fill-opacity="1" fill-rule="nonzero"/><path fill="#122e35" d="M 63.75 123.777344 C 65.128906 122.621094 66.839844 122.613281 68.476562 122.511719 C 75.042969 122.101562 81.617188 122.097656 88.191406 122.324219 C 90.914062 122.421875 93.636719 122.554688 96.355469 122.761719 C 99.445312 122.992188 102.523438 123.316406 105.601562 123.691406 C 109.214844 124.128906 112.816406 124.632812 116.421875 125.132812 C 118.050781 125.355469 119.671875 125.621094 121.296875 125.867188 C 121.359375 125.875 121.421875 125.882812 121.480469 125.898438 C 122.304688 126.078125 122.582031 126.433594 122.472656 127.269531 C 122.339844 128.308594 122.070312 129.3125 121.566406 130.242188 C 121.304688 130.71875 121.011719 131.171875 120.707031 131.617188 C 120.066406 132.542969 119.285156 133.359375 118.671875 134.308594 C 118.070312 135.238281 117.105469 135.496094 116.085938 135.59375 C 113.121094 135.878906 110.148438 135.957031 107.171875 135.789062 C 103.683594 135.59375 100.195312 135.375 96.703125 135.265625 C 90.421875 135.066406 84.136719 135.046875 77.855469 134.902344 C 75.398438 134.84375 72.941406 134.902344 70.496094 135.128906 C 68.964844 135.273438 67.789062 134.667969 66.742188 133.675781 C 66.101562 133.0625 65.671875 132.296875 65.308594 131.496094 C 64.667969 130.089844 64.117188 128.652344 63.695312 127.167969 C 63.585938 126.785156 63.507812 126.398438 63.277344 126.0625 C 63.230469 125.996094 63.191406 125.910156 63.191406 125.832031 C 63.191406 125.074219 62.972656 124.351562 62.859375 123.613281 C 62.820312 123.355469 62.894531 123.144531 63.183594 123.105469 C 63.4375 123.070312 63.632812 123.167969 63.671875 123.457031 C 63.6875 123.554688 63.652344 123.660156 63.75 123.777344 " fill-opacity="1" fill-rule="nonzero"/><path fill="#122e35" d="M 63.75 123.777344 C 65.128906 122.621094 66.839844 122.613281 68.476562 122.511719 C 75.042969 122.101562 81.617188 122.097656 88.191406 122.324219 C 90.914062 122.421875 93.636719 122.554688 96.355469 122.761719 C 99.445312 122.992188 102.523438 123.316406 105.601562 123.691406 C 109.214844 124.128906 112.816406 124.632812 116.421875 125.132812 C 118.050781 125.355469 119.671875 125.621094 121.296875 125.867188 C 121.359375 125.875 121.421875 125.882812 121.480469 125.898438 C 122.304688 126.078125 122.582031 126.433594 122.472656 127.269531 C 122.339844 128.308594 122.070312 129.3125 121.566406 130.242188 C 121.304688 130.71875 121.011719 131.171875 120.707031 131.617188 C 120.066406 132.542969 119.285156 133.359375 118.671875 134.308594 C 118.070312 135.238281 117.105469 135.496094 116.085938 135.59375 C 113.121094 135.878906 110.148438 135.957031 107.171875 135.789062 C 103.683594 135.59375 100.195312 135.375 96.703125 135.265625 C 90.421875 135.066406 84.136719 135.046875 77.855469 134.902344 C 75.398438 134.84375 72.941406 134.902344 70.496094 135.128906 C 68.964844 135.273438 67.789062 134.667969 66.742188 133.675781 C 66.101562 133.0625 65.671875 132.296875 65.308594 131.496094 C 64.667969 130.089844 64.117188 128.652344 63.695312 127.167969 C 63.585938 126.785156 63.507812 126.398438 63.277344 126.0625 C 63.230469 125.996094 63.191406 125.910156 63.191406 125.832031 C 63.191406 125.074219 62.972656 124.351562 62.859375 123.613281 C 62.820312 123.355469 62.894531 123.144531 63.183594 123.105469 C 63.4375 123.070312 63.632812 123.167969 63.671875 123.457031 C 63.6875 123.554688 63.652344 123.660156 63.75 123.777344 " fill-opacity="1" fill-rule="nonzero"/><path fill="#37cf9e" d="M 122.289062 126.292969 C 122.136719 127.144531 121.878906 127.96875 121.460938 128.742188 C 121.203125 129.21875 120.910156 129.671875 120.601562 130.117188 C 119.964844 131.042969 119.183594 131.859375 118.570312 132.808594 C 117.964844 133.738281 117 133.996094 115.984375 134.09375 C 113.015625 134.378906 110.042969 134.457031 107.070312 134.289062 C 103.578125 134.09375 100.09375 133.875 96.597656 133.765625 C 90.316406 133.566406 84.03125 133.546875 77.75 133.402344 C 75.296875 133.34375 72.839844 133.40625 70.394531 133.632812 C 68.859375 133.773438 67.6875 133.171875 66.640625 132.175781 C 65.996094 131.5625 65.566406 130.796875 65.203125 129.996094 C 64.566406 128.589844 64.011719 127.152344 63.589844 125.667969 C 63.484375 125.289062 63.40625 124.898438 63.175781 124.5625 C 63.128906 124.496094 63.085938 124.410156 63.085938 124.332031 C 63.089844 123.949219 63.03125 123.574219 62.960938 123.199219 C 62.859375 123.292969 62.832031 123.441406 62.859375 123.613281 C 62.972656 124.351562 63.191406 125.074219 63.191406 125.832031 C 63.191406 125.910156 63.230469 125.996094 63.277344 126.0625 C 63.507812 126.398438 63.585938 126.785156 63.695312 127.167969 C 64.117188 128.652344 64.667969 130.089844 65.308594 131.496094 C 65.671875 132.296875 66.101562 133.0625 66.742188 133.675781 C 67.789062 134.667969 68.964844 135.273438 70.496094 135.128906 C 72.941406 134.902344 75.398438 134.84375 77.855469 134.902344 C 84.136719 135.046875 90.421875 135.066406 96.703125 135.265625 C 100.195312 135.375 103.683594 135.59375 107.171875 135.789062 C 110.148438 135.957031 113.121094 135.878906 116.085938 135.59375 C 117.105469 135.496094 118.070312 135.238281 118.671875 134.308594 C 119.285156 133.359375 120.066406 132.542969 120.707031 131.617188 C 121.011719 131.171875 121.304688 130.71875 121.566406 130.242188 C 122.070312 129.3125 122.339844 128.308594 122.472656 127.269531 C 122.53125 126.820312 122.476562 126.511719 122.289062 126.292969 " fill-opacity="1" fill-rule="nonzero"/><g clip-path="url(#38bf7ddc9e)"><path fill="#37cf9e" d="M 158.996094 119.65625 C 158.921875 119.304688 158.609375 119.175781 158.347656 119.023438 C 157.125 118.304688 155.867188 117.664062 154.566406 117.101562 C 149.933594 115.109375 145.0625 113.945312 140.136719 112.980469 C 137.175781 112.398438 134.1875 112 131.195312 111.632812 C 128.714844 111.332031 126.234375 111.0625 123.746094 110.855469 C 121.171875 110.636719 118.601562 110.453125 116.023438 110.308594 C 112.410156 110.101562 108.792969 109.902344 105.171875 109.851562 C 99.09375 109.773438 93.019531 109.894531 86.941406 110.015625 C 81.179688 110.128906 75.410156 109.914062 69.648438 110.222656 C 66.59375 110.386719 63.539062 110.535156 60.5 110.882812 C 56.09375 111.390625 51.726562 112.132812 47.429688 113.230469 C 43.132812 114.328125 38.90625 115.648438 34.855469 117.476562 C 33.8125 117.945312 32.773438 118.425781 31.804688 119.046875 C 31.5625 119.203125 31.316406 119.363281 31.195312 119.652344 C 31.089844 119.917969 31.320312 120.070312 31.390625 120.277344 C 31.398438 120.296875 31.402344 120.320312 31.402344 120.339844 C 31.421875 120.972656 31.859375 121.289062 32.339844 121.566406 C 32.867188 121.867188 33.4375 122.074219 34.023438 122.21875 C 38.257812 123.277344 42.480469 124.371094 46.832031 124.898438 C 50.097656 125.292969 53.367188 125.609375 56.652344 125.769531 C 58.308594 125.847656 59.960938 126.027344 61.617188 126.1875 C 62.246094 126.109375 62.851562 126.136719 63.492188 126.238281 C 63.757812 126.28125 64.003906 126.34375 64.257812 126.433594 C 64.394531 126.480469 64.515625 126.507812 64.636719 126.53125 C 64.660156 126.523438 64.691406 126.519531 64.722656 126.523438 C 64.847656 126.53125 64.972656 126.554688 65.09375 126.566406 C 67.183594 126.785156 69.273438 127.003906 71.371094 127.148438 C 73.074219 127.265625 74.785156 127.210938 76.488281 127.34375 C 78.269531 127.484375 80.058594 127.566406 81.847656 127.578125 C 90.007812 127.632812 98.167969 127.578125 105.945312 127.894531 C 108.757812 127.894531 111.191406 127.914062 113.625 127.890625 C 121.011719 127.816406 128.402344 128.023438 135.78125 127.5 C 137.960938 127.34375 140.140625 127.175781 142.308594 126.917969 C 145.058594 126.589844 147.769531 126.027344 150.476562 125.472656 C 152.539062 125.054688 154.5625 124.503906 156.476562 123.601562 C 157.542969 123.097656 158.339844 122.320312 158.960938 121.308594 C 159.320312 120.71875 159.117188 120.207031 158.996094 119.65625 " fill-opacity="1" fill-rule="nonzero"/></g><path fill="#ffffff" d="M 73.019531 131.433594 C 73.019531 131.570312 73.019531 131.589844 73.019531 131.609375 C 73.011719 132.136719 72.773438 132.523438 72.414062 132.59375 C 72.066406 132.664062 71.671875 132.386719 71.464844 131.921875 C 71.398438 131.769531 71.34375 131.609375 71.316406 131.445312 C 71.167969 130.585938 71.027344 129.71875 70.882812 128.855469 C 70.835938 128.585938 70.832031 128.316406 70.933594 128.058594 C 71.0625 127.730469 71.386719 127.503906 71.710938 127.527344 C 72.046875 127.550781 72.300781 127.71875 72.433594 128.039062 C 72.449219 128.078125 72.472656 128.117188 72.476562 128.15625 C 72.664062 129.285156 72.851562 130.414062 73.019531 131.433594 " fill-opacity="1" fill-rule="nonzero"/><path fill="#ffffff" d="M 107.96875 132.292969 C 108.019531 131.503906 108.164062 130.722656 108.292969 129.941406 C 108.3125 129.839844 108.339844 129.738281 108.371094 129.640625 C 108.53125 129.140625 108.910156 128.882812 109.34375 128.96875 C 109.777344 129.058594 110.0625 129.441406 109.992188 129.964844 C 109.855469 130.933594 109.679688 131.894531 109.59375 132.871094 C 109.585938 132.992188 109.535156 133.117188 109.480469 133.226562 C 109.34375 133.503906 109.136719 133.703125 108.808594 133.707031 C 108.488281 133.710938 108.265625 133.535156 108.109375 133.265625 C 107.929688 132.960938 107.945312 132.628906 107.96875 132.292969 " fill-opacity="1" fill-rule="nonzero"/><path fill="#ffffff" d="M 89.964844 131.039062 C 90.019531 130.503906 90.058594 129.964844 90.125 129.425781 C 90.195312 128.882812 90.503906 128.585938 90.953125 128.589844 C 91.425781 128.59375 91.757812 128.949219 91.777344 129.5 C 91.785156 129.769531 91.765625 130.042969 91.734375 130.308594 C 91.667969 130.828125 91.628906 131.34375 91.632812 131.863281 C 91.632812 132.117188 91.613281 132.363281 91.515625 132.597656 C 91.265625 133.199219 90.644531 133.285156 90.226562 132.785156 C 90.03125 132.550781 89.960938 132.265625 89.941406 131.972656 C 89.921875 131.664062 89.9375 131.351562 89.9375 131.039062 C 89.949219 131.039062 89.957031 131.039062 89.964844 131.039062 " fill-opacity="1" fill-rule="nonzero"/><path fill="#ffffff" d="M 113.945312 132.671875 C 113.976562 132.546875 114.023438 132.324219 114.085938 132.105469 C 114.261719 131.488281 114.417969 130.863281 114.515625 130.226562 C 114.539062 130.082031 114.566406 129.941406 114.609375 129.800781 C 114.746094 129.382812 115.042969 129.167969 115.4375 129.1875 C 115.820312 129.207031 116.121094 129.472656 116.203125 129.882812 C 116.230469 130.003906 116.242188 130.132812 116.222656 130.253906 C 116.089844 131.074219 115.941406 131.890625 115.660156 132.671875 C 115.558594 132.953125 115.402344 133.195312 115.171875 133.386719 C 114.917969 133.597656 114.632812 133.699219 114.308594 133.566406 C 114.050781 133.464844 113.925781 133.171875 113.945312 132.671875 " fill-opacity="1" fill-rule="nonzero"/><path fill="#ffffff" d="M 77.492188 131.003906 C 77.574219 130.300781 77.65625 129.597656 77.742188 128.898438 C 77.765625 128.6875 77.808594 128.484375 77.953125 128.320312 C 78.160156 128.085938 78.417969 127.964844 78.730469 128.035156 C 79.066406 128.113281 79.277344 128.332031 79.371094 128.65625 C 79.445312 128.921875 79.40625 129.195312 79.375 129.464844 C 79.304688 130.105469 79.230469 130.746094 79.164062 131.386719 C 79.140625 131.617188 79.101562 131.84375 78.992188 132.046875 C 78.683594 132.621094 78.050781 132.644531 77.695312 132.097656 C 77.476562 131.761719 77.492188 131.382812 77.492188 131.003906 " fill-opacity="1" fill-rule="nonzero"/><path fill="#ffffff" d="M 102.027344 132.265625 C 102.15625 131.472656 102.351562 130.601562 102.640625 129.753906 C 102.800781 129.289062 103.214844 129.105469 103.636719 129.21875 C 104.0625 129.335938 104.308594 129.746094 104.207031 130.253906 C 104.042969 131.050781 103.851562 131.835938 103.660156 132.625 C 103.515625 133.222656 103.164062 133.535156 102.75 133.464844 C 102.320312 133.390625 102.019531 132.929688 102.027344 132.265625 " fill-opacity="1" fill-rule="nonzero"/><path fill="#ffffff" d="M 84.113281 130.257812 C 84.148438 129.851562 84.132812 129.410156 84.242188 128.984375 C 84.382812 128.429688 84.738281 128.152344 85.207031 128.222656 C 85.667969 128.289062 85.949219 128.667969 85.886719 129.246094 C 85.804688 130.011719 85.761719 130.773438 85.851562 131.546875 C 85.90625 132.003906 85.664062 132.328125 85.316406 132.433594 C 84.988281 132.53125 84.601562 132.351562 84.371094 131.988281 C 84.246094 131.792969 84.167969 131.578125 84.148438 131.34375 C 84.136719 131.21875 84.117188 131.097656 84.117188 130.972656 C 84.109375 130.742188 84.113281 130.515625 84.113281 130.257812 " fill-opacity="1" fill-rule="nonzero"/><path fill="#ffffff" d="M 97.117188 131.023438 C 97.117188 131.355469 97.117188 131.6875 97.121094 132.019531 C 97.121094 132.230469 97.117188 132.433594 97.039062 132.632812 C 96.816406 133.195312 96.222656 133.324219 95.789062 132.898438 C 95.535156 132.652344 95.445312 132.332031 95.421875 132 C 95.371094 131.335938 95.386719 130.671875 95.4375 130.007812 C 95.4375 129.964844 95.449219 129.925781 95.457031 129.886719 C 95.570312 129.304688 95.953125 128.960938 96.414062 129.023438 C 96.867188 129.085938 97.136719 129.453125 97.128906 130.03125 C 97.125 130.363281 97.101562 130.695312 97.085938 131.023438 C 97.097656 131.023438 97.109375 131.023438 97.117188 131.023438 " fill-opacity="1" fill-rule="nonzero"/><g clip-path="url(#adce35b9aa)"><path fill="#3f8182" d="M 159.007812 120.050781 C 158.777344 119.871094 158.625 120.117188 158.46875 120.21875 C 157.558594 120.808594 156.648438 121.40625 155.601562 121.722656 C 153.96875 122.21875 152.335938 122.726562 150.640625 122.980469 C 147.289062 123.492188 143.925781 123.921875 140.542969 124.191406 C 136.199219 124.542969 131.859375 124.6875 127.507812 124.40625 C 123.519531 124.152344 119.527344 124.027344 115.527344 124.082031 C 110.847656 124.152344 106.164062 124.082031 101.480469 124.023438 C 95.734375 123.949219 89.992188 123.804688 84.25 123.828125 C 78.378906 123.851562 72.511719 123.746094 66.648438 123.457031 C 61.386719 123.203125 56.144531 122.6875 50.894531 122.292969 C 49.441406 122.183594 48 121.910156 46.542969 121.9375 C 44.390625 121.984375 42.257812 121.789062 40.136719 121.476562 C 38.328125 121.210938 36.515625 120.964844 34.757812 120.421875 C 33.726562 120.101562 32.675781 119.84375 31.648438 119.507812 C 31.511719 119.464844 31.367188 119.398438 31.253906 119.554688 C 31.15625 119.683594 31.15625 119.824219 31.210938 119.96875 C 31.265625 120.101562 31.398438 120.191406 31.40625 120.351562 C 31.421875 120.957031 31.835938 121.273438 32.296875 121.539062 C 32.859375 121.867188 33.472656 122.066406 34.09375 122.238281 C 37.101562 123.074219 40.160156 123.695312 43.203125 124.375 C 44.507812 124.664062 45.839844 124.742188 47.15625 124.933594 C 48.804688 125.167969 50.457031 125.367188 52.117188 125.484375 C 54.667969 125.667969 57.222656 125.824219 59.777344 126.007812 C 60.414062 126.050781 61.050781 126.128906 61.6875 126.179688 C 62.304688 126.230469 65.6875 126.632812 66.125 126.679688 C 66.488281 126.71875 66.851562 126.757812 67.214844 126.792969 C 68.671875 126.945312 70.125 127.074219 71.585938 127.160156 C 72.71875 127.226562 73.851562 127.265625 74.984375 127.265625 C 75.277344 127.265625 75.566406 127.289062 75.859375 127.308594 C 77.871094 127.445312 79.890625 127.5625 81.90625 127.578125 C 90.046875 127.632812 98.183594 127.578125 106.316406 127.886719 C 109.730469 127.933594 113.144531 127.890625 116.558594 127.875 C 122.96875 127.847656 129.378906 127.953125 135.777344 127.5 C 137.957031 127.34375 140.136719 127.175781 142.304688 126.917969 C 145.054688 126.589844 147.765625 126.03125 150.472656 125.476562 C 152.515625 125.058594 154.519531 124.511719 156.417969 123.632812 C 157.113281 123.308594 157.707031 122.867188 158.226562 122.324219 C 158.648438 121.878906 158.957031 121.359375 159.171875 120.789062 C 159.277344 120.519531 159.253906 120.238281 159.007812 120.050781 " fill-opacity="1" fill-rule="nonzero"/></g><path fill="#ffffff" d="M 42.460938 120.578125 C 41.378906 120.578125 40.296875 120.570312 39.214844 120.582031 C 38.796875 120.585938 38.382812 120.546875 37.980469 120.449219 C 37.652344 120.371094 37.34375 120.230469 37.300781 119.820312 C 37.25 119.332031 37.378906 119.082031 37.851562 118.890625 C 39.128906 118.371094 40.457031 118.03125 41.8125 117.808594 C 43.683594 117.503906 45.5625 117.292969 47.460938 117.351562 C 48.109375 117.371094 48.75 117.449219 49.375 117.617188 C 49.875 117.753906 50.324219 117.976562 50.40625 118.566406 C 50.46875 119 50.101562 119.464844 49.5 119.707031 C 48.742188 120.015625 47.933594 120.132812 47.128906 120.21875 C 45.578125 120.386719 44.019531 120.476562 42.460938 120.578125 " fill-opacity="1" fill-rule="nonzero"/><path fill="#ffffff" d="M 61.53125 117.625 C 62.902344 117.605469 64.101562 117.675781 65.296875 117.84375 C 65.378906 117.851562 65.464844 117.855469 65.546875 117.875 C 65.859375 117.949219 66.15625 118.066406 66.238281 118.421875 C 66.316406 118.746094 66.128906 118.984375 65.90625 119.179688 C 65.363281 119.65625 64.710938 119.929688 64.027344 120.121094 C 62.390625 120.578125 60.71875 120.703125 59.027344 120.558594 C 58.117188 120.484375 57.21875 120.308594 56.324219 120.113281 C 55.9375 120.027344 55.554688 119.929688 55.214844 119.722656 C 54.738281 119.433594 54.683594 119.078125 54.996094 118.628906 C 55.253906 118.257812 55.613281 118.078125 56.042969 118.035156 C 57.09375 117.929688 58.148438 117.824219 59.207031 117.746094 C 60.035156 117.683594 60.863281 117.660156 61.53125 117.625 " fill-opacity="1" fill-rule="nonzero"/><path fill="#ffffff" d="M 74.824219 120.191406 C 73.996094 120.097656 73.195312 119.941406 72.453125 119.726562 C 72.035156 119.605469 71.589844 119.433594 71.367188 119.058594 C 70.519531 117.632812 73.820312 117.675781 74.476562 117.640625 C 75.671875 117.574219 76.863281 117.523438 78.058594 117.492188 C 79.128906 117.464844 80.292969 117.316406 81.332031 117.644531 C 81.570312 117.722656 81.800781 117.816406 82.011719 117.949219 C 82.285156 118.125 82.515625 118.34375 82.496094 118.695312 C 82.480469 119.050781 82.234375 119.253906 81.929688 119.375 C 79.84375 120.21875 77.222656 120.460938 74.824219 120.191406 " fill-opacity="1" fill-rule="nonzero"/><path fill="#ffffff" d="M 137.339844 117.929688 C 138.734375 117.875 140.125 117.875 141.488281 118.230469 C 141.871094 118.328125 142.246094 118.449219 142.597656 118.636719 C 142.824219 118.757812 143.019531 118.910156 143 119.210938 C 142.976562 119.5 142.777344 119.636719 142.539062 119.746094 C 142.175781 119.90625 141.789062 119.992188 141.402344 120.066406 C 138.765625 120.570312 136.121094 120.644531 133.480469 120.105469 C 133.21875 120.050781 132.964844 119.945312 132.703125 119.886719 C 132.136719 119.761719 132.003906 119.277344 131.839844 118.839844 C 131.746094 118.578125 131.957031 118.417969 132.195312 118.34375 C 132.671875 118.191406 133.171875 118.15625 133.667969 118.105469 C 134.890625 117.984375 136.117188 117.988281 137.339844 117.929688 " fill-opacity="1" fill-rule="nonzero"/><path fill="#ffffff" d="M 91.769531 119.789062 C 90.578125 119.742188 89.390625 119.574219 88.265625 119.347656 C 88.003906 119.292969 87.742188 119.222656 87.484375 119.136719 C 87.195312 119.035156 86.964844 118.839844 86.953125 118.507812 C 86.925781 117.457031 90.230469 117.226562 90.992188 117.128906 C 92.089844 116.992188 97.285156 116.296875 97.40625 118.179688 C 97.4375 118.710938 97.007812 118.933594 96.597656 119.089844 C 95.085938 119.675781 93.421875 119.851562 91.769531 119.789062 " fill-opacity="1" fill-rule="nonzero"/><path fill="#ffffff" d="M 109.246094 117.222656 C 110.285156 117.21875 111.324219 117.140625 112.355469 117.355469 C 112.683594 117.421875 113.003906 117.511719 113.289062 117.691406 C 113.84375 118.042969 113.867188 118.5 113.335938 118.878906 C 112.90625 119.179688 112.421875 119.371094 111.90625 119.476562 C 110.921875 119.679688 109.929688 119.753906 108.929688 119.691406 C 107.746094 119.625 106.566406 119.515625 105.390625 119.363281 C 104.996094 119.3125 104.613281 119.214844 104.265625 119.015625 C 104.058594 118.898438 103.859375 118.75 103.898438 118.488281 C 103.941406 118.183594 104.011719 117.859375 104.355469 117.730469 C 104.507812 117.671875 104.675781 117.636719 104.839844 117.609375 C 106.300781 117.394531 107.769531 117.25 109.246094 117.222656 " fill-opacity="1" fill-rule="nonzero"/><path fill="#ffffff" d="M 122.152344 119.9375 C 121.492188 119.867188 120.738281 119.90625 120.003906 119.738281 C 119.617188 119.648438 119.234375 119.535156 118.910156 119.300781 C 118.542969 119.039062 118.53125 118.777344 118.769531 118.402344 C 119.035156 117.980469 119.40625 117.757812 119.886719 117.703125 C 121.601562 117.515625 123.320312 117.394531 125.042969 117.546875 C 125.890625 117.621094 126.734375 117.753906 127.578125 117.867188 C 127.824219 117.898438 128.070312 117.953125 128.289062 118.085938 C 128.71875 118.339844 128.722656 118.761719 128.296875 119.015625 C 128.175781 119.089844 128.03125 119.144531 127.890625 119.171875 C 126.648438 119.40625 125.425781 119.738281 124.164062 119.886719 C 123.519531 119.960938 122.878906 119.941406 122.152344 119.9375 " fill-opacity="1" fill-rule="nonzero"/><path fill="#ffffff" d="M 150.4375 120.503906 C 149.042969 120.609375 147.652344 120.617188 146.292969 120.222656 C 146.214844 120.199219 146.128906 120.195312 146.050781 120.164062 C 145.660156 120.023438 145.601562 119.777344 145.871094 119.464844 C 146.191406 119.09375 146.609375 118.933594 147.074219 118.871094 C 147.691406 118.789062 148.308594 118.695312 148.929688 118.652344 C 150.335938 118.554688 151.746094 118.433594 153.160156 118.46875 C 153.597656 118.476562 154.03125 118.523438 154.457031 118.625 C 154.679688 118.679688 154.902344 118.738281 155.089844 118.875 C 155.464844 119.148438 155.457031 119.621094 155.03125 119.753906 C 154.113281 120.042969 153.269531 120.59375 152.242188 120.511719 C 151.644531 120.464844 151.039062 120.503906 150.4375 120.503906 " fill-opacity="1" fill-rule="nonzero"/><path fill="#ffffff" d="M 116.777344 105.390625 C 117.257812 106.792969 115.671875 107.972656 114.566406 107.035156 C 110.398438 103.507812 104.351562 97.726562 106.832031 95.722656 C 111.3125 92.09375 114.925781 99.988281 116.777344 105.390625 " fill-opacity="1" fill-rule="nonzero"/><path fill="#26697a" d="M 76.46875 184.976562 C 76.226562 185.144531 76.023438 185.371094 75.746094 185.5 C 75.257812 185.734375 74.792969 185.597656 74.523438 185.125 C 74.34375 184.800781 74.378906 184.558594 74.667969 184.328125 C 74.957031 184.097656 75.265625 183.902344 75.628906 183.796875 C 75.761719 183.753906 75.929688 183.757812 75.890625 183.523438 C 75.867188 183.386719 76.027344 183.367188 76.121094 183.328125 C 77.144531 182.875 78.195312 182.488281 79.277344 182.191406 C 79.476562 182.136719 79.617188 182.039062 79.71875 181.863281 C 79.902344 181.558594 80.058594 181.238281 80.164062 180.898438 C 80.394531 180.179688 80.667969 179.480469 80.976562 178.792969 C 81.414062 177.820312 81.832031 176.835938 82.167969 175.824219 C 82.449219 174.980469 83.039062 174.457031 83.824219 174.125 C 84.167969 173.980469 84.472656 173.777344 84.789062 173.585938 C 84.898438 173.515625 84.925781 173.433594 84.863281 173.3125 C 84.632812 172.863281 84.421875 172.398438 84.175781 171.957031 C 83.992188 171.625 83.699219 171.410156 83.332031 171.277344 C 82.988281 171.152344 82.621094 171.113281 82.273438 170.976562 C 81.734375 170.761719 81.394531 170.371094 81.21875 169.847656 C 80.964844 169.097656 80.902344 168.320312 81.101562 167.542969 C 81.265625 166.910156 81.617188 166.398438 82.164062 166.035156 C 82.496094 165.816406 82.847656 165.632812 83.21875 165.488281 C 83.769531 165.273438 84.273438 165.332031 84.757812 165.703125 C 85.171875 166.019531 85.566406 166.355469 85.894531 166.761719 C 86.097656 167.011719 86.386719 167.144531 86.628906 167.34375 C 86.796875 167.484375 86.953125 167.613281 86.8125 167.855469 C 86.75 167.964844 86.828125 168.039062 86.871094 168.121094 C 86.96875 168.3125 86.917969 168.457031 86.757812 168.585938 C 86.628906 168.6875 86.5 168.792969 86.398438 168.917969 C 86.308594 169.03125 86.179688 169.1875 86.304688 169.316406 C 86.40625 169.421875 86.558594 169.332031 86.675781 169.253906 C 86.746094 169.207031 86.8125 169.15625 86.882812 169.121094 C 87.121094 168.996094 87.207031 169.03125 87.257812 169.285156 C 87.34375 169.683594 87.285156 170.050781 86.957031 170.328125 C 86.714844 170.535156 86.695312 170.539062 86.871094 170.878906 C 87.023438 171.171875 87.171875 171.460938 87.332031 171.75 C 87.460938 171.980469 87.46875 171.980469 87.703125 171.84375 C 87.953125 171.703125 88.207031 171.578125 88.4375 171.402344 C 88.640625 171.242188 88.882812 171.144531 89.128906 171.050781 C 89.507812 170.90625 89.875 170.933594 90.25 171.054688 C 91.332031 171.40625 92.441406 171.632812 93.570312 171.753906 C 94.03125 171.804688 94.492188 171.828125 94.960938 171.808594 C 95.214844 171.792969 95.398438 171.703125 95.542969 171.492188 C 95.847656 171.039062 96.167969 170.59375 96.476562 170.144531 C 96.609375 169.953125 96.742188 169.761719 96.917969 169.605469 C 97.175781 169.375 97.207031 169.375 97.527344 169.550781 C 97.640625 169.496094 97.675781 169.371094 97.746094 169.277344 C 97.949219 169.011719 98.1875 168.792969 98.5 168.664062 C 98.765625 168.550781 99.035156 168.515625 99.261719 168.730469 C 99.480469 168.9375 99.457031 169.203125 99.382812 169.460938 C 99.292969 169.769531 99.097656 170.015625 98.863281 170.234375 C 98.785156 170.308594 98.679688 170.355469 98.628906 170.476562 C 98.742188 170.585938 98.859375 170.695312 98.96875 170.800781 C 98.9375 170.929688 98.839844 170.988281 98.765625 171.070312 C 98.21875 171.664062 97.683594 172.265625 97.285156 172.976562 C 97.011719 173.457031 96.578125 173.710938 96.0625 173.878906 C 95.0625 174.203125 94.039062 174.300781 92.992188 174.28125 C 92.527344 174.273438 92.066406 174.285156 91.601562 174.289062 C 91.421875 174.289062 91.351562 174.363281 91.425781 174.546875 C 91.945312 175.855469 92.289062 177.226562 92.863281 178.519531 C 92.980469 178.78125 93.097656 179.042969 93.21875 179.304688 C 93.34375 179.574219 93.34375 179.570312 93.652344 179.492188 C 94.917969 179.179688 96.117188 178.683594 97.289062 178.128906 C 98.265625 177.667969 99.253906 177.226562 100.214844 176.742188 C 100.851562 176.421875 101.488281 176.535156 102.132812 176.648438 C 102.335938 176.683594 102.503906 176.820312 102.65625 176.960938 C 102.917969 177.199219 103.183594 177.4375 103.433594 177.6875 C 104.914062 179.171875 106.519531 180.507812 108.074219 181.910156 C 108.210938 182.035156 108.34375 182.0625 108.519531 182.023438 C 108.90625 181.925781 109.296875 181.886719 109.699219 181.933594 C 110.078125 181.980469 110.410156 182.125 110.65625 182.429688 C 110.902344 182.734375 110.980469 183.085938 110.90625 183.46875 C 110.871094 183.644531 110.785156 183.769531 110.609375 183.832031 C 109.851562 184.101562 109.121094 184.441406 108.347656 184.671875 C 108.28125 184.691406 108.214844 184.703125 108.148438 184.726562 C 107.769531 184.867188 107.441406 184.828125 107.152344 184.511719 C 106.984375 184.332031 106.773438 184.195312 106.585938 184.039062 C 106.472656 183.941406 106.367188 183.894531 106.21875 183.976562 C 105.949219 184.128906 105.738281 184.03125 105.527344 183.824219 C 104.417969 182.710938 103.226562 181.679688 102.246094 180.441406 C 102.140625 180.308594 102.046875 180.207031 101.84375 180.332031 C 100.871094 180.941406 99.820312 181.402344 98.765625 181.855469 C 98.683594 181.890625 98.574219 181.890625 98.527344 182.003906 C 98.5625 182.117188 98.671875 182.109375 98.753906 182.136719 C 99.394531 182.324219 100.03125 182.539062 100.691406 182.660156 C 101.648438 182.835938 102.378906 183.332031 102.863281 184.179688 C 102.921875 184.277344 102.992188 184.363281 103.035156 184.460938 C 103.6875 185.933594 104.722656 187.175781 105.511719 188.566406 C 105.746094 188.980469 105.984375 189.214844 106.503906 189.207031 C 107.066406 189.195312 107.519531 189.503906 107.796875 190.015625 C 108.027344 190.441406 108.027344 190.878906 107.785156 191.308594 C 107.667969 191.515625 107.5 191.621094 107.257812 191.636719 C 106.179688 191.695312 105.101562 191.683594 104.027344 191.550781 C 103.847656 191.527344 103.722656 191.453125 103.625 191.308594 C 103.308594 190.847656 102.964844 190.402344 102.675781 189.925781 C 101.933594 188.710938 101.1875 187.5 100.5 186.257812 C 100.164062 185.652344 99.714844 185.476562 99.066406 185.492188 C 97.550781 185.527344 96.039062 185.515625 94.523438 185.535156 C 93.511719 185.550781 92.503906 185.523438 91.496094 185.476562 C 90.5 185.429688 89.609375 184.730469 89.355469 183.757812 C 89.230469 183.28125 89.15625 182.789062 89.195312 182.292969 C 89.210938 182.097656 89.15625 181.964844 89.039062 181.8125 C 88.003906 180.46875 86.742188 179.363281 85.371094 178.378906 C 85.074219 178.164062 85.082031 178.171875 84.851562 178.480469 C 83.941406 179.6875 83.160156 180.96875 82.507812 182.332031 C 81.996094 183.390625 81.09375 183.960938 80.042969 184.359375 C 79.273438 184.648438 78.5 184.917969 77.710938 185.136719 C 77.460938 185.207031 77.207031 185.269531 76.980469 185.398438 C 76.832031 185.480469 76.726562 185.472656 76.664062 185.292969 C 76.625 185.179688 76.585938 185.0625 76.46875 184.976562 " fill-opacity="1" fill-rule="nonzero"/><g fill="#050505" fill-opacity="1"><g transform="translate(54.058077, 219.130662)"><g><path d="M 1.53125 -15.515625 L 0.953125 -17.265625 L 3.84375 -17.265625 C 4.601562 -17.265625 5.269531 -17.175781 5.84375 -17 C 6.414062 -16.820312 6.894531 -16.535156 7.28125 -16.140625 C 7.675781 -15.742188 7.96875 -15.210938 8.15625 -14.546875 C 8.34375 -13.878906 8.4375 -13.0625 8.4375 -12.09375 C 8.4375 -10.851562 8.285156 -9.867188 7.984375 -9.140625 C 7.679688 -8.421875 7.226562 -7.878906 6.625 -7.515625 L 8.4375 0 L 6.125 0 L 4.453125 -6.921875 L 3.84375 -6.921875 L 3.84375 0 L 1.53125 0 Z M 3.84375 -8.328125 C 4.269531 -8.335938 4.625 -8.445312 4.90625 -8.65625 C 5.195312 -8.875 5.421875 -9.15625 5.578125 -9.5 C 5.734375 -9.851562 5.84375 -10.253906 5.90625 -10.703125 C 5.976562 -11.148438 6.015625 -11.613281 6.015625 -12.09375 C 6.015625 -12.550781 5.976562 -13 5.90625 -13.4375 C 5.84375 -13.882812 5.734375 -14.285156 5.578125 -14.640625 C 5.421875 -14.992188 5.195312 -15.28125 4.90625 -15.5 C 4.625 -15.71875 4.269531 -15.828125 3.84375 -15.828125 Z M 3.84375 -8.328125 "/></g></g></g><g fill="#050505" fill-opacity="1"><g transform="translate(63.450484, 219.130662)"><g><path d="M 1.3125 -17.265625 L 6.484375 -17.265625 L 5.90625 -16.125 L 3.625 -16.125 L 3.625 -8.625 L 5.90625 -8.625 L 5.34375 -7.484375 L 3.625 -7.484375 L 3.625 -1.140625 L 6.484375 -1.140625 L 6.484375 0 L 1.3125 0 Z M 1.3125 -17.265625 "/></g></g></g><g fill="#050505" fill-opacity="1"><g transform="translate(70.649741, 219.130662)"><g><path d="M 3.90625 0 C 3.445312 0 3.035156 -0.0859375 2.671875 -0.265625 C 2.304688 -0.453125 1.988281 -0.664062 1.71875 -0.90625 C 1.457031 -1.144531 1.25 -1.378906 1.09375 -1.609375 C 0.9375 -1.835938 0.828125 -2.007812 0.765625 -2.125 L 1.765625 -2.9375 C 1.921875 -2.726562 2.128906 -2.507812 2.390625 -2.28125 C 2.660156 -2.0625 2.953125 -1.953125 3.265625 -1.953125 C 3.503906 -1.953125 3.710938 -2.003906 3.890625 -2.109375 C 4.066406 -2.222656 4.210938 -2.375 4.328125 -2.5625 C 4.441406 -2.757812 4.53125 -2.976562 4.59375 -3.21875 C 4.664062 -3.46875 4.703125 -3.722656 4.703125 -3.984375 C 4.703125 -4.109375 4.691406 -4.234375 4.671875 -4.359375 C 4.660156 -4.484375 4.640625 -4.613281 4.609375 -4.75 C 4.472656 -5.300781 4.242188 -5.835938 3.921875 -6.359375 C 3.609375 -6.890625 3.265625 -7.429688 2.890625 -7.984375 C 2.617188 -8.367188 2.347656 -8.765625 2.078125 -9.171875 C 1.816406 -9.578125 1.585938 -9.992188 1.390625 -10.421875 C 1.191406 -10.847656 1.03125 -11.289062 0.90625 -11.75 C 0.78125 -12.21875 0.71875 -12.703125 0.71875 -13.203125 C 0.6875 -13.804688 0.757812 -14.351562 0.9375 -14.84375 C 1.125 -15.34375 1.367188 -15.769531 1.671875 -16.125 C 1.984375 -16.488281 2.347656 -16.769531 2.765625 -16.96875 C 3.191406 -17.164062 3.632812 -17.265625 4.09375 -17.265625 C 4.800781 -17.265625 5.421875 -17.0625 5.953125 -16.65625 C 6.492188 -16.25 6.941406 -15.742188 7.296875 -15.140625 L 6.296875 -14.328125 C 6.117188 -14.566406 5.898438 -14.785156 5.640625 -14.984375 C 5.378906 -15.179688 5.101562 -15.28125 4.8125 -15.28125 C 4.320312 -15.28125 3.957031 -15.070312 3.71875 -14.65625 C 3.476562 -14.25 3.359375 -13.789062 3.359375 -13.28125 C 3.359375 -13.15625 3.363281 -13.023438 3.375 -12.890625 C 3.394531 -12.765625 3.421875 -12.640625 3.453125 -12.515625 C 3.578125 -11.960938 3.800781 -11.421875 4.125 -10.890625 C 4.445312 -10.367188 4.796875 -9.832031 5.171875 -9.28125 C 5.441406 -8.894531 5.707031 -8.5 5.96875 -8.09375 C 6.226562 -7.6875 6.457031 -7.269531 6.65625 -6.84375 C 6.863281 -6.414062 7.03125 -5.96875 7.15625 -5.5 C 7.28125 -5.039062 7.34375 -4.550781 7.34375 -4.03125 C 7.363281 -3.425781 7.285156 -2.875 7.109375 -2.375 C 6.929688 -1.882812 6.679688 -1.460938 6.359375 -1.109375 C 6.046875 -0.753906 5.675781 -0.476562 5.25 -0.28125 C 4.832031 -0.09375 4.382812 0 3.90625 0 Z M 3.90625 0 "/></g></g></g><g fill="#050505" fill-opacity="1"><g transform="translate(78.707186, 219.130662)"><g><path d="M 6.0625 0 C 4.976562 0 4.09375 -0.242188 3.40625 -0.734375 C 2.726562 -1.234375 2.1875 -1.882812 1.78125 -2.6875 C 1.375 -3.5 1.09375 -4.421875 0.9375 -5.453125 C 0.789062 -6.492188 0.71875 -7.550781 0.71875 -8.625 C 0.71875 -11.570312 1.148438 -13.742188 2.015625 -15.140625 C 2.878906 -16.535156 4.21875 -17.234375 6.03125 -17.234375 C 6.1875 -17.234375 6.359375 -17.222656 6.546875 -17.203125 C 6.742188 -17.191406 6.960938 -17.148438 7.203125 -17.078125 L 7.203125 -14.765625 C 7.023438 -15.203125 6.828125 -15.523438 6.609375 -15.734375 C 6.398438 -15.941406 6.1875 -16.046875 5.96875 -16.046875 C 5.675781 -16.046875 5.398438 -15.898438 5.140625 -15.609375 C 4.878906 -15.328125 4.660156 -14.914062 4.484375 -14.375 C 4.265625 -13.664062 4.097656 -12.804688 3.984375 -11.796875 C 3.867188 -10.785156 3.8125 -9.726562 3.8125 -8.625 C 3.8125 -7.550781 3.867188 -6.503906 3.984375 -5.484375 C 4.097656 -4.460938 4.265625 -3.597656 4.484375 -2.890625 C 4.640625 -2.421875 4.84375 -2.007812 5.09375 -1.65625 C 5.351562 -1.3125 5.664062 -1.140625 6.03125 -1.140625 C 6.1875 -1.140625 6.332031 -1.171875 6.46875 -1.234375 L 6.46875 -6.921875 L 8.78125 -7.484375 L 8.78125 -0.953125 C 8.40625 -0.617188 7.972656 -0.375 7.484375 -0.21875 C 7.003906 -0.0703125 6.53125 0 6.0625 0 Z M 6.0625 0 "/></g></g></g><g fill="#050505" fill-opacity="1"><g transform="translate(88.433333, 219.130662)"><g><path d="M 3.078125 -15.515625 L 2.796875 -17.265625 L 5.078125 -17.265625 L 7.96875 0 L 5.65625 0 L 5.171875 -2.890625 L 2.09375 -2.890625 L 1.625 0 L 0.484375 0 Z M 4.984375 -4.03125 L 3.640625 -12.09375 L 2.28125 -4.03125 Z M 4.984375 -4.03125 "/></g></g></g><g fill="#050505" fill-opacity="1"><g transform="translate(96.872196, 219.130662)"><g><path d="M 3.03125 -16.125 L 0.71875 -16.125 L 0.71875 -17.265625 L 7.625 -17.265625 L 7.625 -16.125 L 5.3125 -16.125 L 5.3125 0 L 3.03125 0 Z M 3.03125 -16.125 "/></g></g></g><g fill="#050505" fill-opacity="1"><g transform="translate(105.215705, 219.130662)"><g><path d="M 3.078125 -15.515625 L 2.796875 -17.265625 L 5.078125 -17.265625 L 7.96875 0 L 5.65625 0 L 5.171875 -2.890625 L 2.09375 -2.890625 L 1.625 0 L 0.484375 0 Z M 4.984375 -4.03125 L 3.640625 -12.09375 L 2.28125 -4.03125 Z M 4.984375 -4.03125 "/></g></g></g><g fill="#050505" fill-opacity="1"><g transform="translate(113.654568, 219.130662)"><g><path d="M 1.53125 -16.125 L 0.953125 -17.265625 L 3.84375 -17.265625 C 6.90625 -17.242188 8.4375 -14.363281 8.4375 -8.625 C 8.4375 -2.894531 6.90625 -0.0195312 3.84375 0 L 1.53125 0 Z M 3.84375 -1.40625 C 4.582031 -1.457031 5.140625 -2.046875 5.515625 -3.171875 C 5.890625 -4.296875 6.078125 -6.113281 6.078125 -8.625 C 6.078125 -11.144531 5.890625 -12.96875 5.515625 -14.09375 C 5.140625 -15.21875 4.582031 -15.796875 3.84375 -15.828125 Z M 3.84375 -1.40625 "/></g></g></g><g fill="#050505" fill-opacity="1"><g transform="translate(122.808589, 219.130662)"><g><path d="M 5.3125 0 C 4.28125 0 3.457031 -0.253906 2.84375 -0.765625 C 2.238281 -1.273438 1.773438 -1.9375 1.453125 -2.75 C 1.140625 -3.570312 0.9375 -4.5 0.84375 -5.53125 C 0.757812 -6.5625 0.71875 -7.59375 0.71875 -8.625 C 0.71875 -9.664062 0.757812 -10.695312 0.84375 -11.71875 C 0.9375 -12.738281 1.140625 -13.660156 1.453125 -14.484375 C 1.773438 -15.316406 2.238281 -15.988281 2.84375 -16.5 C 3.457031 -17.007812 4.28125 -17.265625 5.3125 -17.265625 C 6.34375 -17.265625 7.164062 -17.007812 7.78125 -16.5 C 8.394531 -15.988281 8.859375 -15.316406 9.171875 -14.484375 C 9.492188 -13.660156 9.695312 -12.738281 9.78125 -11.71875 C 9.875 -10.695312 9.921875 -9.664062 9.921875 -8.625 C 9.921875 -7.59375 9.875 -6.5625 9.78125 -5.53125 C 9.695312 -4.5 9.492188 -3.570312 9.171875 -2.75 C 8.859375 -1.9375 8.394531 -1.273438 7.78125 -0.765625 C 7.164062 -0.253906 6.34375 0 5.3125 0 Z M 5.3125 -1.140625 C 5.675781 -1.140625 5.992188 -1.351562 6.265625 -1.78125 C 6.535156 -2.21875 6.757812 -2.785156 6.9375 -3.484375 C 7.125 -4.179688 7.257812 -4.976562 7.34375 -5.875 C 7.4375 -6.769531 7.484375 -7.6875 7.484375 -8.625 C 7.484375 -9.5625 7.4375 -10.476562 7.34375 -11.375 C 7.257812 -12.28125 7.125 -13.082031 6.9375 -13.78125 C 6.757812 -14.476562 6.535156 -15.039062 6.265625 -15.46875 C 5.992188 -15.90625 5.675781 -16.125 5.3125 -16.125 C 4.945312 -16.125 4.628906 -15.90625 4.359375 -15.46875 C 4.085938 -15.039062 3.863281 -14.476562 3.6875 -13.78125 C 3.519531 -13.082031 3.382812 -12.28125 3.28125 -11.375 C 3.1875 -10.476562 3.140625 -9.5625 3.140625 -8.625 C 3.140625 -7.6875 3.1875 -6.769531 3.28125 -5.875 C 3.382812 -4.976562 3.519531 -4.179688 3.6875 -3.484375 C 3.863281 -2.785156 4.085938 -2.21875 4.359375 -1.78125 C 4.628906 -1.351562 4.945312 -1.140625 5.3125 -1.140625 Z M 5.3125 -1.140625 "/></g></g></g></svg>