<svg xmlns="http://www.w3.org/2000/svg" xmlns:xlink="http://www.w3.org/1999/xlink" width="250" zoomAndPan="magnify" viewBox="0 0 187.5 299.999988" height="400" preserveAspectRatio="xMidYMid meet" version="1.0"><defs><g/><clipPath id="5f1e2f3e2c"><path d="M 0 0.398438 L 187 0.398438 L 187 299.601562 L 0 299.601562 Z M 0 0.398438 " clip-rule="nonzero"/></clipPath><clipPath id="c9a131d092"><path d="M 32.84375 97.289062 L 157.34375 97.289062 L 157.34375 221.789062 L 32.84375 221.789062 Z M 32.84375 97.289062 " clip-rule="nonzero"/></clipPath><clipPath id="308ccffa06"><path d="M 95.09375 97.289062 C 60.710938 97.289062 32.84375 125.160156 32.84375 159.539062 C 32.84375 193.921875 60.710938 221.789062 95.09375 221.789062 C 129.472656 221.789062 157.34375 193.921875 157.34375 159.539062 C 157.34375 125.160156 129.472656 97.289062 95.09375 97.289062 " clip-rule="nonzero"/></clipPath><clipPath id="df8049d52a"><path d="M 35.40625 157 L 43 157 L 43 165 L 35.40625 165 Z M 35.40625 157 " clip-rule="nonzero"/></clipPath><clipPath id="a584220883"><path d="M 140 48.796875 L 145 48.796875 L 145 53 L 140 53 Z M 140 48.796875 " clip-rule="nonzero"/></clipPath><clipPath id="07f11eb75a"><path d="M 150 61 L 152.089844 61 L 152.089844 64 L 150 64 Z M 150 61 " clip-rule="nonzero"/></clipPath><clipPath id="c72c6cb468"><path d="M 90 248 L 93 248 L 93 249.609375 L 90 249.609375 Z M 90 248 " clip-rule="nonzero"/></clipPath><clipPath id="a6135a901f"><path d="M 50.726562 108.214844 L 139.226562 108.214844 L 139.226562 216.214844 L 50.726562 216.214844 Z M 50.726562 108.214844 " clip-rule="nonzero"/></clipPath><clipPath id="dc5493350f"><path d="M 60 114 L 141 114 L 141 161 L 60 161 Z M 60 114 " clip-rule="nonzero"/></clipPath><clipPath id="2a3d160a83"><path d="M 43.433594 126.433594 L 101.863281 84.363281 L 144.375 143.402344 L 85.941406 185.472656 Z M 43.433594 126.433594 " clip-rule="nonzero"/></clipPath><clipPath id="f33cbef686"><path d="M 105.78125 81.546875 L 39.4375 129.3125 L 81.945312 188.351562 L 148.289062 140.585938 Z M 105.78125 81.546875 " clip-rule="nonzero"/></clipPath><clipPath id="c3f64157bc"><path d="M 112.046875 90.289062 L 54.289062 131.875 L 90.675781 182.414062 L 148.433594 140.828125 Z M 112.046875 90.289062 " clip-rule="nonzero"/></clipPath><clipPath id="ad292f56e8"><path d="M 112.046875 90.289062 L 54.289062 131.875 L 90.503906 182.175781 L 148.261719 140.589844 Z M 112.046875 90.289062 " clip-rule="nonzero"/></clipPath><clipPath id="7cff97ed38"><path d="M 46 109 L 128 109 L 128 152 L 46 152 Z M 46 109 " clip-rule="nonzero"/></clipPath><clipPath id="0c20c0ee85"><path d="M 43.433594 126.433594 L 101.863281 84.363281 L 144.375 143.402344 L 85.941406 185.472656 Z M 43.433594 126.433594 " clip-rule="nonzero"/></clipPath><clipPath id="274d69abc5"><path d="M 105.78125 81.546875 L 39.4375 129.3125 L 81.945312 188.351562 L 148.289062 140.585938 Z M 105.78125 81.546875 " clip-rule="nonzero"/></clipPath><clipPath id="3bc628dbee"><path d="M 97.445312 87.546875 L 39.222656 129.464844 L 75.28125 179.546875 L 133.503906 137.625 Z M 97.445312 87.546875 " clip-rule="nonzero"/></clipPath><clipPath id="604077fa69"><path d="M 97.445312 87.546875 L 39.464844 129.292969 L 75.523438 179.371094 L 133.503906 137.625 Z M 97.445312 87.546875 " clip-rule="nonzero"/></clipPath></defs><g clip-path="url(#5f1e2f3e2c)"><path fill="#ffffff" d="M 0 0.398438 L 187.5 0.398438 L 187.5 307.148438 L 0 307.148438 Z M 0 0.398438 " fill-opacity="1" fill-rule="nonzero"/><path fill="#ffffff" d="M 0 0.398438 L 187.5 0.398438 L 187.5 300.398438 L 0 300.398438 Z M 0 0.398438 " fill-opacity="1" fill-rule="nonzero"/><path fill="#000000" d="M 0 0.398438 L 187.5 0.398438 L 187.5 300.398438 L 0 300.398438 Z M 0 0.398438 " fill-opacity="1" fill-rule="nonzero"/></g><g fill="#ffffff" fill-opacity="1"><g transform="translate(43.521389, 214.327012)"><g><path d="M -24.59375 -4.390625 L -10.484375 -13.859375 L -7.109375 -9.8125 L -14.21875 -4.40625 L -7.0625 -6.921875 L -5.828125 -5.3125 L -9.8125 0.0625 L -3.859375 -4.484375 L -0.5 -0.34375 L -13.296875 9.203125 L -17.078125 4.625 L -12.46875 -1.90625 L -20.8125 0.546875 Z M -24.59375 -4.390625 "/></g></g></g><g fill="#ffffff" fill-opacity="1"><g transform="translate(32.981475, 199.884418)"><g><path d="M -17.578125 1.515625 L -3.046875 -4.671875 L -0.5625 -0.484375 L -14.421875 6.796875 Z M -17.578125 1.515625 "/></g></g></g><g fill="#ffffff" fill-opacity="1"><g transform="translate(29.651486, 194.473704)"><g><path d="M -20.90625 -10.140625 L -5.8125 -14.359375 L -3.34375 -8.796875 L -10.265625 -3.0625 L -1.984375 -5.3125 L -0.328125 -0.375 L -15.96875 4.453125 L -18.09375 -0.9375 L -11.484375 -7.359375 L -18.984375 -5.015625 Z M -20.90625 -10.140625 "/></g></g></g><g fill="#ffffff" fill-opacity="1"><g transform="translate(24.623337, 179.604249)"><g><path d="M -1.671875 -14.203125 L -0.71875 -8.5 L -6.015625 -7.828125 L -5.703125 -5.1875 L -0.65625 -5.625 L -0.0625 -0.484375 L -16.234375 0.96875 L -16.625 -4.515625 L -8.34375 -5.140625 L -8.640625 -7.6875 L -17.515625 -6.65625 L -17.984375 -11.921875 Z M -1.671875 -14.203125 "/></g></g></g><g fill="#ffffff" fill-opacity="1"><g transform="translate(22.913749, 165.790697)"><g><path d="M 0.21875 -15.1875 L 0.5 -9.40625 L -2.140625 -8.9375 L -2.359375 -6.3125 L 0.1875 -5.515625 L -0.859375 0.3125 L -15.828125 -5.515625 L -15.640625 -11.953125 Z M -5.71875 -8.796875 L -9.796875 -8.234375 L -5.859375 -7.078125 Z M -5.71875 -8.796875 "/></g></g></g><g fill="#ffffff" fill-opacity="1"><g transform="translate(24.336086, 151.676536)"><g/></g></g><g fill="#ffffff" fill-opacity="1"><g transform="translate(24.569965, 147.691538)"><g><path d="M -9.15625 -23.25 L 6.296875 -16.21875 L 4.640625 -11.1875 L -3.703125 -14.421875 L 2.1875 -9.640625 L 1.46875 -7.734375 L -5.203125 -8.3125 L 1.78125 -5.640625 L 0.03125 -0.59375 L -14.796875 -6.5 L -12.890625 -12.125 L -4.921875 -11.609375 L -11.375 -17.4375 Z M -9.15625 -23.25 "/></g></g></g><g fill="#ffffff" fill-opacity="1"><g transform="translate(31.154724, 131.190998)"><g><path d="M -7.921875 -18.65625 C -7.335938 -18.226562 -6.753906 -17.804688 -6.171875 -17.390625 C -5.585938 -16.984375 -5.007812 -16.5625 -4.4375 -16.125 L -6.828125 -11.84375 L -5.671875 -10.96875 L -3.828125 -13.875 L -0.9375 -11.75 L -2.6875 -8.75 L -1.328125 -7.75 L 0.203125 -10.171875 L 1.296875 -11.890625 C 1.984375 -11.398438 2.664062 -10.910156 3.34375 -10.421875 C 4.03125 -9.929688 4.710938 -9.445312 5.390625 -8.96875 L 0.28125 -0.4375 L -13.609375 -9.640625 Z M -7.921875 -18.65625 "/></g></g></g><g fill="#ffffff" fill-opacity="1"><g transform="translate(36.497255, 122.135482)"><g><path d="M -1.015625 -23.203125 L 9.890625 -11.9375 L 6.15625 -7.125 L -2.171875 -10.484375 L 3.71875 -4.28125 L 0.171875 -0.46875 L -11.515625 -11.9375 L -7.78125 -16.359375 L 1.015625 -13.609375 L -4.59375 -19.09375 Z M -1.015625 -23.203125 "/></g></g></g><g fill="#ffffff" fill-opacity="1"><g transform="translate(47.296614, 110.68406)"><g><path d="M 0.71875 -20.875 L 3.5 -16.84375 L 0.765625 -14.71875 L 6.46875 -5.328125 L 2.65625 -2.265625 L -3.734375 -11.171875 L -6.421875 -8.984375 L -9.484375 -13.5 Z M 0.71875 -20.875 "/></g></g></g><g fill="#ffffff" fill-opacity="1"><g transform="translate(57.109705, 103.606897)"><g><path d="M 2.859375 -20.046875 C 3.128906 -19.378906 3.40625 -18.71875 3.6875 -18.0625 C 3.976562 -17.414062 4.257812 -16.753906 4.53125 -16.078125 L 0.265625 -13.671875 L 0.8125 -12.328125 L 3.875 -13.859375 L 5.265625 -10.53125 L 2.21875 -8.890625 L 2.859375 -7.3125 L 5.421875 -8.59375 L 7.25 -9.515625 C 7.582031 -8.742188 7.910156 -7.96875 8.234375 -7.1875 C 8.566406 -6.414062 8.90625 -5.648438 9.25 -4.890625 L 0.46875 -0.234375 L -6.671875 -15.28125 Z M 2.859375 -20.046875 "/></g></g></g><g fill="#ffffff" fill-opacity="1"><g transform="translate(66.854257, 98.897239)"><g/></g></g><g fill="#ffffff" fill-opacity="1"><g transform="translate(70.65121, 97.258112)"><g><path d="M 7.015625 -19 C 7.140625 -18.289062 7.269531 -17.585938 7.40625 -16.890625 C 7.550781 -16.191406 7.6875 -15.488281 7.8125 -14.78125 L 3.140625 -13.3125 L 3.375 -11.875 L 6.703125 -12.71875 L 7.359375 -9.1875 L 4.03125 -8.21875 L 4.34375 -6.546875 L 7.109375 -7.265625 L 9.09375 -7.78125 C 9.25 -6.945312 9.40625 -6.117188 9.5625 -5.296875 C 9.726562 -4.472656 9.898438 -3.65625 10.078125 -2.84375 L 0.5 -0.125 L -3.3125 -16.34375 Z M 6.296875 -22.453125 C 5.535156 -21.742188 4.796875 -21.03125 4.078125 -20.3125 C 3.367188 -19.59375 2.671875 -18.84375 1.984375 -18.0625 L 0.140625 -19.234375 C 0.253906 -19.460938 0.382812 -19.710938 0.53125 -19.984375 C 0.675781 -20.253906 0.835938 -20.535156 1.015625 -20.828125 C 1.191406 -21.128906 1.375 -21.425781 1.5625 -21.71875 C 1.757812 -22.019531 1.945312 -22.3125 2.125 -22.59375 C 2.570312 -23.25 3.035156 -23.914062 3.515625 -24.59375 Z M 6.296875 -22.453125 "/></g></g></g><g fill="#ffffff" fill-opacity="1"><g transform="translate(81.168813, 94.705121)"><g/></g></g><g fill="#ffffff" fill-opacity="1"><g transform="translate(85.144695, 93.802394)"><g><path d="M 13.453125 -9.5 C 13.484375 -8.414062 13.367188 -7.4375 13.109375 -6.5625 C 12.847656 -5.6875 12.476562 -4.90625 12 -4.21875 C 11.53125 -3.539062 10.957031 -2.953125 10.28125 -2.453125 C 9.601562 -1.953125 8.859375 -1.535156 8.046875 -1.203125 C 7.234375 -0.867188 6.367188 -0.613281 5.453125 -0.4375 C 4.546875 -0.269531 3.609375 -0.175781 2.640625 -0.15625 C 2.273438 -0.144531 1.914062 -0.144531 1.5625 -0.15625 C 1.21875 -0.175781 0.867188 -0.195312 0.515625 -0.21875 L 0.453125 -15.71875 C 1.304688 -16.007812 2.175781 -16.222656 3.0625 -16.359375 C 3.957031 -16.492188 4.847656 -16.570312 5.734375 -16.59375 C 6.835938 -16.625 7.851562 -16.484375 8.78125 -16.171875 C 9.71875 -15.859375 10.523438 -15.394531 11.203125 -14.78125 C 11.890625 -14.175781 12.425781 -13.425781 12.8125 -12.53125 C 13.207031 -11.644531 13.421875 -10.632812 13.453125 -9.5 Z M 8.734375 -8.65625 C 8.734375 -9.070312 8.675781 -9.46875 8.5625 -9.84375 C 8.457031 -10.226562 8.289062 -10.5625 8.0625 -10.84375 C 7.84375 -11.132812 7.5625 -11.367188 7.21875 -11.546875 C 6.875 -11.722656 6.46875 -11.816406 6 -11.828125 L 5.71875 -4.640625 C 6.175781 -4.722656 6.585938 -4.882812 6.953125 -5.125 C 7.328125 -5.375 7.644531 -5.671875 7.90625 -6.015625 C 8.175781 -6.367188 8.378906 -6.753906 8.515625 -7.171875 C 8.660156 -7.597656 8.734375 -8.035156 8.734375 -8.484375 Z M 8.734375 -8.65625 "/></g></g></g><g fill="#ffffff" fill-opacity="1"><g transform="translate(98.146478, 93.531471)"><g><path d="M 13.78125 -14.84375 C 13.625 -14.132812 13.476562 -13.425781 13.34375 -12.71875 C 13.21875 -12.019531 13.070312 -11.320312 12.90625 -10.625 L 8.03125 -11.078125 L 7.6875 -9.65625 L 11.09375 -9.171875 L 10.34375 -5.640625 L 6.890625 -6.03125 L 6.53125 -4.390625 L 9.359375 -3.984375 L 11.390625 -3.6875 C 11.222656 -2.851562 11.050781 -2.023438 10.875 -1.203125 C 10.707031 -0.378906 10.546875 0.441406 10.390625 1.265625 L 0.515625 0.078125 L 3.234375 -16.359375 Z M 13.78125 -14.84375 "/></g></g></g><g fill="#ffffff" fill-opacity="1"><g transform="translate(108.836128, 95.22539)"><g/></g></g><g fill="#ffffff" fill-opacity="1"><g transform="translate(112.837392, 95.849988)"><g><path d="M 16.828125 -2.0625 C 16.566406 -1.40625 16.238281 -0.804688 15.84375 -0.265625 C 15.445312 0.273438 15.003906 0.753906 14.515625 1.171875 C 14.023438 1.597656 13.488281 1.945312 12.90625 2.21875 C 12.320312 2.5 11.71875 2.695312 11.09375 2.8125 C 10.46875 2.925781 9.820312 2.945312 9.15625 2.875 C 8.488281 2.8125 7.820312 2.648438 7.15625 2.390625 C 6.507812 2.128906 5.929688 1.800781 5.421875 1.40625 C 4.910156 1.007812 4.457031 0.5625 4.0625 0.0625 C 3.675781 -0.425781 3.359375 -0.960938 3.109375 -1.546875 C 2.867188 -2.140625 2.707031 -2.75 2.625 -3.375 C 2.539062 -4 2.535156 -4.632812 2.609375 -5.28125 C 2.679688 -5.9375 2.847656 -6.582031 3.109375 -7.21875 C 3.347656 -7.832031 3.660156 -8.410156 4.046875 -8.953125 C 4.441406 -9.492188 4.882812 -9.972656 5.375 -10.390625 C 5.875 -10.804688 6.410156 -11.15625 6.984375 -11.4375 C 7.566406 -11.71875 8.171875 -11.921875 8.796875 -12.046875 C 9.421875 -12.171875 10.054688 -12.207031 10.703125 -12.15625 C 11.347656 -12.101562 11.992188 -11.945312 12.640625 -11.6875 C 13.671875 -11.269531 14.550781 -10.734375 15.28125 -10.078125 C 16.019531 -9.421875 16.570312 -8.664062 16.9375 -7.8125 C 17.300781 -6.96875 17.476562 -6.054688 17.46875 -5.078125 C 17.457031 -4.109375 17.242188 -3.101562 16.828125 -2.0625 Z M 11.953125 -3.6875 C 12.066406 -3.988281 12.140625 -4.300781 12.171875 -4.625 C 12.203125 -4.945312 12.175781 -5.253906 12.09375 -5.546875 C 12.007812 -5.847656 11.867188 -6.117188 11.671875 -6.359375 C 11.484375 -6.597656 11.222656 -6.785156 10.890625 -6.921875 C 10.554688 -7.054688 10.226562 -7.113281 9.90625 -7.09375 C 9.59375 -7.082031 9.300781 -7.007812 9.03125 -6.875 C 8.757812 -6.738281 8.515625 -6.546875 8.296875 -6.296875 C 8.085938 -6.054688 7.914062 -5.78125 7.78125 -5.46875 C 7.664062 -5.164062 7.59375 -4.847656 7.5625 -4.515625 C 7.53125 -4.179688 7.550781 -3.859375 7.625 -3.546875 C 7.695312 -3.234375 7.832031 -2.953125 8.03125 -2.703125 C 8.226562 -2.453125 8.492188 -2.257812 8.828125 -2.125 C 9.171875 -1.988281 9.5 -1.929688 9.8125 -1.953125 C 10.132812 -1.984375 10.429688 -2.078125 10.703125 -2.234375 C 10.972656 -2.390625 11.210938 -2.585938 11.421875 -2.828125 C 11.640625 -3.078125 11.816406 -3.363281 11.953125 -3.6875 Z M 11.953125 -3.6875 "/></g></g></g><g fill="#ffffff" fill-opacity="1"><g transform="translate(126.039264, 101.049443)"><g><path d="M 19.078125 -2.875 C 18.765625 -2.394531 18.398438 -1.882812 17.984375 -1.34375 C 17.578125 -0.800781 17.117188 -0.253906 16.609375 0.296875 C 16.097656 0.847656 15.554688 1.378906 14.984375 1.890625 C 14.410156 2.410156 13.8125 2.878906 13.1875 3.296875 C 12.5625 3.710938 11.921875 4.066406 11.265625 4.359375 C 10.609375 4.660156 9.945312 4.859375 9.28125 4.953125 C 8.613281 5.054688 7.945312 5.046875 7.28125 4.921875 C 6.613281 4.796875 5.960938 4.523438 5.328125 4.109375 C 4.578125 3.617188 4.003906 3.070312 3.609375 2.46875 C 3.210938 1.875 2.953125 1.242188 2.828125 0.578125 C 2.703125 -0.0859375 2.691406 -0.773438 2.796875 -1.484375 C 2.898438 -2.191406 3.082031 -2.894531 3.34375 -3.59375 C 3.601562 -4.300781 3.910156 -4.988281 4.265625 -5.65625 C 4.628906 -6.332031 5 -6.960938 5.375 -7.546875 C 5.96875 -8.453125 6.601562 -9.320312 7.28125 -10.15625 C 7.96875 -11 8.6875 -11.8125 9.4375 -12.59375 L 13.828125 -9.484375 C 13.003906 -8.578125 12.191406 -7.65625 11.390625 -6.71875 C 10.597656 -5.789062 9.863281 -4.804688 9.1875 -3.765625 C 9.113281 -3.660156 9.015625 -3.492188 8.890625 -3.265625 C 8.765625 -3.035156 8.628906 -2.78125 8.484375 -2.5 C 8.335938 -2.21875 8.195312 -1.921875 8.0625 -1.609375 C 7.925781 -1.296875 7.820312 -0.992188 7.75 -0.703125 C 7.675781 -0.410156 7.648438 -0.15625 7.671875 0.0625 C 7.703125 0.28125 7.796875 0.445312 7.953125 0.5625 C 8.140625 0.675781 8.363281 0.691406 8.625 0.609375 C 8.882812 0.535156 9.164062 0.382812 9.46875 0.15625 C 9.78125 -0.0625 10.101562 -0.332031 10.4375 -0.65625 C 10.78125 -0.988281 11.117188 -1.347656 11.453125 -1.734375 C 11.785156 -2.117188 12.109375 -2.503906 12.421875 -2.890625 C 12.734375 -3.285156 13.015625 -3.660156 13.265625 -4.015625 C 13.523438 -4.367188 13.75 -4.675781 13.9375 -4.9375 C 14.125 -5.207031 14.257812 -5.414062 14.34375 -5.5625 C 14.675781 -6.0625 14.992188 -6.566406 15.296875 -7.078125 C 15.609375 -7.585938 15.914062 -8.101562 16.21875 -8.625 L 20.734375 -5.671875 C 20.234375 -4.722656 19.679688 -3.789062 19.078125 -2.875 Z M 19.078125 -2.875 "/></g></g></g><g fill="#ffffff" fill-opacity="1"><g transform="translate(137.668567, 108.655513)"><g><path d="M 20.671875 -3.125 L 17.21875 0.359375 L 14.609375 -1.9375 L 6.40625 5.375 L 2.703125 2.203125 L 10.296875 -5.703125 L 7.671875 -7.953125 L 11.53125 -11.796875 Z M 20.671875 -3.125 "/></g></g></g><g fill="#ffffff" fill-opacity="1"><g transform="translate(146.4682, 116.85448)"><g><path d="M 17.3125 4.875 C 16.820312 5.226562 16.347656 5.503906 15.890625 5.703125 C 15.441406 5.910156 14.984375 6.039062 14.515625 6.09375 C 14.054688 6.15625 13.582031 6.144531 13.09375 6.0625 C 12.601562 5.988281 12.082031 5.84375 11.53125 5.625 L 9.1875 10.734375 L 5.3125 7.125 L 8.25 2.796875 L 7.359375 1.671875 L 3.375 4.3125 L 0.453125 0.296875 C 1.890625 -0.710938 3.320312 -1.710938 4.75 -2.703125 C 6.1875 -3.703125 7.628906 -4.691406 9.078125 -5.671875 C 9.785156 -6.179688 10.492188 -6.6875 11.203125 -7.1875 C 11.921875 -7.695312 12.648438 -8.191406 13.390625 -8.671875 C 13.878906 -8.347656 14.332031 -8.015625 14.75 -7.671875 C 15.164062 -7.328125 15.554688 -6.960938 15.921875 -6.578125 C 16.296875 -6.191406 16.648438 -5.785156 16.984375 -5.359375 C 17.328125 -4.941406 17.664062 -4.5 18 -4.03125 C 18.507812 -3.320312 18.90625 -2.5625 19.1875 -1.75 C 19.476562 -0.945312 19.613281 -0.148438 19.59375 0.640625 C 19.570312 1.429688 19.378906 2.191406 19.015625 2.921875 C 18.648438 3.660156 18.082031 4.3125 17.3125 4.875 Z M 13.96875 0.921875 C 14.238281 0.734375 14.457031 0.519531 14.625 0.28125 C 14.789062 0.0507812 14.898438 -0.1875 14.953125 -0.4375 C 15.003906 -0.6875 15 -0.945312 14.9375 -1.21875 C 14.875 -1.5 14.742188 -1.78125 14.546875 -2.0625 C 14.453125 -2.1875 14.351562 -2.300781 14.25 -2.40625 C 14.144531 -2.519531 14.046875 -2.617188 13.953125 -2.703125 L 10.359375 -0.34375 L 10.515625 -0.109375 C 10.703125 0.148438 10.929688 0.394531 11.203125 0.625 C 11.472656 0.851562 11.757812 1.023438 12.0625 1.140625 C 12.375 1.265625 12.691406 1.316406 13.015625 1.296875 C 13.347656 1.273438 13.664062 1.148438 13.96875 0.921875 Z M 13.96875 0.921875 "/></g></g></g><g fill="#ffffff" fill-opacity="1"><g transform="translate(154.474741, 127.667545)"><g><path d="M 13.640625 10.0625 C 13.003906 10.351562 12.359375 10.5625 11.703125 10.6875 C 11.046875 10.820312 10.390625 10.875 9.734375 10.84375 C 9.085938 10.8125 8.457031 10.691406 7.84375 10.484375 C 7.226562 10.285156 6.65625 10.007812 6.125 9.65625 C 5.59375 9.3125 5.101562 8.882812 4.65625 8.375 C 4.21875 7.875 3.851562 7.300781 3.5625 6.65625 C 3.257812 6.03125 3.054688 5.394531 2.953125 4.75 C 2.859375 4.113281 2.84375 3.476562 2.90625 2.84375 C 2.96875 2.207031 3.109375 1.59375 3.328125 1 C 3.554688 0.414062 3.851562 -0.128906 4.21875 -0.640625 C 4.59375 -1.148438 5.03125 -1.613281 5.53125 -2.03125 C 6.03125 -2.457031 6.59375 -2.816406 7.21875 -3.109375 C 7.820312 -3.390625 8.445312 -3.585938 9.09375 -3.703125 C 9.738281 -3.828125 10.382812 -3.867188 11.03125 -3.828125 C 11.6875 -3.796875 12.320312 -3.6875 12.9375 -3.5 C 13.5625 -3.3125 14.140625 -3.046875 14.671875 -2.703125 C 15.210938 -2.367188 15.695312 -1.957031 16.125 -1.46875 C 16.5625 -0.988281 16.925781 -0.429688 17.21875 0.203125 C 17.6875 1.210938 17.957031 2.207031 18.03125 3.1875 C 18.101562 4.164062 17.984375 5.085938 17.671875 5.953125 C 17.359375 6.816406 16.863281 7.597656 16.1875 8.296875 C 15.507812 9.003906 14.660156 9.59375 13.640625 10.0625 Z M 11.21875 5.546875 C 11.507812 5.410156 11.773438 5.234375 12.015625 5.015625 C 12.265625 4.796875 12.460938 4.550781 12.609375 4.28125 C 12.753906 4.007812 12.835938 3.71875 12.859375 3.40625 C 12.878906 3.09375 12.816406 2.773438 12.671875 2.453125 C 12.515625 2.128906 12.316406 1.863281 12.078125 1.65625 C 11.847656 1.457031 11.582031 1.3125 11.28125 1.21875 C 10.988281 1.125 10.679688 1.085938 10.359375 1.109375 C 10.046875 1.140625 9.734375 1.226562 9.421875 1.375 C 9.128906 1.507812 8.851562 1.6875 8.59375 1.90625 C 8.34375 2.132812 8.132812 2.382812 7.96875 2.65625 C 7.8125 2.9375 7.71875 3.234375 7.6875 3.546875 C 7.65625 3.867188 7.71875 4.191406 7.875 4.515625 C 8.019531 4.847656 8.21875 5.113281 8.46875 5.3125 C 8.71875 5.519531 8.992188 5.660156 9.296875 5.734375 C 9.597656 5.816406 9.914062 5.84375 10.25 5.8125 C 10.582031 5.78125 10.90625 5.691406 11.21875 5.546875 Z M 11.21875 5.546875 "/></g></g></g><g fill="#ffffff" fill-opacity="1"><g transform="translate(160.260121, 140.912798)"><g/></g></g><g fill="#ffffff" fill-opacity="1"><g transform="translate(162.005173, 144.503166)"><g><path d="M 19.359375 15.796875 L 2.4375 17.21875 L 1.421875 12.03125 L 10.28125 10.78125 L 2.796875 9.46875 L 2.5 7.46875 L 8.609375 4.71875 L 1.203125 5.796875 L 0.265625 0.53125 L 16.078125 -1.578125 L 17.1875 4.265625 L 9.96875 7.71875 L 18.4375 9.65625 Z M 19.359375 15.796875 "/></g></g></g><g fill="#ffffff" fill-opacity="1"><g transform="translate(164.481797, 162.018269)"><g><path d="M 11.71875 15.328125 C 11.144531 15.285156 10.519531 15.210938 9.84375 15.109375 C 9.164062 15.003906 8.46875 14.859375 7.75 14.671875 C 7.03125 14.492188 6.300781 14.28125 5.5625 14.03125 C 4.832031 13.789062 4.128906 13.492188 3.453125 13.140625 C 2.785156 12.796875 2.164062 12.40625 1.59375 11.96875 C 1.03125 11.539062 0.539062 11.054688 0.125 10.515625 C -0.28125 9.972656 -0.585938 9.382812 -0.796875 8.75 C -1.015625 8.113281 -1.097656 7.414062 -1.046875 6.65625 C -0.972656 5.757812 -0.765625 4.992188 -0.421875 4.359375 C -0.0859375 3.722656 0.335938 3.191406 0.859375 2.765625 C 1.378906 2.335938 1.972656 1.992188 2.640625 1.734375 C 3.316406 1.484375 4.023438 1.300781 4.765625 1.1875 C 5.503906 1.082031 6.253906 1.023438 7.015625 1.015625 C 7.773438 1.003906 8.503906 1.023438 9.203125 1.078125 C 10.273438 1.160156 11.34375 1.296875 12.40625 1.484375 C 13.476562 1.671875 14.535156 1.90625 15.578125 2.1875 L 14.96875 7.5625 C 13.78125 7.257812 12.582031 6.988281 11.375 6.75 C 10.175781 6.507812 8.957031 6.34375 7.71875 6.25 C 7.601562 6.238281 7.410156 6.226562 7.140625 6.21875 C 6.878906 6.21875 6.585938 6.21875 6.265625 6.21875 C 5.953125 6.226562 5.625 6.25 5.28125 6.28125 C 4.945312 6.3125 4.632812 6.363281 4.34375 6.4375 C 4.0625 6.519531 3.828125 6.625 3.640625 6.75 C 3.453125 6.882812 3.347656 7.050781 3.328125 7.25 C 3.316406 7.46875 3.410156 7.671875 3.609375 7.859375 C 3.804688 8.054688 4.078125 8.234375 4.421875 8.390625 C 4.765625 8.546875 5.164062 8.691406 5.625 8.828125 C 6.082031 8.960938 6.554688 9.082031 7.046875 9.1875 C 7.535156 9.300781 8.023438 9.394531 8.515625 9.46875 C 9.015625 9.550781 9.476562 9.625 9.90625 9.6875 C 10.34375 9.75 10.722656 9.789062 11.046875 9.8125 C 11.378906 9.84375 11.628906 9.863281 11.796875 9.875 C 12.398438 9.925781 12.992188 9.960938 13.578125 9.984375 C 14.171875 10.015625 14.765625 10.035156 15.359375 10.046875 L 14.953125 15.4375 C 13.878906 15.445312 12.800781 15.410156 11.71875 15.328125 Z M 11.71875 15.328125 "/></g></g></g><g fill="#ffffff" fill-opacity="1"><g transform="translate(163.633127, 175.807505)"><g><path d="M 11.3125 20.28125 L -3.46875 15.09375 L -2.3125 9.125 L 6.65625 8.390625 L -1.40625 5.484375 L 0.0625 0.5 L 15.640625 5.5 L 14.296875 11.125 L 5.203125 12.625 L 12.671875 15 Z M 11.3125 20.28125 "/></g></g></g><g fill="#ffffff" fill-opacity="1"><g transform="translate(159.174568, 190.881248)"><g><path d="M 1.71875 16.359375 C 0.757812 15.859375 -0.0351562 15.285156 -0.671875 14.640625 C -1.304688 13.992188 -1.804688 13.296875 -2.171875 12.546875 C -2.535156 11.796875 -2.769531 11 -2.875 10.15625 C -2.976562 9.320312 -2.976562 8.46875 -2.875 7.59375 C -2.769531 6.726562 -2.570312 5.859375 -2.28125 4.984375 C -1.988281 4.109375 -1.613281 3.238281 -1.15625 2.375 C -0.988281 2.050781 -0.8125 1.738281 -0.625 1.4375 C -0.4375 1.144531 -0.25 0.847656 -0.0625 0.546875 L 13.484375 8.078125 C 13.328125 8.953125 13.085938 9.8125 12.765625 10.65625 C 12.453125 11.5 12.09375 12.316406 11.6875 13.109375 C 11.164062 14.078125 10.539062 14.890625 9.8125 15.546875 C 9.082031 16.210938 8.285156 16.695312 7.421875 17 C 6.554688 17.300781 5.640625 17.398438 4.671875 17.296875 C 3.703125 17.203125 2.71875 16.890625 1.71875 16.359375 Z M 3.28125 11.84375 C 3.644531 12.039062 4.019531 12.1875 4.40625 12.28125 C 4.789062 12.382812 5.164062 12.40625 5.53125 12.34375 C 5.894531 12.289062 6.234375 12.15625 6.546875 11.9375 C 6.867188 11.71875 7.144531 11.40625 7.375 11 L 1.265625 7.265625 C 1.109375 7.703125 1.046875 8.140625 1.078125 8.578125 C 1.109375 9.015625 1.210938 9.4375 1.390625 9.84375 C 1.566406 10.25 1.800781 10.613281 2.09375 10.9375 C 2.394531 11.269531 2.742188 11.546875 3.140625 11.765625 Z M 3.28125 11.84375 "/></g></g></g><g fill="#ffffff" fill-opacity="1"><g transform="translate(153.264282, 202.366815)"><g><path d="M -2.984375 16.6875 C -3.523438 16.25 -3.992188 15.757812 -4.390625 15.21875 C -4.796875 14.6875 -5.128906 14.125 -5.390625 13.53125 C -5.648438 12.9375 -5.828125 12.320312 -5.921875 11.6875 C -6.015625 11.050781 -6.019531 10.414062 -5.9375 9.78125 C -5.863281 9.144531 -5.695312 8.519531 -5.4375 7.90625 C -5.1875 7.289062 -4.835938 6.707031 -4.390625 6.15625 C -3.953125 5.613281 -3.46875 5.148438 -2.9375 4.765625 C -2.414062 4.390625 -1.859375 4.085938 -1.265625 3.859375 C -0.671875 3.640625 -0.0625 3.5 0.5625 3.4375 C 1.1875 3.382812 1.8125 3.40625 2.4375 3.5 C 3.070312 3.601562 3.6875 3.785156 4.28125 4.046875 C 4.882812 4.304688 5.457031 4.65625 6 5.09375 C 6.507812 5.507812 6.960938 5.976562 7.359375 6.5 C 7.753906 7.03125 8.082031 7.59375 8.34375 8.1875 C 8.601562 8.78125 8.78125 9.394531 8.875 10.03125 C 8.976562 10.675781 8.992188 11.3125 8.921875 11.9375 C 8.859375 12.570312 8.707031 13.191406 8.46875 13.796875 C 8.238281 14.398438 7.90625 14.972656 7.46875 15.515625 C 6.757812 16.378906 5.976562 17.0625 5.125 17.5625 C 4.28125 18.070312 3.40625 18.375 2.5 18.46875 C 1.59375 18.570312 0.671875 18.472656 -0.265625 18.171875 C -1.203125 17.878906 -2.109375 17.382812 -2.984375 16.6875 Z M 0.015625 12.515625 C 0.265625 12.710938 0.535156 12.875 0.828125 13 C 1.128906 13.125 1.4375 13.1875 1.75 13.1875 C 2.0625 13.195312 2.363281 13.144531 2.65625 13.03125 C 2.945312 12.914062 3.203125 12.71875 3.421875 12.4375 C 3.648438 12.15625 3.800781 11.863281 3.875 11.5625 C 3.945312 11.257812 3.957031 10.957031 3.90625 10.65625 C 3.863281 10.351562 3.757812 10.0625 3.59375 9.78125 C 3.425781 9.507812 3.207031 9.265625 2.9375 9.046875 C 2.6875 8.847656 2.40625 8.679688 2.09375 8.546875 C 1.789062 8.421875 1.476562 8.347656 1.15625 8.328125 C 0.832031 8.304688 0.519531 8.351562 0.21875 8.46875 C -0.0703125 8.582031 -0.328125 8.78125 -0.546875 9.0625 C -0.773438 9.34375 -0.925781 9.640625 -1 9.953125 C -1.070312 10.265625 -1.078125 10.570312 -1.015625 10.875 C -0.953125 11.1875 -0.832031 11.484375 -0.65625 11.765625 C -0.476562 12.046875 -0.253906 12.296875 0.015625 12.515625 Z M 0.015625 12.515625 "/></g></g></g><g clip-path="url(#c9a131d092)"><g clip-path="url(#308ccffa06)"><path stroke-linecap="butt" transform="matrix(0.751273, 0, 0, 0.751273, 32.842545, 97.290415)" fill="none" stroke-linejoin="miter" d="M 82.860987 -0.00180058 C 37.094904 -0.00180058 0.00160343 37.0967 0.00160343 82.857583 C 0.00160343 128.623665 37.094904 165.716966 82.860987 165.716966 C 128.62187 165.716966 165.72037 128.623665 165.72037 82.857583 C 165.72037 37.0967 128.62187 -0.00180058 82.860987 -0.00180058 " stroke="#ffffff" stroke-width="20" stroke-opacity="1" stroke-miterlimit="4"/></g></g><g clip-path="url(#df8049d52a)"><path fill="#ffffff" d="M 35.410156 161.441406 L 38.097656 161.066406 C 38.21875 161.050781 38.335938 160.992188 38.421875 160.902344 C 38.511719 160.8125 38.566406 160.699219 38.585938 160.578125 L 38.960938 157.90625 L 39.335938 160.582031 C 39.355469 160.703125 39.414062 160.820312 39.503906 160.90625 C 39.589844 160.992188 39.707031 161.050781 39.828125 161.070312 L 42.507812 161.445312 L 39.824219 161.816406 C 39.710938 161.847656 39.609375 161.910156 39.535156 162 C 39.449219 162.089844 39.390625 162.203125 39.371094 162.328125 L 38.996094 164.996094 L 38.621094 162.324219 C 38.589844 162.195312 38.515625 162.082031 38.410156 162 C 38.320312 161.914062 38.207031 161.855469 38.085938 161.835938 Z M 35.410156 161.441406 " fill-opacity="1" fill-rule="nonzero"/></g><path fill="#ffffff" d="M 73.660156 64.675781 L 77.191406 64.164062 C 77.351562 64.140625 77.503906 64.066406 77.617188 63.953125 C 77.734375 63.835938 77.808594 63.6875 77.835938 63.527344 L 78.34375 60.007812 L 78.859375 63.527344 C 78.902344 63.859375 79.164062 64.121094 79.5 64.167969 L 83.03125 64.675781 L 79.5 65.1875 C 79.339844 65.210938 79.1875 65.285156 79.074219 65.402344 C 78.957031 65.519531 78.882812 65.667969 78.855469 65.828125 L 78.34375 69.347656 L 77.832031 65.828125 C 77.789062 65.492188 77.523438 65.230469 77.191406 65.183594 Z M 73.660156 64.675781 " fill-opacity="1" fill-rule="nonzero"/><path fill="#ffffff" d="M 143.027344 206.648438 L 145.144531 206.339844 C 145.242188 206.324219 145.335938 206.28125 145.40625 206.210938 C 145.476562 206.144531 145.519531 206.054688 145.53125 205.957031 L 145.839844 203.84375 L 146.148438 205.957031 C 146.164062 206.054688 146.207031 206.144531 146.277344 206.214844 C 146.347656 206.285156 146.4375 206.328125 146.535156 206.339844 L 148.652344 206.648438 L 146.535156 206.953125 C 146.4375 206.96875 146.34375 207.015625 146.273438 207.085938 C 146.203125 207.152344 146.160156 207.242188 146.148438 207.339844 L 145.839844 209.449219 L 145.53125 207.339844 C 145.515625 207.242188 145.472656 207.152344 145.402344 207.082031 C 145.332031 207.007812 145.242188 206.964844 145.144531 206.953125 Z M 143.027344 206.648438 " fill-opacity="1" fill-rule="nonzero"/><path fill="#ffffff" d="M 49.660156 192.636719 C 49.808594 192.636719 49.953125 192.664062 50.089844 192.722656 C 50.230469 192.777344 50.351562 192.859375 50.457031 192.964844 C 50.5625 193.070312 50.640625 193.191406 50.699219 193.328125 C 50.757812 193.464844 50.785156 193.609375 50.785156 193.757812 C 50.785156 193.90625 50.757812 194.050781 50.699219 194.1875 C 50.640625 194.324219 50.5625 194.445312 50.457031 194.550781 C 50.351562 194.65625 50.230469 194.738281 50.089844 194.792969 C 49.953125 194.851562 49.808594 194.878906 49.660156 194.878906 C 49.511719 194.878906 49.367188 194.851562 49.230469 194.792969 C 49.09375 194.738281 48.96875 194.65625 48.863281 194.550781 C 48.757812 194.445312 48.679688 194.324219 48.621094 194.1875 C 48.5625 194.050781 48.535156 193.90625 48.535156 193.757812 C 48.535156 193.609375 48.5625 193.464844 48.621094 193.328125 C 48.679688 193.191406 48.757812 193.070312 48.863281 192.964844 C 48.96875 192.859375 49.09375 192.777344 49.230469 192.722656 C 49.367188 192.664062 49.511719 192.636719 49.660156 192.636719 Z M 49.660156 192.636719 " fill-opacity="1" fill-rule="nonzero"/><path fill="#ffffff" d="M 93.53125 149.859375 L 95.085938 149.636719 C 95.15625 149.621094 95.222656 149.589844 95.273438 149.542969 C 95.324219 149.488281 95.355469 149.421875 95.367188 149.351562 L 95.59375 147.804688 L 95.820312 149.355469 C 95.832031 149.425781 95.863281 149.488281 95.914062 149.542969 C 95.964844 149.589844 96.03125 149.625 96.105469 149.636719 L 97.65625 149.859375 L 96.101562 150.082031 C 96.03125 150.097656 95.964844 150.128906 95.914062 150.175781 C 95.863281 150.230469 95.832031 150.296875 95.820312 150.367188 L 95.59375 151.914062 L 95.367188 150.363281 C 95.355469 150.292969 95.324219 150.230469 95.273438 150.175781 C 95.222656 150.128906 95.15625 150.09375 95.085938 150.082031 Z M 93.53125 149.859375 " fill-opacity="1" fill-rule="nonzero"/><path fill="#ffffff" d="M 75.160156 127.816406 L 76.714844 127.59375 C 76.785156 127.578125 76.847656 127.546875 76.902344 127.5 C 76.949219 127.445312 76.984375 127.378906 76.996094 127.308594 L 77.21875 125.761719 L 77.445312 127.3125 C 77.457031 127.382812 77.492188 127.445312 77.539062 127.5 C 77.59375 127.546875 77.660156 127.582031 77.730469 127.59375 L 79.28125 127.816406 L 77.726562 128.039062 C 77.65625 128.054688 77.589844 128.085938 77.539062 128.132812 C 77.488281 128.1875 77.457031 128.253906 77.445312 128.324219 L 77.21875 129.871094 L 76.996094 128.320312 C 76.984375 128.25 76.949219 128.1875 76.902344 128.132812 C 76.847656 128.085938 76.78125 128.050781 76.710938 128.039062 Z M 75.160156 127.816406 " fill-opacity="1" fill-rule="nonzero"/><path fill="#ffffff" d="M 107.40625 214.121094 L 110.371094 213.691406 C 110.511719 213.675781 110.644531 213.609375 110.746094 213.511719 C 110.847656 213.410156 110.910156 213.277344 110.929688 213.136719 L 111.34375 210.195312 L 111.773438 213.152344 C 111.789062 213.292969 111.851562 213.425781 111.953125 213.523438 C 112.054688 213.625 112.1875 213.691406 112.328125 213.707031 L 115.28125 214.121094 L 112.3125 214.550781 C 112.171875 214.5625 112.039062 214.628906 111.9375 214.726562 C 111.839844 214.828125 111.773438 214.960938 111.753906 215.101562 L 111.34375 218.042969 L 110.910156 215.085938 C 110.894531 214.945312 110.832031 214.8125 110.730469 214.714844 C 110.628906 214.613281 110.5 214.546875 110.355469 214.53125 Z M 107.40625 214.121094 " fill-opacity="1" fill-rule="nonzero"/><path fill="#ffffff" d="M 136.652344 239.898438 L 138.210938 239.675781 C 138.277344 239.660156 138.34375 239.628906 138.398438 239.582031 C 138.445312 239.527344 138.476562 239.460938 138.492188 239.390625 L 138.714844 237.84375 L 138.941406 239.394531 C 138.953125 239.464844 138.984375 239.527344 139.035156 239.582031 C 139.085938 239.628906 139.152344 239.660156 139.226562 239.675781 L 140.777344 239.898438 L 139.222656 240.121094 C 139.152344 240.136719 139.085938 240.167969 139.035156 240.214844 C 138.984375 240.269531 138.953125 240.335938 138.941406 240.40625 L 138.714844 241.953125 L 138.492188 240.402344 C 138.476562 240.332031 138.445312 240.269531 138.398438 240.214844 C 138.34375 240.167969 138.277344 240.132812 138.207031 240.121094 Z M 136.652344 239.898438 " fill-opacity="1" fill-rule="nonzero"/><path fill="#ffffff" d="M 94.65625 94.191406 L 96.210938 93.96875 C 96.28125 93.953125 96.347656 93.921875 96.398438 93.875 C 96.449219 93.820312 96.480469 93.753906 96.492188 93.683594 L 96.71875 92.136719 L 96.945312 93.683594 C 96.960938 93.832031 97.078125 93.949219 97.230469 93.96875 L 98.78125 94.191406 L 97.226562 94.417969 C 97.15625 94.429688 97.089844 94.460938 97.039062 94.507812 C 96.988281 94.5625 96.957031 94.628906 96.945312 94.699219 L 96.71875 96.246094 L 96.492188 94.699219 C 96.476562 94.550781 96.359375 94.433594 96.207031 94.417969 Z M 94.65625 94.191406 " fill-opacity="1" fill-rule="nonzero"/><path fill="#ffffff" d="M 136.652344 218.230469 L 138.207031 218.003906 C 138.355469 217.988281 138.472656 217.871094 138.492188 217.722656 L 138.714844 216.175781 L 138.941406 217.722656 C 138.957031 217.871094 139.074219 217.988281 139.226562 218.003906 L 140.777344 218.230469 L 139.222656 218.453125 C 139.152344 218.464844 139.085938 218.5 139.035156 218.546875 C 138.984375 218.597656 138.949219 218.664062 138.941406 218.738281 L 138.714844 220.285156 L 138.492188 218.738281 C 138.472656 218.589844 138.355469 218.472656 138.207031 218.453125 Z M 136.652344 218.230469 " fill-opacity="1" fill-rule="nonzero"/><g clip-path="url(#a584220883)"><path fill="#ffffff" d="M 140.402344 50.855469 L 141.957031 50.628906 C 142.03125 50.617188 142.097656 50.585938 142.144531 50.53125 C 142.195312 50.480469 142.226562 50.414062 142.238281 50.34375 L 142.464844 48.796875 L 142.691406 50.34375 C 142.707031 50.496094 142.824219 50.613281 142.976562 50.628906 L 144.527344 50.855469 L 142.972656 51.078125 C 142.902344 51.089844 142.835938 51.121094 142.785156 51.171875 C 142.734375 51.222656 142.703125 51.289062 142.691406 51.363281 L 142.464844 52.910156 L 142.238281 51.359375 C 142.226562 51.289062 142.195312 51.222656 142.144531 51.171875 C 142.09375 51.121094 142.027344 51.089844 141.957031 51.078125 Z M 140.402344 50.855469 " fill-opacity="1" fill-rule="nonzero"/></g><path fill="#ffffff" d="M 65.410156 161.816406 L 67.527344 161.507812 C 67.625 161.492188 67.714844 161.449219 67.785156 161.378906 C 67.859375 161.308594 67.902344 161.21875 67.914062 161.125 L 68.222656 159.011719 L 68.527344 161.125 C 68.542969 161.222656 68.589844 161.3125 68.660156 161.382812 C 68.726562 161.453125 68.816406 161.496094 68.914062 161.507812 L 71.035156 161.816406 L 68.914062 162.121094 C 68.816406 162.136719 68.726562 162.183594 68.65625 162.25 C 68.585938 162.320312 68.539062 162.410156 68.527344 162.503906 L 68.222656 164.617188 L 67.914062 162.503906 C 67.898438 162.410156 67.851562 162.316406 67.78125 162.246094 C 67.714844 162.175781 67.625 162.132812 67.527344 162.121094 Z M 65.410156 161.816406 " fill-opacity="1" fill-rule="nonzero"/><path fill="#ffffff" d="M 144.152344 75.511719 L 146.269531 75.207031 C 146.367188 75.191406 146.460938 75.144531 146.53125 75.074219 C 146.601562 75.007812 146.644531 74.917969 146.65625 74.820312 L 146.964844 72.710938 L 147.273438 74.820312 C 147.289062 74.917969 147.332031 75.007812 147.402344 75.078125 C 147.472656 75.148438 147.5625 75.195312 147.660156 75.207031 L 149.777344 75.511719 L 147.660156 75.816406 C 147.558594 75.832031 147.46875 75.878906 147.398438 75.949219 C 147.328125 76.015625 147.285156 76.105469 147.273438 76.203125 L 146.964844 78.3125 L 146.65625 76.203125 C 146.640625 76.105469 146.597656 76.015625 146.527344 75.945312 C 146.457031 75.875 146.367188 75.828125 146.269531 75.816406 Z M 144.152344 75.511719 " fill-opacity="1" fill-rule="nonzero"/><path fill="#ffffff" d="M 101.03125 113.992188 L 103.148438 113.6875 C 103.246094 113.671875 103.339844 113.625 103.410156 113.554688 C 103.480469 113.488281 103.523438 113.398438 103.535156 113.300781 L 103.84375 111.191406 L 104.152344 113.300781 C 104.164062 113.398438 104.210938 113.488281 104.28125 113.558594 C 104.347656 113.628906 104.441406 113.675781 104.535156 113.6875 L 106.65625 113.992188 L 104.535156 114.300781 C 104.4375 114.3125 104.347656 114.359375 104.277344 114.429688 C 104.207031 114.496094 104.160156 114.585938 104.152344 114.683594 L 103.84375 116.796875 L 103.535156 114.683594 C 103.519531 114.585938 103.476562 114.496094 103.40625 114.425781 C 103.335938 114.355469 103.246094 114.3125 103.148438 114.300781 Z M 101.03125 113.992188 " fill-opacity="1" fill-rule="nonzero"/><path fill="#ffffff" d="M 77.78125 103.90625 L 81.597656 103.34375 C 81.773438 103.320312 81.9375 103.238281 82.0625 103.113281 C 82.183594 102.988281 82.265625 102.828125 82.292969 102.652344 L 82.84375 98.863281 L 83.40625 102.660156 C 83.460938 103.019531 83.742188 103.300781 84.101562 103.355469 L 87.90625 103.90625 L 84.09375 104.464844 C 83.917969 104.492188 83.753906 104.570312 83.628906 104.699219 C 83.503906 104.824219 83.425781 104.984375 83.394531 105.15625 L 82.84375 108.949219 L 82.28125 105.148438 C 82.230469 104.792969 81.949219 104.507812 81.589844 104.453125 Z M 77.78125 103.90625 " fill-opacity="1" fill-rule="nonzero"/><path fill="#ffffff" d="M 38.410156 104.09375 C 38.558594 104.09375 38.703125 104.121094 38.839844 104.179688 C 38.980469 104.234375 39.101562 104.316406 39.207031 104.421875 C 39.3125 104.527344 39.394531 104.648438 39.449219 104.785156 C 39.507812 104.921875 39.535156 105.066406 39.535156 105.214844 C 39.535156 105.363281 39.507812 105.503906 39.449219 105.640625 C 39.394531 105.78125 39.3125 105.902344 39.207031 106.003906 C 39.101562 106.109375 38.980469 106.191406 38.839844 106.25 C 38.703125 106.304688 38.558594 106.335938 38.410156 106.335938 C 38.261719 106.335938 38.117188 106.304688 37.980469 106.25 C 37.84375 106.191406 37.722656 106.109375 37.617188 106.003906 C 37.511719 105.902344 37.429688 105.78125 37.371094 105.640625 C 37.316406 105.503906 37.285156 105.363281 37.285156 105.214844 C 37.285156 105.066406 37.316406 104.921875 37.371094 104.785156 C 37.429688 104.648438 37.511719 104.527344 37.617188 104.421875 C 37.722656 104.316406 37.84375 104.234375 37.980469 104.179688 C 38.117188 104.121094 38.261719 104.09375 38.410156 104.09375 Z M 38.410156 104.09375 " fill-opacity="1" fill-rule="nonzero"/><path fill="#ffffff" d="M 45.910156 120.90625 C 46.117188 120.90625 46.292969 120.976562 46.441406 121.125 C 46.585938 121.269531 46.660156 121.445312 46.660156 121.652344 C 46.660156 121.859375 46.585938 122.035156 46.441406 122.179688 C 46.292969 122.328125 46.117188 122.398438 45.910156 122.398438 C 45.703125 122.398438 45.527344 122.328125 45.378906 122.179688 C 45.234375 122.035156 45.160156 121.859375 45.160156 121.652344 C 45.160156 121.445312 45.234375 121.269531 45.378906 121.125 C 45.527344 120.976562 45.703125 120.90625 45.910156 120.90625 Z M 45.910156 120.90625 " fill-opacity="1" fill-rule="nonzero"/><g clip-path="url(#07f11eb75a)"><path fill="#ffffff" d="M 151.652344 61.875 C 151.859375 61.875 152.035156 61.949219 152.183594 62.09375 C 152.328125 62.238281 152.402344 62.414062 152.402344 62.621094 C 152.402344 62.828125 152.328125 63.003906 152.183594 63.152344 C 152.035156 63.296875 151.859375 63.371094 151.652344 63.371094 C 151.445312 63.371094 151.269531 63.296875 151.121094 63.152344 C 150.976562 63.003906 150.902344 62.828125 150.902344 62.621094 C 150.902344 62.414062 150.976562 62.238281 151.121094 62.09375 C 151.269531 61.949219 151.445312 61.875 151.652344 61.875 Z M 151.652344 61.875 " fill-opacity="1" fill-rule="nonzero"/></g><path fill="#ffffff" d="M 48.160156 82.050781 C 48.359375 82.050781 48.550781 82.085938 48.734375 82.164062 C 48.917969 82.238281 49.082031 82.347656 49.222656 82.488281 C 49.363281 82.628906 49.46875 82.789062 49.546875 82.972656 C 49.621094 83.15625 49.660156 83.347656 49.660156 83.542969 C 49.660156 83.742188 49.621094 83.933594 49.546875 84.117188 C 49.46875 84.300781 49.363281 84.460938 49.222656 84.601562 C 49.082031 84.742188 48.917969 84.847656 48.734375 84.925781 C 48.550781 85 48.359375 85.039062 48.160156 85.039062 C 47.960938 85.039062 47.769531 85 47.585938 84.925781 C 47.402344 84.847656 47.242188 84.742188 47.101562 84.601562 C 46.960938 84.460938 46.851562 84.300781 46.773438 84.117188 C 46.699219 83.933594 46.660156 83.742188 46.660156 83.542969 C 46.660156 83.347656 46.699219 83.15625 46.773438 82.972656 C 46.851562 82.789062 46.960938 82.628906 47.101562 82.488281 C 47.242188 82.347656 47.402344 82.238281 47.585938 82.164062 C 47.769531 82.085938 47.960938 82.050781 48.160156 82.050781 Z M 48.160156 82.050781 " fill-opacity="1" fill-rule="nonzero"/><path fill="#ffffff" d="M 119.40625 246.4375 C 119.554688 246.4375 119.695312 246.464844 119.835938 246.523438 C 119.972656 246.578125 120.09375 246.660156 120.199219 246.765625 C 120.304688 246.871094 120.386719 246.992188 120.445312 247.128906 C 120.5 247.265625 120.53125 247.410156 120.53125 247.558594 C 120.53125 247.707031 120.5 247.847656 120.445312 247.984375 C 120.386719 248.125 120.304688 248.246094 120.199219 248.351562 C 120.09375 248.453125 119.972656 248.535156 119.835938 248.59375 C 119.695312 248.648438 119.554688 248.679688 119.40625 248.679688 C 119.253906 248.679688 119.113281 248.648438 118.972656 248.59375 C 118.835938 248.535156 118.714844 248.453125 118.609375 248.351562 C 118.503906 248.246094 118.421875 248.125 118.363281 247.984375 C 118.308594 247.847656 118.28125 247.707031 118.28125 247.558594 C 118.28125 247.410156 118.308594 247.265625 118.363281 247.128906 C 118.421875 246.992188 118.503906 246.871094 118.609375 246.765625 C 118.714844 246.660156 118.835938 246.578125 118.972656 246.523438 C 119.113281 246.464844 119.253906 246.4375 119.40625 246.4375 Z M 119.40625 246.4375 " fill-opacity="1" fill-rule="nonzero"/><path fill="#ffffff" d="M 105.933594 159.757812 C 106.082031 159.757812 106.222656 159.789062 106.363281 159.84375 C 106.5 159.902344 106.621094 159.984375 106.726562 160.089844 C 106.832031 160.191406 106.914062 160.3125 106.972656 160.453125 C 107.027344 160.589844 107.058594 160.730469 107.058594 160.878906 C 107.058594 161.027344 107.027344 161.171875 106.972656 161.308594 C 106.914062 161.445312 106.832031 161.566406 106.726562 161.671875 C 106.621094 161.777344 106.5 161.859375 106.363281 161.917969 C 106.222656 161.972656 106.082031 162 105.933594 162 C 105.78125 162 105.640625 161.972656 105.5 161.917969 C 105.363281 161.859375 105.242188 161.777344 105.136719 161.671875 C 105.03125 161.566406 104.949219 161.445312 104.894531 161.308594 C 104.835938 161.171875 104.808594 161.027344 104.808594 160.878906 C 104.808594 160.730469 104.835938 160.589844 104.894531 160.453125 C 104.949219 160.3125 105.03125 160.191406 105.136719 160.089844 C 105.242188 159.984375 105.363281 159.902344 105.5 159.84375 C 105.640625 159.789062 105.78125 159.757812 105.933594 159.757812 Z M 105.933594 159.757812 " fill-opacity="1" fill-rule="nonzero"/><g clip-path="url(#c72c6cb468)"><path fill="#ffffff" d="M 91.28125 248.304688 C 91.488281 248.304688 91.664062 248.378906 91.8125 248.523438 C 91.957031 248.667969 92.03125 248.84375 92.03125 249.050781 C 92.03125 249.257812 91.957031 249.433594 91.8125 249.578125 C 91.664062 249.726562 91.488281 249.796875 91.28125 249.796875 C 91.074219 249.796875 90.898438 249.726562 90.75 249.578125 C 90.605469 249.433594 90.53125 249.257812 90.53125 249.050781 C 90.53125 248.84375 90.605469 248.667969 90.75 248.523438 C 90.898438 248.378906 91.074219 248.304688 91.28125 248.304688 Z M 91.28125 248.304688 " fill-opacity="1" fill-rule="nonzero"/></g><g clip-path="url(#a6135a901f)"><path fill="#ffffff" d="M 50.726562 152.527344 C 50.726562 126.234375 67.320312 108.246094 94.976562 108.246094 C 122.632812 108.246094 139.226562 126.234375 139.226562 152.527344 C 139.226562 171.898438 135.078125 180.203125 121.25 196.808594 C 114.335938 205.109375 104.65625 216.179688 94.976562 216.179688 C 85.296875 216.179688 75.617188 205.109375 68.703125 196.808594 C 54.875 180.203125 50.726562 171.898438 50.726562 152.527344 Z M 61.789062 169.132812 C 61.789062 180.203125 75.617188 191.273438 85.296875 191.273438 C 88.753906 191.273438 90.828125 190.582031 90.828125 187.121094 C 90.828125 178.820312 76.308594 160.136719 68.703125 160.136719 C 63.863281 160.136719 61.789062 164.289062 61.789062 169.132812 Z M 85.988281 200.960938 C 87.371094 203.726562 90.828125 205.109375 94.976562 205.109375 C 99.125 205.109375 102.582031 203.726562 103.964844 200.960938 Z M 99.125 187.121094 C 99.125 190.582031 101.199219 191.273438 104.65625 191.273438 C 114.335938 191.273438 128.164062 180.203125 128.164062 169.132812 C 128.164062 164.289062 126.089844 160.136719 121.25 160.136719 C 113.644531 160.136719 99.125 178.820312 99.125 187.121094 Z M 99.125 187.121094 " fill-opacity="1" fill-rule="nonzero"/></g><g clip-path="url(#dc5493350f)"><g clip-path="url(#2a3d160a83)"><g clip-path="url(#f33cbef686)"><g clip-path="url(#c3f64157bc)"><g clip-path="url(#ad292f56e8)"><path fill="#000000" d="M 126.191406 114.578125 C 141.175781 125.414062 141.144531 141.226562 128.578125 149.53125 C 122.3125 153.617188 112.457031 155.613281 102.453125 154.875 C 97.457031 154.542969 92.429688 153.535156 87.859375 151.96875 C 83.285156 150.417969 79.167969 148.246094 75.925781 145.796875 C 72.773438 143.367188 70.6875 140.550781 69.980469 137.753906 C 69.242188 134.957031 69.859375 132.207031 71.667969 129.917969 C 73.578125 127.492188 76.246094 125.851562 79.175781 124.960938 C 82.972656 123.800781 87.265625 123.660156 91.164062 124.097656 C 95.910156 124.632812 100.441406 125.808594 104.464844 128.460938 C 106.203125 129.605469 108.484375 131.804688 108.769531 133.945312 C 109.050781 136.089844 107.605469 137.792969 105.761719 138.714844 C 102.417969 140.382812 98.316406 140.300781 94.78125 139.445312 C 92.414062 138.871094 89.625 137.820312 87.90625 136.519531 C 88.355469 137.371094 89.152344 138.203125 90.171875 138.953125 C 91.210938 139.695312 92.480469 140.332031 93.859375 140.855469 C 96.625 141.898438 99.832031 142.425781 102.941406 142.394531 C 104.492188 142.375 106.007812 142.199219 107.457031 141.828125 C 108.878906 141.46875 110.738281 140.851562 111.789062 140.25 C 113.414062 139.234375 114.542969 138.398438 115.308594 136.609375 C 116.046875 134.769531 115.890625 132.753906 114.882812 130.789062 C 113.914062 128.824219 112.195312 126.960938 110.050781 125.308594 C 107.902344 123.652344 105.28125 122.226562 102.386719 121.042969 C 100.929688 120.457031 99.394531 119.941406 97.796875 119.503906 C 96.222656 119.097656 94.617188 118.71875 92.988281 118.464844 C 89.730469 117.929688 86.429688 117.769531 83.253906 117.894531 C 80.089844 118.054688 77.058594 118.550781 74.359375 119.375 C 72.988281 119.769531 71.753906 120.289062 70.582031 120.847656 C 69.480469 121.410156 68.429688 121.988281 67.496094 122.648438 C 65.605469 123.941406 64.132812 125.460938 63.046875 127.082031 C 60.917969 130.351562 59.402344 134.84375 61.324219 139.910156 C 62.636719 143.613281 66.378906 148.117188 70.625 151.160156 C 74.855469 154.144531 80.109375 156.4375 85.75 158.214844 C 91.375 159.992188 96.5 160.347656 102.378906 160.601562 C 114.171875 161.128906 125.125 157.3125 131.8125 152.433594 C 135.117188 149.988281 137.875 146.179688 139.164062 143.078125 C 140.441406 139.976562 140.820312 136.675781 140.261719 133.347656 C 139.703125 130.015625 138.265625 126.652344 135.917969 123.441406 C 133.527344 120.238281 130.226562 117.210938 126.191406 114.578125 " fill-opacity="1" fill-rule="nonzero"/></g></g></g></g></g><g clip-path="url(#7cff97ed38)"><g clip-path="url(#0c20c0ee85)"><g clip-path="url(#274d69abc5)"><g clip-path="url(#3bc628dbee)"><g clip-path="url(#604077fa69)"><path fill="#000000" d="M 56.136719 151.5625 C 51.1875 145.789062 49.21875 139.332031 49.632812 133.484375 C 49.992188 127.636719 53.835938 122.296875 60.558594 118.816406 C 62.234375 117.941406 64.039062 117.15625 65.988281 116.496094 C 67.957031 115.851562 70.023438 115.273438 72.144531 114.898438 C 76.433594 114.113281 81.214844 113.984375 85.992188 114.367188 C 95.523438 115.105469 105.300781 118.046875 111.691406 122.570312 C 113.289062 123.6875 114.664062 124.917969 115.78125 126.164062 C 116.882812 127.410156 117.691406 128.722656 118.207031 130.050781 C 119.25 132.703125 119.152344 135.402344 117.945312 137.734375 C 116.75 140.070312 114.507812 142.042969 111.414062 143.292969 C 110.65625 143.609375 109.828125 143.90625 108.984375 144.117188 C 108.15625 144.351562 107.253906 144.503906 106.335938 144.628906 C 104.492188 144.878906 102.5 144.941406 100.472656 144.753906 C 96.429688 144.441406 92.300781 143.238281 89.074219 141.382812 C 87.472656 140.476562 86.160156 139.425781 85.308594 138.3125 C 84.894531 137.753906 84.570312 137.183594 84.402344 136.605469 C 84.207031 136.027344 84.132812 135.4375 84.207031 134.855469 C 84.273438 134.273438 84.46875 133.691406 84.804688 133.128906 C 84.984375 132.832031 85.136719 132.605469 85.351562 132.367188 C 85.570312 132.136719 85.816406 131.914062 86.09375 131.695312 C 87.226562 130.84375 88.992188 130.21875 91.027344 129.957031 C 92.683594 129.746094 94.425781 129.738281 96.207031 130.011719 C 99.171875 130.460938 102.039062 131.519531 103.882812 133.121094 C 103.703125 132.277344 103.007812 131.421875 102.050781 130.683594 C 101.566406 130.3125 101.007812 129.972656 100.402344 129.664062 C 99.8125 129.363281 99.183594 129.085938 98.523438 128.835938 C 95.867188 127.839844 92.765625 127.375 89.835938 127.414062 C 86.910156 127.472656 84.089844 128.039062 81.863281 129.140625 C 81.308594 129.421875 80.796875 129.734375 80.34375 130.078125 C 79.890625 130.421875 79.484375 130.820312 79.167969 131.175781 C 78.503906 131.90625 77.988281 132.71875 77.671875 133.59375 C 77.339844 134.464844 77.222656 135.402344 77.332031 136.355469 C 77.445312 137.316406 77.808594 138.289062 78.347656 139.238281 C 79.441406 141.140625 81.292969 142.910156 83.539062 144.421875 C 85.804688 145.933594 88.433594 147.1875 91.34375 148.203125 C 94.261719 149.179688 97.382812 149.902344 100.535156 150.238281 C 103.683594 150.59375 106.839844 150.59375 109.824219 150.265625 C 111.304688 150.074219 112.75 149.828125 114.097656 149.460938 C 115.46875 149.121094 116.691406 148.699219 117.867188 148.207031 C 120.183594 147.222656 122.125 145.976562 123.621094 144.566406 C 125.097656 143.148438 126.167969 141.582031 126.804688 139.9375 C 132.265625 125.910156 114.175781 116.164062 103.660156 112.734375 C 102.902344 112.488281 102.144531 112.257812 101.378906 112.039062 C 96.003906 110.496094 89.898438 109.671875 84.351562 109.703125 C 78.3125 109.734375 75.761719 110.171875 70.867188 111.242188 C 68.398438 111.785156 65.945312 112.589844 63.859375 113.378906 C 61.761719 114.167969 58.882812 115.65625 57.144531 116.703125 C 50.101562 120.875 46.597656 126.921875 46.820312 133.167969 C 46.867188 136.292969 47.832031 139.472656 49.414062 142.578125 C 50.242188 144.125 51.21875 145.65625 52.335938 147.160156 C 53.472656 148.660156 54.753906 150.128906 56.136719 151.5625 " fill-opacity="1" fill-rule="nonzero"/></g></g></g></g></g></svg>