<svg xmlns="http://www.w3.org/2000/svg" xmlns:xlink="http://www.w3.org/1999/xlink" width="250" zoomAndPan="magnify" viewBox="0 0 187.5 299.999988" height="400" preserveAspectRatio="xMidYMid meet" version="1.0"><defs><g/><clipPath id="f9d3236e3f"><path d="M 0 0.398438 L 187 0.398438 L 187 299.601562 L 0 299.601562 Z M 0 0.398438 " clip-rule="nonzero"/></clipPath><clipPath id="e8f3dbde12"><path d="M 35.410156 121.640625 L 84.460938 121.640625 L 84.460938 246.539062 L 35.410156 246.539062 Z M 35.410156 121.640625 " clip-rule="nonzero"/></clipPath><clipPath id="3536356041"><path d="M 103.039062 121.640625 L 152.0625 121.640625 L 152.0625 246.539062 L 103.039062 246.539062 Z M 103.039062 121.640625 " clip-rule="nonzero"/></clipPath><clipPath id="579804bc78"><path d="M 83.679688 121.640625 L 103.84375 121.640625 L 103.84375 246.539062 L 83.679688 246.539062 Z M 83.679688 121.640625 " clip-rule="nonzero"/></clipPath><clipPath id="fda58ca8d5"><path d="M 68 96 L 120 96 L 120 147.34375 L 68 147.34375 Z M 68 96 " clip-rule="nonzero"/></clipPath><clipPath id="6d37920ca8"><path d="M 39.550781 78.34375 L 148 78.34375 L 148 139 L 39.550781 139 Z M 39.550781 78.34375 " clip-rule="nonzero"/></clipPath><clipPath id="718c9d4d08"><path d="M 39.550781 78.34375 L 148.300781 78.34375 L 148.300781 140 L 39.550781 140 Z M 39.550781 78.34375 " clip-rule="nonzero"/></clipPath><clipPath id="fc1042b901"><path d="M 35.4375 239.46875 L 152.4375 239.46875 L 152.4375 253.71875 L 35.4375 253.71875 Z M 35.4375 239.46875 " clip-rule="nonzero"/></clipPath><clipPath id="f99ba51ae5"><path d="M 71.640625 156.953125 L 115.855469 156.953125 L 115.855469 250.664062 L 71.640625 250.664062 Z M 71.640625 156.953125 " clip-rule="nonzero"/></clipPath><clipPath id="f22e948e67"><path d="M 101 85 L 110 85 L 110 92 L 101 92 Z M 101 85 " clip-rule="nonzero"/></clipPath><clipPath id="bb89c81e81"><path d="M 102.378906 83.734375 L 110.734375 88.753906 L 108.417969 92.609375 L 100.0625 87.589844 Z M 102.378906 83.734375 " clip-rule="nonzero"/></clipPath><clipPath id="be34e94643"><path d="M 102.378906 83.734375 L 110.734375 88.753906 L 108.417969 92.609375 L 100.0625 87.589844 Z M 102.378906 83.734375 " clip-rule="nonzero"/></clipPath><clipPath id="cc51891d74"><path d="M 102.378906 83.734375 L 110.734375 88.753906 L 108.417969 92.609375 L 100.0625 87.589844 Z M 102.378906 83.734375 " clip-rule="nonzero"/></clipPath><clipPath id="2fddd3ce99"><path d="M 56.25 81 L 71 81 L 71 87 L 56.25 87 Z M 56.25 81 " clip-rule="nonzero"/></clipPath><clipPath id="5411a255d5"><path d="M 90 58.390625 L 93 58.390625 L 93 74 L 90 74 Z M 90 58.390625 " clip-rule="nonzero"/></clipPath><clipPath id="fc53cfe158"><path d="M 115.660156 86.84375 L 120 86.84375 L 120 88.359375 L 115.660156 88.359375 Z M 115.660156 86.84375 " clip-rule="nonzero"/></clipPath><clipPath id="8521626c89"><path d="M 124.1875 83.386719 L 131.238281 83.386719 L 131.238281 86.117188 L 124.1875 86.117188 Z M 124.1875 83.386719 " clip-rule="nonzero"/></clipPath></defs><g clip-path="url(#f9d3236e3f)"><path fill="#ffffff" d="M 0 0.398438 L 187.5 0.398438 L 187.5 307.148438 L 0 307.148438 Z M 0 0.398438 " fill-opacity="1" fill-rule="nonzero"/><path fill="#ffffff" d="M 0 0.398438 L 187.5 0.398438 L 187.5 300.398438 L 0 300.398438 Z M 0 0.398438 " fill-opacity="1" fill-rule="nonzero"/><path fill="#000000" d="M 0 0.398438 L 187.5 0.398438 L 187.5 300.398438 L 0 300.398438 Z M 0 0.398438 " fill-opacity="1" fill-rule="nonzero"/></g><g clip-path="url(#e8f3dbde12)"><path fill="#7ed957" d="M 84.25 121.820312 L 35.789062 245.386719 L 35.40625 246.367188 L 84.460938 246.367188 Z M 84.25 121.820312 " fill-opacity="1" fill-rule="nonzero"/></g><g clip-path="url(#3536356041)"><path fill="#7ed957" d="M 103.25 121.820312 L 151.710938 245.386719 L 152.09375 246.367188 L 103.039062 246.367188 Z M 103.25 121.820312 " fill-opacity="1" fill-rule="nonzero"/></g><g clip-path="url(#579804bc78)"><path fill="#7ed957" d="M 83.679688 121.644531 L 103.84375 121.644531 L 103.84375 246.535156 L 83.679688 246.535156 L 83.679688 121.644531 " fill-opacity="1" fill-rule="nonzero"/></g><g fill="#7ed957" fill-opacity="1"><g transform="translate(42.753693, 93.532545)"><g><path d="M -2.898438 -3.371094 L -4.089844 -3.832031 L -2.351562 -8.332031 L -3.574219 -8.804688 L -5.855469 -2.894531 L 0.210938 -0.550781 L 2.511719 -6.5 L 1.289062 -6.972656 L -0.464844 -2.433594 L -1.71875 -2.914062 L -0.0507812 -7.230469 L -1.230469 -7.6875 Z M -2.898438 -3.371094 "/></g></g></g><g fill="#7ed957" fill-opacity="1"><g transform="translate(45.425984, 86.549885)"><g><path d="M 2.164062 -3.457031 C 3.433594 -5.699219 2.8125 -7.09375 1.152344 -8.03125 L -1.9375 -9.78125 L -2.679688 -8.46875 L 0.410156 -6.71875 C 1.429688 -6.140625 1.789062 -5.453125 1.023438 -4.101562 C 0.261719 -2.75 -0.515625 -2.707031 -1.535156 -3.28125 L -4.625 -5.035156 L -5.371094 -3.71875 L -2.28125 -1.96875 C -0.621094 -1.03125 0.894531 -1.214844 2.164062 -3.457031 Z M 2.164062 -3.457031 "/></g></g></g><g fill="#7ed957" fill-opacity="1"><g transform="translate(49.634639, 79.421542)"><g/></g></g><g fill="#7ed957" fill-opacity="1"><g transform="translate(51.099486, 77.10639)"><g><path d="M 1.449219 -4.375 L -3.683594 -5.65625 L -4.75 -4.449219 L 2.398438 -2.707031 L 3.222656 -3.636719 L 0.628906 -10.523438 L -0.441406 -9.316406 Z M 1.449219 -4.375 "/></g></g></g><g fill="#7ed957" fill-opacity="1"><g transform="translate(56.912885, 70.782017)"><g><path d="M 0.46875 -0.425781 L 1.585938 -1.445312 L -2.789062 -6.257812 L -3.910156 -5.238281 Z M 0.46875 -0.425781 "/></g></g></g><g fill="#7ed957" fill-opacity="1"><g transform="translate(58.919081, 68.697416)"><g><path d="M -1.730469 -6.761719 L -3.304688 -5.632812 L 0.480469 -0.34375 L 1.707031 -1.222656 L -0.71875 -4.617188 L 3.402344 -2.433594 L 4.355469 -3.113281 L 3.617188 -7.722656 L 6.046875 -4.328125 L 7.277344 -5.207031 L 3.492188 -10.496094 L 1.914062 -9.371094 L 2.707031 -4.414062 Z M -1.730469 -6.761719 "/></g></g></g><g fill="#7ed957" fill-opacity="1"><g transform="translate(66.865311, 63.265502)"><g/></g></g><g fill="#7ed957" fill-opacity="1"><g transform="translate(69.208803, 61.822776)"><g><path d="M 2.386719 -6.671875 C 3.058594 -6.957031 3.527344 -6.765625 3.765625 -6.207031 C 4.003906 -5.648438 3.820312 -5.179688 3.148438 -4.894531 L 0.648438 -3.824219 L -0.109375 -5.601562 Z M 1.929688 -0.824219 L 1.164062 -2.621094 L 3.664062 -3.6875 C 5.140625 -4.320312 5.742188 -5.472656 5.171875 -6.808594 C 4.601562 -8.144531 3.351562 -8.507812 1.871094 -7.875 L -2.015625 -6.214844 L 0.542969 -0.230469 Z M 1.929688 -0.824219 "/></g></g></g><g fill="#7ed957" fill-opacity="1"><g transform="translate(76.518174, 58.717362)"><g><path d="M 1.023438 -4.328125 L 0.699219 -5.558594 L 5.359375 -6.796875 L 5.023438 -8.0625 L -1.097656 -6.4375 L 0.570312 -0.152344 L 6.734375 -1.789062 L 6.398438 -3.054688 L 1.695312 -1.804688 L 1.347656 -3.105469 L 5.820312 -4.292969 L 5.496094 -5.515625 Z M 1.023438 -4.328125 "/></g></g></g><g fill="#7ed957" fill-opacity="1"><g transform="translate(83.773836, 56.808848)"><g><path d="M 1.285156 -6.714844 L -0.210938 -6.527344 L 0.585938 -0.0742188 L 6.578125 -0.8125 L 6.417969 -2.113281 L 1.925781 -1.558594 Z M 1.285156 -6.714844 "/></g></g></g><g fill="#7ed957" fill-opacity="1"><g transform="translate(90.759461, 55.886496)"><g><path d="M 6.863281 0.164062 L 8.472656 0.203125 L 5.105469 -6.382812 L 3.863281 -6.414062 L 0.179688 0.00390625 L 1.792969 0.0429688 L 2.511719 -1.214844 L 6.203125 -1.125 Z M 4.441406 -4.585938 L 5.550781 -2.40625 L 3.226562 -2.464844 Z M 4.441406 -4.585938 "/></g></g></g><g fill="#7ed957" fill-opacity="1"><g transform="translate(99.405368, 56.144432)"><g><path d="M 7.765625 -4.757812 C 7.765625 -4.757812 7.011719 -5.558594 4.792969 -5.945312 C 2.460938 -6.355469 1.566406 -5.554688 1.394531 -4.574219 C 1.203125 -3.488281 1.84375 -2.792969 4.019531 -1.9375 C 5.375 -1.40625 5.800781 -1.257812 5.722656 -0.828125 C 5.648438 -0.40625 5.042969 -0.261719 3.832031 -0.472656 C 2.261719 -0.75 1.328125 -1.453125 1.328125 -1.453125 L 0.414062 -0.527344 C 0.414062 -0.527344 1.339844 0.417969 3.605469 0.816406 C 5.671875 1.179688 7.003906 0.730469 7.230469 -0.5625 C 7.449219 -1.808594 6.539062 -2.421875 4.53125 -3.191406 C 3.363281 -3.640625 2.824219 -3.875 2.898438 -4.308594 C 2.96875 -4.699219 3.46875 -4.847656 4.566406 -4.65625 C 6.035156 -4.398438 6.851562 -3.832031 6.851562 -3.832031 Z M 7.765625 -4.757812 "/></g></g></g><g fill="#7ed957" fill-opacity="1"><g transform="translate(106.764472, 57.561087)"><g/></g></g><g fill="#7ed957" fill-opacity="1"><g transform="translate(109.448832, 58.17475)"><g><path d="M 4.496094 1.75 C 6.414062 2.496094 7.316406 1.742188 7.648438 0.882812 C 7.929688 0.167969 7.695312 -0.457031 7.007812 -0.921875 C 7.640625 -0.863281 8.195312 -1.15625 8.457031 -1.828125 C 8.765625 -2.621094 8.6875 -3.601562 6.785156 -4.339844 L 2.90625 -5.847656 L 0.550781 0.214844 Z M 2.414062 -0.414062 L 2.949219 -1.785156 L 5.449219 -0.808594 C 6.265625 -0.492188 6.40625 -0.175781 6.230469 0.28125 C 6.054688 0.734375 5.734375 0.875 4.917969 0.558594 Z M 3.390625 -2.921875 L 3.855469 -4.121094 L 6.359375 -3.148438 C 7.019531 -2.890625 7.105469 -2.5625 6.972656 -2.21875 C 6.839844 -1.875 6.550781 -1.691406 5.894531 -1.949219 Z M 3.390625 -2.921875 "/></g></g></g><g fill="#7ed957" fill-opacity="1"><g transform="translate(116.845983, 61.198586)"><g><path d="M 0.566406 0.289062 L 1.910156 0.976562 L 4.875 -4.8125 L 3.53125 -5.5 Z M 0.566406 0.289062 "/></g></g></g><g fill="#7ed957" fill-opacity="1"><g transform="translate(119.50804, 62.428953)"><g><path d="M 3.800781 -5.289062 L 3.089844 -4.1875 L 5.4375 -2.667969 L 2.613281 1.691406 L 3.878906 2.511719 L 6.703125 -1.847656 L 9.050781 -0.328125 L 9.761719 -1.429688 Z M 3.800781 -5.289062 "/></g></g></g><g fill="#7ed957" fill-opacity="1"><g transform="translate(126.016905, 66.556398)"><g><path d="M 3.398438 3.316406 C 5.585938 5.296875 7.667969 5.0625 8.917969 3.679688 C 10.167969 2.296875 10.191406 0.203125 8.003906 -1.777344 C 5.816406 -3.753906 3.734375 -3.523438 2.484375 -2.136719 C 1.234375 -0.753906 1.210938 1.339844 3.398438 3.316406 Z M 4.277344 2.34375 C 2.792969 1.003906 2.894531 -0.273438 3.640625 -1.09375 C 4.382812 -1.914062 5.640625 -2.144531 7.125 -0.804688 C 8.609375 0.539062 8.507812 1.816406 7.765625 2.636719 C 7.023438 3.457031 5.761719 3.6875 4.277344 2.34375 Z M 4.277344 2.34375 "/></g></g></g><g fill="#7ed957" fill-opacity="1"><g transform="translate(132.983505, 72.935372)"><g><path d="M 3.769531 -0.492188 C 4.632812 -1.179688 5.914062 -1.203125 7.160156 0.359375 C 7.9375 1.335938 8.109375 2.402344 8.109375 2.402344 L 9.386719 2.308594 C 9.386719 2.308594 9.457031 1.136719 8.1875 -0.457031 C 6.347656 -2.761719 4.257812 -2.871094 2.796875 -1.707031 C 1.339844 -0.546875 0.976562 1.519531 2.816406 3.824219 C 4.085938 5.417969 5.242188 5.609375 5.242188 5.609375 L 5.617188 4.386719 C 5.617188 4.386719 4.617188 3.984375 3.839844 3.007812 C 2.59375 1.441406 2.902344 0.199219 3.769531 -0.492188 Z M 3.769531 -0.492188 "/></g></g></g><g fill="#7ed957" fill-opacity="1"><g transform="translate(137.962255, 79.138989)"><g><path d="M 3.394531 5.964844 L 4.191406 7.367188 L 8.101562 1.082031 L 7.488281 0.00390625 L 0.0898438 0.15625 L 0.886719 1.558594 L 2.335938 1.527344 L 4.164062 4.734375 Z M 6.21875 1.441406 L 4.921875 3.515625 L 3.773438 1.496094 Z M 6.21875 1.441406 "/></g></g></g><g fill="#7ed957" fill-opacity="1"><g transform="translate(142.198739, 86.679919)"><g><path d="M 8.078125 4.199219 C 8.078125 4.199219 8.375 3.140625 7.566406 1.042969 C 6.714844 -1.167969 5.570312 -1.523438 4.636719 -1.164062 C 3.609375 -0.765625 3.34375 0.140625 3.734375 2.445312 C 3.972656 3.878906 4.066406 4.320312 3.660156 4.476562 C 3.261719 4.632812 2.824219 4.1875 2.382812 3.039062 C 1.808594 1.550781 1.929688 0.390625 1.929688 0.390625 L 0.664062 0.0859375 C 0.664062 0.0859375 0.332031 1.363281 1.15625 3.511719 C 1.910156 5.46875 2.984375 6.375 4.210938 5.90625 C 5.390625 5.449219 5.445312 4.355469 5.070312 2.238281 C 4.855469 1.003906 4.777344 0.421875 5.1875 0.261719 C 5.554688 0.121094 5.941406 0.472656 6.34375 1.515625 C 6.878906 2.902344 6.8125 3.894531 6.8125 3.894531 Z M 8.078125 4.199219 "/></g></g></g><path fill="#7ed957" d="M 118.871094 122.140625 C 118.871094 135.796875 107.703125 146.871094 93.925781 146.871094 C 80.152344 146.871094 68.980469 135.796875 68.980469 122.140625 C 68.980469 108.480469 80.152344 97.410156 93.925781 97.410156 C 107.703125 97.410156 118.871094 108.480469 118.871094 122.140625 " fill-opacity="1" fill-rule="nonzero"/><g clip-path="url(#fda58ca8d5)"><path fill="#000000" d="M 118.871094 122.140625 L 118.441406 122.140625 C 118.441406 128.855469 115.699219 134.925781 111.261719 139.328125 C 106.824219 143.726562 100.699219 146.445312 93.925781 146.445312 C 87.15625 146.445312 81.027344 143.726562 76.589844 139.328125 C 72.152344 134.925781 69.410156 128.855469 69.410156 122.140625 C 69.410156 115.425781 72.152344 109.351562 76.589844 104.953125 C 81.027344 100.554688 87.15625 97.832031 93.925781 97.832031 C 100.699219 97.832031 106.824219 100.554688 111.261719 104.953125 C 115.699219 109.351562 118.441406 115.425781 118.441406 122.140625 L 119.296875 122.140625 C 119.296875 108.246094 107.9375 96.984375 93.925781 96.984375 C 79.914062 96.984375 68.554688 108.246094 68.554688 122.140625 C 68.554688 136.03125 79.914062 147.292969 93.925781 147.292969 C 107.9375 147.292969 119.296875 136.03125 119.296875 122.140625 L 118.871094 122.140625 " fill-opacity="1" fill-rule="nonzero"/></g><g clip-path="url(#6d37920ca8)"><path fill="#545454" d="M 123.691406 99.480469 C 119.09375 87.421875 107.34375 78.839844 93.570312 78.839844 C 79.71875 78.839844 67.910156 87.519531 63.375 99.695312 C 49.246094 103.554688 39.984375 110.019531 39.984375 117.34375 C 39.984375 129.167969 64.136719 138.757812 93.925781 138.757812 C 123.71875 138.757812 147.867188 129.167969 147.867188 117.34375 C 147.867188 109.882812 138.257812 103.316406 123.691406 99.480469 " fill-opacity="1" fill-rule="nonzero"/></g><g clip-path="url(#718c9d4d08)"><path fill="#000000" d="M 123.691406 99.480469 L 124.089844 99.332031 C 119.433594 87.109375 107.527344 78.417969 93.570312 78.417969 C 79.535156 78.417969 67.566406 87.210938 62.972656 99.546875 L 63.375 99.695312 L 63.257812 99.285156 C 56.160156 101.226562 50.273438 103.820312 46.125 106.878906 C 44.054688 108.410156 42.417969 110.058594 41.292969 111.808594 C 40.167969 113.558594 39.558594 115.421875 39.558594 117.34375 C 39.558594 118.890625 39.953125 120.40625 40.699219 121.851562 C 42.007812 124.382812 44.367188 126.714844 47.558594 128.800781 C 52.351562 131.929688 59.039062 134.519531 66.980469 136.332031 C 74.921875 138.148438 84.121094 139.183594 93.925781 139.183594 C 108.867188 139.179688 122.398438 136.78125 132.226562 132.878906 C 137.140625 130.925781 141.136719 128.601562 143.921875 125.984375 C 145.316406 124.679688 146.40625 123.296875 147.152344 121.851562 C 147.898438 120.40625 148.296875 118.890625 148.296875 117.34375 C 148.296875 115.386719 147.664062 113.492188 146.496094 111.714844 C 144.746094 109.042969 141.8125 106.613281 137.949219 104.480469 C 134.085938 102.347656 129.289062 100.515625 123.796875 99.070312 L 123.691406 99.480469 L 124.089844 99.332031 L 123.691406 99.480469 L 123.578125 99.890625 C 130.828125 101.796875 136.828125 104.386719 140.988281 107.394531 C 143.070312 108.898438 144.6875 110.503906 145.777344 112.171875 C 146.871094 113.84375 147.4375 115.570312 147.4375 117.34375 C 147.4375 118.75 147.082031 120.121094 146.390625 121.464844 C 145.183594 123.8125 142.933594 126.058594 139.824219 128.09375 C 135.15625 131.144531 128.550781 133.710938 120.679688 135.507812 C 112.808594 137.304688 103.671875 138.332031 93.925781 138.332031 C 79.078125 138.335938 65.636719 135.941406 55.941406 132.089844 C 51.097656 130.167969 47.191406 127.878906 44.519531 125.371094 C 43.183594 124.113281 42.152344 122.808594 41.460938 121.464844 C 40.769531 120.121094 40.414062 118.75 40.414062 117.34375 C 40.414062 115.601562 40.960938 113.90625 42.015625 112.265625 C 43.59375 109.804688 46.320312 107.476562 49.976562 105.410156 C 53.632812 103.347656 58.21875 101.542969 63.488281 100.101562 C 63.621094 100.066406 63.726562 99.96875 63.773438 99.839844 C 68.25 87.828125 79.902344 79.265625 93.570312 79.265625 C 107.160156 79.265625 118.757812 87.730469 123.289062 99.628906 C 123.335938 99.757812 123.445312 99.855469 123.578125 99.890625 L 123.691406 99.480469 " fill-opacity="1" fill-rule="nonzero"/></g><path fill="#7ed957" d="M 49.277344 112.503906 C 49.277344 113.433594 48.515625 114.1875 47.578125 114.1875 C 46.640625 114.1875 45.882812 113.433594 45.882812 112.503906 C 45.882812 111.574219 46.640625 110.824219 47.578125 110.824219 C 48.515625 110.824219 49.277344 111.574219 49.277344 112.503906 " fill-opacity="1" fill-rule="nonzero"/><path fill="#000000" d="M 49.277344 112.503906 L 48.847656 112.503906 C 48.847656 112.855469 48.707031 113.164062 48.476562 113.394531 C 48.246094 113.625 47.929688 113.761719 47.578125 113.761719 C 47.226562 113.761719 46.910156 113.625 46.679688 113.394531 C 46.449219 113.164062 46.308594 112.855469 46.308594 112.503906 C 46.308594 112.15625 46.449219 111.84375 46.679688 111.613281 C 46.910156 111.386719 47.226562 111.246094 47.578125 111.246094 C 47.929688 111.246094 48.246094 111.386719 48.476562 111.613281 C 48.707031 111.84375 48.847656 112.15625 48.847656 112.503906 L 49.703125 112.503906 C 49.703125 111.339844 48.753906 110.398438 47.578125 110.398438 C 46.40625 110.398438 45.453125 111.34375 45.453125 112.503906 C 45.453125 113.667969 46.40625 114.613281 47.578125 114.613281 C 48.753906 114.613281 49.703125 113.667969 49.703125 112.503906 L 49.277344 112.503906 " fill-opacity="1" fill-rule="nonzero"/><path fill="#7ed957" d="M 140.714844 109.851562 C 140.714844 110.78125 139.953125 111.535156 139.015625 111.535156 C 138.078125 111.535156 137.316406 110.78125 137.316406 109.851562 C 137.316406 108.921875 138.078125 108.167969 139.015625 108.167969 C 139.953125 108.167969 140.714844 108.921875 140.714844 109.851562 " fill-opacity="1" fill-rule="nonzero"/><path fill="#000000" d="M 140.714844 109.851562 L 140.285156 109.851562 C 140.285156 110.203125 140.144531 110.511719 139.914062 110.742188 C 139.679688 110.972656 139.367188 111.113281 139.015625 111.113281 C 138.664062 111.113281 138.347656 110.972656 138.117188 110.742188 C 137.886719 110.511719 137.746094 110.203125 137.746094 109.851562 C 137.746094 109.503906 137.886719 109.191406 138.117188 108.964844 C 138.347656 108.734375 138.664062 108.59375 139.015625 108.59375 C 139.367188 108.59375 139.683594 108.734375 139.914062 108.964844 C 140.144531 109.191406 140.285156 109.503906 140.285156 109.851562 L 141.140625 109.851562 C 141.140625 108.6875 140.1875 107.746094 139.015625 107.746094 C 137.839844 107.746094 136.890625 108.6875 136.890625 109.851562 C 136.890625 111.015625 137.839844 111.960938 139.015625 111.960938 C 140.1875 111.960938 141.140625 111.015625 141.140625 109.851562 L 140.714844 109.851562 " fill-opacity="1" fill-rule="nonzero"/><path fill="#7ed957" d="M 64.101562 126.867188 C 64.101562 128.222656 62.992188 129.320312 61.625 129.320312 C 60.257812 129.320312 59.148438 128.222656 59.148438 126.867188 C 59.148438 125.511719 60.257812 124.410156 61.625 124.410156 C 62.992188 124.410156 64.101562 125.511719 64.101562 126.867188 " fill-opacity="1" fill-rule="nonzero"/><path fill="#000000" d="M 64.101562 126.867188 L 63.671875 126.867188 C 63.671875 127.429688 63.445312 127.933594 63.074219 128.300781 C 62.703125 128.671875 62.191406 128.898438 61.625 128.898438 C 61.058594 128.898438 60.546875 128.671875 60.175781 128.300781 C 59.804688 127.933594 59.574219 127.429688 59.574219 126.867188 C 59.574219 126.304688 59.804688 125.796875 60.175781 125.429688 C 60.546875 125.0625 61.058594 124.835938 61.625 124.835938 C 62.191406 124.835938 62.703125 125.0625 63.074219 125.429688 C 63.445312 125.796875 63.671875 126.304688 63.671875 126.867188 L 64.527344 126.867188 C 64.527344 125.273438 63.226562 123.984375 61.625 123.984375 C 60.019531 123.984375 58.722656 125.273438 58.71875 126.867188 C 58.71875 128.457031 60.019531 129.746094 61.625 129.746094 C 63.226562 129.746094 64.527344 128.457031 64.527344 126.867188 L 64.101562 126.867188 " fill-opacity="1" fill-rule="nonzero"/><path fill="#7ed957" d="M 129.097656 127.332031 C 129.097656 128.691406 127.988281 129.789062 126.621094 129.789062 C 125.253906 129.789062 124.144531 128.691406 124.144531 127.332031 C 124.144531 125.976562 125.253906 124.878906 126.621094 124.878906 C 127.988281 124.878906 129.097656 125.976562 129.097656 127.332031 " fill-opacity="1" fill-rule="nonzero"/><path fill="#000000" d="M 129.097656 127.332031 L 128.667969 127.332031 C 128.667969 127.898438 128.441406 128.402344 128.070312 128.769531 C 127.699219 129.140625 127.1875 129.363281 126.621094 129.363281 C 126.054688 129.363281 125.546875 129.140625 125.171875 128.769531 C 124.800781 128.402344 124.570312 127.894531 124.570312 127.332031 C 124.570312 126.773438 124.800781 126.265625 125.171875 125.898438 C 125.546875 125.527344 126.054688 125.300781 126.621094 125.300781 C 127.1875 125.300781 127.699219 125.527344 128.070312 125.898438 C 128.441406 126.265625 128.667969 126.773438 128.667969 127.332031 L 129.527344 127.332031 C 129.527344 125.742188 128.226562 124.453125 126.621094 124.453125 C 125.015625 124.453125 123.714844 125.742188 123.714844 127.332031 C 123.714844 128.925781 125.015625 130.214844 126.621094 130.214844 C 128.226562 130.214844 129.527344 128.925781 129.527344 127.332031 L 129.097656 127.332031 " fill-opacity="1" fill-rule="nonzero"/><path fill="#7ed957" d="M 96.492188 132.046875 C 96.492188 133.648438 95.1875 134.945312 93.570312 134.945312 C 91.957031 134.945312 90.648438 133.648438 90.648438 132.046875 C 90.648438 130.449219 91.957031 129.152344 93.570312 129.152344 C 95.1875 129.152344 96.492188 130.449219 96.492188 132.046875 " fill-opacity="1" fill-rule="nonzero"/><path fill="#000000" d="M 96.492188 132.046875 L 96.066406 132.046875 C 96.066406 132.730469 95.789062 133.347656 95.335938 133.796875 C 94.882812 134.246094 94.261719 134.523438 93.570312 134.523438 C 92.882812 134.523438 92.261719 134.246094 91.808594 133.796875 C 91.355469 133.347656 91.078125 132.730469 91.078125 132.046875 C 91.078125 131.363281 91.355469 130.75 91.808594 130.300781 C 92.261719 129.851562 92.882812 129.574219 93.570312 129.574219 C 94.261719 129.574219 94.882812 129.851562 95.335938 130.300781 C 95.789062 130.75 96.066406 131.363281 96.066406 132.046875 L 96.921875 132.046875 C 96.921875 130.214844 95.421875 128.726562 93.570312 128.726562 C 91.722656 128.726562 90.222656 130.214844 90.222656 132.046875 C 90.222656 133.882812 91.722656 135.371094 93.570312 135.371094 C 95.421875 135.371094 96.921875 133.882812 96.921875 132.046875 L 96.492188 132.046875 " fill-opacity="1" fill-rule="nonzero"/><path fill="#008037" d="M 123.746094 109.925781 C 123.746094 109.925781 110.234375 115.121094 93.570312 115.121094 C 76.90625 115.121094 63.398438 109.925781 63.398438 109.925781 C 63.398438 93.40625 76.90625 80.011719 93.570312 80.011719 C 110.234375 80.011719 123.746094 93.40625 123.746094 109.925781 " fill-opacity="1" fill-rule="nonzero"/><path fill="#000000" d="M 123.746094 109.925781 L 123.589844 109.53125 L 123.554688 109.546875 C 122.773438 109.839844 109.628906 114.695312 93.570312 114.695312 C 85.285156 114.695312 77.773438 113.402344 72.335938 112.109375 C 69.617188 111.464844 67.417969 110.816406 65.902344 110.335938 C 65.140625 110.09375 64.554688 109.890625 64.15625 109.75 C 63.957031 109.679688 63.804688 109.625 63.703125 109.585938 C 63.652344 109.570312 63.613281 109.554688 63.589844 109.546875 L 63.554688 109.53125 L 63.398438 109.925781 L 63.828125 109.925781 C 63.828125 101.78125 67.15625 94.414062 72.539062 89.074219 C 77.921875 83.734375 85.355469 80.4375 93.570312 80.4375 C 101.789062 80.4375 109.21875 83.734375 114.605469 89.074219 C 119.988281 94.414062 123.316406 101.78125 123.316406 109.925781 L 123.746094 109.925781 L 123.589844 109.53125 L 123.746094 109.925781 L 124.171875 109.925781 C 124.171875 93.171875 110.472656 79.589844 93.570312 79.585938 C 76.671875 79.589844 62.972656 93.171875 62.972656 109.925781 C 62.972656 110.101562 63.078125 110.257812 63.242188 110.320312 C 63.273438 110.332031 76.820312 115.542969 93.570312 115.542969 C 110.324219 115.542969 123.871094 110.332031 123.898438 110.320312 C 124.066406 110.257812 124.171875 110.101562 124.171875 109.925781 L 123.746094 109.925781 " fill-opacity="1" fill-rule="nonzero"/><g clip-path="url(#fc1042b901)"><path fill="#7ed957" d="M 142.28125 242.5625 C 135.84375 241.425781 126.875 240.550781 116.34375 240.027344 C 109.25 239.671875 101.710938 239.492188 93.941406 239.492188 C 92.25 239.492188 90.691406 239.5 89.179688 239.515625 C 58.542969 239.8125 35.4375 242.855469 35.4375 246.597656 C 35.4375 249.199219 46.210938 250.878906 52.632812 251.648438 C 63.667969 252.96875 78.335938 253.695312 93.941406 253.695312 C 109.542969 253.695312 124.210938 252.96875 135.246094 251.648438 C 141.667969 250.878906 152.445312 249.199219 152.445312 246.597656 C 152.445312 245.109375 149.023438 243.75 142.28125 242.5625 Z M 142.28125 242.5625 " fill-opacity="1" fill-rule="nonzero"/></g><g clip-path="url(#f99ba51ae5)"><path fill="#000000" d="M 79.183594 231.105469 C 79.007812 229.660156 76.679688 229.246094 75.335938 228.199219 C 73.324219 226.632812 72.324219 223.851562 74.273438 221.066406 C 76.625 219.296875 78.304688 217.6875 81.042969 215.515625 C 82.515625 214.347656 86.332031 212.511719 86.613281 210.757812 C 86.9375 208.734375 83.898438 205.636719 82.898438 204.152344 C 81.503906 202.078125 80.203125 199.828125 78.917969 197.8125 C 76.316406 193.726562 73.757812 188.800781 73.476562 182.484375 C 72.886719 169.054688 81.199219 158.355469 93.777344 158.4375 C 99.65625 158.476562 104.101562 160.128906 107.179688 163.195312 C 111.113281 167.117188 114.402344 174.566406 114.210938 181.957031 C 114.039062 188.542969 111.5625 193.496094 109.300781 198.605469 C 108.464844 198.539062 107.167969 198.171875 107.046875 199.132812 C 107.378906 200.121094 109.75 199.082031 109.832031 200.320312 C 109.523438 201.511719 106.769531 200.972656 107.046875 202.304688 C 107.691406 202.453125 108.730469 202.210938 109.035156 202.699219 C 108.113281 203.722656 105.40625 202.230469 104.789062 203.625 C 105.484375 204.683594 104.21875 205.628906 103.332031 206.53125 C 102.679688 207.195312 102.050781 207.886719 101.472656 208.382812 C 100 209.648438 98.054688 210.367188 97.226562 211.550781 C 98.285156 212.632812 99.894531 213.058594 101.339844 213.929688 C 102.648438 214.71875 104.046875 215.46875 105.320312 216.441406 C 108.84375 219.132812 113.90625 224.308594 108.902344 228.199219 C 107.644531 229.179688 105.160156 229.660156 105.054688 231.238281 C 104.992188 232.167969 105.933594 232.652344 105.585938 233.617188 C 103.335938 233.800781 101.554688 231.769531 101.605469 229.917969 C 101.683594 227.03125 105.492188 225.210938 105.851562 223.179688 C 105.121094 223.1875 104.253906 224.367188 103.992188 223.972656 C 104.035156 223.390625 104.769531 222.414062 104.125 221.988281 C 103.359375 222.589844 103.257812 223.855469 103.199219 225.160156 C 100.394531 227.289062 99.71875 232.523438 103.332031 234.410156 C 103.390625 238.242188 103.316406 242.285156 102.800781 245.375 C 102.554688 246.832031 102.40625 248.695312 101.074219 249.207031 C 99.441406 247.222656 99.449219 243.601562 98.6875 240.75 C 99.410156 240.679688 100.332031 240.804688 100.410156 240.089844 C 99.800781 239.417969 98.851562 239.738281 98.023438 239.695312 C 94.261719 239.503906 89.742188 239.492188 86.082031 239.695312 C 85.355469 239.734375 84.140625 239.371094 83.828125 240.222656 C 84.050781 240.746094 84.84375 240.707031 85.550781 240.75 C 84.726562 243.585938 84.898438 247.414062 83.03125 249.207031 C 81.8125 248.492188 81.683594 246.757812 81.4375 245.242188 C 80.917969 242.011719 80.835938 238.042969 80.910156 234.277344 C 82.644531 233.042969 83.839844 231.507812 83.5625 229.390625 C 83.324219 227.574219 81.515625 226.414062 81.042969 225.027344 C 80.597656 223.738281 81.214844 222.460938 79.980469 221.988281 C 79.59375 222.691406 80.234375 223.375 80.246094 224.105469 C 79.808594 224.09375 79.105469 223.214844 78.253906 223.179688 C 78.953125 225.359375 82.644531 227.0625 82.632812 230.050781 C 82.625 231.785156 80.871094 233.820312 78.652344 233.617188 C 78.324219 232.527344 79.308594 232.132812 79.183594 231.105469 Z M 77.722656 231.238281 C 76.703125 232.941406 76.96875 235.40625 79.582031 235.203125 C 79.402344 238.699219 79.507812 241.84375 80.113281 245.640625 C 80.464844 247.851562 80.960938 250.703125 83.03125 250.660156 C 86.179688 250.597656 85.902344 243.808594 86.878906 241.28125 C 89.90625 240.777344 94.113281 241.023438 97.359375 241.148438 C 98.292969 243.511719 98.003906 250.441406 101.074219 250.660156 C 104.570312 250.910156 104.796875 241.695312 104.789062 238.375 C 104.789062 237.425781 104.539062 236.351562 104.65625 235.335938 C 106.953125 235.324219 107.742188 233.113281 106.515625 231.371094 C 109.8125 229.871094 114.429688 226.152344 111.820312 221.066406 C 109.710938 216.949219 103.601562 213.476562 99.882812 211.683594 C 102.292969 209.597656 104.707031 207.507812 106.78125 205.078125 C 109.011719 205.097656 111.125 204.820312 111.421875 203.226562 C 111.546875 202.566406 110.921875 202.226562 110.894531 201.644531 C 110.871094 201.242188 111.285156 200.824219 111.289062 200.320312 C 111.300781 199.617188 111.203125 199.480469 110.894531 198.867188 C 113.363281 193.914062 115.394531 188.769531 115.800781 182.75 C 116.347656 174.636719 112.753906 166.230469 107.972656 161.742188 C 104.921875 158.875 100.808594 157.230469 95.503906 156.984375 C 85.414062 156.519531 79.257812 161.191406 75.335938 167.421875 C 72.738281 171.546875 71.5 177.199219 72.019531 183.542969 C 72.773438 192.757812 76.984375 197.898438 81.042969 204.152344 C 81.625 205.054688 84.960938 208.882812 84.886719 210.097656 C 84.84375 210.832031 82.828125 212.113281 81.96875 212.875 C 79.75 214.832031 78.183594 216.210938 76 218.027344 C 74.367188 219.382812 72.207031 220.304688 71.753906 222.652344 C 70.792969 227.644531 74.769531 229.660156 77.722656 231.238281 " fill-opacity="1" fill-rule="evenodd"/></g><path fill="#7ed957" d="M 113.679688 179.445312 C 114.203125 183.925781 111.464844 189.753906 109.300781 192.789062 C 108.667969 193.675781 104.53125 197.390625 103.199219 196.886719 C 102.515625 196.628906 101.917969 194.710938 101.871094 193.582031 C 101.707031 189.746094 104.191406 185.085938 107.046875 182.351562 C 108.691406 180.777344 111.078125 179.324219 113.28125 179.050781 C 113.472656 179.125 113.605469 179.257812 113.679688 179.445312 Z M 82.765625 183.144531 C 82.503906 181.703125 82.546875 179.429688 83.296875 178.652344 C 84.582031 177.324219 88.128906 178.925781 89.398438 179.578125 C 94.453125 182.175781 97.59375 189.609375 96.828125 196.226562 C 89.058594 196.929688 83.992188 189.878906 82.765625 183.144531 Z M 78.652344 233.617188 C 80.871094 233.820312 82.625 231.785156 82.632812 230.050781 C 82.644531 227.0625 78.953125 225.359375 78.253906 223.179688 C 79.105469 223.214844 79.808594 224.09375 80.246094 224.105469 C 80.234375 223.375 79.59375 222.691406 79.980469 221.988281 C 81.21875 222.460938 80.597656 223.738281 81.042969 225.027344 C 81.515625 226.414062 83.324219 227.574219 83.5625 229.390625 C 83.839844 231.507812 82.644531 233.042969 80.910156 234.277344 C 80.835938 238.042969 80.917969 242.011719 81.4375 245.242188 C 81.683594 246.757812 81.8125 248.492188 83.03125 249.207031 C 84.898438 247.414062 84.726562 243.585938 85.550781 240.75 C 84.84375 240.707031 84.050781 240.746094 83.828125 240.222656 C 84.140625 239.371094 85.355469 239.734375 86.082031 239.695312 C 89.742188 239.492188 94.261719 239.503906 98.023438 239.695312 C 98.851562 239.738281 99.800781 239.417969 100.410156 240.089844 C 100.332031 240.804688 99.410156 240.679688 98.6875 240.75 C 99.449219 243.601562 99.441406 247.222656 101.074219 249.207031 C 102.40625 248.695312 102.554688 246.832031 102.800781 245.375 C 103.316406 242.285156 103.390625 238.242188 103.332031 234.410156 C 99.71875 232.523438 100.394531 227.289062 103.199219 225.160156 C 103.257812 223.855469 103.359375 222.589844 104.125 221.988281 C 104.769531 222.414062 104.035156 223.390625 103.992188 223.972656 C 104.253906 224.367188 105.121094 223.1875 105.851562 223.179688 C 105.492188 225.210938 101.683594 227.03125 101.605469 229.917969 C 101.554688 231.769531 103.335938 233.800781 105.585938 233.617188 C 105.933594 232.652344 104.992188 232.167969 105.054688 231.238281 C 105.160156 229.660156 107.644531 229.179688 108.902344 228.199219 C 113.90625 224.308594 108.84375 219.132812 105.320312 216.441406 C 104.046875 215.46875 102.648438 214.71875 101.339844 213.929688 C 99.894531 213.058594 98.285156 212.636719 97.226562 211.550781 C 98.054688 210.367188 100 209.648438 101.472656 208.382812 C 102.050781 207.886719 102.679688 207.195312 103.332031 206.53125 C 104.21875 205.628906 105.484375 204.683594 104.789062 203.625 C 105.40625 202.230469 108.113281 203.726562 109.035156 202.699219 C 108.730469 202.210938 107.691406 202.453125 107.046875 202.304688 C 106.769531 200.972656 109.523438 201.511719 109.832031 200.320312 C 109.75 199.082031 107.378906 200.121094 107.046875 199.132812 C 107.167969 198.171875 108.464844 198.539062 109.300781 198.605469 C 111.5625 193.496094 114.039062 188.542969 114.210938 181.957031 C 114.402344 174.566406 111.113281 167.117188 107.179688 163.195312 C 104.101562 160.128906 99.65625 158.476562 93.777344 158.4375 C 81.199219 158.355469 72.886719 169.054688 73.480469 182.484375 C 73.757812 188.800781 76.316406 193.730469 78.917969 197.8125 C 80.203125 199.828125 81.503906 202.078125 82.898438 204.152344 C 83.898438 205.636719 86.9375 208.734375 86.613281 210.757812 C 86.332031 212.511719 82.515625 214.347656 81.042969 215.515625 C 78.304688 217.6875 76.625 219.296875 74.273438 221.066406 C 72.324219 223.851562 73.324219 226.632812 75.335938 228.199219 C 76.679688 229.246094 79.007812 229.660156 79.183594 231.105469 C 79.308594 232.132812 78.324219 232.527344 78.652344 233.617188 " fill-opacity="1" fill-rule="evenodd"/><path fill="#000000" d="M 88.734375 192.261719 C 85.773438 189.425781 83.691406 184.40625 84.359375 179.578125 C 92.152344 180.359375 95.335938 186.878906 95.902344 195.300781 C 92.863281 194.691406 90.570312 194.019531 88.734375 192.261719 Z M 96.828125 196.226562 C 97.59375 189.609375 94.453125 182.175781 89.398438 179.578125 C 88.128906 178.925781 84.582031 177.320312 83.296875 178.652344 C 82.546875 179.429688 82.503906 181.703125 82.765625 183.144531 C 83.992188 189.878906 89.058594 196.929688 96.828125 196.226562 " fill-opacity="1" fill-rule="evenodd"/><path fill="#000000" d="M 103.199219 192.792969 C 103.683594 187.222656 107.875 182.335938 112.085938 180.503906 C 112.21875 180.503906 112.351562 180.503906 112.484375 180.503906 C 111.816406 187.808594 108.859375 192.835938 103.726562 195.699219 C 103.417969 194.675781 103.089844 194.03125 103.199219 192.792969 Z M 113.28125 179.050781 C 111.078125 179.324219 108.691406 180.777344 107.046875 182.351562 C 104.191406 185.085938 101.707031 189.746094 101.871094 193.582031 C 101.917969 194.710938 102.515625 196.628906 103.199219 196.886719 C 104.53125 197.390625 108.667969 193.675781 109.300781 192.792969 C 111.464844 189.753906 114.203125 183.925781 113.679688 179.445312 C 113.605469 179.257812 113.472656 179.125 113.28125 179.050781 " fill-opacity="1" fill-rule="evenodd"/><path fill="#008037" d="M 90.195312 184.070312 C 89.03125 183.863281 88.421875 183.105469 87.675781 182.484375 C 88.246094 180.878906 90.804688 182.832031 90.195312 184.070312 Z M 95.902344 195.300781 C 95.335938 186.878906 92.152344 180.359375 84.359375 179.578125 C 83.691406 184.40625 85.773438 189.425781 88.734375 192.261719 C 90.570312 194.019531 92.863281 194.691406 95.902344 195.300781 " fill-opacity="1" fill-rule="evenodd"/><path fill="#008037" d="M 109.433594 184.335938 C 108.691406 184.964844 108.351562 185.988281 107.179688 186.183594 C 106.695312 185.046875 108.699219 183.003906 109.433594 184.335938 Z M 103.726562 195.699219 C 108.859375 192.835938 111.816406 187.808594 112.484375 180.503906 C 112.351562 180.503906 112.21875 180.503906 112.085938 180.503906 C 107.875 182.335938 103.683594 187.222656 103.199219 192.789062 C 103.089844 194.03125 103.417969 194.675781 103.726562 195.699219 " fill-opacity="1" fill-rule="evenodd"/><path fill="#ffffff" d="M 87.675781 182.484375 C 88.421875 183.105469 89.03125 183.863281 90.195312 184.070312 C 90.804688 182.832031 88.246094 180.878906 87.675781 182.484375 " fill-opacity="1" fill-rule="evenodd"/><path fill="#ffffff" d="M 107.179688 186.183594 C 108.351562 185.988281 108.691406 184.964844 109.433594 184.335938 C 108.699219 183.003906 106.695312 185.046875 107.179688 186.183594 " fill-opacity="1" fill-rule="evenodd"/><g clip-path="url(#f22e948e67)"><g clip-path="url(#bb89c81e81)"><g clip-path="url(#be34e94643)"><g clip-path="url(#cc51891d74)"><path fill="#ffffff" d="M 109.578125 90.683594 C 109.421875 90.9375 109.167969 91.121094 108.816406 91.226562 C 108.460938 91.335938 108.035156 91.363281 107.535156 91.308594 C 107.035156 91.253906 106.5 91.121094 105.929688 90.914062 C 105.359375 90.703125 104.796875 90.429688 104.242188 90.097656 C 103.6875 89.765625 103.183594 89.394531 102.730469 88.992188 C 102.277344 88.585938 101.910156 88.175781 101.625 87.757812 C 101.339844 87.34375 101.164062 86.953125 101.09375 86.589844 C 101.023438 86.226562 101.066406 85.917969 101.21875 85.660156 C 101.371094 85.40625 101.625 85.222656 101.980469 85.117188 C 102.335938 85.007812 102.761719 84.980469 103.261719 85.035156 C 103.761719 85.089844 104.296875 85.222656 104.867188 85.429688 C 105.4375 85.640625 106 85.914062 106.554688 86.246094 C 107.109375 86.578125 107.613281 86.949219 108.066406 87.351562 C 108.519531 87.757812 108.886719 88.167969 109.171875 88.585938 C 109.453125 89 109.632812 89.390625 109.703125 89.753906 C 109.773438 90.117188 109.730469 90.425781 109.578125 90.683594 Z M 109.578125 90.683594 " fill-opacity="1" fill-rule="nonzero"/></g></g></g></g><path fill="#7ed957" d="M 71.554688 77.375 C 71.671875 77.523438 71.886719 77.546875 72.03125 77.425781 C 72.179688 77.308594 72.199219 77.09375 72.082031 76.945312 C 72.070312 76.933594 72.058594 76.917969 72.046875 76.90625 L 67.65625 72.132812 C 67.472656 71.980469 67.203125 72 67.046875 72.183594 C 66.917969 72.339844 66.914062 72.5625 67.035156 72.726562 L 71.554688 77.375 " fill-opacity="1" fill-rule="nonzero"/><g clip-path="url(#2fddd3ce99)"><path fill="#7ed957" d="M 70.128906 86.816406 C 70.179688 86.683594 70.0625 86.519531 69.867188 86.445312 L 56.875 81.773438 C 56.679688 81.699219 56.441406 81.867188 56.34375 82.140625 C 56.242188 82.410156 56.34375 82.695312 56.539062 82.753906 L 69.695312 86.945312 C 69.851562 87.019531 70.039062 86.964844 70.128906 86.816406 " fill-opacity="1" fill-rule="nonzero"/></g><path fill="#7ed957" d="M 71.316406 86.96875 C 71.121094 86.898438 70.925781 86.945312 70.878906 87.070312 C 70.828125 87.195312 70.96875 87.351562 71.164062 87.414062 L 72.460938 87.828125 C 72.664062 87.890625 72.835938 87.851562 72.882812 87.75 C 72.921875 87.644531 72.792969 87.5 72.601562 87.429688 L 71.316406 86.96875 " fill-opacity="1" fill-rule="nonzero"/><path fill="#7ed957" d="M 67.921875 79.984375 C 67.765625 79.863281 67.542969 79.894531 67.425781 80.050781 C 67.421875 80.054688 67.417969 80.0625 67.414062 80.066406 C 67.304688 80.238281 67.359375 80.464844 67.527344 80.574219 C 67.527344 80.574219 67.53125 80.574219 67.53125 80.574219 L 69.332031 81.757812 C 69.480469 81.871094 69.699219 81.847656 69.816406 81.699219 C 69.902344 81.53125 69.84375 81.324219 69.683594 81.226562 L 67.921875 79.984375 " fill-opacity="1" fill-rule="nonzero"/><path fill="#7ed957" d="M 74.367188 84.792969 C 74.429688 84.691406 74.351562 84.511719 74.183594 84.390625 L 71.242188 82.324219 C 71.109375 82.199219 70.902344 82.210938 70.777344 82.34375 C 70.777344 82.347656 70.773438 82.347656 70.773438 82.351562 C 70.695312 82.519531 70.761719 82.71875 70.925781 82.804688 L 73.929688 84.773438 C 74.105469 84.886719 74.300781 84.898438 74.367188 84.792969 " fill-opacity="1" fill-rule="nonzero"/><path fill="#7ed957" d="M 66.367188 79.808594 C 66.539062 79.921875 66.769531 79.878906 66.882812 79.707031 C 66.996094 79.535156 66.949219 79.304688 66.785156 79.183594 L 61.582031 75.523438 C 61.375 75.410156 61.117188 75.492188 61.007812 75.699219 C 61.003906 75.703125 61.003906 75.703125 61.003906 75.707031 C 60.851562 75.890625 60.871094 76.160156 61.050781 76.320312 L 66.367188 79.808594 " fill-opacity="1" fill-rule="nonzero"/><path fill="#7ed957" d="M 76.507812 81.757812 L 75.773438 80.960938 C 75.710938 80.816406 75.546875 80.75 75.402344 80.808594 C 75.257812 80.871094 75.191406 81.035156 75.25 81.179688 C 75.277344 81.242188 75.328125 81.296875 75.390625 81.324219 L 76.144531 82.101562 C 76.289062 82.25 76.484375 82.292969 76.574219 82.199219 C 76.675781 82.109375 76.644531 81.910156 76.507812 81.757812 " fill-opacity="1" fill-rule="nonzero"/><path fill="#7ed957" d="M 74.816406 79.921875 L 72.949219 77.890625 C 72.847656 77.738281 72.648438 77.699219 72.496094 77.796875 C 72.347656 77.898438 72.304688 78.101562 72.40625 78.25 C 72.425781 78.28125 72.453125 78.3125 72.484375 78.332031 L 74.40625 80.3125 C 74.480469 80.453125 74.660156 80.503906 74.804688 80.425781 C 74.945312 80.347656 74.996094 80.167969 74.917969 80.027344 C 74.894531 79.984375 74.859375 79.945312 74.816406 79.921875 " fill-opacity="1" fill-rule="nonzero"/><path fill="#7ed957" d="M 85.738281 69.867188 C 85.777344 70.0625 85.960938 70.191406 86.15625 70.15625 C 86.347656 70.105469 86.464844 69.90625 86.414062 69.714844 L 85.046875 63.367188 C 84.980469 63.148438 84.746094 63.027344 84.53125 63.097656 C 84.339844 63.15625 84.222656 63.347656 84.246094 63.542969 L 85.738281 69.867188 " fill-opacity="1" fill-rule="nonzero"/><path fill="#7ed957" d="M 86.042969 71.164062 L 86.675781 73.851562 C 86.703125 74.039062 86.871094 74.171875 87.058594 74.152344 C 87.234375 74.089844 87.332031 73.898438 87.277344 73.71875 L 86.695312 71.019531 C 86.664062 70.828125 86.480469 70.695312 86.289062 70.726562 C 86.289062 70.726562 86.285156 70.726562 86.285156 70.726562 C 86.101562 70.777344 85.988281 70.972656 86.042969 71.160156 C 86.042969 71.160156 86.042969 71.164062 86.042969 71.164062 " fill-opacity="1" fill-rule="nonzero"/><path fill="#7ed957" d="M 78.09375 76.925781 C 78.171875 77.09375 78.371094 77.167969 78.542969 77.089844 C 78.683594 76.972656 78.710938 76.761719 78.601562 76.613281 L 71.621094 64.667969 C 71.484375 64.480469 71.21875 64.445312 71.035156 64.585938 C 70.824219 64.6875 70.734375 64.9375 70.832031 65.148438 L 78.09375 76.925781 " fill-opacity="1" fill-rule="nonzero"/><path fill="#7ed957" d="M 80.039062 79.585938 C 80.167969 79.464844 80.179688 79.265625 80.074219 79.125 L 79.382812 77.945312 C 79.3125 77.777344 79.117188 77.699219 78.949219 77.769531 C 78.808594 77.890625 78.789062 78.097656 78.902344 78.242188 L 79.621094 79.40625 C 79.730469 79.582031 79.917969 79.664062 80.039062 79.585938 " fill-opacity="1" fill-rule="nonzero"/><path fill="#7ed957" d="M 80.539062 70.386719 L 81.339844 72.394531 C 81.402344 72.578125 81.601562 72.679688 81.785156 72.621094 C 81.960938 72.53125 82.039062 72.324219 81.960938 72.144531 L 81.203125 70.121094 C 81.140625 69.933594 80.933594 69.832031 80.75 69.898438 C 80.746094 69.898438 80.742188 69.902344 80.738281 69.902344 C 80.550781 69.980469 80.460938 70.199219 80.539062 70.386719 " fill-opacity="1" fill-rule="nonzero"/><path fill="#7ed957" d="M 82.632812 73.933594 C 82.582031 73.753906 82.394531 73.648438 82.210938 73.699219 C 82.210938 73.699219 82.207031 73.699219 82.203125 73.699219 C 82.035156 73.785156 81.964844 73.996094 82.046875 74.167969 L 83.382812 77.511719 C 83.460938 77.703125 83.632812 77.816406 83.773438 77.757812 C 83.925781 77.660156 83.976562 77.464844 83.894531 77.304688 L 82.632812 73.933594 " fill-opacity="1" fill-rule="nonzero"/><path fill="#7ed957" d="M 80.027344 69.09375 C 80.101562 69.285156 80.316406 69.378906 80.507812 69.304688 C 80.695312 69.226562 80.789062 69.011719 80.714844 68.816406 L 78.480469 62.847656 C 78.386719 62.648438 78.144531 62.5625 77.945312 62.65625 C 77.941406 62.65625 77.941406 62.65625 77.9375 62.660156 C 77.722656 62.726562 77.601562 62.957031 77.664062 63.171875 L 80.027344 69.09375 " fill-opacity="1" fill-rule="nonzero"/><path fill="#7ed957" d="M 87.574219 75.105469 C 87.554688 74.917969 87.390625 74.785156 87.207031 74.800781 C 87.03125 74.863281 86.9375 75.054688 87 75.230469 L 87.25 76.285156 C 87.296875 76.488281 87.457031 76.625 87.609375 76.59375 C 87.777344 76.523438 87.859375 76.335938 87.800781 76.164062 L 87.574219 75.105469 " fill-opacity="1" fill-rule="nonzero"/><path fill="#7ed957" d="M 100.8125 76.59375 C 100.960938 76.625 101.121094 76.488281 101.171875 76.285156 L 101.417969 75.230469 C 101.480469 75.054688 101.390625 74.863281 101.214844 74.800781 C 101.03125 74.785156 100.867188 74.917969 100.847656 75.105469 L 100.621094 76.164062 C 100.558594 76.335938 100.644531 76.523438 100.8125 76.59375 " fill-opacity="1" fill-rule="nonzero"/><path fill="#7ed957" d="M 101.363281 74.152344 C 101.546875 74.171875 101.714844 74.039062 101.742188 73.851562 L 102.378906 71.164062 C 102.433594 70.980469 102.324219 70.78125 102.140625 70.726562 C 102.136719 70.726562 102.136719 70.726562 102.132812 70.726562 C 101.941406 70.695312 101.757812 70.824219 101.726562 71.019531 L 101.144531 73.71875 C 101.089844 73.898438 101.183594 74.089844 101.363281 74.152344 " fill-opacity="1" fill-rule="nonzero"/><g clip-path="url(#5411a255d5)"><path fill="#7ed957" d="M 92.191406 73.011719 C 92.378906 72.980469 92.507812 72.808594 92.484375 72.621094 L 91.789062 58.792969 C 91.734375 58.550781 91.496094 58.398438 91.253906 58.453125 C 91.066406 58.492188 90.925781 58.652344 90.90625 58.84375 L 91.859375 72.65625 C 91.855469 72.847656 92.003906 73.003906 92.191406 73.011719 " fill-opacity="1" fill-rule="nonzero"/></g><path fill="#7ed957" d="M 92.242188 73.804688 C 92.054688 73.839844 91.933594 74.011719 91.964844 74.199219 L 92.058594 75.5625 C 92.074219 75.769531 92.210938 75.929688 92.367188 75.921875 C 92.542969 75.882812 92.660156 75.707031 92.628906 75.527344 L 92.5625 74.164062 C 92.570312 73.976562 92.425781 73.816406 92.242188 73.804688 " fill-opacity="1" fill-rule="nonzero"/><path fill="#7ed957" d="M 97.476562 67.570312 C 97.277344 67.558594 97.101562 67.707031 97.089844 67.910156 C 97.089844 67.914062 97.089844 67.914062 97.089844 67.917969 L 96.929688 70.074219 C 96.90625 70.269531 97.042969 70.445312 97.234375 70.472656 C 97.429688 70.480469 97.59375 70.328125 97.601562 70.132812 L 97.800781 67.980469 C 97.824219 67.777344 97.679688 67.59375 97.476562 67.570312 " fill-opacity="1" fill-rule="nonzero"/><path fill="#7ed957" d="M 96.777344 75.96875 C 96.929688 75.984375 97.074219 75.828125 97.09375 75.625 L 97.425781 72.035156 C 97.457031 71.84375 97.328125 71.664062 97.136719 71.628906 C 96.945312 71.628906 96.789062 71.78125 96.789062 71.972656 C 96.789062 71.976562 96.789062 71.976562 96.789062 71.980469 L 96.523438 75.570312 C 96.492188 75.75 96.601562 75.925781 96.777344 75.96875 " fill-opacity="1" fill-rule="nonzero"/><path fill="#7ed957" d="M 98.121094 59.828125 C 97.902344 59.792969 97.699219 59.945312 97.664062 60.164062 C 97.664062 60.167969 97.660156 60.167969 97.660156 60.171875 L 97.191406 66.53125 C 97.175781 66.734375 97.328125 66.914062 97.527344 66.933594 C 97.730469 66.949219 97.910156 66.800781 97.929688 66.597656 C 97.929688 66.59375 97.929688 66.59375 97.929688 66.59375 L 98.519531 60.246094 C 98.519531 60.023438 98.34375 59.835938 98.121094 59.828125 " fill-opacity="1" fill-rule="nonzero"/><path fill="#7ed957" d="M 103.855469 63.085938 C 103.648438 63.03125 103.429688 63.152344 103.371094 63.363281 C 103.371094 63.363281 103.371094 63.363281 103.371094 63.367188 L 102.007812 69.714844 C 101.957031 69.90625 102.070312 70.105469 102.261719 70.15625 C 102.457031 70.191406 102.644531 70.0625 102.683594 69.867188 L 104.171875 63.542969 C 104.210938 63.332031 104.074219 63.128906 103.863281 63.089844 C 103.859375 63.089844 103.859375 63.089844 103.855469 63.085938 " fill-opacity="1" fill-rule="nonzero"/><path fill="#7ed957" d="M 116.367188 77.410156 C 116.515625 77.539062 116.738281 77.523438 116.867188 77.378906 C 116.867188 77.378906 116.867188 77.378906 116.867188 77.375 L 121.386719 72.722656 C 121.53125 72.535156 121.492188 72.261719 121.300781 72.117188 C 121.140625 71.996094 120.917969 72.003906 120.765625 72.132812 L 116.375 76.90625 C 116.234375 77.042969 116.230469 77.269531 116.367188 77.410156 " fill-opacity="1" fill-rule="nonzero"/><path fill="#7ed957" d="M 115.472656 77.890625 L 113.605469 79.921875 C 113.46875 80.003906 113.425781 80.1875 113.511719 80.324219 C 113.597656 80.460938 113.777344 80.503906 113.914062 80.417969 C 113.957031 80.390625 113.992188 80.355469 114.015625 80.3125 L 115.9375 78.332031 C 116.082031 78.226562 116.113281 78.019531 116.003906 77.875 C 115.898438 77.730469 115.695312 77.699219 115.550781 77.808594 C 115.519531 77.828125 115.492188 77.859375 115.472656 77.890625 " fill-opacity="1" fill-rule="nonzero"/><path fill="#7ed957" d="M 106.839844 75.105469 L 112.3125 62.394531 C 112.382812 62.171875 112.261719 61.9375 112.042969 61.867188 C 111.835938 61.761719 111.585938 61.84375 111.476562 62.046875 L 106.277344 74.871094 C 106.1875 75.035156 106.25 75.242188 106.414062 75.332031 C 106.59375 75.382812 106.78125 75.28125 106.839844 75.105469 " fill-opacity="1" fill-rule="nonzero"/><path fill="#7ed957" d="M 105.292969 78.019531 C 105.464844 78.054688 105.640625 77.953125 105.691406 77.78125 L 106.230469 76.523438 C 106.324219 76.363281 106.269531 76.15625 106.109375 76.0625 C 105.929688 76.019531 105.746094 76.125 105.695312 76.304688 L 105.179688 77.570312 C 105.09375 77.722656 105.140625 77.921875 105.292969 78.019531 " fill-opacity="1" fill-rule="nonzero"/><path fill="#7ed957" d="M 111.925781 75.300781 C 112.09375 75.398438 112.308594 75.339844 112.402344 75.171875 L 113.589844 73.367188 C 113.710938 73.210938 113.679688 72.984375 113.519531 72.867188 C 113.363281 72.746094 113.140625 72.777344 113.023438 72.9375 C 113.011719 72.953125 113.003906 72.964844 112.992188 72.980469 L 111.847656 74.8125 C 111.734375 74.96875 111.769531 75.1875 111.925781 75.300781 " fill-opacity="1" fill-rule="nonzero"/><path fill="#7ed957" d="M 111.300781 76.277344 C 111.128906 76.191406 110.925781 76.261719 110.835938 76.429688 L 108.925781 79.480469 C 108.816406 79.65625 108.828125 79.863281 108.953125 79.9375 C 109.070312 80.015625 109.257812 79.941406 109.371094 79.769531 L 111.351562 76.765625 C 111.46875 76.613281 111.449219 76.398438 111.300781 76.277344 " fill-opacity="1" fill-rule="nonzero"/><path fill="#7ed957" d="M 113.847656 72.3125 C 114.015625 72.425781 114.242188 72.378906 114.355469 72.207031 L 117.863281 66.886719 C 117.964844 66.65625 117.859375 66.390625 117.632812 66.289062 C 117.453125 66.207031 117.242188 66.253906 117.109375 66.402344 L 113.730469 71.800781 C 113.621094 71.972656 113.671875 72.199219 113.84375 72.3125 C 113.84375 72.3125 113.84375 72.3125 113.847656 72.3125 " fill-opacity="1" fill-rule="nonzero"/><path fill="#7ed957" d="M 113.105469 80.867188 C 112.949219 80.773438 112.75 80.8125 112.648438 80.960938 L 111.914062 81.757812 C 111.773438 81.910156 111.746094 82.109375 111.84375 82.199219 C 111.9375 82.292969 112.132812 82.25 112.277344 82.101562 L 113.03125 81.324219 C 113.171875 81.214844 113.203125 81.015625 113.105469 80.867188 " fill-opacity="1" fill-rule="nonzero"/><path fill="#7ed957" d="M 116.835938 83.738281 C 116.953125 83.871094 117.15625 83.886719 117.292969 83.777344 L 129.148438 76.6875 C 129.328125 76.582031 129.359375 76.296875 129.210938 76.054688 C 129.058594 75.820312 128.796875 75.71875 128.621094 75.832031 L 117.003906 83.308594 C 116.828125 83.421875 116.753906 83.613281 116.835938 83.738281 " fill-opacity="1" fill-rule="nonzero"/><path fill="#7ed957" d="M 116.164062 84.15625 C 116.085938 84.035156 115.882812 84.03125 115.707031 84.144531 L 114.558594 84.882812 C 114.386719 84.996094 114.300781 85.167969 114.367188 85.269531 C 114.429688 85.375 114.617188 85.375 114.796875 85.269531 L 115.96875 84.566406 C 116.148438 84.460938 116.238281 84.277344 116.164062 84.15625 " fill-opacity="1" fill-rule="nonzero"/><path fill="#7ed957" d="M 123.765625 85.929688 C 123.707031 85.738281 123.503906 85.628906 123.3125 85.691406 C 123.308594 85.691406 123.308594 85.691406 123.304688 85.691406 L 121.246094 86.328125 C 121.0625 86.367188 120.941406 86.542969 120.972656 86.726562 C 121.050781 86.902344 121.246094 86.988281 121.421875 86.921875 L 123.503906 86.367188 C 123.695312 86.324219 123.8125 86.132812 123.769531 85.941406 C 123.769531 85.9375 123.765625 85.933594 123.765625 85.929688 " fill-opacity="1" fill-rule="nonzero"/><g clip-path="url(#fc53cfe158)"><path fill="#7ed957" d="M 119.863281 87.046875 C 119.785156 86.882812 119.589844 86.8125 119.425781 86.886719 L 115.988281 87.941406 C 115.792969 88.003906 115.65625 88.136719 115.6875 88.242188 C 115.71875 88.347656 115.910156 88.390625 116.109375 88.339844 L 119.582031 87.414062 C 119.78125 87.363281 119.90625 87.195312 119.863281 87.046875 " fill-opacity="1" fill-rule="nonzero"/></g><g clip-path="url(#8521626c89)"><path fill="#7ed957" d="M 124.378906 85.75 C 124.441406 85.949219 124.648438 86.0625 124.847656 86.011719 L 130.988281 84.375 C 131.191406 84.320312 131.289062 84.0625 131.210938 83.792969 C 131.132812 83.527344 130.910156 83.359375 130.710938 83.417969 L 124.632812 85.285156 C 124.4375 85.347656 124.324219 85.554688 124.378906 85.75 " fill-opacity="1" fill-rule="nonzero"/></g></svg>