<svg width="30" height="30" viewBox="0 0 34 34" fill="none" xmlns="http://www.w3.org/2000/svg">
<g clip-path="url(#clip0_101_125)">
<path d="M10.1047 23.7078C9.65837 23.3284 9.36422 22.8006 9.27641 22.2215L8.01355 9.71433H30.235C30.6406 9.69619 31.0444 9.78005 31.4092 9.95826C31.774 10.1364 32.0885 10.4033 32.3236 10.7343C32.5492 11.0457 32.6978 11.4062 32.7568 11.7862C32.8161 12.1662 32.784 12.5548 32.6636 12.92L29.4336 22.6343C29.2645 23.137 28.9357 23.5705 28.4971 23.8687C28.0587 24.167 27.5347 24.3134 27.005 24.2857H11.705C11.1193 24.2923 10.5509 24.0871 10.1047 23.7078Z" fill="#A785BC"/>
<path d="M1.23254 1.21429H7.16353L9.27639 22.2214C9.36421 22.8005 9.65836 23.3284 10.1047 23.7077C10.5509 24.0871 11.1193 24.2923 11.705 24.2857H27.005C27.5346 24.3134 28.0587 24.1669 28.4971 23.8687C28.9357 23.5705 29.2645 23.1369 29.4335 22.6343L32.6635 12.92C32.784 12.5548 32.816 12.1662 32.7568 11.7862C32.6978 11.4062 32.5491 11.0457 32.3235 10.7343C32.0884 10.4032 31.7739 10.1364 31.4092 9.95819C31.0444 9.78 30.6405 9.69614 30.235 9.71429H8.01353" stroke="#41295E" stroke-width="1.71429" stroke-linecap="round" stroke-linejoin="round"/>
<path d="M26.5921 32.7857C25.9216 32.7857 25.3778 32.242 25.3778 31.5714C25.3778 30.9009 25.9216 30.3571 26.5921 30.3571C27.2626 30.3571 27.8064 30.9009 27.8064 31.5714C27.8064 32.242 27.2626 32.7857 26.5921 32.7857Z" stroke="#41295E" stroke-width="1.71429" stroke-linecap="round" stroke-linejoin="round"/>
<path d="M10.8064 32.7857C10.1358 32.7857 9.59216 32.242 9.59216 31.5714C9.59216 30.9009 10.1358 30.3571 10.8064 30.3571C11.4771 30.3571 12.0207 30.9009 12.0207 31.5714C12.0207 32.242 11.4771 32.7857 10.8064 32.7857Z" stroke="#41295E" stroke-width="1.71429" stroke-linecap="round" stroke-linejoin="round"/>
</g>
<defs>
<clipPath id="clip0_101_125">
<rect width="34" height="34" fill="white"/>
</clipPath>
</defs>
</svg>
