<svg width="24" height="24" viewBox="0 0 24 24" fill="none" xmlns="http://www.w3.org/2000/svg">
<g clip-path="url(#clip0_14_49)">
<path d="M10.1485 19.44C15.2801 19.44 19.44 15.2801 19.44 10.1486C19.44 5.01707 15.2801 0.857147 10.1485 0.857147C5.01704 0.857147 0.857117 5.01707 0.857117 10.1486C0.857117 15.2801 5.01704 19.44 10.1485 19.44Z" stroke="black" stroke-width="1.71429" stroke-linecap="round" stroke-linejoin="round"/>
<g clip-path="url(#clip1_14_49)">
<path d="M10.1485 19.44C15.2801 19.44 19.44 15.2801 19.44 10.1486C19.44 5.01707 15.2801 0.857147 10.1485 0.857147C5.01704 0.857147 0.857117 5.01707 0.857117 10.1486C0.857117 15.2801 5.01704 19.44 10.1485 19.44Z" stroke="black" stroke-width="1.71429" stroke-linecap="round" stroke-linejoin="round"/>
<path d="M23.1429 23.1429L16.7143 16.7143" stroke="black" stroke-width="1.71429" stroke-linecap="round" stroke-linejoin="round"/>
</g>
<path d="M23.1429 23.1429L16.7143 16.7143" stroke="black" stroke-width="1.71429" stroke-linecap="round" stroke-linejoin="round"/>
</g>
<defs>
<clipPath id="clip0_14_49">
<rect width="24" height="24" fill="white"/>
</clipPath>
<clipPath id="clip1_14_49">
<rect width="24" height="24" fill="white"/>
</clipPath>
</defs>
</svg>
